<?xml version="1.0" standalone="no"?>
<!DOCTYPE svg PUBLIC "-//W3C//DTD SVG 20010904//EN" "http://www.w3.org/TR/2001/REC-SVG-20010904/DTD/svg10.dtd">
<!-- Created using Krita: https://krita.org -->
<svg xmlns="http://www.w3.org/2000/svg" 
    xmlns:xlink="http://www.w3.org/1999/xlink"
    xmlns:krita="http://krita.org/namespaces/svg/krita"
    xmlns:sodipodi="http://sodipodi.sourceforge.net/DTD/sodipodi-0.dtd"
    width="512pt"
    height="512pt"
    viewBox="0 0 512 512">
    <style>
        .body-color {
            color: #fee4b3;
        }
        .hair-color {
            color: #3e3421;
        }
    </style>
<defs/>
<circle id="shape0" transform="matrix(0.933115522905579 -0.359576724653658 0.359576724653658 0.933115522905579 99.890005345873 105.087989373672)" r="26" cx="26" cy="26" fill="currentColor" class="hair-color" fill-rule="evenodd" stroke-opacity="0" stroke="#000000" stroke-width="0" stroke-linecap="square" stroke-linejoin="bevel"/><circle id="shape01" transform="matrix(0.956862787161479 0.29054019781361 -0.29054019781361 0.956862787161479 339.875609120766 87.7675207205591)" r="26" cx="26" cy="26" fill="currentColor" class="hair-color" fill-rule="evenodd" stroke-opacity="0" stroke="#000000" stroke-width="0" stroke-linecap="square" stroke-linejoin="bevel"/><path id="shape02" transform="matrix(0.691855274012902 -0.266606917640027 0.268620027841449 0.697079372931084 109.64751626847 109.30256886096)" sodipodi:type="arc" sodipodi:rx="26" sodipodi:ry="26" sodipodi:cx="26.0016231656985" sodipodi:cy="26.0002761934113" sodipodi:start="1.85658662876151" sodipodi:end="6.0772271830422" sodipodi:open="true" d="M51.4521 20.6831C48.8504 8.23008 37.6195 -0.511447 24.9089 0.0232507C12.1982 0.557949 1.74112 10.2118 0.194477 22.8394C-1.35216 35.467 6.46589 47.3592 18.6718 50.9457" fill="#7b7b7b" fill-opacity="0.333333333333333" fill-rule="evenodd" stroke-opacity="0" stroke="#000000" stroke-width="0" stroke-linecap="square" stroke-linejoin="bevel"/><path id="shape03" transform="matrix(-0.246456384844677 0.69928693615874 -0.704567150480874 -0.24831734129295 379.737178611457 110.95785469977)" sodipodi:type="arc" sodipodi:rx="26" sodipodi:ry="26" sodipodi:cx="26.0016231656985" sodipodi:cy="26.0002761934113" sodipodi:start="1.85658662876151" sodipodi:end="6.0772271830422" sodipodi:open="true" d="M51.4521 20.6831C48.8504 8.23008 37.6195 -0.511447 24.9089 0.0232507C12.1982 0.557949 1.74112 10.2118 0.194477 22.8394C-1.35216 35.467 6.46589 47.3592 18.6718 50.9457" fill="#7b7b7b" fill-opacity="0.333333333333333" fill-rule="evenodd" stroke-opacity="0" stroke="#000000" stroke-width="0" stroke-linecap="square" stroke-linejoin="bevel"/><path id="shape1" transform="translate(37.9568092981351, 52.2216207873047)" fill="currentColor" class="hair-color" fill-rule="evenodd" stroke-opacity="0" stroke="#000000" stroke-width="0" stroke-linecap="square" stroke-linejoin="bevel" d="M97.043 103.028C91.1795 85.8901 89.6195 75.1467 92.3629 70.7979C100.249 73.2253 105.782 71.0788 108.962 64.3585C114.015 45.1662 119.059 32.4514 124.094 26.2141C128.636 30.2694 134.739 29.7619 142.405 24.6916C154.671 11.5629 166.745 3.5471 178.627 0.644064C184.888 5.38147 193.443 7.59856 204.293 7.29534C219.499 6.87038 230.819 4.4386 238.254 0C247.932 3.03137 259.271 11.5378 272.27 25.5194C280.029 30.9977 286.831 31.8737 292.677 28.1472C297.387 34.1993 301.804 46.7998 305.93 65.9488C309.791 73.5663 315.093 75.55 321.836 71.8999C326.636 80.5466 325.955 91.2561 319.793 104.028C317.588 111.396 327.298 116.943 348.922 120.671C351.683 131.913 341.521 139.462 330.543 146.778C334.867 155.532 341.976 160.57 352.299 161.325C354.009 177.447 338.84 186.336 327.334 196.794L358.151 196.302C354.09 207.643 356.549 221.778 339.708 227.642C397.962 283.278 431.615 316.677 440.668 327.84C454.771 345.23 459.785 389.21 455.709 459.778L0 459.778C1.90742 385.276 10.9427 338.734 27.1057 320.153C33.7552 312.509 59.0014 280.366 102.845 223.724C93.0351 223.897 87.5602 213.234 81.6021 203.778C90.1698 201.852 98.7374 199.352 107.305 194.778C95.1832 187.099 81.538 180.943 75.0872 167.593C84.3656 163.034 93.5357 158.313 98.8996 147.882L74.7932 115.028C91.8667 108.484 99.2833 104.484 97.043 103.028Z" sodipodi:nodetypes="cccccczccccccccccccsccsccccccc"/><path id="shape2" transform="translate(138.999999234474, 67.7499999229524)" fill="currentColor" class="body-color" fill-rule="evenodd" d="M91.5 19.25L71.5 11.5L61 29.875L41.25 29L36.5 58.25L15.75 72.5L26.25 93.5L0 114.5L22.5 132.125L2.25 165.25L24.75 169.125L15.625 196.75L37.125 197.25L43.875 236.25L78.5 226.25L91.75 253.25L112 226.75L146.25 244.75L159.75 216.75L182.25 224L197.625 207.625L224.5 205.75L203.125 188.25L219 156.5L196.5 133.25L212.25 110L203.25 102.5L210 70.25L191.25 78.5L183.5 52.75L165.25 58L158 20.25L131.875 21.625L112 0Z" sodipodi:nodetypes="ccccccccccccccccccccccccccccccccccc"/><path id="shape04" transform="translate(210.249796817647, 158.807775748629)" sodipodi:type="arc" sodipodi:rx="34.0290405584865" sodipodi:ry="30.0937420901222" sodipodi:cx="34.0315440017649" sodipodi:cy="30.0937454315111" sodipodi:start="2.7771271865492" sodipodi:end="0.382097589635189" sodipodi:open="true" d="M65.6066 41.3147C71.2884 28.8106 66.8778 14.4904 54.8103 6.26177C42.7429 -1.96689 25.9608 -2.09774 13.7311 5.94149C1.50148 13.9807 -3.19392 28.2299 2.23772 40.8207" fill="none" stroke-opacity="0.541176470588235" stroke="#cecccc" stroke-width="3" stroke-linecap="square" stroke-linejoin="bevel"/><path id="shape011" transform="translate(212.435534122688, 160.874999083341)" sodipodi:type="arc" sodipodi:rx="31.5" sodipodi:ry="30.0937420901222" sodipodi:cx="31.5019659133363" sodipodi:cy="30.0937438825452" sodipodi:start="2.87596005471342" sodipodi:end="0.280019146623562" sodipodi:open="true" d="M61.775 38.4109C65.4584 26.1743 60.6825 13.0474 49.849 5.63145C39.0155 -1.78452 24.4692 -1.88449 13.5252 5.38183C2.58115 12.6481 -2.39194 25.708 1.10678 37.9939" fill="none" stroke-opacity="0.541176470588235" stroke="#000000" stroke-width="3" stroke-linecap="square" stroke-linejoin="bevel"/><ellipse id="shape0111" transform="matrix(0.868609045226237 -0.512136819624553 0.533215390331171 0.834272007120797 249.250249796013 175.03199840629)" rx="6.0887944945512" ry="12" cx="6.0887944945512" cy="12" fill="#31291a" fill-rule="evenodd" stroke-opacity="0" stroke="#000000" stroke-width="0" stroke-linecap="square" stroke-linejoin="bevel"/><ellipse id="shape01111" transform="matrix(0.870245506123168 0.509567546419194 -0.530540370761073 0.835843776980392 227.929162715326 169.24998857762)" rx="5.47878894919615" ry="12" cx="5.47878894919615" cy="12" fill="#31291a" fill-rule="evenodd" stroke-opacity="0" stroke="#000000" stroke-width="0" stroke-linecap="square" stroke-linejoin="bevel"/>
</svg>
