<?xml version="1.0" standalone="no"?>
<!DOCTYPE svg PUBLIC "-//W3C//DTD SVG 20010904//EN" "http://www.w3.org/TR/2001/REC-SVG-20010904/DTD/svg10.dtd">
<!-- Created using Krita: https://krita.org -->
<svg xmlns="http://www.w3.org/2000/svg" 
    xmlns:xlink="http://www.w3.org/1999/xlink"
    xmlns:krita="http://krita.org/namespaces/svg/krita"
    xmlns:sodipodi="http://sodipodi.sourceforge.net/DTD/sodipodi-0.dtd"
    width="512pt"
    height="512pt"
    viewBox="0 0 512 512">
    <style>
        .hair-color {
            color: #3e3421;
        }
    </style>
<defs/>
<path id="shape01" transform="translate(145.827535878228, 41.7412829603157)" fill="currentColor" class="hair-color" fill-rule="evenodd" stroke-opacity="0" stroke="#000000" stroke-width="0" stroke-linecap="square" stroke-linejoin="bevel" d="M20.98 56.0682C73.5776 41.8 68.335 81.7745 199.548 91.4461C217.967 93.9287 231.022 87.3853 238.715 71.8159C230.904 70.3236 219.767 71.247 215.309 62.9164C39.0341 -72.0358 1.98653 45.3227 0 90.2905C2.94619 80.5337 9.93953 69.1263 20.98 56.0682Z" sodipodi:nodetypes="cccccc"/><path id="shape0" transform="translate(344.859361309343, 131.221268222652)" fill="currentColor" class="hair-color" fill-opacity="0.52156862745098" fill-rule="evenodd" stroke-opacity="0" stroke="#000000" stroke-width="0" stroke-linecap="square" stroke-linejoin="bevel" d="M0 0.0544784C1.37546 5.68071 11.7075 22.1543 11.4494 29.7878C13.1745 28.5958 14.7317 27.9057 16.121 27.7176C15.5048 16.5681 10.8325 4.60281 10.0585 2.22823C9.0626 1.81762 3.92567 -0.370497 0 0.0544784Z" sodipodi:nodetypes="ccccc"/>
</svg>
