<?xml version="1.0" standalone="no"?>
<!DOCTYPE svg PUBLIC "-//W3C//DTD SVG 20010904//EN" "http://www.w3.org/TR/2001/REC-SVG-20010904/DTD/svg10.dtd">
<!-- Created using Krita: https://krita.org -->
<svg xmlns="http://www.w3.org/2000/svg" 
    xmlns:xlink="http://www.w3.org/1999/xlink"
    xmlns:krita="http://krita.org/namespaces/svg/krita"
    xmlns:sodipodi="http://sodipodi.sourceforge.net/DTD/sodipodi-0.dtd"
    width="512pt"
    height="512pt"
    viewBox="0 0 512 512">
<defs/>
<rect id="shape0" transform="matrix(0.998493304319095 0.054873684311676 -0.054873684311676 0.998493304319095 85.3605840536351 380.568916148828)" fill="#3c2123" fill-rule="evenodd" stroke-opacity="0" stroke="#000000" stroke-width="0" stroke-linecap="square" stroke-linejoin="bevel" width="26.2313626601238" height="62.1201379425354"/><path id="shape1" transform="translate(97.6147396389011, 180.250000156306)" fill="#573535" fill-rule="evenodd" stroke-opacity="0" stroke="#000000" stroke-width="0" stroke-linecap="square" stroke-linejoin="bevel" d="M1.07277 138.75C-1.34785 91.1106 -1.95407 43.7131 25.0728 0L39.6978 10.125C17.3953 48.5403 18.3581 93.4699 20.5728 138.75Z" sodipodi:nodetypes="ccccc"/><path id="shape2" transform="translate(62.6875003158676, 307.374999370823)" fill="#441e1e" fill-rule="evenodd" stroke-opacity="0" stroke="#000000" stroke-width="0" stroke-linecap="square" stroke-linejoin="bevel" d="M24.375 0L69.375 1.875L71.625 71.25C38.7472 42.3585 21.8956 58.5379 0 66Z" sodipodi:nodetypes="ccccc"/><path id="shape21" transform="matrix(-0.951594145010172 0.0310736237474746 0.0326368864412896 0.999467274923706 357.945269946928 243.652981453642)" fill="#000000" fill-rule="evenodd" stroke-opacity="0" stroke="#000000" stroke-width="0" stroke-linecap="square" stroke-linejoin="bevel" d="M25.5897 0C8.46665 15.1532 3.66894 30.8245 0 46.5434L19.5897 54.375C16.6126 46.4392 22.0977 33.921 38.7147 15.375Z" sodipodi:nodetypes="ccccc"/><ellipse id="shape3" transform="translate(182.875000131378, 433.750000167209)" rx="16.9374964826478" ry="17.5" cx="16.9374964826478" cy="17.5" fill="#444444" fill-rule="evenodd" stroke-opacity="0" stroke="#000000" stroke-width="0" stroke-linecap="square" stroke-linejoin="bevel"/><path id="shape4" transform="matrix(-1 0 0 1 226.499992786143 452.249985596174)" fill="#6d4949" fill-rule="evenodd" stroke-opacity="0" stroke="#000000" stroke-width="0" stroke-linecap="square" stroke-linejoin="bevel" d="M0 38L29.25 54.875L72.375 54.5L51.3399 0L7.13054 9Z" sodipodi:nodetypes="cccccc"/><path id="shape5" transform="matrix(0.994483393781571 -0.104894134691559 0.104894134691559 0.994483393781571 369.634231678175 197.822960626412)" fill="#573535" fill-rule="evenodd" stroke-opacity="0" stroke="#000000" stroke-width="0" stroke-linecap="square" stroke-linejoin="bevel" d="M9.75 0L53.25 40.5L42.75 56.25L0 7.875Z" sodipodi:nodetypes="ccccc"/><ellipse id="shape6" transform="translate(65.4375004617117, 356.500000185248)" rx="32.5" ry="20.5" cx="32.5" cy="20.5" fill="#44242d" fill-rule="evenodd" stroke-opacity="0" stroke="#000000" stroke-width="0" stroke-linecap="square" stroke-linejoin="bevel"/><rect id="shape7" transform="translate(66.5625004655497, 372.000000182177)" fill="#616161" fill-rule="evenodd" stroke-opacity="0" stroke="#000000" stroke-width="0" stroke-linecap="square" stroke-linejoin="bevel" width="63" height="12"/><ellipse id="shape01" transform="matrix(0.962546116197031 -0.27111800787483 0.27111800787483 0.962546116197031 175.699472347772 232.335407525989)" rx="16.5" ry="25.5" cx="16.5" cy="25.5" fill="#5f5f5f" fill-rule="evenodd" stroke-opacity="0" stroke="#000000" stroke-width="0" stroke-linecap="square" stroke-linejoin="bevel"/><ellipse id="shape8" transform="translate(112.062500442339, 134.875000344259)" rx="31" ry="36.5" cx="31" cy="36.5" fill="#6c602e" fill-rule="evenodd" stroke-opacity="0" stroke="#000000" stroke-width="0" stroke-linecap="square" stroke-linejoin="bevel"/><ellipse id="shape9" transform="translate(339.437500455571, 162.125000192156)" rx="22" ry="26" cx="22" cy="26" fill="#6c602e" fill-rule="evenodd" stroke-opacity="0" stroke="#000000" stroke-width="0" stroke-linecap="square" stroke-linejoin="bevel"/><ellipse id="shape10" transform="matrix(0.943147933525623 0.332373247248254 -0.332373247248254 0.943147933525623 314.851077363369 215.465569300748)" rx="16.5" ry="25.5" cx="16.5" cy="25.5" fill="#5f5f5f" fill-rule="evenodd" stroke-opacity="0" stroke="#000000" stroke-width="0" stroke-linecap="square" stroke-linejoin="bevel"/><path id="shape11" transform="matrix(0.999522275117546 0.03090665856819 -0.03090665856819 0.999522275117546 118.240903456001 38.6876310628133)" fill="#a43333" fill-rule="evenodd" stroke-opacity="0" stroke="#000000" stroke-width="0" stroke-linecap="square" stroke-linejoin="bevel" d="M0 110.252C28.3997 -25.7844 250.355 -53.8124 266.5 128.752C225.632 171.938 210.413 200.04 197.5 227.252C165.615 245.324 125.091 245.052 94.5 235.752C47.2393 135.539 27.0058 133.243 0 110.252Z" sodipodi:nodetypes="ccccc"/><path id="shape12" transform="translate(108.937496719423, 25.4999964907329)" fill="none" stroke="#452626" stroke-width="4" stroke-linecap="square" stroke-linejoin="miter" stroke-miterlimit="2" d="M44.5 70.5L0 0" sodipodi:nodetypes="cc"/><path id="shape13" transform="translate(143.937495604699, 78.4999948027219)" fill="#3f1f1f" fill-rule="evenodd" stroke="#291d1d" stroke-width="20" stroke-linecap="square" stroke-linejoin="miter" stroke-miterlimit="2" d="M7.5 11.25L0 0" sodipodi:nodetypes="cc"/><path id="shape14" transform="matrix(0.933510175941431 0.358550904912817 -0.358550904912817 0.933510175941431 401.460238752039 241.131425095986)" fill="#573535" fill-rule="evenodd" stroke-opacity="0" stroke="#000000" stroke-width="0" stroke-linecap="square" stroke-linejoin="bevel" d="M30.75 0L0 67.875L18.375 70.5L41.625 0.375Z" sodipodi:nodetypes="ccccc"/><path id="shape15" transform="translate(406.93749961121, 226.374999536625)" fill="#bcba6d" fill-rule="evenodd" stroke-opacity="0" stroke="#000000" stroke-width="0" stroke-linecap="square" stroke-linejoin="bevel" d="M0 24.375L25.125 0L48.75 33.75L27.375 55.5Z" sodipodi:nodetypes="ccccc"/><rect id="shape16" transform="matrix(0.976172728029072 0.216994942457838 -0.216994942457838 0.976172728029072 125.464081772314 369.198242133413)" fill="#391822" fill-rule="evenodd" stroke-opacity="0" stroke="#000000" stroke-width="0" stroke-linecap="square" stroke-linejoin="bevel" width="17.4446950947608" height="50.0846996825715"/><rect id="shape17" transform="matrix(0.993066905428786 -0.117550505494862 0.117550505494862 0.993066905428786 51.3778398651054 371.69785790267)" fill="#391822" fill-rule="evenodd" stroke-opacity="0" stroke="#000000" stroke-width="0" stroke-linecap="square" stroke-linejoin="bevel" width="19.2700427532011" height="50.9203517720446"/><ellipse id="shape18" transform="translate(82.6875003900509, 366.499999994152)" rx="16" ry="15" cx="16" cy="15" fill="#616161" fill-rule="evenodd" stroke-opacity="0" stroke="#000000" stroke-width="0" stroke-linecap="square" stroke-linejoin="bevel"/><path id="shape19" transform="translate(163.562500109383, 257.499999472914)" fill="#000000" fill-rule="evenodd" stroke-opacity="0" stroke="#000000" stroke-width="0" stroke-linecap="square" stroke-linejoin="bevel" d="M24.375 0L0 36L18.375 54.375L37.5 15.375Z" sodipodi:nodetypes="ccccc"/><path id="shape20" transform="translate(154.687500099945, 264.999999457562)" fill="#a6a9a9" fill-rule="evenodd" stroke-opacity="0" stroke="#000000" stroke-width="0" stroke-linecap="square" stroke-linejoin="bevel" d="M0 1.51352L19.75 0L23.25 23.714L39 29.4419L38.5 98.4756L24.25 97.875Z" sodipodi:nodetypes="ccccccc"/><path id="shape22" transform="translate(176.749994348729, 366.624988263)" fill="#666666" fill-rule="evenodd" stroke-opacity="0" stroke="#000000" stroke-width="0" stroke-linecap="square" stroke-linejoin="bevel" d="M0 3.75L13.5 76.875L33.375 73.5L19.125 0Z" sodipodi:nodetypes="ccccc"/><path id="shape23" transform="translate(177.749994338795, 419.249986647199)" fill="#6b2626" fill-rule="evenodd" stroke-opacity="0" stroke="#000000" stroke-width="0" stroke-linecap="square" stroke-linejoin="bevel" d="M0 8.25C15 5.375 22.875 2.875 37.875 0L48 22.125L0 28.875Z" sodipodi:nodetypes="ccccc"/><path id="shape02" transform="matrix(-1 0 0 1 197.474996817867 488.674984221859)" fill="#8f8f8f" fill-rule="evenodd" stroke-opacity="0" stroke="#000000" stroke-width="0" stroke-linecap="square" stroke-linejoin="bevel" d="M0 18.45L19.5375 18.45L20.9733 12.7376L25.9125 12.6375L29.1 18.45L47.85 18.45L35.4165 0.375L4.52126 0Z" sodipodi:nodetypes="ccccccccc"/><path id="shape24" transform="translate(164.874994770769, 352.874988826939)" fill="#865656" fill-rule="evenodd" stroke-opacity="0" stroke="#000000" stroke-width="0" stroke-linecap="square" stroke-linejoin="bevel" d="M0 0L39.625 2.125C44.7583 11.35 47.0917 19.1417 46.625 25.5C39 29.5 20.375 33.5 7.25 33C4.1 26.3 1.68333 15.3 0 0Z" sodipodi:nodetypes="ccccc"/><ellipse id="shape03" transform="matrix(-0.951594145010172 0.0310736237474746 0.0326368864412896 0.999467274923706 355.538961459395 439.321943354073)" rx="16.9374964826478" ry="17.5" cx="16.9374964826478" cy="17.5" fill="#444444" fill-rule="evenodd" stroke-opacity="0" stroke="#000000" stroke-width="0" stroke-linecap="square" stroke-linejoin="bevel"/><path id="shape31" transform="matrix(-0.944592956874207 0.11933621719362 0.125339825201359 0.992113868574819 368.930349479412 256)" fill="#7b3e3e" fill-rule="evenodd" stroke-opacity="0" stroke="#000000" stroke-width="0" stroke-linecap="square" stroke-linejoin="bevel" d="M0 0L19.4929 0.835155L23.5623 24.9722L41.6897 31.2531L42.7211 109.038L27.0986 109.99Z" sodipodi:nodetypes="ccccccc"/><path id="shape41" transform="matrix(-0.951892899732255 0.0199222074519599 0.0209244608080918 0.999781059502476 359.270068769683 370.496001411992)" fill="#492424" fill-rule="evenodd" stroke-opacity="0" stroke="#000000" stroke-width="0" stroke-linecap="square" stroke-linejoin="bevel" d="M0 3.75L13.5 76.875L33.375 73.5L19.125 0Z" sodipodi:nodetypes="ccccc"/><path id="shape51" transform="matrix(-0.936087148653444 0.173890301731601 0.182638435638427 0.983180147189492 358.115508167895 423.101548511262)" fill="#6b2626" fill-rule="evenodd" stroke-opacity="0" stroke="#000000" stroke-width="0" stroke-linecap="square" stroke-linejoin="bevel" d="M0 8.25C15 5.375 22.875 2.875 37.875 0L48 22.125L0 28.875Z" sodipodi:nodetypes="ccccc"/><path id="shape61" transform="matrix(0.948425049960442 0.0835877474153581 -0.0877929089458044 0.996138747935665 330.37707270556 358.241408907533)" fill="#bbbbbb" fill-rule="evenodd" stroke-opacity="0" stroke="#000000" stroke-width="0" stroke-linecap="square" stroke-linejoin="bevel" d="M0.286502 4.77757L41.0975 0C44.4812 12.9198 45.5767 23.0597 44.3839 30.42C30.0533 33.1608 9.31638 33.9561 0.290155 32.0385C-0.0954968 24.3265 -0.0967145 15.2395 0.286502 4.77757Z" sodipodi:nodetypes="ccccc"/><path id="shape25" transform="translate(347.999978545252, 297.749981643244)" fill="#b3b3b2" fill-rule="evenodd" stroke-opacity="0" stroke="#000000" stroke-width="0" stroke-linecap="square" stroke-linejoin="bevel" d="M26.25 0L56.625 19.5L33 48.375L0 35.25Z" sodipodi:nodetypes="ccccc"/><path id="shape26" transform="translate(336.749979238832, 298.249981619868)" fill="#b2b394" fill-rule="evenodd" stroke-opacity="0" stroke="#000000" stroke-width="0" stroke-linecap="square" stroke-linejoin="bevel" d="M36.25 1.625L10.875 0L0 8.5L7.5 17.625L15.75 14.875L27.375 14.125Z" sodipodi:nodetypes="ccccccc"/><path id="shape27" transform="translate(346.249978861759, 332.249979516264)" fill="#b2b394" fill-rule="evenodd" stroke-opacity="0" stroke="#000000" stroke-width="0" stroke-linecap="square" stroke-linejoin="bevel" d="M1.375 0L0 6L7.25 10.625L13 7.5L12.75 13.5L20.5 18.125L26.125 15L27.125 20.5L36 20.625L36.75 12.5L32.5 12.625Z" sodipodi:nodetypes="cccccccccccc"/><path id="shape04" transform="matrix(0.999522275117543 0.0309066585681899 -0.0309066585681899 0.999522275117543 117.551264233481 38.2690857340858)" fill="#c3c3c3" fill-rule="evenodd" stroke-opacity="0" stroke="#000000" stroke-width="0" stroke-linecap="square" stroke-linejoin="bevel" d="M0 110.183C28.3997 -25.8535 252.047 -53.7463 268.192 128.818C227.324 172.004 211.578 201.248 198.665 228.46C197.551 204.368 178.705 167.141 142.126 116.779C65.3792 127.709 18.0039 125.51 0 110.183Z" sodipodi:nodetypes="ccccc"/><path id="shape28" transform="translate(189.749999611596, 40.9394006507635)" fill="#868686" fill-rule="evenodd" stroke-opacity="0" stroke="#000000" stroke-width="0" stroke-linecap="square" stroke-linejoin="bevel" d="M0 15.6856C16.3469 25.3046 33.4056 34.7998 27.375 48.3106L76.5 43.8106C78.859 22.3234 69.9215 9.87337 57.375 0.310599C34.9697 -1.781 17.535 7.0626 0 15.6856Z" sodipodi:nodetypes="ccccc"/><path id="shape29" transform="translate(113.99999976665, 142.752111808342)" fill="#bcb476" fill-rule="evenodd" stroke-opacity="0" stroke="#000000" stroke-width="0" stroke-linecap="square" stroke-linejoin="bevel" d="M0 5.74789C12.5933 -1.33938 42.9364 -5.55202 74.25 15.8729L107.625 59.7479C104.067 83.9864 84.1543 90.7161 74.625 99.8729C61.4814 64.5874 30.7056 35.1793 0 5.74789Z" sodipodi:nodetypes="ccccc"/><path id="shape05" transform="matrix(0.975609892702082 0 0 1 312.249989584942 454.737485625976)" fill="#6d4949" fill-rule="evenodd" stroke-opacity="0" stroke="#000000" stroke-width="0" stroke-linecap="square" stroke-linejoin="bevel" d="M0 38L29.25 54.875L72.375 54.5L51.3399 0L7.13054 9Z" sodipodi:nodetypes="cccccc"/><path id="shape011" transform="matrix(0.975609892702082 0 0 1 340.56706278723 491.162484251661)" fill="#8f8f8f" fill-rule="evenodd" stroke-opacity="0" stroke="#000000" stroke-width="0" stroke-linecap="square" stroke-linejoin="bevel" d="M0 18.45L19.5375 18.45L20.9733 12.7376L25.9125 12.6375L29.1 18.45L47.85 18.45L35.4165 0.375L4.52126 0Z" sodipodi:nodetypes="ccccccccc"/><rect id="shape06" transform="matrix(4.70977423727695e-16 1 -1 4.70977423727695e-16 104.999992698433 381.449997835246)" fill="#616161" fill-rule="evenodd" stroke-opacity="0" stroke="#000000" stroke-width="0" stroke-linecap="square" stroke-linejoin="bevel" width="27.6749737147213" height="15.2624916331119"/>
</svg>
