<?xml version="1.0" standalone="no"?>
<!DOCTYPE svg PUBLIC "-//W3C//DTD SVG 20010904//EN" "http://www.w3.org/TR/2001/REC-SVG-20010904/DTD/svg10.dtd">
<!-- Created using Krita: https://krita.org -->
<svg xmlns="http://www.w3.org/2000/svg" 
    xmlns:xlink="http://www.w3.org/1999/xlink"
    xmlns:krita="http://krita.org/namespaces/svg/krita"
    xmlns:sodipodi="http://sodipodi.sourceforge.net/DTD/sodipodi-0.dtd"
    width="512pt"
    height="512pt"
    viewBox="0 0 512 512">
<defs>
  <radialGradient id="gradient0" gradientUnits="objectBoundingBox" cx="0.42250000000001" cy="0.529953917050689" fx="0.65150076737464" fy="0.533849651702226" r="0.689213562373186" spreadMethod="pad">
   <stop stop-color="#ffe87f" offset="0.0231660231660232" stop-opacity="1"/>
   <stop stop-color="#e3542d" offset="0.0888030888030888" stop-opacity="1"/>
   <stop stop-color="#37c9ff" offset="0.150579150579151" stop-opacity="1"/>
   <stop stop-color="#ffffff" offset="0.227799227799228" stop-opacity="1"/>
   <stop stop-color="#ce2cff" offset="0.312741312741313" stop-opacity="1"/>
   <stop stop-color="#e3542d" offset="0.374517374517374" stop-opacity="1"/>
   <stop stop-color="#f7dcda" offset="0.455598455598456" stop-opacity="1"/>
   <stop stop-color="#4439fa" offset="0.548262548262548" stop-opacity="1"/>
   <stop stop-color="#ffe87f" offset="0.637065637065637" stop-opacity="1"/>
   <stop stop-color="#ffae50" offset="0.749034749034749" stop-opacity="1"/>
   <stop stop-color="#e3542d" offset="0.799227799227799" stop-opacity="1"/>
   <stop stop-color="#ffffff" offset="0.853281853281853" stop-opacity="1"/>
   <stop stop-color="#75bae9" offset="0.938223938223938" stop-opacity="1"/>
   <stop stop-color="#ffe87f" offset="0.961389961389961" stop-opacity="1"/>
  </radialGradient>
 </defs>
<path id="shape0" transform="translate(175.554411690102, 83.9456799669441)" fill="url(#gradient0)" fill-rule="evenodd" d="M56.8981 0.0429294L137.25 5.20841C147.607 9.96155 149.86 14.4624 152.421 20.3916C158.817 91.1407 162.278 141.695 162.804 172.054C163.324 202.12 161.632 252.272 157.728 322.513C155.607 329.325 155.957 336.572 145.847 341.973L95.3153 348.925C84.9354 350.205 77.5321 346.777 73.1055 338.639C28.3854 262.752 4.19082 207.224 0.521658 172.054C-2.64964 141.657 8.63845 89.2654 34.3859 14.8799C38.0537 6.58363 47.5006 -0.624301 56.8981 0.0429294Z" sodipodi:nodetypes="cccsccccscc"/>
</svg>
