<?xml version="1.0" standalone="no"?>
<!DOCTYPE svg PUBLIC "-//W3C//DTD SVG 20010904//EN" "http://www.w3.org/TR/2001/REC-SVG-20010904/DTD/svg10.dtd">
<!-- Created using Krita: https://krita.org -->
<svg xmlns="http://www.w3.org/2000/svg" 
    xmlns:xlink="http://www.w3.org/1999/xlink"
    xmlns:krita="http://krita.org/namespaces/svg/krita"
    xmlns:sodipodi="http://sodipodi.sourceforge.net/DTD/sodipodi-0.dtd"
    width="512pt"
    height="512pt"
    viewBox="0 0 512 512">
<defs/>
<path id="shape0" transform="translate(141.666658807791, 0)" fill="#562e33" fill-rule="evenodd" stroke-opacity="0" stroke="#000000" stroke-width="0" stroke-linecap="square" stroke-linejoin="bevel" d="M0 162.75C6.4321 19.4439 185.793 -7.5323 220.875 159C228.198 109.846 208.847 54.1997 166.5 0C89.8988 36.1288 13.0137 12.477 0 162.75Z" sodipodi:nodetypes="cccc"/><path id="shape01" transform="translate(140.839504626838, -11.2499989122271)" fill="#311e20" fill-rule="evenodd" stroke-opacity="0" stroke="#000000" stroke-width="0" stroke-linecap="square" stroke-linejoin="bevel" d="M0.827154 171.75C2.38425 51.6939 191.495 -0.0323004 221.702 168C238.455 59.5928 142.192 37.5784 115.16 0C46.5441 33.9177 -7.37918 145.248 0.827154 171.75Z" sodipodi:nodetypes="cccc"/><path id="shape1" transform="translate(140.22977470436, 32.7657201009158)" fill="#b61204" fill-rule="evenodd" d="M155.77 288.734C147.162 305.981 124.716 319.941 106.27 333.234C90.7229 324.448 72.2899 306.048 59.7702 291.234L61.9577 242.672C53.4715 243.487 10.4001 214.784 3.27022 175.734L0.270216 120.734C-4.47024 28.6815 53.8601 -1.35869 120.27 0.0467774C186.68 1.45224 228.43 45.3118 221.27 126.234L215.77 177.234C203.074 220.854 172.485 245.659 154.676 242.859C194.313 234.382 284.111 39.5379 115.77 36.1143C-52.5708 32.6907 7.95441 214.908 62.184 242.594C80.7401 242.675 111.667 242.81 154.964 243Z" sodipodi:nodetypes="cccccczccczccc"/><path id="shape2" transform="translate(136.61784850732, 0)" fill="#562e33" fill-rule="evenodd" d="M5.13214 161.25C6.68924 41.1939 195.8 -10.5323 226.007 157.5C247.58 10.8464 79.7293 6.57475 57.2571 0C7.28098 57.8788 -9.60416 150.102 5.13214 161.25Z" sodipodi:nodetypes="cccc"/><path id="shape02" transform="translate(141.424670340231, 19.87499985099)" fill="#1e1213" fill-rule="evenodd" stroke-opacity="0" stroke="#000000" stroke-width="0" stroke-linecap="square" stroke-linejoin="bevel" d="M1.74199 145.5C1.04909 16.4439 195.035 -16.9073 219.617 140.625C235.19 19.8464 79.7141 6.57475 57.2419 0C7.26583 57.8788 -5.11931 130.977 1.74199 145.5Z" sodipodi:nodetypes="cccc"/>
</svg>
