<?xml version="1.0" standalone="no"?>
<!DOCTYPE svg PUBLIC "-//W3C//DTD SVG 20010904//EN" "http://www.w3.org/TR/2001/REC-SVG-20010904/DTD/svg10.dtd">
<!-- Created using Krita: https://krita.org -->
<svg xmlns="http://www.w3.org/2000/svg" 
    xmlns:xlink="http://www.w3.org/1999/xlink"
    xmlns:krita="http://krita.org/namespaces/svg/krita"
    xmlns:sodipodi="http://sodipodi.sourceforge.net/DTD/sodipodi-0.dtd"
    width="512pt"
    height="512pt"
    viewBox="0 0 512 512">
<defs/>
<path id="shape0" transform="matrix(1.00313328581677 0 0 1 133.119299051021 34.0849041272912)" fill="#fefefe" fill-rule="evenodd" stroke="#333333" stroke-width="4" stroke-linecap="square" stroke-linejoin="bevel" d="M236.866 143.745C262.482 56.7767 188.712 11.6393 133.041 2.29576C74.2101 -8.96611 -5.47207 20.3832 0.296265 108.595" sodipodi:nodetypes="ccc"/><path id="shape1" transform="matrix(1.00313328581677 0 0 1 131.749994764766 118.922992631582)" fill="#fefefe" fill-rule="evenodd" stroke="#333333" stroke-width="4" stroke-linecap="square" stroke-linejoin="bevel" d="M3.70576 21.327C-0.125838 24.4498 -2.53241 30.3029 4.45576 32.577C90.0744 31.977 163.425 43.8017 231.706 69.8895C236.815 66.923 243.586 66.8234 236.956 57.327C158.03 -11.7833 80.7692 -11.2695 3.70576 21.327Z" sodipodi:nodetypes="ccccc"/><path id="shape2" transform="matrix(0.98277029799537 0.184831115827644 -0.184831115827644 0.98277029799537 259.054355548462 29.4392806207141)" sodipodi:type="arc" sodipodi:rx="13.5" sodipodi:ry="5.12500037627583" sodipodi:cx="13.5005192361123" sodipodi:cy="5.12502905493219" sodipodi:start="2.62432602193921" sodipodi:end="0.401836471424031" sodipodi:open="true" d="M25.9252 7.12946C28.4027 4.91618 26.4934 2.3466 21.3342 0.951127C16.1751 -0.444345 9.15403 -0.290339 4.45262 1.32142C-0.248786 2.93318 -1.36588 5.56915 1.76667 7.65937" fill="#bfbfbf" fill-rule="evenodd" stroke="#333333" stroke-width="4" stroke-linecap="square" stroke-linejoin="bevel"/><ellipse id="shape21" transform="matrix(0.98277029799537 0.184831115827644 -0.184831115827644 0.98277029799537 205.936836944507 54.3285823127874)" rx="5.11258948485432" ry="5.12500037627583" cx="5.11258948485432" cy="5.12500037627583" fill="#333333" fill-rule="evenodd" stroke="#808080" stroke-width="4" stroke-linecap="square" stroke-linejoin="bevel"/><ellipse id="shape211" transform="matrix(0.98277029799537 0.184831115827644 -0.184831115827644 0.98277029799537 322.278629727818 79.2368366853444)" rx="5.11258948485432" ry="5.12500037627583" cx="5.11258948485432" cy="5.12500037627583" fill="#333333" fill-rule="evenodd" stroke="#808080" stroke-width="4" stroke-linecap="square" stroke-linejoin="bevel"/><path id="shape3" transform="translate(256, 37.9999984900289)" fill="none" stroke-opacity="0.431372549019608" stroke="#b2b2b2" stroke-width="3" stroke-linecap="square" stroke-linejoin="miter" stroke-miterlimit="2" d="M15 0C0.941674 26.4903 3.03165 51.4219 0 79.75" sodipodi:nodetypes="cc"/><path id="shape4" transform="translate(324.905644485901, 61.1966397315138)" fill="none" stroke-opacity="0.431372549019608" stroke="#b2b2b2" stroke-width="3" stroke-linecap="square" stroke-linejoin="miter" stroke-miterlimit="2" d="M0 0C22.3189 20.3306 35.7736 50.839 35.0943 103.803" sodipodi:nodetypes="cc"/><path id="shape5" transform="translate(150.749994032137, 37.6625967950792)" fill="none" stroke-opacity="0.431372549019608" stroke="#b2b2b2" stroke-width="3" stroke-linecap="square" stroke-linejoin="miter" stroke-miterlimit="2" d="M68.5914 0C31.9442 13.7951 10.3017 51.0802 0 93.6499" sodipodi:nodetypes="cc"/>
</svg>
