<?xml version="1.0" standalone="no"?>
<!DOCTYPE svg PUBLIC "-//W3C//DTD SVG 20010904//EN" "http://www.w3.org/TR/2001/REC-SVG-20010904/DTD/svg10.dtd">
<!-- Created using Krita: https://krita.org -->
<svg xmlns="http://www.w3.org/2000/svg" 
    xmlns:xlink="http://www.w3.org/1999/xlink"
    xmlns:krita="http://krita.org/namespaces/svg/krita"
    xmlns:sodipodi="http://sodipodi.sourceforge.net/DTD/sodipodi-0.dtd"
    width="512pt"
    height="512pt"
    viewBox="0 0 512 512">
<defs/>
<path id="shape0" transform="matrix(1.00313328581677 0 0 1 133.119299051021 34.0849041272912)" fill="#2f4476" fill-rule="evenodd" stroke="#333333" stroke-width="4" stroke-linecap="square" stroke-linejoin="bevel" d="M236.866 143.745C262.482 56.7767 188.712 11.6393 133.041 2.29576C74.2101 -8.96611 -5.47207 20.3832 0.296265 108.595" sodipodi:nodetypes="ccc"/><path id="shape01" transform="translate(256, 37.9999984900289)" fill="none" stroke-opacity="0.431372549019608" stroke="#b2b2b2" stroke-width="3" stroke-linecap="square" stroke-linejoin="miter" stroke-miterlimit="2" d="M15 0C0.941674 26.4903 3.03165 51.4219 0 79.75" sodipodi:nodetypes="cc"/><path id="shape1" transform="translate(319.999987284454, 56.9999977350433)" fill="none" stroke-opacity="0.431372549019608" stroke="#b2b2b2" stroke-width="3" stroke-linecap="square" stroke-linejoin="miter" stroke-miterlimit="2" d="M0 0C25.2347 20.2923 40.7277 51.2605 40 108" sodipodi:nodetypes="cc"/><path id="shape2" transform="translate(150.749994032137, 34.3124986309677)" fill="none" stroke-opacity="0.431372549019608" stroke="#b2b2b2" stroke-width="3" stroke-linecap="square" stroke-linejoin="miter" stroke-miterlimit="2" d="M79.75 0C36.2753 9.91985 11.3068 50.2768 0 97" sodipodi:nodetypes="cc"/><path id="shape21" transform="matrix(0.98277029799537 0.184831115827644 -0.184831115827644 0.98277029799537 259.054355548462 29.4392806207141)" sodipodi:type="arc" sodipodi:rx="13.5" sodipodi:ry="5.12500037627583" sodipodi:cx="13.5005192361123" sodipodi:cy="5.1250290549322" sodipodi:start="2.62432602193921" sodipodi:end="0.401836471424031" sodipodi:open="true" d="M25.9252 7.12946C28.4027 4.91618 26.4934 2.3466 21.3342 0.951127C16.1751 -0.444345 9.15403 -0.290339 4.45262 1.32142C-0.248786 2.93318 -1.36588 5.56915 1.76667 7.65937" fill="#254388" fill-rule="evenodd" stroke="#333333" stroke-width="4" stroke-linecap="square" stroke-linejoin="bevel"/><path id="shape3" transform="matrix(1.00313328581677 0 0 1 131.749994764766 118.922992631582)" fill="#2f4476" fill-rule="evenodd" stroke="#333333" stroke-width="4" stroke-linecap="square" stroke-linejoin="bevel" d="M3.70576 21.327C-0.125838 24.4498 -2.53241 30.3029 4.45576 32.577C90.0744 31.977 163.425 43.8017 231.706 69.8895C236.815 66.923 243.586 66.8234 236.956 57.327C158.03 -11.7833 80.7692 -11.2695 3.70576 21.327Z" sodipodi:nodetypes="ccccc"/><path id="shape02" transform="matrix(0.869277100157719 0 0 0.869277100157719 196.374993203016 67.031247336439)" fill="#ffffff" fill-rule="evenodd" stroke-opacity="0" stroke="#000000" stroke-width="0" stroke-linecap="square" stroke-linejoin="bevel" d="M0 35.75L9.125 0L21.5 1.125L26.75 24.375L34.375 2.125L46.125 3.375L33.625 37.25L19.625 36L15.875 18L12.625 36.875Z" sodipodi:nodetypes="ccccccccccc"/><path id="shape11" transform="matrix(0.862011567886891 -0.112154953915548 0.112154953915548 0.862011567886891 222.392151104494 74.3623448265192)" fill="#ffffff" fill-rule="evenodd" stroke-opacity="0" stroke="#000000" stroke-width="0" stroke-linecap="square" stroke-linejoin="bevel" d="M13.7652 0L15.3658 15.9157L0 27.6933L12.8049 30.5581L22.3018 22.282L23.5823 33.3169L34.0396 36.5L32.0122 19.7355L48.125 7.42732L35.5335 4.5625L27.6372 12.8387L25.1829 1.90988Z" sodipodi:nodetypes="ccccccccccccc"/><path id="shape22" transform="matrix(0.862293139390862 -0.109969171216594 0.109969171216594 0.862293139390862 258.268741232123 85.5936218959684)" fill="#ffffff" fill-rule="evenodd" stroke-opacity="0" stroke="#000000" stroke-width="0" stroke-linecap="square" stroke-linejoin="bevel" d="M17.9809 5.14357L1.875 0L0 6.75L14.2979 11.8384Z" sodipodi:nodetypes="ccccc"/><path id="shape31" transform="matrix(0.869277100157719 0 0 0.869277100157719 292.366972499348 86.8136269256355)" fill="#ffffff" fill-rule="evenodd" stroke-opacity="0" stroke="#000000" stroke-width="0" stroke-linecap="square" stroke-linejoin="bevel" d="M7.875 37.875L33 4.125L24.75 0L13.5 3.375L16.125 9L0 33Z" sodipodi:nodetypes="ccccccc"/><ellipse id="shape4" transform="matrix(0.795126863904047 0.351306059094822 -0.351306059094822 0.795126863904047 288.7590761326 77.3916477251067)" rx="6.60911228023889" ry="16.899592785175" cx="6.60911228023889" cy="16.899592785175" fill="none" stroke="#ffffff" stroke-width="11" stroke-linecap="square" stroke-linejoin="bevel"/><path id="shape5" transform="matrix(0.814758975624445 0 0 0.814758975624445 197.593747695349 68.0624991506551)" fill="#a6211e" fill-rule="evenodd" d="M0 35.75L9.125 0L21.5 1.125L26.75 24.375L34.375 2.125L46.125 3.375L33.625 37.25L19.625 36L15.875 18L12.625 36.875Z" sodipodi:nodetypes="ccccccccccc"/><path id="shape6" transform="matrix(0.807949113004951 -0.105120973906777 0.105120973906777 0.807949113004951 224.966787946561 75.1974258994262)" fill="#a6211e" fill-rule="evenodd" d="M13.7652 0L15.3658 15.9157L0 27.6933L12.8049 30.5581L22.3018 22.282L23.5823 33.3169L34.0396 36.5L32.0122 19.7355L48.125 7.42732L35.5335 4.5625L27.6372 12.8387L25.1829 1.90988Z" sodipodi:nodetypes="ccccccccccccc"/><path id="shape7" transform="matrix(0.808213025294943 -0.103072276118219 0.103072276118219 0.808213025294943 258.593319481766 85.7243151944491)" fill="#a6211e" fill-rule="evenodd" d="M17.9809 5.14357L1.875 0L0 6.75L14.2979 11.8384Z" sodipodi:nodetypes="ccccc"/><path id="shape8" transform="matrix(0.814758975624445 0 0 0.814758975624445 293.277004524473 87.9222493848664)" fill="#a6211e" fill-rule="evenodd" d="M7.875 37.875L33 4.125L24.75 0L13.5 3.375L16.125 9L0 33Z" sodipodi:nodetypes="ccccccc"/><ellipse id="shape9" transform="matrix(0.745259191813976 0.329273329283407 -0.329273329283407 0.745259191813976 288.577653474635 78.5992411265636)" rx="6.60911228023889" ry="16.899592785175" cx="6.60911228023889" cy="16.899592785175" fill="none" stroke="#ac0011" stroke-width="11" stroke-linecap="square" stroke-linejoin="bevel"/><ellipse id="shape23" transform="matrix(0.98277029799537 0.184831115827644 -0.184831115827644 0.98277029799537 205.374337212728 48.4535827772049)" rx="5.11258948485432" ry="5.12500037627583" cx="5.11258948485432" cy="5.12500037627583" fill="#000000" fill-rule="evenodd" stroke="#333333" stroke-width="4" stroke-linecap="square" stroke-linejoin="bevel"/><ellipse id="shape211" transform="matrix(0.98277029799537 0.184831115827644 -0.184831115827644 0.98277029799537 316.466129992312 70.11183735341)" rx="5.11258948485432" ry="5.12500037627583" cx="5.11258948485432" cy="5.12500037627583" fill="#000000" fill-rule="evenodd" stroke="#333333" stroke-width="4" stroke-linecap="square" stroke-linejoin="bevel"/>
</svg>
