<?xml version="1.0" standalone="no"?>
<!DOCTYPE svg PUBLIC "-//W3C//DTD SVG 20010904//EN" "http://www.w3.org/TR/2001/REC-SVG-20010904/DTD/svg10.dtd">
<!-- Created using Krita: https://krita.org -->
<svg xmlns="http://www.w3.org/2000/svg" 
    xmlns:xlink="http://www.w3.org/1999/xlink"
    xmlns:krita="http://krita.org/namespaces/svg/krita"
    xmlns:sodipodi="http://sodipodi.sourceforge.net/DTD/sodipodi-0.dtd"
    width="512pt"
    height="512pt"
    viewBox="0 0 512 512">
<defs/>
<path id="shape0" transform="matrix(-1.00000000000001 0 0 -1.00000000000001 250.924638552874 272.062500067053)" fill="#705626" fill-rule="evenodd" stroke-opacity="0" stroke="#000000" stroke-width="0" stroke-linecap="square" stroke-linejoin="bevel" d="M65.1841 42.5C65.1841 19.0279 36.0826 1.43725e-15 0.184125 0C0.285616 0.5625 -0.276884 85 0.184125 85C36.0826 85 65.1841 65.9721 65.1841 42.5Z" sodipodi:nodetypes="cccc"/><path id="shape1" transform="translate(249.815871352973, 187)" fill="#8d600d" fill-rule="evenodd" stroke-opacity="0" stroke="#000000" stroke-width="0" stroke-linecap="square" stroke-linejoin="bevel" d="M65.1841 42.5C65.1841 19.0279 36.0826 1.43725e-15 0.184125 0C0.285616 0.5625 -0.276884 85 0.184125 85C36.0826 85 65.1841 65.9721 65.1841 42.5Z" sodipodi:nodetypes="cccc"/><ellipse id="shape2" transform="matrix(0.512101975432326 -0.435697600339272 0.314365428520711 0.709752350552014 258.586197908022 204.403441826981)" rx="7.5" ry="12" cx="7.5" cy="12" fill="#31291a" fill-rule="evenodd" stroke-opacity="0" stroke="#000000" stroke-width="0" stroke-linecap="square" stroke-linejoin="bevel"/><ellipse id="shape01" transform="matrix(0.513066776412286 0.433511805201536 -0.312788329118285 0.711089525169947 232.390615262994 197.648755894678)" rx="7.5" ry="12" cx="7.5" cy="12" fill="#31291a" fill-rule="evenodd" stroke-opacity="0" stroke="#000000" stroke-width="0" stroke-linecap="square" stroke-linejoin="bevel"/>
</svg>
