<?xml version="1.0" standalone="no"?>
<!DOCTYPE svg PUBLIC "-//W3C//DTD SVG 20010904//EN" "http://www.w3.org/TR/2001/REC-SVG-20010904/DTD/svg10.dtd">
<!-- Created using Krita: https://krita.org -->
<svg xmlns="http://www.w3.org/2000/svg" 
    xmlns:xlink="http://www.w3.org/1999/xlink"
    xmlns:krita="http://krita.org/namespaces/svg/krita"
    xmlns:sodipodi="http://sodipodi.sourceforge.net/DTD/sodipodi-0.dtd"
    width="512pt"
    height="512pt"
    viewBox="0 0 512 512">
<defs/>
<ellipse id="shape0" transform="translate(126, 36)" rx="121" ry="130.5" cx="121" cy="130.5" fill="#4c4416" fill-rule="evenodd"/><path id="shape1" transform="translate(131.145197319434, 201.292628443783)" fill="#3d3925" fill-rule="evenodd" d="M0 0L54.1355 43.4609L43.0797 59.4728L12.962 38.5048Z" sodipodi:nodetypes="ccccc"/><path id="shape2" transform="translate(192.074087969678, 146.687454232053)" fill="#3d3925" fill-rule="evenodd" d="M0 0L114.165 0.0374163L95.7591 100.735L23.7055 99.591Z" sodipodi:nodetypes="ccccc"/><rect id="shape3" transform="translate(115.250011788684, 100.249996944239)" fill="#4f4826" fill-rule="evenodd" width="271.499976422632" height="41.500006111522" rx="9.99999969518592" ry="9.99999969518592"/><rect id="shape4" transform="translate(154.568249916367, 106.562511015883)" fill="#000000" fill-rule="evenodd" width="190.863500167266" height="30.8749779682342"/><rect id="shape01" transform="translate(176.860228993353, 111.050006744786)" fill="#0ac81a" fill-rule="evenodd" stroke-opacity="0" stroke="#000000" stroke-width="0" stroke-linecap="square" stroke-linejoin="bevel" width="151.077244721819" height="21.3249826450999"/><path id="shape02" transform="matrix(-1 0 0 1 361.999988965731 205.989908481885)" fill="#3d3925" fill-rule="evenodd" stroke-opacity="0" stroke="#000000" stroke-width="0" stroke-linecap="square" stroke-linejoin="bevel" d="M0 0L54.247 43.4609L43.1684 59.4728L12.9887 38.5048Z" sodipodi:nodetypes="ccccc"/><path id="shape5" transform="translate(214.000000060963, 262.162066635427)" fill="#262927" fill-rule="evenodd" d="M0 6.6453C3.83636 -2.42661 61.8211 -2.00103 68 6.6453L68 30.287C63.3661 42.9745 3.98767 43.0686 0 30.287Z" sodipodi:nodetypes="ccccc"/><ellipse id="shape6" transform="translate(219, 278)" rx="29.5" ry="10.5" cx="29.5" cy="10.5" fill="#000000" fill-rule="evenodd"/><rect id="shape03" transform="translate(135.550008109578, 76.9999976529317)" fill="#4f4826" fill-rule="evenodd" stroke-opacity="0" stroke="#000000" stroke-width="0" stroke-linecap="square" stroke-linejoin="bevel" width="225.699980879014" height="20.8000082177872" rx="8.31307527069628" ry="5.01204928208403"/><path id="shape7" transform="translate(189.049143778567, 31.9588780067716)" fill="#3d3925" fill-rule="evenodd" d="M26.7803 64.3875L0 25.0644C11.1926 8.92276 30.8712 0.577146 59.0357 0.0275328C87.2003 -0.52208 106.993 7.15687 118.415 23.0644L94.4028 64.6126Z" sodipodi:nodetypes="cczccc"/><path id="shape8" transform="translate(223.374999253989, 31.4999998506489)" fill="#918b05" fill-rule="evenodd" d="M0 2C7 0.803319 14 0.197451 21 0L21 71L0 71Z" sodipodi:nodetypes="ccccc"/><path id="shape04" transform="translate(253.474997558594, 31.8862401074304)" fill="#918b05" fill-rule="evenodd" stroke-opacity="0" stroke="#000000" stroke-width="0" stroke-linecap="square" stroke-linejoin="bevel" d="M0 0.0137601C7.24464 -0.136821 14.0664 0.981281 21 1.76376L21 70.7638L0 70.7638Z" sodipodi:nodetypes="ccccc"/><rect id="shape05" transform="matrix(1 0 0 1.63987716018171 227.559999263891 145.914993530049)" fill="#918b05" fill-rule="evenodd" stroke-opacity="0" stroke="#000000" stroke-width="0" stroke-linecap="square" stroke-linejoin="bevel" width="21" height="69"/><rect id="shape011" transform="matrix(1 0 0 1.63987716018171 253.659997817082 146.160975771367)" fill="#918b05" fill-rule="evenodd" stroke-opacity="0" stroke="#000000" stroke-width="0" stroke-linecap="square" stroke-linejoin="bevel" width="21" height="69"/>
</svg>
