<?xml version="1.0" standalone="no"?>
<!DOCTYPE svg PUBLIC "-//W3C//DTD SVG 20010904//EN" "http://www.w3.org/TR/2001/REC-SVG-20010904/DTD/svg10.dtd">
<!-- Created using Krita: https://krita.org -->
<svg xmlns="http://www.w3.org/2000/svg" 
    xmlns:xlink="http://www.w3.org/1999/xlink"
    xmlns:krita="http://krita.org/namespaces/svg/krita"
    xmlns:sodipodi="http://sodipodi.sourceforge.net/DTD/sodipodi-0.dtd"
    width="512pt"
    height="512pt"
    viewBox="0 0 512 512">
<defs/>
<ellipse id="shape0" transform="translate(126, 36)" rx="121" ry="130.5" cx="121" cy="130.5" fill="#4c4416" fill-rule="evenodd"/><path id="shape1" transform="translate(165.249999887783, 70.9999999517859)" fill="none" stroke="#342911" stroke-width="4" stroke-linecap="butt" stroke-linejoin="bevel" d="M28.625 94L29.75 26.5L0 0" sodipodi:nodetypes="ccc"/><path id="shape2" transform="translate(308.937499823737, 75.2499999488999)" fill="none" stroke="#342911" stroke-width="4" stroke-linecap="butt" stroke-linejoin="bevel" d="M0 89.6875L1.0625 20.5L26.3125 0" sodipodi:nodetypes="ccc"/><path id="shape3" transform="translate(138.562491646938, 108.409266629681)" fill="none" stroke="#342911" stroke-width="5" stroke-linecap="square" stroke-linejoin="bevel" d="M0 1.65323C13.9282 -0.925108 22.5532 -0.487609 25.875 2.96573C31.588 8.90495 32.588 27.8425 28.875 59.7782L194.437 60.3407C191.231 28.6634 192.543 9.97588 198.375 4.27823C201.119 1.59727 207.494 1.28477 217.5 3.34073" sodipodi:nodetypes="csccsc"/><path id="shape01" transform="translate(174.871259411364, 128.674137085391)" fill="#61fffb" fill-rule="evenodd" stroke-opacity="0" stroke="#000000" stroke-width="0" stroke-linecap="square" stroke-linejoin="bevel" d="M0.488969 4.87587C8.63551 6.01683 14.1952 7.60691 16.3787 19.8759L136.879 20.2509C137.7 15.8195 141.82 -0.135548 152.566 0.000869491C153.233 11.1425 151.863 29.2769 151.566 32.8259L0.48897 32.8259C-0.626854 22.3009 0.520587 16.1509 0.488969 4.87587Z" sodipodi:nodetypes="ccccccc"/><rect id="shape4" transform="translate(217.000000062321, 192.000000014184)" fill="#45372a" fill-rule="evenodd" width="67" height="91" rx="18.5000082147369" ry="18.5000082147369"/><path id="shape5" transform="translate(205.799143268003, 31.9857525177776)" fill="#3d3925" fill-rule="evenodd" d="M24.0303 41.8607C21.1853 39.9462 13.1752 30.4218 0 13.2875C12.415 4.48815 26.5103 0.0591983 42.2857 0.000658322C58.0612 -0.0578816 72.1876 3.78774 84.6647 11.5375C71.9068 29.6596 64.2362 39.6757 61.6528 41.5857C57.3424 44.7728 27.9722 44.5133 24.0303 41.8607Z" sodipodi:nodetypes="cczcss"/><path id="shape6" transform="translate(295.749999799165, 183.49999987539)" fill="#806519" fill-rule="evenodd" d="M70.75 0L81.25 3L74.75 28L7.75 62.75L0 66L0.5 43.75L8.5 43L70 7Z" sodipodi:nodetypes="ccccccccc"/><path id="shape7" transform="translate(116.749999920718, 176.999999879804)" fill="#806519" fill-rule="evenodd" d="M10.75 0L13.25 12L78 47.25L86 47.5L86.25 71L75.25 71L7.25 30.5L0 0.5Z" sodipodi:nodetypes="ccccccccc"/><path id="shape8" transform="translate(289.249999803579, 169.062499434434)" fill="none" stroke="#342911" stroke-width="4" stroke-linecap="butt" stroke-linejoin="bevel" d="M77.8125 0L44.25 4.1875C31.8551 20.9656 24.2458 39.5669 2.25 52.6875L0 102.438L31.5 100.813" sodipodi:nodetypes="ccccc"/><path id="shape9" transform="translate(126.124999981407, 167.999999572992)" fill="none" stroke="#342911" stroke-width="4" stroke-linecap="butt" stroke-linejoin="bevel" d="M49.25 103L85.625 102.75L84.625 50.5C69.3506 43.9528 57.9104 28.459 48.625 7.9375L0 0" sodipodi:nodetypes="ccccc"/><path id="shape10" transform="translate(171.62499995051, 164.124999702284)" fill="none" stroke="#1f1e18" stroke-width="6" stroke-linecap="butt" stroke-linejoin="miter" stroke-miterlimit="2" d="M0 0.5L157.5 0" sodipodi:nodetypes="cc"/><path id="shape11" transform="translate(227.999986255316, 209.749987355493)" fill="none" stroke="#232114" stroke-width="5" stroke-linecap="square" stroke-linejoin="miter" stroke-miterlimit="2" d="M0 0.25L44.5 0" sodipodi:nodetypes="cc"/><path id="shape12" transform="translate(226.74998633067, 218.249986843082)" fill="none" stroke="#232114" stroke-width="5" stroke-linecap="square" stroke-linejoin="miter" stroke-miterlimit="2" d="M0 0.5L48.25 0" sodipodi:nodetypes="cc"/><path id="shape02" transform="translate(226.024986797869, 227.749986406025)" fill="none" stroke="#232114" stroke-width="5" stroke-linecap="square" stroke-linejoin="miter" stroke-miterlimit="2" d="M0 0.5L48.25 0" sodipodi:nodetypes="cc"/><path id="shape03" transform="translate(226.049987219855, 255.75)" fill="none" stroke="#232114" stroke-width="5" stroke-linecap="square" stroke-linejoin="miter" stroke-miterlimit="2" d="M0 0.5L48.25 0" sodipodi:nodetypes="cc"/><path id="shape04" transform="translate(226.574987611699, 264.999984431734)" fill="none" stroke="#232114" stroke-width="5" stroke-linecap="square" stroke-linejoin="miter" stroke-miterlimit="2" d="M0 0.5L48.25 0" sodipodi:nodetypes="cc"/><path id="shape05" transform="translate(228.14998664716, 273.974983617904)" fill="none" stroke="#232114" stroke-width="5" stroke-linecap="square" stroke-linejoin="miter" stroke-miterlimit="2" d="M0 0.25L44.5 0" sodipodi:nodetypes="cc"/><path id="shape06" transform="translate(226.049987219855, 237.499985953897)" fill="none" stroke="#232114" stroke-width="5" stroke-linecap="square" stroke-linejoin="miter" stroke-miterlimit="2" d="M0 0.5L48.25 0" sodipodi:nodetypes="cc"/><path id="shape07" transform="translate(225.824987656912, 245.749985592195)" fill="none" stroke="#232114" stroke-width="5" stroke-linecap="square" stroke-linejoin="miter" stroke-miterlimit="2" d="M0 0.5L48.25 0" sodipodi:nodetypes="cc"/><path id="shape08" transform="translate(228.399986632089, 200.474988048756)" fill="none" stroke="#232114" stroke-width="5" stroke-linecap="square" stroke-linejoin="miter" stroke-miterlimit="2" d="M0 0.25L44.5 0" sodipodi:nodetypes="cc"/>
</svg>
