<?xml version="1.0" standalone="no"?>
<!DOCTYPE svg PUBLIC "-//W3C//DTD SVG 20010904//EN" "http://www.w3.org/TR/2001/REC-SVG-20010904/DTD/svg10.dtd">
<!-- Created using Krita: https://krita.org -->
<svg xmlns="http://www.w3.org/2000/svg" 
    xmlns:xlink="http://www.w3.org/1999/xlink"
    xmlns:krita="http://krita.org/namespaces/svg/krita"
    xmlns:sodipodi="http://sodipodi.sourceforge.net/DTD/sodipodi-0.dtd"
    width="512pt"
    height="512pt"
    viewBox="0 0 512 512">
<defs/>
<path id="shape0" transform="translate(233.828113918171, 59.6565383299718)" fill="none" stroke-opacity="0.619607843137255" stroke="#bea882" stroke-width="4" stroke-linecap="square" stroke-linejoin="bevel" d="M12.2924 0.543648L13.5424 26.0266C6.40176 26.8484 1.88764 31.7182 0 40.6359C0.0223328 48.6021 4.5665 60.2888 13.6325 75.6961L11.0888 155.639L15.6064 158.389L17.993 76.0594C25.8386 60.0093 29.892 48.0687 30.1532 40.2376C27.7888 31.0496 23.0426 26.3126 15.9145 26.0266L16.8128 0Z" sodipodi:nodetypes="ccccccccccc"/><path id="shape1" transform="translate(150.499998388114, 92.2499990119834)" fill="none" stroke-opacity="0.619607843137255" stroke="#b39c75" stroke-width="4" stroke-linecap="square" stroke-linejoin="bevel" d="M36.75 106.25L12.5 88L29.5 59L85.25 62.25L86.75 48L30.25 48.5L20.5 0L6.75 18L16.5 49.75L0 90.5L33.25 110.5Z" sodipodi:nodetypes="cccccccccccc"/><path id="shape2" transform="translate(221.499991026475, 141.624994262413)" fill="none" stroke-opacity="0.619607843137255" stroke="#b39c75" stroke-width="4" stroke-linecap="square" stroke-linejoin="miter" stroke-miterlimit="2" d="M0 11L0.625 0" sodipodi:nodetypes="cc"/><path id="shape3" transform="translate(204.12499173038, 141.999994247221)" fill="none" stroke-opacity="0.619607843137255" stroke="#b39c75" stroke-width="4" stroke-linecap="square" stroke-linejoin="miter" stroke-miterlimit="2" d="M0 10.25L0.25 0" sodipodi:nodetypes="cc"/><path id="shape4" transform="translate(179.124992743194, 140.249994318118)" fill="none" stroke-opacity="0.619607843137255" stroke="#b39c75" stroke-width="4" stroke-linecap="square" stroke-linejoin="miter" stroke-miterlimit="2" d="M1.125 0L0 11.125" sodipodi:nodetypes="cc"/><path id="shape5" transform="translate(192.249992211467, 142.249994237093)" fill="none" stroke-opacity="0.619607843137255" stroke="#b39c75" stroke-width="4" stroke-linecap="square" stroke-linejoin="miter" stroke-miterlimit="2" d="M1 0L0 9.375" sodipodi:nodetypes="cc"/><path id="shape6" transform="translate(160.999993477483, 106.249995695544)" fill="none" stroke-opacity="0.619607843137255" stroke="#b39c75" stroke-width="4" stroke-linecap="square" stroke-linejoin="miter" stroke-miterlimit="2" d="M10.5 0L0 10.625" sodipodi:nodetypes="cc"/><path id="shape7" transform="translate(162.999993396458, 117.249995249906)" fill="none" stroke-opacity="0.619607843137255" stroke="#b39c75" stroke-width="4" stroke-linecap="square" stroke-linejoin="miter" stroke-miterlimit="2" d="M11.375 0L0 6.75" sodipodi:nodetypes="cc"/><path id="shape8" transform="translate(165.874993279985, 128.999994773884)" fill="none" stroke-opacity="0.619607843137255" stroke="#b39c75" stroke-width="4" stroke-linecap="square" stroke-linejoin="miter" stroke-miterlimit="2" d="M0 2.375L9.75 0" sodipodi:nodetypes="cc"/><path id="shape9" transform="translate(167.624993209088, 137.874994414335)" fill="none" stroke-opacity="0.619607843137255" stroke="#b39c75" stroke-width="4" stroke-linecap="square" stroke-linejoin="miter" stroke-miterlimit="2" d="M11.375 0L0 0.375" sodipodi:nodetypes="cc"/><path id="shape10" transform="translate(167.499993214152, 145.374994110491)" fill="none" stroke-opacity="0.619607843137255" stroke="#b39c75" stroke-width="4" stroke-linecap="square" stroke-linejoin="miter" stroke-miterlimit="2" d="M0 0L10.375 2.125" sodipodi:nodetypes="cc"/><path id="shape11" transform="translate(164.374993340753, 151.87499384716)" fill="none" stroke-opacity="0.619607843137255" stroke="#b39c75" stroke-width="4" stroke-linecap="square" stroke-linejoin="miter" stroke-miterlimit="2" d="M0 0L9 7" sodipodi:nodetypes="cc"/><path id="shape12" transform="translate(160.124993512932, 160.749993487611)" fill="none" stroke-opacity="0.619607843137255" stroke="#b39c75" stroke-width="4" stroke-linecap="square" stroke-linejoin="miter" stroke-miterlimit="2" d="M0 0L10.875 5.375" sodipodi:nodetypes="cc"/><path id="shape13" transform="translate(156.499993659789, 170.249993102742)" fill="none" stroke-opacity="0.619607843137255" stroke="#b39c75" stroke-width="4" stroke-linecap="square" stroke-linejoin="miter" stroke-miterlimit="2" d="M0 0L10 3.25" sodipodi:nodetypes="cc"/><path id="shape14" transform="translate(151.87499384716, 179.499992728001)" fill="none" stroke-opacity="0.619607843137255" stroke="#b39c75" stroke-width="4" stroke-linecap="square" stroke-linejoin="miter" stroke-miterlimit="2" d="M10.875 0L0 1.625" sodipodi:nodetypes="cc"/><path id="shape15" transform="translate(164.874993320497, 185.249992495054)" fill="none" stroke-opacity="0.619607843137255" stroke="#b39c75" stroke-width="4" stroke-linecap="square" stroke-linejoin="miter" stroke-miterlimit="2" d="M3 0L0 4.625" sodipodi:nodetypes="cc"/><path id="shape16" transform="translate(174.374992935628, 191.499992241851)" fill="none" stroke-opacity="0.619607843137255" stroke="#b39c75" stroke-width="4" stroke-linecap="square" stroke-linejoin="miter" stroke-miterlimit="2" d="M1.375 0L0 3.375" sodipodi:nodetypes="cc"/><path id="shape17" transform="translate(178.124992783706, 195.249992089929)" fill="none" stroke-opacity="0.619607843137255" stroke="#b39c75" stroke-width="4" stroke-linecap="square" stroke-linejoin="miter" stroke-miterlimit="2" d="M3.25 0L0 4.375" sodipodi:nodetypes="cc"/><path id="shape01" transform="matrix(-0.993743574522624 0 0 1 349.478624728136 93.1786254213123)" fill="none" stroke-opacity="0.619607843137255" stroke="#b39c75" stroke-width="4" stroke-linecap="square" stroke-linejoin="bevel" d="M36.75 106.25L12.5 88L29.5 59L85.25 62.25L86.75 48L30.25 48.5L20.5 0L6.75 18L16.5 49.75L0 90.5L33.25 110.5Z" sodipodi:nodetypes="cccccccccccc"/><path id="shape18" transform="matrix(-0.993743574522624 0 0 1 278.922838252611 142.553620671742)" fill="none" stroke-opacity="0.619607843137255" stroke="#b39c75" stroke-width="4" stroke-linecap="square" stroke-linejoin="miter" stroke-miterlimit="2" d="M0 11L0.625 0" sodipodi:nodetypes="cc"/><path id="shape21" transform="matrix(-0.993743574522624 0 0 1 296.18913216044 142.92862065655)" fill="none" stroke-opacity="0.619607843137255" stroke="#b39c75" stroke-width="4" stroke-linecap="square" stroke-linejoin="miter" stroke-miterlimit="2" d="M0 10.25L0.25 0" sodipodi:nodetypes="cc"/><path id="shape31" transform="matrix(-0.993743574522624 0 0 1 321.032720517029 141.178620727447)" fill="none" stroke-opacity="0.619607843137255" stroke="#b39c75" stroke-width="4" stroke-linecap="square" stroke-linejoin="miter" stroke-miterlimit="2" d="M1.125 0L0 11.125" sodipodi:nodetypes="cc"/><path id="shape41" transform="matrix(-0.993743574522624 0 0 1 307.98983662982 143.178620646422)" fill="none" stroke-opacity="0.619607843137255" stroke="#b39c75" stroke-width="4" stroke-linecap="square" stroke-linejoin="miter" stroke-miterlimit="2" d="M1 0L0 9.375" sodipodi:nodetypes="cc"/><path id="shape51" transform="matrix(-0.993743574522624 0 0 1 339.044322075556 107.178622104873)" fill="none" stroke-opacity="0.619607843137255" stroke="#b39c75" stroke-width="4" stroke-linecap="square" stroke-linejoin="miter" stroke-miterlimit="2" d="M10.5 0L0 10.625" sodipodi:nodetypes="cc"/><path id="shape61" transform="matrix(-0.993743574522624 0 0 1 337.056835007029 118.178621659235)" fill="none" stroke-opacity="0.619607843137255" stroke="#b39c75" stroke-width="4" stroke-linecap="square" stroke-linejoin="miter" stroke-miterlimit="2" d="M11.375 0L0 6.75" sodipodi:nodetypes="cc"/><path id="shape71" transform="matrix(-0.993743574522624 0 0 1 334.199822346021 129.928621183213)" fill="none" stroke-opacity="0.619607843137255" stroke="#b39c75" stroke-width="4" stroke-linecap="square" stroke-linejoin="miter" stroke-miterlimit="2" d="M0 2.375L9.75 0" sodipodi:nodetypes="cc"/><path id="shape81" transform="matrix(-0.993743574522624 0 0 1 332.46077116106 138.803620823664)" fill="none" stroke-opacity="0.619607843137255" stroke="#b39c75" stroke-width="4" stroke-linecap="square" stroke-linejoin="miter" stroke-miterlimit="2" d="M11.375 0L0 0.375" sodipodi:nodetypes="cc"/><path id="shape91" transform="matrix(-0.993743574522624 0 0 1 332.584989102843 146.30362051982)" fill="none" stroke-opacity="0.619607843137255" stroke="#b39c75" stroke-width="4" stroke-linecap="square" stroke-linejoin="miter" stroke-miterlimit="2" d="M0 0L10.375 2.125" sodipodi:nodetypes="cc"/><path id="shape101" transform="matrix(-0.993743574522624 0 0 1 335.690437647417 152.803620256489)" fill="none" stroke-opacity="0.619607843137255" stroke="#b39c75" stroke-width="4" stroke-linecap="square" stroke-linejoin="miter" stroke-miterlimit="2" d="M0 0L9 7" sodipodi:nodetypes="cc"/><path id="shape111" transform="matrix(-0.993743574522624 0 0 1 339.913847668037 161.67861989694)" fill="none" stroke-opacity="0.619607843137255" stroke="#b39c75" stroke-width="4" stroke-linecap="square" stroke-linejoin="miter" stroke-miterlimit="2" d="M0 0L10.875 5.375" sodipodi:nodetypes="cc"/><path id="shape121" transform="matrix(-0.993743574522624 0 0 1 343.516167979742 171.178619512071)" fill="none" stroke-opacity="0.619607843137255" stroke="#b39c75" stroke-width="4" stroke-linecap="square" stroke-linejoin="miter" stroke-miterlimit="2" d="M0 0L10 3.25" sodipodi:nodetypes="cc"/><path id="shape131" transform="matrix(-0.993743574522624 0 0 1 348.112231825711 180.42861913733)" fill="none" stroke-opacity="0.619607843137255" stroke="#b39c75" stroke-width="4" stroke-linecap="square" stroke-linejoin="miter" stroke-miterlimit="2" d="M10.875 0L0 1.625" sodipodi:nodetypes="cc"/><path id="shape141" transform="matrix(-0.993743574522624 0 0 1 335.193565880285 186.178618904383)" fill="none" stroke-opacity="0.619607843137255" stroke="#b39c75" stroke-width="4" stroke-linecap="square" stroke-linejoin="miter" stroke-miterlimit="2" d="M3 0L0 4.625" sodipodi:nodetypes="cc"/><path id="shape151" transform="matrix(-0.993743574522624 0 0 1 325.753002304781 192.42861865118)" fill="none" stroke-opacity="0.619607843137255" stroke="#b39c75" stroke-width="4" stroke-linecap="square" stroke-linejoin="miter" stroke-miterlimit="2" d="M1.375 0L0 3.375" sodipodi:nodetypes="cc"/><path id="shape161" transform="matrix(-0.993743574522624 0 0 1 322.026464051293 196.178618499258)" fill="none" stroke-opacity="0.619607843137255" stroke="#b39c75" stroke-width="4" stroke-linecap="square" stroke-linejoin="miter" stroke-miterlimit="2" d="M3.25 0L0 4.375" sodipodi:nodetypes="cc"/><ellipse id="shape19" transform="translate(236.750018362299, 87.9587268223645)" rx="12.1249816427654" ry="9.16626634830766" cx="12.1249816427654" cy="9.16626634830766" fill="#000000" fill-opacity="0.266666666666667" fill-rule="evenodd" stroke-opacity="0" stroke="#000000" stroke-width="0" stroke-linecap="square" stroke-linejoin="bevel"/>
</svg>
