<?xml version="1.0" standalone="no"?>
<!DOCTYPE svg PUBLIC "-//W3C//DTD SVG 20010904//EN" "http://www.w3.org/TR/2001/REC-SVG-20010904/DTD/svg10.dtd">
<!-- Created using Krita: https://krita.org -->
<svg xmlns="http://www.w3.org/2000/svg" 
    xmlns:xlink="http://www.w3.org/1999/xlink"
    xmlns:krita="http://krita.org/namespaces/svg/krita"
    xmlns:sodipodi="http://sodipodi.sourceforge.net/DTD/sodipodi-0.dtd"
    width="512pt"
    height="512pt"
    viewBox="0 0 512 512">
<defs/>
<path id="shape0" transform="matrix(0.999277534361475 -0.0380053854138009 0.0380053854138009 0.999277534361475 201.677948852008 272.449311942745)" fill="none" stroke="#c3aa80" stroke-width="4" stroke-linecap="square" stroke-linejoin="bevel" d="M9.22543 2.9375L1.41293 0L1.76251 10.1495L8.50668 11.6875L1.72543 14L1.09214 21.6108L6.72543 23.125L0.919713 25.9867L0.834815 34.0589L5.47082 36.6996L0.340569 38.3531L0.474297 45.1758L5.67635 47.1628L0 49.8736L0.574027 59.255L6.38168 59.5312Z" sodipodi:nodetypes="ccccccccccccccccc"/><path id="shape01" transform="matrix(-0.999410804035978 -0.0317138906017654 -0.0317166226928827 0.999496901368354 294.846105779188 275.483493565912)" fill="none" stroke="#c3aa80" stroke-width="4" stroke-linecap="square" stroke-linejoin="bevel" d="M8.6069 2.45412L1.24808 0L0.948988 10.031L8.09494 13.5556L1.55761 14.0937L1.01574 21.9859L6.51003 24.7179L1.35626 25.7214L1.65612 33.7728L6.52571 37.6763L1.35727 37.5777L0 47.3234L6.6213 50.7271Z" sodipodi:nodetypes="cccccccccccccc"/>
</svg>
