<?xml version="1.0" standalone="no"?>
<!DOCTYPE svg PUBLIC "-//W3C//DTD SVG 20010904//EN" "http://www.w3.org/TR/2001/REC-SVG-20010904/DTD/svg10.dtd">
<!-- Created using Krita: https://krita.org -->
<svg xmlns="http://www.w3.org/2000/svg" 
    xmlns:xlink="http://www.w3.org/1999/xlink"
    xmlns:krita="http://krita.org/namespaces/svg/krita"
    xmlns:sodipodi="http://sodipodi.sourceforge.net/DTD/sodipodi-0.dtd"
    width="512pt"
    height="512pt"
    viewBox="0 0 512 512">
<defs/>
<path id="shape0" transform="translate(201.812497765903, 271.999997209758)" fill="none" stroke="#c3aa80" stroke-width="4" stroke-linecap="square" stroke-linejoin="bevel" d="M9.09375 2.9375L1.28125 0L1 9.46875L8.375 11.6875L1.59375 14L0.53125 20.5625L6.59375 23.125L0.3125 26.1562L0 32.8125L5.33914 36.6996L0.208893 38.3531L0.396066 43.7706L5.54467 47.1628L0.502722 50.4606L0.442351 59.255L6.25 59.5312Z" sodipodi:nodetypes="ccccccccccccccccc"/><path id="shape01" transform="matrix(-0.999410804035979 -0.0317138906017656 -0.0317166226928828 0.999496901368355 297.20327398823 275.295427752296)" fill="none" stroke="#c3aa80" stroke-width="4" stroke-linecap="square" stroke-linejoin="bevel" d="M9.04274 2.9375L1.23024 0L0.948988 9.46875L8.32399 11.6875L1.54274 14L0.480238 20.5625L6.54274 23.125L0.761279 26.1721L0.815693 33.0901L6.52571 37.1141L2.14912 38.6664L0 46.7612L6.6213 50.1649Z" sodipodi:nodetypes="cccccccccccccc"/>
</svg>
