<?xml version="1.0" standalone="no"?>
<!DOCTYPE svg PUBLIC "-//W3C//DTD SVG 20010904//EN" "http://www.w3.org/TR/2001/REC-SVG-20010904/DTD/svg10.dtd">
<!-- Created using Krita: https://krita.org -->
<svg xmlns="http://www.w3.org/2000/svg" 
    xmlns:xlink="http://www.w3.org/1999/xlink"
    xmlns:krita="http://krita.org/namespaces/svg/krita"
    xmlns:sodipodi="http://sodipodi.sourceforge.net/DTD/sodipodi-0.dtd"
    width="512pt"
    height="512pt"
    viewBox="0 0 512 512">
<defs/>
<rect id="shape0" transform="translate(215.90999959706, 2.20499999258798)" fill="#ffffff" fill-rule="evenodd" stroke="#7e7e7e" stroke-width="1" stroke-linecap="square" stroke-linejoin="bevel" width="72.72" height="71.1450000342747"/><path id="shape1" transform="matrix(1 0 0 1.71160765766873 232.334985732865 5.7422663536839)" fill="none" stroke="#ababab" stroke-width="4.32" stroke-linecap="square" stroke-linejoin="miter" stroke-miterlimit="2" d="M0.135 0L0 36.585" sodipodi:nodetypes="cc"/><path id="shape01" transform="matrix(1 0 0 1.71160765766873 243.199785169287 6.50293838412192)" fill="none" stroke="#ababab" stroke-width="4.32" stroke-linecap="square" stroke-linejoin="miter" stroke-miterlimit="2" d="M0.135 0L0 36.855" sodipodi:nodetypes="cc"/><path id="shape11" transform="matrix(1 0 0 1.71160765766873 253.257284536005 6.7340054033578)" fill="none" stroke="#ababab" stroke-width="4.32" stroke-linecap="square" stroke-linejoin="miter" stroke-miterlimit="2" d="M0.135 0L0 36.585" sodipodi:nodetypes="cc"/><path id="shape02" transform="matrix(1 0 0 1.71160765766873 262.572283949476 6.40879986110438)" fill="none" stroke="#ababab" stroke-width="4.32" stroke-linecap="square" stroke-linejoin="miter" stroke-miterlimit="2" d="M0.135 0L0 36.855" sodipodi:nodetypes="cc"/><path id="shape12" transform="matrix(1 0 0 1.71160765766873 272.427283328944 6.63986688034025)" fill="none" stroke="#ababab" stroke-width="4.32" stroke-linecap="square" stroke-linejoin="miter" stroke-miterlimit="2" d="M0.135 0L0 36.585" sodipodi:nodetypes="cc"/><path id="shape13" transform="matrix(1 0 0 1.71160765766873 282.644083301036 5.97029276952805)" fill="none" stroke="#ababab" stroke-width="4.32" stroke-linecap="square" stroke-linejoin="miter" stroke-miterlimit="2" d="M0.135 0L0 36.585" sodipodi:nodetypes="cc"/><path id="shape03" transform="matrix(1 0 0 1.71160765766873 221.829285774614 6.21260683536607)" fill="none" stroke="#ababab" stroke-width="4.32" stroke-linecap="square" stroke-linejoin="miter" stroke-miterlimit="2" d="M0.135 0L0 36.585" sodipodi:nodetypes="cc"/><rect id="shape2" transform="translate(210.532487093614, 72.4949992811497)" fill="#ffffff" fill-rule="evenodd" stroke="#7e7e7e" stroke-width="1" stroke-linecap="square" stroke-linejoin="bevel" width="82.8450125551298" height="32.4"/>
</svg>
