<?xml version="1.0" standalone="no"?>
<!DOCTYPE svg PUBLIC "-//W3C//DTD SVG 20010904//EN" "http://www.w3.org/TR/2001/REC-SVG-20010904/DTD/svg10.dtd">
<!-- Created using Krita: https://krita.org -->
<svg xmlns="http://www.w3.org/2000/svg" 
    xmlns:xlink="http://www.w3.org/1999/xlink"
    xmlns:krita="http://krita.org/namespaces/svg/krita"
    xmlns:sodipodi="http://sodipodi.sourceforge.net/DTD/sodipodi-0.dtd"
    width="512pt"
    height="512pt"
    viewBox="0 0 512 512">
<defs/>
<path id="shape4" transform="translate(206.781236081464, 124.662495062141)" fill="none" stroke-opacity="0.541176470588235" stroke="#333333" stroke-width="4" stroke-linecap="square" stroke-linejoin="miter" stroke-miterlimit="2" d="M0 11.9781L15.0807 0L27.9219 7.04062" sodipodi:nodetypes="ccc"/><path id="shape41" transform="matrix(-1.04178963225591 0 0 1 285.838745881256 124.620305268662)" fill="none" stroke-opacity="0.541176470588235" stroke="#333333" stroke-width="4" stroke-linecap="square" stroke-linejoin="miter" stroke-miterlimit="2" d="M0 11.9781L15.0807 0L27.9219 7.04062" sodipodi:nodetypes="ccc"/><path id="shape42" transform="translate(206.733762609021, 107.374525435504)" fill="none" stroke-opacity="0.541176470588235" stroke="#333333" stroke-width="4" stroke-linecap="square" stroke-linejoin="miter" stroke-miterlimit="2" d="M0 11.9781L15.0807 0L27.9219 7.04062" sodipodi:nodetypes="ccc"/><path id="shape411" transform="matrix(-1.04178963225591 0 0 1 285.791272408813 107.332335642025)" fill="none" stroke-opacity="0.541176470588235" stroke="#333333" stroke-width="4" stroke-linecap="square" stroke-linejoin="miter" stroke-miterlimit="2" d="M0 11.9781L15.0807 0L27.9219 7.04062" sodipodi:nodetypes="ccc"/><path id="shape43" transform="translate(205.483762695071, 89.374526674628)" fill="none" stroke-opacity="0.541176470588235" stroke="#333333" stroke-width="4" stroke-linecap="square" stroke-linejoin="miter" stroke-miterlimit="2" d="M0 11.9781L15.0807 0L27.9219 7.04062" sodipodi:nodetypes="ccc"/><path id="shape412" transform="matrix(-1.04178963225591 0 0 1 284.541272494863 89.332336881149)" fill="none" stroke-opacity="0.541176470588235" stroke="#333333" stroke-width="4" stroke-linecap="square" stroke-linejoin="miter" stroke-miterlimit="2" d="M0 11.9781L15.0807 0L27.9219 7.04062" sodipodi:nodetypes="ccc"/><path id="shape44" transform="translate(206.483762626231, 73.1245277932819)" fill="none" stroke-opacity="0.541176470588235" stroke="#333333" stroke-width="4" stroke-linecap="square" stroke-linejoin="miter" stroke-miterlimit="2" d="M0 11.9781L15.0807 0L27.9219 7.04062" sodipodi:nodetypes="ccc"/><path id="shape413" transform="matrix(-1.04178963225591 0 0 1 285.541272426023 73.0823379998029)" fill="none" stroke-opacity="0.541176470588235" stroke="#333333" stroke-width="4" stroke-linecap="square" stroke-linejoin="miter" stroke-miterlimit="2" d="M0 11.9781L15.0807 0L27.9219 7.04062" sodipodi:nodetypes="ccc"/><path id="shape45" transform="translate(210.561288918309, 63.5240576738004)" fill="none" stroke-opacity="0.541176470588235" stroke="#333333" stroke-width="4" stroke-linecap="square" stroke-linejoin="miter" stroke-miterlimit="2" d="M0 7.4781L14.3307 0L21.5469 4.97812" sodipodi:nodetypes="ccc"/><path id="shape414" transform="matrix(-1.04178963225591 0 0 1 277.806299422181 61.419368003256)" fill="none" stroke-opacity="0.541176470588235" stroke="#333333" stroke-width="4" stroke-linecap="square" stroke-linejoin="miter" stroke-miterlimit="2" d="M0 7.2906L15.0807 0L21.6226 5.16562" sodipodi:nodetypes="ccc"/><path id="shape46" transform="translate(206.505757319859, 126.632118273155)" fill="none" stroke-opacity="0.541176470588235" stroke="#b0b0b0" stroke-width="4" stroke-linecap="square" stroke-linejoin="miter" stroke-miterlimit="2" d="M0 11.9781L15.0807 0L27.9219 7.04062" sodipodi:nodetypes="ccc"/><path id="shape415" transform="matrix(-1.04178963225591 0 0 1 285.563267119651 126.589928479676)" fill="none" stroke-opacity="0.541176470588235" stroke="#b0b0b0" stroke-width="4" stroke-linecap="square" stroke-linejoin="miter" stroke-miterlimit="2" d="M0 11.9781L15.0807 0L27.9219 7.04062" sodipodi:nodetypes="ccc"/><path id="shape421" transform="translate(206.458283847416, 109.344148646518)" fill="none" stroke-opacity="0.541176470588235" stroke="#b0b0b0" stroke-width="4" stroke-linecap="square" stroke-linejoin="miter" stroke-miterlimit="2" d="M0 11.9781L15.0807 0L27.9219 7.04062" sodipodi:nodetypes="ccc"/><path id="shape4111" transform="matrix(-1.04178963225591 0 0 1 285.515793647208 109.301958853039)" fill="none" stroke-opacity="0.541176470588235" stroke="#b0b0b0" stroke-width="4" stroke-linecap="square" stroke-linejoin="miter" stroke-miterlimit="2" d="M0 11.9781L15.0807 0L27.9219 7.04062" sodipodi:nodetypes="ccc"/><path id="shape431" transform="translate(205.208283933466, 91.3441498856424)" fill="none" stroke-opacity="0.541176470588235" stroke="#b0b0b0" stroke-width="4" stroke-linecap="square" stroke-linejoin="miter" stroke-miterlimit="2" d="M0 11.9781L15.0807 0L27.9219 7.04062" sodipodi:nodetypes="ccc"/><path id="shape4121" transform="matrix(-1.04178963225591 0 0 1 284.265793733258 91.3019600921634)" fill="none" stroke-opacity="0.541176470588235" stroke="#b0b0b0" stroke-width="4" stroke-linecap="square" stroke-linejoin="miter" stroke-miterlimit="2" d="M0 11.9781L15.0807 0L27.9219 7.04062" sodipodi:nodetypes="ccc"/><path id="shape441" transform="translate(206.208283864626, 75.0941510042963)" fill="none" stroke-opacity="0.541176470588235" stroke="#b0b0b0" stroke-width="4" stroke-linecap="square" stroke-linejoin="miter" stroke-miterlimit="2" d="M0 11.9781L15.0807 0L27.9219 7.04062" sodipodi:nodetypes="ccc"/><path id="shape4131" transform="matrix(-1.04178963225591 0 0 1 285.265793664418 75.0519612108173)" fill="none" stroke-opacity="0.541176470588235" stroke="#b0b0b0" stroke-width="4" stroke-linecap="square" stroke-linejoin="miter" stroke-miterlimit="2" d="M0 11.9781L15.0807 0L27.9219 7.04062" sodipodi:nodetypes="ccc"/><path id="shape47" transform="translate(211.395065303292, 65.4923366855583)" fill="none" stroke-opacity="0.541176470588235" stroke="#a9a9a9" stroke-width="4" stroke-linecap="square" stroke-linejoin="miter" stroke-miterlimit="2" d="M0 7.4781L14.3307 0L21.5469 4.97812" sodipodi:nodetypes="ccc"/><path id="shape416" transform="matrix(-1.04178963225591 0 0 1 278.640075807164 63.3876470150139)" fill="none" stroke-opacity="0.541176470588235" stroke="#a9a9a9" stroke-width="4" stroke-linecap="square" stroke-linejoin="miter" stroke-miterlimit="2" d="M0 7.2906L15.0807 0L21.6226 5.16562" sodipodi:nodetypes="ccc"/>
</svg>
