<?xml version="1.0" standalone="no"?>
<!DOCTYPE svg PUBLIC "-//W3C//DTD SVG 20010904//EN" "http://www.w3.org/TR/2001/REC-SVG-20010904/DTD/svg10.dtd">
<!-- Created using Krita: https://krita.org -->
<svg xmlns="http://www.w3.org/2000/svg" 
    xmlns:xlink="http://www.w3.org/1999/xlink"
    xmlns:krita="http://krita.org/namespaces/svg/krita"
    xmlns:sodipodi="http://sodipodi.sourceforge.net/DTD/sodipodi-0.dtd"
    width="512pt"
    height="512pt"
    viewBox="0 0 512 512">
<defs/>
<path id="shape4" transform="translate(208.781235933713, 120.733151231591)" fill="none" stroke-opacity="0.541176470588235" stroke="#333333" stroke-width="4" stroke-linecap="square" stroke-linejoin="miter" stroke-miterlimit="2" d="M0 18.1575C23.7239 13.7829 36.9528 7.73045 39.6864 0C42.2137 7.89139 55.7505 13.3814 80.2969 16.47" sodipodi:nodetypes="ccc"/><path id="shape41" transform="translate(207.695926257813, 99.9339019580227)" fill="none" stroke-opacity="0.541176470588235" stroke="#333333" stroke-width="4" stroke-linecap="square" stroke-linejoin="miter" stroke-miterlimit="2" d="M0 18.1575C23.7239 13.7829 36.9528 7.73045 39.6864 0C42.2137 7.89139 55.7505 13.3814 80.2969 16.47" sodipodi:nodetypes="ccc"/><path id="shape42" transform="translate(207.320926268989, 79.6839025615198)" fill="none" stroke-opacity="0.541176470588235" stroke="#333333" stroke-width="4" stroke-linecap="square" stroke-linejoin="miter" stroke-miterlimit="2" d="M0 18.1575C23.7239 13.7829 36.9528 7.73045 39.6864 0C42.2137 7.89139 55.7505 13.3814 80.2969 16.47" sodipodi:nodetypes="ccc"/><path id="shape43" transform="translate(207.320926268989, 59.9339031687422)" fill="none" stroke-opacity="0.541176470588235" stroke="#333333" stroke-width="4" stroke-linecap="square" stroke-linejoin="miter" stroke-miterlimit="2" d="M0 18.7825C20.4149 15.0181 33.1834 9.13617 37.43 1.76175C38.2197 0.748808 43.1801 1.07823 43.5614 0C46.5887 8.64139 55.7505 14.0064 80.2969 17.095" sodipodi:nodetypes="cccc"/><path id="shape44" transform="translate(208.216957004493, 123.888826102448)" fill="none" stroke-opacity="0.552941176470588" stroke="#c5c5c5" stroke-width="4" stroke-linecap="square" stroke-linejoin="miter" stroke-miterlimit="2" d="M0 18.1575C23.7239 13.7829 36.9528 7.73045 39.6864 0C42.2137 7.89139 55.7505 13.3814 80.2969 16.47" sodipodi:nodetypes="ccc"/><path id="shape411" transform="translate(207.131647328593, 103.08957682888)" fill="none" stroke-opacity="0.552941176470588" stroke="#c5c5c5" stroke-width="4" stroke-linecap="square" stroke-linejoin="miter" stroke-miterlimit="2" d="M0 18.1575C23.7239 13.7829 36.9528 7.73045 39.6864 0C42.2137 7.89139 55.7505 13.3814 80.2969 16.47" sodipodi:nodetypes="ccc"/><path id="shape421" transform="translate(206.756647339769, 82.8395774323764)" fill="none" stroke-opacity="0.552941176470588" stroke="#c5c5c5" stroke-width="4" stroke-linecap="square" stroke-linejoin="miter" stroke-miterlimit="2" d="M0 18.1575C23.7239 13.7829 36.9528 7.73045 39.6864 0C42.2137 7.89139 55.7505 13.3814 80.2969 16.47" sodipodi:nodetypes="ccc"/><path id="shape431" transform="translate(206.756647339769, 63.0895780395988)" fill="none" stroke-opacity="0.552941176470588" stroke="#c5c5c5" stroke-width="4" stroke-linecap="square" stroke-linejoin="miter" stroke-miterlimit="2" d="M0 18.7825C20.4149 15.0181 33.1834 9.13617 37.43 1.76175C38.2197 0.748808 43.1801 1.07823 43.5614 0C46.5887 8.64139 55.7505 14.0064 80.2969 17.095" sodipodi:nodetypes="cccc"/>
</svg>
