<?xml version="1.0" standalone="no"?>
<!DOCTYPE svg PUBLIC "-//W3C//DTD SVG 20010904//EN" "http://www.w3.org/TR/2001/REC-SVG-20010904/DTD/svg10.dtd">
<!-- Created using Krita: https://krita.org -->
<svg xmlns="http://www.w3.org/2000/svg" 
    xmlns:xlink="http://www.w3.org/1999/xlink"
    xmlns:krita="http://krita.org/namespaces/svg/krita"
    xmlns:sodipodi="http://sodipodi.sourceforge.net/DTD/sodipodi-0.dtd"
    width="512pt"
    height="512pt"
    viewBox="0 0 512 512">
<defs/>
<path id="shape0" transform="translate(41.4923547400612, 327.43721539818)" fill="#42aec3" fill-rule="evenodd" stroke="#417191" stroke-width="4" stroke-linecap="round" stroke-linejoin="round" d="M0 184.188L15.4566 31.7574L130.965 5.69048C141.102 2.79228 151.01 0.697381 152.085 0L151.941 0.103481C148.904 2.35908 139.151 12.3889 136.683 14.9427C108.34 38.8716 93.0282 95.2871 90.7466 184.188L340.873 184.563C340.192 110.2 332.321 60.1201 317.262 34.3219C304.4 16.7782 301.943 10.1429 294.515 1.29098L294.692 1.15558C298.786 0.878581 317.627 7.71008 328.579 11.7262L445.88 42.6354L465.33 222.188L114.691 255.821Z" sodipodi:nodetypes="cccccccccccccccc"/><path id="shape1" transform="translate(103.124995714099, 330.999986124347)" fill="none" stroke="#417191" stroke-width="3" stroke-linecap="square" stroke-linejoin="bevel" d="M77.75 0L0 53L32.625 59L0.375 62.75L17.25 196.25" sodipodi:nodetypes="ccccc"/><path id="shape2" transform="translate(339.374986081753, 330.062486407316)" fill="none" stroke="#417191" stroke-width="4" stroke-linecap="square" stroke-linejoin="bevel" d="M0 0L80.25 40.0625L50.25 53.1875L83.25 49.0625L55.125 205.063" sodipodi:nodetypes="ccccc"/>
</svg>
