<?xml version="1.0" standalone="no"?>
<!DOCTYPE svg PUBLIC "-//W3C//DTD SVG 20010904//EN" "http://www.w3.org/TR/2001/REC-SVG-20010904/DTD/svg10.dtd">
<!-- Created using Krita: https://krita.org -->
<svg xmlns="http://www.w3.org/2000/svg" 
    xmlns:xlink="http://www.w3.org/1999/xlink"
    xmlns:krita="http://krita.org/namespaces/svg/krita"
    xmlns:sodipodi="http://sodipodi.sourceforge.net/DTD/sodipodi-0.dtd"
    width="512pt"
    height="512pt"
    viewBox="0 0 512 512">
<defs/>
<path id="shape0" transform="matrix(0.78957057306395 -0.33207143086416 0.33207143086416 0.78957057306395 164.981455414847 109.641213326666)" sodipodi:type="arc" sodipodi:rx="8.64210409244082" sodipodi:ry="13.3025380022571" sodipodi:cx="6.21037490143727" sodipodi:cy="-3.14900402712571e-15" sodipodi:start="6.28318530717959" sodipodi:end="2.37260982476125" sodipodi:open="true" d="M-5.77012e-15 9.25065C2.44869 13.1457 6.18777 14.3643 9.45192 12.3313C12.7161 10.2983 14.8525 5.42014 14.8525 5.03454e-15" fill="none" stroke-opacity="0.752941176470588" stroke="#703d1b" stroke-width="5" stroke-linecap="round" stroke-linejoin="bevel"/><path id="shape1" transform="matrix(0.856558885917777 0 0 0.856558885917777 144.323957036882 138.425616066427)" sodipodi:type="arc" sodipodi:rx="11.1209547563766" sodipodi:ry="14.6114889231776" sodipodi:cx="11.1212687532083" sodipodi:cy="2.96159046706004" sodipodi:start="0.102531623350397" sodipodi:end="3.34569596307184" d="M0.23115 0C-0.601489 5.2853 0.85127 10.7432 4.00944 14.1948C7.16762 17.6464 11.5168 18.5294 15.3206 16.4913C19.1244 14.4533 21.7634 9.82609 22.1838 4.45711L11.1213 2.96159Z" fill="none" stroke-opacity="0.752941176470588" stroke="#703d1b" stroke-width="5" stroke-linecap="round" stroke-linejoin="bevel"/><path id="shape2" transform="matrix(0.378846282857827 -0.768224328571751 0.768224328571751 0.378846282857827 150.398331549933 131.436868454121)" sodipodi:type="arc" sodipodi:rx="10.3002589874759" sodipodi:ry="16.2152172080911" sodipodi:cx="10.2980307984159" sodipodi:cy="3.1893557385587e-15" sodipodi:start="6.28318530717959" sodipodi:end="3.1207921057421" sodipodi:open="true" d="M0 0.337261C0.11745 9.22497 4.75857 16.3068 10.4052 16.2143C16.0517 16.1219 20.5983 8.88963 20.5983 7.13572e-15" fill="none" stroke-opacity="0.752941176470588" stroke="#703d1b" stroke-width="5" stroke-linecap="round" stroke-linejoin="bevel"/><path id="shape3" transform="matrix(0.525035501326415 0.676779762841372 -0.676779762841372 0.525035501326415 179.650834229025 91.8950482691172)" sodipodi:type="arc" sodipodi:rx="8.47432568049335" sodipodi:ry="9.12619688668515" sodipodi:cx="8.47504017512292" sodipodi:cy="9.12620343130986" sodipodi:start="1.84145995304607" sodipodi:end="6.16248804596633" sodipodi:open="true" d="M16.8877 8.02737C16.3755 3.47934 12.8116 0.0451376 8.55772 0.000440888C4.3038 -0.0442558 0.678393 3.31441 0.0838758 7.85081C-0.510642 12.3872 2.11001 16.6952 6.20925 17.9201" fill="none" stroke-opacity="0.752941176470588" stroke="#703d1b" stroke-width="5" stroke-linecap="round" stroke-linejoin="bevel"/><path id="shape4" transform="matrix(0.856558885917777 0 0 0.856558885917777 141.00640668567 161.054023006474)" fill="none" stroke-opacity="0.752941176470588" stroke="#703d1b" stroke-width="5" stroke-linecap="round" stroke-linejoin="bevel" d="M5.4197 0C-11.2866 4.46593 15.9021 49.9451 16.5573 3.27575" sodipodi:nodetypes="cc"/><path id="shape5" transform="matrix(0.856558885917777 0 0 0.856558885917777 154.080847038572 180.802623308396)" fill="none" stroke-opacity="0.752941176470588" stroke="#703d1b" stroke-width="5" stroke-linecap="round" stroke-linejoin="bevel" d="M0.965765 8.0639C-2.70265 8.0639 5.08978 0.808968 7.51727 0.202096C16.4401 -2.0286 15.7261 14.943 6.86212 14.943C4.5642 14.943 0.814512 10.0294 1.94849 10.0294" sodipodi:nodetypes="cccc"/><path id="shape6" transform="matrix(0.856558885917777 0 0 0.856558885917777 147.724817082666 191.357465204624)" fill="none" stroke-opacity="0.752941176470588" stroke="#703d1b" stroke-width="5" stroke-linecap="round" stroke-linejoin="bevel" d="M2.16226 0C-6.49221 0 13.6274 48.2829 13.6274 11.7927" sodipodi:nodetypes="cc"/><path id="shape7" transform="matrix(0.856558885917777 0 0 0.856558885917777 163.045116797896 211.055012715385)" fill="none" stroke-opacity="0.752941176470588" stroke="#703d1b" stroke-width="5" stroke-linecap="round" stroke-linejoin="bevel" d="M0 9.10623C0 -4.72893 12.7102 -1.30972 15.396 9.4338C16.9992 15.8465 10.0037 24.8382 3.60333 20.5714C-0.197242 18.0376 1.63788 13.2386 1.63788 13.6923" sodipodi:nodetypes="cccc"/><path id="shape8" transform="matrix(0.856558885917777 0 0 0.856558885917777 148.454570554342 221.380319975014)" fill="none" stroke-opacity="0.752941176470588" stroke="#703d1b" stroke-width="5" stroke-linecap="round" stroke-linejoin="bevel" d="M0 0C9.81199 0 9.16544 9.1721 11.4651 9.1721" sodipodi:nodetypes="cc"/><path id="shape9" transform="matrix(0.856558885917777 0 0 0.856558885917777 166.692753358785 231.995702881569)" fill="none" stroke-opacity="0.752941176470588" stroke="#703d1b" stroke-width="5" stroke-linecap="round" stroke-linejoin="bevel" d="M0 3.00298C0 4.55379 1.58635 4.4237 2.94818 4.96843C6.027 6.19996 12.0183 10.8235 15.396 8.57175C18.0927 6.77398 18.3455 -1.90935 20.6372 0.382375C24.8824 4.62753 22.8187 20.3645 18.0166 20.3645" sodipodi:nodetypes="ccccc"/><path id="shape01" transform="matrix(-0.717137428244511 0.291709216597686 -0.301608063987601 -0.693600809674257 337.202901134614 228.978040498813)" sodipodi:type="arc" sodipodi:rx="8.64210409244082" sodipodi:ry="13.3025380022571" sodipodi:cx="6.21037490143726" sodipodi:cy="-3.5527136788005e-15" sodipodi:start="6.28318530717959" sodipodi:end="2.37260982476125" sodipodi:open="true" d="M0 9.25065C2.44869 13.1457 6.18777 14.3643 9.45192 12.3313C12.7161 10.2983 14.8525 5.42014 14.8525 3.51505e-14" fill="none" stroke-opacity="0.752941176470588" stroke="#703d1b" stroke-width="5" stroke-linecap="round" stroke-linejoin="bevel"/><path id="shape11" transform="matrix(-0.566534725289623 0 0 -0.547940922748056 358.677982436226 205.741758495899)" sodipodi:type="arc" sodipodi:rx="11.1209547563766" sodipodi:ry="14.6114889231776" sodipodi:cx="11.1230735707981" sodipodi:cy="14.6138716558655" sodipodi:start="6.13619268314925" sodipodi:end="5.77425536007866" sodipodi:open="true" d="M20.8346 7.49452C18.0317 0.894297 11.8604 -1.80812 6.60418 1.26304C1.34796 4.3342 -1.25812 12.1652 0.594854 19.3204C2.44783 26.4757 8.1482 30.5933 13.7393 28.8153C19.3304 27.0372 22.9666 19.9504 22.1241 12.4738" fill="none" stroke-opacity="0.752941176470588" stroke="#703d1b" stroke-width="5" stroke-linecap="round" stroke-linejoin="bevel"/><path id="shape21" transform="matrix(-0.344091913069119 0.674849132536848 -0.697749432541467 -0.332798735789498 350.23905555931 210.241775219321)" sodipodi:type="arc" sodipodi:rx="10.3002589874759" sodipodi:ry="16.2152172080911" sodipodi:cx="9.69019408903394" sodipodi:cy="-4.69211718435583e-14" sodipodi:start="6.28318530717959" sodipodi:end="2.79569617222093" sodipodi:open="true" d="M0 5.49761C1.69683 12.9098 6.53259 17.3292 11.4627 15.9733C16.3929 14.6175 19.9905 7.87884 19.9905 1.04145e-16" fill="none" stroke-opacity="0.752941176470588" stroke="#703d1b" stroke-width="5" stroke-linecap="round" stroke-linejoin="bevel"/><path id="shape31" transform="matrix(-0.476870113962311 -0.594519359626524 0.614693752742837 -0.461219124991676 326.266545924804 244.381336645771)" sodipodi:type="arc" sodipodi:rx="12.0755883672016" sodipodi:ry="13.0044797800632" sodipodi:cx="12.0759282608239" sodipodi:cy="9.79671572437472" sodipodi:start="1.84145995304607" sodipodi:end="3.99470965339482" sodipodi:open="true" d="M4.13456 -1.59872e-14C0.788703 3.14551 -0.683734 8.01511 0.300709 12.6792C1.28515 17.3433 4.56756 21.0489 8.84727 22.3278" fill="none" stroke-opacity="0.752941176470588" stroke="#703d1b" stroke-width="5" stroke-linecap="round" stroke-linejoin="bevel"/><path id="shape41" transform="matrix(-0.77798040801263 0 0 -0.752446908578153 352.468499756565 185.425891121047)" fill="none" stroke-opacity="0.752941176470588" stroke="#703d1b" stroke-width="5" stroke-linecap="round" stroke-linejoin="bevel" d="M0 12.6242C0 2.85815 1.29526 -6.72783 18.2242 6.41105" sodipodi:nodetypes="cc"/><path id="shape51" transform="matrix(-0.77798040801263 0 0 -0.752446908578153 361.642994241843 182.581877816631)" fill="none" stroke-opacity="0.752941176470588" stroke="#703d1b" stroke-width="5" stroke-linecap="round" stroke-linejoin="bevel" d="M0 0C0 15.2759 22.9303 29.963 22.9303 7.53423" sodipodi:nodetypes="cc"/><path id="shape61" transform="matrix(-0.77798040801263 0 0 -0.752446908578153 347.103515275699 166.466070632792)" fill="none" stroke-opacity="0.752941176470588" stroke="#703d1b" stroke-width="5" stroke-linecap="round" stroke-linejoin="bevel" d="M0.965764 8.0639C-2.70265 8.0639 5.08978 0.808968 7.51727 0.202096C16.4401 -2.0286 15.7261 14.943 6.86212 14.943C4.5642 14.943 0.814511 10.0294 1.94849 10.0294" sodipodi:nodetypes="cccc"/><path id="shape71" transform="matrix(-0.77798040801263 0 0 -0.752446908578153 352.876461271532 157.194136184655)" fill="none" stroke-opacity="0.752941176470588" stroke="#703d1b" stroke-width="5" stroke-linecap="round" stroke-linejoin="bevel" d="M2.16226 0C-6.49221 0 13.6274 48.2829 13.6274 11.7927" sodipodi:nodetypes="cc"/><path id="shape81" transform="matrix(-0.77798040801263 0 0 -0.752446908578153 338.961605097684 139.890761417583)" fill="none" stroke-opacity="0.752941176470588" stroke="#703d1b" stroke-width="5" stroke-linecap="round" stroke-linejoin="bevel" d="M0 9.10623C0 -4.72893 12.7102 -1.30972 15.396 9.4338C16.9992 15.8465 10.0037 24.8382 3.60333 20.5714C-0.197242 18.0376 1.63788 13.2386 1.63788 13.6923" sodipodi:nodetypes="cccc"/><path id="shape91" transform="matrix(-0.77798040801263 0 0 -0.752446908578153 352.213652687529 130.820462838817)" fill="none" stroke-opacity="0.752941176470588" stroke="#703d1b" stroke-width="5" stroke-linecap="round" stroke-linejoin="bevel" d="M0 0C9.81199 0 9.16544 9.1721 11.4651 9.1721" sodipodi:nodetypes="cc"/><path id="shape10" transform="matrix(-0.77798040801263 0 0 -0.752446908578153 335.648593200223 121.495345362393)" fill="none" stroke-opacity="0.752941176470588" stroke="#703d1b" stroke-width="5" stroke-linecap="round" stroke-linejoin="bevel" d="M0 3.00298C0 4.55379 1.58635 4.4237 2.94818 4.96843C6.027 6.19996 12.0183 10.8235 15.396 8.57175C18.0927 6.77398 18.3455 -1.90935 20.6372 0.382375C24.8824 4.62753 22.8187 20.3645 18.0166 20.3645" sodipodi:nodetypes="ccccc"/><path id="shape12" transform="matrix(0.856558885917777 0 0 0.856558885917777 203.480184292961 276.697784712219)" fill="none" stroke-opacity="0.752941176470588" stroke="#703d1b" stroke-width="5" stroke-linecap="square" stroke-linejoin="bevel" d="M0 0C14.1584 0 13.6824 12.7754 2.94818 12.7754" sodipodi:nodetypes="cc"/><path id="shape13" transform="matrix(0.754507276564191 0 0 0.754507276564191 287.402016081308 282.600418874486)" fill="none" stroke-opacity="0.752941176470588" stroke="#703d1b" stroke-width="5" stroke-linecap="square" stroke-linejoin="bevel" d="M8.13256 0C1.36026 0 -3.5027 7.8618 3.21894 7.8618" sodipodi:nodetypes="cc"/><path id="shape14" transform="matrix(0.754507276564191 0 0 0.754507276564191 286.311840911016 270.719680917196)" fill="none" stroke-opacity="0.752941176470588" stroke="#703d1b" stroke-width="5" stroke-linecap="square" stroke-linejoin="bevel" d="M8.41402 9.82726C5.44042 9.82726 -5.54012 0 3.50039 0" sodipodi:nodetypes="cc"/><path id="shape15" transform="translate(187.527355325951, 255.812483963205)" fill="none" stroke-opacity="0.752941176470588" stroke="#703d1b" stroke-width="5" stroke-linecap="square" stroke-linejoin="bevel" d="M7.34763 0C-12.8652 0 15.0351 25.725 15.0351 3.9375" sodipodi:nodetypes="cc"/><path id="shape16" transform="matrix(0.807356860353589 0 0 0.807356860353589 312.249980425158 244.883897689042)" fill="none" stroke-opacity="0.752941176470588" stroke="#703d1b" stroke-width="5" stroke-linecap="square" stroke-linejoin="bevel" d="M5.80018 1.98686C5.80018 -2.43045 -2.77078 1.13042 0.925177 6.67436C14.0097 26.3012 7.30018 10.8665 7.30018 2.36186" sodipodi:nodetypes="ccc"/><path id="shape17" transform="matrix(0.765595267711934 0 0 0.765595267711934 290.737177404834 254.249984061158)" fill="none" stroke-opacity="0.752941176470588" stroke="#703d1b" stroke-width="5" stroke-linecap="square" stroke-linejoin="bevel" d="M18.1076 19.1028C22.5286 19.1028 27.5291 -7.76585 2.54506 2.22778C-2.17825 4.1171 0.589391 9.08461 3.48256 11.9778C9.78235 18.2776 10.6022 8.60278 11.1701 8.60278" sodipodi:nodetypes="cccc"/><path id="shape18" transform="translate(303.508100010989, 92.9043459358433)" fill="none" stroke-opacity="0.752941176470588" stroke="#703d1b" stroke-width="4" stroke-linecap="square" stroke-linejoin="bevel" d="M26.3044 12.2831C26.3044 9.02789 22.0586 4.44818 19.1794 2.72065C2.23353 -7.44686 -7.24925 14.1581 6.80438 14.1581C8.92564 14.1581 10.2595 6.09565 15.6169 6.09565" sodipodi:nodetypes="cccc"/><path id="shape19" transform="translate(301.124981122581, 77.4374951454708)" fill="none" stroke-opacity="0.752941176470588" stroke="#703d1b" stroke-width="4" stroke-linecap="square" stroke-linejoin="bevel" d="M0 0C0 5.56416 7.06584 8.8125 13.3125 8.8125" sodipodi:nodetypes="cc"/><path id="shape20" transform="translate(182.437488563058, 76.3124952159966)" fill="none" stroke-opacity="0.752941176470588" stroke="#703d1b" stroke-width="4" stroke-linecap="square" stroke-linejoin="bevel" d="M0 8.625C4.97363 8.625 14.0625 4.87821 14.0625 0" sodipodi:nodetypes="cc"/>
</svg>
