<?xml version="1.0" standalone="no"?>
<!DOCTYPE svg PUBLIC "-//W3C//DTD SVG 20010904//EN" "http://www.w3.org/TR/2001/REC-SVG-20010904/DTD/svg10.dtd">
<!-- Created using Krita: https://krita.org -->
<svg xmlns="http://www.w3.org/2000/svg" 
    xmlns:xlink="http://www.w3.org/1999/xlink"
    xmlns:krita="http://krita.org/namespaces/svg/krita"
    xmlns:sodipodi="http://sodipodi.sourceforge.net/DTD/sodipodi-0.dtd"
    width="512pt"
    height="512pt"
    viewBox="0 0 512 512">
<defs/>
<path id="shape0" transform="translate(139.956446991404, 144.145773625763)" fill="#3d3d3d" fill-rule="evenodd" stroke="#8c8c8c" stroke-width="4" stroke-linecap="square" stroke-linejoin="bevel" d="M2.4375 0C103.318 12.014 103.321 11.8536 218.419 0.75C220.169 12.1863 221.044 20.5158 221.044 25.7385C105.246 47.602 104.977 47.6122 0 25.7385C0 20.5158 0.8125 11.9363 2.4375 0Z" sodipodi:nodetypes="ccccc"/><path id="shape1" transform="translate(148.874994757273, 155.624994519567)" fill="none" stroke="#8e7428" stroke-width="4" stroke-linecap="square" stroke-linejoin="miter" stroke-miterlimit="2" d="M0 12.5625L1.125 0" sodipodi:nodetypes="cc"/><path id="shape01" transform="translate(157.122494532773, 149.51624484091)" fill="none" stroke="#8e7428" stroke-width="4" stroke-linecap="square" stroke-linejoin="miter" stroke-miterlimit="2" d="M0 12.5625L1.125 0" sodipodi:nodetypes="cc"/><path id="shape02" transform="translate(164.244994347891, 159.282494603204)" fill="none" stroke="#8e7428" stroke-width="4" stroke-linecap="square" stroke-linejoin="miter" stroke-miterlimit="2" d="M0 12.5625L1.125 0" sodipodi:nodetypes="cc"/><path id="shape03" transform="translate(171.992494140999, 151.673744942154)" fill="none" stroke="#8e7428" stroke-width="4" stroke-linecap="square" stroke-linejoin="miter" stroke-miterlimit="2" d="M0 12.5625L1.125 0" sodipodi:nodetypes="cc"/><path id="shape04" transform="translate(177.864994000137, 161.814994726458)" fill="none" stroke="#8e7428" stroke-width="4" stroke-linecap="square" stroke-linejoin="miter" stroke-miterlimit="2" d="M0 12.5625L1.125 0" sodipodi:nodetypes="cc"/><path id="shape05" transform="translate(185.487493797647, 153.456245127036)" fill="none" stroke="#8e7428" stroke-width="4" stroke-linecap="square" stroke-linejoin="miter" stroke-miterlimit="2" d="M0 12.5625L1.125 0" sodipodi:nodetypes="cc"/><path id="shape06" transform="translate(192.624743552898, 163.792119752429)" fill="none" stroke="#8e7428" stroke-width="4" stroke-linecap="square" stroke-linejoin="miter" stroke-miterlimit="2" d="M0 12.5625L1.125 0" sodipodi:nodetypes="cc"/><path id="shape011" transform="translate(200.247243350408, 155.433370153008)" fill="none" stroke="#8e7428" stroke-width="4" stroke-linecap="square" stroke-linejoin="miter" stroke-miterlimit="2" d="M0 12.5625L1.125 0" sodipodi:nodetypes="cc"/><path id="shape07" transform="matrix(1 0 0 1.06144473688872 206.759493127669 165.122345266834)" fill="none" stroke="#8e7428" stroke-width="4" stroke-linecap="square" stroke-linejoin="miter" stroke-miterlimit="2" d="M0 12.5625L1.125 0" sodipodi:nodetypes="cc"/><path id="shape012" transform="matrix(1 0 0 1.06144473688872 214.381992925179 156.249994497558)" fill="none" stroke="#8e7428" stroke-width="4" stroke-linecap="square" stroke-linejoin="miter" stroke-miterlimit="2" d="M0 12.5625L1.125 0" sodipodi:nodetypes="cc"/><path id="shape08" transform="matrix(1 0 0 1.13141273043773 220.519242715646 166.957190160864)" fill="none" stroke="#8e7428" stroke-width="4" stroke-linecap="square" stroke-linejoin="miter" stroke-miterlimit="2" d="M0 12.5625L1.125 0" sodipodi:nodetypes="cc"/><path id="shape013" transform="matrix(1 0 0 1.13141273043773 228.141742513156 157.499994453538)" fill="none" stroke="#8e7428" stroke-width="4" stroke-linecap="square" stroke-linejoin="miter" stroke-miterlimit="2" d="M0 12.5625L1.125 0" sodipodi:nodetypes="cc"/><path id="shape09" transform="matrix(1 0 0 1.17244007625142 234.028992312427 167.30012747125)" fill="none" stroke="#8e7428" stroke-width="4" stroke-linecap="square" stroke-linejoin="miter" stroke-miterlimit="2" d="M0 12.5625L1.125 0" sodipodi:nodetypes="cc"/><path id="shape014" transform="matrix(1 0 0 1.17244007625142 241.651492109937 157.499994453538)" fill="none" stroke="#8e7428" stroke-width="4" stroke-linecap="square" stroke-linejoin="miter" stroke-miterlimit="2" d="M0 12.5625L1.125 0" sodipodi:nodetypes="cc"/><path id="shape010" transform="matrix(1 0 0 1.14932414620817 249.288741847581 167.106907200261)" fill="none" stroke="#8e7428" stroke-width="4" stroke-linecap="square" stroke-linejoin="miter" stroke-miterlimit="2" d="M0 12.5625L1.125 0" sodipodi:nodetypes="cc"/><path id="shape015" transform="matrix(1 0 0 1.14932414620817 256.911241645091 157.499994453538)" fill="none" stroke="#8e7428" stroke-width="4" stroke-linecap="square" stroke-linejoin="miter" stroke-miterlimit="2" d="M0 12.5625L1.125 0" sodipodi:nodetypes="cc"/><path id="shape016" transform="matrix(1 0 0 1.16975028612415 263.048491435558 166.902644202308)" fill="none" stroke="#8e7428" stroke-width="4" stroke-linecap="square" stroke-linejoin="miter" stroke-miterlimit="2" d="M0 12.5625L1.125 0" sodipodi:nodetypes="cc"/><path id="shape017" transform="matrix(1 0 0 1.16975028612415 270.670991233068 157.124994466744)" fill="none" stroke="#8e7428" stroke-width="4" stroke-linecap="square" stroke-linejoin="miter" stroke-miterlimit="2" d="M0 12.5625L1.125 0" sodipodi:nodetypes="cc"/><path id="shape018" transform="matrix(1 0 0 1.16975028612415 277.558240997123 165.533668683278)" fill="none" stroke="#8e7428" stroke-width="4" stroke-linecap="square" stroke-linejoin="miter" stroke-miterlimit="2" d="M0 12.5625L1.125 0" sodipodi:nodetypes="cc"/><path id="shape019" transform="matrix(1 0 0 1.16975028612415 285.180740794633 155.756018947714)" fill="none" stroke="#8e7428" stroke-width="4" stroke-linecap="square" stroke-linejoin="miter" stroke-miterlimit="2" d="M0 12.5625L1.125 0" sodipodi:nodetypes="cc"/><path id="shape020" transform="matrix(1 0 0 1.14045226977096 291.94299056309 164.032749512293)" fill="none" stroke="#8e7428" stroke-width="4" stroke-linecap="square" stroke-linejoin="miter" stroke-miterlimit="2" d="M0 12.5625L1.125 0" sodipodi:nodetypes="cc"/><path id="shape0110" transform="matrix(1 0 0 1.14045226977096 299.5654903606 154.499994559185)" fill="none" stroke="#8e7428" stroke-width="4" stroke-linecap="square" stroke-linejoin="miter" stroke-miterlimit="2" d="M0 12.5625L1.125 0" sodipodi:nodetypes="cc"/><path id="shape021" transform="matrix(1 0 0 1.08157265351999 306.202740133459 162.165589591963)" fill="none" stroke="#8e7428" stroke-width="4" stroke-linecap="square" stroke-linejoin="miter" stroke-miterlimit="2" d="M0 12.5625L1.125 0" sodipodi:nodetypes="cc"/><path id="shape0111" transform="matrix(1 0 0 1.08157265351999 313.825239930969 153.124994607607)" fill="none" stroke="#8e7428" stroke-width="4" stroke-linecap="square" stroke-linejoin="miter" stroke-miterlimit="2" d="M0 12.5625L1.125 0" sodipodi:nodetypes="cc"/><path id="shape022" transform="matrix(1 0 0 1.04172575979863 320.712489695024 160.332519437854)" fill="none" stroke="#8e7428" stroke-width="4" stroke-linecap="square" stroke-linejoin="miter" stroke-miterlimit="2" d="M0 12.5625L1.125 0" sodipodi:nodetypes="cc"/><path id="shape0112" transform="matrix(1 0 0 1.04172575979863 328.334989492534 151.62499466043)" fill="none" stroke="#8e7428" stroke-width="4" stroke-linecap="square" stroke-linejoin="miter" stroke-miterlimit="2" d="M0 12.5625L1.125 0" sodipodi:nodetypes="cc"/><path id="shape023" transform="matrix(1 0 0 0.994542057004216 334.972239265393 158.563122729443)" fill="none" stroke="#8e7428" stroke-width="4" stroke-linecap="square" stroke-linejoin="miter" stroke-miterlimit="2" d="M0 12.5625L1.125 0" sodipodi:nodetypes="cc"/><path id="shape0113" transform="matrix(1 0 0 0.994542057004216 342.594739062903 150.249994708852)" fill="none" stroke="#8e7428" stroke-width="4" stroke-linecap="square" stroke-linejoin="miter" stroke-miterlimit="2" d="M0 12.5625L1.125 0" sodipodi:nodetypes="cc"/><path id="shape024" transform="matrix(1 0 0 0.994542057004216 349.106988840164 156.144223231039)" fill="none" stroke="#8e7428" stroke-width="4" stroke-linecap="square" stroke-linejoin="miter" stroke-miterlimit="2" d="M0 12.5625L1.125 0" sodipodi:nodetypes="cc"/><path id="shape2" transform="translate(138.325055368775, 136.499991125051)" fill="#8c8c8c" fill-rule="evenodd" stroke="none" stroke-width="4" stroke-linecap="square" stroke-linejoin="bevel" d="M0.799936 33.9375C1.021 20.1304 -3.04848 14.2852 5.29994 0C76.355 10.8141 150.806 11.1801 218.862 1.5C223.739 14.1168 226.129 18.0092 223.175 33.5625L213.425 36.9375C217.359 20.2067 215.233 13.9792 211.737 10.125C144.386 19.8429 77.7793 21.1857 12.4249 8.4375C5.76819 16.9706 6.75603 26.9371 7.92494 36.9375Z" sodipodi:nodetypes="ccccccccc"/><ellipse id="shape3" transform="translate(358, 148)" rx="2.5" ry="7.5" cx="2.5" cy="7.5" fill="#b54343" fill-rule="evenodd" stroke="none" stroke-width="4" stroke-linecap="square" stroke-linejoin="bevel"/><ellipse id="shape025" transform="translate(137.125014360838, 146.312500109718)" rx="2.5" ry="7.5" cx="2.5" cy="7.5" fill="#b54343" fill-rule="evenodd" stroke-opacity="0" stroke="#000000" stroke-width="0" stroke-linecap="square" stroke-linejoin="bevel"/>
</svg>
