<?xml version="1.0" standalone="no"?>
<!DOCTYPE svg PUBLIC "-//W3C//DTD SVG 20010904//EN" "http://www.w3.org/TR/2001/REC-SVG-20010904/DTD/svg10.dtd">
<!-- Created using Krita: https://krita.org -->
<svg xmlns="http://www.w3.org/2000/svg" 
    xmlns:xlink="http://www.w3.org/1999/xlink"
    xmlns:krita="http://krita.org/namespaces/svg/krita"
    xmlns:sodipodi="http://sodipodi.sourceforge.net/DTD/sodipodi-0.dtd"
    width="512pt"
    height="512pt"
    viewBox="0 0 512 512">
<defs/>
<path id="shape0" transform="translate(139.956446991404, 144.145773625763)" fill="#3d3d3d" fill-rule="evenodd" stroke="#8c8c8c" stroke-width="4" stroke-linecap="square" stroke-linejoin="bevel" d="M2.4375 0C77.568 24.264 119.071 28.3536 218.419 0.75C220.169 12.1863 221.044 20.5158 221.044 25.7385C152.088 57.2476 56.9858 58.6001 0 25.7385C0 20.5158 0.8125 11.9363 2.4375 0Z" sodipodi:nodetypes="ccccc"/><path id="shape1" transform="translate(148.937494724987, 158.374994469896)" fill="none" stroke="#8e7428" stroke-width="4" stroke-linecap="square" stroke-linejoin="miter" stroke-miterlimit="2" d="M0 12.5625L1.125 0" sodipodi:nodetypes="cc"/><path id="shape01" transform="translate(156.372494526564, 152.891244797448)" fill="none" stroke="#8e7428" stroke-width="4" stroke-linecap="square" stroke-linejoin="miter" stroke-miterlimit="2" d="M0 12.5625L1.125 0" sodipodi:nodetypes="cc"/><path id="shape02" transform="translate(163.369994349133, 164.157494502621)" fill="none" stroke="#8e7428" stroke-width="4" stroke-linecap="square" stroke-linejoin="miter" stroke-miterlimit="2" d="M0 12.5625L1.125 0" sodipodi:nodetypes="cc"/><path id="shape03" transform="translate(170.929994147829, 157.048744817978)" fill="none" stroke="#8e7428" stroke-width="4" stroke-linecap="square" stroke-linejoin="miter" stroke-miterlimit="2" d="M0 12.5625L1.125 0" sodipodi:nodetypes="cc"/><path id="shape04" transform="translate(177.177493993928, 169.064994563166)" fill="none" stroke="#8e7428" stroke-width="4" stroke-linecap="square" stroke-linejoin="miter" stroke-miterlimit="2" d="M0 12.5625L1.125 0" sodipodi:nodetypes="cc"/><path id="shape05" transform="translate(184.424993804477, 159.956244991684)" fill="none" stroke="#8e7428" stroke-width="4" stroke-linecap="square" stroke-linejoin="miter" stroke-miterlimit="2" d="M0 12.5625L1.125 0" sodipodi:nodetypes="cc"/><path id="shape06" transform="translate(190.812243580217, 172.792119543813)" fill="none" stroke="#8e7428" stroke-width="4" stroke-linecap="square" stroke-linejoin="miter" stroke-miterlimit="2" d="M0 12.5625L1.125 0" sodipodi:nodetypes="cc"/><path id="shape011" transform="translate(198.309743380831, 163.370869951221)" fill="none" stroke="#8e7428" stroke-width="4" stroke-linecap="square" stroke-linejoin="miter" stroke-miterlimit="2" d="M0 12.5625L1.125 0" sodipodi:nodetypes="cc"/><path id="shape07" transform="matrix(1 0 0 1.06144473688872 205.259493146295 174.309845047042)" fill="none" stroke="#8e7428" stroke-width="4" stroke-linecap="square" stroke-linejoin="miter" stroke-miterlimit="2" d="M0 12.5625L1.125 0" sodipodi:nodetypes="cc"/><path id="shape012" transform="matrix(1 0 0 1.06144473688872 212.569492976712 165.687494176562)" fill="none" stroke="#8e7428" stroke-width="4" stroke-linecap="square" stroke-linejoin="miter" stroke-miterlimit="2" d="M0 12.5625L1.125 0" sodipodi:nodetypes="cc"/><path id="shape08" transform="matrix(1 0 0 1.13141273043773 219.20674273241 174.58218997522)" fill="none" stroke="#8e7428" stroke-width="4" stroke-linecap="square" stroke-linejoin="miter" stroke-miterlimit="2" d="M0 12.5625L1.125 0" sodipodi:nodetypes="cc"/><path id="shape013" transform="matrix(1 0 0 1.13141273043773 226.891742547925 167.624994166691)" fill="none" stroke="#8e7428" stroke-width="4" stroke-linecap="square" stroke-linejoin="miter" stroke-miterlimit="2" d="M0 12.5625L1.125 0" sodipodi:nodetypes="cc"/><path id="shape09" transform="matrix(1 0 0 1.17244007625142 233.591492304976 175.112627262634)" fill="none" stroke="#8e7428" stroke-width="4" stroke-linecap="square" stroke-linejoin="miter" stroke-miterlimit="2" d="M0 12.5625L1.125 0" sodipodi:nodetypes="cc"/><path id="shape014" transform="matrix(1 0 0 1.17244007625142 240.776492118629 168.124994124471)" fill="none" stroke="#8e7428" stroke-width="4" stroke-linecap="square" stroke-linejoin="miter" stroke-miterlimit="2" d="M0 12.5625L1.125 0" sodipodi:nodetypes="cc"/><path id="shape010" transform="matrix(1 0 0 1.14932414620817 248.601241845097 175.481906999716)" fill="none" stroke="#8e7428" stroke-width="4" stroke-linecap="square" stroke-linejoin="miter" stroke-miterlimit="2" d="M0 12.5625L1.125 0" sodipodi:nodetypes="cc"/><path id="shape015" transform="matrix(1 0 0 1.14932414620817 255.4375 168.062494128817)" fill="none" stroke="#8e7428" stroke-width="4" stroke-linecap="square" stroke-linejoin="miter" stroke-miterlimit="2" d="M0 12.5625L1.125 0" sodipodi:nodetypes="cc"/><path id="shape016" transform="matrix(1 0 0 1.16975028612415 262.298491435558 174.965144001142)" fill="none" stroke="#8e7428" stroke-width="4" stroke-linecap="square" stroke-linejoin="miter" stroke-miterlimit="2" d="M0 12.5625L1.125 0" sodipodi:nodetypes="cc"/><path id="shape017" transform="matrix(1 0 0 1.16975028612415 269.483491252315 166.499994222738)" fill="none" stroke="#8e7428" stroke-width="4" stroke-linecap="square" stroke-linejoin="miter" stroke-miterlimit="2" d="M0 12.5625L1.125 0" sodipodi:nodetypes="cc"/><path id="shape018" transform="matrix(1 0 0 1.16975028612415 276.558241007057 173.971168476524)" fill="none" stroke="#8e7428" stroke-width="4" stroke-linecap="square" stroke-linejoin="miter" stroke-miterlimit="2" d="M0 12.5625L1.125 0" sodipodi:nodetypes="cc"/><path id="shape019" transform="matrix(1 0 0 1.16975028612415 284.493240790287 164.318518747169)" fill="none" stroke="#8e7428" stroke-width="4" stroke-linecap="square" stroke-linejoin="miter" stroke-miterlimit="2" d="M0 12.5625L1.125 0" sodipodi:nodetypes="cc"/><path id="shape020" transform="matrix(1 0 0 1.14045226977096 291.380490555639 172.470249307402)" fill="none" stroke="#8e7428" stroke-width="4" stroke-linecap="square" stroke-linejoin="miter" stroke-miterlimit="2" d="M0 12.5625L1.125 0" sodipodi:nodetypes="cc"/><path id="shape0110" transform="matrix(1 0 0 1.14045226977096 298.627990355012 162.624994389063)" fill="none" stroke="#8e7428" stroke-width="4" stroke-linecap="square" stroke-linejoin="miter" stroke-miterlimit="2" d="M0 12.5625L1.125 0" sodipodi:nodetypes="cc"/><path id="shape021" transform="matrix(1 0 0 1.08157265351999 305.952740115453 170.603089390797)" fill="none" stroke="#8e7428" stroke-width="4" stroke-linecap="square" stroke-linejoin="miter" stroke-miterlimit="2" d="M0 12.5625L1.125 0" sodipodi:nodetypes="cc"/><path id="shape0111" transform="matrix(1 0 0 1.08157265351999 312.950239928485 159.874994477222)" fill="none" stroke="#8e7428" stroke-width="4" stroke-linecap="square" stroke-linejoin="miter" stroke-miterlimit="2" d="M0 12.5625L1.125 0" sodipodi:nodetypes="cc"/><path id="shape022" transform="matrix(1 0 0 1.04172575979863 320.337489681985 167.582519263386)" fill="none" stroke="#8e7428" stroke-width="4" stroke-linecap="square" stroke-linejoin="miter" stroke-miterlimit="2" d="M0 12.5625L1.125 0" sodipodi:nodetypes="cc"/><path id="shape0112" transform="matrix(1 0 0 1.04172575979863 327.522489504331 156.437494571644)" fill="none" stroke="#8e7428" stroke-width="4" stroke-linecap="square" stroke-linejoin="miter" stroke-miterlimit="2" d="M0 12.5625L1.125 0" sodipodi:nodetypes="cc"/><path id="shape023" transform="matrix(1 0 0 0.994542057004216 334.534739254838 163.688122618926)" fill="none" stroke="#8e7428" stroke-width="4" stroke-linecap="square" stroke-linejoin="miter" stroke-miterlimit="2" d="M0 12.5625L1.125 0" sodipodi:nodetypes="cc"/><path id="shape0113" transform="matrix(1 0 0 0.994542057004216 341.844739062903 152.874994675324)" fill="none" stroke="#8e7428" stroke-width="4" stroke-linecap="square" stroke-linejoin="miter" stroke-miterlimit="2" d="M0 12.5625L1.125 0" sodipodi:nodetypes="cc"/><path id="shape024" transform="matrix(1 0 0 0.994542057004216 348.919488817812 158.76922321055)" fill="none" stroke="#8e7428" stroke-width="4" stroke-linecap="square" stroke-linejoin="miter" stroke-miterlimit="2" d="M0 12.5625L1.125 0" sodipodi:nodetypes="cc"/><path id="shape2" transform="translate(137.948988053061, 136.453116126914)" fill="#8c8c8c" fill-rule="evenodd" stroke-opacity="0" stroke="#000000" stroke-width="0" stroke-linecap="square" stroke-linejoin="bevel" d="M1.17601 33.9375C1.39708 20.1304 -3.6724 6.7852 5.67602 0C75.6807 28.3401 150.649 27.1211 219.238 1.5C226.115 2.6168 226.505 18.0092 223.551 33.5625L213.801 36.9375C217.735 20.2067 215.609 13.9792 212.113 10.125C142.018 33.562 75.5668 34.1286 12.801 8.4375C6.14427 16.9706 7.13211 26.9371 8.30102 36.9375Z" sodipodi:nodetypes="ccccccccc"/><ellipse id="shape3" transform="translate(358, 148)" rx="2.5" ry="7.5" cx="2.5" cy="7.5" fill="#b54343" fill-rule="evenodd" stroke-opacity="0" stroke="#000000" stroke-width="0" stroke-linecap="square" stroke-linejoin="bevel"/><ellipse id="shape025" transform="translate(137.125014360838, 146.312500109718)" rx="2.5" ry="7.5" cx="2.5" cy="7.5" fill="#b54343" fill-rule="evenodd" stroke-opacity="0" stroke="#000000" stroke-width="0" stroke-linecap="square" stroke-linejoin="bevel"/>
</svg>
