<?xml version="1.0" standalone="no"?>
<!DOCTYPE svg PUBLIC "-//W3C//DTD SVG 20010904//EN" "http://www.w3.org/TR/2001/REC-SVG-20010904/DTD/svg10.dtd">
<!-- Created using Krita: https://krita.org -->
<svg xmlns="http://www.w3.org/2000/svg" 
    xmlns:xlink="http://www.w3.org/1999/xlink"
    xmlns:krita="http://krita.org/namespaces/svg/krita"
    xmlns:sodipodi="http://sodipodi.sourceforge.net/DTD/sodipodi-0.dtd"
    width="512pt"
    height="512pt"
    viewBox="0 0 512 512">
<defs/>
<path id="shape0" transform="translate(68.9463499201954, 63.5624957062481)" fill="#b5bec8" fill-rule="evenodd" stroke-opacity="0" stroke="#000000" stroke-width="0" stroke-linecap="square" stroke-linejoin="bevel" d="M336.054 448.438C345.392 399.36 350.18 379.994 343.669 320.587C342.643 311.227 368.796 287.489 425.314 294.748C419.223 234.91 330.474 219.977 326.318 200.638C324.786 193.51 323.156 186.318 321.429 179.062C328.679 84.45 284.262 13.0125 187.054 0C118.741 2.15 80.0953 35.025 71.1161 98.625C45.5369 102.385 29.7609 114.075 23.788 133.696C46.1345 144.004 66.5043 150.688 84.8974 153.75C82.9934 168.889 20.8409 155.765 21.6274 160.923C25.0435 183.331 43.2273 197.815 76.1786 204.375C73.0982 214.311 71.7045 220.656 71.9975 223.409C70.7658 232.25 4.14166 232.32 0 264.867C7.67522 293.296 29.6339 310.386 65.8761 316.136C66.5169 358.228 72.2011 402.329 82.9286 448.438C201.054 448.438 285.429 448.438 336.054 448.438Z" sodipodi:nodetypes="cccccccccccccccc"/>
</svg>
