<?xml version="1.0" standalone="no"?>
<!DOCTYPE svg PUBLIC "-//W3C//DTD SVG 20010904//EN" "http://www.w3.org/TR/2001/REC-SVG-20010904/DTD/svg10.dtd">
<!-- Created using Krita: https://krita.org -->
<svg xmlns="http://www.w3.org/2000/svg" 
    xmlns:xlink="http://www.w3.org/1999/xlink"
    xmlns:krita="http://krita.org/namespaces/svg/krita"
    xmlns:sodipodi="http://sodipodi.sourceforge.net/DTD/sodipodi-0.dtd"
    width="512pt"
    height="512pt"
    viewBox="0 0 512 512">
    <style>
        .body-color {
            color: #472865;
        }
    </style>
<defs/>
<path id="shape0" transform="translate(38.2499998664138, 320.249998881543)" fill="currentColor" class="body-color" fill-rule="evenodd" stroke="#664585" stroke-width="2" stroke-linecap="square" stroke-linejoin="bevel" d="M179.25 4.125L30.75 53.25L0 206.25L462.75 204.75L444.375 57.375L252.75 0Z" sodipodi:nodetypes="ccccccc"/>\n<path id="shape1" transform="translate(172.429429695997, 6.99999997555277)" fill="currentColor" class="body-color" fill-rule="evenodd" stroke="#664585" stroke-width="2" stroke-linecap="square" stroke-linejoin="bevel" d="M2.57057 131C-3.42803 109.417 1.07197 65.7504 16.0706 0C25.7647 53.6939 36.9314 81.5273 49.5706 83.5C74.2663 87.3546 74.0996 131.355 49.0706 215.5C23.0977 177.254 7.59769 149.088 2.57057 131Z" sodipodi:nodetypes="ccscs"/>
<path id="shape2" transform="translate(204.908260203502, 6.49999997729903)" fill="currentColor" class="body-color" fill-rule="evenodd" stroke="#664585" stroke-width="2" stroke-linecap="square" stroke-linejoin="bevel" d="M51.0917 9.5C33.6355 28.8708 -5.24777 74.1752 0.591739 139.5C2.28772 158.472 15.7877 189.139 41.0917 231.5C76.3972 146.644 89.0639 90.6444 79.0917 63.5C72.6291 45.9087 51.9079 40.0923 51.0917 33.5C50.3306 27.3523 56.4973 16.1857 69.5917 0C59.8615 3.4448 53.6948 6.61146 51.0917 9.5Z" sodipodi:nodetypes="cscsscs"/>
<path id="shape3" transform="translate(30.9999944677112, 45.4999963244192)" fill="currentColor" class="body-color" fill-rule="evenodd" stroke="#664585" stroke-width="2" stroke-linecap="square" stroke-linejoin="bevel" d="M179.5 256C115.376 194.985 4.86887 12.9635 0 0C45.0164 42.7391 93.3497 82.2391 145 118.5C165.546 132.924 183.88 176.924 200 250.5L198 262L173.5 256.5Z" sodipodi:nodetypes="ccscccc"/>
<path id="shape4" transform="translate(217.519026282141, 50.4999939525735)" fill="currentColor" class="body-color" fill-rule="evenodd" stroke="#664585" stroke-width="2" stroke-linecap="square" stroke-linejoin="bevel" d="M64.981 248C186.308 177.342 209.705 83.5779 264.981 0C192.369 85.1667 118.97 170.333 38.481 255.5C29.401 300.333 -43.3691 366.396 38.481 380.919C175.238 367.666 237.662 356.337 220.487 484.905L252.532 471.964C262.456 298.598 185.405 355.641 108.643 350.598C96.2458 288.103 72.4948 280.311 64.981 248Z" sodipodi:nodetypes="cccccccc"/>
<path id="shape5" transform="translate(250.999982314883, 24.499998454121)" fill="currentColor" class="body-color" fill-rule="evenodd" stroke="#664585" stroke-width="2" stroke-linecap="square" stroke-linejoin="bevel" d="M42.3437 269.219C110.174 240.288 151.226 213.381 165.5 188.5C182.936 158.106 190.769 95.2731 189 0C175.782 80.1046 160.782 133.938 144 161.5C128.56 186.859 80.5596 224.526 0 274.5C2.50292 283.35 6.67444 298.1 12.5146 318.75C45.3092 400.5 79.6313 479.576 151.611 492.752L188.808 491.656C112.711 454.009 60.5147 394.217 42.3616 301.623C42.0748 288.645 41.6676 274.734 42.3437 269.219Z" sodipodi:nodetypes="cscscccccc"/>
<path id="shape6" transform="translate(51.4999967504993, 146.950291697773)" fill="currentColor" class="body-color" fill-rule="evenodd" stroke="#664585" stroke-width="2" stroke-linecap="square" stroke-linejoin="bevel" d="M152 186.55C152.53 168.737 152.613 156.987 152.25 151.3C130.108 126.925 106.255 121.008 84.5 83.5497C71.4667 61.1085 66.1103 45.2355 59.5 43.5497C49.931 41.1094 30.0977 52.276 0 77.0497C20.505 33.3394 37.8383 8.50609 52 2.5497C58.163 -0.0424404 76.1435 -3.68581 91 9.0497C110.707 25.9429 148.54 84.0262 204.5 183.3C93.0431 285.43 190.368 340.65 167.94 380.848L127.508 379.078C67.0014 183.054 143.084 249.282 152 186.55Z" sodipodi:nodetypes="ccsscsscccc"/>
<path id="shape7" transform="translate(158.499999446446, 0)" fill="currentColor" class="body-color" fill-rule="evenodd" stroke="#664585" stroke-width="2" stroke-linecap="square" stroke-linejoin="bevel" d="M88 320L77 0L0 174.5L60.5 327.5C124.761 372.163 217.637 392.729 174.1 528.171L226.178 534.486C225.267 456.11 216.84 405.606 200.896 382.972C187.479 363.924 149.847 342.933 88 320Z" sodipodi:nodetypes="ccccccsc"/>
<path id="shape8" transform="translate(218.351794129274, 12.4999999563443)" fill="currentColor" class="body-color" fill-rule="evenodd" stroke="#664585" stroke-width="2" stroke-linecap="square" stroke-linejoin="bevel" d="M99.1482 0C47.5815 47.0773 17.2482 83.0773 8.14821 108C-1.16271 133.5 -4.16613 182.193 8.14821 252.5C11.7659 273.155 31.4492 307.527 30.6482 355C29.8703 401.108 13.5681 432.764 17.2404 450.566C20.8282 467.959 37.154 494.814 66.2178 531.129C98.5904 514.555 111.527 504.012 105.028 499.5C41.3971 455.325 53.5016 375.499 50.1482 343.5C44.062 285.424 63.5632 241.474 67.1482 216C73.2341 172.756 83.9008 100.756 99.1482 0Z" sodipodi:nodetypes="csssscsssc"/>
<path id="shape9" transform="translate(60.1597017260828, 18.9999999336433)" fill="currentColor" class="body-color" fill-rule="evenodd" stroke="#664585" stroke-width="2" stroke-linecap="square" stroke-linejoin="bevel" d="M95.8403 0C66.909 31.0193 52.2423 53.3526 51.8403 67C51.5336 77.4113 65.8792 122.57 82.3403 150C95.2066 171.44 111.207 200.44 130.34 237L173.814 289.231C87.1157 361.029 -40.925 397.549 12.7153 501.25L51.5019 504.032C26.032 369.279 137.327 349.407 203.34 291.5L176.84 151.5C151.585 113.933 129.752 87.2662 111.34 71.5C92.7093 64.6321 87.5426 40.7988 95.8403 0Z" sodipodi:nodetypes="csscccccccc"/>
<path id="shape10" transform="translate(217.452246785291, 24.9999999126886)" fill="currentColor" class="body-color" fill-rule="evenodd" stroke="#664585" stroke-width="2" stroke-linecap="square" stroke-linejoin="bevel" d="M130.548 0L106.048 39.5L53.5478 108.5C19.0826 160.975 1.24925 198.808 0.0477525 222C-0.74871 237.374 8.41796 263.54 27.5478 300.5Z" sodipodi:nodetypes="cccscc"/>
<path id="shape11" transform="translate(200.542156842588, 6.49999997729903)" fill="currentColor" class="body-color" fill-rule="evenodd" stroke="#664585" stroke-width="2" stroke-linecap="square" stroke-linejoin="bevel" d="M176.458 37.5C185.849 76.3861 180.063 105.743 175.958 121.5C164.519 165.408 126.852 233.741 62.9578 326.5C14.5166 381.424 47.8298 455.036 65.9087 525.165L33.4946 522.57C-36.2563 426.261 22.0117 374.607 38.2078 301C80.5585 217.177 110.975 157.01 129.458 120.5C144.965 89.867 154.116 67.4413 157.458 53.5C159.927 43.1999 161.26 25.3666 161.458 0C169.581 17.2287 174.581 29.7287 176.458 37.5Z" sodipodi:nodetypes="csccccsscs"/>
<path id="shape12" transform="translate(306.999998927816, 75.9999997345733)" fill="currentColor" class="body-color" fill-rule="evenodd" stroke="#664585" stroke-width="2" stroke-linecap="square" stroke-linejoin="bevel" d="M6.5 180C71.4839 119.283 104.817 75.1161 106.5 47.5C107.056 38.369 97.8897 22.5357 79 0C82.7472 20.9702 83.2472 35.1369 80.5 42.5C72.8668 62.9589 46.0335 91.7923 0 129Z" sodipodi:nodetypes="cscscc"/>
<path id="shape13" transform="translate(87.3088557367684, 15.3969435957517)" fill="currentColor" class="body-color" fill-rule="evenodd" stroke="#664585" stroke-width="2" stroke-linecap="square" stroke-linejoin="bevel" d="M245.191 0.103056C235.968 24.6931 238.655 79.8564 262.191 96.6031C267.708 148.949 255.073 183.452 232.191 207.603C212.527 228.358 183.527 266.524 145.191 322.103C125.937 387.1 126.318 455.858 63.8098 512.572L0 511.307C69.2656 474.263 96.8431 394.539 125.191 315.603C141.112 283.77 152.278 260.936 158.691 247.103C183.119 194.41 202.657 156.908 208.691 133.103C212.777 116.984 208.506 87.7563 215.691 49.1031C216.785 43.2161 232.535 -2.44973 245.191 0.103056Z" sodipodi:nodetypes="ccsccccsssc"/>
<path id="shape14" transform="translate(252.999984036439, 128.115186343587)" fill="#442e58" fill-rule="evenodd" stroke="#5a476b" stroke-width="2" stroke-linecap="square" stroke-linejoin="bevel" d="M0 30.3848C34.2206 7.84867 57.3873 -2.15133 69.5 0.384806C98.5754 6.47253 106.119 45.296 105 55.3848C100.403 96.8498 43.2912 121.771 35 141.385C29.5419 154.296 26.5419 174.463 26 201.885L3.00002 242.885C12.3386 190.923 16.3386 155.256 15 135.885C13.8473 119.204 43.3819 106.535 86.5 57.3848C79.8992 34.388 72.3274 23.0238 49.5 22.8848C39.9138 20.5663 23.4138 23.0663 0 30.3848Z" sodipodi:nodetypes="csssccsccc"/>
<path id="shape15" transform="translate(171.281558680844, 204.999987065098)" fill="#442e58" fill-rule="evenodd" stroke="#5a476b" stroke-width="2" stroke-linecap="square" stroke-linejoin="bevel" d="M84.7184 0C31.3367 16.3387 -3.084 7.02317 0.21843 15L28.2184 69.5C40.9314 78.0496 47.9314 84.7163 49.2184 89.5C51.8307 99.2093 46.3307 118.043 32.7184 146C52.6488 122.827 64.4822 105.493 68.2184 94C72.6367 80.4085 67.159 70.2821 63.7184 67.5C36.6665 45.6255 26.5639 31.1728 33.7184 29C36.3068 31.6694 53.3068 22.0027 84.7184 0Z" sodipodi:nodetypes="cccscsccc"/>
</svg>
