<?xml version="1.0" standalone="no"?>
<!DOCTYPE svg PUBLIC "-//W3C//DTD SVG 20010904//EN" "http://www.w3.org/TR/2001/REC-SVG-20010904/DTD/svg10.dtd">
<!-- Created using Krita: https://krita.org -->
<svg xmlns="http://www.w3.org/2000/svg" 
    xmlns:xlink="http://www.w3.org/1999/xlink"
    xmlns:krita="http://krita.org/namespaces/svg/krita"
    xmlns:sodipodi="http://sodipodi.sourceforge.net/DTD/sodipodi-0.dtd"
    width="512pt"
    height="512pt"
    viewBox="0 0 512 512">
<defs/>
<path id="shape0" transform="matrix(1.00313328581677 0 0 1 133.119299051021 34.0849041272912)" fill="#273557" fill-rule="evenodd" stroke="#333333" stroke-width="4" stroke-linecap="square" stroke-linejoin="bevel" d="M236.866 143.745C262.482 56.7767 188.712 11.6393 133.041 2.29576C74.2101 -8.96611 -5.47207 20.3832 0.296265 108.595" sodipodi:nodetypes="ccc"/><path id="shape2" transform="translate(150.374994047038, 34.3124986309677)" fill="none" stroke-opacity="0.431372549019608" stroke="#252525" stroke-width="3" stroke-linecap="square" stroke-linejoin="miter" stroke-miterlimit="2" d="M80.125 0C36.6503 9.91985 11.3068 54.5268 0 101.25" sodipodi:nodetypes="cc"/><path id="shape01" transform="translate(251.895034628809, 37.9999984900289)" fill="none" stroke-opacity="0.431372549019608" stroke="#252525" stroke-width="3" stroke-linecap="square" stroke-linejoin="miter" stroke-miterlimit="2" d="M19.2925 0C14.9484 8.18565 12.1462 16.2225 10.2583 24.2567M4.10497 76.1604C3.55844 77.9403 -0.2321 92.8251 0.0112156 94.9687" sodipodi:nodetypes="cccc"/><path id="shape1" transform="translate(319.999987284454, 56.9999977350433)" fill="none" stroke-opacity="0.431372549019608" stroke="#252525" stroke-width="3" stroke-linecap="square" stroke-linejoin="miter" stroke-miterlimit="2" d="M0 0C27.1198 21.1218 36.3869 56.0181 26.125 108.562" sodipodi:nodetypes="cc"/><path id="shape3" transform="matrix(1.00313328581677 0 0 1 131.749994764766 130.00292556651)" fill="#111c34" fill-rule="evenodd" stroke="#333333" stroke-width="4" stroke-linecap="square" stroke-linejoin="bevel" d="M3.70576 10.2471C-0.125838 13.3698 -2.53241 19.2229 4.45576 21.4971C81.0816 18.8351 149.396 29.5051 231.706 58.8096C236.815 55.8431 243.586 55.7435 236.956 46.2471C150.593 0.747508 78.0619 -11.0238 3.70576 10.2471Z" sodipodi:nodetypes="ccccc"/><path id="shape4" transform="translate(197, 67)" sodipodi:type="arc" sodipodi:rx="8.54486978795419e+17" sodipodi:ry="9.87570760534018e+15" sodipodi:cx="-8.54486978795419e+17" sodipodi:cy="-45.8181818181818" sodipodi:start="6.28318530717959" sodipodi:end="5.32907051820075e-15" sodipodi:open="true" d="M0 0C0 -18 0 -36 0 -54" fill="none"/><path id="shape5" transform="matrix(0.997372134012908 0.072448783941077 -0.072448783941077 0.997372134012908 214.687727190276 60.6124591479739)" fill="none" stroke="#2938ae" stroke-width="6" stroke-linecap="square" stroke-linejoin="bevel" d="M94.9259 24.9404C95.4892 17.4462 91.4012 0.947968 51.6376 0.0711541C11.874 -0.80566 0.310919 6.37259 0.00642807 24.2994C-0.298062 42.2262 10.1097 48.0391 53.7274 48.9098C97.345 49.7805 94.3626 32.4346 94.9259 24.9404Z" sodipodi:nodetypes="czzzz"/><ellipse id="shape21" transform="matrix(0.98277029799537 0.184831115827644 -0.184831115827644 0.98277029799537 210.999336989212 46.57858285171)" rx="5.11258948485432" ry="5.12500037627583" cx="5.11258948485432" cy="5.12500037627583" fill="#000000" fill-rule="evenodd" stroke="#333333" stroke-width="4" stroke-linecap="square" stroke-linejoin="bevel"/><ellipse id="shape22" transform="matrix(0.98277029799537 0.184831115827644 -0.184831115827644 0.98277029799537 316.091130007213 68.6118374130141)" rx="5.11258948485432" ry="5.12500037627583" cx="5.11258948485432" cy="5.12500037627583" fill="#000000" fill-rule="evenodd" stroke="#333333" stroke-width="4" stroke-linecap="square" stroke-linejoin="bevel"/><ellipse id="shape6" transform="matrix(0.998182376996367 -0.0602655975983305 0.0602655975983305 0.998182376996367 219.804029579424 71.9089810477952)" rx="17" ry="16.5" cx="17" cy="16.5" fill="#dadbe4" fill-rule="evenodd" stroke="#6fb7d1" stroke-width="3" stroke-linecap="square" stroke-linejoin="bevel"/><path id="shape7" transform="matrix(0.998182376996367 -0.0602655975983305 0.0602655975983305 0.998182376996367 227.558285532378 73.8201351122231)" fill="none" stroke="#a90017" stroke-width="3" stroke-linecap="square" stroke-linejoin="miter" stroke-miterlimit="2" d="M4.6875 0C9.47196 7.34427 6.68812 16.6629 0 27" sodipodi:nodetypes="cc"/><path id="shape8" transform="matrix(0.998182376996367 -0.0602655975983305 0.0602655975983305 0.998182376996367 242.699709748618 72.9059665194782)" fill="none" stroke="#a90017" stroke-width="3" stroke-linecap="square" stroke-linejoin="miter" stroke-miterlimit="2" d="M13.1435 0C-5.98466 9.04351 -0.642568 21.7122 6.7685 34.6875" sodipodi:nodetypes="cc"/><path id="shape9" transform="matrix(0.998182376996367 -0.0602655975983305 0.0602655975983305 0.998182376996367 242.618568523985 86.8111299238981)" fill="none" stroke="#a90017" stroke-width="3" stroke-linecap="round" stroke-linejoin="round" d="M0 0L59.8125 10.875" sodipodi:nodetypes="cc"/><path id="shape10" transform="matrix(0.998182376996367 -0.0602655975983305 0.0602655975983305 0.998182376996367 284.385453265967 75.460893817666)" fill="#a90017" fill-rule="evenodd" d="M9.1875 0C7.70492 4.76178 12.0447 13.0502 6.375 17.625C8.69233 25.553 2.77022 32.115 0 35.625C9.78503 31.2581 11.3729 22.9947 14.625 19.125C12.4507 14.6064 12.8088 2.97291 9.1875 0Z" sodipodi:nodetypes="ccccc"/><path id="shape11" transform="matrix(0.998182376996367 -0.0602655975983305 0.0602655975983305 0.998182376996367 273.405922884584 74.0575311365806)" fill="#a90017" fill-rule="evenodd" d="M9 0L6.75 11.25L0 17.8125L4.6875 23.625L2.0625 35.625L7.875 23.25L13.125 19.3125L9.5625 11.4375Z" sodipodi:nodetypes="ccccccccc"/><path id="shape12" transform="matrix(0.998182376996367 -0.0602655975983305 0.0602655975983305 0.998182376996367 263.575459586941 82.3525465581506)" fill="#a90017" fill-rule="evenodd" d="M9.9375 0L7.875 2.25L1.93752 1.875L1.93752 4.6875L7.125 4.875L5.8125 12.9375L0 14.4375L5.0625 18.75L4.875 22.6875L8.625 18.375L15 17.8125L9.75 12L11.0625 5.8125L15.75 6.375L16.125 4.125L11.8125 3Z" sodipodi:nodetypes="ccccccccccccccccc"/><path id="shape23" transform="matrix(0.98277029799537 0.184831115827644 -0.184831115827644 0.98277029799537 259.054355548462 29.4392806207141)" sodipodi:type="arc" sodipodi:rx="13.5" sodipodi:ry="5.12500037627583" sodipodi:cx="13.5005192361123" sodipodi:cy="5.12502905493219" sodipodi:start="2.62432602193921" sodipodi:end="0.401836471424031" sodipodi:open="true" d="M25.9252 7.12946C28.4027 4.91618 26.4934 2.3466 21.3342 0.951127C16.1751 -0.444345 9.15403 -0.290339 4.45262 1.32142C-0.248786 2.93318 -1.36588 5.56915 1.76667 7.65937" fill="#485062" fill-rule="evenodd" stroke="#333333" stroke-width="4" stroke-linecap="square" stroke-linejoin="bevel"/>
</svg>
