<?xml version="1.0" standalone="no"?>
<!DOCTYPE svg PUBLIC "-//W3C//DTD SVG 20010904//EN" "http://www.w3.org/TR/2001/REC-SVG-20010904/DTD/svg10.dtd">
<!-- Created using Krita: https://krita.org -->
<svg xmlns="http://www.w3.org/2000/svg" 
    xmlns:xlink="http://www.w3.org/1999/xlink"
    xmlns:krita="http://krita.org/namespaces/svg/krita"
    xmlns:sodipodi="http://sodipodi.sourceforge.net/DTD/sodipodi-0.dtd"
    width="512pt"
    height="512pt"
    viewBox="0 0 512 512">
<defs/>
<path id="shape0" transform="translate(131.107984201542, 8.87779672077914)" fill="#c6ad61" fill-rule="evenodd" stroke-opacity="0" stroke="#000000" stroke-width="0" stroke-linecap="square" stroke-linejoin="bevel" d="M4.39201 124.497C1.8451 114.341 -4.81674 93.6836 5.8974 74.4886C6.85081 72.7805 9.42992 75.1764 10.6478 73.4288C19.6008 36.109 45.8779 -3.50403 133.517 0.247202C225.053 4.16523 238.763 52.5696 239.054 95.7444C240.15 98.4737 241.401 94.7242 242.085 97.2586C246.913 115.157 241.78 134.885 237.267 148.122Z" sodipodi:nodetypes="ccczcccc"/><path id="shape2" transform="translate(136.077499818157, 82.2499956076348)" fill="#737373" fill-opacity="0.431372549019608" fill-rule="evenodd" stroke-opacity="0" stroke="#000000" stroke-width="0" stroke-linecap="square" stroke-linejoin="bevel" d="M5.125 0L179.024 14.5528L236.937 22.8125L237 25.125L179.122 18.1325L0 1.65625Z" sodipodi:nodetypes="ccccccc"/><path id="shape1" transform="translate(143.999994730579, 85.874996857559)" fill="none" stroke="#717171" stroke-width="3" stroke-linecap="square" stroke-linejoin="miter" stroke-miterlimit="2" d="M6 0L0 45.75" sodipodi:nodetypes="cc"/><path id="shape3" transform="translate(157.124994250293, 87.7499967889467)" fill="none" stroke="#717171" stroke-width="3" stroke-linecap="square" stroke-linejoin="miter" stroke-miterlimit="2" d="M6.75 0L0 45.375" sodipodi:nodetypes="cc"/><path id="shape4" transform="translate(174.374993619061, 88.4999967615018)" fill="none" stroke="#717171" stroke-width="3" stroke-linecap="square" stroke-linejoin="miter" stroke-miterlimit="2" d="M7.5 0L0 46.875" sodipodi:nodetypes="cc"/><path id="shape5" transform="translate(190.124993042718, 90.3749966928896)" fill="none" stroke="#717171" stroke-width="3" stroke-linecap="square" stroke-linejoin="miter" stroke-miterlimit="2" d="M7.875 0L0 46.875" sodipodi:nodetypes="cc"/><path id="shape6" transform="translate(202.874992576155, 90.3749966928896)" fill="none" stroke="#717171" stroke-width="3" stroke-linecap="square" stroke-linejoin="miter" stroke-miterlimit="2" d="M7.5 0L0 48.75" sodipodi:nodetypes="cc"/><path id="shape7" transform="translate(218.999991986089, 92.6249966105549)" fill="none" stroke="#717171" stroke-width="3" stroke-linecap="square" stroke-linejoin="miter" stroke-miterlimit="2" d="M6.75 0L0 47.625" sodipodi:nodetypes="cc"/><path id="shape8" transform="translate(233.249991464636, 93.49999650403)" fill="none" stroke="#717171" stroke-width="3" stroke-linecap="square" stroke-linejoin="miter" stroke-miterlimit="2" d="M7.625 0L0 48.25" sodipodi:nodetypes="cc"/><path id="shape9" transform="translate(250.124990847126, 96.3749964733304)" fill="none" stroke="#717171" stroke-width="3" stroke-linecap="square" stroke-linejoin="miter" stroke-miterlimit="2" d="M5.87501 0L0 46.875" sodipodi:nodetypes="cc"/><path id="shape10" transform="translate(265.874990270783, 96.7499964596079)" fill="none" stroke="#717171" stroke-width="3" stroke-linecap="square" stroke-linejoin="miter" stroke-miterlimit="2" d="M6 0L0 47.25" sodipodi:nodetypes="cc"/><path id="shape11" transform="translate(279.749989763052, 98.6249963909957)" fill="none" stroke="#717171" stroke-width="3" stroke-linecap="square" stroke-linejoin="miter" stroke-miterlimit="2" d="M7.875 0L0 47.25" sodipodi:nodetypes="cc"/><path id="shape12" transform="translate(295.874989172987, 99.7499963498283)" fill="none" stroke="#717171" stroke-width="3" stroke-linecap="square" stroke-linejoin="miter" stroke-miterlimit="2" d="M5.25 0L0 48" sodipodi:nodetypes="cc"/><path id="shape13" transform="translate(309.374988678979, 98.9999963772732)" fill="none" stroke="#717171" stroke-width="3" stroke-linecap="square" stroke-linejoin="miter" stroke-miterlimit="2" d="M5.625 0L0 50.25" sodipodi:nodetypes="cc"/><path id="shape14" transform="translate(325.874988075191, 100.499996322383)" fill="none" stroke="#717171" stroke-width="3" stroke-linecap="square" stroke-linejoin="miter" stroke-miterlimit="2" d="M6 0L0 49.875" sodipodi:nodetypes="cc"/><path id="shape15" transform="translate(338.999987594905, 103.031246199023)" fill="none" stroke="#717171" stroke-width="3" stroke-linecap="square" stroke-linejoin="miter" stroke-miterlimit="2" d="M6.46875 0L0 49.2187" sodipodi:nodetypes="cc"/><path id="shape16" transform="translate(354.749987018562, 105.468746081888)" fill="none" stroke="#717171" stroke-width="3" stroke-linecap="square" stroke-linejoin="miter" stroke-miterlimit="2" d="M5.15625 0L0 48.6562" sodipodi:nodetypes="cc"/><path id="shape17" transform="translate(262.124990352128, 10.6249995851202)" fill="none" stroke="#717171" stroke-width="3" stroke-linecap="square" stroke-linejoin="miter" stroke-miterlimit="2" d="M0 0C2.80725 10.25 1.18548 19.625 5.58793e-08 29.875" sodipodi:nodetypes="cc"/>
</svg>
