<?xml version="1.0" standalone="no"?>
<!DOCTYPE svg PUBLIC "-//W3C//DTD SVG 20010904//EN" "http://www.w3.org/TR/2001/REC-SVG-20010904/DTD/svg10.dtd">
<!-- Created using Krita: https://krita.org -->
<svg xmlns="http://www.w3.org/2000/svg" 
    xmlns:xlink="http://www.w3.org/1999/xlink"
    xmlns:krita="http://krita.org/namespaces/svg/krita"
    xmlns:sodipodi="http://sodipodi.sourceforge.net/DTD/sodipodi-0.dtd"
    width="512pt"
    height="512pt"
    viewBox="0 0 512 512">
<defs/>
<path id="shape0" transform="translate(120, 39)" fill="#00610b" fill-rule="evenodd" stroke="none" stroke-width="5" stroke-linecap="square" stroke-linejoin="bevel" d="M255 127C255 56.8598 197.916 4.29485e-15 127.5 0C57.0837 -4.29485e-15 8.62351e-15 56.8598 0 127C-8.62351e-15 197.14 49.3337 237 79.75 238.75C79.8708 238.75 91.0574 237.762 113.31 235.785C43.4581 216.672 22.5709 148.527 24.932 122.381C26.7761 60.7838 239.395 66.4085 239.062 129.378C235.771 160.961 196.643 221.658 130.605 235.615L175.286 239.893C228.429 210.215 255 172.584 255 127Z" sodipodi:nodetypes="cccccccccc"/><path id="shape1" transform="translate(302.624978955902, 64.8749954886879)" fill="#161773" fill-rule="evenodd" stroke="#1a1a20" stroke-width="3" stroke-linecap="square" stroke-linejoin="bevel" d="M37.125 73.875L60.375 42C54.4564 23.814 39.4332 12.4564 25.875 0L0 59.625Z" sodipodi:nodetypes="ccccc"/><path id="shape2" transform="translate(208.124985527293, 37.4992334981131)" fill="#161773" fill-rule="evenodd" stroke="#1a1a20" stroke-width="3" stroke-linecap="square" stroke-linejoin="bevel" d="M58.125 80.2508L70.5 4.12576C46.6531 -2.18716 23.1805 -1.015 0 6.00076L11.25 81.7508Z" sodipodi:nodetypes="ccccc"/><path id="shape3" transform="translate(124.874991316376, 74.6249948106872)" fill="#161773" fill-rule="evenodd" stroke="#1a1a20" stroke-width="3" stroke-linecap="square" stroke-linejoin="bevel" d="M66.75 49.5L31.5 0C17.7409 15.017 5.81416 30.7976 0 49.125L31.5 64.5Z" sodipodi:nodetypes="ccccc"/><path id="shape4" transform="translate(132.638388266347, 92.0167091314318)" fill="#6768bf" fill-rule="evenodd" stroke="#111146" stroke-width="2" stroke-linecap="square" stroke-linejoin="bevel" d="M119.454 8.26931C65.3115 -5.21761 27.3979 -5.54696 0.751999 32.9311C-3.6938 84.261 11.573 110.278 46.5525 110.982C99.0216 112.037 103.349 81.1218 117.828 81.4416C139.545 81.9214 141.392 113.298 183.954 112.337C212.328 111.695 229.854 89.5631 236.529 45.9395C204.051 2.50934 162.563 2.79957 119.454 8.26931Z" sodipodi:nodetypes="cczzzcc"/><ellipse id="shape5" transform="matrix(1.15333298332275 0 0 1.15333298332275 269.575428683941 112.360010190871)" rx="35.074043766219" ry="34.5260118323718" cx="35.074043766219" cy="34.5260118323718" fill="#e3f955" fill-rule="evenodd" stroke="#060600" stroke-width="3" stroke-linecap="square" stroke-linejoin="bevel"/><circle id="shape6" transform="matrix(1.15333298332275 0 0 1.15333298332275 149.315864228722 105.500012899397)" r="37.5" cx="37.5" cy="37.5" fill="#e3f955" fill-rule="evenodd" stroke="#060600" stroke-width="3" stroke-linecap="square" stroke-linejoin="bevel"/><path id="shape7" transform="matrix(0.973110444571534 0.230339016811726 -0.230339016811726 0.973110444571534 375.385083032993 162.12504461423)" sodipodi:type="arc" sodipodi:rx="10.2205404302022" sodipodi:ry="27.5427097977035" sodipodi:cx="3.98457572252351" sodipodi:cy="27.5444191720234" sodipodi:start="4.3119098650551" sodipodi:end="1.91073018153431" sodipodi:open="true" d="M0.576795 53.511C4.88432 57.6164 9.67968 53.5186 12.3222 43.4743C14.9648 33.4299 14.8125 19.8793 11.9493 10.2842C9.08604 0.689157 4.20745 -2.61916 3.33522e-14 2.18105" fill="#263827" fill-rule="evenodd"/><path id="shape8" transform="matrix(0.989569487963756 -0.144056337906914 0.144056337906914 0.989569487963756 112.63946619238 165.181767291432)" sodipodi:type="arc" sodipodi:rx="6.16607419000735" sodipodi:ry="24" sodipodi:cx="6.16628027047722" sodipodi:cy="24.0006992477883" sodipodi:start="1.09635210975244" sodipodi:end="4.81870048838965" sodipodi:open="true" d="M6.82057 0.136197C4.20012 -0.952228 1.69162 4.56164 0.5779 13.858C-0.535819 23.1544 -0.00853681 34.1781 1.8901 41.2916C3.78873 48.4051 6.63897 50.0358 8.98322 45.3498" fill="#263827" fill-rule="evenodd"/>
</svg>
