<?xml version="1.0" standalone="no"?>
<!DOCTYPE svg PUBLIC "-//W3C//DTD SVG 20010904//EN" "http://www.w3.org/TR/2001/REC-SVG-20010904/DTD/svg10.dtd">
<!-- Created using Krita: https://krita.org -->
<svg xmlns="http://www.w3.org/2000/svg" 
    xmlns:xlink="http://www.w3.org/1999/xlink"
    xmlns:krita="http://krita.org/namespaces/svg/krita"
    xmlns:sodipodi="http://sodipodi.sourceforge.net/DTD/sodipodi-0.dtd"
    width="512pt"
    height="512pt"
    viewBox="0 0 512 512">
<defs/>
<path id="shape0" transform="matrix(2.99101884397053 0 0 2.14350963905725 126.118084996449 -25.3749982950704)" fill="#ffffff" fill-rule="evenodd" stroke="#7e7e7e" stroke-width="1" stroke-linecap="square" stroke-linejoin="bevel" d="M0 0.699787L82.5829 0L75.729 68.8124L6.01802 69.5122Z" sodipodi:nodetypes="ccccc"/><path id="shape1" transform="matrix(2.99101884397053 0 0 3.66884751249713 187.649315465327 -22.2928337094461)" fill="none" stroke="#ababab" stroke-width="4.32" stroke-linecap="square" stroke-linejoin="miter" stroke-miterlimit="2" d="M0 0L4.71285 37.2664" sodipodi:nodetypes="cc"/><path id="shape01" transform="matrix(2.99101884397053 0 0 3.66884751249713 224.646135270923 -20.1623258850079)" fill="none" stroke="#ababab" stroke-width="4.32" stroke-linecap="square" stroke-linejoin="miter" stroke-miterlimit="2" d="M0 0L2.37251 36.9913" sodipodi:nodetypes="cc"/><path id="shape11" transform="matrix(2.99101884397053 0 0 3.66884751249713 262.324517776592 -14.6670315516767)" fill="none" stroke="#ababab" stroke-width="4.32" stroke-linecap="square" stroke-linejoin="miter" stroke-miterlimit="2" d="M2.97684 0L0 36.4487" sodipodi:nodetypes="cc"/><path id="shape02" transform="matrix(2.99101884397053 0 0 3.66884751249713 299.185856464454 -17.3641127463041)" fill="none" stroke="#ababab" stroke-width="4.32" stroke-linecap="square" stroke-linejoin="miter" stroke-miterlimit="2" d="M4.81568 0L0 36.3099" sodipodi:nodetypes="cc"/><path id="shape12" transform="matrix(2.99101884397053 0 0 3.66884751249713 330.16234530086 -17.8688183533699)" fill="none" stroke="#ababab" stroke-width="4.32" stroke-linecap="square" stroke-linejoin="miter" stroke-miterlimit="2" d="M5.65151 0L0 36.8576" sodipodi:nodetypes="cc"/><path id="shape03" transform="matrix(2.99101884397053 0 0 3.66884751249713 152.226568960833 -23.2846543334539)" fill="none" stroke="#ababab" stroke-width="4.32" stroke-linecap="square" stroke-linejoin="miter" stroke-miterlimit="2" d="M0 0L5.21435 36.7213" sodipodi:nodetypes="cc"/><path id="shape2" transform="matrix(2.73510686366312 0 0 1.05555555349818 124.258765943083 73.2549879599024)" fill="#ffffff" fill-rule="evenodd" stroke="#7e7e7e" stroke-width="1" stroke-linecap="square" stroke-linejoin="bevel" d="M2.06619 15.1532C3.28073 12.2134 0.796993 -1.91736 44.602 0.218912C88.407 2.35518 87.5821 13.5614 88.3846 15.1532C92.1937 21.4829 92.6819 62.4028 86.8764 74.3826C58.4684 61.1509 34.496 59.4894 5.35674 72.784C-2.15482 69.8157 -0.268296 24.2114 2.06619 15.1532Z" sodipodi:nodetypes="czcccc"/>
</svg>
