<?xml version="1.0" standalone="no"?>
<!DOCTYPE svg PUBLIC "-//W3C//DTD SVG 20010904//EN" "http://www.w3.org/TR/2001/REC-SVG-20010904/DTD/svg10.dtd">
<!-- Created using Krita: https://krita.org -->
<svg xmlns="http://www.w3.org/2000/svg" 
    xmlns:xlink="http://www.w3.org/1999/xlink"
    xmlns:krita="http://krita.org/namespaces/svg/krita"
    xmlns:sodipodi="http://sodipodi.sourceforge.net/DTD/sodipodi-0.dtd"
    width="512pt"
    height="512pt"
    viewBox="0 0 512 512">
<defs/>
<path id="shape1" transform="translate(104.999992917762, 37.6249974155956)" fill="#b3b3b3" fill-rule="evenodd" stroke-opacity="0" stroke="#000000" stroke-width="0" stroke-linecap="square" stroke-linejoin="bevel" d="M57.1875 66.9375C36.25 49.575 24.2812 35.325 21.8437 18C28.1812 19.5 34.5875 17.625 40.5 12.75L0 0C1.8125 8.7625 7.125 14.8875 11.8125 16.125C12.525 42.0375 23.025 65.9125 44.8125 86.25Z" sodipodi:nodetypes="ccccccc"/><path id="shape0" transform="translate(116.24999546184, 53.8124978992713)" fill="none" stroke="#505050" stroke-width="2" stroke-linecap="square" stroke-linejoin="miter" stroke-miterlimit="2" d="M0 0L11.4375 2.25" sodipodi:nodetypes="cc"/><path id="shape2" transform="translate(144.562494356579, 96.1874962450389)" fill="none" stroke="#505050" stroke-width="2" stroke-linecap="square" stroke-linejoin="miter" stroke-miterlimit="2" d="M6.375 0C2.80437 0.750621 1.36807 3.16128 0 5.625" sodipodi:nodetypes="cc"/><path id="shape3" transform="translate(123.281245218089, 80.4374968598863)" fill="none" stroke="#505050" stroke-width="2" stroke-linecap="square" stroke-linejoin="miter" stroke-miterlimit="2" d="M0 3.9375C1.95198 3.38262 3.82836 2.29853 5.53125 0" sodipodi:nodetypes="cc"/><path id="shape4" transform="translate(109.781245714367, 39.9062484346919)" fill="none" stroke="#505050" stroke-width="2" stroke-linecap="square" stroke-linejoin="miter" stroke-miterlimit="2" d="M0 0C0.542618 4.38249 3.36574 8.89857 6.65625 13.0312" sodipodi:nodetypes="cc"/><path id="shape5" transform="translate(119.069857003477, 43.2187483128293)" fill="none" stroke="#505050" stroke-width="2" stroke-linecap="square" stroke-linejoin="miter" stroke-miterlimit="2" d="M1.30514 0C-0.509391 4.15574 -0.766057 6.26345 2.71139 10.5" sodipodi:nodetypes="cc"/><path id="shape6" transform="translate(122.812495205654, 46.8749981700969)" fill="none" stroke="#505050" stroke-width="2" stroke-linecap="square" stroke-linejoin="miter" stroke-miterlimit="2" d="M8.8125 0C7.84625 3.37568 4.09125 4.87432 0 7.96875" sodipodi:nodetypes="cc"/><path id="shape7" transform="translate(128.062495000705, 49.6874980603027)" fill="none" stroke="#505050" stroke-width="2" stroke-linecap="square" stroke-linejoin="miter" stroke-miterlimit="2" d="M13.3125 0C10.0031 3.0919 5.0213 4.7504 0 6.375" sodipodi:nodetypes="cc"/><path id="shape8" transform="translate(145.124990009559, 102.749992926664)" fill="none" stroke="#505050" stroke-width="2" stroke-linecap="square" stroke-linejoin="miter" stroke-miterlimit="2" d="M0 0L11.25 10.5" sodipodi:nodetypes="cc"/><path id="shape9" transform="translate(128.624991145423, 80.6249944497549)" fill="none" stroke="#505050" stroke-width="2" stroke-linecap="square" stroke-linejoin="miter" stroke-miterlimit="2" d="M0 0L8.25 11.25" sodipodi:nodetypes="cc"/><path id="shape10" transform="translate(130.124991042162, 92.6249936236719)" fill="none" stroke="#505050" stroke-width="2" stroke-linecap="square" stroke-linejoin="miter" stroke-miterlimit="2" d="M7.125 0C6.22246 3.6197 3.3839 5.10979 0 6" sodipodi:nodetypes="cc"/>
</svg>
