<?xml version="1.0" standalone="no"?>
<!DOCTYPE svg PUBLIC "-//W3C//DTD SVG 20010904//EN" "http://www.w3.org/TR/2001/REC-SVG-20010904/DTD/svg10.dtd">
<!-- Created using Krita: https://krita.org -->
<svg xmlns="http://www.w3.org/2000/svg" 
    xmlns:xlink="http://www.w3.org/1999/xlink"
    xmlns:krita="http://krita.org/namespaces/svg/krita"
    xmlns:sodipodi="http://sodipodi.sourceforge.net/DTD/sodipodi-0.dtd"
    width="512pt"
    height="512pt"
    viewBox="0 0 512 512">
<defs/>
<path id="shape0" transform="translate(332.749977524418, 26.374998220256)" fill="#b3b3b3" fill-rule="evenodd" stroke-opacity="0" stroke="#000000" stroke-width="0" stroke-linecap="square" stroke-linejoin="bevel" d="M0 72.5C31.7 46.875 42.075 31.375 34.875 18.25C28.5375 19.75 19.4125 17.875 13.25 10.125L64.75 0C60.45 8.6 53.575 14.725 47.125 16.375C51.5125 40.9375 41.7 68.3437 13.4375 92.0937Z" sodipodi:nodetypes="ccccccc"/><path id="shape1" transform="translate(346.749976129642, 102.249992961084)" fill="none" stroke="#505050" stroke-width="2" stroke-linecap="square" stroke-linejoin="miter" stroke-miterlimit="2" d="M0 0C0.729217 3.8939 3.80572 6.08069 7.25 8" sodipodi:nodetypes="cc"/><path id="shape2" transform="translate(354.093725624097, 81.8124943680068)" fill="none" stroke="#505050" stroke-width="2" stroke-linecap="square" stroke-linejoin="miter" stroke-miterlimit="2" d="M0 0C4.70327 0.904631 5.22095 2.7043 6.53125 4.3125" sodipodi:nodetypes="cc"/><path id="shape3" transform="translate(367.999974666787, 42.9999970398691)" fill="none" stroke="#505050" stroke-width="2" stroke-linecap="square" stroke-linejoin="miter" stroke-miterlimit="2" d="M0 2.5L12.75 0" sodipodi:nodetypes="cc"/><path id="shape4" transform="translate(353.312475677878, 36.4999974873308)" fill="none" stroke="#505050" stroke-width="2" stroke-linecap="square" stroke-linejoin="miter" stroke-miterlimit="2" d="M0 0C1.18897 4.94726 9.767 6.56943 15.4375 9.5" sodipodi:nodetypes="cc"/><path id="shape5" transform="translate(362.249975062619, 34.2499976422214)" fill="none" stroke="#505050" stroke-width="2" stroke-linecap="square" stroke-linejoin="miter" stroke-miterlimit="2" d="M0 0C3.89478 3.5007 6.07571 8.14397 11.9687 10.3125" sodipodi:nodetypes="cc"/><path id="shape6" transform="translate(375.749974133275, 30.8124978788597)" fill="none" stroke="#505050" stroke-width="2" stroke-linecap="square" stroke-linejoin="miter" stroke-miterlimit="2" d="M2.125 0C3.6266 4.72249 1.49106 9.46379 0 13.6875" sodipodi:nodetypes="cc"/><path id="shape7" transform="translate(379.249973892334, 27.4999981068931)" fill="none" stroke="#505050" stroke-width="2" stroke-linecap="square" stroke-linejoin="miter" stroke-miterlimit="2" d="M12 0C8.85863 5.6911 6.0352 11.5147 0 16" sodipodi:nodetypes="cc"/><path id="shape8" transform="translate(361.124975140065, 71.999995043502)" fill="none" stroke="#505050" stroke-width="2" stroke-linecap="square" stroke-linejoin="miter" stroke-miterlimit="2" d="M0 14.25L10.875 0" sodipodi:nodetypes="cc"/><path id="shape9" transform="translate(364.96872487546, 68.4374952887454)" fill="none" stroke="#505050" stroke-width="2" stroke-linecap="square" stroke-linejoin="miter" stroke-miterlimit="2" d="M7.03125 3.9375C5.41513 2.0469 4.51782 0.197937 0 0" sodipodi:nodetypes="cc"/><path id="shape10" transform="translate(346.499976146853, 92.6249936236719)" fill="none" stroke="#505050" stroke-width="2" stroke-linecap="square" stroke-linejoin="miter" stroke-miterlimit="2" d="M0 9.75L7.875 0" sodipodi:nodetypes="cc"/><path id="shape11" transform="translate(354.374975604737, 92.6249936236719)" fill="none" stroke="#505050" stroke-width="2" stroke-linecap="square" stroke-linejoin="miter" stroke-miterlimit="2" d="M0 0C5.29339 1.15134 6.92762 3.89886 9.28125 7.5" sodipodi:nodetypes="cc"/>
</svg>
