<?xml version="1.0" standalone="no"?>
<!DOCTYPE svg PUBLIC "-//W3C//DTD SVG 20010904//EN" "http://www.w3.org/TR/2001/REC-SVG-20010904/DTD/svg10.dtd">
<!-- Created using Krita: https://krita.org -->
<svg xmlns="http://www.w3.org/2000/svg" 
    xmlns:xlink="http://www.w3.org/1999/xlink"
    xmlns:krita="http://krita.org/namespaces/svg/krita"
    xmlns:sodipodi="http://sodipodi.sourceforge.net/DTD/sodipodi-0.dtd"
    width="512pt"
    height="512pt"
    viewBox="0 0 512 512">
<defs/>
<path id="shape0" transform="translate(246.562498040544, 63.7499994933727)" fill="none" stroke-opacity="0.588235294117647" stroke="#6d6d6d" stroke-width="4" stroke-linecap="square" stroke-linejoin="miter" stroke-miterlimit="2" d="M0 0L0.5625 92.25" sodipodi:nodetypes="cc"/><path id="shape1" transform="translate(151.669420114439, 89.6249943814408)" fill="none" stroke-opacity="0.588235294117647" stroke="#6d6d6d" stroke-width="3" stroke-linecap="square" stroke-linejoin="bevel" d="M38.0806 0C19.0556 9.6625 -14.6069 49.5625 8.70557 74.125C-15.0944 96.0937 15.8306 108.575 30.9556 109.875C19.0806 99.925 13.8681 85.2125 27.4556 74.5C12.7868 62.2125 25.0181 21.825 38.0806 0Z" sodipodi:nodetypes="ccccc"/><path id="shape2" transform="translate(168.749994450265, 107.377803988552)" fill="none" stroke-opacity="0.588235294117647" stroke="#6d6d6d" stroke-width="2" stroke-linecap="square" stroke-linejoin="miter" stroke-miterlimit="2" d="M0 0.153442C3.97292 -0.500724 6.69167 0.936776 8.15625 4.46594" sodipodi:nodetypes="cc"/><path id="shape3" transform="translate(177.093744175862, 99.7242981653214)" fill="none" stroke-opacity="0.588235294117647" stroke="#6d6d6d" stroke-width="2" stroke-linecap="square" stroke-linejoin="miter" stroke-miterlimit="2" d="M0 0.213199C2.4625 -0.438885 3.775 0.404865 3.9375 2.74445" sodipodi:nodetypes="cc"/><path id="shape4" transform="translate(162.937494641423, 116.393425659312)" fill="none" stroke-opacity="0.588235294117647" stroke="#6d6d6d" stroke-width="2" stroke-linecap="square" stroke-linejoin="miter" stroke-miterlimit="2" d="M0 0.98157C5.92292 -1.20593 10.0167 0.262821 12.2812 5.38782" sodipodi:nodetypes="cc"/><path id="shape5" transform="translate(156.374994857246, 127.553024606429)" fill="none" stroke-opacity="0.588235294117647" stroke="#6d6d6d" stroke-width="2" stroke-linecap="square" stroke-linejoin="miter" stroke-miterlimit="2" d="M0 1.54072C7.45208 -1.48845 13.0146 -0.0509455 16.6875 5.85322" sodipodi:nodetypes="cc"/><path id="shape6" transform="translate(153.656244946658, 137.665620472547)" fill="none" stroke-opacity="0.588235294117647" stroke="#6d6d6d" stroke-width="2" stroke-linecap="square" stroke-linejoin="miter" stroke-miterlimit="2" d="M0 4.74062C7.19375 -1.58021 13.475 -1.58021 18.8437 4.74062" sodipodi:nodetypes="cc"/><path id="shape7" transform="translate(154.49999491891, 149.661712256096)" fill="none" stroke-opacity="0.588235294117647" stroke="#6d6d6d" stroke-width="2" stroke-linecap="square" stroke-linejoin="miter" stroke-miterlimit="2" d="M0 3.52578C6.175 -0.886717 12.3417 -1.15755 18.5 2.71328" sodipodi:nodetypes="cc"/><path id="shape8" transform="translate(159.374994758584, 162.009051227663)" fill="none" stroke-opacity="0.588235294117647" stroke="#6d6d6d" stroke-width="2" stroke-linecap="square" stroke-linejoin="miter" stroke-miterlimit="2" d="M0 1.67844C6.4375 -0.590307 12.6875 -0.559057 18.75 1.77219" sodipodi:nodetypes="cc"/><path id="shape9" transform="translate(154.406244921993, 171.56249435777)" fill="none" stroke-opacity="0.588235294117647" stroke="#6d6d6d" stroke-width="2" stroke-linecap="square" stroke-linejoin="miter" stroke-miterlimit="2" d="M0 0C5.8125 4.275 11.4375 4.9625 16.875 2.0625" sodipodi:nodetypes="cc"/><path id="shape10" transform="translate(152.43749498674, 182.249994006287)" fill="none" stroke-opacity="0.588235294117647" stroke="#6d6d6d" stroke-width="2" stroke-linecap="square" stroke-linejoin="miter" stroke-miterlimit="2" d="M0 0.375C8.60625 3.5125 14.575 3.3875 17.9062 0" sodipodi:nodetypes="cc"/><path id="shape11" transform="translate(160.874994709253, 189.281243775048)" fill="none" stroke-opacity="0.588235294117647" stroke="#6d6d6d" stroke-width="2" stroke-linecap="square" stroke-linejoin="miter" stroke-miterlimit="2" d="M0 3.1875C8.09375 4.45 12.375 3.3875 12.8437 0" sodipodi:nodetypes="cc"/><path id="shape01" transform="matrix(-0.978749051480168 0 0 1 347.999988620991 89.0791852516716)" fill="none" stroke-opacity="0.588235294117647" stroke="#6d6d6d" stroke-width="3" stroke-linecap="square" stroke-linejoin="bevel" d="M38.0806 0C19.0556 9.6625 -14.6069 49.5625 8.70555 74.125C-15.0944 96.0937 15.8306 108.575 30.9556 109.875C19.0806 99.925 13.8681 85.2125 27.4556 74.5C12.7868 62.2125 25.0181 21.825 38.0806 0Z" sodipodi:nodetypes="ccccc"/><path id="shape12" transform="matrix(-0.978749051480168 0 0 1 331.282410946628 106.831994634898)" fill="none" stroke-opacity="0.588235294117647" stroke="#6d6d6d" stroke-width="2" stroke-linecap="square" stroke-linejoin="miter" stroke-miterlimit="2" d="M0 0.153442C3.97292 -0.500724 6.69167 0.936776 8.15625 4.46594" sodipodi:nodetypes="cc"/><path id="shape21" transform="matrix(-0.978749051480168 0 0 1 323.115973816912 99.1784891499794)" fill="none" stroke-opacity="0.588235294117647" stroke="#6d6d6d" stroke-width="2" stroke-linecap="square" stroke-linejoin="miter" stroke-miterlimit="2" d="M0 0.213199C2.4625 -0.438885 3.775 0.404865 3.9375 2.74445" sodipodi:nodetypes="cc"/><path id="shape31" transform="matrix(-0.978749051480168 0 0 1 336.97138962126 115.847616204876)" fill="none" stroke-opacity="0.588235294117647" stroke="#6d6d6d" stroke-width="2" stroke-linecap="square" stroke-linejoin="miter" stroke-miterlimit="2" d="M0 0.98157C5.92292 -1.20593 10.0167 0.262821 12.2812 5.38782" sodipodi:nodetypes="cc"/><path id="shape41" transform="matrix(-0.978749051480168 0 0 1 343.394430060362 127.007213062783)" fill="none" stroke-opacity="0.588235294117647" stroke="#6d6d6d" stroke-width="2" stroke-linecap="square" stroke-linejoin="miter" stroke-miterlimit="2" d="M0 1.54072C7.45208 -1.48845 13.0146 -0.0509431 16.6875 5.85322" sodipodi:nodetypes="cc"/><path id="shape51" transform="matrix(-0.978749051480168 0 0 1 346.055403956562 137.119808842778)" fill="none" stroke-opacity="0.588235294117647" stroke="#6d6d6d" stroke-width="2" stroke-linecap="square" stroke-linejoin="miter" stroke-miterlimit="2" d="M0 4.74062C7.19375 -1.58021 13.475 -1.58021 18.8437 4.74062" sodipodi:nodetypes="cc"/><path id="shape61" transform="matrix(-0.978749051480168 0 0 1 345.229584471534 149.115902677378)" fill="none" stroke-opacity="0.588235294117647" stroke="#6d6d6d" stroke-width="2" stroke-linecap="square" stroke-linejoin="miter" stroke-miterlimit="2" d="M0 3.52578C6.175 -0.886717 12.3417 -1.15755 18.5 2.71328" sodipodi:nodetypes="cc"/><path id="shape71" transform="matrix(-0.978749051480168 0 0 1 340.458183002487 161.463240903185)" fill="none" stroke-opacity="0.588235294117647" stroke="#6d6d6d" stroke-width="2" stroke-linecap="square" stroke-linejoin="miter" stroke-miterlimit="2" d="M0 1.67844C6.4375 -0.590306 12.6875 -0.559056 18.75 1.77219" sodipodi:nodetypes="cc"/><path id="shape81" transform="matrix(-0.978749051480168 0 0 1 345.321342192093 171.016685228001)" fill="none" stroke-opacity="0.588235294117647" stroke="#6d6d6d" stroke-width="2" stroke-linecap="square" stroke-linejoin="miter" stroke-miterlimit="2" d="M0 0C5.8125 4.275 11.4375 4.9625 16.875 2.0625" sodipodi:nodetypes="cc"/><path id="shape91" transform="matrix(-0.978749051480168 0 0 1 347.248254323823 181.704184876518)" fill="none" stroke-opacity="0.588235294117647" stroke="#6d6d6d" stroke-width="2" stroke-linecap="square" stroke-linejoin="miter" stroke-miterlimit="2" d="M0 0.375C8.60625 3.5125 14.575 3.3875 17.9062 0" sodipodi:nodetypes="cc"/><path id="shape101" transform="matrix(-0.978749051480168 0 0 1 338.99005947355 188.735434645279)" fill="none" stroke-opacity="0.588235294117647" stroke="#6d6d6d" stroke-width="2" stroke-linecap="square" stroke-linejoin="miter" stroke-miterlimit="2" d="M0 3.1875C8.09375 4.45 12.375 3.3875 12.8437 0" sodipodi:nodetypes="cc"/>
</svg>
