<?xml version="1.0" standalone="no"?>
<!DOCTYPE svg PUBLIC "-//W3C//DTD SVG 20010904//EN" "http://www.w3.org/TR/2001/REC-SVG-20010904/DTD/svg10.dtd">
<!-- Created using Krita: https://krita.org -->
<svg xmlns="http://www.w3.org/2000/svg" 
    xmlns:xlink="http://www.w3.org/1999/xlink"
    xmlns:krita="http://krita.org/namespaces/svg/krita"
    xmlns:sodipodi="http://sodipodi.sourceforge.net/DTD/sodipodi-0.dtd"
    width="512pt"
    height="512pt"
    viewBox="0 0 512 512">
<defs/>
<path id="shape0" transform="translate(135.200754230276, 54.0002537653332)" fill="#474747" fill-rule="evenodd" d="M5.04925 100.625C9.30099 102.217 56.858 69.7938 62.0492 68.2497C76.888 63.8362 92.7005 63.5862 109.487 67.4997C135.163 66.7383 153.288 69.3633 163.862 75.3747C168.982 78.2855 213.232 109.839 219.549 109.125C222.514 107.387 225.862 105.819 226.674 103.125C231.243 95.7672 229.449 89.6133 224.799 83.9997C217.31 80.8761 216.789 82.6547 205.299 74.9997C197.811 47.228 190.186 30.228 182.424 23.9997C128.383 -19.3638 57.6943 6.78857 36.9242 19.4997C28.284 24.7875 19.659 43.0375 11.0492 74.2497L1.29924 88.3747C-1.59243 93.2864 0.642692 98.9749 5.04925 100.625Z" sodipodi:nodetypes="cscsccccssccs"/><path id="shape01" transform="matrix(1.1708529778003 0.297459724294748 -0.297459724294748 1.1708529778003 260.208566896235 65.7534783915109)" fill="#999999" stroke="#e6e6e6" stroke-width="4" stroke-linecap="square" stroke-linejoin="bevel" d="M13.8868 3.22572L35.5046 0L54.1661 7.21578C61.8355 7.21578 67.9195 17.9509 68.5497 23.0582L68.9562 41.1883C61.5299 46.1004 54.175 40.276 51.6201 38.9766L36.9162 34.3799L13.8868 41.2257C6.21733 41.2257 8.37118e-16 35.0084 1.77636e-15 27.3389L0 17.1125C9.39239e-16 9.44305 6.21733 3.22572 13.8868 3.22572Z" sodipodi:nodetypes="ccccccccccc"/><path id="shape02" transform="matrix(-1.18557406471748 0.231933439311008 0.231933439311008 1.18557406471748 236.467707537167 62.7694121486656)" fill="#999999" stroke="#e6e6e6" stroke-width="4" stroke-linecap="square" stroke-linejoin="bevel" d="M14.2168 3.22572L36.3484 0L55.4533 7.21578C63.305 7.21578 69.5336 17.9509 70.1788 23.0582L70.5949 41.1883C62.9921 46.1004 55.4625 40.276 52.8468 38.9766L37.7935 34.3799L14.2168 41.2257C6.36508 41.2257 8.57012e-16 35.0084 1.81857e-15 27.3389L0 17.1125C9.6156e-16 9.44305 6.36508 3.22572 14.2168 3.22572Z" sodipodi:nodetypes="ccccccccccc"/>
</svg>
