<?xml version="1.0" standalone="no"?>
<!DOCTYPE svg PUBLIC "-//W3C//DTD SVG 20010904//EN" "http://www.w3.org/TR/2001/REC-SVG-20010904/DTD/svg10.dtd">
<!-- Created using Krita: https://krita.org -->
<svg xmlns="http://www.w3.org/2000/svg" 
    xmlns:xlink="http://www.w3.org/1999/xlink"
    xmlns:krita="http://krita.org/namespaces/svg/krita"
    xmlns:sodipodi="http://sodipodi.sourceforge.net/DTD/sodipodi-0.dtd"
    width="512pt"
    height="512pt"
    viewBox="0 0 512 512">
<defs/>
<path id="shape0" transform="translate(190.749986010812, 59.9999955645777)" fill="#bfbfbd" fill-rule="evenodd" stroke="#d7d6d5" stroke-width="3" stroke-linecap="square" stroke-linejoin="bevel" d="M17.625 8.5C27.4791 24.4604 37.4913 42.9609 37.5 61.875L0 75.5L7.5 98.375C52.3103 104.571 86.0804 95.7687 113.25 78L106.25 53L65.25 58.625C67.3544 38.5154 59.7921 15.116 46.25 0Z" sodipodi:nodetypes="ccccccccc"/><path id="shape1" transform="translate(270.624999354725, 58.8749955248074)" fill="#bfbfbd" fill-rule="evenodd" stroke="#d7d6d5" stroke-width="3" stroke-linecap="square" stroke-linejoin="bevel" d="M8.62498 0C28.149 4.39447 40.9443 11.6727 53.625 19C54.3182 28.9666 53.9335 26.7224 49 32C35.9045 18.905 8.84064 12.1003 0 10.375C0.658014 7.14465 -0.714952 2.39329 8.62498 0Z" sodipodi:nodetypes="ccccc"/><path id="shape2" transform="translate(156.999988393978, 94.874992863554)" fill="#bfbfbd" fill-rule="evenodd" stroke="#d7d6d5" stroke-width="3" stroke-linecap="square" stroke-linejoin="bevel" d="M40.5 0L0 19.125L5 35.125L50 19.125Z" sodipodi:nodetypes="ccccc"/><ellipse id="shape3" transform="translate(223, 127)" rx="7" ry="6" cx="7" cy="6" fill="#a3a19f" fill-rule="evenodd" stroke="#afadab" stroke-width="3" stroke-linecap="square" stroke-linejoin="bevel"/><ellipse id="shape4" transform="translate(252, 138)" rx="9" ry="8" cx="9" cy="8" fill="#a3a19f" fill-rule="evenodd" stroke="#afadab" stroke-width="3" stroke-linecap="square" stroke-linejoin="bevel"/>
</svg>
