<?xml version="1.0" standalone="no"?>
<!DOCTYPE svg PUBLIC "-//W3C//DTD SVG 20010904//EN" "http://www.w3.org/TR/2001/REC-SVG-20010904/DTD/svg10.dtd">
<!-- Created using Krita: https://krita.org -->
<svg xmlns="http://www.w3.org/2000/svg" 
    xmlns:xlink="http://www.w3.org/1999/xlink"
    xmlns:krita="http://krita.org/namespaces/svg/krita"
    xmlns:sodipodi="http://sodipodi.sourceforge.net/DTD/sodipodi-0.dtd"
    width="512pt"
    height="512pt"
    viewBox="0 0 512 512">
<defs/>
<path id="shape0" transform="matrix(-1 0 0 1 382.157314986992 86.8354088191066)" fill="#626262" fill-rule="evenodd" stroke-opacity="0" stroke="#000000" stroke-width="0" stroke-linecap="square" stroke-linejoin="bevel" d="M18.7871 64.75C18.1659 71.0995 17.3276 70.6864 9.97016 67.8125C3.38766 72.7476 -11.2046 117.493 15.3058 128.25C22.7891 128.716 29.4728 132.791 30.6943 132.812L46.3204 99.875L50.6447 70.875C48.2591 57.9859 61.7011 29.0363 83.7771 13.9375L59.9803 0C57.4719 0.482755 32.151 10.263 18.7871 64.75Z" sodipodi:nodetypes="ccccccccc"/><path id="shape1" transform="translate(253.046465904657, 127.54688629525)" fill="#ababab" fill-rule="evenodd" d="M115.516 2.60936C113.541 1.51711 70.6427 -2.35535 70.7035 2.07811C70.7644 6.51156 77.2551 16.5011 76.4535 17.7031C76.0581 18.2961 54.2572 17.7419 11.0509 16.0404C9.69651 15.7073 6.99737 17.0949 2.95353 20.2031C2.00129 20.935 1.01677 23.6999 0 28.4977L0.27749 58.4447C0.541614 61.715 2.1003 65.2595 4.95353 69.0781C5.64959 70.0097 8.40618 70.9307 13.2233 71.8413L90.0785 73.7031C95.0022 50.156 100.731 36.4893 107.266 32.7031C114.639 29.5661 118.582 27.9567 119.093 27.8751C124.5 37.6015 127.071 41.9287 126.804 40.8569C120.367 15.9601 116.604 3.21091 115.516 2.60936Z" sodipodi:nodetypes="czzczcczcccccz"/><path id="shape2" transform="translate(357.159312404354, 172.063662013336)" sodipodi:type="arc" sodipodi:rx="14.5764000703963" sodipodi:ry="14.9408100721562" sodipodi:cx="5.26370832270467" sodipodi:cy="14.0010660857806" sodipodi:start="5.06895156057008" sodipodi:end="1.94025606711116" sodipodi:open="true" d="M-2.4869e-14 27.9337C4.87713 29.8696 10.3923 28.9788 14.4523 25.5995C18.5123 22.2202 20.4949 16.8703 19.6475 11.5804C18.8001 6.2904 15.2528 1.87121 10.3517 1.77636e-15" fill="#ababab" fill-rule="evenodd"/><path id="shape3" transform="translate(336.468747871764, 140.624999110517)" fill="none" stroke="#727c76" stroke-width="5" stroke-linecap="square" stroke-linejoin="miter" stroke-miterlimit="2" d="M0 1.78125L5.15625 19.7812M12.8437 17.7187L8.90625 1.125M16.6875 0L20.8125 15.8437" sodipodi:nodetypes="cccccc"/><path id="shape4" transform="translate(317.906229040488, 109.968742749776)" fill="none" stroke="#4d4d4d" stroke-width="2" stroke-linecap="square" stroke-linejoin="bevel" d="M18 0L6.84375 2.0625C8.125 4.25 11.2812 5.03125 12.5625 7.21875L0 9.375" sodipodi:nodetypes="cccc"/><circle id="shape5" transform="translate(334.906249610602, 104.312499517888)" r="4.5" cx="4.5" cy="4.5" fill="#ababab" fill-rule="evenodd"/><rect id="shape6" transform="translate(259.937500013046, 151.187499998814)" fill="#8c7fc5" fill-rule="evenodd" width="68" height="41" rx="6.9375020434361" ry="6.9375020434361"/>
</svg>
