<?xml version="1.0" standalone="no"?>
<!DOCTYPE svg PUBLIC "-//W3C//DTD SVG 20010904//EN" "http://www.w3.org/TR/2001/REC-SVG-20010904/DTD/svg10.dtd">
<!-- Created using Krita: https://krita.org -->
<svg xmlns="http://www.w3.org/2000/svg" 
    xmlns:xlink="http://www.w3.org/1999/xlink"
    xmlns:krita="http://krita.org/namespaces/svg/krita"
    xmlns:sodipodi="http://sodipodi.sourceforge.net/DTD/sodipodi-0.dtd"
    width="512pt"
    height="512pt"
    viewBox="0 0 512 512">
<defs/>
<path id="shape0" transform="translate(284.124998091537, 200.562498356008)" fill="none" stroke-opacity="0.407843137254902" stroke="#3f3f3f" stroke-width="3" stroke-linecap="square" stroke-linejoin="miter" stroke-miterlimit="2" d="M0 9.625C18.8039 28.8261 51.9144 11.4805 51.5625 0" sodipodi:nodetypes="cc"/><path id="shape1" transform="translate(280.874998246583, 213.374998346118)" fill="none" stroke-opacity="0.407843137254902" stroke="#3f3f3f" stroke-width="3" stroke-linecap="square" stroke-linejoin="miter" stroke-miterlimit="2" d="M0 6C14.1986 23.8945 38.206 37.3262 55.75 0" sodipodi:nodetypes="cc"/><path id="shape2" transform="translate(286.812498247451, 227.062498431174)" fill="none" stroke-opacity="0.407843137254902" stroke="#3f3f3f" stroke-width="3" stroke-linecap="square" stroke-linejoin="miter" stroke-miterlimit="2" d="M0 11.875C5.13573 31.9456 38.0147 35.3644 50.4375 0" sodipodi:nodetypes="cc"/><path id="shape01" transform="translate(283.582498139936, 198.46727965822)" fill="none" stroke-opacity="0.407843137254902" stroke="#bcbcbc" stroke-width="3" stroke-linecap="square" stroke-linejoin="miter" stroke-miterlimit="2" d="M0 9.625C18.8039 28.8261 51.9144 11.4805 51.5625 0" sodipodi:nodetypes="cc"/><path id="shape11" transform="translate(280.332498294982, 211.27977964833)" fill="none" stroke-opacity="0.407843137254902" stroke="#bcbcbc" stroke-width="3" stroke-linecap="square" stroke-linejoin="miter" stroke-miterlimit="2" d="M0 6C14.1986 23.8945 38.206 37.3262 55.75 0" sodipodi:nodetypes="cc"/><path id="shape21" transform="translate(286.26999829585, 224.967279733386)" fill="none" stroke-opacity="0.407843137254902" stroke="#bcbcbc" stroke-width="3" stroke-linecap="square" stroke-linejoin="miter" stroke-miterlimit="2" d="M0 11.875C5.13573 31.9456 38.0147 35.3644 50.4375 0" sodipodi:nodetypes="cc"/><path id="shape02" transform="matrix(-0.994527171505008 0 0 1 216.334255088057 203.426801497402)" fill="none" stroke-opacity="0.407843137254902" stroke="#3f3f3f" stroke-width="3" stroke-linecap="square" stroke-linejoin="miter" stroke-miterlimit="2" d="M0 9.625C18.8039 28.8261 51.9144 11.4805 51.5625 0" sodipodi:nodetypes="cc"/><path id="shape12" transform="matrix(-0.994527171505008 0 0 1 219.566468241251 216.239301487512)" fill="none" stroke-opacity="0.407843137254902" stroke="#3f3f3f" stroke-width="3" stroke-linecap="square" stroke-linejoin="miter" stroke-miterlimit="2" d="M0 6C14.1986 23.8945 38.206 37.3262 55.75 0" sodipodi:nodetypes="cc"/><path id="shape22" transform="matrix(-0.994527171505008 0 0 1 213.661463159577 229.926801572568)" fill="none" stroke-opacity="0.407843137254902" stroke="#3f3f3f" stroke-width="3" stroke-linecap="square" stroke-linejoin="miter" stroke-miterlimit="2" d="M0 11.875C5.13573 31.9456 38.0147 35.3644 50.4375 0" sodipodi:nodetypes="cc"/><path id="shape011" transform="matrix(-0.994527171505008 0 0 1 216.873786030465 201.331582799614)" fill="none" stroke-opacity="0.407843137254902" stroke="#bcbcbc" stroke-width="3" stroke-linecap="square" stroke-linejoin="miter" stroke-miterlimit="2" d="M0 9.625C18.8039 28.8261 51.9144 11.4805 51.5625 0" sodipodi:nodetypes="cc"/><path id="shape111" transform="matrix(-0.994527171505008 0 0 1 220.105999183659 214.144082789724)" fill="none" stroke-opacity="0.407843137254902" stroke="#bcbcbc" stroke-width="3" stroke-linecap="square" stroke-linejoin="miter" stroke-miterlimit="2" d="M0 6C14.1986 23.8945 38.206 37.3262 55.75 0" sodipodi:nodetypes="cc"/><path id="shape211" transform="matrix(-0.994527171505008 0 0 1 214.200994101984 227.83158287478)" fill="none" stroke-opacity="0.407843137254902" stroke="#bcbcbc" stroke-width="3" stroke-linecap="square" stroke-linejoin="miter" stroke-miterlimit="2" d="M0 11.875C5.13573 31.9456 38.0147 35.3644 50.4375 0" sodipodi:nodetypes="cc"/>
</svg>
