<?xml version="1.0" standalone="no"?>
<!DOCTYPE svg PUBLIC "-//W3C//DTD SVG 20010904//EN" "http://www.w3.org/TR/2001/REC-SVG-20010904/DTD/svg10.dtd">
<!-- Created using Krita: https://krita.org -->
<svg xmlns="http://www.w3.org/2000/svg" 
    xmlns:xlink="http://www.w3.org/1999/xlink"
    xmlns:krita="http://krita.org/namespaces/svg/krita"
    xmlns:sodipodi="http://sodipodi.sourceforge.net/DTD/sodipodi-0.dtd"
    width="512pt"
    height="512pt"
    viewBox="0 0 512 512">
<defs/>
<path id="shape0" transform="translate(106.499999671482, 280.124999135904)" fill="#ffffff" fill-rule="evenodd" stroke-opacity="0" stroke="#000000" stroke-width="0" stroke-linecap="square" stroke-linejoin="bevel" d="M0 29.25L83.8125 22.875L220.5 47.25L275.625 42.75L275.625 0L0.375 1.5Z" sodipodi:nodetypes="ccccccc"/><path id="shape1" transform="translate(108.499999665315, 301.749999069206)" fill="#e1e1e1" fill-opacity="0.631372549019608" fill-rule="evenodd" stroke-opacity="0" stroke="#000000" stroke-width="0" stroke-linecap="square" stroke-linejoin="bevel" d="M0.5 0L0 27.5L58.5 84L124.75 85.75L139.75 72.75L212 74.75L215.5 78.25L273.25 21L216.75 26.25L74.25 1.25Z" sodipodi:nodetypes="ccccccccccc"/><path id="shape11" transform="translate(188.093739265086, 303.687499506767)" fill="#000000" fill-rule="evenodd" stroke-opacity="0" stroke="#000000" stroke-width="0" stroke-linecap="square" stroke-linejoin="bevel" d="M1.65626 0L138.188 24L86.9534 72.3594L81.5154 72.5781L126.251 27.3438L0 3.875Z" sodipodi:nodetypes="ccccccc"/><ellipse id="shape01" transform="translate(285.909626736634, 329.336126857923)" rx="8.83999945953716" ry="8.49999948032419" cx="8.83999945953716" cy="8.49999948032419" fill="#464646" fill-rule="evenodd" stroke="#a7a7a7" stroke-width="1" stroke-linecap="square" stroke-linejoin="bevel"/><ellipse id="shape02" transform="translate(269.795108813096, 350.812499019865)" rx="6.91457183833986" ry="6.64862676763448" cx="6.91457183833986" cy="6.64862676763448" fill="#464646" fill-rule="evenodd" stroke="#a7a7a7" stroke-width="1" stroke-linecap="square" stroke-linejoin="bevel"/><path id="shape03" transform="translate(258.659915040889, 369.187490050528)" sodipodi:type="arc" sodipodi:rx="4.36427224898438" sodipodi:ry="4.19641562402344" sodipodi:cx="4.3645209729175" sodipodi:cy="4.19642454202275" sodipodi:start="2.70708576042202" sodipodi:end="0.358981773715539" sodipodi:open="true" d="M8.45059 5.67071C9.14609 3.88852 8.50692 1.87944 6.89351 0.776388C5.2801 -0.32666 3.09662 -0.24734 1.57437 0.969618C0.0521136 2.18658 -0.427582 4.23631 0.405787 5.96296" fill="#464646" fill-rule="evenodd" stroke="#a7a7a7" stroke-width="1" stroke-linecap="square" stroke-linejoin="bevel"/><ellipse id="shape011" transform="translate(217.711783416085, 315.049496246171)" rx="6.31175133565898" ry="6.06899166890287" cx="6.31175133565898" cy="6.06899166890287" fill="#464646" fill-rule="evenodd" stroke="#a7a7a7" stroke-width="1" stroke-linecap="square" stroke-linejoin="bevel"/><ellipse id="shape012" transform="translate(211.133363225132, 329.714422769475)" rx="5.41349966573082" ry="5.20528814012579" cx="5.41349966573082" cy="5.20528814012579" fill="#464646" fill-rule="evenodd" stroke="#a7a7a7" stroke-width="1" stroke-linecap="square" stroke-linejoin="bevel"/><ellipse id="shape013" transform="translate(204.577918734557, 341.999999044488)" rx="4.75846321349364" ry="4.57544539759005" cx="4.75846321349364" cy="4.57544539759005" fill="#464646" fill-rule="evenodd" stroke="#a7a7a7" stroke-width="1" stroke-linecap="square" stroke-linejoin="bevel"/>
</svg>
