<?xml version="1.0" standalone="no"?>
<!DOCTYPE svg PUBLIC "-//W3C//DTD SVG 20010904//EN" "http://www.w3.org/TR/2001/REC-SVG-20010904/DTD/svg10.dtd">
<!-- Created using Krita: https://krita.org -->
<svg xmlns="http://www.w3.org/2000/svg" 
    xmlns:xlink="http://www.w3.org/1999/xlink"
    xmlns:krita="http://krita.org/namespaces/svg/krita"
    xmlns:sodipodi="http://sodipodi.sourceforge.net/DTD/sodipodi-0.dtd"
    width="512pt"
    height="512pt"
    viewBox="0 0 512 512">
<defs/>
<path id="shape14" transform="translate(508.249969633245, -14.1250088659558)" fill="none" stroke="#535353" stroke-width="2" stroke-linecap="square" stroke-linejoin="miter" stroke-miterlimit="2" d="M0 0C7.775 14.825 13.65 41.2 17.625 79.125" sodipodi:nodetypes="cc"/><path id="shape0" transform="translate(106.499999671482, 280.124999135904)" fill="#b63b2a" fill-rule="evenodd" stroke-opacity="0" stroke="#000000" stroke-width="0" stroke-linecap="square" stroke-linejoin="bevel" d="M0 29.25L83.8125 22.875L220.5 47.25L275.625 42.75L275.625 0L0.375 1.5Z" sodipodi:nodetypes="ccccccc"/><path id="shape01" transform="translate(107.31249965581, 278.999999139377)" fill="#000000" fill-rule="evenodd" stroke-opacity="0" stroke="#000000" stroke-width="0" stroke-linecap="square" stroke-linejoin="bevel" d="M0 10.85L274.625 10.6563L275.375 0L0.125 1.1625Z" sodipodi:nodetypes="ccccc"/><path id="shape1" transform="translate(108.499999665315, 301.749999069206)" fill="#000000" fill-opacity="0.631372549019608" fill-rule="evenodd" stroke-opacity="0" stroke="#000000" stroke-width="0" stroke-linecap="square" stroke-linejoin="bevel" d="M0.5 0L0 27.5L58.5 84L124.75 85.75L139.75 72.75L212 74.75L215.5 78.25L273.25 21L216.75 26.25L74.25 1.25Z" sodipodi:nodetypes="ccccccccccc"/><path id="shape2" transform="translate(193.468748182845, 289.687497026695)" fill="#494949" fill-opacity="0.709803921568627" fill-rule="evenodd" d="M0 14.375L37.875 0L55.0312 0.0625L15.125 16.8125Z" sodipodi:nodetypes="ccccc"/><path id="shape3" transform="translate(223.78123415672, 289.59372976373)" fill="#494949" fill-opacity="0.709803921568627" fill-rule="evenodd" d="M33.4375 0L0 19.5C5.75 20.4687 12.8125 21.7187 18.5625 22.6875L53.3437 5.58794e-09Z" sodipodi:nodetypes="ccccc"/><path id="shape4" transform="translate(259.312481697243, 289.968729743125)" fill="#494949" fill-opacity="0.709803921568627" fill-rule="evenodd" d="M0 26.1562L34.0312 0L56.625 0.46875L23.9062 30Z" sodipodi:nodetypes="ccccc"/><g id="group0" transform="matrix(0.0240839166483355 0 0 0.0240839166483355 196.431252892676 270.125515953171)" fill="none">
  <ellipse id="shape011" transform="translate(0, 450.34698793035)" rx="676.8" ry="374.76" cx="676.8" cy="374.76" fill="#a37e28" fill-rule="evenodd" stroke="#000000" stroke-width="10.8" stroke-linecap="square" stroke-linejoin="bevel"/>
  <path id="shape0111" transform="translate(124.607710143104, 5.6843418860808e-14)" fill="#b2b2b2" stroke="#000000" stroke-width="10.8" stroke-linecap="square" stroke-linejoin="miter" stroke-miterlimit="2.16000008583069" d="M549.065 0C288.677 436.964 105.655 888.013 0 1353.15L36.8011 1371.94C240.478 1070.25 472.297 921.381 732.257 925.339C744.677 936.217 931.709 1051.71 990.954 1207.01C997.726 1204.64 1009.01 1202.86 1024.81 1201.65C928.711 808.63 770.128 408.079 549.065 0Z" sodipodi:nodetypes="ccccccc"/>
 </g><path id="shape5" transform="translate(108.812495636813, 303.249987855789)" fill="#6a726a" fill-rule="evenodd" d="M2.03125 10.3437L0 23.3125L67.4375 24.5L196.687 45.75L250.937 43.25L273.687 20.25L215.687 24L82.6875 0Z" sodipodi:nodetypes="ccccccccc"/><g id="group3" transform="matrix(0.284193493894034 -1.5813918220859 1.5813918220859 0.284193493894034 211.851395602824 354.526689012354)" fill="none">
  <rect id="shape22" fill="#878f94" fill-rule="evenodd" stroke-opacity="0" stroke="#000000" stroke-width="0" stroke-linecap="square" stroke-linejoin="bevel" width="28" height="44" rx="1.37500803438275" ry="1.37500803438275"/>
  <rect id="shape23" transform="matrix(0.869048118913004 6.93889390390723e-18 6.93889390390723e-18 1.11249998860305 4.99998747652086 5.12499537474656)" fill="#649ebd" fill-rule="evenodd" stroke="#000000" stroke-width="4" stroke-linecap="square" stroke-linejoin="miter" stroke-miterlimit="2" width="21" height="15" rx="1.07876649174315" ry="1.07876649174315"/>
  <rect id="shape05" transform="matrix(3.85108611666851e-16 -0.442904242461501 0.512029752259536 -1.07552855510562e-16 5.01908156097761 40.4711163758328)" fill="#635830" fill-rule="evenodd" stroke="#000000" stroke-width="4" stroke-linecap="square" stroke-linejoin="miter" stroke-miterlimit="2" width="30" height="14" rx="0.73448890853598" ry="0.73448890853598"/>
  <rect id="shape06" transform="matrix(3.85108611666851e-16 -0.442904242461501 0.512029752259536 -1.07552855510562e-16 15.9495954827161 40.5168405910789)" fill="#635830" fill-rule="evenodd" stroke="#000000" stroke-width="4" stroke-linecap="square" stroke-linejoin="miter" stroke-miterlimit="2" width="30" height="14" rx="0.73448890853598" ry="0.73448890853598"/>
 </g>
</svg>
