<?xml version="1.0" standalone="no"?>
<!DOCTYPE svg PUBLIC "-//W3C//DTD SVG 20010904//EN" "http://www.w3.org/TR/2001/REC-SVG-20010904/DTD/svg10.dtd">
<!-- Created using Krita: https://krita.org -->
<svg xmlns="http://www.w3.org/2000/svg" 
    xmlns:xlink="http://www.w3.org/1999/xlink"
    xmlns:krita="http://krita.org/namespaces/svg/krita"
    xmlns:sodipodi="http://sodipodi.sourceforge.net/DTD/sodipodi-0.dtd"
    width="512pt"
    height="512pt"
    viewBox="0 0 512 512">
    <style>
        .uniform-color {
            color: #CE3C34;
        }
        .uniform-undershirt-color {
            color: #5E5E5E;
        }
    </style>
<defs/>
<path id="shape0" transform="translate(35.9811977280418, 276.211334568398)" fill="#ffffff" fill-rule="evenodd" stroke-opacity="0" stroke="#000000" stroke-width="0" stroke-linecap="square" stroke-linejoin="bevel" d="M340.908 3.03742C307.354 14.4461 131.555 4.31268 103.08 0L27.3725 95.3481L0 236.83L457.312 235.643L442.125 102.58C408.386 69.3994 374.647 36.2184 340.908 3.03742Z" sodipodi:nodetypes="ccccccc"/><path id="shape01" transform="translate(36.2499975132963, 275.400454866601)" fill="currentColor" class="uniform-undershirt-color" fill-rule="evenodd" stroke-opacity="0" stroke="#000000" stroke-width="0" stroke-linecap="square" stroke-linejoin="bevel" d="M101.112 0L27.3725 96.3047L0 237.787L457.312 236.6L442.125 103.537L340.5 2.28703C314.297 33.9617 252.729 53.0532 165.506 44.4014C163.332 76.4394 163.224 145.547 164.871 236.6L162.241 236.6C161.13 145.248 163.611 47.2472 163.685 44.2216C151.138 42.1418 116.582 22.2895 101.112 0Z" sodipodi:nodetypes="ccccccccccc"/><circle id="shape1" transform="translate(213.250001547712, 346.750001912389)" r="11.5" cx="11.5" cy="11.5" fill="#6a6a6a" fill-rule="evenodd" stroke-opacity="0" stroke="#000000" stroke-width="0" stroke-linecap="square" stroke-linejoin="bevel"/><circle id="shape02" transform="translate(213.250001547712, 391.050000122351)" r="11.5" cx="11.5" cy="11.5" fill="#6a6a6a" fill-rule="evenodd" stroke-opacity="0" stroke="#000000" stroke-width="0" stroke-linecap="square" stroke-linejoin="bevel"/><circle id="shape03" transform="translate(213.250001547712, 434.45499858283)" r="11.5" cx="11.5" cy="11.5" fill="#6a6a6a" fill-rule="evenodd" stroke-opacity="0" stroke="#000000" stroke-width="0" stroke-linecap="square" stroke-linejoin="bevel"/><circle id="shape031" transform="translate(213.550001617949, 478.754997107851)" r="11.5" cx="11.5" cy="11.5" fill="#6a6a6a" fill-rule="evenodd" stroke-opacity="0" stroke="#000000" stroke-width="0" stroke-linecap="square" stroke-linejoin="bevel"/><circle id="shape11" transform="translate(281.579998611062, 348.000501910022)" r="11.5" cx="11.5" cy="11.5" fill="#6a6a6a" fill-rule="evenodd" stroke-opacity="0" stroke="#000000" stroke-width="0" stroke-linecap="square" stroke-linejoin="bevel"/><circle id="shape021" transform="translate(281.579998611062, 392.300500119984)" r="11.5" cx="11.5" cy="11.5" fill="#6a6a6a" fill-rule="evenodd" stroke-opacity="0" stroke="#000000" stroke-width="0" stroke-linecap="square" stroke-linejoin="bevel"/><circle id="shape032" transform="translate(281.579998611062, 435.705498580463)" r="11.5" cx="11.5" cy="11.5" fill="#6a6a6a" fill-rule="evenodd" stroke-opacity="0" stroke="#000000" stroke-width="0" stroke-linecap="square" stroke-linejoin="bevel"/><circle id="shape0311" transform="translate(281.879998681299, 480.005497105484)" r="11.5" cx="11.5" cy="11.5" fill="#6a6a6a" fill-rule="evenodd" stroke-opacity="0" stroke="#000000" stroke-width="0" stroke-linecap="square" stroke-linejoin="bevel"/><path id="shape2" transform="translate(342.246514829983, 275.99999856149)" fill="currentColor" class="uniform-color" fill-rule="evenodd" stroke-opacity="0" stroke="#000000" stroke-width="0" stroke-linecap="square" stroke-linejoin="bevel" d="M35.2535 0C95.2919 60.4553 127.614 92.4421 133.878 99C154.38 120.462 154.005 163.129 153.003 236L2.25348 236C-3.24652 203.833 -0.937502 86.1667 35.2535 0Z" sodipodi:nodetypes="csccc"/><path id="shape3" transform="translate(34.7499996051203, 274.874998770994)" fill="currentColor" class="uniform-color" fill-rule="evenodd" stroke-opacity="0" stroke="#000000" stroke-width="0" stroke-linecap="square" stroke-linejoin="bevel" d="M102.75 0C62.0075 51.6185 36.7575 84.2435 27 97.875C15.6425 113.742 6.64249 160.158 0 237.125L142.5 237.125C142.723 222.888 157.708 133.145 102.75 0Z" sodipodi:nodetypes="csccc"/><circle id="shape04" transform="matrix(0.992823206717839 -0.119591304878359 0.119591304878359 0.992823206717839 135.135049304366 357.951923495307)" r="11.5" cx="11.5" cy="11.5" fill="#9e8940" fill-rule="evenodd" stroke-opacity="0" stroke="#000000" stroke-width="0" stroke-linecap="square" stroke-linejoin="bevel"/><circle id="shape05" transform="matrix(0.992823206717839 -0.119591304878359 0.119591304878359 0.992823206717839 138.500036296069 398.012001705235)" r="11.5" cx="11.5" cy="11.5" fill="#9e8940" fill-rule="evenodd" stroke-opacity="0" stroke="#000000" stroke-width="0" stroke-linecap="square" stroke-linejoin="bevel"/><circle id="shape06" transform="matrix(0.992823206717839 -0.119591304878359 0.119591304878359 0.992823206717839 142.734535302078 435.089186258904)" r="11.5" cx="11.5" cy="11.5" fill="#9e8940" fill-rule="evenodd" stroke-opacity="0" stroke="#000000" stroke-width="0" stroke-linecap="square" stroke-linejoin="bevel"/><circle id="shape012" transform="matrix(0.992823206717839 -0.119591304878359 0.119591304878359 0.992823206717839 147.499063569585 474.225260143191)" r="11.5" cx="11.5" cy="11.5" fill="#9e8940" fill-rule="evenodd" stroke-opacity="0" stroke="#000000" stroke-width="0" stroke-linecap="square" stroke-linejoin="bevel"/><path id="shape4" transform="translate(346.49998426572, 482.499980580368)" fill="none" stroke="#5e5e5e" stroke-width="3" stroke-linecap="square" stroke-linejoin="miter" stroke-miterlimit="2" d="M0 1L17.5 0" sodipodi:nodetypes="cc"/><path id="shape07" transform="translate(116.999999351425, 428.999997719356)" fill="#444444" fill-rule="evenodd" stroke-opacity="0" stroke="#000000" stroke-width="0" stroke-linecap="square" stroke-linejoin="bevel" d="M17 0L0 83L24 83Z" sodipodi:nodetypes="cccc"/><path id="shape12" transform="translate(365.999998027695, 422.999997751253)" fill="#444444" fill-rule="evenodd" stroke-opacity="0" stroke="#000000" stroke-width="0" stroke-linecap="square" stroke-linejoin="bevel" d="M19 89L5 0L0 89Z" sodipodi:nodetypes="cccc"/><path id="shape41" transform="translate(347.319984344737, 446.169981906091)" fill="none" stroke="#5e5e5e" stroke-width="3" stroke-linecap="square" stroke-linejoin="miter" stroke-miterlimit="2" d="M0 1L17.5 0" sodipodi:nodetypes="cc"/><path id="shape42" transform="translate(350.069984248161, 405.16998334595)" fill="none" stroke="#5e5e5e" stroke-width="3" stroke-linecap="square" stroke-linejoin="miter" stroke-miterlimit="2" d="M0 1L17.5 0" sodipodi:nodetypes="cc"/><path id="shape43" transform="translate(355.889984151585, 366.83998474191)" fill="none" stroke="#5e5e5e" stroke-width="3" stroke-linecap="square" stroke-linejoin="miter" stroke-miterlimit="2" d="M0 1L17.5 0" sodipodi:nodetypes="cc"/><path id="shape5" transform="translate(199.37498673181, 321.281229172896)" fill="none" stroke="#494949" stroke-width="4" stroke-linecap="square" stroke-linejoin="miter" stroke-miterlimit="2" d="M1.03125 0L0 190.719" sodipodi:nodetypes="cc"/>
</svg>
