<?xml version="1.0" standalone="no"?>
<!DOCTYPE svg PUBLIC "-//W3C//DTD SVG 20010904//EN" "http://www.w3.org/TR/2001/REC-SVG-20010904/DTD/svg10.dtd">
<!-- Created using Krita: https://krita.org -->
<svg xmlns="http://www.w3.org/2000/svg" 
    xmlns:xlink="http://www.w3.org/1999/xlink"
    xmlns:krita="http://krita.org/namespaces/svg/krita"
    xmlns:sodipodi="http://sodipodi.sourceforge.net/DTD/sodipodi-0.dtd"
    width="512pt"
    height="512pt"
    viewBox="0 0 512 512">
<defs/>
<path id="shape1" transform="translate(37.5624966915116, 276.374979608001)" fill="#ffffff" fill-rule="evenodd" stroke-opacity="0" stroke="#000000" stroke-width="0" stroke-linecap="square" stroke-linejoin="bevel" d="M0 235.625L456.375 235.625C460.639 105.319 461.13 109.953 343.937 4.375L231.312 35.625L228.448 57.8331L190.453 57.6789L187.437 35.625L102.187 0C-14.9187 120.298 10.289 135.628 0 235.625Z" sodipodi:nodetypes="ccccccccc"/><path id="shape11" transform="translate(138.655186732947, 275.624394602368)" fill="#000000" fill-rule="evenodd" stroke-opacity="0" stroke="#000000" stroke-width="0" stroke-linecap="square" stroke-linejoin="bevel" d="M86.7272 58.249L86.4374 38.4053L0 2.37842L0.0570638 0L89.8706 35.8845L89.5285 58.2881L126.659 58.2614L130.206 36.0207L243.3 4.07826L243.093 7.79676L133.775 38.7872L130.583 58.5974L176.345 60.3756L174.345 236.376L170.782 236.376L173.564 64.9694L86.4459 62.8115Z" sodipodi:nodetypes="cccccccccccccccccc"/><ellipse id="shape0" transform="translate(282.49999996787, 356.999999994412)" rx="8.83999945953716" ry="8.49999948032419" cx="8.83999945953716" cy="8.49999948032419" fill="#464646" fill-rule="evenodd" stroke="#a7a7a7" stroke-width="1" stroke-linecap="square" stroke-linejoin="bevel"/><ellipse id="shape01" transform="translate(210.347126947748, 356.71112678144)" rx="8.83999945953716" ry="8.49999948032419" cx="8.83999945953716" cy="8.49999948032419" fill="#464646" fill-rule="evenodd" stroke="#a7a7a7" stroke-width="1" stroke-linecap="square" stroke-linejoin="bevel"/><ellipse id="shape02" transform="translate(283.236437050524, 398.384450593274)" rx="8.83999945953716" ry="8.49999948032419" cx="8.83999945953716" cy="8.49999948032419" fill="#464646" fill-rule="evenodd" stroke="#a7a7a7" stroke-width="1" stroke-linecap="square" stroke-linejoin="bevel"/><ellipse id="shape011" transform="translate(211.083564030402, 398.095577380302)" rx="8.83999945953716" ry="8.49999948032419" cx="8.83999945953716" cy="8.49999948032419" fill="#464646" fill-rule="evenodd" stroke="#a7a7a7" stroke-width="1" stroke-linecap="square" stroke-linejoin="bevel"/><ellipse id="shape03" transform="translate(283.236437050524, 437.38445048431)" rx="8.83999945953716" ry="8.49999948032419" cx="8.83999945953716" cy="8.49999948032419" fill="#464646" fill-rule="evenodd" stroke="#a7a7a7" stroke-width="1" stroke-linecap="square" stroke-linejoin="bevel"/><ellipse id="shape012" transform="translate(211.083564030402, 437.095577271338)" rx="8.83999945953716" ry="8.49999948032419" cx="8.83999945953716" cy="8.49999948032419" fill="#464646" fill-rule="evenodd" stroke="#a7a7a7" stroke-width="1" stroke-linecap="square" stroke-linejoin="bevel"/><ellipse id="shape04" transform="translate(283.236437050524, 476.384450375345)" rx="8.83999945953716" ry="8.49999948032419" cx="8.83999945953716" cy="8.49999948032419" fill="#464646" fill-rule="evenodd" stroke="#a7a7a7" stroke-width="1" stroke-linecap="square" stroke-linejoin="bevel"/><ellipse id="shape013" transform="translate(211.083564030402, 476.095577162373)" rx="8.83999945953716" ry="8.49999948032419" cx="8.83999945953716" cy="8.49999948032419" fill="#464646" fill-rule="evenodd" stroke="#a7a7a7" stroke-width="1" stroke-linecap="square" stroke-linejoin="bevel"/>
</svg>
