<?xml version="1.0" standalone="no"?>
<!DOCTYPE svg PUBLIC "-//W3C//DTD SVG 20010904//EN" "http://www.w3.org/TR/2001/REC-SVG-20010904/DTD/svg10.dtd">
<!-- Created using Krita: https://krita.org -->
<svg xmlns="http://www.w3.org/2000/svg" 
    xmlns:xlink="http://www.w3.org/1999/xlink"
    xmlns:krita="http://krita.org/namespaces/svg/krita"
    xmlns:sodipodi="http://sodipodi.sourceforge.net/DTD/sodipodi-0.dtd"
    width="512pt"
    height="512pt"
    viewBox="0 0 512 512">
    <style>
        .uniform-color {
            color: #CE3C34;
        }
        .uniform-undershirt-color {
            color: #5E5E5E;
        }
    </style>
<defs/>
<path id="shape0" transform="translate(40.5097319604859, 276.211334568398)" fill="currentColor" class="uniform-undershirt-color" fill-rule="evenodd" stroke-opacity="0" stroke="#000000" stroke-width="0" stroke-linecap="square" stroke-linejoin="bevel" d="M336.379 3.03742C302.825 14.4461 127.026 4.31268 98.5515 0C49.7583 60.4924 23.1475 94.5251 18.719 102.098C10.243 116.592 4.07237 138.052 0.206965 166.478C-2.51292 186.48 21.5752 209.583 72.4715 235.789L351.783 235.789C421.635 211.525 456.052 189.866 455.035 170.813C453.667 145.197 449.104 124.203 441.346 107.83C432.701 89.5836 370.118 36.2184 336.379 3.03742Z" sodipodi:nodetypes="ccsccccsc"/><path id="shape1" transform="translate(77.4999967286794, 340.124987114293)" fill="none" stroke="#a3a3a3" stroke-width="3" stroke-linecap="square" stroke-linejoin="miter" stroke-miterlimit="2" d="M11.625 0L0 150.375" sodipodi:nodetypes="cc"/><path id="shape2" transform="translate(117.999995112431, 297.249989567228)" fill="none" stroke="#a3a3a3" stroke-width="3" stroke-linecap="square" stroke-linejoin="miter" stroke-miterlimit="2" d="M6.25 0L0 214.75" sodipodi:nodetypes="cc"/><path id="shape3" transform="translate(95.9999959912484, 321.624988173666)" fill="none" stroke="#a3a3a3" stroke-width="3" stroke-linecap="square" stroke-linejoin="miter" stroke-miterlimit="2" d="M8.25 0L0 180.125" sodipodi:nodetypes="cc"/><path id="shape4" transform="translate(56.2499975857754, 368.124985447617)" fill="none" stroke="#a3a3a3" stroke-width="3" stroke-linecap="square" stroke-linejoin="miter" stroke-miterlimit="2" d="M11 0L0 105.625" sodipodi:nodetypes="cc"/><path id="shape5" transform="translate(140.999994198496, 278.499990617646)" fill="none" stroke="#a3a3a3" stroke-width="3" stroke-linecap="square" stroke-linejoin="miter" stroke-miterlimit="2" d="M9.125 0L0 233.5" sodipodi:nodetypes="cc"/><path id="shape6" transform="translate(167.999993125615, 279.999990356565)" fill="none" stroke="#a3a3a3" stroke-width="3" stroke-linecap="square" stroke-linejoin="miter" stroke-miterlimit="2" d="M0.625 0L0 232" sodipodi:nodetypes="cc"/><path id="shape7" transform="translate(189.999992251415, 281.249990102271)" fill="none" stroke="#a3a3a3" stroke-width="3" stroke-linecap="square" stroke-linejoin="miter" stroke-miterlimit="2" d="M0 230.75L3.25 0" sodipodi:nodetypes="cc"/><path id="shape8" transform="translate(215.874991226386, 283.374989687177)" fill="none" stroke="#a3a3a3" stroke-width="3" stroke-linecap="square" stroke-linejoin="miter" stroke-miterlimit="2" d="M0 0L1.125 228.625" sodipodi:nodetypes="cc"/><path id="shape9" transform="translate(234.249990486787, 284.124989677418)" fill="none" stroke="#a3a3a3" stroke-width="3" stroke-linecap="square" stroke-linejoin="miter" stroke-miterlimit="2" d="M0 0L3.75 227.875" sodipodi:nodetypes="cc"/><path id="shape10" transform="translate(259.999989469872, 284.781238427597)" fill="none" stroke="#a3a3a3" stroke-width="3" stroke-linecap="square" stroke-linejoin="miter" stroke-miterlimit="2" d="M0.25 0L0 227.219" sodipodi:nodetypes="cc"/><path id="shape11" transform="translate(279.999988645343, 284.999988397669)" fill="none" stroke="#a3a3a3" stroke-width="3" stroke-linecap="square" stroke-linejoin="miter" stroke-miterlimit="2" d="M0 0L7 227" sodipodi:nodetypes="cc"/><path id="shape12" transform="translate(302.249987858068, 285.406238360314)" fill="none" stroke="#a3a3a3" stroke-width="3" stroke-linecap="square" stroke-linejoin="miter" stroke-miterlimit="2" d="M0 0L11.75 226.594" sodipodi:nodetypes="cc"/><path id="shape13" transform="translate(321.749987157715, 285.874988416465)" fill="none" stroke="#a3a3a3" stroke-width="3" stroke-linecap="square" stroke-linejoin="miter" stroke-miterlimit="2" d="M0 0L15.25 226.125" sodipodi:nodetypes="cc"/><path id="shape14" transform="translate(343.74998634312, 285.249988315005)" fill="none" stroke="#a3a3a3" stroke-width="3" stroke-linecap="square" stroke-linejoin="miter" stroke-miterlimit="2" d="M0 0L16.25 226.75" sodipodi:nodetypes="cc"/><path id="shape15" transform="translate(363.249985262051, 283.499986520423)" fill="none" stroke="#a3a3a3" stroke-width="3" stroke-linecap="square" stroke-linejoin="miter" stroke-miterlimit="2" d="M0 0L21.75 228.5" sodipodi:nodetypes="cc"/><path id="shape16" transform="translate(391.249984159824, 293.74998621922)" fill="none" stroke="#a3a3a3" stroke-width="3" stroke-linecap="square" stroke-linejoin="miter" stroke-miterlimit="2" d="M0 0L17.75 210.5" sodipodi:nodetypes="cc"/><path id="shape17" transform="translate(411.749983293599, 313.749985906375)" fill="none" stroke="#a3a3a3" stroke-width="3" stroke-linecap="square" stroke-linejoin="miter" stroke-miterlimit="2" d="M0 0L19.75 182" sodipodi:nodetypes="cc"/><path id="shape18" transform="translate(436.999982309251, 336.749985485866)" fill="none" stroke="#a3a3a3" stroke-width="3" stroke-linecap="square" stroke-linejoin="miter" stroke-miterlimit="2" d="M0 0L18.25 149.25" sodipodi:nodetypes="cc"/><path id="shape19" transform="translate(461.2499814127, 360.999985104462)" fill="none" stroke="#a3a3a3" stroke-width="3" stroke-linecap="square" stroke-linejoin="miter" stroke-miterlimit="2" d="M0 0L14.75 111.5" sodipodi:nodetypes="cc"/><path id="shape01" transform="translate(122.062501779849, 273.900455439567)" fill="currentColor" class="uniform-color" fill-rule="evenodd" stroke-opacity="0" stroke="#000000" stroke-width="0" stroke-linecap="square" stroke-linejoin="bevel" d="M17.362 0L0 24.537C31.7929 48.5074 59.7017 47.3475 76.9704 52.6951C80.3307 53.7356 104.49 132.991 108.159 133.696C111.771 134.391 101.263 64.7914 98.7209 56.885C111.244 104.709 115.82 194.617 125 191.608C140.581 105.111 146.452 160.868 149.935 51.0046C166.873 44.6905 179.907 70.3968 272.625 19.287L257.5 4.66203C199.92 38.0951 44.6714 40.4958 17.362 0Z" sodipodi:nodetypes="cccccccccc"/><path id="shape20" transform="translate(116.999999351425, 428.999997719356)" fill="#444444" fill-rule="evenodd" d="M17 0L0 83L24 83Z" sodipodi:nodetypes="cccc"/><path id="shape21" transform="translate(365.999998027695, 422.999997751253)" fill="#444444" fill-rule="evenodd" d="M19 89L5 0L0 89Z" sodipodi:nodetypes="cccc"/>
</svg>
