<?xml version="1.0" standalone="no"?>
<!DOCTYPE svg PUBLIC "-//W3C//DTD SVG 20010904//EN" "http://www.w3.org/TR/2001/REC-SVG-20010904/DTD/svg10.dtd">
<!-- Created using Krita: https://krita.org -->
<svg xmlns="http://www.w3.org/2000/svg" 
    xmlns:xlink="http://www.w3.org/1999/xlink"
    xmlns:krita="http://krita.org/namespaces/svg/krita"
    xmlns:sodipodi="http://sodipodi.sourceforge.net/DTD/sodipodi-0.dtd"
    width="512pt"
    height="512pt"
    viewBox="0 0 512 512">
<defs/>
<path id="shape0" transform="translate(74.4923674901829, 255.854958799693)" fill="#666666" fill-rule="evenodd" stroke="#606060" stroke-width="2" stroke-linecap="square" stroke-linejoin="bevel" d="M114.633 5.05129C119.649 5.24296 118.858 57.743 114.508 57.5513C111.783 60.0013 81.4076 60.7513 23.3826 59.8013C6.62011 59.6902 -1.12989 57.0652 0.132649 51.9263L0.507649 9.17629C0.465782 2.6014 9.34078 -0.440269 27.1326 0.0512912C83.7576 0.367963 112.924 2.03463 114.633 5.05129Z" sodipodi:nodetypes="ccccccc"/><rect id="shape1" transform="translate(79.1250127180985, 263.906250000289)" fill="#ff8200" fill-rule="evenodd" stroke-opacity="0" stroke="#000000" stroke-width="0" stroke-linecap="square" stroke-linejoin="bevel" width="8" height="44" rx="4" ry="6"/><g id="group0" transform="translate(111.776026782765, 189.54982148066)" fill="none">
  <path id="shape01" transform="translate(-1.57178874360397e-07, 9.68715426097333e-07)" fill="#b19079" fill-rule="evenodd" stroke="#555451" stroke-width="2" stroke-linecap="square" stroke-linejoin="bevel" d="M3.60943 69.1809C4.11568 69.16 25.6157 69.2226 26.8594 69.1809C31.6344 68.9975 31.3532 33.1017 29.4844 24.3059C28.6219 23.2184 21.2469 15.4684 7.35943 1.05586C5.59693 -0.444144 3.72193 -0.256644 1.35943 1.05586C0.32818 4.53503 -1.98432 70.1809 3.60943 69.1809Z" sodipodi:nodetypes="cccccc"/>
  <path id="shape11" transform="translate(0.328170278102618, 10.6808505465498)" fill="#533b1c" fill-rule="evenodd" stroke="#555451" stroke-width="2" stroke-linecap="square" stroke-linejoin="bevel" d="M15.25 0L14.75 23.75L0 23.75L2.23518e-08 33.3125L30.1562 32.625L30 13.25Z" sodipodi:nodetypes="ccccccc"/>
 </g><g id="group1" transform="translate(63.3749979157791, 373.249987754687)" fill="none">
  <path id="shape2" fill="#95745c" fill-rule="evenodd" stroke="#555451" stroke-width="2" stroke-linecap="square" stroke-linejoin="bevel" d="M77.25 0L0 63.75L0 70.875L53.625 70.125L53.5312 62.4375L126.75 1.875L149.625 2.625L171.375 27.75L180.375 70.875L52.875 69.75L53.25 62.4375L126.875 2Z" sodipodi:nodetypes="ccccccccccccc"/>
  <path id="shape3" transform="translate(1.40624995375268, 63.1874979219467)" fill="none" stroke="#555451" stroke-width="2" stroke-linecap="square" stroke-linejoin="miter" stroke-miterlimit="2" d="M0 0.28125L52.0312 0" sodipodi:nodetypes="cc"/>
  <path id="shape4" transform="translate(23.4374992292085, 52.3749982775386)" fill="none" stroke="#555451" stroke-width="2" stroke-linecap="square" stroke-linejoin="miter" stroke-miterlimit="2" d="M0 0L28.125 0.1875" sodipodi:nodetypes="cc"/>
  <path id="shape02" transform="translate(38.0049988715612, 41.0237486804056)" fill="none" stroke="#555451" stroke-width="2" stroke-linecap="square" stroke-linejoin="miter" stroke-miterlimit="2" d="M0 0L28.125 0.1875" sodipodi:nodetypes="cc"/>
  <path id="shape03" transform="translate(53.7549983535892, 28.3987490956053)" fill="none" stroke="#555451" stroke-width="2" stroke-linecap="square" stroke-linejoin="miter" stroke-miterlimit="2" d="M0 0L28.125 0.1875" sodipodi:nodetypes="cc"/>
  <path id="shape04" transform="translate(67.9474980082742, 16.0474995313597)" fill="none" stroke="#555451" stroke-width="2" stroke-linecap="square" stroke-linejoin="miter" stroke-miterlimit="2" d="M0 0L28.125 0.1875" sodipodi:nodetypes="cc"/>
 </g><path id="shape5" transform="translate(167.624989491682, 173.499989123382)" fill="#95745c" fill-rule="evenodd" stroke="#bf9f89" stroke-width="2" stroke-linecap="square" stroke-linejoin="bevel" d="M1.125 0L143.625 2.25L213.375 71.625L213 150.375L148.125 213.75L0 212.25Z" sodipodi:nodetypes="ccccccc"/><path id="shape6" transform="translate(107.249993276557, 174.74998904502)" fill="#95745c" fill-rule="evenodd" stroke="#bf9f89" stroke-width="2" stroke-linecap="square" stroke-linejoin="bevel" d="M0 66.75L62.25 0L156.75 0.75L219 67.125L218.625 153L154.875 213.75L60 210.75L1.125 153Z" sodipodi:nodetypes="ccccccccc"/><path id="shape05" transform="matrix(1.02643075335749 -0.781665302073658 0.739846104384862 0.971516571450425 224.602446856138 220.786445157329)" fill="#393939" fill-rule="evenodd" stroke-opacity="0" stroke="#000000" stroke-width="0" stroke-linecap="square" stroke-linejoin="bevel" d="M6.3827 4.36751L31.4278 0C34.1892 1.69088e-16 36.4278 2.23858 36.4278 5L37.0966 38.1407C37.0966 40.9022 34.858 43.1407 32.0966 43.1407L5 30.4179C2.23858 30.4179 0 28.1793 0 25.4179L1.3827 9.36751C1.3827 6.60608 3.62128 4.36751 6.3827 4.36751Z" sodipodi:nodetypes="ccccccccc"/><path id="shape06" transform="matrix(1.09088877138126 0.688855880702366 0.65443242836804 -1.03637496279562 217.248720572247 347.787599842312)" fill="#393939" fill-rule="evenodd" stroke-opacity="0" stroke="#000000" stroke-width="0" stroke-linecap="square" stroke-linejoin="bevel" d="M6.3827 4.36751L31.4278 0C34.1892 1.69088e-16 36.4278 2.23858 36.4278 5L37.0966 38.1407C37.0966 40.9022 34.858 43.1407 32.0966 43.1407L5 30.4179C2.23858 30.4179 0 28.1793 0 25.4179L1.3827 9.36751C1.3827 6.60608 3.62128 4.36751 6.3827 4.36751Z" sodipodi:nodetypes="ccccccccc"/><path id="shape07" transform="matrix(0.751879674520993 0 0 -0.659574446393628 162.749994647628 379.499987519353)" fill="#bd9177" fill-rule="evenodd" stroke="#666666" stroke-width="2" stroke-linecap="square" stroke-linejoin="bevel" d="M17.25 52.5L37.6875 8.25L72.9375 2.25L36.75 0L11.8125 6.1875L0 52.875L19.125 52.875L74.8125 10.6875L72.375 2.4375L38.25 8.4375Z" sodipodi:nodetypes="ccccccccccc"/><path id="shape08" transform="matrix(-0.176462079367893 0.159112989464119 0.678415195667077 0.752387071007716 125.185433294456 328.176903325991)" fill="#393939" fill-rule="evenodd" stroke-opacity="0" stroke="#000000" stroke-width="0" stroke-linecap="square" stroke-linejoin="bevel" d="M6.3827 4.36751L31.4278 0C34.1892 1.69088e-16 36.4278 2.23858 36.4278 5L37.0966 38.1407C37.0966 40.9022 34.858 43.1407 32.0966 43.1407L5 30.4179C2.23858 30.4179 0 28.1793 0 25.4179L1.3827 9.36751C1.3827 6.60608 3.62128 4.36751 6.3827 4.36751Z" sodipodi:nodetypes="ccccccccc"/><path id="shape09" transform="matrix(-0.00511444375393865 -0.511788459598925 0.750452840624865 -0.0074994829824148 113.230732476962 253.739073071267)" fill="#393939" fill-rule="evenodd" stroke-opacity="0" stroke="#000000" stroke-width="0" stroke-linecap="square" stroke-linejoin="bevel" d="M2.63445 2.27771L22.703 0C25.4644 0 32.6795 0.148778 32.6795 2.9102L78.5969 35.8596C78.5969 38.6211 76.3583 40.8596 73.5969 40.8596L18.8665 26.3244C16.1051 26.3244 11.6814 23.1965 11.6814 20.4351L0.000919179 8.29323C0.000919179 5.5318 -0.126975 2.27771 2.63445 2.27771Z" sodipodi:nodetypes="ccccccccc"/><g id="group01" transform="translate(171.492436135791, 375.023614755761)" fill="none">
  <path id="shape010" fill="#95745c" fill-rule="evenodd" stroke="#555451" stroke-width="2" stroke-linecap="square" stroke-linejoin="bevel" d="M77.25 0L0 63.75L0 70.875L53.625 70.125L53.5312 62.4375L126.75 1.875L149.625 2.625L171.375 27.75L180.375 70.875L52.875 69.75L53.25 62.4375L126.875 2Z" sodipodi:nodetypes="ccccccccccccc"/>
  <path id="shape12" transform="translate(1.40624995375268, 63.1874979219467)" fill="none" stroke="#555451" stroke-width="2" stroke-linecap="square" stroke-linejoin="miter" stroke-miterlimit="2" d="M0 0.28125L52.0312 0" sodipodi:nodetypes="cc"/>
  <path id="shape21" transform="translate(23.4374992292085, 52.3749982775386)" fill="none" stroke="#555451" stroke-width="2" stroke-linecap="square" stroke-linejoin="miter" stroke-miterlimit="2" d="M0 0L28.125 0.1875" sodipodi:nodetypes="cc"/>
  <path id="shape011" transform="translate(38.0049988715612, 41.0237486804056)" fill="none" stroke="#555451" stroke-width="2" stroke-linecap="square" stroke-linejoin="miter" stroke-miterlimit="2" d="M0 0L28.125 0.1875" sodipodi:nodetypes="cc"/>
  <path id="shape021" transform="translate(53.7549983535892, 28.3987490956053)" fill="none" stroke="#555451" stroke-width="2" stroke-linecap="square" stroke-linejoin="miter" stroke-miterlimit="2" d="M0 0L28.125 0.1875" sodipodi:nodetypes="cc"/>
  <path id="shape031" transform="translate(67.9474980082742, 16.0474995313597)" fill="none" stroke="#555451" stroke-width="2" stroke-linecap="square" stroke-linejoin="miter" stroke-miterlimit="2" d="M0 0L28.125 0.1875" sodipodi:nodetypes="cc"/>
 </g>
</svg>
