<?xml version="1.0" standalone="no"?>
<!DOCTYPE svg PUBLIC "-//W3C//DTD SVG 20010904//EN" "http://www.w3.org/TR/2001/REC-SVG-20010904/DTD/svg10.dtd">
<!-- Created using Krita: https://krita.org -->
<svg xmlns="http://www.w3.org/2000/svg" 
    xmlns:xlink="http://www.w3.org/1999/xlink"
    xmlns:krita="http://krita.org/namespaces/svg/krita"
    xmlns:sodipodi="http://sodipodi.sourceforge.net/DTD/sodipodi-0.dtd"
    width="512pt"
    height="512pt"
    viewBox="0 0 512 512">
<defs>
  <marker id="lineMarker0" markerUnits="strokeWidth" refX="0" refY="0" markerWidth="3" markerHeight="3" orient="auto">
      <defs/>
   <g id="Arrow1Send" fill="none">
     <path id="path4157" transform="matrix(-0.2 0 0 -0.2 1.3 1)" fill="#292929" fill-rule="evenodd" stroke="#292929" stroke-width="2.8" stroke-linecap="butt" stroke-linejoin="miter" stroke-miterlimit="2" d="M12.5 5L17.5 0L0 5L17.5 10Z" sodipodi:nodetypes="ccccc"/>
    </g>
  </marker>
 </defs>
<path id="shape0" transform="translate(40.4999983906851, 319.499987304294)" fill="#000000" fill-rule="evenodd" d="M0 192.5L26 47L162 7L205.5 33L257 0L445.5 58.5L458.5 192.5Z" sodipodi:nodetypes="cccccccc"/><path id="shape1" transform="translate(47.124997959795, 322.999987165217)" fill="#292929" fill-rule="evenodd" d="M178.187 17.3125L44 67.25L38 128.125L0 149.375L16.875 40.5L153.375 0Z" sodipodi:nodetypes="ccccccc"/><path id="shape2" transform="translate(266.406239414036, 318.999987324162)" fill="#292929" fill-rule="evenodd" d="M29.5937 0L220.094 58.5L230.906 168.125L183.656 150L182.531 72.875L0 19.8437Z" sodipodi:nodetypes="ccccccc"/><path id="shape3" transform="translate(144.249996153053, 357.687485306307)" fill="none" stroke="#292929" stroke-width="5" stroke-linecap="square" stroke-linejoin="miter" stroke-miterlimit="2" d="M21.3125 0L0 141.875" sodipodi:nodetypes="cc"/><path id="shape4" transform="translate(350.312483855926, 359.249985165988)" fill="none" stroke="#292929" stroke-width="5" stroke-linecap="square" stroke-linejoin="miter" stroke-miterlimit="2" d="M0 0L2.6875 142.5" sodipodi:nodetypes="cc"/><path id="shape5" transform="translate(98.9999960661192, 492.999980410068)" fill="none" stroke="#292929" stroke-width="5" stroke-linecap="square" stroke-linejoin="miter" stroke-miterlimit="2" d="M0 0C107.802 18.4508 219.387 14.9177 332.5 2.5" sodipodi:nodetypes="cc"/><path id="shape01" transform="translate(238.868739720745, 362.874986545584)" fill="none" stroke="#292929" stroke-width="5" stroke-linecap="square" stroke-linejoin="miter" stroke-miterlimit="2" marker-start="url(#lineMarker0)" krita:marker-fill-method="auto" d="M6.5625 0L0 143" sodipodi:nodetypes="cc"/>
</svg>
