<?xml version="1.0" standalone="no"?>
<!DOCTYPE svg PUBLIC "-//W3C//DTD SVG 20010904//EN" "http://www.w3.org/TR/2001/REC-SVG-20010904/DTD/svg10.dtd">
<!-- Created using Krita: https://krita.org -->
<svg xmlns="http://www.w3.org/2000/svg" 
    xmlns:xlink="http://www.w3.org/1999/xlink"
    xmlns:krita="http://krita.org/namespaces/svg/krita"
    xmlns:sodipodi="http://sodipodi.sourceforge.net/DTD/sodipodi-0.dtd"
    width="512pt"
    height="512pt"
    viewBox="0 0 512 512">
<defs/>
<path id="shape0" transform="translate(40.4999987655042, 273.999989487434)" fill="#3f371f" fill-rule="evenodd" d="M0 238L27 95L160.5 54L159.75 0L257 1.625L254.5 47L445 106L458.5 238Z" sodipodi:nodetypes="ccccccccc"/><path id="shape1" transform="translate(109.124999925899, 371.249999747902)" fill="#463a27" fill-rule="evenodd" stroke="#232114" stroke-width="3.03" stroke-linecap="square" stroke-linejoin="bevel" d="M0 59.375L333.75 0L330.25 18.375L-2.84217e-14 78.125Z" sodipodi:nodetypes="ccccc"/><path id="shape2" transform="translate(308.499999194468, 439.375001042746)" fill="#463a27" fill-rule="evenodd" stroke="#232114" stroke-width="3.03" stroke-linecap="square" stroke-linejoin="bevel" d="M0 72.625L123.125 0L120.5 22.625L42.4889 72.625Z" sodipodi:nodetypes="ccccc"/><path id="shape01" transform="translate(99.9875000303676, 402.650000268301)" fill="#463a27" fill-rule="evenodd" stroke="#232114" stroke-width="3.03" stroke-linecap="square" stroke-linejoin="bevel" d="M2.625 96.375L337.5 0L336.5 20.375L0 114.6Z" sodipodi:nodetypes="ccccc"/><path id="shape3" transform="translate(173.999996525359, 320.937490435313)" fill="#4f412c" fill-rule="evenodd" stroke="#232114" stroke-width="3" stroke-linecap="square" stroke-linejoin="bevel" d="M0 14.6875L50 70.3125L13.375 196.688L66.75 191.063L98.0754 66.7122L149 8.1875L122.375 0L87.9763 21.9463L60.25 22.0625L26.625 6.25Z" sodipodi:nodetypes="ccccccccccc"/><path id="shape4" transform="translate(429.49998690825, 364.374989128043)" fill="#40321d" fill-rule="evenodd" stroke="#232114" stroke-width="4" stroke-linecap="square" stroke-linejoin="bevel" d="M13.5 0L0 96.625L64.5 87.625L57.25 10.5Z" sodipodi:nodetypes="ccccc"/><path id="shape5" transform="translate(51.9999987725965, 347.999989571296)" fill="#40321d" fill-rule="evenodd" stroke="#232114" stroke-width="4" stroke-linecap="square" stroke-linejoin="bevel" d="M63.5 0L56.5 105.5L0 91.375L4.625 22.125Z" sodipodi:nodetypes="ccccc"/>
</svg>
