<?xml version="1.0" standalone="no"?>
<!DOCTYPE svg PUBLIC "-//W3C//DTD SVG 20010904//EN" "http://www.w3.org/TR/2001/REC-SVG-20010904/DTD/svg10.dtd">
<!-- Created using Krita: https://krita.org -->
<svg xmlns="http://www.w3.org/2000/svg" 
    xmlns:xlink="http://www.w3.org/1999/xlink"
    xmlns:krita="http://krita.org/namespaces/svg/krita"
    xmlns:sodipodi="http://sodipodi.sourceforge.net/DTD/sodipodi-0.dtd"
    width="512pt"
    height="512pt"
    viewBox="0 0 512 512">
<defs/>
<path id="shape01" transform="translate(38.9999973654754, 317.247908765834)" fill="#3b3e41" fill-rule="evenodd" stroke-opacity="0" stroke="#000000" stroke-width="0" stroke-linecap="square" stroke-linejoin="bevel" d="M208.641 0.108747C218.224 -0.443546 234.181 1.10785 256.51 4.76295L444.75 57.877L461.25 202.627C307.5 203.127 153.75 203.627 0 204.127L29.25 52.627L164.25 11.5645C184.958 4.43945 199.755 0.620854 208.641 0.108747Z" sodipodi:nodetypes="cccccccs"/><g id="group0" transform="translate(52.7066630707828, 379.209973072508)" fill="none">
  <path id="shape18" transform="matrix(-0.986397150027506 0 0 1 192.663791950222 109.999992481436)" fill="none" stroke-opacity="0.431372549019608" stroke="#57575c" stroke-width="9" stroke-linecap="square" stroke-linejoin="miter" stroke-miterlimit="2" d="M0 0L0.375 16.125" sodipodi:nodetypes="cc"/>
  <path id="shape14" transform="matrix(-0.986397150027506 0 0 1 193.403589760723 40.9999973331592)" fill="none" stroke-opacity="0.431372549019608" stroke="#57575c" stroke-width="9" stroke-linecap="square" stroke-linejoin="miter" stroke-miterlimit="2" d="M0.375 0L0 27.375" sodipodi:nodetypes="cc"/>
  <path id="shape16" transform="matrix(-0.986397150027506 0 0 1 194.513286476476 84.8749942480965)" fill="none" stroke-opacity="0.431372549019608" stroke="#57575c" stroke-width="9" stroke-linecap="square" stroke-linejoin="miter" stroke-miterlimit="2" d="M0 0L2.625 11.25" sodipodi:nodetypes="cc"/>
  <path id="shape0" transform="matrix(-0.986397150027506 0 0 1 91.6813908167155 21.4999987042982)" fill="none" stroke-opacity="0.431372549019608" stroke="#57575c" stroke-width="9" stroke-linecap="square" stroke-linejoin="miter" stroke-miterlimit="2" d="M2.625 0L0 13.125" sodipodi:nodetypes="cc"/>
  <path id="shape1" transform="matrix(-0.986397150027506 0 0 1 106.107448121502 28.6249982033051)" fill="none" stroke-opacity="0.431372549019608" stroke="#57575c" stroke-width="9" stroke-linecap="square" stroke-linejoin="miter" stroke-miterlimit="2" d="M3.75 0L0 21.75" sodipodi:nodetypes="cc"/>
  <path id="shape4" transform="matrix(-0.986397150027506 0 0 1 117.944213089532 64.6249956719715)" fill="none" stroke-opacity="0.431372549019608" stroke="#57575c" stroke-width="9" stroke-linecap="square" stroke-linejoin="miter" stroke-miterlimit="2" d="M5.625 0L0 22.875" sodipodi:nodetypes="cc"/>
  <path id="shape5" transform="matrix(-0.986397150027506 0 0 1 126.081989005053 44.7499970694786)" fill="none" stroke-opacity="0.431372549019608" stroke="#57575c" stroke-width="9" stroke-linecap="square" stroke-linejoin="miter" stroke-miterlimit="2" d="M8.625 0L0 26.25" sodipodi:nodetypes="cc"/>
  <path id="shape6" transform="matrix(-0.986397150027506 0 0 1 117.20441527903 19.6249988361385)" fill="none" stroke-opacity="0.431372549019608" stroke="#57575c" stroke-width="9" stroke-linecap="square" stroke-linejoin="miter" stroke-miterlimit="2" d="M1.875 0L0 10.5" sodipodi:nodetypes="cc"/>
  <path id="shape7" transform="matrix(-0.986397150027506 0 0 1 132.370270394319 24.8749984669856)" fill="none" stroke-opacity="0.431372549019608" stroke="#57575c" stroke-width="9" stroke-linecap="square" stroke-linejoin="miter" stroke-miterlimit="2" d="M0.75 0L0 19.125" sodipodi:nodetypes="cc"/>
  <path id="shape8" transform="matrix(-0.986397150027506 0 0 1 149.385620035862 8.7499996008122)" fill="none" stroke-opacity="0.431372549019608" stroke="#57575c" stroke-width="9" stroke-linecap="square" stroke-linejoin="miter" stroke-miterlimit="2" d="M1.125 0L0 14.625" sodipodi:nodetypes="cc"/>
  <path id="shape9" transform="matrix(-0.986397150027506 0 0 1 151.235114562117 37.2499975968397)" fill="none" stroke-opacity="0.431372549019608" stroke="#57575c" stroke-width="9" stroke-linecap="square" stroke-linejoin="miter" stroke-miterlimit="2" d="M1.5 0L0 22.5" sodipodi:nodetypes="cc"/>
  <path id="shape10" transform="matrix(-0.986397150027506 0 0 1 143.837136457098 55.6249963048049)" fill="none" stroke-opacity="0.431372549019608" stroke="#57575c" stroke-width="9" stroke-linecap="square" stroke-linejoin="miter" stroke-miterlimit="2" d="M5.625 0L0 17.625" sodipodi:nodetypes="cc"/>
  <path id="shape11" transform="matrix(-0.986397150027506 0 0 1 166.400969677405 25.2499984406176)" fill="none" stroke-opacity="0.431372549019608" stroke="#57575c" stroke-width="9" stroke-linecap="square" stroke-linejoin="miter" stroke-miterlimit="2" d="M2.25 0L0 13.125" sodipodi:nodetypes="cc"/>
  <path id="shape12" transform="matrix(-0.986397150027506 0 0 1 181.566824792693 15.1249991525553)" fill="none" stroke-opacity="0.431372549019608" stroke="#57575c" stroke-width="9" stroke-linecap="square" stroke-linejoin="miter" stroke-miterlimit="2" d="M3 0L0 12.75" sodipodi:nodetypes="cc"/>
  <path id="shape13" transform="matrix(-0.986397150027506 0 0 1 179.347431361188 31.6249979923607)" fill="none" stroke-opacity="0.431372549019608" stroke="#57575c" stroke-width="9" stroke-linecap="square" stroke-linejoin="miter" stroke-miterlimit="2" d="M6 0L0 22.125" sodipodi:nodetypes="cc"/>
  <path id="shape15" transform="matrix(-0.986397150027506 0 0 1 178.977532455937 67.6249954610271)" fill="none" stroke-opacity="0.431372549019608" stroke="#57575c" stroke-width="9" stroke-linecap="square" stroke-linejoin="miter" stroke-miterlimit="2" d="M1.125 0L0 15" sodipodi:nodetypes="cc"/>
  <path id="shape17" transform="matrix(-0.986397150027506 0 0 1 177.867835740184 94.9999935361587)" fill="none" stroke-opacity="0.431372549019608" stroke="#57575c" stroke-width="9" stroke-linecap="square" stroke-linejoin="miter" stroke-miterlimit="2" d="M0 0L0.75 12" sodipodi:nodetypes="cc"/>
  <path id="shape19" transform="matrix(-0.986397150027506 0 0 1 179.717330266439 122.749991584923)" fill="none" stroke-opacity="0.431372549019608" stroke="#57575c" stroke-width="9" stroke-linecap="square" stroke-linejoin="miter" stroke-miterlimit="2" d="M0 0L3 22.875" sodipodi:nodetypes="cc"/>
  <path id="shape20" transform="matrix(-0.986397150027506 0 0 1 166.400969677405 52.9999964893813)" fill="none" stroke-opacity="0.431372549019608" stroke="#57575c" stroke-width="9" stroke-linecap="square" stroke-linejoin="miter" stroke-miterlimit="2" d="M3 0L0 16.125" sodipodi:nodetypes="cc"/>
  <path id="shape21" transform="matrix(-0.986397150027506 0 0 1 163.071879530147 82.2499944326727)" fill="none" stroke-opacity="0.431372549019608" stroke="#57575c" stroke-width="9" stroke-linecap="square" stroke-linejoin="miter" stroke-miterlimit="2" d="M0 0L3 17.25" sodipodi:nodetypes="cc"/>
  <path id="shape22" transform="matrix(-0.986397150027506 0 0 1 164.181576245899 109.249992534173)" fill="none" stroke-opacity="0.431372549019608" stroke="#57575c" stroke-width="9" stroke-linecap="square" stroke-linejoin="miter" stroke-miterlimit="2" d="M0 0L1.125 13.875" sodipodi:nodetypes="cc"/>
  <path id="shape23" transform="matrix(-0.986397150027506 0 0 1 159.002991572386 134.749990741145)" fill="none" stroke-opacity="0.431372549019608" stroke="#57575c" stroke-width="9" stroke-linecap="square" stroke-linejoin="miter" stroke-miterlimit="2" d="M0 0L7.125 26.25" sodipodi:nodetypes="cc"/>
  <path id="shape24" transform="matrix(-0.986397150027506 0 0 1 153.084609088371 73.6249950391381)" fill="none" stroke-opacity="0.431372549019608" stroke="#57575c" stroke-width="9" stroke-linecap="square" stroke-linejoin="miter" stroke-miterlimit="2" d="M0 0L0.75 12.75" sodipodi:nodetypes="cc"/>
  <path id="shape25" transform="matrix(-0.986397150027506 0 0 1 146.796327699105 96.1249934570546)" fill="none" stroke-opacity="0.431372549019608" stroke="#57575c" stroke-width="9" stroke-linecap="square" stroke-linejoin="miter" stroke-miterlimit="2" d="M0 0L0 12.75" sodipodi:nodetypes="cc"/>
  <path id="shape26" transform="matrix(-0.986397150027506 0 0 1 150.865215656866 117.499991954075)" fill="none" stroke-opacity="0.431372549019608" stroke="#57575c" stroke-width="9" stroke-linecap="square" stroke-linejoin="miter" stroke-miterlimit="2" d="M0 0L3 6" sodipodi:nodetypes="cc"/>
  <path id="shape27" transform="matrix(-0.986397150027506 0 0 1 143.097338646596 135.124990714777)" fill="none" stroke-opacity="0.431372549019608" stroke="#57575c" stroke-width="9" stroke-linecap="square" stroke-linejoin="miter" stroke-miterlimit="2" d="M0 0L4.125 19.5" sodipodi:nodetypes="cc"/>
  <path id="shape28" transform="matrix(-0.986397150027506 0 0 1 133.479967110072 82.2499944326728)" fill="none" stroke-opacity="0.431372549019608" stroke="#57575c" stroke-width="9" stroke-linecap="square" stroke-linejoin="miter" stroke-miterlimit="2" d="M3.375 0L0 15" sodipodi:nodetypes="cc"/>
  <path id="shape30" transform="matrix(-0.986397150027506 0 0 1 124.232494478798 100.624993140638)" fill="none" stroke-opacity="0.431372549019608" stroke="#57575c" stroke-width="9" stroke-linecap="square" stroke-linejoin="miter" stroke-miterlimit="2" d="M2.25 0L0 15.375" sodipodi:nodetypes="cc"/>
  <path id="shape31" transform="matrix(-0.986397150027506 0 0 1 136.069259446828 110.7499924287)" fill="none" stroke-opacity="0.431372549019608" stroke="#57575c" stroke-width="9" stroke-linecap="square" stroke-linejoin="miter" stroke-miterlimit="2" d="M0 0L0 6.375" sodipodi:nodetypes="cc"/>
  <path id="shape33" transform="matrix(-0.986397150027506 0 0 1 132.370270394319 128.749991163034)" fill="none" stroke-opacity="0.431372549019608" stroke="#57575c" stroke-width="9" stroke-linecap="square" stroke-linejoin="miter" stroke-miterlimit="2" d="M0 0L2.625 28.5" sodipodi:nodetypes="cc"/>
  <path id="shape34" transform="matrix(-0.986397150027506 0 0 1 81.2272538665243 0)" fill="none" stroke-opacity="0.431372549019608" stroke="#57575c" stroke-width="9" stroke-linecap="square" stroke-linejoin="miter" stroke-miterlimit="2" d="M0 7.5L1.5 0" sodipodi:nodetypes="cc"/>
  <path id="shape35" transform="matrix(-0.986397150027506 0 0 1 102.408459068993 8.37499962718033)" fill="none" stroke-opacity="0.431372549019608" stroke="#57575c" stroke-width="9" stroke-linecap="square" stroke-linejoin="miter" stroke-miterlimit="2" d="M3.375 0L0 13.5" sodipodi:nodetypes="cc"/>
  <path id="shape36" transform="matrix(-0.986397150027506 0 0 1 130.890674773315 4.24999991722888)" fill="none" stroke-opacity="0.431372549019608" stroke="#57575c" stroke-width="9" stroke-linecap="square" stroke-linejoin="miter" stroke-miterlimit="2" d="M0 5.625L0 0" sodipodi:nodetypes="cc"/>
  <path id="shape37" transform="matrix(-0.986397150027506 0 0 1 170.469857635165 3.49999996996502)" fill="none" stroke-opacity="0.431372549019608" stroke="#57575c" stroke-width="9" stroke-linecap="square" stroke-linejoin="miter" stroke-miterlimit="2" d="M0 7.5L5.25 0" sodipodi:nodetypes="cc"/>
  <path id="shape38" transform="matrix(-0.986397150027506 0 0 1 19.974540987588 9.87499956641159)" fill="none" stroke-opacity="0.431372549019608" stroke="#57575c" stroke-width="9" stroke-linecap="square" stroke-linejoin="miter" stroke-miterlimit="2" d="M2.25 0L0 17.25" sodipodi:nodetypes="cc"/>
  <path id="shape41" transform="matrix(-0.986397150027506 0 0 1 13.566360682944 35.3749977733837)" fill="none" stroke-opacity="0.431372549019608" stroke="#57575c" stroke-width="9" stroke-linecap="square" stroke-linejoin="miter" stroke-miterlimit="2" d="M1.125 0L0 13.125" sodipodi:nodetypes="cc"/>
  <path id="shape42" transform="matrix(-0.986397150027506 0 0 1 26.262822376854 40.9999973778628)" fill="none" stroke-opacity="0.431372549019608" stroke="#57575c" stroke-width="9" stroke-linecap="square" stroke-linejoin="miter" stroke-miterlimit="2" d="M3.75 0L0 19.5" sodipodi:nodetypes="cc"/>
  <path id="shape43" transform="matrix(-0.986397150027506 0 0 1 28.48221580836 73.6249950838417)" fill="none" stroke-opacity="0.431372549019608" stroke="#57575c" stroke-width="9" stroke-linecap="square" stroke-linejoin="miter" stroke-miterlimit="2" d="M0.75 0L0 19.5" sodipodi:nodetypes="cc"/>
  <path id="shape44" transform="matrix(-0.986397150027506 0 0 1 34.4005982923749 106.999992737084)" fill="none" stroke-opacity="0.431372549019608" stroke="#57575c" stroke-width="9" stroke-linecap="square" stroke-linejoin="miter" stroke-miterlimit="2" d="M2.625 0L0 15.75" sodipodi:nodetypes="cc"/>
  <path id="shape46" transform="matrix(-0.986397150027506 0 0 1 22.563833324345 121.62499170873)" fill="none" stroke-opacity="0.431372549019608" stroke="#57575c" stroke-width="9" stroke-linecap="square" stroke-linejoin="miter" stroke-miterlimit="2" d="M1.875 0L0 12" sodipodi:nodetypes="cc"/>
  <path id="shape47" transform="matrix(-0.986397150027506 0 0 1 17.7551475560831 89.7499939500152)" fill="none" stroke-opacity="0.431372549019608" stroke="#57575c" stroke-width="9" stroke-linecap="square" stroke-linejoin="miter" stroke-miterlimit="2" d="M0.75 0L0 16.125" sodipodi:nodetypes="cc"/>
  <path id="shape48" transform="matrix(-0.986397150027506 0 0 1 15.5357541245771 60.1249960330919)" fill="none" stroke-opacity="0.431372549019608" stroke="#57575c" stroke-width="9" stroke-linecap="square" stroke-linejoin="miter" stroke-miterlimit="2" d="M3 0L0 16.125" sodipodi:nodetypes="cc"/>
  <path id="shape50" transform="matrix(-0.986397150027506 0 0 1 1.47959572504126 81.1249945564805)" fill="none" stroke-opacity="0.431372549019608" stroke="#57575c" stroke-width="9" stroke-linecap="square" stroke-linejoin="miter" stroke-miterlimit="2" d="M1.5 0L0 14.25" sodipodi:nodetypes="cc"/>
  <path id="shape51" transform="matrix(-0.986397150027506 0 0 1 2.21939353554329 108.874992605244)" fill="none" stroke-opacity="0.431372549019608" stroke="#57575c" stroke-width="9" stroke-linecap="square" stroke-linejoin="miter" stroke-miterlimit="2" d="M1.125 0L0 15" sodipodi:nodetypes="cc"/>
 </g><g id="group1" transform="translate(266.124981045324, 378.874973728276)" fill="none">
  <path id="shape2" transform="translate(104.24999266968, 17.9999987343332)" fill="#686869" fill-rule="evenodd" stroke-opacity="0.341176470588235" stroke="#5b5b5b" stroke-width="9" stroke-linecap="square" stroke-linejoin="miter" stroke-miterlimit="2" d="M2.625 0L0 13.125" sodipodi:nodetypes="cc"/>
  <path id="shape3" transform="translate(89.6249936980341, 25.1249982333401)" fill="#686869" fill-rule="evenodd" stroke-opacity="0.341176470588235" stroke="#5b5b5b" stroke-width="9" stroke-linecap="square" stroke-linejoin="miter" stroke-miterlimit="2" d="M3.75 0L0 21.75" sodipodi:nodetypes="cc"/>
  <path id="shape29" transform="translate(112.499992089583, 32.9999976796108)" fill="#686869" fill-rule="evenodd" stroke-opacity="0.341176470588235" stroke="#5b5b5b" stroke-width="9" stroke-linecap="square" stroke-linejoin="miter" stroke-miterlimit="2" d="M5.25 0L0 23.25" sodipodi:nodetypes="cc"/>
  <path id="shape32" transform="translate(95.9999932497771, 50.6249964403121)" fill="#686869" fill-rule="evenodd" stroke-opacity="0.341176470588235" stroke="#5b5b5b" stroke-width="9" stroke-linecap="square" stroke-linejoin="miter" stroke-miterlimit="2" d="M3.75 0L0 14.25" sodipodi:nodetypes="cc"/>
  <path id="shape39" transform="translate(77.624994541812, 61.1249957020065)" fill="#686869" fill-rule="evenodd" stroke-opacity="0.341176470588235" stroke="#5b5b5b" stroke-width="9" stroke-linecap="square" stroke-linejoin="miter" stroke-miterlimit="2" d="M5.625 0L0 22.875" sodipodi:nodetypes="cc"/>
  <path id="shape40" transform="translate(69.3749951219093, 41.2499970995136)" fill="#686869" fill-rule="evenodd" stroke-opacity="0.341176470588235" stroke="#5b5b5b" stroke-width="9" stroke-linecap="square" stroke-linejoin="miter" stroke-miterlimit="2" d="M8.625 0L0 26.25" sodipodi:nodetypes="cc"/>
  <path id="shape45" transform="translate(78.3749944890758, 16.1249988661735)" fill="#686869" fill-rule="evenodd" stroke-opacity="0.341176470588235" stroke="#5b5b5b" stroke-width="9" stroke-linecap="square" stroke-linejoin="miter" stroke-miterlimit="2" d="M1.875 0L0 10.5" sodipodi:nodetypes="cc"/>
  <path id="shape49" transform="translate(62.9999955701662, 21.3749984970206)" fill="#686869" fill-rule="evenodd" stroke-opacity="0.341176470588235" stroke="#5b5b5b" stroke-width="9" stroke-linecap="square" stroke-linejoin="miter" stroke-miterlimit="2" d="M0.75 0L0 19.125" sodipodi:nodetypes="cc"/>
  <path id="shape52" transform="translate(45.7499967830969, 5.24999963084719)" fill="#686869" fill-rule="evenodd" stroke-opacity="0.341176470588235" stroke="#5b5b5b" stroke-width="9" stroke-linecap="square" stroke-linejoin="miter" stroke-miterlimit="2" d="M1.125 0L0 14.625" sodipodi:nodetypes="cc"/>
  <path id="shape53" transform="translate(43.8749969149372, 33.7499976268747)" fill="#686869" fill-rule="evenodd" stroke-opacity="0.341176470588235" stroke="#5b5b5b" stroke-width="9" stroke-linecap="square" stroke-linejoin="miter" stroke-miterlimit="2" d="M1.5 0L0 22.5" sodipodi:nodetypes="cc"/>
  <path id="shape54" transform="translate(51.3749963875761, 52.1249963348399)" fill="#686869" fill-rule="evenodd" stroke-opacity="0.341176470588235" stroke="#5b5b5b" stroke-width="9" stroke-linecap="square" stroke-linejoin="miter" stroke-miterlimit="2" d="M5.625 0L0 17.625" sodipodi:nodetypes="cc"/>
  <path id="shape55" transform="translate(28.4999979960276, 21.7499984706526)" fill="#686869" fill-rule="evenodd" stroke-opacity="0.341176470588235" stroke="#5b5b5b" stroke-width="9" stroke-linecap="square" stroke-linejoin="miter" stroke-miterlimit="2" d="M2.25 0L0 13.125" sodipodi:nodetypes="cc"/>
  <path id="shape56" transform="translate(13.124999077118, 11.6249991825903)" fill="#686869" fill-rule="evenodd" stroke-opacity="0.341176470588235" stroke="#5b5b5b" stroke-width="9" stroke-linecap="square" stroke-linejoin="miter" stroke-miterlimit="2" d="M3 0L0 12.75" sodipodi:nodetypes="cc"/>
  <path id="shape57" transform="translate(15.3749989189096, 28.1249980223957)" fill="#686869" fill-rule="evenodd" stroke-opacity="0.341176470588235" stroke="#5b5b5b" stroke-width="9" stroke-linecap="square" stroke-linejoin="miter" stroke-miterlimit="2" d="M6 0L0 22.125" sodipodi:nodetypes="cc"/>
  <path id="shape58" transform="translate(1.12499992089585, 37.4999973631942)" fill="#686869" fill-rule="evenodd" stroke-opacity="0.341176470588235" stroke="#5b5b5b" stroke-width="9" stroke-linecap="square" stroke-linejoin="miter" stroke-miterlimit="2" d="M0.375 0L0 27.375" sodipodi:nodetypes="cc"/>
  <path id="shape59" transform="translate(15.7499988925416, 64.1249954910621)" fill="#686869" fill-rule="evenodd" stroke-opacity="0.341176470588235" stroke="#5b5b5b" stroke-width="9" stroke-linecap="square" stroke-linejoin="miter" stroke-miterlimit="2" d="M1.125 0L0 15" sodipodi:nodetypes="cc"/>
  <path id="shape60" transform="translate(0, 81.3749942781315)" fill="#686869" fill-rule="evenodd" stroke-opacity="0.341176470588235" stroke="#5b5b5b" stroke-width="9" stroke-linecap="square" stroke-linejoin="miter" stroke-miterlimit="2" d="M0 0L2.625 11.25" sodipodi:nodetypes="cc"/>
  <path id="shape61" transform="translate(16.8749988134374, 91.4999935661937)" fill="#686869" fill-rule="evenodd" stroke-opacity="0.341176470588235" stroke="#5b5b5b" stroke-width="9" stroke-linecap="square" stroke-linejoin="miter" stroke-miterlimit="2" d="M0 0L0.75 12" sodipodi:nodetypes="cc"/>
  <path id="shape62" transform="translate(1.8749998681597, 106.499992511471)" fill="#686869" fill-rule="evenodd" stroke-opacity="0.341176470588235" stroke="#5b5b5b" stroke-width="9" stroke-linecap="square" stroke-linejoin="miter" stroke-miterlimit="2" d="M0 0L0.375 16.125" sodipodi:nodetypes="cc"/>
  <path id="shape63" transform="translate(14.9999989452777, 119.249991614958)" fill="#686869" fill-rule="evenodd" stroke-opacity="0.341176470588235" stroke="#5b5b5b" stroke-width="9" stroke-linecap="square" stroke-linejoin="miter" stroke-miterlimit="2" d="M0 0L3 22.875" sodipodi:nodetypes="cc"/>
  <path id="shape64" transform="translate(28.4999979960276, 49.4999965194163)" fill="#686869" fill-rule="evenodd" stroke-opacity="0.341176470588235" stroke="#5b5b5b" stroke-width="9" stroke-linecap="square" stroke-linejoin="miter" stroke-miterlimit="2" d="M3 0L0 16.125" sodipodi:nodetypes="cc"/>
  <path id="shape65" transform="translate(31.8749977587151, 78.7499944627077)" fill="#686869" fill-rule="evenodd" stroke-opacity="0.341176470588235" stroke="#5b5b5b" stroke-width="9" stroke-linecap="square" stroke-linejoin="miter" stroke-miterlimit="2" d="M0 0L3 17.25" sodipodi:nodetypes="cc"/>
  <path id="shape66" transform="translate(30.7499978378193, 105.749992564208)" fill="#686869" fill-rule="evenodd" stroke-opacity="0.341176470588235" stroke="#5b5b5b" stroke-width="9" stroke-linecap="square" stroke-linejoin="miter" stroke-miterlimit="2" d="M0 0L1.125 13.875" sodipodi:nodetypes="cc"/>
  <path id="shape67" transform="translate(35.9999974686664, 131.24999077118)" fill="#686869" fill-rule="evenodd" stroke-opacity="0.341176470588235" stroke="#5b5b5b" stroke-width="9" stroke-linecap="square" stroke-linejoin="miter" stroke-miterlimit="2" d="M0 0L7.125 26.25" sodipodi:nodetypes="cc"/>
  <path id="shape68" transform="translate(41.9999970467775, 70.1249950691731)" fill="#686869" fill-rule="evenodd" stroke-opacity="0.341176470588235" stroke="#5b5b5b" stroke-width="9" stroke-linecap="square" stroke-linejoin="miter" stroke-miterlimit="2" d="M0 0L0.75 12.75" sodipodi:nodetypes="cc"/>
  <path id="shape69" transform="translate(48.3749965985205, 92.6249934870896)" fill="#686869" fill-rule="evenodd" stroke-opacity="0.341176470588235" stroke="#5b5b5b" stroke-width="9" stroke-linecap="square" stroke-linejoin="miter" stroke-miterlimit="2" d="M0 0L0 12.75" sodipodi:nodetypes="cc"/>
  <path id="shape70" transform="translate(44.2499968885692, 113.99999198411)" fill="#686869" fill-rule="evenodd" stroke-opacity="0.341176470588235" stroke="#5b5b5b" stroke-width="9" stroke-linecap="square" stroke-linejoin="miter" stroke-miterlimit="2" d="M0 0L3 6" sodipodi:nodetypes="cc"/>
  <path id="shape71" transform="translate(52.1249963348399, 131.624990744812)" fill="#686869" fill-rule="evenodd" stroke-opacity="0.341176470588235" stroke="#5b5b5b" stroke-width="9" stroke-linecap="square" stroke-linejoin="miter" stroke-miterlimit="2" d="M0 0L4.125 19.5" sodipodi:nodetypes="cc"/>
  <path id="shape72" transform="translate(61.8749956492704, 78.7499944627078)" fill="#686869" fill-rule="evenodd" stroke-opacity="0.341176470588235" stroke="#5b5b5b" stroke-width="9" stroke-linecap="square" stroke-linejoin="miter" stroke-miterlimit="2" d="M3.375 0L0 15" sodipodi:nodetypes="cc"/>
  <path id="shape73" transform="translate(86.2499939353467, 82.1249942253953)" fill="#686869" fill-rule="evenodd" stroke-opacity="0.341176470588235" stroke="#5b5b5b" stroke-width="9" stroke-linecap="square" stroke-linejoin="miter" stroke-miterlimit="2" d="M8.25 0L0 16.5" sodipodi:nodetypes="cc"/>
  <path id="shape74" transform="translate(71.249994990069, 97.124993170673)" fill="#686869" fill-rule="evenodd" stroke-opacity="0.341176470588235" stroke="#5b5b5b" stroke-width="9" stroke-linecap="square" stroke-linejoin="miter" stroke-miterlimit="2" d="M2.25 0L0 15.375" sodipodi:nodetypes="cc"/>
  <path id="shape75" transform="translate(59.2499958338468, 107.249992458735)" fill="#686869" fill-rule="evenodd" stroke-opacity="0.341176470588235" stroke="#5b5b5b" stroke-width="9" stroke-linecap="square" stroke-linejoin="miter" stroke-miterlimit="2" d="M0 0L0 6.375" sodipodi:nodetypes="cc"/>
  <path id="shape76" transform="translate(72.7499948845967, 119.249991614957)" fill="#686869" fill-rule="evenodd" stroke-opacity="0.341176470588235" stroke="#5b5b5b" stroke-width="9" stroke-linecap="square" stroke-linejoin="miter" stroke-miterlimit="2" d="M7.5 0L0 10.875" sodipodi:nodetypes="cc"/>
  <path id="shape77" transform="translate(62.9999955701662, 125.249991193069)" fill="#686869" fill-rule="evenodd" stroke-opacity="0.341176470588235" stroke="#5b5b5b" stroke-width="9" stroke-linecap="square" stroke-linejoin="miter" stroke-miterlimit="2" d="M0 0L2.625 28.5" sodipodi:nodetypes="cc"/>
  <path id="shape78" transform="translate(125.999991140332, 3.74999973631941)" fill="#686869" fill-rule="evenodd" stroke-opacity="0.341176470588235" stroke="#5b5b5b" stroke-width="9" stroke-linecap="square" stroke-linejoin="miter" stroke-miterlimit="2" d="M0 7.5L1.5 0" sodipodi:nodetypes="cc"/>
  <path id="shape79" transform="translate(93.3749934343535, 4.87499965721531)" fill="#686869" fill-rule="evenodd" stroke-opacity="0.341176470588235" stroke="#5b5b5b" stroke-width="9" stroke-linecap="square" stroke-linejoin="miter" stroke-miterlimit="2" d="M3.375 0L0 13.5" sodipodi:nodetypes="cc"/>
  <path id="shape80" transform="translate(64.499995464694, 0.749999947263859)" fill="#686869" fill-rule="evenodd" stroke-opacity="0.341176470588235" stroke="#5b5b5b" stroke-width="9" stroke-linecap="square" stroke-linejoin="miter" stroke-miterlimit="2" d="M0 5.625L0 0" sodipodi:nodetypes="cc"/>
  <path id="shape81" transform="translate(24.3749982860762, 0)" fill="#686869" fill-rule="evenodd" stroke-opacity="0.341176470588235" stroke="#5b5b5b" stroke-width="9" stroke-linecap="square" stroke-linejoin="miter" stroke-miterlimit="2" d="M0 7.5L5.25 0" sodipodi:nodetypes="cc"/>
  <path id="shape82" transform="translate(190.124986631395, 4.87499965721526)" fill="#686869" fill-rule="evenodd" stroke-opacity="0.341176470588235" stroke="#5b5b5b" stroke-width="9" stroke-linecap="square" stroke-linejoin="miter" stroke-miterlimit="2" d="M2.25 0L0 17.25" sodipodi:nodetypes="cc"/>
  <path id="shape83" transform="translate(200.624985893089, 2.62499981542351)" fill="#686869" fill-rule="evenodd" stroke-opacity="0.341176470588235" stroke="#5b5b5b" stroke-width="9" stroke-linecap="square" stroke-linejoin="miter" stroke-miterlimit="2" d="M3 0L0 15" sodipodi:nodetypes="cc"/>
  <path id="shape84" transform="translate(210.374985207519, 11.9999991562221)" fill="#686869" fill-rule="evenodd" stroke-opacity="0.341176470588235" stroke="#5b5b5b" stroke-width="9" stroke-linecap="square" stroke-linejoin="miter" stroke-miterlimit="2" d="M0.375 0L0 22.125" sodipodi:nodetypes="cc"/>
  <path id="shape85" transform="translate(196.874986156769, 30.3749978641873)" fill="#686869" fill-rule="evenodd" stroke-opacity="0.341176470588235" stroke="#5b5b5b" stroke-width="9" stroke-linecap="square" stroke-linejoin="miter" stroke-miterlimit="2" d="M1.125 0L0 13.125" sodipodi:nodetypes="cc"/>
  <path id="shape86" transform="translate(183.749987079652, 35.9999974686665)" fill="#686869" fill-rule="evenodd" stroke-opacity="0.341176470588235" stroke="#5b5b5b" stroke-width="9" stroke-linecap="square" stroke-linejoin="miter" stroke-miterlimit="2" d="M3.75 0L0 19.5" sodipodi:nodetypes="cc"/>
  <path id="shape87" transform="translate(181.49998723786, 68.6249951746453)" fill="#686869" fill-rule="evenodd" stroke-opacity="0.341176470588235" stroke="#5b5b5b" stroke-width="9" stroke-linecap="square" stroke-linejoin="miter" stroke-miterlimit="2" d="M0.75 0L0 19.5" sodipodi:nodetypes="cc"/>
  <path id="shape88" transform="translate(175.499987659749, 101.999992827888)" fill="#686869" fill-rule="evenodd" stroke-opacity="0.341176470588235" stroke="#5b5b5b" stroke-width="9" stroke-linecap="square" stroke-linejoin="miter" stroke-miterlimit="2" d="M2.625 0L0 15.75" sodipodi:nodetypes="cc"/>
  <path id="shape89" transform="translate(170.624988002534, 132.749990665707)" fill="#686869" fill-rule="evenodd" stroke-opacity="0.341176470588235" stroke="#5b5b5b" stroke-width="9" stroke-linecap="square" stroke-linejoin="miter" stroke-miterlimit="2" d="M1.125 0L0 11.625" sodipodi:nodetypes="cc"/>
  <path id="shape90" transform="translate(187.499986815971, 116.624991799534)" fill="#686869" fill-rule="evenodd" stroke-opacity="0.341176470588235" stroke="#5b5b5b" stroke-width="9" stroke-linecap="square" stroke-linejoin="miter" stroke-miterlimit="2" d="M1.875 0L0 12" sodipodi:nodetypes="cc"/>
  <path id="shape91" transform="translate(192.374986473186, 84.7499940408189)" fill="#686869" fill-rule="evenodd" stroke-opacity="0.341176470588235" stroke="#5b5b5b" stroke-width="9" stroke-linecap="square" stroke-linejoin="miter" stroke-miterlimit="2" d="M0.75 0L0 16.125" sodipodi:nodetypes="cc"/>
  <path id="shape92" transform="translate(194.624986314978, 55.1249961238955)" fill="#686869" fill-rule="evenodd" stroke-opacity="0.341176470588235" stroke="#5b5b5b" stroke-width="9" stroke-linecap="square" stroke-linejoin="miter" stroke-miterlimit="2" d="M3 0L0 16.125" sodipodi:nodetypes="cc"/>
  <path id="shape93" transform="translate(210.374985207519, 44.999996835833)" fill="#686869" fill-rule="evenodd" stroke-opacity="0.341176470588235" stroke="#5b5b5b" stroke-width="9" stroke-linecap="square" stroke-linejoin="miter" stroke-miterlimit="2" d="M3 0L0 14.25" sodipodi:nodetypes="cc"/>
  <path id="shape94" transform="translate(208.874985312992, 76.1249946472842)" fill="#686869" fill-rule="evenodd" stroke-opacity="0.341176470588235" stroke="#5b5b5b" stroke-width="9" stroke-linecap="square" stroke-linejoin="miter" stroke-miterlimit="2" d="M1.5 0L0 14.25" sodipodi:nodetypes="cc"/>
  <path id="shape95" transform="translate(208.124985365728, 103.874992696048)" fill="#686869" fill-rule="evenodd" stroke-opacity="0.341176470588235" stroke="#5b5b5b" stroke-width="9" stroke-linecap="square" stroke-linejoin="miter" stroke-miterlimit="2" d="M1.125 0L0 15" sodipodi:nodetypes="cc"/>
  <path id="shape96" transform="translate(221.624984416478, 120.749991509485)" fill="#686869" fill-rule="evenodd" stroke-opacity="0.341176470588235" stroke="#5b5b5b" stroke-width="9" stroke-linecap="square" stroke-linejoin="miter" stroke-miterlimit="2" d="M1.125 0L0 16.25" sodipodi:nodetypes="cc"/>
  <path id="shape97" transform="translate(202.124985787617, 130.124990850284)" fill="#686869" fill-rule="evenodd" stroke-opacity="0.341176470588235" stroke="#5b5b5b" stroke-width="9" stroke-linecap="square" stroke-linejoin="miter" stroke-miterlimit="2" d="M2.25 0L0 11.25" sodipodi:nodetypes="cc"/>
  <path id="shape98" transform="translate(220.12498452195, 92.2499935134577)" fill="#686869" fill-rule="evenodd" stroke-opacity="0.341176470588235" stroke="#5b5b5b" stroke-width="9" stroke-linecap="square" stroke-linejoin="miter" stroke-miterlimit="2" d="M0 0L0.75 13.125" sodipodi:nodetypes="cc"/>
 </g><path id="shape02" transform="matrix(-0.993698083855498 0 0 1 448.93559161316 358.029054361626)" fill="#4a4a4a" fill-rule="evenodd" stroke="#333333" stroke-width="6" stroke-linecap="square" stroke-linejoin="miter" stroke-miterlimit="2" d="M0 10.9709C7.25 58.0126 14.5 105.054 21.75 152.096L97.481 152.096L32.5584 0Z" sodipodi:nodetypes="ccccc"/><path id="shape99" transform="matrix(0.999997418184196 0.0022723610940083 -0.0022723610940083 0.999997418184196 118.577740859636 314.840178074232)" fill="#4a4a4a" fill-rule="evenodd" stroke="#333333" stroke-width="6" stroke-linecap="square" stroke-linejoin="miter" stroke-miterlimit="2" d="M0 43.1392C13.8167 57.0892 22.9 64.0892 27.25 64.1392C71.4667 59.1392 100.592 58.2642 114.625 61.5142L134.762 39.2402L134.491 0C97.6384 14.0823 68.1364 23.1033 45.9848 27.0628C42.9448 32.523 37.5471 34.3312 29.7916 32.4876Z" sodipodi:nodetypes="cccccccc"/><path id="shape110" transform="matrix(-0.993695518310082 0.00227236109400829 0.00225804086494382 0.999997418184196 409.435682061272 314.70526273628)" fill="#4a4a4a" fill-rule="evenodd" stroke="#333333" stroke-width="6" stroke-linecap="square" stroke-linejoin="miter" stroke-miterlimit="2" d="M0 41.5532C13.8167 55.5032 22.9 62.5032 27.25 62.5532C71.4667 57.5532 117.947 54.7637 131.98 58.0137L151.727 37.6156L151.642 0C119.204 13.3223 77.1852 18.8717 55.0335 22.8313C51.9935 28.2914 40.8223 35.4878 32.8123 31.6448Z" sodipodi:nodetypes="cccccccc"/><path id="shape100" transform="translate(77.9999991646059, 361.499996161797)" fill="#4a4a4a" fill-rule="evenodd" stroke="#333333" stroke-width="6" stroke-linecap="square" stroke-linejoin="miter" stroke-miterlimit="2" d="M0 9.375L21.75 150.5L100.5 150.5L28.5 0Z" sodipodi:nodetypes="ccccc"/><path id="shape101" transform="translate(256, 394.499995797186)" fill="#353c44" fill-rule="evenodd" stroke="#4c4c4c" stroke-width="9" stroke-linecap="square" stroke-linejoin="miter" stroke-miterlimit="2" d="M0 0L0 115.875" sodipodi:nodetypes="cc"/><rect id="shape102" transform="matrix(0.70710678118655 -0.707106781186549 0.707106781186549 0.70710678118655 234.786796564403 374.499999983935)" fill="#4a4a4a" fill-rule="evenodd" stroke="#333333" stroke-width="6" stroke-linecap="square" stroke-linejoin="miter" stroke-miterlimit="2" width="30" height="30"/>
</svg>
