<?xml version="1.0" standalone="no"?>
<!DOCTYPE svg PUBLIC "-//W3C//DTD SVG 20010904//EN" "http://www.w3.org/TR/2001/REC-SVG-20010904/DTD/svg10.dtd">
<!-- Created using Krita: https://krita.org -->
<svg xmlns="http://www.w3.org/2000/svg" 
    xmlns:xlink="http://www.w3.org/1999/xlink"
    xmlns:krita="http://krita.org/namespaces/svg/krita"
    xmlns:sodipodi="http://sodipodi.sourceforge.net/DTD/sodipodi-0.dtd"
    width="512pt"
    height="512pt"
    viewBox="0 0 512 512">
<defs/>
<path id="shape0" transform="translate(39.4999972532488, 295.99997941675)" fill="#1cafa9" fill-rule="evenodd" stroke="#7d9dd0" stroke-width="2" stroke-linecap="butt" stroke-linejoin="miter" stroke-miterlimit="2" d="M162.5 0C194.864 11.9732 225.617 7.84029 256 0L255.5 24L445 83.5L459.5 216L0 216L25.5 72.5L162.5 31Z" sodipodi:nodetypes="ccccccccc"/><path id="shape1" transform="translate(34.4999976009388, 333.499976809075)" fill="#1caf1d" fill-rule="evenodd" stroke="#399a32" stroke-width="3" stroke-linecap="round" stroke-linejoin="round" d="M143.5 2L178.5 28L193.488 48.7227L240 48.9837L259 28.5L302.5 0L453.5 46.5L465.5 186L0 178.5L30.5 31.5Z" sodipodi:nodetypes="ccccccccccc"/><path id="shape2" transform="translate(32.9999977052458, 406.4999717328)" fill="#224f23" fill-rule="evenodd" stroke="#1b7716" stroke-width="2" stroke-linecap="square" stroke-linejoin="bevel" d="M0 105.5L22 10.5L159 5.5L167 39L194.5 62L247 60L270.5 37L275.5 0L458.5 11L467.5 105.5Z" sodipodi:nodetypes="ccccccccccc"/><path id="shape3" transform="translate(95.1875120431137, 497.249966897438)" fill="#4057c0" fill-rule="evenodd" stroke="#5675db" stroke-width="2" stroke-linecap="square" stroke-linejoin="bevel" d="M0 14.75L0.75 0.25L95.875 0L103.875 14.75L199.375 14.75L208.75 0.5L331 0.75L333.75 14.75Z" sodipodi:nodetypes="ccccccccc"/>
</svg>
