<?xml version="1.0" standalone="no"?>
<!DOCTYPE svg PUBLIC "-//W3C//DTD SVG 20010904//EN" "http://www.w3.org/TR/2001/REC-SVG-20010904/DTD/svg10.dtd">
<!-- Created using Krita: https://krita.org -->
<svg xmlns="http://www.w3.org/2000/svg" 
    xmlns:xlink="http://www.w3.org/1999/xlink"
    xmlns:krita="http://krita.org/namespaces/svg/krita"
    xmlns:sodipodi="http://sodipodi.sourceforge.net/DTD/sodipodi-0.dtd"
    width="512pt"
    height="512pt"
    viewBox="0 0 512 512">
    <style>
        .uniform-color {
            color: #CE3C34;
        }
        .uniform-undershirt-color {
            color: #5E5E5E;
        }
    </style>
<defs/>
<path id="shape0" transform="translate(199.499997120118, 287.999995842576)" fill="currentColor" class="uniform-undershirt-color" fill-rule="evenodd" d="M96 0L39.75 83.25L3.5 16.0625L3 45L0 224L110.25 224Z" sodipodi:nodetypes="ccccccc"/><path id="shape1" transform="translate(35.999999480322, 321.499995366437)" fill="currentColor" class="uniform-color" fill-rule="evenodd" d="M167.375 8.03125L31.5 50.5L0 122.5L18.75 123.25L5.25 190.5L463.5 190.5L457.687 123.062L476 123.25L448.5 55.75L261.187 0L273.75 190.5L163.5 190.5Z" sodipodi:nodetypes="ccccccccccccc"/><path id="shape2" transform="translate(36.7499994694964, 329.249995291824)" fill="#ffffff" fill-opacity="0.466666666666667" fill-rule="evenodd" d="M152.625 4.3125L148.5 89.8125L6 99.75L0 115.5L147.515 105.192L145.393 182.75L162.75 182.75L166.687 0Z" sodipodi:nodetypes="ccccccccc"/><path id="shape3" transform="translate(297.093745711311, 321.187495363507)" fill="#ffffff" fill-opacity="0.466666666666667" fill-rule="evenodd" d="M0 0L12.6562 190.813L24.9274 190.813L20.411 117.874L214.906 122.812L206.906 104.812L18.6562 102.562L13.4062 4.125Z" sodipodi:nodetypes="ccccccccc"/>
</svg>
