<?xml version="1.0" standalone="no"?>
<!DOCTYPE svg PUBLIC "-//W3C//DTD SVG 20010904//EN" "http://www.w3.org/TR/2001/REC-SVG-20010904/DTD/svg10.dtd">
<!-- Created using Krita: https://krita.org -->
<svg xmlns="http://www.w3.org/2000/svg" 
    xmlns:xlink="http://www.w3.org/1999/xlink"
    xmlns:krita="http://krita.org/namespaces/svg/krita"
    xmlns:sodipodi="http://sodipodi.sourceforge.net/DTD/sodipodi-0.dtd"
    width="512pt"
    height="512pt"
    viewBox="0 0 512 512">
<defs/>
<path id="shape0" transform="translate(37.9559604242117, 289.600852344421)" fill="#ae3208" fill-rule="evenodd" d="M164.357 19.4616C188.328 41.3608 231.76 43.7422 257.232 19.2116L257.463 0L270.919 36.0866L445.357 89.2741L462.357 222.399L0 222.399L30.2315 80.8991L152.523 43.7588L163.544 4.64914Z" sodipodi:nodetypes="ccccccccccc"/><path id="shape1" transform="translate(136.624997674252, 468.37499534737)" fill="#4f2f2b" fill-rule="evenodd" d="M94.25 0L130.75 0.25L217.5 43.625L0 43.625Z" sodipodi:nodetypes="ccccc"/><path id="shape2" transform="translate(57.4999971787244, 285.374655707545)" fill="#000000" fill-opacity="0.541176470588235" fill-rule="evenodd" stroke="none" stroke-width="1" stroke-linecap="square" stroke-linejoin="bevel" d="M133.875 61.1253L134.951 47.2525L145.642 0C154.578 43.672 144.315 126.827 169.917 125.766L211.3 125.824C234.661 126.562 227.85 44.209 236.594 0.495109L249.605 38.1573L249 58.1253C346.055 82.168 397.93 97.9596 404.625 105.5C411.32 113.041 419.028 153.249 427.75 226.125L296 226.625L210.25 183.625L173.812 182.875L79 226.625L0 226.625C13.7583 146.989 24.175 103.656 31.25 96.6253C38.325 89.5946 72.5334 77.7613 133.875 61.1253Z" sodipodi:nodetypes="cccccccczcccccczc"/><path id="shape01" transform="matrix(1.22058713363846 0 0 1.22058713363846 240.157155343111 410.499995404409)" fill="#887854" fill-rule="evenodd" stroke="none" stroke-width="4" stroke-linecap="round" stroke-linejoin="round" d="M0 0L13.9375 0L13.9375 49.125L0 49.125Z" sodipodi:nodetypes="ccccc"/><path id="shape3" transform="matrix(1.22058713363846 0 0 1.06611891911449 236.132341112728 414.656245880986)" fill="#bc8f26" fill-rule="evenodd" stroke="#daac39" stroke-width="8" stroke-linecap="square" stroke-linejoin="miter" stroke-miterlimit="2" d="M0 0L0 47.875" sodipodi:nodetypes="cc"/><path id="shape02" transform="matrix(1.22058713363846 0 0 1.06611891911449 261.757872496911 414.709552120837)" fill="#bc8f26" stroke="#daac39" stroke-width="8" stroke-linecap="square" stroke-linejoin="miter" stroke-miterlimit="2" d="M0 0L0 47.875" sodipodi:nodetypes="cc"/><path id="shape4" transform="translate(205.874997977281, 341.062496226469)" fill="none" stroke="#691c11" stroke-width="3" stroke-linecap="square" stroke-linejoin="miter" stroke-miterlimit="2" d="M0 0C27.875 17.4817 55.75 18.2666 83.625 0.75" sodipodi:nodetypes="cc"/><path id="shape5" transform="translate(290.249988466656, 285.499988655402)" fill="#000000" fill-opacity="0.152941176470588" fill-rule="evenodd" stroke="#603221" stroke-width="5" stroke-linecap="square" stroke-linejoin="bevel" d="M4 0L0 94L16.25 119L17.5 37L4 0" sodipodi:nodetypes="ccccc"/><path id="shape6" transform="translate(190.749992420378, 286.499988615666)" fill="#000000" fill-opacity="0.152941176470588" fill-rule="evenodd" stroke="#603221" stroke-width="5" stroke-linecap="square" stroke-linejoin="bevel" d="M12.5 0L14.25 83.5L0 119.25L0.5 46.5L12.5 0" sodipodi:nodetypes="ccccc"/>
</svg>
