<?xml version="1.0" standalone="no"?>
<!DOCTYPE svg PUBLIC "-//W3C//DTD SVG 20010904//EN" "http://www.w3.org/TR/2001/REC-SVG-20010904/DTD/svg10.dtd">
<!-- Created using Krita: https://krita.org -->
<svg xmlns="http://www.w3.org/2000/svg" 
    xmlns:xlink="http://www.w3.org/1999/xlink"
    xmlns:krita="http://krita.org/namespaces/svg/krita"
    xmlns:sodipodi="http://sodipodi.sourceforge.net/DTD/sodipodi-0.dtd"
    width="512pt"
    height="512pt"
    viewBox="0 0 512 512">
    <style>
        .uniform-color {
            color: #2f4a2f;
        }
        .uniform-undershirt-color {
            color: #718085;
        }
    </style>
<defs/>
<path id="shape0" transform="translate(41.9999970793993, 414.999971141683)" fill="currentColor" class="uniform-color" fill-rule="evenodd" d="M12.5 30.375L0 97L456.75 97L449 33.25L214 0Z" sodipodi:nodetypes="cccccc"/>
<path id="shape1" transform="translate(188.749987537782, 312.124977773875)" fill="currentColor" class="uniform-undershirt-color" fill-rule="evenodd" d="M14.5 0.375C45 17.9913 75.5 18.3822 106 0L126.75 125.75L0 126Z" sodipodi:nodetypes="ccccc"/>
<path id="shape01" transform="translate(180.374989029125, 435.687473974144)" fill="#bdc2c4" fill-rule="evenodd" stroke-opacity="0" stroke="#000000" stroke-width="0" stroke-linecap="square" stroke-linejoin="bevel" d="M9.5 0.75L132.375 0L141 76.3125L0 76.3125Z" sodipodi:nodetypes="ccccc"/>
<path id="shape02" transform="translate(293.774985691319, 320.968729000723)" fill="#bdc2c4" fill-rule="evenodd" stroke-opacity="0" stroke="#000000" stroke-width="0" stroke-linecap="square" stroke-linejoin="bevel" d="M0 0C123.822 35.5185 187.364 55.0185 190.625 58.5C193.886 61.9815 196.594 86.7523 198.75 132.812L20.5 116.062Z" sodipodi:nodetypes="czccc"/>
<path id="shape03" transform="translate(54.024994666641, 324.768729442783)" fill="#bdc2c4" fill-rule="evenodd" stroke-opacity="0" stroke="#000000" stroke-width="0" stroke-linecap="square" stroke-linejoin="bevel" d="M14.5 43.25C21.3748 36.3737 66.8332 21.957 150.875 0L137.25 113.062L0 123.812C2.79183 76.9805 7.62516 50.1263 14.5 43.25Z" sodipodi:nodetypes="ccccz"/>
<path id="shape2" transform="translate(180.749998204526, 321.354837655281)" fill="none" stroke="#5a737e" stroke-width="5" stroke-linecap="butt" stroke-linejoin="miter" stroke-miterlimit="4" d="M141.187 190.645L130.811 116.159C120.55 38.684 114.842 -0.0355247 113.687 2.44563e-05C78.5833 30.6902 48.7975 17.2699 22.6675 4.54739L0 194.145" sodipodi:nodetypes="ccccc"/>
<path id="shape3" transform="translate(53.6874994834608, 436.749995661559)" fill="none" stroke="#5a737e" stroke-width="5" stroke-linecap="butt" stroke-linejoin="round" d="M0 12L136.312 0L264.062 0L438.312 17" sodipodi:nodetypes="cccc"/>
<path id="shape4" transform="translate(422.874996961685, 424.656245910223)" fill="#181818" fill-rule="evenodd" d="M7.1875 87.3438L2.5625 0L0 87.3438Z" sodipodi:nodetypes="cccc"/>
<path id="shape5" transform="translate(106.124998673867, 424.749995780769)" fill="#181818" fill-rule="evenodd" d="M2.625 0L0 87.25L2.375 87.25Z" sodipodi:nodetypes="cccc"/>
</svg>
