<?xml version="1.0" standalone="no"?>
<!DOCTYPE svg PUBLIC "-//W3C//DTD SVG 20010904//EN" "http://www.w3.org/TR/2001/REC-SVG-20010904/DTD/svg10.dtd">
<!-- Created using Krita: https://krita.org -->
<svg xmlns="http://www.w3.org/2000/svg" 
    xmlns:xlink="http://www.w3.org/1999/xlink"
    xmlns:krita="http://krita.org/namespaces/svg/krita"
    xmlns:sodipodi="http://sodipodi.sourceforge.net/DTD/sodipodi-0.dtd"
    width="512pt"
    height="512pt"
    viewBox="0 0 512 512">
    <style>
        .uniform-color {
            color: #6c1c25;
        }
    </style>
<defs>
  <linearGradient id="gradient0" gradientUnits="objectBoundingBox" x1="0.418731247899168" y1="0.0125953021257278" x2="0.866572601510912" y2="0.963926999001052" spreadMethod="pad">
   <stop stop-color="#81592f" offset="0.204545453190804" stop-opacity="1"/>
   <stop stop-color="#f9b743" offset="0.363636374473572" stop-opacity="1"/>
   <stop stop-color="#efae42" offset="0.555555582046509" stop-opacity="1"/>
   <stop stop-color="#b2763d" offset="0.797979772090912" stop-opacity="1"/>
  </linearGradient>
 </defs>
<path id="shape0" transform="translate(40.4999972641475, 352.374984392058)" fill="#000000" fill-rule="evenodd" stroke-opacity="0" stroke="#000000" stroke-width="0" stroke-linecap="square" stroke-linejoin="bevel" d="M206.875 0L444.703 22.7578L459.75 159.625L0 159.625L26.1797 17.1094Z" sodipodi:nodetypes="cccccc"/><path id="shape1" transform="translate(50.062496456174, 305.437479357037)" fill="currentColor" class="uniform-color" fill-rule="evenodd" stroke-opacity="0" stroke="#000000" stroke-width="0" stroke-linecap="square" stroke-linejoin="bevel" d="M0 151.687L32.8125 126.937L205.938 188.744L379.125 131.625L446.437 170.062L435.75 67.125L248.625 13.5L250.125 0L206.5 7.125L201.625 39.8331L193.391 39.8664L185.062 6.9375L148.125 3.75L145.875 23.25L16.5 61.5Z" sodipodi:nodetypes="cccccccccccccccc"/><path id="shape2" transform="translate(51.5156214630391, 420.937471030775)" fill="#d49d2c" fill-rule="evenodd" stroke="#000000" stroke-width="2" stroke-linecap="square" stroke-linejoin="bevel" d="M0 34.9219L32.1094 11.0625L204.484 73.125L378.422 16.3125L443.922 54.625L443.297 42.1875L378.984 7.5L204.484 61.875L31.5469 0L1.73437 22.125Z" sodipodi:nodetypes="ccccccccccc"/><path id="shape3" transform="translate(82.7500026273832, 320.874997042792)" fill="none" stroke-opacity="0.498039215686275" stroke="#333333" stroke-width="2" stroke-linecap="square" stroke-linejoin="bevel" d="M0 99.375L0.99547 42.8504L113.783 8.15742L130.834 14.1003L55.9988 118.063M130.839 14.3371L160.625 25.5312L164.822 25.8352L175.327 191.125M164.806 26.0513L169.687 26.1875L205.839 6.53258M280.09 128.534L205.889 6.06403L216.625 0L377 47.125L348.125 108.125" sodipodi:nodetypes="ccccccccccccccccc"/><path id="shape01" transform="matrix(0.970132236685369 -0.24257667518507 0.24257667518507 0.970132236685369 302.025654867869 410.102272542385)" fill="url(#gradient0)" stroke="#606060" stroke-width="2" stroke-linecap="round" stroke-linejoin="round" d="M17.9852 0C9.45591 15.3717 3.46084 31.2389 0 47.6017L1.20546 48.2627C7.8771 37.6497 15.4706 32.4128 23.9858 32.552C24.3927 32.9347 30.5191 36.9975 32.4597 42.4607C32.6815 42.3774 33.0512 42.3148 33.5687 42.2722C30.4209 28.4464 25.2263 14.3556 17.9852 0Z" sodipodi:nodetypes="ccccccc"/>
</svg>
