<?xml version="1.0" standalone="no"?>
<!DOCTYPE svg PUBLIC "-//W3C//DTD SVG 20010904//EN" "http://www.w3.org/TR/2001/REC-SVG-20010904/DTD/svg10.dtd">
<!-- Created using Krita: https://krita.org -->
<svg xmlns="http://www.w3.org/2000/svg" 
    xmlns:xlink="http://www.w3.org/1999/xlink"
    xmlns:krita="http://krita.org/namespaces/svg/krita"
    xmlns:sodipodi="http://sodipodi.sourceforge.net/DTD/sodipodi-0.dtd"
    width="512pt"
    height="512pt"
    viewBox="0 0 512 512">
    <style>
        .uniform-color {
            color: #6C1C25;
        }
    </style>
<defs/>
<path id="shape0" transform="translate(38.9999973654754, 292.749980224178)" fill="currentColor" class="uniform-color" fill-rule="evenodd" stroke-opacity="0" stroke="#000000" stroke-width="0" stroke-linecap="square" stroke-linejoin="bevel" d="M162.562 0.9375L257.812 0L255.562 28.3125L444.75 83.25L461.25 228L0 229.5L29.25 78L164.25 36.9375Z" sodipodi:nodetypes="ccccccccc"/><path id="shape01" transform="translate(32.2499978214508, 410.499969806775)" fill="#000000" fill-rule="evenodd" stroke-opacity="0" stroke="#000000" stroke-width="0" stroke-linecap="square" stroke-linejoin="bevel" d="M22.875 24.25L0 134L471 126.5L457.75 20L434.75 0L219.003 0.617018L213.936 39.7861L210.859 1.23438L47.5 0.5Z" sodipodi:nodetypes="cccccccccc"/><path id="shape1" transform="translate(56.0624969881045, 320.640603344303)" fill="#4a4a4a" fill-rule="evenodd" stroke-opacity="0" stroke="#000000" stroke-width="0" stroke-linecap="square" stroke-linejoin="bevel" d="M182.344 25.5469C183.387 40.0466 184.954 62.1929 186.952 89.97C187.348 90.0288 194.594 90.0219 194.923 89.9631C198.58 61.6319 201.829 38.988 203.735 24.2344C222.282 23.2625 234.027 15.1844 238.969 0L429.188 54.6094L434.438 110.859L410.688 90.609L23.8125 89.484L0 113.859L10.6875 47.8594L147.235 5.8125C154.244 18.0219 165.947 24.6 182.344 25.5469Z" sodipodi:nodetypes="ccccccccccccc"/><g id="group0" transform="matrix(1.27846939962136 0 0 1.27846939962136 328.705411709957 454.750483303773)" fill="none">
  <path id="shape011" transform="matrix(0.0240839166483355 0 0 0.0240839166483355 -6.80147252296592e-07 7.50075658424538)" fill="#a37e28" fill-rule="evenodd" stroke="#000000" stroke-width="31.8" stroke-linecap="square" stroke-linejoin="bevel" d="M1007.29 0C983.269 4.87333 154.107 5.67945 129.374 2.65505C22.9873 80.7377 -56.9535 319.701 52.0404 402.239C192.175 438.066 925.272 437.49 1092.93 402.239C1174.59 381.617 1110.47 78.1696 1007.29 0Z" sodipodi:nodetypes="ccccc"/>
  <path id="shape02" transform="matrix(0.0229492777015907 0 0 0.0229492777015907 1.34500707979851 0)" fill="#b2b2b2" stroke="#000000" stroke-width="48" stroke-linecap="square" stroke-linejoin="miter" stroke-miterlimit="2.16000008583069" d="M549.065 0C288.677 436.964 105.655 888.013 0 1353.15L36.8011 1371.94C240.478 1070.25 472.297 921.381 732.257 925.339C744.677 936.217 931.709 1051.71 990.954 1207.01C997.726 1204.64 1009.01 1202.86 1024.81 1201.65C928.711 808.63 770.128 408.079 549.065 0Z" sodipodi:nodetypes="ccccccc"/>
 </g><path id="shape11" transform="translate(54.8203086065018, 405.836053704256)" fill="#ffffff" fill-rule="evenodd" stroke-opacity="0" stroke="#000000" stroke-width="0" stroke-linecap="square" stroke-linejoin="bevel" d="M187.949 0L23.6484 1.32017L2.13281 20.8436L0 30.6873L27.5859 6.94517L188.203 6.55633M196.054 6.25165L412.617 7.60142L435.68 26.1639L435.023 16.6951L412.71 0.10142L197.16 0.093748" sodipodi:nodetypes="cccccccccccc"/>
</svg>
