<?xml version="1.0" standalone="no"?>
<!DOCTYPE svg PUBLIC "-//W3C//DTD SVG 20010904//EN" "http://www.w3.org/TR/2001/REC-SVG-20010904/DTD/svg10.dtd">
<!-- Created using Krita: https://krita.org -->
<svg xmlns="http://www.w3.org/2000/svg" 
    xmlns:xlink="http://www.w3.org/1999/xlink"
    xmlns:krita="http://krita.org/namespaces/svg/krita"
    xmlns:sodipodi="http://sodipodi.sourceforge.net/DTD/sodipodi-0.dtd"
    width="512pt"
    height="512pt"
    viewBox="0 0 512 512">
    <style>
        .uniform-color {
            color: #982828;
        }
    </style>
<defs/>
<path id="shape0" transform="translate(40.4999972641475, 331.562483802488)" fill="#4b4b4b" fill-rule="evenodd" stroke-opacity="0" stroke="#000000" stroke-width="0" stroke-linecap="square" stroke-linejoin="bevel" d="M258.625 0L443.578 44.1328L459.75 180.438L0 180.438L26.1797 37.9219L156.938 0.950427Z" sodipodi:nodetypes="ccccccc"/><path id="shape1" transform="translate(41.0624966817327, 305.62497935445)" fill="currentColor" class="uniform-color" fill-rule="evenodd" stroke-opacity="0" stroke="#000000" stroke-width="0" stroke-linecap="square" stroke-linejoin="bevel" d="M0 206.375L18.7229 192.997L38.4375 87L61.489 130.46L59.1633 206.375L72.987 184.922L105.328 206.375L343.028 206.375L387.28 183.931L399.856 206.375L398.814 120.181L425.812 85.5L436.096 188.228L459.375 206.375L444.187 67.125L257.062 13.5L258.562 0L227.812 6.375L225.198 39.8331L187.203 39.6789L183.937 6.375L156.562 3.75L154.312 23.25L24.9375 61.5Z" sodipodi:nodetypes="ccccccccccccccccccccccccc"/><g id="group0" transform="matrix(0.040759750657869 0 0 0.0438581881075006 335.624987070816 398.502955543085)" fill="none">
  <ellipse id="shape01" transform="matrix(0.928537316412133 0 0 1 0 0)" rx="336.883292174572" ry="562.860013328412" cx="336.883292174572" cy="562.860013328412" fill="none" stroke="#bfbfbf" stroke-width="43.2" stroke-linecap="square" stroke-linejoin="bevel"/>
  <path id="shape2" transform="translate(22.7586315893365, 13.8765118473803)" fill="#bfbfbf" stroke-opacity="0" stroke="#000000" stroke-width="0" stroke-linecap="square" stroke-linejoin="bevel" d="M315.512 0L308.421 11.702L301.396 23.416L294.439 35.142L287.55 46.8799L280.727 58.6298L273.972 70.3914L267.283 82.1656L260.662 93.9518L254.108 105.75L247.622 117.559L241.202 129.38L234.85 141.214L228.565 153.06L222.346 164.917L216.196 176.787L210.112 188.669L204.096 200.563L198.147 212.468L192.265 224.386L186.451 236.315L180.704 248.256L175.023 260.21L169.41 272.175L163.864 284.152L158.386 296.142L152.974 308.142L147.63 320.156L142.353 332.181L137.144 344.218L132.001 356.268L126.926 368.328L121.918 380.402L116.976 392.487L112.103 404.584L107.296 416.693L102.557 428.814L97.8849 440.947L93.2803 453.092L88.7425 465.248L84.2716 477.417L79.8683 489.598L75.5325 501.791L71.2637 513.995L67.0617 526.212L62.9273 538.44L58.8605 550.681L54.8605 562.934L50.9274 575.199L47.062 587.475L43.2633 599.763L39.5323 612.064L35.8681 624.377L32.2715 636.701L28.7418 649.037L25.2797 661.386L21.8844 673.746L18.556 686.119L15.296 698.503L12.102 710.899L8.97567 723.307L5.91694 735.728L2.92505 748.162L0 760.602L21.1476 771.169L26.7326 763.152L32.343 755.277L37.9772 747.525L43.636 739.903L49.3193 732.413L55.0273 725.052L60.7598 717.821L66.5162 710.719L72.2971 703.748L78.1026 696.907L83.9327 690.195L89.7874 683.613L95.6667 677.161L101.57 670.839L107.498 664.647L113.45 658.584L119.427 652.652L125.427 646.849L131.453 641.176L137.503 635.633L143.578 630.22L149.677 624.936L155.8 619.783L161.948 614.76L168.121 609.866L174.317 605.102L180.538 600.468L186.783 595.964L193.054 591.59L199.348 587.346L205.667 583.231L212.011 579.246L218.379 575.391L224.771 571.666L231.188 568.071L237.629 564.606L244.094 561.271L250.584 558.065L257.099 554.989L263.638 552.044L270.201 549.228L276.789 546.542L283.401 543.985L290.038 541.559L296.7 539.262L303.385 537.096L310.095 535.059L316.83 533.152L323.589 531.376L330.372 529.728L337.18 528.211L344.012 526.823L350.869 525.565L357.75 524.438L364.656 523.44L371.586 522.572L378.54 521.834L385.52 521.226L392.523 520.747L399.551 520.398L406.604 520.18L413.68 520.091L420.781 520.132L421.197 520.467L421.759 520.891L422.464 521.402L423.309 521.999L424.29 522.681L425.401 523.448L426.638 524.298L427.998 525.231L429.476 526.246L431.069 527.343L432.771 528.519L434.58 529.774L436.489 531.109L438.497 532.52L440.598 534.009L442.787 535.572L445.062 537.211L447.418 538.924L449.851 540.71L452.355 542.569L454.929 544.499L457.566 546.499L460.262 548.569L463.015 550.708L465.82 552.914L468.672 555.188L471.567 557.528L474.501 559.933L477.471 562.403L480.47 564.936L483.498 567.532L486.546 570.189L489.614 572.908L492.695 575.687L495.786 578.524L498.883 581.421L501.981 584.374L505.078 587.384L508.167 590.45L511.245 593.571L514.309 596.745L517.353 599.972L520.373 603.252L523.366 606.583L526.327 609.964L529.252 613.396L532.137 616.876L534.977 620.403L537.77 623.977L540.509 627.598L543.192 631.263L545.814 634.974L548.371 638.727L550.858 642.523L553.272 646.361L555.608 650.24L557.863 654.158L560.031 658.115L562.11 662.111L564.093 666.144L565.979 670.214L567.761 674.319L569.438 678.459L569.685 678.376L569.937 678.294L570.198 678.213L570.464 678.133L570.738 678.053L571.018 677.975L571.306 677.897L571.599 677.821L571.9 677.745L572.208 677.669L572.521 677.595L572.842 677.522L573.17 677.45L573.505 677.377L573.846 677.307L574.193 677.237L574.548 677.168L574.909 677.099L575.278 677.032L575.652 676.965L576.034 676.9L576.423 676.835L576.818 676.771L577.22 676.708L577.628 676.646L578.044 676.584L578.466 676.524L578.895 676.464L579.331 676.405L579.773 676.347L580.222 676.289L580.679 676.233L581.141 676.178L581.611 676.123L582.087 676.07L582.57 676.017L583.06 675.964L583.556 675.913L584.059 675.862L584.57 675.813L585.086 675.764L585.61 675.716L586.14 675.669L586.677 675.622L587.221 675.577L587.771 675.533L588.328 675.489L588.893 675.446L586.236 664.923L583.525 654.393L580.759 643.858L577.94 633.316L575.066 622.767L572.138 612.212L569.155 601.65L566.119 591.083L563.028 580.508L559.882 569.928L556.683 559.341L553.429 548.748L550.121 538.148L546.758 527.542L543.342 516.929L539.871 506.31L536.346 495.685L532.766 485.053L529.133 474.414L525.445 463.77L521.702 453.119L517.906 442.462L514.055 431.798L510.15 421.127L506.19 410.451L502.177 399.768L498.108 389.079L493.986 378.383L489.809 367.681L485.579 356.972L481.294 346.257L476.954 335.536L472.56 324.808L468.112 314.074L463.611 303.333L459.054 292.587L454.443 281.833L449.779 271.073L445.059 260.308L440.286 249.535L435.458 238.756L430.576 227.971L425.639 217.179L420.648 206.38L415.603 195.576L410.504 184.765L405.35 173.948L400.143 163.124L394.88 152.294L389.564 141.457L384.194 130.614L378.768 119.765L373.289 108.909L367.756 98.047L362.169 87.1789L356.527 76.3037L350.83 65.4218L345.079 54.5345L339.274 43.6403L333.415 32.7398L327.502 21.833L321.534 10.9197L315.512 0" sodipodi:nodetypes="cccccccccccccccccccccccccccccccccccccccccccccccccccccccccccccccccccccccccccccccccccccccccccccccccccccccccccccccccccccccccccccccccccccccccccccccccccccccccccccccccccccccccccccccccccccccccccccccccccccccccccccccccccccccccccccccccccccccccccccccccccccccccccccccccccccccccccccccccccccccccccccccccccccccccccccc"/>
 </g><circle id="shape3" transform="translate(255.484374802245, 336.281249997632)" r="3" cx="3" cy="3" fill="#dddddd" fill-rule="evenodd"/><circle id="shape02" transform="translate(245.509374906451, 336.290625017763)" r="3" cx="3" cy="3" fill="#dddddd" fill-rule="evenodd" stroke-opacity="0" stroke="#000000" stroke-width="0" stroke-linecap="square" stroke-linejoin="bevel"/><circle id="shape03" transform="translate(234.681249997632, 336.431250016579)" r="3" cx="3" cy="3" fill="#dddddd" fill-rule="evenodd" stroke-opacity="0" stroke="#000000" stroke-width="0" stroke-linecap="square" stroke-linejoin="bevel"/><path id="shape04" transform="translate(481.249992460677, 472.999993938307)" fill="none" stroke="#c6863d" stroke-width="5" stroke-linecap="round" stroke-linejoin="miter" stroke-miterlimit="2" d="M16.2188 24.375L3.1875 18.75L0 0L14.4375 5.53125" sodipodi:nodetypes="cccc"/><path id="shape05" transform="matrix(-1 0 0 1 58.4875527346826 478.012493935149)" fill="none" stroke="#c6863d" stroke-width="5" stroke-linecap="round" stroke-linejoin="miter" stroke-miterlimit="2" d="M13.8626 24.5625L2.57703 18.75L0 0L11.2974 5.34375" sodipodi:nodetypes="cccc"/>
</svg>
