<?xml version="1.0" standalone="no"?>
<!DOCTYPE svg PUBLIC "-//W3C//DTD SVG 20010904//EN" "http://www.w3.org/TR/2001/REC-SVG-20010904/DTD/svg10.dtd">
<!-- Created using Krita: https://krita.org -->
<svg xmlns="http://www.w3.org/2000/svg" 
    xmlns:xlink="http://www.w3.org/1999/xlink"
    xmlns:krita="http://krita.org/namespaces/svg/krita"
    xmlns:sodipodi="http://sodipodi.sourceforge.net/DTD/sodipodi-0.dtd"
    width="512pt"
    height="512pt"
    viewBox="0 0 512 512">
    <style>
        .uniform-color {
            color: #982828;
        }
    </style>
<defs/>
<path id="shape0" transform="translate(38.9999973654754, 292.749980224178)" fill="currentColor" class="uniform-color" fill-rule="evenodd" stroke-opacity="0" stroke="#000000" stroke-width="0" stroke-linecap="square" stroke-linejoin="bevel" d="M162.562 0.9375L257.812 0L255.562 28.3125L444.75 83.25L461.25 228L0 229.5L29.25 78L164.25 36.9375Z" sodipodi:nodetypes="ccccccccc"/><path id="shape1" transform="translate(166.031239407425, 329.749998384423)" fill="#000000" fill-rule="evenodd" stroke-opacity="0" stroke="#000000" stroke-width="0" stroke-linecap="square" stroke-linejoin="bevel" d="M36.4063 0L63.5938 14.25L43.0625 182.25L3.68751 182.25L27.2188 30.5625L0 10.875Z" sodipodi:nodetypes="ccccccc"/><path id="shape2" transform="translate(249.281248727982, 344.343748242903)" fill="none" stroke="#000000" stroke-width="2" stroke-linecap="square" stroke-linejoin="miter" stroke-miterlimit="2" d="M0.5625 0L0 167.656" sodipodi:nodetypes="cc"/><path id="shape3" transform="translate(214.96874890307, 306.843748434256)" fill="#000000" fill-rule="evenodd" stroke="#afafaf" stroke-width="2" stroke-linecap="square" stroke-linejoin="bevel" d="M34.875 35.7187L0.5625 19.6875L0 1.125L36 16.5937L68.0625 0L68.0625 19.4062Z" sodipodi:nodetypes="ccccccc"/><path id="shape4" transform="translate(251.312498717618, 322.937498352135)" fill="none" stroke="#000000" stroke-width="2" stroke-linecap="square" stroke-linejoin="miter" stroke-miterlimit="2" d="M30.75 0L0 14.25" sodipodi:nodetypes="cc"/><path id="shape5" transform="translate(250.562498721446, 322.937498352135)" fill="none" stroke="#aaaaaa" stroke-width="2" stroke-linecap="square" stroke-linejoin="miter" stroke-miterlimit="2" d="M32.25 0L0 14.4375" sodipodi:nodetypes="cc"/><path id="shape6" transform="translate(250.781248720331, 319.546873369438)" fill="none" stroke="#aaaaaa" stroke-width="2" stroke-linecap="square" stroke-linejoin="miter" stroke-miterlimit="2" d="M31.5 0L0 13.6406" sodipodi:nodetypes="cc"/><ellipse id="shape01" transform="matrix(0.0462705821852979 0 0 0.0498316883634655 331.247854800663 395.439334393452)" rx="376.559925985548" ry="562.860013328412" cx="376.559925985548" cy="562.860013328412" fill="#595959" fill-rule="evenodd" stroke="#000000" stroke-width="6.48" stroke-linecap="square" stroke-linejoin="bevel"/><path id="shape011" transform="matrix(0.0462705821852979 0 0 0.0498316883634655 334.694705817895 425.808107715418)" fill="#afafaf" fill-rule="evenodd" stroke="#666666" stroke-width="6.48" stroke-linecap="square" stroke-linejoin="bevel" d="M0 291.033C68.6498 428.644 178.396 517.757 302.067 517.757C412.724 517.757 512.234 444.79 581.13 331.193C335.247 -123.482 461.331 -83.9266 0 291.033Z" sodipodi:nodetypes="cccc"/><path id="shape02" transform="matrix(0.0498316883634654 0 0 0.0498316883634655 336.387490584511 398.722246196611)" fill="#a3834c" stroke="#7c6346" stroke-width="5.76" stroke-linecap="square" stroke-linejoin="miter" stroke-miterlimit="2.16000008583069" d="M306.04 97.9274C296.605 77.6136 267.173 20.3831 257.22 0C130.046 236.758 51.6022 488.317 0 740.34L0.0396096 740.28C86.4273 598.325 190.17 521.888 297.289 504.827C296.914 504.158 299.831 368.525 306.04 97.9274ZM349.498 186.083C347.882 395.405 346.946 500.502 346.692 501.373C352.758 507.267 444.105 569.844 473.04 653.989C445.688 499.975 415.606 344.758 349.498 186.083Z" sodipodi:nodetypes="cccccccccc"/>
</svg>
