<?xml version="1.0" standalone="no"?>
<!DOCTYPE svg PUBLIC "-//W3C//DTD SVG 20010904//EN" "http://www.w3.org/TR/2001/REC-SVG-20010904/DTD/svg10.dtd">
<!-- Created using Krita: https://krita.org -->
<svg xmlns="http://www.w3.org/2000/svg" 
    xmlns:xlink="http://www.w3.org/1999/xlink"
    xmlns:krita="http://krita.org/namespaces/svg/krita"
    xmlns:sodipodi="http://sodipodi.sourceforge.net/DTD/sodipodi-0.dtd"
    width="512pt"
    height="512pt"
    viewBox="0 0 512 512">
    <style>
        .uniform-color {
            color: #CE3C34;
        }
        .uniform-undershirt-color {
            color: #5E5E5E;
        }
    </style>
<defs/>
<path id="shape0" transform="translate(40.9811977280418, 318.248753040741)" fill="currentColor" class="uniform-color" fill-rule="evenodd" stroke-opacity="0" stroke="#000000" stroke-width="0" stroke-linecap="square" stroke-linejoin="bevel" d="M252.408 0C218.854 11.4087 190.805 5.77526 162.33 1.46258L156.612 11.756L27.3725 53.3107L0 194.793L457.312 193.606L442.125 60.543L253.5 3.16803Z" sodipodi:nodetypes="ccccccccc"/><path id="shape1" transform="translate(80.9999967813572, 365.124985491272)" fill="none" stroke="#a3a3a3" stroke-width="3" stroke-linecap="square" stroke-linejoin="miter" stroke-miterlimit="2" d="M12.75 0L0 146.875" sodipodi:nodetypes="cc"/><path id="shape2" transform="translate(122.999995112431, 351.999986012812)" fill="none" stroke="#a3a3a3" stroke-width="3" stroke-linecap="square" stroke-linejoin="miter" stroke-miterlimit="2" d="M10 0L0 160" sodipodi:nodetypes="cc"/><path id="shape3" transform="translate(99.9999960263669, 359.499985714789)" fill="none" stroke="#a3a3a3" stroke-width="3" stroke-linecap="square" stroke-linejoin="miter" stroke-miterlimit="2" d="M10.75 0L0 152.5" sodipodi:nodetypes="cc"/><path id="shape4" transform="translate(56.9999977350291, 371.124985252854)" fill="none" stroke="#a3a3a3" stroke-width="3" stroke-linecap="square" stroke-linejoin="miter" stroke-miterlimit="2" d="M15.5 0L0 140.875" sodipodi:nodetypes="cc"/><path id="shape5" transform="translate(145.999994198496, 345.374986276065)" fill="none" stroke="#a3a3a3" stroke-width="3" stroke-linecap="square" stroke-linejoin="miter" stroke-miterlimit="2" d="M8.875 0L0 166.625" sodipodi:nodetypes="cc"/><path id="shape6" transform="translate(172.999993125615, 338.874986534351)" fill="none" stroke="#a3a3a3" stroke-width="3" stroke-linecap="square" stroke-linejoin="miter" stroke-miterlimit="2" d="M2.25 0L0 173.125" sodipodi:nodetypes="cc"/><path id="shape7" transform="translate(194.999992251415, 331.999986807538)" fill="none" stroke="#a3a3a3" stroke-width="3" stroke-linecap="square" stroke-linejoin="miter" stroke-miterlimit="2" d="M0 180L3 0" sodipodi:nodetypes="cc"/><path id="shape8" transform="translate(220.999991218271, 324.249987033538)" fill="none" stroke="#a3a3a3" stroke-width="3" stroke-linecap="square" stroke-linejoin="miter" stroke-miterlimit="2" d="M0 0L1 187.75" sodipodi:nodetypes="cc"/><path id="shape9" transform="translate(238.999990503017, 325.499986991318)" fill="none" stroke="#a3a3a3" stroke-width="3" stroke-linecap="square" stroke-linejoin="miter" stroke-miterlimit="2" d="M0 0L4 186.5" sodipodi:nodetypes="cc"/><path id="shape10" transform="translate(264.999989469872, 325.749986988835)" fill="none" stroke="#a3a3a3" stroke-width="3" stroke-linecap="square" stroke-linejoin="miter" stroke-miterlimit="2" d="M0.25 0L0 186.25" sodipodi:nodetypes="cc"/><path id="shape11" transform="translate(284.999988645343, 322.499987080725)" fill="none" stroke="#a3a3a3" stroke-width="3" stroke-linecap="square" stroke-linejoin="miter" stroke-miterlimit="2" d="M0 0L7 189.5" sodipodi:nodetypes="cc"/><path id="shape12" transform="translate(307.249987858068, 327.499986882044)" fill="none" stroke="#a3a3a3" stroke-width="3" stroke-linecap="square" stroke-linejoin="miter" stroke-miterlimit="2" d="M0 0L11.75 184.5" sodipodi:nodetypes="cc"/><path id="shape13" transform="translate(326.749987157715, 332.749986770285)" fill="none" stroke="#a3a3a3" stroke-width="3" stroke-linecap="square" stroke-linejoin="miter" stroke-miterlimit="2" d="M0 0L15.25 179.25" sodipodi:nodetypes="cc"/><path id="shape14" transform="translate(348.74998634312, 338.499986444944)" fill="none" stroke="#a3a3a3" stroke-width="3" stroke-linecap="square" stroke-linejoin="miter" stroke-miterlimit="2" d="M0 0L16.25 173.5" sodipodi:nodetypes="cc"/><path id="shape15" transform="translate(373.24998523547, 346.749986184174)" fill="none" stroke="#a3a3a3" stroke-width="3" stroke-linecap="square" stroke-linejoin="miter" stroke-miterlimit="2" d="M0 0L16.75 165.25" sodipodi:nodetypes="cc"/><path id="shape16" transform="translate(398.999984145204, 354.999985893603)" fill="none" stroke="#a3a3a3" stroke-width="3" stroke-linecap="square" stroke-linejoin="miter" stroke-miterlimit="2" d="M0 0L16 157" sodipodi:nodetypes="cc"/><path id="shape17" transform="translate(420.999983271005, 360.999985655185)" fill="none" stroke="#a3a3a3" stroke-width="3" stroke-linecap="square" stroke-linejoin="miter" stroke-miterlimit="2" d="M0 0L18 151" sodipodi:nodetypes="cc"/><path id="shape18" transform="translate(443.749982299948, 367.499985322393)" fill="none" stroke="#a3a3a3" stroke-width="3" stroke-linecap="square" stroke-linejoin="miter" stroke-miterlimit="2" d="M0 0L19.25 144.5" sodipodi:nodetypes="cc"/><path id="shape19" transform="translate(467.999981403397, 376.999985019403)" fill="none" stroke="#a3a3a3" stroke-width="3" stroke-linecap="square" stroke-linejoin="miter" stroke-miterlimit="2" d="M0 0L16 135" sodipodi:nodetypes="cc"/><path id="shape01" transform="translate(175.499988177731, 315.900453934786)" fill="currentColor" class="uniform-undershirt-color"  fill-rule="evenodd" stroke-opacity="0" stroke="#000000" stroke-width="0" stroke-linecap="square" stroke-linejoin="bevel" d="M28.362 0L0 21.787C2.54293 33.7574 15.2017 43.3475 32.4704 48.6951C35.8307 49.7356 59.9905 128.991 63.6593 129.696C67.2712 130.391 56.763 60.7914 54.2209 52.885C66.7443 100.709 71.3203 190.617 80.5 187.608C96.0812 101.111 101.952 156.868 105.435 47.0046C122.373 40.6905 137.907 28.6468 148.875 12.787L119.25 5.66203C88.9108 25.5389 29.7106 11.9284 28.362 0Z" sodipodi:nodetypes="cccccccccc"/>
</svg>
