<?xml version="1.0" standalone="no"?>
<!DOCTYPE svg PUBLIC "-//W3C//DTD SVG 20010904//EN" "http://www.w3.org/TR/2001/REC-SVG-20010904/DTD/svg10.dtd">
<!-- Created using Krita: https://krita.org -->
<svg xmlns="http://www.w3.org/2000/svg" 
    xmlns:xlink="http://www.w3.org/1999/xlink"
    xmlns:krita="http://krita.org/namespaces/svg/krita"
    xmlns:sodipodi="http://sodipodi.sourceforge.net/DTD/sodipodi-0.dtd"
    width="512pt"
    height="512pt"
    viewBox="0 0 512 512">
    <style>
        .uniform-color {
            color: #CE3C34;
        }
    </style>
<defs/>
<path id="shape0" transform="translate(40.4999972641475, 303.249979514883)" fill="#26447e" fill-rule="evenodd" stroke-opacity="0" stroke="#000000" stroke-width="0" stroke-linecap="square" stroke-linejoin="bevel" d="M158.25 0.75L195.75 3.75L204 72.75L215.5 3.75L258.75 0L258 16.5L444.75 71.25L459.75 208.75L0 208.75L26.25 64.5L155.25 25.5Z" sodipodi:nodetypes="cccccccccccc"/><path id="shape1" transform="translate(115.874992172434, 408.749972388199)" fill="none" stroke="#000000" stroke-width="5" stroke-linecap="square" stroke-linejoin="miter" stroke-miterlimit="2" d="M0 0L77.25 0" sodipodi:nodetypes="cc"/><path id="shape2" transform="translate(242.624983610243, 375.374974642741)" fill="none" stroke="#000000" stroke-width="5" stroke-linecap="square" stroke-linejoin="miter" stroke-miterlimit="2" d="M2.25 0L0 136.625" sodipodi:nodetypes="cc"/><path id="shape3" transform="translate(308.624979151824, 402.374972818842)" fill="none" stroke="#000000" stroke-width="5" stroke-linecap="square" stroke-linejoin="miter" stroke-miterlimit="2" d="M0 0L0 79.5" sodipodi:nodetypes="cc"/><path id="shape4" transform="translate(61.6874958328986, 328.499977809235)" fill="currentColor" class="uniform-color" fill-rule="evenodd" stroke-opacity="0" stroke="#000000" stroke-width="0" stroke-linecap="square" stroke-linejoin="bevel" d="M135.187 63.375L0 65.0625L2.8125 50.8125L117.75 48.1875L117.562 4.5L134.625 0Z" sodipodi:nodetypes="ccccccc"/><path id="shape01" transform="matrix(-1 0 0 1 487.781246161248 318.881228049142)" fill="currentColor" class="uniform-color" fill-rule="evenodd" stroke-opacity="0" stroke="#000000" stroke-width="0" stroke-linecap="square" stroke-linejoin="bevel" d="M190.013 74.7533L0 78.15L0.736308 65.2791L176.083 61.7609L175.114 3.76105L189.22 0Z" sodipodi:nodetypes="ccccccc"/><path id="shape5" transform="matrix(0.993506023417622 -0.113779529937975 0.113779529937975 0.993506023417622 473.152992570164 408.716313578629)" fill="#a6a6a6" fill-rule="evenodd" stroke="#a81f3d" stroke-width="4" stroke-linecap="square" stroke-linejoin="bevel" d="M16.2014 0C2.93264 -9.27061e-16 1.77636e-15 13.1695 0 28.3095C-1.77636e-15 43.4496 2.93264 54.827 16.2014 54.827" sodipodi:nodetypes="ccc"/>
</svg>
