<?xml version="1.0" standalone="no"?>
<!DOCTYPE svg PUBLIC "-//W3C//DTD SVG 20010904//EN" "http://www.w3.org/TR/2001/REC-SVG-20010904/DTD/svg10.dtd">
<!-- Created using Krita: https://krita.org -->
<svg xmlns="http://www.w3.org/2000/svg" 
    xmlns:xlink="http://www.w3.org/1999/xlink"
    xmlns:krita="http://krita.org/namespaces/svg/krita"
    xmlns:sodipodi="http://sodipodi.sourceforge.net/DTD/sodipodi-0.dtd"
    width="512pt"
    height="512pt"
    viewBox="0 0 512 512">
<defs/>
<path id="shape01" transform="translate(41.499703488037, 310.093729101076)" fill="#696969" fill-rule="evenodd" stroke-opacity="0" stroke="#000000" stroke-width="0" stroke-linecap="square" stroke-linejoin="bevel" d="M160.969 4.59375C165.081 11.1187 177.644 14.8062 198.656 15.6562L207.239 55.6593C207.059 54.8239 209.021 41.7604 213.125 16.4687C235 10.0375 249.063 5.88125 252.563 0C252.638 1.9125 252.763 5.1625 252.938 9.75L444.75 64.0313L459.75 201.531L0 201.531L26.25 57.2813L160.969 16.875C160.969 11.1438 160.969 7.05 160.969 4.59375Z" sodipodi:nodetypes="cccccccccccc"/><path id="shape0" transform="translate(48.0074751531614, 410.906632158687)" fill="#2b2b2b" fill-rule="evenodd" d="M19.9924 101.093L52.9723 6.57179L109.494 109.06L316.995 112.015L388.971 0L412.501 141.495L0 136.083Z" sodipodi:nodetypes="cccccccc"/><g id="group0" transform="translate(309, 440)" fill="none">
  <circle id="shape02" r="26.5" cx="26.5" cy="26.5" fill="none" stroke="#c3c3c3" stroke-width="6" stroke-linecap="square" stroke-linejoin="bevel"/>
  <circle id="shape1" transform="translate(16, 16.9062500082288)" r="10.5" cx="10.5" cy="10.5" fill="#c3c3c3" fill-rule="evenodd"/>
  <path id="shape2" transform="matrix(0.883212441990044 -0.468973114702736 0.468973114702736 0.883212441990044 5.81597431504923 30.4030446339048)" sodipodi:type="arc" sodipodi:rx="19" sodipodi:ry="5.8244265146272" sodipodi:cx="19.0013723977118" sodipodi:cy="4.82950616462255" sodipodi:start="5.36224688000047" sodipodi:end="4.11923429933036" sodipodi:open="true" d="M8.38076 0C1.53574 1.41456 -1.54642 4.02219 0.753982 6.45256C3.05439 8.88293 10.2109 10.5799 18.4628 10.6516C26.7146 10.7233 34.1734 9.15346 36.9194 6.76696C39.6654 4.38046 37.0703 1.72348 30.4978 0.192274" fill="none" stroke="#d9d9d9" stroke-width="4" stroke-linecap="square" stroke-linejoin="bevel"/>
  <path id="shape3" transform="translate(28.7268509919448, 4.49067612606757)" fill="#cccccc" fill-rule="evenodd" d="M4.17133 0L2.92043 3.3379L0 3.33852L2.64283 5.84118L0.974605 8.6229L4.72879 5.5626L8.48421 8.34316L6.81463 4.72775L9.45632 1.94582L5.70161 2.5029Z" sodipodi:nodetypes="ccccccccccc"/>
  <path id="shape03" transform="translate(18.5321375923662, 5.39283047035252)" fill="#cccccc" fill-rule="evenodd" stroke-opacity="0" stroke="#000000" stroke-width="0" stroke-linecap="square" stroke-linejoin="bevel" d="M4.17133 0L2.92043 3.3379L0 3.33852L2.64283 5.84118L0.974605 8.6229L4.72879 5.5626L8.48421 8.34316L6.81463 4.72775L9.45632 1.94582L5.70161 2.5029Z" sodipodi:nodetypes="ccccccccccc"/>
  <path id="shape04" transform="translate(9.43922965847008, 9.33227305300056)" fill="#cccccc" fill-rule="evenodd" stroke-opacity="0" stroke="#000000" stroke-width="0" stroke-linecap="square" stroke-linejoin="bevel" d="M4.17133 0L2.92043 3.3379L0 3.33852L2.64283 5.84118L0.974605 8.6229L4.72879 5.5626L8.48421 8.34316L6.81463 4.72775L9.45632 1.94582L5.70161 2.5029Z" sodipodi:nodetypes="ccccccccccc"/>
  <path id="shape05" transform="translate(14.7889882458983, 37.4561288636177)" fill="#cccccc" fill-rule="evenodd" stroke-opacity="0" stroke="#000000" stroke-width="0" stroke-linecap="square" stroke-linejoin="bevel" d="M4.17133 0L2.92043 3.3379L0 3.33852L2.64283 5.84118L0.974605 8.6229L4.72879 5.5626L8.48421 8.34316L6.81463 4.72775L9.45632 1.94582L5.70161 2.5029Z" sodipodi:nodetypes="ccccccccccc"/>
  <path id="shape06" transform="translate(25.6641074724819, 38.0163053124086)" fill="#cccccc" fill-rule="evenodd" stroke-opacity="0" stroke="#000000" stroke-width="0" stroke-linecap="square" stroke-linejoin="bevel" d="M4.17133 0L2.92043 3.3379L0 3.33852L2.64283 5.84118L0.974605 8.6229L4.72879 5.5626L8.48421 8.34316L6.81463 4.72775L9.45632 1.94582L5.70161 2.5029Z" sodipodi:nodetypes="ccccccccccc"/>
  <path id="shape07" transform="translate(35.7178099106017, 31.507883786112)" fill="#cccccc" fill-rule="evenodd" stroke-opacity="0" stroke="#000000" stroke-width="0" stroke-linecap="square" stroke-linejoin="bevel" d="M4.17133 0L2.92043 3.3379L0 3.33852L2.64283 5.84118L0.974605 8.6229L4.72879 5.5626L8.48421 8.34316L6.81463 4.72775L9.45632 1.94582L5.70161 2.5029Z" sodipodi:nodetypes="ccccccccccc"/>
  <path id="shape08" transform="translate(38.833592323703, 23.0321946665507)" fill="#cccccc" fill-rule="evenodd" stroke-opacity="0" stroke="#000000" stroke-width="0" stroke-linecap="square" stroke-linejoin="bevel" d="M4.17133 0L2.92043 3.3379L0 3.33852L2.64283 5.84118L0.974605 8.6229L4.72879 5.5626L8.48421 8.34316L6.81463 4.72775L9.45632 1.94582L5.70161 2.5029Z" sodipodi:nodetypes="ccccccccccc"/>
  <path id="shape09" transform="translate(4.40204773835205, 16.2333252102863)" fill="#cccccc" fill-rule="evenodd" stroke-opacity="0" stroke="#000000" stroke-width="0" stroke-linecap="square" stroke-linejoin="bevel" d="M4.17133 0L2.92043 3.3379L0 3.33852L2.64283 5.84118L0.974605 8.6229L4.72879 5.5626L8.48421 8.34316L6.81463 4.72775L9.45632 1.94582L5.70161 2.5029Z" sodipodi:nodetypes="ccccccccccc"/>
 </g><rect id="shape4" transform="matrix(0.974006620218175 0.226519543905537 -0.226519543905537 0.974006620218175 298.176059868967 320.57082885774)" fill="#575757" fill-rule="evenodd" width="197.586838630543" height="17.9712316631115"/><rect id="shape010" transform="matrix(0.955301372850557 -0.295633704150671 0.295633704150671 0.955301372850557 65.5778761780327 367.802380488471)" fill="#575757" fill-rule="evenodd" stroke-opacity="0" stroke="#000000" stroke-width="0" stroke-linecap="square" stroke-linejoin="bevel" width="141.790858125411" height="17.9712316631115"/>
</svg>
