<?xml version="1.0" standalone="no"?>
<!DOCTYPE svg PUBLIC "-//W3C//DTD SVG 20010904//EN" "http://www.w3.org/TR/2001/REC-SVG-20010904/DTD/svg10.dtd">
<!-- Created using Krita: https://krita.org -->
<svg xmlns="http://www.w3.org/2000/svg" 
    xmlns:xlink="http://www.w3.org/1999/xlink"
    xmlns:krita="http://krita.org/namespaces/svg/krita"
    xmlns:sodipodi="http://sodipodi.sourceforge.net/DTD/sodipodi-0.dtd"
    width="512pt"
    height="512pt"
    viewBox="0 0 512 512">
<defs/>
<path id="shape0" transform="translate(40.1249984055812, 323.99998712544)" fill="#000000" fill-rule="evenodd" d="M0 188L29.0625 42.9375L163.125 2.0625L257.625 0L444.75 56.625L457.5 193.125Z" sodipodi:nodetypes="ccccccc"/><path id="shape1" transform="translate(87.3749965280412, 386.249984651856)" fill="#545454" fill-rule="evenodd" d="M102 10.875L148.5 157.875L222.375 0L365.625 45.375L310.875 167.25L143.625 172.875L27.375 159L0 35.625Z" sodipodi:nodetypes="ccccccccc"/><path id="shape2" transform="translate(68.9999993145556, 321.499997014843)" fill="#6c6c6c" fill-rule="evenodd" stroke="#979797" stroke-width="0.03" stroke-linecap="square" stroke-linejoin="bevel" d="M226.75 0L412.5 58.5C406.85 101.1 398.35 122.6 387 123C374.075 132.6 304.825 111.517 179.25 59.75C83.425 109.942 31.675 130.525 24 121.5C13.325 121.275 5.325 96.1083 0 46L135.25 5.5Z" sodipodi:nodetypes="cccccccc"/><path id="shape3" transform="translate(77.9999969005694, 349.499986112167)" fill="none" stroke="#768092" stroke-width="5" stroke-linecap="square" stroke-linejoin="miter" stroke-miterlimit="2" d="M99.5 0L0 35.5" sodipodi:nodetypes="cc"/><path id="shape4" transform="translate(80.2499944195266, 364.499974653177)" fill="none" stroke="#768092" stroke-width="5" stroke-linecap="square" stroke-linejoin="miter" stroke-miterlimit="2" d="M107.25 0L0 36.75" sodipodi:nodetypes="cc"/><path id="shape5" transform="translate(89.9999937415251, 382.874973375405)" fill="none" stroke="#768092" stroke-width="5" stroke-linecap="square" stroke-linejoin="miter" stroke-miterlimit="2" d="M106.5 0L0 36.375" sodipodi:nodetypes="cc"/><path id="shape6" transform="translate(328.87497713049, 346.874975878795)" fill="none" stroke="#768092" stroke-width="6" stroke-linecap="square" stroke-linejoin="miter" stroke-miterlimit="2" d="M0 0L127.5 41.25" sodipodi:nodetypes="cc"/><path id="shape7" transform="translate(314.999978095338, 362.624974783562)" fill="none" stroke="#768092" stroke-width="6" stroke-linecap="square" stroke-linejoin="miter" stroke-miterlimit="2" d="M0 0L137.625 47.25" sodipodi:nodetypes="cc"/><path id="shape8" transform="translate(298.874979216648, 383.249973349328)" fill="none" stroke="#768092" stroke-width="6" stroke-linecap="square" stroke-linejoin="miter" stroke-miterlimit="2" d="M0 0L149.25 45.75" sodipodi:nodetypes="cc"/><path id="shape9" transform="translate(280.874980468343, 417.374970976323)" fill="none" stroke="#576275" stroke-width="5" stroke-linecap="square" stroke-linejoin="miter" stroke-miterlimit="2" d="M44.25 0L0 100.5" sodipodi:nodetypes="cc"/><path id="shape10" transform="translate(309.749978460416, 430.124970089705)" fill="none" stroke="#576275" stroke-width="5" stroke-linecap="square" stroke-linejoin="miter" stroke-miterlimit="2" d="M41.25 0L0 93.375" sodipodi:nodetypes="cc"/><path id="shape11" transform="translate(335.249976687181, 440.249969385627)" fill="none" stroke="#576275" stroke-width="5" stroke-linecap="square" stroke-linejoin="miter" stroke-miterlimit="2" d="M43.875 0L0 88.5" sodipodi:nodetypes="cc"/><path id="shape12" transform="translate(364.124974679254, 451.124968629395)" fill="none" stroke="#576275" stroke-width="5" stroke-linecap="square" stroke-linejoin="miter" stroke-miterlimit="2" d="M44.625 0L0 78.75" sodipodi:nodetypes="cc"/><path id="shape13" transform="translate(181.499987378742, 424.874970454783)" fill="none" stroke="#576275" stroke-width="5" stroke-linecap="square" stroke-linejoin="miter" stroke-miterlimit="2" d="M0 0L22.875 112.125" sodipodi:nodetypes="cc"/><path id="shape14" transform="translate(154.499989256285, 440.999969333473)" fill="none" stroke="#576275" stroke-width="5" stroke-linecap="square" stroke-linejoin="miter" stroke-miterlimit="2" d="M0 0L19.5 83.25" sodipodi:nodetypes="cc"/><path id="shape15" transform="translate(125.249991290289, 450.374968681549)" fill="none" stroke="#576275" stroke-width="5" stroke-linecap="square" stroke-linejoin="miter" stroke-miterlimit="2" d="M0 0L20.625 80.25" sodipodi:nodetypes="cc"/><path id="shape16" transform="translate(173.749998341027, 298.499997034708)" fill="#777777" fill-rule="evenodd" stroke="#485266" stroke-width="6" stroke-linecap="square" stroke-linejoin="bevel" d="M28.75 0L121.75 4L124.75 24L157.25 36.5C130.379 99.4413 101.337 129.858 70.125 127.75C38.9127 125.642 15.5377 95.6421 0 37.75L27.25 30.5Z" sodipodi:nodetypes="cccczccc"/><path id="shape17" transform="translate(95.999996185316, 496.124980285832)" fill="none" stroke="#768092" stroke-width="15" stroke-linecap="butt" stroke-linejoin="round" d="M0 4.5L344.25 0" sodipodi:nodetypes="cc"/><path id="shape18" transform="translate(213.124985179583, 484.124980762668)" fill="#864c11" fill-rule="evenodd" stroke="#a29032" stroke-width="12" stroke-linecap="butt" stroke-linejoin="miter" stroke-miterlimit="2" d="M0 16.125L13.2665 0.375L40.01 0L52.75 14.625L40.01 30.75L12.6347 32.75Z" sodipodi:nodetypes="ccccccc"/>
</svg>
