<?xml version="1.0" standalone="no"?>
<!DOCTYPE svg PUBLIC "-//W3C//DTD SVG 20010904//EN" "http://www.w3.org/TR/2001/REC-SVG-20010904/DTD/svg10.dtd">
<!-- Created using Krita: https://krita.org -->
<svg xmlns="http://www.w3.org/2000/svg" 
    xmlns:xlink="http://www.w3.org/1999/xlink"
    xmlns:krita="http://krita.org/namespaces/svg/krita"
    xmlns:sodipodi="http://sodipodi.sourceforge.net/DTD/sodipodi-0.dtd"
    width="512pt"
    height="512pt"
    viewBox="0 0 512 512">
<defs/>
<path id="shape0" transform="translate(39.4999996076075, 376.499996259854)" fill="#191813" fill-rule="evenodd" d="M26.5 9.5L0 135.5L461.5 135.5L442 0Z" sodipodi:nodetypes="ccccc"/><path id="shape1" transform="translate(416.624971028469, 450.749968655463)" fill="#3b392e" fill-rule="evenodd" d="M0 17.25L7.5 75.375L85.125 60.875L76.5 0Z" sodipodi:nodetypes="ccccc"/><path id="shape2" transform="translate(38.6249973140705, 448.124968838002)" fill="#3b392e" fill-rule="evenodd" d="M13.875 0L75.375 21.375L58.875 79.125L0 67.875Z" sodipodi:nodetypes="ccccc"/><path id="shape3" transform="translate(397.124972384472, 391.499972775627)" fill="#49473f" fill-rule="evenodd" d="M92.625 0L102.75 64.875L11.625 82.125L0 12.375Z" sodipodi:nodetypes="ccccc"/><path id="shape4" transform="translate(44.6249968968387, 388.874972958166)" fill="#49473f" fill-rule="evenodd" d="M17.625 0L99.375 20.25L71.25 91.875L0 61.125Z" sodipodi:nodetypes="ccccc"/><path id="shape5" transform="translate(42.4999995778055, 292.374997073199)" fill="#363636" fill-rule="evenodd" d="M161 5.5L160 36.5L137.5 46L115.5 25L108 54L72 37.5L66 66.5L31 47L26 81.5L0 75L9 104.5C100.976 136.167 211.151 267.278 213.5 295.5C217.224 267.847 312.715 133.687 457 108C476.94 85.3753 475.273 68.2087 452 56.5L424.5 75.5L409 44L374.5 64L352 28L333 50L324.5 20L307 46.5L254.5 28.5L254 0L240 20L229 8.5L213.5 22L204.5 8L195.5 24.5L181.5 5.5L174.5 21.5Z" sodipodi:nodetypes="ccccccccccccccccccccccccccccccc"/><path id="shape6" transform="translate(140.124990673132, 417.428981288351)" fill="none" stroke="#000000" stroke-width="5" stroke-linecap="square" stroke-linejoin="miter" stroke-miterlimit="2" d="M0 22.946C84.3189 -7.64951 150.529 -7.9381 239.375 23.821" sodipodi:nodetypes="cc"/><path id="shape7" transform="translate(153.874989553063, 435.988909181244)" fill="none" stroke="#000000" stroke-width="5" stroke-linecap="square" stroke-linejoin="miter" stroke-miterlimit="2" d="M0 19.2611C69.6295 -6.87404 143.979 -5.50833 214.25 17.8861" sodipodi:nodetypes="cc"/><path id="shape8" transform="translate(178.124987613432, 458.853842133001)" fill="none" stroke="#000000" stroke-width="5" stroke-linecap="square" stroke-linejoin="miter" stroke-miterlimit="2" d="M0 16.6461C53.998 -5.18106 109.941 -5.91334 156.375 16.6461" sodipodi:nodetypes="cc"/><path id="shape9" transform="translate(202.624985626613, 483.757909038661)" fill="none" stroke="#000000" stroke-width="5" stroke-linecap="square" stroke-linejoin="miter" stroke-miterlimit="2" d="M0 11.4921C30.4647 -1.81553 69.8847 -4.99402 112.625 9.61706" sodipodi:nodetypes="cc"/><path id="shape10" transform="translate(125.999991238133, 397.124972384472)" fill="none" stroke="#000000" stroke-width="5" stroke-linecap="square" stroke-linejoin="bevel" d="M0 27.375C48.567 20.1206 90.0412 10.6742 130 0C175.934 9.92166 223.196 22.3923 269.25 23.625" sodipodi:nodetypes="ccc"/><path id="shape11" transform="translate(99.374992631388, 343.499976091129)" fill="none" stroke="#000000" stroke-width="5" stroke-linecap="square" stroke-linejoin="bevel" d="M336.375 59.25C276.403 41.6801 200.619 33.5476 156.625 0C120.937 32.8051 52.1474 44.3433 0 62.625" sodipodi:nodetypes="ccc"/><path id="shape12" transform="translate(86.2499940022933, 323.999977435957)" fill="none" stroke="#000000" stroke-width="5" stroke-linecap="square" stroke-linejoin="bevel" d="M0 67.5C66.6204 60.4283 122.117 31.0553 169.75 0C225.647 37.1708 310.269 53.427 382.875 68.625" sodipodi:nodetypes="ccc"/><path id="shape01" transform="translate(112.04031085065, 367.227792909687)" fill="none" stroke="#000000" stroke-width="5" stroke-linecap="square" stroke-linejoin="bevel" d="M303.375 45.375C242.278 36.0551 162.454 17.4226 143.96 0C126.272 17.8075 52.1474 42.637 0 48.75" sodipodi:nodetypes="ccc"/>
</svg>
