<?xml version="1.0" standalone="no"?>
<!DOCTYPE svg PUBLIC "-//W3C//DTD SVG 20010904//EN" "http://www.w3.org/TR/2001/REC-SVG-20010904/DTD/svg10.dtd">
<!-- Created using Krita: https://krita.org -->
<svg xmlns="http://www.w3.org/2000/svg" 
    xmlns:xlink="http://www.w3.org/1999/xlink"
    xmlns:krita="http://krita.org/namespaces/svg/krita"
    xmlns:sodipodi="http://sodipodi.sourceforge.net/DTD/sodipodi-0.dtd"
    width="512pt"
    height="512pt"
    viewBox="0 0 512 512">
<defs/>
<path id="shape0" transform="translate(40.1249984055812, 323.99998712544)" fill="#000000" fill-rule="evenodd" d="M0 188L29.0625 42.9375L163.125 2.0625L257.625 0L444.75 56.625L457.5 193.125Z" sodipodi:nodetypes="ccccccc"/><path id="shape1" transform="translate(87.3749965280412, 421.874983236251)" fill="#302821" fill-rule="evenodd" d="M365.625 9.75L310.875 131.625L143.625 137.25L27.375 123.375L0 0L155.012 29.3603Z" sodipodi:nodetypes="ccccccc"/><path id="shape2" transform="translate(148.124994114063, 446.999982237882)" fill="none" stroke="#1b1611" stroke-width="10" stroke-linecap="square" stroke-linejoin="miter" stroke-miterlimit="2" d="M0 0L3.75 77.625" sodipodi:nodetypes="cc"/><path id="shape3" transform="translate(215.249991446765, 445.874982282586)" fill="none" stroke="#1b1611" stroke-width="10" stroke-linecap="square" stroke-linejoin="miter" stroke-miterlimit="2" d="M0.75 0L0 93.75" sodipodi:nodetypes="cc"/><path id="shape4" transform="translate(272.624989166896, 446.624982252783)" fill="none" stroke="#1b1611" stroke-width="10" stroke-linecap="square" stroke-linejoin="miter" stroke-miterlimit="2" d="M9 0L0 76.875" sodipodi:nodetypes="cc"/><path id="shape5" transform="translate(339.374986514499, 441.749982446498)" fill="none" stroke="#1b1611" stroke-width="10" stroke-linecap="square" stroke-linejoin="miter" stroke-miterlimit="2" d="M12.75 0L0 100.5" sodipodi:nodetypes="cc"/><path id="shape6" transform="translate(387.749984592257, 445.499982297487)" fill="none" stroke="#1b1611" stroke-width="10" stroke-linecap="square" stroke-linejoin="miter" stroke-miterlimit="2" d="M18.375 0L0 106.5" sodipodi:nodetypes="cc"/><path id="shape7" transform="translate(101.999995946899, 447.374982222981)" fill="none" stroke="#1b1611" stroke-width="10" stroke-linecap="square" stroke-linejoin="miter" stroke-miterlimit="2" d="M0 0L16.5 78.75" sodipodi:nodetypes="cc"/><path id="shape8" transform="translate(46.235069321114, 321.499997014843)" fill="#483019" fill-rule="evenodd" stroke="#979797" stroke-width="0.03" stroke-linecap="square" stroke-linejoin="bevel" d="M249.452 0L410.125 35.2849L413.074 29.7749L406.326 25.198L411.874 16.6325L454.421 35.3787L436.541 35.2206L435.512 39.256L440.702 42C449.386 95.2667 448.052 122.1 436.702 122.5C417.315 136.9 27.7149 135.037 16.2024 121.5C5.52743 121.275 6.36076 93.9417 18.7024 39.5L20.8945 38.4371L18.7174 31.9823L0 33.0858L48.0839 11.0844L50.888 22.1598L43.8596 24.5753L47.7853 32.399L157.952 5.5Z" sodipodi:nodetypes="ccccccccccccccccccccc"/><path id="shape9" transform="translate(74.9374970222624, 368.999985337312)" fill="none" stroke="#30251b" stroke-width="5" stroke-linecap="square" stroke-linejoin="miter" stroke-miterlimit="2" d="M0 0L395.625 1.5" sodipodi:nodetypes="cc"/><path id="shape10" transform="translate(72.3749971240866, 396.74998423463)" fill="none" stroke="#30251b" stroke-width="5" stroke-linecap="square" stroke-linejoin="miter" stroke-miterlimit="2" d="M0 0L397.125 4.5" sodipodi:nodetypes="cc"/><path id="shape11" transform="translate(68.6249972730977, 425.249983102146)" fill="none" stroke="#30251b" stroke-width="5" stroke-linecap="square" stroke-linejoin="miter" stroke-miterlimit="2" d="M0 0.75L399 0" sodipodi:nodetypes="cc"/><path id="shape12" transform="translate(173.749998341027, 298.499997034708)" fill="#27211a" fill-rule="evenodd" stroke="#4f3e27" stroke-width="6" stroke-linecap="square" stroke-linejoin="bevel" d="M28.75 0L121.75 4L124.75 24L157.25 36.5C113.712 77.7746 85.004 97.6913 71.125 96.25C57.246 94.8087 33.5377 75.3087 0 37.75L27.25 30.5Z" sodipodi:nodetypes="cccczccc"/><ellipse id="shape13" transform="translate(206.499998783074, 342.937486372938)" rx="10.1874961008781" ry="9.5312569526082" cx="10.1874961008781" cy="9.5312569526082" fill="none" stroke="#91887f" stroke-width="5" stroke-linecap="square" stroke-linejoin="bevel"/><ellipse id="shape14" transform="translate(269.062489308456, 341.624986425092)" rx="11.2500060423998" ry="10.0312569873775" cx="11.2500060423998" cy="10.0312569873775" fill="none" stroke="#91887f" stroke-width="5" stroke-linecap="square" stroke-linejoin="bevel"/><path id="shape15" transform="translate(246.749990195072, 306.937487803444)" fill="none" stroke="#30271e" stroke-width="5" stroke-linecap="square" stroke-linejoin="miter" stroke-miterlimit="2" d="M3.1875 0L0 81.9375" sodipodi:nodetypes="cc"/><path id="shape16" transform="translate(282.937488757115, 307.874987766191)" fill="none" stroke="#30271e" stroke-width="5" stroke-linecap="square" stroke-linejoin="bevel" d="M0 0L5.4375 23.25L27 39.75" sodipodi:nodetypes="ccc"/><path id="shape17" transform="translate(193.874992296128, 306.749987810895)" fill="none" stroke="#30271e" stroke-width="5" stroke-linecap="square" stroke-linejoin="bevel" d="M24.375 0L20.625 26.0625L0 42" sodipodi:nodetypes="ccc"/><path id="shape18" transform="translate(231.000000000019, 429.999998211755)" sodipodi:type="arc" sodipodi:rx="18" sodipodi:ry="18" sodipodi:cx="17.9999999999815" sodipodi:cy="18.0000017882451" sodipodi:start="3.14159408592367" sodipodi:end="0.0253094949512409" sodipodi:open="true" d="M35.9942 18.4555C36.1584 11.9725 32.8225 5.90245 27.2617 2.56562C21.701 -0.771212 14.7752 -0.858866 9.13185 2.33616C3.48846 5.53119 9.28877e-06 11.5149 0 18" fill="#1c1c1c" fill-rule="evenodd" stroke="none" stroke-width="10" stroke-linecap="square" stroke-linejoin="bevel"/>
</svg>
