<?xml version="1.0" standalone="no"?>
<!DOCTYPE svg PUBLIC "-//W3C//DTD SVG 20010904//EN" "http://www.w3.org/TR/2001/REC-SVG-20010904/DTD/svg10.dtd">
<!-- Created using Krita: https://krita.org -->
<svg xmlns="http://www.w3.org/2000/svg" 
    xmlns:xlink="http://www.w3.org/1999/xlink"
    xmlns:krita="http://krita.org/namespaces/svg/krita"
    xmlns:sodipodi="http://sodipodi.sourceforge.net/DTD/sodipodi-0.dtd"
    width="512pt"
    height="512pt"
    viewBox="0 0 512 512">
<defs/>
<path id="shape0" transform="translate(99.4999931503949, 425.636384011315)" fill="#000000" fill-rule="evenodd" stroke-opacity="0" stroke="#000000" stroke-width="0" stroke-linecap="square" stroke-linejoin="bevel" d="M0 86.3636L354.5 86.3636L211.842 0C164.717 10.3786 127.769 24.8078 76.8357 0.19265Z" sodipodi:nodetypes="ccccc"/><path id="shape1" transform="translate(58.9387521975031, 330.954721233721)" fill="#1c1c1c" fill-rule="evenodd" stroke-opacity="0" stroke="#000000" stroke-width="0" stroke-linecap="square" stroke-linejoin="bevel" d="M30.0612 181.045L38.5612 118.045L0 89.7023C1.66667 80.7023 3.39458 46.0453 9.56125 37.0453L143.561 0.0452758C149.564 -0.385471 153.426 2.31865 173.561 5.54528C135.733 42.2012 119.955 163.343 127.061 181.045Z" sodipodi:nodetypes="cccccccc"/><path id="shape2" transform="translate(251.000000344201, 321.499997030751)" fill="#1c1c1c" fill-rule="evenodd" stroke-opacity="0" stroke="#000000" stroke-width="0" stroke-linecap="square" stroke-linejoin="bevel" d="M46 0C25.3876 14.6345 5.66113 7.35362 0 7C26.4988 54.252 34.55 124.561 26.5 190.5L208 190.5L205 133.5L239.781 99.8853C237.286 95.541 240.701 62.4309 234 55Z" sodipodi:nodetypes="cccccccc"/>
</svg>
