<?xml version="1.0" standalone="no"?>
<!DOCTYPE svg PUBLIC "-//W3C//DTD SVG 20010904//EN" "http://www.w3.org/TR/2001/REC-SVG-20010904/DTD/svg10.dtd">
<!-- Created using Krita: https://krita.org -->
<svg xmlns="http://www.w3.org/2000/svg" 
    xmlns:xlink="http://www.w3.org/1999/xlink"
    xmlns:krita="http://krita.org/namespaces/svg/krita"
    xmlns:sodipodi="http://sodipodi.sourceforge.net/DTD/sodipodi-0.dtd"
    width="512pt"
    height="512pt"
    viewBox="0 0 512 512">
<defs/>
<path id="shape0" transform="translate(47.249998122465, 319.499987304287)" fill="#000000" fill-rule="evenodd" stroke="none" stroke-width="3" stroke-linecap="square" stroke-linejoin="bevel" d="M377.25 192.5L372.75 168L447.75 154.875L438 58.5L246 0L241.125 42.375C206.047 89.1957 181.774 77.6718 161.625 43.875L156.75 8.25L18 51L0 154.5L60 173.25L59.25 192.5Z" sodipodi:nodetypes="ccccccccccccc"/><path id="shape1" transform="translate(82.4999967217645, 319.031237275417)" fill="#c6b487" fill-rule="evenodd" d="M344.25 192.969L341.94 163.282L352.125 42.8437L211.687 0C167.921 64.8405 161.412 67.4555 120.375 6.84375L0 45.8437L23.625 172.219L23.25 192.969Z" sodipodi:nodetypes="ccccccccc"/><path id="shape2" transform="translate(170.999988108915, 292.124979686064)" fill="#4d4327" fill-rule="evenodd" d="M73.125 77.625L33 34.5L31.875 9.75L0 45.75L74.625 83.25L160.125 37.875L123.375 0L123 28.125Z" sodipodi:nodetypes="ccccccccc"/>
</svg>
