<?xml version="1.0" standalone="no"?>
<!DOCTYPE svg PUBLIC "-//W3C//DTD SVG 20010904//EN" "http://www.w3.org/TR/2001/REC-SVG-20010904/DTD/svg10.dtd">
<!-- Created using Krita: https://krita.org -->
<svg xmlns="http://www.w3.org/2000/svg" 
    xmlns:xlink="http://www.w3.org/1999/xlink"
    xmlns:krita="http://krita.org/namespaces/svg/krita"
    xmlns:sodipodi="http://sodipodi.sourceforge.net/DTD/sodipodi-0.dtd"
    width="512pt"
    height="512pt"
    viewBox="0 0 512 512">
    <style>
        .uniform-color {
            color: #a57829;
        }
    </style>
<defs/>
<path id="shape0" transform="translate(41.249998179992, 325.764434180139)" fill="currentColor" class="uniform-color" fill-rule="evenodd" d="M262.639 0L157.992 5.91224L27.9232 46.7067L0 186.236L459.75 186.236L443.25 51.4855Z" sodipodi:nodetypes="ccccccc"/><path id="shape1" transform="translate(93.749993069651, 314.999976714027)" fill="#505050" fill-rule="evenodd" d="M109.5 0L207 0.75L214.5 10.5L337.5 47.25L244.5 179.25L173.25 169.5L61.5 186L0 48.75L105 10.5Z" sodipodi:nodetypes="cccccccccc"/><path id="shape2" transform="translate(186.337158475454, 289.895525229897)" fill="currentColor" class="uniform-color" fill-rule="evenodd" d="M116.663 27.3545L114.413 5.60447C80.1986 14.0687 11.4496 -2.59412 3.41284 0.354471C-3.16397 6.56607 1.13092 18.2135 4.91284 29.6045C41.6271 33.1401 78.6255 34.403 116.663 27.3545Z" sodipodi:nodetypes="ccccc"/><path id="shape3" transform="translate(198.749997154083, 326.999995317661)" fill="none" stroke="#393939" stroke-width="3" stroke-linecap="square" stroke-linejoin="miter" stroke-miterlimit="2" d="M0 0L108.75 0.75" sodipodi:nodetypes="cc"/><path id="shape4" transform="translate(129.7499981421, 352.499994952525)" fill="none" stroke="#393939" stroke-width="3" stroke-linecap="square" stroke-linejoin="miter" stroke-miterlimit="2" d="M0 0L52.5 141.75" sodipodi:nodetypes="cc"/><path id="shape5" transform="translate(167.249997605134, 337.499995167311)" fill="none" stroke="#393939" stroke-width="3" stroke-linecap="square" stroke-linejoin="miter" stroke-miterlimit="2" d="M0 0L49.5 153" sodipodi:nodetypes="cc"/><path id="shape6" transform="translate(196.499997186301, 329.249995285443)" fill="none" stroke="#393939" stroke-width="3" stroke-linecap="square" stroke-linejoin="miter" stroke-miterlimit="2" d="M0 0L45.75 156.75" sodipodi:nodetypes="cc"/><path id="shape7" transform="translate(256, 331.499995253225)" fill="none" stroke="#393939" stroke-width="3" stroke-linecap="square" stroke-linejoin="miter" stroke-miterlimit="2" d="M0 0L10.25 150.75" sodipodi:nodetypes="cc"/><path id="shape8" transform="translate(288.749995865366, 331.499995253225)" fill="none" stroke="#393939" stroke-width="3" stroke-linecap="square" stroke-linejoin="miter" stroke-miterlimit="2" d="M21 0L0 155.25" sodipodi:nodetypes="cc"/><path id="shape9" transform="translate(317.249995457272, 340.499995124354)" fill="none" stroke="#393939" stroke-width="3" stroke-linecap="square" stroke-linejoin="miter" stroke-miterlimit="2" d="M34.5 0L0 149.25" sodipodi:nodetypes="cc"/><path id="shape10" transform="translate(336.24999518521, 350.999994974003)" fill="none" stroke="#393939" stroke-width="3" stroke-linecap="square" stroke-linejoin="miter" stroke-miterlimit="2" d="M52.25 0L0 142" sodipodi:nodetypes="cc"/><path id="shape11" transform="translate(106.124998871543, 380.624994158645)" fill="none" stroke="#393939" stroke-width="3" stroke-linecap="square" stroke-linejoin="bevel" d="M0 9.1875L49.875 121.875L162.375 104.625L232.375 113.375L310.125 0" sodipodi:nodetypes="ccccc"/><path id="shape12" transform="translate(51.7499992589877, 357.74999487735)" fill="#aaaaaa" fill-rule="evenodd" d="M59.25 0L83.25 48.75L15.75 108.75L0 93.75L15.75 12Z" sodipodi:nodetypes="cccccc"/><path id="shape13" transform="translate(402.749994232991, 353.999994931046)" fill="#aaaaaa" fill-rule="evenodd" d="M13.5 0L0 75L73.5 92.25L92.25 84L84.75 21Z" sodipodi:nodetypes="cccccc"/><circle id="shape14" transform="translate(197, 297)" r="8.5" cx="8.5" cy="8.5" fill="#b3b3b3" fill-rule="evenodd" stroke="#aaaaaa" stroke-width="3" stroke-linecap="square" stroke-linejoin="bevel"/><circle id="shape15" transform="translate(226.999999971362, 301.999999957043)" r="6.5" cx="6.5" cy="6.5" fill="#b3b3b3" fill-rule="evenodd" stroke="#aaaaaa" stroke-width="3" stroke-linecap="square" stroke-linejoin="bevel"/>
</svg>
