<?xml version="1.0" standalone="no"?>
<!DOCTYPE svg PUBLIC "-//W3C//DTD SVG 20010904//EN" "http://www.w3.org/TR/2001/REC-SVG-20010904/DTD/svg10.dtd">
<!-- Created using Krita: https://krita.org -->
<svg xmlns="http://www.w3.org/2000/svg" 
    xmlns:xlink="http://www.w3.org/1999/xlink"
    xmlns:krita="http://krita.org/namespaces/svg/krita"
    xmlns:sodipodi="http://sodipodi.sourceforge.net/DTD/sodipodi-0.dtd"
    width="512pt"
    height="512pt"
    viewBox="0 0 512 512">
    <style>
        .uniform-color {
            color: #2678B3;
        }
    </style>
<defs/>
<path id="shape01" transform="translate(42.347728418999, 309.631550713397)" fill="currentColor" class="uniform-color" fill-rule="evenodd" stroke-opacity="0" stroke="#000000" stroke-width="0" stroke-linecap="square" stroke-linejoin="bevel" d="M159.594 4.59375C163.706 11.1187 178.019 14.5558 199.031 15.4058L206.362 49.9092C206.182 49.0738 206.896 41.2606 211 15.9689C232.875 9.53766 247.688 5.88125 251.188 0C251.263 1.9125 251.763 7.59992 251.938 12.1874L443.75 66.4687L458 202.368L0 202.368L25.6252 59.5311L160.157 19.6874C160.157 13.9562 159.594 7.05 159.594 4.59375Z" sodipodi:nodetypes="cccccccccccc"/><path id="shape011" transform="translate(67.7499972641475, 311.468729056755)" fill="#777777" fill-rule="evenodd" stroke-opacity="0" stroke="#000000" stroke-width="0" stroke-linecap="square" stroke-linejoin="bevel" d="M134.719 4.59375C138.831 11.1187 151.394 14.8062 172.406 15.6562L180.989 55.6593C180.809 54.8239 182.771 41.7604 186.875 16.4687C208.75 10.0375 222.813 5.88125 226.313 0C226.388 1.9125 226.513 5.1625 226.688 9.75L418.5 64.0313L421.362 89.6256L229.192 32.0904L182.732 59.4654L132.234 37.2609L0.26616 74.379L0 57.2813L134.719 16.875C134.719 11.1438 134.719 7.05 134.719 4.59375Z" sodipodi:nodetypes="ccccccccccccccc"/><circle id="shape0" transform="translate(309, 440)" r="26.5" cx="26.5" cy="26.5" fill="#b2b2b2" fill-rule="evenodd" stroke-opacity="0.431372549019608" stroke="#262626" stroke-width="6" stroke-linecap="square" stroke-linejoin="bevel"/><path id="shape7" transform="matrix(1.03834288284842 0 0 0.576686962404962 99.1249964111797 464.768203411463)" fill="#000000" fill-rule="evenodd" stroke-opacity="0" stroke="#000000" stroke-width="0" stroke-linecap="square" stroke-linejoin="bevel" d="M3.75 2.27692C34.145 -6.43948 55.7042 7.76381 54.1577 81.9019L0 81.9019Z" sodipodi:nodetypes="cccc"/><path id="shape8" transform="matrix(0.931200019832838 0 0 0.576686962404962 381.530784956449 462.430240400862)" fill="#000000" fill-rule="evenodd" stroke-opacity="0" stroke="#000000" stroke-width="0" stroke-linecap="square" stroke-linejoin="bevel" d="M61.1336 4.45605C22.5345 -13.1299 5.73834 22.8337 0 85.956L65.0711 85.956Z" sodipodi:nodetypes="cccc"/><path id="shape1" transform="translate(248.967624201533, 371.384250529067)" fill="#1f1f1f" fill-rule="evenodd" stroke="#1a1a1a" stroke-width="4" stroke-linecap="square" stroke-linejoin="miter" stroke-miterlimit="2" d="M0 0L0 139.725" sodipodi:nodetypes="cc"/><rect id="shape02" transform="matrix(0.974006620218175 0.226519543905537 -0.226519543905537 0.974006620218175 337.603765587871 332.888237138867)" fill="#242424" fill-rule="evenodd" stroke-opacity="0" stroke="#000000" stroke-width="0" stroke-linecap="square" stroke-linejoin="bevel" width="102.644076029869" height="14.905140370052"/><rect id="shape012" transform="matrix(0.955301372850557 -0.295633704150671 0.295633704150671 0.955301372850557 102.077773893986 358.971663943126)" fill="#242424" fill-rule="evenodd" stroke-opacity="0" stroke="#000000" stroke-width="0" stroke-linecap="square" stroke-linejoin="bevel" width="76.6895170835843" height="11.3500245299643"/><rect id="shape03" transform="matrix(0.974006620218175 0.226519543905537 -0.226519543905537 0.974006620218175 337.027285157619 328.797388052394)" fill="#9b9b9b" fill-rule="evenodd" stroke-opacity="0" stroke="#000000" stroke-width="0" stroke-linecap="square" stroke-linejoin="bevel" width="102.644076029869" height="14.905140370052"/><rect id="shape013" transform="matrix(0.955301372850557 -0.295633704150671 0.295633704150671 0.955301372850557 101.501293463734 354.880814856653)" fill="#9b9b9b" fill-rule="evenodd" stroke-opacity="0" stroke="#000000" stroke-width="0" stroke-linecap="square" stroke-linejoin="bevel" width="76.6895170835843" height="11.3500245299643"/>
</svg>
