<?xml version="1.0" standalone="no"?>
<!DOCTYPE svg PUBLIC "-//W3C//DTD SVG 20010904//EN" "http://www.w3.org/TR/2001/REC-SVG-20010904/DTD/svg10.dtd">
<!-- Created using Krita: https://krita.org -->
<svg xmlns="http://www.w3.org/2000/svg" 
    xmlns:xlink="http://www.w3.org/1999/xlink"
    xmlns:krita="http://krita.org/namespaces/svg/krita"
    xmlns:sodipodi="http://sodipodi.sourceforge.net/DTD/sodipodi-0.dtd"
    width="512pt"
    height="512pt"
    viewBox="0 0 512 512">
    <style>
        .uniform-color {
            color: #D00000;
        }
    </style>
<defs/>
<path id="shape0" transform="translate(40.6406222634299, 303.249979514883)" fill="#262626" fill-rule="evenodd" stroke-opacity="0" stroke="#000000" stroke-width="0" stroke-linecap="square" stroke-linejoin="bevel" d="M158.25 0.75L198.562 4.03125L197.706 19.1227L213.047 18.7969L213.109 3.89062L258.75 0C258.4 7.7 258.15 13.2 258 16.5C295.35 27.45 357.6 45.7 444.75 71.25L459.75 208.75L0 208.75L26.25 64.5L155.25 25.5Z" sodipodi:nodetypes="ccccccccccccc"/><g id="group0" transform="translate(59.2499961660835, 324.062479030742)" fill="none">
  <path id="shape1" transform="translate(178.312488461853, 0)" fill="none" stroke="#000000" stroke-width="4" stroke-linecap="square" stroke-linejoin="miter" stroke-miterlimit="2" d="M0.1875 0L0 69.375" sodipodi:nodetypes="cc"/>
  <path id="shape2" transform="translate(20.6249986654088, 68.9999955351859)" fill="none" stroke="#000000" stroke-width="4" stroke-linecap="square" stroke-linejoin="miter" stroke-miterlimit="2" d="M157.687 0.375L0 0" sodipodi:nodetypes="cc"/>
  <path id="shape3" transform="translate(0, 68.9999955351859)" fill="none" stroke="#000000" stroke-width="4" stroke-linecap="square" stroke-linejoin="miter" stroke-miterlimit="2" d="M20.625 0L0 18.75" sodipodi:nodetypes="cc"/>
 </g><path id="shape4" transform="translate(254.062500004784, 324.687479077359)" fill="none" stroke="#000000" stroke-width="4" stroke-linecap="square" stroke-linejoin="miter" stroke-miterlimit="2" d="M0 0L0 69.375" sodipodi:nodetypes="cc"/><path id="shape11" transform="translate(59.6249959722178, 305.62497935445)" fill="currentColor" class="uniform-color" fill-rule="evenodd" stroke-opacity="0" stroke="#000000" stroke-width="0" stroke-linecap="square" stroke-linejoin="bevel" d="M0 105L19.875 87L407.25 85.5L429 102L425.625 67.125L238.5 13.5C239.2 7.2 239.7 2.7 240 0C232.025 7.4125 217.483 13.725 196.375 18.9375L196.375 86.3756L176.348 86.3962L177.562 17.0625C158.237 14.0125 145.05 9.575 138 3.75C137.55 7.65 136.8 14.15 135.75 23.25L6.375 61.5Z" sodipodi:nodetypes="ccccccccccccccc"/><path id="shape5" transform="translate(65.2499996670384, 373.031248096474)" fill="#262626" fill-rule="evenodd" stroke-opacity="0" stroke="#000000" stroke-width="0" stroke-linecap="square" stroke-linejoin="bevel" d="M0 25.3125L12.0937 14.0625L160.031 12.9375L160.031 5.68434e-14L12.6562 1.96875L3.64576 9.15214Z" sodipodi:nodetypes="ccccccc"/><path id="shape6" transform="translate(268.593748629404, 372.468748099344)" fill="#262626" fill-rule="evenodd" stroke-opacity="0" stroke="#000000" stroke-width="0" stroke-linecap="square" stroke-linejoin="bevel" d="M0.84375 0L0 14.0625L197.719 12.0937L215.156 24.75L213.187 11.8125L197.719 1.125Z" sodipodi:nodetypes="ccccccc"/><g id="group1" transform="translate(246.124984073866, 325.828123337358)" fill="none">
  <path id="shape7" transform="translate(7.93751593091758, 67.1093513237174)" fill="none" stroke="#000000" stroke-width="4" stroke-linecap="square" stroke-linejoin="miter" stroke-miterlimit="2" d="M0 1.125L210.312 0" sodipodi:nodetypes="cc"/>
  <path id="shape8" transform="translate(219.562485761503, 66.5468513265877)" fill="none" stroke="#000000" stroke-width="4" stroke-linecap="square" stroke-linejoin="miter" stroke-miterlimit="2" d="M0 0L22.3125 16.875" sodipodi:nodetypes="cc"/>
  <path id="shape9" transform="matrix(1 0 0 1.07149268034847 0 4.54747350886464e-13)" fill="none" stroke="#000000" stroke-width="4" stroke-linecap="square" stroke-linejoin="miter" stroke-miterlimit="2" d="M0 0L0 173.75" sodipodi:nodetypes="cc"/>
 </g><path id="shape10" transform="translate(197.515612219257, 319.874979301688)" fill="none" stroke="#000000" stroke-width="4" stroke-linecap="square" stroke-linejoin="miter" stroke-miterlimit="2" d="M0 7.45312C38.5437 21.3625 69.8094 20.425 102.234 0" sodipodi:nodetypes="cc"/><path id="shape01" transform="translate(198.909988255195, 309.881213316157)" fill="none" stroke="#000000" stroke-width="4" stroke-linecap="square" stroke-linejoin="miter" stroke-miterlimit="2" d="M0 1.82813C26.7781 14.7531 56.7938 20.8937 98.7188 0" sodipodi:nodetypes="cc"/><g id="group01" transform="matrix(0.0300059796223986 0 0 0.0300059796223986 328.919985844166 453.312985183798)" fill="none">
  <g id="group11" transform="translate(0, 327.406985136646)" fill="none">
   <path id="shape02" fill="#a37e28" fill-rule="evenodd" stroke-opacity="0" stroke="#000000" stroke-width="0" stroke-linecap="square" stroke-linejoin="bevel" d="M407.7 0L112.86 4.32L88.56 23.76L0 362.88L10.26 387.72L215.46 447.12L278.64 286.605L189.945 289.575L159.705 283.23L115.02 250.56L114.345 181.71L143.37 149.31L183.465 136.62L343.44 139.455L407.16 9.72Z" sodipodi:nodetypes="cccccccccccccccc"/>
   <path id="shape12" transform="translate(758.69999419642, 1.43999998898471)" fill="#a37e28" fill-rule="evenodd" stroke-opacity="0" stroke="#000000" stroke-width="0" stroke-linecap="square" stroke-linejoin="bevel" d="M0 0L296.46 3.78L319.14 13.5L325.62 33.48L410.4 361.8L406.08 381.24L386.64 391.5L180.36 447.12L118.935 286.335L240.3 285.66L271.62 279.315L309.96 250.83L317.79 199.53L301.86 161.865L257.31 135.945L57.915 135.81Z" sodipodi:nodetypes="ccccccccccccccccc"/>
  </g>
  <path id="shape011" transform="translate(1.92849595671936, 328.306962470848)" fill="none" stroke="#000000" stroke-width="10.8" stroke-linecap="square" stroke-linejoin="bevel" d="M407.031 0L125.151 3.24C101.247 3.384 88.2875 12.744 86.2715 31.32C69.2075 96.552 40.7675 205.272 0.951497 357.48C-2.4595 375.075 3.3005 385.875 18.2315 389.88C148.119 425.592 212.919 443.592 212.631 443.88" sodipodi:nodetypes="cccccc"/>
  <path id="shape111" transform="translate(112.319998477205, 463.666984094341)" fill="none" stroke="#000000" stroke-width="10.8" stroke-linecap="square" stroke-linejoin="bevel" d="M692.64 2.47909e-15L876.96 0C924.677 2.18621e-15 963.36 28.9434 963.36 64.6468L963.36 87.2732C963.36 122.976 924.677 151.92 876.96 151.92L777.285 151.92M155.88 151.92L86.4 151.92C38.6826 151.92 8.36716e-15 122.976 1.42109e-14 87.2732L0 64.6468C5.8437e-15 28.9434 38.6826 8.44673e-15 86.4 1.0633e-14L246.6 8.47831e-15" sodipodi:nodetypes="cccccccccccc"/>
  <path id="shape0111" transform="matrix(-1 0 0 1 1167.95549565207 328.475050006839)" fill="none" stroke="#000000" stroke-width="10.8" stroke-linecap="square" stroke-linejoin="bevel" d="M407.031 0L125.151 3.24C101.247 3.384 88.2875 12.744 86.2715 31.32C69.2075 96.552 40.7675 205.272 0.951497 357.48C-2.4595 375.075 3.3005 385.875 18.2315 389.88C148.119 425.592 227.499 443.592 227.211 443.88" sodipodi:nodetypes="cccccc"/>
  <path id="shape021" transform="translate(41.0877111712979, -5.6843418860808e-14)" fill="#b2b2b2" stroke="#000000" stroke-width="10.8" stroke-linecap="square" stroke-linejoin="miter" stroke-miterlimit="2.16000008583069" d="M549.065 0C288.677 436.964 105.655 888.013 0 1353.15L36.8011 1371.94C240.478 1070.25 472.297 921.381 732.257 925.339C744.677 936.217 931.709 1051.71 990.954 1207.01C997.726 1204.64 1009.01 1202.86 1024.81 1201.65C928.711 808.63 770.128 408.079 549.065 0Z" sodipodi:nodetypes="ccccccc"/>
 </g>
</svg>
