<?xml version="1.0" standalone="no"?>
<!DOCTYPE svg PUBLIC "-//W3C//DTD SVG 20010904//EN" "http://www.w3.org/TR/2001/REC-SVG-20010904/DTD/svg10.dtd">
<!-- Created using Krita: https://krita.org -->
<svg xmlns="http://www.w3.org/2000/svg" 
    xmlns:xlink="http://www.w3.org/1999/xlink"
    xmlns:krita="http://krita.org/namespaces/svg/krita"
    xmlns:sodipodi="http://sodipodi.sourceforge.net/DTD/sodipodi-0.dtd"
    width="512pt"
    height="512pt"
    viewBox="0 0 512 512">
<defs/>
<g id="group0" transform="translate(44.7335791076827, 306.799202867299)" fill="none">
  <rect id="shape0" transform="matrix(1.17135414309804 0 0 1.17135414309804 152.365391434885 180.761887158043)" fill="#9098a1" fill-rule="evenodd" stroke="#313131" stroke-width="2" stroke-linecap="square" stroke-linejoin="miter" stroke-miterlimit="2" width="21" height="22"/>
  <rect id="shape01" transform="matrix(1.17135414309804 0 0 1.17135414309804 177.983339287111 180.855595629126)" fill="#9098a1" fill-rule="evenodd" stroke="#313131" stroke-width="2" stroke-linecap="square" stroke-linejoin="miter" stroke-miterlimit="2" width="21" height="22"/>
  <rect id="shape02" transform="matrix(1.17135414309804 0 0 1.17135414309804 126.956060277919 180.729675207107)" fill="#9098a1" fill-rule="evenodd" stroke="#313131" stroke-width="2" stroke-linecap="square" stroke-linejoin="miter" stroke-miterlimit="2" width="21" height="22"/>
  <rect id="shape03" transform="matrix(1.17135414309804 0 0 1.17135414309804 101.320892855158 180.603754785086)" fill="#9098a1" fill-rule="evenodd" stroke="#313131" stroke-width="2" stroke-linecap="square" stroke-linejoin="miter" stroke-miterlimit="2" width="21" height="22"/>
  <rect id="shape04" transform="matrix(1.17135414309804 0 0 1.17135414309804 152.407588667613 154.676523545073)" fill="#9098a1" fill-rule="evenodd" stroke="#313131" stroke-width="2" stroke-linecap="square" stroke-linejoin="miter" stroke-miterlimit="2" width="21" height="22"/>
  <rect id="shape011" transform="matrix(1.17135414309804 0 0 1.17135414309804 178.025536519839 154.770232016156)" fill="#9098a1" fill-rule="evenodd" stroke="#313131" stroke-width="2" stroke-linecap="square" stroke-linejoin="miter" stroke-miterlimit="2" width="21" height="22"/>
  <rect id="shape021" transform="matrix(1.17135414309804 0 0 1.17135414309804 126.998257510647 154.644311594137)" fill="#9098a1" fill-rule="evenodd" stroke="#313131" stroke-width="2" stroke-linecap="square" stroke-linejoin="miter" stroke-miterlimit="2" width="21" height="22"/>
  <rect id="shape031" transform="matrix(1.17135414309804 0 0 1.17135414309804 101.363090087887 154.518391172116)" fill="#9098a1" fill-rule="evenodd" stroke="#313131" stroke-width="2" stroke-linecap="square" stroke-linejoin="miter" stroke-miterlimit="2" width="21" height="22"/>
  <rect id="shape05" transform="matrix(1.17135414309804 0 0 1.17135414309804 152.443474139595 129.498352980149)" fill="#9098a1" fill-rule="evenodd" stroke="#313131" stroke-width="2" stroke-linecap="square" stroke-linejoin="miter" stroke-miterlimit="2" width="21" height="22"/>
  <rect id="shape012" transform="matrix(1.17135414309804 0 0 1.17135414309804 178.061421991821 129.592061451232)" fill="#9098a1" fill-rule="evenodd" stroke="#313131" stroke-width="2" stroke-linecap="square" stroke-linejoin="miter" stroke-miterlimit="2" width="21" height="22"/>
  <rect id="shape022" transform="matrix(1.17135414309804 0 0 1.17135414309804 127.034142982628 129.466141029213)" fill="#9098a1" fill-rule="evenodd" stroke="#313131" stroke-width="2" stroke-linecap="square" stroke-linejoin="miter" stroke-miterlimit="2" width="21" height="22"/>
  <rect id="shape032" transform="matrix(1.17135414309804 0 0 1.17135414309804 101.398975559868 129.340220607192)" fill="#9098a1" fill-rule="evenodd" stroke="#313131" stroke-width="2" stroke-linecap="square" stroke-linejoin="miter" stroke-miterlimit="2" width="21" height="22"/>
  <rect id="shape041" transform="matrix(1.17135414309804 0 0 1.17135414309804 152.295676789475 103.460488012892)" fill="#9098a1" fill-rule="evenodd" stroke="#313131" stroke-width="2" stroke-linecap="square" stroke-linejoin="miter" stroke-miterlimit="2" width="21" height="22"/>
  <rect id="shape0111" transform="matrix(1.17135414309804 0 0 1.17135414309804 177.913624641701 103.554196483975)" fill="#9098a1" fill-rule="evenodd" stroke="#313131" stroke-width="2" stroke-linecap="square" stroke-linejoin="miter" stroke-miterlimit="2" width="21" height="22"/>
  <rect id="shape0211" transform="matrix(1.17135414309804 0 0 1.17135414309804 126.886345632508 103.428276061955)" fill="#9098a1" fill-rule="evenodd" stroke="#313131" stroke-width="2" stroke-linecap="square" stroke-linejoin="miter" stroke-miterlimit="2" width="21" height="22"/>
  <rect id="shape0311" transform="matrix(1.17135414309804 0 0 1.17135414309804 101.251178209748 103.302355639935)" fill="#9098a1" fill-rule="evenodd" stroke="#313131" stroke-width="2" stroke-linecap="square" stroke-linejoin="miter" stroke-miterlimit="2" width="21" height="22"/>
  <rect id="shape06" transform="matrix(1.17135414309804 0 0 1.17135414309804 51.2502525828302 180.535312363948)" fill="#9098a1" fill-rule="evenodd" stroke="#313131" stroke-width="2" stroke-linecap="square" stroke-linejoin="miter" stroke-miterlimit="2" width="21" height="22"/>
  <rect id="shape013" transform="matrix(1.17135414309804 0 0 1.17135414309804 76.5832085777703 180.629020835031)" fill="#9098a1" fill-rule="evenodd" stroke="#313131" stroke-width="2" stroke-linecap="square" stroke-linejoin="miter" stroke-miterlimit="2" width="21" height="22"/>
  <rect id="shape023" transform="matrix(1.17135414309804 0 0 1.17135414309804 25.840921425864 180.50310041301)" fill="#9098a1" fill-rule="evenodd" stroke="#313131" stroke-width="2" stroke-linecap="square" stroke-linejoin="miter" stroke-miterlimit="2" width="21" height="22"/>
  <rect id="shape033" transform="matrix(1.17135414309804 0 0 1.17135414309804 0.20575400310252 180.377179990991)" fill="#9098a1" fill-rule="evenodd" stroke="#313131" stroke-width="2" stroke-linecap="square" stroke-linejoin="miter" stroke-miterlimit="2" width="21" height="22"/>
  <rect id="shape042" transform="matrix(1.17135414309804 0 0 1.17135414309804 51.2924498155588 154.449948750977)" fill="#9098a1" fill-rule="evenodd" stroke="#313131" stroke-width="2" stroke-linecap="square" stroke-linejoin="miter" stroke-miterlimit="2" width="21" height="22"/>
  <rect id="shape0112" transform="matrix(1.17135414309804 0 0 1.17135414309804 76.6254058104988 154.54365722206)" fill="#9098a1" fill-rule="evenodd" stroke="#313131" stroke-width="2" stroke-linecap="square" stroke-linejoin="miter" stroke-miterlimit="2" width="21" height="22"/>
  <rect id="shape0212" transform="matrix(1.17135414309804 0 0 1.17135414309804 25.8831186585925 154.417736800041)" fill="#9098a1" fill-rule="evenodd" stroke="#313131" stroke-width="2" stroke-linecap="square" stroke-linejoin="miter" stroke-miterlimit="2" width="21" height="22"/>
  <rect id="shape0312" transform="matrix(1.17135414309804 0 0 1.17135414309804 0.247951235832112 154.29181637802)" fill="#9098a1" fill-rule="evenodd" stroke="#313131" stroke-width="2" stroke-linecap="square" stroke-linejoin="miter" stroke-miterlimit="2" width="21" height="22"/>
  <rect id="shape051" transform="matrix(1.17135414309804 0 0 1.17135414309804 51.3283352875398 129.271778186053)" fill="#9098a1" fill-rule="evenodd" stroke="#313131" stroke-width="2" stroke-linecap="square" stroke-linejoin="miter" stroke-miterlimit="2" width="21" height="22"/>
  <rect id="shape0121" transform="matrix(1.17135414309804 0 0 1.17135414309804 76.6612912824798 129.365486657136)" fill="#9098a1" fill-rule="evenodd" stroke="#313131" stroke-width="2" stroke-linecap="square" stroke-linejoin="miter" stroke-miterlimit="2" width="21" height="22"/>
  <rect id="shape0221" transform="matrix(1.17135414309804 0 0 1.17135414309804 25.9190041305736 129.239566235117)" fill="#9098a1" fill-rule="evenodd" stroke="#313131" stroke-width="2" stroke-linecap="square" stroke-linejoin="miter" stroke-miterlimit="2" width="21" height="22"/>
  <rect id="shape0321" transform="matrix(1.17135414309804 0 0 1.17135414309804 0.283836707813116 129.113645813096)" fill="#9098a1" fill-rule="evenodd" stroke="#313131" stroke-width="2" stroke-linecap="square" stroke-linejoin="miter" stroke-miterlimit="2" width="21" height="22"/>
  <rect id="shape0411" transform="matrix(1.17135414309804 0 0 1.17135414309804 51.1805379374203 103.233913218796)" fill="#9098a1" fill-rule="evenodd" stroke="#313131" stroke-width="2" stroke-linecap="square" stroke-linejoin="miter" stroke-miterlimit="2" width="21" height="22"/>
  <rect id="shape01111" transform="matrix(1.17135414309804 0 0 1.17135414309804 76.5134939323601 103.327621689879)" fill="#9098a1" fill-rule="evenodd" stroke="#313131" stroke-width="2" stroke-linecap="square" stroke-linejoin="miter" stroke-miterlimit="2" width="21" height="22"/>
  <rect id="shape02111" transform="matrix(1.17135414309804 0 0 1.17135414309804 25.7712067804541 103.20170126786)" fill="#9098a1" fill-rule="evenodd" stroke="#313131" stroke-width="2" stroke-linecap="square" stroke-linejoin="miter" stroke-miterlimit="2" width="21" height="22"/>
  <rect id="shape03111" transform="matrix(1.17135414309804 0 0 1.17135414309804 0.136039357693555 103.075780845839)" fill="#9098a1" fill-rule="evenodd" stroke="#313131" stroke-width="2" stroke-linecap="square" stroke-linejoin="miter" stroke-miterlimit="2" width="21" height="22"/>
  <rect id="shape07" transform="matrix(1.17135414309804 0 0 1.17135414309804 354.994647100382 181.349614260365)" fill="#9098a1" fill-rule="evenodd" stroke="#313131" stroke-width="2" stroke-linecap="square" stroke-linejoin="miter" stroke-miterlimit="2" width="21" height="22"/>
  <rect id="shape014" transform="matrix(1.17135414309804 0 0 1.17135414309804 380.612594952608 181.443322731448)" fill="#9098a1" fill-rule="evenodd" stroke="#313131" stroke-width="2" stroke-linecap="square" stroke-linejoin="miter" stroke-miterlimit="2" width="21" height="22"/>
  <rect id="shape024" transform="matrix(1.17135414309804 0 0 1.17135414309804 329.585315943415 181.317402309428)" fill="#9098a1" fill-rule="evenodd" stroke="#313131" stroke-width="2" stroke-linecap="square" stroke-linejoin="miter" stroke-miterlimit="2" width="21" height="22"/>
  <rect id="shape034" transform="matrix(1.17135414309804 0 0 1.17135414309804 303.950148520654 181.191481887408)" fill="#9098a1" fill-rule="evenodd" stroke="#313131" stroke-width="2" stroke-linecap="square" stroke-linejoin="miter" stroke-miterlimit="2" width="21" height="22"/>
  <rect id="shape043" transform="matrix(1.17135414309804 0 0 1.17135414309804 355.036844333109 155.264250647395)" fill="#9098a1" fill-rule="evenodd" stroke="#313131" stroke-width="2" stroke-linecap="square" stroke-linejoin="miter" stroke-miterlimit="2" width="21" height="22"/>
  <rect id="shape0113" transform="matrix(1.17135414309804 0 0 1.17135414309804 380.654792185335 155.357959118478)" fill="#9098a1" fill-rule="evenodd" stroke="#313131" stroke-width="2" stroke-linecap="square" stroke-linejoin="miter" stroke-miterlimit="2" width="21" height="22"/>
  <rect id="shape0213" transform="matrix(1.17135414309804 0 0 1.17135414309804 329.627513176143 155.232038696459)" fill="#9098a1" fill-rule="evenodd" stroke="#313131" stroke-width="2" stroke-linecap="square" stroke-linejoin="miter" stroke-miterlimit="2" width="21" height="22"/>
  <rect id="shape0313" transform="matrix(1.17135414309804 0 0 1.17135414309804 303.992345753382 155.106118274438)" fill="#9098a1" fill-rule="evenodd" stroke="#313131" stroke-width="2" stroke-linecap="square" stroke-linejoin="miter" stroke-miterlimit="2" width="21" height="22"/>
  <rect id="shape052" transform="matrix(1.17135414309804 0 0 1.17135414309804 355.072729805091 130.086080082471)" fill="#9098a1" fill-rule="evenodd" stroke="#313131" stroke-width="2" stroke-linecap="square" stroke-linejoin="miter" stroke-miterlimit="2" width="21" height="22"/>
  <rect id="shape0122" transform="matrix(1.17135414309804 0 0 1.17135414309804 380.690677657317 130.179788553554)" fill="#9098a1" fill-rule="evenodd" stroke="#313131" stroke-width="2" stroke-linecap="square" stroke-linejoin="miter" stroke-miterlimit="2" width="21" height="22"/>
  <rect id="shape0222" transform="matrix(1.17135414309804 0 0 1.17135414309804 329.663398648125 130.053868131535)" fill="#9098a1" fill-rule="evenodd" stroke="#313131" stroke-width="2" stroke-linecap="square" stroke-linejoin="miter" stroke-miterlimit="2" width="21" height="22"/>
  <rect id="shape0322" transform="matrix(1.17135414309804 0 0 1.17135414309804 304.028231225365 129.927947709514)" fill="#9098a1" fill-rule="evenodd" stroke="#313131" stroke-width="2" stroke-linecap="square" stroke-linejoin="miter" stroke-miterlimit="2" width="21" height="22"/>
  <rect id="shape0412" transform="matrix(1.17135414309804 0 0 1.17135414309804 354.924932454971 104.048215115213)" fill="#9098a1" fill-rule="evenodd" stroke="#313131" stroke-width="2" stroke-linecap="square" stroke-linejoin="miter" stroke-miterlimit="2" width="21" height="22"/>
  <rect id="shape01112" transform="matrix(1.17135414309804 0 0 1.17135414309804 380.542880307196 104.141923586296)" fill="#9098a1" fill-rule="evenodd" stroke="#313131" stroke-width="2" stroke-linecap="square" stroke-linejoin="miter" stroke-miterlimit="2" width="21" height="22"/>
  <rect id="shape02112" transform="matrix(1.17135414309804 0 0 1.17135414309804 329.515601298004 104.016003164277)" fill="#9098a1" fill-rule="evenodd" stroke="#313131" stroke-width="2" stroke-linecap="square" stroke-linejoin="miter" stroke-miterlimit="2" width="21" height="22"/>
  <rect id="shape03112" transform="matrix(1.17135414309804 0 0 1.17135414309804 303.880433875244 103.890082742256)" fill="#9098a1" fill-rule="evenodd" stroke="#313131" stroke-width="2" stroke-linecap="square" stroke-linejoin="miter" stroke-miterlimit="2" width="21" height="22"/>
  <rect id="shape061" transform="matrix(1.17135414309804 0 0 1.17135414309804 253.879508248327 181.12303946627)" fill="#9098a1" fill-rule="evenodd" stroke="#313131" stroke-width="2" stroke-linecap="square" stroke-linejoin="miter" stroke-miterlimit="2" width="21" height="22"/>
  <rect id="shape0131" transform="matrix(1.17135414309804 0 0 1.17135414309804 279.212464243266 181.216747937353)" fill="#9098a1" fill-rule="evenodd" stroke="#313131" stroke-width="2" stroke-linecap="square" stroke-linejoin="miter" stroke-miterlimit="2" width="21" height="22"/>
  <rect id="shape0231" transform="matrix(1.17135414309804 0 0 1.17135414309804 228.47017709136 181.090827515332)" fill="#9098a1" fill-rule="evenodd" stroke="#313131" stroke-width="2" stroke-linecap="square" stroke-linejoin="miter" stroke-miterlimit="2" width="21" height="22"/>
  <rect id="shape0331" transform="matrix(1.17135414309804 0 0 1.17135414309804 202.835009668599 180.964907093313)" fill="#9098a1" fill-rule="evenodd" stroke="#313131" stroke-width="2" stroke-linecap="square" stroke-linejoin="miter" stroke-miterlimit="2" width="21" height="22"/>
  <rect id="shape0421" transform="matrix(1.17135414309804 0 0 1.17135414309804 253.921705481056 155.037675853299)" fill="#9098a1" fill-rule="evenodd" stroke="#313131" stroke-width="2" stroke-linecap="square" stroke-linejoin="miter" stroke-miterlimit="2" width="21" height="22"/>
  <rect id="shape01121" transform="matrix(1.17135414309804 0 0 1.17135414309804 279.254661475995 155.131384324382)" fill="#9098a1" fill-rule="evenodd" stroke="#313131" stroke-width="2" stroke-linecap="square" stroke-linejoin="miter" stroke-miterlimit="2" width="21" height="22"/>
  <rect id="shape02121" transform="matrix(1.17135414309804 0 0 1.17135414309804 228.512374324089 155.005463902362)" fill="#9098a1" fill-rule="evenodd" stroke="#313131" stroke-width="2" stroke-linecap="square" stroke-linejoin="miter" stroke-miterlimit="2" width="21" height="22"/>
  <rect id="shape03121" transform="matrix(1.17135414309804 0 0 1.17135414309804 202.877206901328 154.879543480342)" fill="#9098a1" fill-rule="evenodd" stroke="#313131" stroke-width="2" stroke-linecap="square" stroke-linejoin="miter" stroke-miterlimit="2" width="21" height="22"/>
  <rect id="shape0511" transform="matrix(1.17135414309804 0 0 1.17135414309804 253.957590953037 129.859505288375)" fill="#9098a1" fill-rule="evenodd" stroke="#313131" stroke-width="2" stroke-linecap="square" stroke-linejoin="miter" stroke-miterlimit="2" width="21" height="22"/>
  <rect id="shape01211" transform="matrix(1.17135414309804 0 0 1.17135414309804 279.290546947976 129.953213759458)" fill="#9098a1" fill-rule="evenodd" stroke="#313131" stroke-width="2" stroke-linecap="square" stroke-linejoin="miter" stroke-miterlimit="2" width="21" height="22"/>
  <rect id="shape02211" transform="matrix(1.17135414309804 0 0 1.17135414309804 228.54825979607 129.827293337439)" fill="#9098a1" fill-rule="evenodd" stroke="#313131" stroke-width="2" stroke-linecap="square" stroke-linejoin="miter" stroke-miterlimit="2" width="21" height="22"/>
  <rect id="shape03211" transform="matrix(1.17135414309804 0 0 1.17135414309804 202.913092373309 129.701372915418)" fill="#9098a1" fill-rule="evenodd" stroke="#313131" stroke-width="2" stroke-linecap="square" stroke-linejoin="miter" stroke-miterlimit="2" width="21" height="22"/>
  <rect id="shape04111" transform="matrix(1.17135414309804 0 0 1.17135414309804 253.809793602917 103.821640321118)" fill="#9098a1" fill-rule="evenodd" stroke="#313131" stroke-width="2" stroke-linecap="square" stroke-linejoin="miter" stroke-miterlimit="2" width="21" height="22"/>
  <rect id="shape011111" transform="matrix(1.17135414309804 0 0 1.17135414309804 279.142749597856 103.915348792201)" fill="#9098a1" fill-rule="evenodd" stroke="#313131" stroke-width="2" stroke-linecap="square" stroke-linejoin="miter" stroke-miterlimit="2" width="21" height="22"/>
  <rect id="shape021111" transform="matrix(1.17135414309804 0 0 1.17135414309804 228.40046244595 103.789428370182)" fill="#9098a1" fill-rule="evenodd" stroke="#313131" stroke-width="2" stroke-linecap="square" stroke-linejoin="miter" stroke-miterlimit="2" width="21" height="22"/>
  <rect id="shape031111" transform="matrix(1.17135414309804 0 0 1.17135414309804 202.76529502319 103.663507948161)" fill="#9098a1" fill-rule="evenodd" stroke="#313131" stroke-width="2" stroke-linecap="square" stroke-linejoin="miter" stroke-miterlimit="2" width="21" height="22"/>
  <rect id="shape08" transform="matrix(1.17135414309804 0 0 1.17135414309804 405.140597560598 181.550547586661)" fill="#9098a1" fill-rule="evenodd" stroke="#313131" stroke-width="2" stroke-linecap="square" stroke-linejoin="miter" stroke-miterlimit="2" width="21" height="22"/>
  <rect id="shape015" transform="matrix(1.17135414309804 0 0 1.17135414309804 430.758545412824 181.644256057744)" fill="#9098a1" fill-rule="evenodd" stroke="#313131" stroke-width="2" stroke-linecap="square" stroke-linejoin="miter" stroke-miterlimit="2" width="21" height="22"/>
  <rect id="shape044" transform="matrix(1.17135414309804 0 0 1.17135414309804 405.182794793325 155.465183973691)" fill="#9098a1" fill-rule="evenodd" stroke="#313131" stroke-width="2" stroke-linecap="square" stroke-linejoin="miter" stroke-miterlimit="2" width="21" height="22"/>
  <rect id="shape0114" transform="matrix(1.17135414309804 0 0 1.17135414309804 430.800742645551 155.558892444774)" fill="#9098a1" fill-rule="evenodd" stroke="#313131" stroke-width="2" stroke-linecap="square" stroke-linejoin="miter" stroke-miterlimit="2" width="21" height="22"/>
  <rect id="shape053" transform="matrix(1.17135414309804 0 0 1.17135414309804 405.218680265307 130.287013408767)" fill="#9098a1" fill-rule="evenodd" stroke="#313131" stroke-width="2" stroke-linecap="square" stroke-linejoin="miter" stroke-miterlimit="2" width="21" height="22"/>
  <rect id="shape0123" transform="matrix(1.17135414309804 0 0 1.17135414309804 430.836628117533 130.38072187985)" fill="#9098a1" fill-rule="evenodd" stroke="#313131" stroke-width="2" stroke-linecap="square" stroke-linejoin="miter" stroke-miterlimit="2" width="21" height="22"/>
  <rect id="shape0413" transform="matrix(1.17135414309804 0 0 1.17135414309804 405.070882915187 104.249148441509)" fill="#9098a1" fill-rule="evenodd" stroke="#313131" stroke-width="2" stroke-linecap="square" stroke-linejoin="miter" stroke-miterlimit="2" width="21" height="22"/>
  <rect id="shape01113" transform="matrix(1.17135414309804 0 0 1.17135414309804 430.688830767413 104.342856912592)" fill="#9098a1" fill-rule="evenodd" stroke="#313131" stroke-width="2" stroke-linecap="square" stroke-linejoin="miter" stroke-miterlimit="2" width="21" height="22"/>
  <rect id="shape09" transform="matrix(1.17135414309804 0 0 1.17135414309804 152.307434781901 77.2741201285007)" fill="#9098a1" fill-rule="evenodd" stroke="#313131" stroke-width="2" stroke-linecap="square" stroke-linejoin="miter" stroke-miterlimit="2" width="21" height="22"/>
  <rect id="shape016" transform="matrix(1.17135414309804 0 0 1.17135414309804 177.925382634127 77.3678285995837)" fill="#9098a1" fill-rule="evenodd" stroke="#313131" stroke-width="2" stroke-linecap="square" stroke-linejoin="miter" stroke-miterlimit="2" width="21" height="22"/>
  <rect id="shape025" transform="matrix(1.17135414309804 0 0 1.17135414309804 126.898103624935 77.2419081775647)" fill="#9098a1" fill-rule="evenodd" stroke="#313131" stroke-width="2" stroke-linecap="square" stroke-linejoin="miter" stroke-miterlimit="2" width="21" height="22"/>
  <rect id="shape035" transform="matrix(1.17135414309804 0 0 1.17135414309804 101.262936202175 77.1159877555437)" fill="#9098a1" fill-rule="evenodd" stroke="#313131" stroke-width="2" stroke-linecap="square" stroke-linejoin="miter" stroke-miterlimit="2" width="21" height="22"/>
  <rect id="shape045" transform="matrix(1.17135414309804 0 0 1.17135414309804 152.159637431781 51.2362551612437)" fill="#9098a1" fill-rule="evenodd" stroke="#313131" stroke-width="2" stroke-linecap="square" stroke-linejoin="miter" stroke-miterlimit="2" width="21" height="22"/>
  <rect id="shape0115" transform="matrix(1.17135414309804 0 0 1.17135414309804 177.777585284007 51.3299636323267)" fill="#9098a1" fill-rule="evenodd" stroke="#313131" stroke-width="2" stroke-linecap="square" stroke-linejoin="miter" stroke-miterlimit="2" width="21" height="22"/>
  <rect id="shape0214" transform="matrix(1.17135414309804 0 0 1.17135414309804 126.750306274815 51.2040432103067)" fill="#9098a1" fill-rule="evenodd" stroke="#313131" stroke-width="2" stroke-linecap="square" stroke-linejoin="miter" stroke-miterlimit="2" width="21" height="22"/>
  <rect id="shape0314" transform="matrix(1.17135414309804 0 0 1.17135414309804 101.115138852055 51.0781227882868)" fill="#9098a1" fill-rule="evenodd" stroke="#313131" stroke-width="2" stroke-linecap="square" stroke-linejoin="miter" stroke-miterlimit="2" width="21" height="22"/>
  <rect id="shape054" transform="matrix(1.17135414309804 0 0 1.17135414309804 51.1922959298463 77.0475453344047)" fill="#9098a1" fill-rule="evenodd" stroke="#313131" stroke-width="2" stroke-linecap="square" stroke-linejoin="miter" stroke-miterlimit="2" width="21" height="22"/>
  <rect id="shape0124" transform="matrix(1.17135414309804 0 0 1.17135414309804 76.5252519247858 77.1412538054877)" fill="#9098a1" fill-rule="evenodd" stroke="#313131" stroke-width="2" stroke-linecap="square" stroke-linejoin="miter" stroke-miterlimit="2" width="21" height="22"/>
  <rect id="shape0223" transform="matrix(1.17135414309804 0 0 1.17135414309804 25.78296477288 77.0153333834687)" fill="#9098a1" fill-rule="evenodd" stroke="#313131" stroke-width="2" stroke-linecap="square" stroke-linejoin="miter" stroke-miterlimit="2" width="21" height="22"/>
  <rect id="shape0323" transform="matrix(1.17135414309804 0 0 1.17135414309804 0.147797350119617 76.8894129614477)" fill="#9098a1" fill-rule="evenodd" stroke="#313131" stroke-width="2" stroke-linecap="square" stroke-linejoin="miter" stroke-miterlimit="2" width="21" height="22"/>
  <rect id="shape0414" transform="matrix(1.17135414309804 0 0 1.17135414309804 51.0444985797267 51.0096803671477)" fill="#9098a1" fill-rule="evenodd" stroke="#313131" stroke-width="2" stroke-linecap="square" stroke-linejoin="miter" stroke-miterlimit="2" width="21" height="22"/>
  <rect id="shape01114" transform="matrix(1.17135414309804 0 0 1.17135414309804 76.3774545746668 51.1033888382307)" fill="#9098a1" fill-rule="evenodd" stroke="#313131" stroke-width="2" stroke-linecap="square" stroke-linejoin="miter" stroke-miterlimit="2" width="21" height="22"/>
  <rect id="shape02113" transform="matrix(1.17135414309804 0 0 1.17135414309804 25.6351674227605 50.9774684162117)" fill="#9098a1" fill-rule="evenodd" stroke="#313131" stroke-width="2" stroke-linecap="square" stroke-linejoin="miter" stroke-miterlimit="2" width="21" height="22"/>
  <rect id="shape03113" transform="matrix(1.17135414309804 0 0 1.17135414309804 0 50.8515479941907)" fill="#9098a1" fill-rule="evenodd" stroke="#313131" stroke-width="2" stroke-linecap="square" stroke-linejoin="miter" stroke-miterlimit="2" width="21" height="22"/>
  <rect id="shape0512" transform="matrix(1.17135414309804 0 0 1.17135414309804 354.936690447398 77.8618472308226)" fill="#9098a1" fill-rule="evenodd" stroke="#313131" stroke-width="2" stroke-linecap="square" stroke-linejoin="miter" stroke-miterlimit="2" width="21" height="22"/>
  <rect id="shape01212" transform="matrix(1.17135414309804 0 0 1.17135414309804 380.554638299624 77.9555557019057)" fill="#9098a1" fill-rule="evenodd" stroke="#313131" stroke-width="2" stroke-linecap="square" stroke-linejoin="miter" stroke-miterlimit="2" width="21" height="22"/>
  <rect id="shape02212" transform="matrix(1.17135414309804 0 0 1.17135414309804 329.527359290431 77.8296352798868)" fill="#9098a1" fill-rule="evenodd" stroke="#313131" stroke-width="2" stroke-linecap="square" stroke-linejoin="miter" stroke-miterlimit="2" width="21" height="22"/>
  <rect id="shape03212" transform="matrix(1.17135414309804 0 0 1.17135414309804 303.892191867671 77.7037148578657)" fill="#9098a1" fill-rule="evenodd" stroke="#313131" stroke-width="2" stroke-linecap="square" stroke-linejoin="miter" stroke-miterlimit="2" width="21" height="22"/>
  <rect id="shape04112" transform="matrix(1.17135414309804 0 0 1.17135414309804 354.788893097277 51.8239822635647)" fill="#9098a1" fill-rule="evenodd" stroke="#313131" stroke-width="2" stroke-linecap="square" stroke-linejoin="miter" stroke-miterlimit="2" width="21" height="22"/>
  <rect id="shape011112" transform="matrix(1.17135414309804 0 0 1.17135414309804 380.406840949503 51.9176907346477)" fill="#9098a1" fill-rule="evenodd" stroke="#313131" stroke-width="2" stroke-linecap="square" stroke-linejoin="miter" stroke-miterlimit="2" width="21" height="22"/>
  <rect id="shape021112" transform="matrix(1.17135414309804 0 0 1.17135414309804 329.379561940311 51.7917703126287)" fill="#9098a1" fill-rule="evenodd" stroke="#313131" stroke-width="2" stroke-linecap="square" stroke-linejoin="miter" stroke-miterlimit="2" width="21" height="22"/>
  <rect id="shape031112" transform="matrix(1.17135414309804 0 0 1.17135414309804 303.744394517551 51.6658498906077)" fill="#9098a1" fill-rule="evenodd" stroke="#313131" stroke-width="2" stroke-linecap="square" stroke-linejoin="miter" stroke-miterlimit="2" width="21" height="22"/>
  <rect id="shape05111" transform="matrix(1.17135414309804 0 0 1.17135414309804 253.821551595343 77.6352724367267)" fill="#9098a1" fill-rule="evenodd" stroke="#313131" stroke-width="2" stroke-linecap="square" stroke-linejoin="miter" stroke-miterlimit="2" width="21" height="22"/>
  <rect id="shape012111" transform="matrix(1.17135414309804 0 0 1.17135414309804 279.154507590282 77.7289809078097)" fill="#9098a1" fill-rule="evenodd" stroke="#313131" stroke-width="2" stroke-linecap="square" stroke-linejoin="miter" stroke-miterlimit="2" width="21" height="22"/>
  <rect id="shape022111" transform="matrix(1.17135414309804 0 0 1.17135414309804 228.412220438376 77.6030604857907)" fill="#9098a1" fill-rule="evenodd" stroke="#313131" stroke-width="2" stroke-linecap="square" stroke-linejoin="miter" stroke-miterlimit="2" width="21" height="22"/>
  <rect id="shape032111" transform="matrix(1.17135414309804 0 0 1.17135414309804 202.777053015616 77.4771400637698)" fill="#9098a1" fill-rule="evenodd" stroke="#313131" stroke-width="2" stroke-linecap="square" stroke-linejoin="miter" stroke-miterlimit="2" width="21" height="22"/>
  <rect id="shape041111" transform="matrix(1.17135414309804 0 0 1.17135414309804 253.673754245223 51.5974074694697)" fill="#9098a1" fill-rule="evenodd" stroke="#313131" stroke-width="2" stroke-linecap="square" stroke-linejoin="miter" stroke-miterlimit="2" width="21" height="22"/>
  <rect id="shape0111111" transform="matrix(1.17135414309804 0 0 1.17135414309804 279.006710240163 51.6911159405527)" fill="#9098a1" fill-rule="evenodd" stroke="#313131" stroke-width="2" stroke-linecap="square" stroke-linejoin="miter" stroke-miterlimit="2" width="21" height="22"/>
  <rect id="shape0211111" transform="matrix(1.17135414309804 0 0 1.17135414309804 228.264423088257 51.5651955185337)" fill="#9098a1" fill-rule="evenodd" stroke="#313131" stroke-width="2" stroke-linecap="square" stroke-linejoin="miter" stroke-miterlimit="2" width="21" height="22"/>
  <rect id="shape0311111" transform="matrix(1.17135414309804 0 0 1.17135414309804 202.629255665496 51.4392750965127)" fill="#9098a1" fill-rule="evenodd" stroke="#313131" stroke-width="2" stroke-linecap="square" stroke-linejoin="miter" stroke-miterlimit="2" width="21" height="22"/>
  <rect id="shape0521" transform="matrix(1.17135414309804 0 0 1.17135414309804 405.082640907614 78.0627805571186)" fill="#9098a1" fill-rule="evenodd" stroke="#313131" stroke-width="2" stroke-linecap="square" stroke-linejoin="miter" stroke-miterlimit="2" width="21" height="22"/>
  <rect id="shape01221" transform="matrix(1.17135414309804 0 0 1.17135414309804 430.70058875984 78.1564890282017)" fill="#9098a1" fill-rule="evenodd" stroke="#313131" stroke-width="2" stroke-linecap="square" stroke-linejoin="miter" stroke-miterlimit="2" width="21" height="22"/>
  <rect id="shape04121" transform="matrix(1.17135414309804 0 0 1.17135414309804 404.934843557493 52.0249155898607)" fill="#9098a1" fill-rule="evenodd" stroke="#313131" stroke-width="2" stroke-linecap="square" stroke-linejoin="miter" stroke-miterlimit="2" width="21" height="22"/>
  <rect id="shape011121" transform="matrix(1.17135414309804 0 0 1.17135414309804 430.552791409719 52.1186240609437)" fill="#9098a1" fill-rule="evenodd" stroke="#313131" stroke-width="2" stroke-linecap="square" stroke-linejoin="miter" stroke-miterlimit="2" width="21" height="22"/>
  <rect id="shape046" transform="matrix(1.17135414309804 0 0 1.17135414309804 152.150791885927 25.481111979402)" fill="#9098a1" fill-rule="evenodd" stroke="#313131" stroke-width="2" stroke-linecap="square" stroke-linejoin="miter" stroke-miterlimit="2" width="21" height="22"/>
  <rect id="shape0116" transform="matrix(1.17135414309804 0 0 1.17135414309804 177.768739738153 25.574820450485)" fill="#9098a1" fill-rule="evenodd" stroke="#313131" stroke-width="2" stroke-linecap="square" stroke-linejoin="miter" stroke-miterlimit="2" width="21" height="22"/>
  <path id="shape0215" transform="matrix(1.17135414309804 0 0 1.17135414309804 126.741460728962 26.1989000210146)" fill="#9098a1" fill-rule="evenodd" stroke="#313131" stroke-width="2" stroke-linecap="square" stroke-linejoin="miter" stroke-miterlimit="2" d="M0.213428 6.61627L21.9604 0L21 21.3597L0 21.3597Z" sodipodi:nodetypes="ccccc"/>
  <path id="shape0315" transform="matrix(1.17135414309804 0 0 1.17135414309804 101.106293306201 34.1979795182818)" fill="#9098a1" fill-rule="evenodd" stroke="#313131" stroke-width="2" stroke-linecap="square" stroke-linejoin="miter" stroke-miterlimit="2" d="M0.106714 7.14984L21.6403 0L21 14.4233L0 14.4233Z" sodipodi:nodetypes="ccccc"/>
  <path id="shape01115" transform="matrix(1.17135414309804 0 0 1.17135414309804 76.3686090288129 42.4732454862726)" fill="#9098a1" fill-rule="evenodd" stroke="#313131" stroke-width="2" stroke-linecap="square" stroke-linejoin="miter" stroke-miterlimit="2" d="M1.28057 4.26856L21 0L21 7.38017L0 7.38017Z" sodipodi:nodetypes="ccccc"/>
  <path id="shape04113" transform="matrix(1.17135414309804 0 0 1.17135414309804 354.405047555148 47.7250888665936)" fill="#9098a1" fill-rule="evenodd" stroke="#313131" stroke-width="2" stroke-linecap="square" stroke-linejoin="miter" stroke-miterlimit="2" d="M0 0L7.15385 1.20053L21.3201 3.51178L0.320142 3.51178Z" sodipodi:nodetypes="ccccc"/>
  <path id="shape021113" transform="matrix(1.17135414309804 0 0 1.17135414309804 329.089466397251 39.9116269929554)" fill="#9098a1" fill-rule="evenodd" stroke="#313131" stroke-width="2" stroke-linecap="square" stroke-linejoin="miter" stroke-miterlimit="2" d="M0 0L21.5602 6.48288L21.2401 10.1547L0.240107 10.1547Z" sodipodi:nodetypes="ccccc"/>
  <path id="shape031113" transform="matrix(1.17135414309804 0 0 1.17135414309804 303.266798976353 32.0982066473005)" fill="#9098a1" fill-rule="evenodd" stroke="#313131" stroke-width="2" stroke-linecap="square" stroke-linejoin="miter" stroke-miterlimit="2" d="M0 0L21.8004 6.88306L21.4002 16.7177L0.400178 16.7177Z" sodipodi:nodetypes="ccccc"/>
  <rect id="shape041112" transform="matrix(1.17135414309804 0 0 1.17135414309804 253.66490869937 25.8422642876281)" fill="#9098a1" fill-rule="evenodd" stroke="#313131" stroke-width="2" stroke-linecap="square" stroke-linejoin="miter" stroke-miterlimit="2" width="21" height="22"/>
  <path id="shape0111112" transform="matrix(1.17135414309804 0 0 1.17135414309804 278.529114698965 24.717222770818)" fill="#9098a1" fill-rule="evenodd" stroke="#313131" stroke-width="2" stroke-linecap="square" stroke-linejoin="miter" stroke-miterlimit="2" d="M0 0L21.3201 5.76256L21.4002 23.0405L0.400178 23.0405Z" sodipodi:nodetypes="ccccc"/>
  <rect id="shape0211112" transform="matrix(1.17135414309804 0 0 1.17135414309804 228.255577542404 25.810052336692)" fill="#9098a1" fill-rule="evenodd" stroke="#313131" stroke-width="2" stroke-linecap="square" stroke-linejoin="miter" stroke-miterlimit="2" width="21" height="22"/>
  <rect id="shape0311112" transform="matrix(1.17135414309804 0 0 1.17135414309804 202.620410119642 25.6841319146711)" fill="#9098a1" fill-rule="evenodd" stroke="#313131" stroke-width="2" stroke-linecap="square" stroke-linejoin="miter" stroke-miterlimit="2" width="21" height="22"/>
  <path id="shape047" transform="matrix(1.17135414309804 0 0 1.17135414309804 152.389714803082 0)" fill="#9098a1" fill-rule="evenodd" stroke="#313131" stroke-width="2" stroke-linecap="square" stroke-linejoin="miter" stroke-miterlimit="2" d="M4.64206 0L21 0L21 22L0 22L5.60249 15.9651Z" sodipodi:nodetypes="cccccc"/>
  <rect id="shape0117" transform="matrix(1.17135414309804 0 0 1.17135414309804 178.007662655308 0.093708471083005)" fill="#9098a1" fill-rule="evenodd" stroke="#313131" stroke-width="2" stroke-linecap="square" stroke-linejoin="miter" stroke-miterlimit="2" width="21" height="22"/>
  <path id="shape041113" transform="matrix(1.17135414309804 0 0 1.17135414309804 253.622581619319 16.7674021452492)" fill="#9098a1" fill-rule="evenodd" stroke="#313131" stroke-width="2" stroke-linecap="square" stroke-linejoin="miter" stroke-miterlimit="2" d="M0 0L21.2401 6.64295L21.2401 7.99377L0.240107 7.99377Z" sodipodi:nodetypes="ccccc"/>
  <path id="shape0211113" transform="matrix(1.17135414309804 0 0 1.17135414309804 228.494500459559 0.328940357290037)" fill="#9098a1" fill-rule="evenodd" stroke="#313131" stroke-width="2" stroke-linecap="square" stroke-linejoin="miter" stroke-miterlimit="2" d="M0 0L18.3588 0L18.1959 11.2556L21.043 13.6644L21 22L0 22Z" sodipodi:nodetypes="ccccccc"/>
  <rect id="shape0311113" transform="matrix(1.17135414309804 0 0 1.17135414309804 202.859333036796 0.203019935269026)" fill="#9098a1" fill-rule="evenodd" stroke="#313131" stroke-width="2" stroke-linecap="square" stroke-linejoin="miter" stroke-miterlimit="2" width="21" height="22"/>
 </g><path id="shape1" transform="translate(155.124994182384, 325.499986872173)" fill="#5a3654" fill-rule="evenodd" stroke="#262626" stroke-width="2" stroke-linecap="square" stroke-linejoin="bevel" d="M116.812 186.5L68 186.5L67.2187 85.2812L0 20.5L36.375 8L92.375 58.8437L151.875 0L187.875 10.8125L118.219 84.9062Z" sodipodi:nodetypes="cccccccccc"/>
</svg>
