<?xml version="1.0" standalone="no"?>
<!DOCTYPE svg PUBLIC "-//W3C//DTD SVG 20010904//EN" "http://www.w3.org/TR/2001/REC-SVG-20010904/DTD/svg10.dtd">
<!-- Created using Krita: https://krita.org -->
<svg xmlns="http://www.w3.org/2000/svg" 
    xmlns:xlink="http://www.w3.org/1999/xlink"
    xmlns:krita="http://krita.org/namespaces/svg/krita"
    xmlns:sodipodi="http://sodipodi.sourceforge.net/DTD/sodipodi-0.dtd"
    width="512pt"
    height="512pt"
    viewBox="0 0 512 512">
    <style>
        .uniform-color {
            color: #6a0000;
        }
    </style>
<defs>
  <radialGradient id="gradient0" gradientUnits="objectBoundingBox" cx="0.646153801095856" cy="-0.128472213332077" fx="0.463907731783125" fy="0.82943668344902" r="1.77315949362155" spreadMethod="reflect">
   <stop stop-color="#4f4f4f" offset="0.0571428574621677" stop-opacity="1"/>
   <stop stop-color="#232323" offset="0.423376619815826" stop-opacity="1"/>
   <stop stop-color="#646464" offset="0.742857158184052" stop-opacity="1"/>
   <stop stop-color="#767676" offset="0.984415590763092" stop-opacity="1"/>
  </radialGradient>
  <radialGradient id="gradient1" gradientUnits="objectBoundingBox" cx="0.646153801095856" cy="-0.128472213332077" fx="0.463907731783125" fy="0.82943668344902" r="1.77315949362155" spreadMethod="reflect">
   <stop stop-color="#4f4f4f" offset="0.0571428574621677" stop-opacity="1"/>
   <stop stop-color="#232323" offset="0.423376619815826" stop-opacity="1"/>
   <stop stop-color="#646464" offset="0.742857158184052" stop-opacity="1"/>
   <stop stop-color="#767676" offset="0.984415590763092" stop-opacity="1"/>
  </radialGradient>
  <radialGradient id="gradient2" gradientUnits="objectBoundingBox" cx="0.646153801095856" cy="-0.128472213332077" fx="0.463907731783125" fy="0.82943668344902" r="1.77315949362155" spreadMethod="reflect">
   <stop stop-color="#4f4f4f" offset="0.0571428574621677" stop-opacity="1"/>
   <stop stop-color="#232323" offset="0.423376619815826" stop-opacity="1"/>
   <stop stop-color="#646464" offset="0.742857158184052" stop-opacity="1"/>
   <stop stop-color="#767676" offset="0.984415590763092" stop-opacity="1"/>
  </radialGradient>
  <radialGradient id="gradient3" gradientUnits="objectBoundingBox" cx="0.646153801095856" cy="-0.128472213332077" fx="0.463907731783125" fy="0.82943668344902" r="1.77315949362155" spreadMethod="reflect">
   <stop stop-color="#4f4f4f" offset="0.0571428574621677" stop-opacity="1"/>
   <stop stop-color="#232323" offset="0.423376619815826" stop-opacity="1"/>
   <stop stop-color="#646464" offset="0.742857158184052" stop-opacity="1"/>
   <stop stop-color="#767676" offset="0.984415590763092" stop-opacity="1"/>
  </radialGradient>
  <radialGradient id="gradient4" gradientUnits="objectBoundingBox" cx="0.49745097117199" cy="0.505498429739572" fx="0.49745097117199" fy="0.505498429739572" r="0.795711504962723" spreadMethod="pad">
   <stop stop-color="#0a0402" offset="0.257142871618271" stop-opacity="1"/>
   <stop stop-color="#86411f" offset="0.329870134592056" stop-opacity="1"/>
   <stop stop-color="#653c29" offset="0.451948046684265" stop-opacity="1"/>
   <stop stop-color="#874323" offset="0.576623380184174" stop-opacity="1"/>
   <stop stop-color="#863f1c" offset="0.677922070026398" stop-opacity="1"/>
   <stop stop-color="#0a0402" offset="0.893506467342377" stop-opacity="1"/>
  </radialGradient>
  <linearGradient id="gradient5" gradientUnits="objectBoundingBox" x1="1.00190889243833" y1="0.00326226171632532" x2="3.11827749883835" y2="0.00326226171632532" spreadMethod="pad">
   <stop stop-color="#5d2a17" offset="0.111688002943993" stop-opacity="1"/>
   <stop stop-color="#884c2f" offset="0.522077977657318" stop-opacity="1"/>
   <stop stop-color="#5d2a17" offset="0.903895974159241" stop-opacity="1"/>
  </linearGradient>
  <radialGradient id="gradient6" gradientUnits="objectBoundingBox" cx="0" cy="0" fx="0" fy="0" r="1.30968072049963" spreadMethod="pad">
   <stop stop-color="#000000" offset="0.124675326049328" stop-opacity="1"/>
   <stop stop-color="#182633" offset="0.724675297737122" stop-opacity="1"/>
   <stop stop-color="#000000" offset="0.950649321079254" stop-opacity="1"/>
  </radialGradient>
 </defs>
<path id="shape0" transform="translate(40.3124973130669, 293.265605195207)" fill="#a4a4a4" fill-rule="evenodd" stroke-opacity="0" stroke="#000000" stroke-width="0" stroke-linecap="square" stroke-linejoin="bevel" d="M162.609 4.64062C186.168 24.5289 238.13 13.1097 253.593 0L253.875 30.4688L443.375 84.7969L459.25 218.734L0 218.734L27.75 78.7344L162.891 37.1719Z" sodipodi:nodetypes="ccccccccc"/><path id="shape01" transform="translate(39.9419991560251, 305.322170712738)" fill="currentColor" class="uniform-color" fill-rule="evenodd" stroke-opacity="0" stroke="#000000" stroke-width="0" stroke-linecap="square" stroke-linejoin="bevel" d="M163.406 8.55233C166.22 16.3518 170.568 19.1477 172.634 19.1917C172.619 18.4063 172.698 16.9254 172.732 16.4056C207.045 25.2588 244.013 14.4267 254.437 3.36483L254.478 0L256.346 2.62126L256.531 16.4273L444.469 70.4898L461.92 206.678L0 206.678L27.75 64.6773L161 23.9898L161.347 7.48892L163.609 5.38847Z" sodipodi:nodetypes="ccccccccccccccc"/><path id="shape1" transform="translate(36.874996097626, 404.999983828419)" fill="#000000" fill-opacity="0.952941176470588" fill-rule="evenodd" stroke-opacity="0" stroke="#000000" stroke-width="0" stroke-linecap="square" stroke-linejoin="bevel" d="M79.75 0.75L15.2386 40.0461L0 121.375L467.375 117.875L456.335 36.0273L387 0Z" sodipodi:nodetypes="ccccccc"/><path id="shape2" transform="translate(200.927722483498, 307.718746943922)" fill="none" stroke-opacity="0.286274509803922" stroke="#000000" stroke-width="2" stroke-linecap="butt" stroke-linejoin="round" d="M93.2285 0C87.9857 13.5253 48.1515 25.1173 11.5957 15.3594L11.058 33.4098M0 21.2869C2.82686 26.4113 6.04802 31.02 11.0209 33.3381L10.666 44.4375M10.769 44.5813C50.2909 58.7665 87.528 33.2333 94.9785 15.0469" sodipodi:nodetypes="cccccccc"/><path id="shape032" transform="matrix(0.00295868731171142 -0.00010251497234775 8.95169845795023e-05 0.00258355204505746 272.614372554434 322.798015818581)" fill="url(#gradient0)" fill-rule="evenodd" stroke="#3f3f3f" stroke-width="2.88" stroke-linecap="square" stroke-linejoin="bevel" d="M30.7401 857.721C865.087 544.185 1467.45 258.278 1837.83 0C2333.97 594.402 2339.54 2782.22 1854.54 6563.44L0 7942.42Z" sodipodi:nodetypes="ccccc"/><path id="shape0321" transform="matrix(0.00224603124416638 -7.78222930069322e-05 7.99758789846121e-05 0.00230818594567891 280.642898250613 319.305190127278)" fill="url(#gradient1)" fill-rule="evenodd" stroke="#3f3f3f" stroke-width="2.88" stroke-linecap="square" stroke-linejoin="bevel" d="M0 1085.74C264.666 909.658 1557.68 258.278 1928.06 0C2424.2 594.402 2559.31 2930.18 2106.37 6349.8L309.957 7599.95Z" sodipodi:nodetypes="ccccc"/><path id="shape0322" transform="matrix(0.00186638556602393 -6.46680248817875e-05 6.6457591164257e-05 0.00191803428554411 286.795105409651 315.558514360896)" fill="url(#gradient2)" fill-rule="evenodd" stroke="#3f3f3f" stroke-width="2.88" stroke-linecap="square" stroke-linejoin="bevel" d="M0 1537.18C864.219 934.531 1440.04 258.278 1810.42 0C2306.56 594.402 2405.9 3239.46 1952.96 6659.08L258.35 8328.47Z" sodipodi:nodetypes="ccccc"/><path id="shape0323" transform="matrix(0.0015607279223497 -5.40773535509203e-05 4.99393070076713e-05 0.00144129965228928 291.52171577339 311.824980420496)" fill="url(#gradient3)" fill-rule="evenodd" stroke="#3f3f3f" stroke-width="2.88" stroke-linecap="square" stroke-linejoin="bevel" d="M0 1678.94C864.219 1076.3 1553.99 258.278 1924.37 0C2420.51 594.402 2369.64 2988.97 1916.7 6408.59L406.925 9563.41Z" sodipodi:nodetypes="ccccc"/><g id="group0" transform="translate(335.703140208794, 440.072127314683)" fill="none">
  <path id="shape02" transform="matrix(0.0475887772785331 0 0 0.0475887772785331 0 15.1274733437892)" fill="url(#gradient4)" fill-rule="evenodd" stroke-opacity="0" stroke="#000000" stroke-width="0" stroke-linecap="square" stroke-linejoin="bevel" d="M178.66 114.964C110.765 110.604 79.887 230.334 177.205 238.711L613.355 244.543C715.583 236.51 706.413 112.739 612.375 113.705ZM635.223 0.0317012C815.826 -3.65776 892.75 315.848 635.223 354.812L176.583 354.812C-61.8888 338.558 -55.8136 13.2253 176.583 0.571701Z" sodipodi:nodetypes="cccccccccc"/>
  <path id="shape011" transform="matrix(0.0302511064790553 0 0 0.0302511064790553 1.10504042759277 0)" fill="url(#gradient5)" stroke-opacity="0" stroke="#000000" stroke-width="0" stroke-linecap="square" stroke-linejoin="bevel" d="M607.047 0C346.659 436.964 105.655 1042.06 0 1507.2L142.106 1562.39C345.783 1260.7 512.843 1132.91 772.803 1136.87C785.223 1147.75 949.141 1247.76 1008.39 1403.06C1019.32 1399.56 1164.43 1391.34 1180.23 1390.13C1084.13 997.108 828.11 408.079 607.047 0Z" sodipodi:nodetypes="ccccccc"/>
  <path id="shape012" transform="matrix(0.0302511064790554 0 0 0.0302511064790554 3.59727743455073 4.18918862435106)" fill="url(#gradient6)" stroke-opacity="0" stroke="#000000" stroke-width="0" stroke-linecap="square" stroke-linejoin="bevel" d="M524.808 0C271.784 424.606 102.667 863.026 0 1315.01L35.7603 1333.27C233.677 1040.11 458.94 895.45 711.548 899.296C723.617 909.867 905.36 1022.09 962.929 1173C969.51 1170.7 980.475 1168.97 995.828 1167.79C902.447 785.888 739.62 396.538 524.808 0Z" sodipodi:nodetypes="ccccccc"/>
 </g>
</svg>
