<?xml version="1.0" standalone="no"?>
<!DOCTYPE svg PUBLIC "-//W3C//DTD SVG 20010904//EN" "http://www.w3.org/TR/2001/REC-SVG-20010904/DTD/svg10.dtd">
<!-- Created using Krita: https://krita.org -->
<svg xmlns="http://www.w3.org/2000/svg" 
    xmlns:xlink="http://www.w3.org/1999/xlink"
    xmlns:krita="http://krita.org/namespaces/svg/krita"
    xmlns:sodipodi="http://sodipodi.sourceforge.net/DTD/sodipodi-0.dtd"
    width="512pt"
    height="512pt"
    viewBox="0 0 512 512">
<defs/>
<path id="shape0" transform="translate(38.9999973654754, 321.062480224178)" fill="#000000" fill-rule="evenodd" stroke-opacity="0" stroke="#000000" stroke-width="0" stroke-linecap="square" stroke-linejoin="bevel" d="M255.562 0L444.75 54.9375L461.25 199.688L0 201.188L29.25 49.6875L164.25 8.625C189.463 17.0699 214.727 25.4024 255.562 0Z" sodipodi:nodetypes="ccccccc"/><path id="shape01" transform="translate(40.4999972641475, 302.980351228615)" fill="#6c8e55" fill-rule="evenodd" stroke-opacity="0" stroke="#000000" stroke-width="0" stroke-linecap="square" stroke-linejoin="bevel" d="M158.25 0.75L195.75 3.75L204.375 140.25L215.5 3.75L258.75 0L258 16.5L444.75 71.25C449.75 117.083 454.75 162.917 459.75 208.75L0 208.75L26.25 64.5L155.25 25.5Z" sodipodi:nodetypes="cccccccccccc"/><path id="shape2" transform="translate(242.624983610243, 443.624969843753)" fill="none" stroke="#000000" stroke-width="5" stroke-linecap="square" stroke-linejoin="miter" stroke-miterlimit="2" d="M1.875 0L0 68.375" sodipodi:nodetypes="cc"/><path id="shape4" transform="translate(106.561997702736, 317.957559043093)" fill="#333333" fill-rule="evenodd" stroke="#000000" stroke-width="1" stroke-linecap="square" stroke-linejoin="bevel" d="M0 194.042L11.563 78.4799L51.75 23.2924L89.563 10.0424L138.256 122.052L192.833 0L245.643 15.2796L306.926 116.984L312.74 194.042Z" sodipodi:nodetypes="cccccccccc"/><path id="shape1" transform="matrix(1.12640129485166 0 0 1.12640129485166 53.1116229844272 392.581143909842)" sodipodi:type="arc" sodipodi:rx="23" sodipodi:ry="23" sodipodi:cx="5.10855297753819" sodipodi:cy="22.7313561082318" sodipodi:start="4.86537903248758" sodipodi:end="1.79477534504029" sodipodi:open="true" d="M0 45.1568C8.20174 47.0252 16.7692 44.2671 22.3406 37.9648C27.9119 31.6625 29.5984 22.8214 26.7381 14.9107C23.8779 7.00009 16.9272 1.28192 8.61361 0" fill="#333333" fill-rule="evenodd" stroke="none" stroke-width="4" stroke-linecap="square" stroke-linejoin="bevel"/><path id="shape3" transform="translate(45.6429147155295, 452.212912857363)" sodipodi:type="arc" sodipodi:rx="14.5" sodipodi:ry="14.5" sodipodi:cx="2.85708528447051" sodipodi:cy="14.3027121415381" sodipodi:start="4.87753755461378" sodipodi:end="1.76913450829329" sodipodi:open="true" d="M0 28.5184C5.13502 29.5505 10.4275 27.733 13.8451 23.7639C17.2627 19.7948 18.2741 14.2911 16.4909 9.3663C14.7078 4.44147 10.4073 0.861073 5.24087 1.77636e-15" fill="#373737" fill-rule="evenodd"/><g id="group0" transform="translate(464.346947416126, 402.597216486093)" fill="none">
  <path id="shape02" sodipodi:type="arc" sodipodi:rx="23" sodipodi:ry="23" sodipodi:cx="23.0002773618728" sodipodi:cy="23.000037244039" sodipodi:start="1.29877926596371" sodipodi:end="4.73626705785724" sodipodi:open="true" d="M23.5494 0.0065938C14.5189 -0.20908 6.19816 4.88136 2.27845 13.0198C-1.64125 21.1581 -0.43414 30.8375 5.3643 37.7639C11.1627 44.6904 20.4788 47.5813 29.1798 45.1543" fill="#333333" fill-rule="evenodd" stroke="#d9d9d9" stroke-width="3" stroke-linecap="square" stroke-linejoin="bevel"/>
  <path id="shape5" transform="matrix(1.16071540949582 0 0 1.16071540949582 11.1528066621738 10.2775569196018)" sodipodi:type="arc" sodipodi:rx="11" sodipodi:ry="10.5" sodipodi:cx="11.0002102654578" sodipodi:cy="10.5001702080206" sodipodi:start="1.20122238177471" sodipodi:end="4.79235265875798" sodipodi:open="true" d="M11.8789 0.0337218C7.36828 -0.311303 3.09652 2.01557 1.11314 5.89792C-0.87023 9.78028 -0.160514 14.4259 2.90178 17.606C5.96407 20.786 10.7541 21.8515 14.9736 20.2912" fill="#d9d9d9" fill-rule="evenodd"/>
 </g><path id="shape6" transform="translate(482.812499131615, 406.99998852481)" sodipodi:type="arc" sodipodi:rx="5" sodipodi:ry="5" sodipodi:cx="5.00000087598143" sodipodi:cy="5.00001147518958" sodipodi:start="1.50580277646356" sodipodi:end="4.74526758711232" sodipodi:open="true" d="M5.16436 0.00271374C3.32063 -0.0579276 1.59328 0.901558 0.67051 2.49891C-0.252263 4.09626 -0.220536 6.07194 0.753052 7.63884C1.72664 9.20574 3.4839 10.1093 5.32474 9.98945" fill="none" stroke="#9c9c9c" stroke-width="4" stroke-linecap="square" stroke-linejoin="bevel"/><path id="shape7" transform="translate(480.775772167497, 417.937483068308)" fill="none" stroke="#9c9c9c" stroke-width="4" stroke-linecap="butt" stroke-linejoin="miter" stroke-miterlimit="2" d="M7.28671 0L0 22.342L5.13046 23.8125" sodipodi:nodetypes="ccc"/><path id="shape8" transform="matrix(0.833358717232091 0 0 0.877992483615516 60.7391443576078 398.363472595134)" fill="#9c9c9c" fill-rule="evenodd" d="M10.7275 27.4194C17.0912 29.0715 20.492 29.4568 20.9297 28.5753C23.8151 22.7639 23.6585 15.7759 20.2682 10.0147C16.1065 2.94263 9.31272 -1.19453 1.24544 0.306361C0.988891 0.138211 0.573743 3.43989 0 10.2114C8.14931 13.297 11.7251 19.033 10.7275 27.4194Z" sodipodi:nodetypes="cccccc"/><path id="shape9" transform="translate(55.4999977515566, 421.78123291259)" fill="#9c9c9c" fill-rule="evenodd" d="M0 10.4062L5.71875 11.625L11.25 3.28125L1.5 0Z" sodipodi:nodetypes="ccccc"/><path id="shape10" transform="translate(53.8124978199214, 425.906232745476)" fill="#9c9c9c" fill-rule="evenodd" d="M15.75 0L25.875 3.28125L24.375 5.4375L21.0937 4.78125L20.9062 8.53125L18.1875 7.5L17.8125 10.7812L15 10.0312L13.0312 13.875L10.2187 13.2187L7.125 15.375L0 14.625L0.5625 9.5625L8.90625 9.9375Z" sodipodi:nodetypes="ccccccccccccccc"/><path id="shape11" transform="translate(60.1874975616543, 413.906233231626)" fill="#9c9c9c" fill-rule="evenodd" stroke="#333333" stroke-width="1" stroke-linecap="square" stroke-linejoin="miter" stroke-miterlimit="2" d="M1.6875 0L0 0" sodipodi:nodetypes="cc"/><path id="shape12" transform="translate(55.8749994015693, 412.499995582055)" fill="#a0a0a0" fill-rule="evenodd" stroke="#4f4f4f" stroke-width="1" stroke-linecap="square" stroke-linejoin="bevel" d="M3.14062 1.5L6 0L8.71875 1.21875L3.28125 14.1562L5.0625 14.9062L4.125 16.875L0 14.3437L5.71875 2.53125L3.02344 3.89062Z" sodipodi:nodetypes="cccccccccc"/><path id="shape13" transform="translate(48.4531240354216, 458.562494971841)" fill="#a0a0a0" fill-rule="evenodd" stroke="none" stroke-width="1" stroke-linecap="square" stroke-linejoin="bevel" d="M9.75 0L6.875 3.8125L0 8.125L0.125 12.3125L8.4375 8.8125Z" sodipodi:nodetypes="cccccc"/><path id="shape14" transform="translate(50.1562493529224, 472.171870186038)" fill="#a0a0a0" fill-rule="evenodd" stroke="none" stroke-width="1" stroke-linecap="square" stroke-linejoin="bevel" d="M0.109375 0L4.53125 2.17187L0 4.6875Z" sodipodi:nodetypes="cccc"/><path id="shape03" transform="matrix(1 0 0 1.16096102822681 47.1218745339262 472.687466763072)" fill="#a0a0a0" fill-rule="evenodd" stroke-opacity="0" stroke="#000000" stroke-width="0" stroke-linecap="square" stroke-linejoin="bevel" d="M0.0625002 0L2.51563 1.01563L0 3.28125Z" sodipodi:nodetypes="cccc"/><path id="shape04" transform="matrix(2.05814635220345e-16 0.741525371588595 -0.59794601461392 1.65963358226806e-16 48.9265700038821 477.860202098504)" fill="#a0a0a0" fill-rule="evenodd" stroke-opacity="0" stroke="#000000" stroke-width="0" stroke-linecap="square" stroke-linejoin="bevel" d="M0 0L2.91786 2.48511L3.7917 4.76936L0.0199107 4.68533Z" sodipodi:nodetypes="ccccc"/><rect id="shape15" transform="translate(136.250000070897, 461)" fill="#191919" fill-rule="evenodd" stroke="#000000" stroke-width="2" stroke-linecap="square" stroke-linejoin="bevel" width="87" height="29"/><rect id="shape16" transform="matrix(0.972688646325935 -0.232113759412541 0.137565195713092 0.576476398203992 161.67485655578 333.528140192048)" fill="#191919" fill-rule="evenodd" stroke="#000000" stroke-width="2" stroke-linecap="square" stroke-linejoin="bevel" width="29" height="19"/><g id="group1" transform="translate(148, 377)" fill="none">
  <rect id="shape17" fill="#191919" fill-rule="evenodd" stroke="#000000" stroke-width="2" stroke-linecap="square" stroke-linejoin="bevel" width="58" height="67"/>
  <ellipse id="shape18" transform="matrix(0.889204374432302 0 0 0.832447167187824 23.7187499373542 10.5312499281865)" rx="5.5" ry="6" cx="5.5" cy="6" fill="#8e9550" fill-rule="evenodd"/>
  <ellipse id="shape19" transform="matrix(0.799999528660669 0 0 0.799999528660669 23.5937500108704 54.5000000062867)" rx="5.5" ry="5" cx="5.5" cy="5" fill="none" stroke="#a3b051" stroke-width="1" stroke-linecap="square" stroke-linejoin="bevel"/>
  <path id="shape20" transform="matrix(0.971496779143799 0 0 1 1.56249839816428 24.8124956965295)" fill="none" stroke="#000000" stroke-width="4" stroke-linecap="square" stroke-linejoin="miter" stroke-miterlimit="2" d="M0 0L57.0111 0" sodipodi:nodetypes="cc"/>
 </g><rect id="shape05" transform="matrix(-1.13659221354893 0 0 1.14951078680378 385.758510956745 457.414167301201)" fill="#191919" fill-rule="evenodd" stroke="#000000" stroke-width="2" stroke-linecap="square" stroke-linejoin="bevel" width="87" height="29"/><rect id="shape110" transform="matrix(-0.961757257359453 -0.232113759412541 -0.136019193641134 0.576476398203992 340.113463800246 324.879807698344)" fill="#191919" fill-rule="evenodd" stroke="#000000" stroke-width="2" stroke-linecap="square" stroke-linejoin="bevel" width="29" height="19"/><g id="group01" transform="matrix(-0.988761677225521 0 0 1 358.884637691467 374.851667242965)" fill="none">
  <rect id="shape21" fill="#191919" fill-rule="evenodd" stroke="#000000" stroke-width="2" stroke-linecap="square" stroke-linejoin="bevel" width="58" height="67"/>
  <ellipse id="shape31" transform="matrix(0.889204374432302 0 0 0.832447167187824 23.7187499373542 10.5312499281865)" rx="5.5" ry="6" cx="5.5" cy="6" fill="#8e9550" fill-rule="evenodd" stroke-opacity="0" stroke="#000000" stroke-width="0" stroke-linecap="square" stroke-linejoin="bevel"/>
  <ellipse id="shape41" transform="matrix(0.799999528660669 0 0 0.799999528660669 23.5937500108704 54.5000000062867)" rx="5.5" ry="5" cx="5.5" cy="5" fill="none" stroke="#a3b051" stroke-width="1" stroke-linecap="square" stroke-linejoin="bevel"/>
  <path id="shape51" transform="matrix(0.971496779143799 0 0 1 1.56249839816428 24.8124956965295)" fill="none" stroke="#000000" stroke-width="4" stroke-linecap="square" stroke-linejoin="miter" stroke-miterlimit="2" d="M0 0L57.0111 0" sodipodi:nodetypes="cc"/>
 </g>
</svg>
