<?xml version="1.0" standalone="no"?>
<!DOCTYPE svg PUBLIC "-//W3C//DTD SVG 20010904//EN" "http://www.w3.org/TR/2001/REC-SVG-20010904/DTD/svg10.dtd">
<!-- Created using Krita: https://krita.org -->
<svg xmlns="http://www.w3.org/2000/svg" 
    xmlns:xlink="http://www.w3.org/1999/xlink"
    xmlns:krita="http://krita.org/namespaces/svg/krita"
    xmlns:sodipodi="http://sodipodi.sourceforge.net/DTD/sodipodi-0.dtd"
    width="512pt"
    height="512pt"
    viewBox="0 0 512 512">
<defs/>
<path id="shape0" transform="translate(40.4999972641475, 296.374979563112)" fill="#949494" fill-rule="evenodd" stroke-opacity="0" stroke="#000000" stroke-width="0" stroke-linecap="square" stroke-linejoin="bevel" d="M158.5 0C187.782 17.8862 219.806 20.4202 255.75 1L277 26.75L444.75 77.75L459.75 215.25L0 215.25L26.25 71L142.25 34.5Z" sodipodi:nodetypes="ccccccccc"/><path id="shape1" transform="translate(53.2499959678367, 294.874979446164)" fill="#434343" fill-rule="evenodd" stroke-opacity="0" stroke="#000000" stroke-width="0" stroke-linecap="square" stroke-linejoin="bevel" d="M0 141.25L195.75 69.25L439.5 139L432 77.875L264.375 27.25L245.375 2.25C213.786 9.47161 183.561 23.2441 145.625 0L128.375 35L12.75 72.25Z" sodipodi:nodetypes="cccccccccc"/><g id="group0" transform="matrix(0.0298093968012932 0 0 0.0298093968012932 326.399998618401 452.563009953359)" fill="none">
  <ellipse id="shape01" transform="translate(0, 450.34698793035)" rx="676.8" ry="374.76" cx="676.8" cy="374.76" fill="#a37e28" fill-rule="evenodd" stroke="#000000" stroke-width="10.8" stroke-linecap="square" stroke-linejoin="bevel"/>
  <path id="shape011" transform="translate(124.607710143104, 0)" fill="#b2b2b2" stroke="#000000" stroke-width="10.8" stroke-linecap="square" stroke-linejoin="miter" stroke-miterlimit="2.16000008583069" d="M549.065 0C288.677 436.964 105.655 888.013 0 1353.15L36.8011 1371.94C240.478 1070.25 472.297 921.381 732.257 925.339C744.677 936.217 931.709 1051.71 990.954 1207.01C997.726 1204.64 1009.01 1202.86 1024.81 1201.65C928.711 808.63 770.128 408.079 549.065 0Z" sodipodi:nodetypes="ccccccc"/>
 </g><path id="shape2" transform="translate(180.99999885516, 335.499997877935)" fill="none" stroke="#434343" stroke-width="2" stroke-linecap="square" stroke-linejoin="miter" stroke-miterlimit="2" d="M0 0L0.5 0.5" sodipodi:nodetypes="cc"/><path id="shape3" transform="translate(181.499998851998, 322.999997956999)" fill="none" stroke="#2b2b2b" stroke-width="5" stroke-linecap="square" stroke-linejoin="bevel" d="M0 6C0.776713 19.0655 53.7767 39.6489 66 40C78.2233 40.3511 131.89 14.7678 135.5 0" sodipodi:nodetypes="czc"/><path id="shape4" transform="translate(60.7499996157515, 334.624997916998)" fill="none" stroke="#2b2b2b" stroke-width="4" stroke-linecap="square" stroke-linejoin="miter" stroke-miterlimit="2" d="M2.28125 96.125L0 70.0625M7.25 36.5L14.0625 91.7187M27.8125 87.0937L20.5 30.625M36 25.625L43.1875 80.7812M60.5 74.5937L52.25 20.375M66.875 15.625L75.5 68.625M92.5 61.375L83.25 10.5M98.75 5.5L109.5 55.625M126.75 50.125L114.375 0M135.5 11.375L143.5 43.375M158 37.875L154.125 20.625M167.125 25.375L169.875 33.875" sodipodi:nodetypes="cccccccccccccccccccccccc"/><path id="shape02" transform="matrix(-1 0 0 1 486.999982405958 331.734752769563)" fill="none" stroke="#2b2b2b" stroke-width="4" stroke-linecap="square" stroke-linejoin="miter" stroke-miterlimit="2" d="M7.55816 96.875L0 64.9375M13.5855 39.75L27.8534 89.9687M46.5156 84.5937L31.9918 34.125M50.1747 28.875L65.572 79.0312M86.5887 73.3437L70.2414 23.25M91.1639 17.25L107.141 66.875M129.091 61.25L113.107 10.875M133.165 4.625L150.792 54.75M168.245 50.5L152.474 0.875M173.348 0L186.443 44.75M200.364 41.5L195.193 16.75M215.097 26.5L218.005 36" sodipodi:nodetypes="cccccccccccccccccccccccc"/><path id="shape5" transform="translate(184.312487747747, 298.812480288201)" fill="none" stroke="#2b2b2b" stroke-width="4" stroke-linecap="square" stroke-linejoin="miter" stroke-miterlimit="2" d="M17.875 0L0 35.0625M11.875 44L27.9375 4.5M37.375 7.8125L24.4375 51.1875M38.4375 57.1875L47.5 10.6875M58.0625 11.625L53.6875 63.4375M74.625 60.9375L66.6875 11.0625M78.6875 9.1875L88.875 55.0625M104.437 48.6875L89.25 7.0625M98.6875 4.6875L115.937 40.6875M127.187 29.8125L109.125 1.75" sodipodi:nodetypes="cccccccccccccccccccc"/>
</svg>
