<?xml version="1.0" standalone="no"?>
<!DOCTYPE svg PUBLIC "-//W3C//DTD SVG 20010904//EN" "http://www.w3.org/TR/2001/REC-SVG-20010904/DTD/svg10.dtd">
<!-- Created using Krita: https://krita.org -->
<svg xmlns="http://www.w3.org/2000/svg" 
    xmlns:xlink="http://www.w3.org/1999/xlink"
    xmlns:krita="http://krita.org/namespaces/svg/krita"
    xmlns:sodipodi="http://sodipodi.sourceforge.net/DTD/sodipodi-0.dtd"
    width="512pt"
    height="512pt"
    viewBox="0 0 512 512">
<defs/>
<path id="shape0" transform="translate(40.4999972641475, 296.687479958192)" fill="#ffffff" fill-rule="evenodd" stroke-opacity="0" stroke="#000000" stroke-width="0" stroke-linecap="square" stroke-linejoin="bevel" d="M161.812 0C174.262 5.7625 189.137 8.7 206.437 8.8125C227.475 7.15 243.787 4.3375 255.375 0.375C258.306 2.7231 259.686 6.54317 259.513 11.8352C260.961 17.2057 261.206 21.1981 260.25 23.8125L444.75 77.8125L459.75 215.313L0 215.313L26.25 71.0625L155.25 32.0625C153.907 29.4788 153.573 24.8654 154.247 18.2224C156.01 8.07791 158.532 2.00378 161.812 0Z" sodipodi:nodetypes="cccccccccccc"/><path id="shape1" transform="translate(39.8749984947364, 320.374987905985)" fill="#702121" fill-rule="evenodd" stroke-opacity="0" stroke="#000000" stroke-width="0" stroke-linecap="square" stroke-linejoin="bevel" d="M155.25 6.75C165.375 17.65 183.5 24.4 209.625 27C238.2 21.85 255.825 12.85 262.5 0L447.75 54L460.875 191.625L0 191.625L26.625 45.375L94.125 27L140.625 183L252.75 133.125L209.625 29.625L141.375 60L125.25 16.5Z" sodipodi:nodetypes="cccccccccccccc"/><path id="shape2" transform="translate(180.874993172049, 350.749986759343)" fill="#959595" fill-rule="evenodd" stroke="#cccccc" stroke-width="2" stroke-linecap="square" stroke-linejoin="miter" stroke-miterlimit="2" d="M68.625 0L0 152.625" sodipodi:nodetypes="cc"/><path id="shape3" transform="translate(133.374994965153, 337.187487271322)" fill="none" stroke="#959595" stroke-width="2" stroke-linecap="square" stroke-linejoin="bevel" d="M0 9.75L32.0625 0L51.1875 52.5L17.4375 66.5625Z" sodipodi:nodetypes="ccccc"/><path id="shape4" transform="translate(183.093743038001, 349.031236824226)" fill="none" stroke="#040404" stroke-width="4" stroke-linecap="square" stroke-linejoin="miter" stroke-miterlimit="2" d="M67.5 0L0 30.4453" sodipodi:nodetypes="cc"/><path id="shape5" transform="translate(146.460931990024, 395.718735095322)" fill="none" stroke="#040404" stroke-width="4" stroke-linecap="square" stroke-linejoin="miter" stroke-miterlimit="2" d="M0 0L34.9453 116.281" sodipodi:nodetypes="cc"/><path id="shape6" transform="translate(411.374996730709, 418.499996674085)" fill="none" stroke="#040404" stroke-width="2" stroke-linecap="square" stroke-linejoin="miter" stroke-miterlimit="2" d="M1.13687e-13 0L2.8125 93.5" sodipodi:nodetypes="cc"/><path id="shape7" transform="translate(126.749998992689, 424.687496624911)" fill="none" stroke="#040404" stroke-width="2" stroke-linecap="square" stroke-linejoin="miter" stroke-miterlimit="2" d="M3.9375 0L0 87.3125" sodipodi:nodetypes="cc"/><g id="group0" transform="matrix(0.0539518092953315 0 0 0.0539518092953315 315.179987479168 413.85187614352)" fill="none">
  <g id="group1" transform="translate(0, 153.90312043509)" fill="none">
   <rect id="shape01" fill="#ccb55f" fill-rule="evenodd" stroke="#9e7e27" stroke-width="20.88" stroke-linecap="square" stroke-linejoin="bevel" width="1153.44" height="375.84" rx="187.92" ry="187.92"/>
   <path id="shape11" transform="translate(169.92, 105.84)" fill="none" stroke="#a88218" stroke-width="14.4" stroke-linecap="square" stroke-linejoin="bevel" d="M0 0C165.888 0 442.368 0 829.44 0C756.72 51.696 756.72 104.256 829.44 157.68L0 157.68C64.8 106.416 64.8 53.856 0 0Z" sodipodi:nodetypes="ccccc"/>
   <path id="shape21" transform="translate(80.2799864173894, 183.959952327698)" fill="none" stroke="#a88218" stroke-width="14.4" stroke-linecap="square" stroke-linejoin="miter" stroke-miterlimit="2" d="M0 0L1002.25 0" sodipodi:nodetypes="cc"/>
  </g>
  <circle id="shape31" transform="matrix(0.528895042793038 0 0 0.528895042793038 315.354030047609 62.2546660501912)" r="485.999955318679" cx="485.999955318679" cy="485.999955318679" fill="none" stroke="#8a5e48" stroke-width="50.4" stroke-linecap="square" stroke-linejoin="bevel"/>
  <path id="shape011" transform="matrix(0.528895042793038 0 0 0.528895042793038 286.247701155433 -5.6843418860808e-14)" fill="#8a5e48" stroke-opacity="0" stroke="#000000" stroke-width="0" stroke-linecap="square" stroke-linejoin="bevel" d="M549.065 0C288.677 436.964 105.655 888.013 0 1353.15L36.8011 1371.94C240.478 1070.25 472.297 921.381 732.257 925.339C744.677 936.217 931.709 1051.71 990.954 1207.01C997.726 1204.64 1009.01 1202.86 1024.81 1201.65C928.711 808.63 770.128 408.079 549.065 0Z" sodipodi:nodetypes="ccccccc"/>
  <path id="shape0111" transform="matrix(0.528895042793038 0 0 0.528895042793038 515.967975089736 75.4999356870994)" fill="#333333" stroke="#814a45" stroke-width="4.32" stroke-linecap="square" stroke-linejoin="miter" stroke-miterlimit="2.16000008583069" d="M114.784 0L76.6191 491.502L0 493.679L67.0991 543.005L69.0775 612.239L111.893 552L149.317 614.527L150.313 540.37L212.532 490.544L148.478 491.495Z" sodipodi:nodetypes="ccccccccccc"/>
 </g>
</svg>
