<?xml version="1.0" standalone="no"?>
<!DOCTYPE svg PUBLIC "-//W3C//DTD SVG 20010904//EN" "http://www.w3.org/TR/2001/REC-SVG-20010904/DTD/svg10.dtd">
<!-- Created using Krita: https://krita.org -->
<svg xmlns="http://www.w3.org/2000/svg" 
    xmlns:xlink="http://www.w3.org/1999/xlink"
    xmlns:krita="http://krita.org/namespaces/svg/krita"
    xmlns:sodipodi="http://sodipodi.sourceforge.net/DTD/sodipodi-0.dtd"
    width="512pt"
    height="512pt"
    viewBox="0 0 512 512">
<defs/>
<path id="shape0" transform="translate(41.0752781630239, 300.512058285546)" fill="#232323" fill-rule="evenodd" stroke-opacity="0" stroke="#000000" stroke-width="0" stroke-linecap="square" stroke-linejoin="bevel" d="M157.125 1.80042C174.62 7.38058 185.29 12.5865 189.134 17.4183C206.233 38.9065 200.781 31.9835 205.438 32.0542C210.095 32.1249 204.208 33.5028 227.869 11.3778C232.074 7.44503 241.418 3.65243 255.899 0L258 19.2379L444.75 73.9879L459.75 211.488L0 211.488L26.25 67.2379L155.25 28.2379Z" sodipodi:nodetypes="cszscccccccc"/><path id="shape1" transform="translate(48.924429026462, 303.918308014779)" fill="#d00000" fill-rule="evenodd" stroke-opacity="0" stroke="#000000" stroke-width="0" stroke-linecap="square" stroke-linejoin="bevel" d="M0.447828 163.977C11.6062 166.887 8.66484 125.68 35.2034 125.408L424.551 126.434C444.216 127.116 439.102 162.613 446.768 162.083C448.518 150.208 446.019 80.0031 437.163 70.3253C430.284 62.8079 367.534 44.0579 248.913 14.0753L248.399 0C234.068 4.01349 225.037 8.12286 221.306 12.3281C197.547 39.1061 203.748 36.92 197.101 36.4966C190.454 36.0732 195.61 39.456 174.772 14.6292C171.578 10.8242 162.888 6.81432 148.701 2.59944L146.163 23.8253C72.9328 43.7572 29.8078 56.5072 16.7879 62.0753C3.76803 67.6433 -1.67867 101.61 0.447828 163.977Z" sodipodi:nodetypes="ccccsccszscczc"/><g id="group0" transform="matrix(0.0300059796223986 0 0 0.0300059796223986 328.919985844166 453.312985183798)" fill="none">
  <g id="group1" transform="translate(0, 327.406985136646)" fill="none">
   <path id="shape02" fill="#a37e28" fill-rule="evenodd" stroke-opacity="0" stroke="#000000" stroke-width="0" stroke-linecap="square" stroke-linejoin="bevel" d="M407.7 0L112.86 4.32L88.56 23.76L0 362.88L10.26 387.72L215.46 447.12L278.64 286.605L189.945 289.575L159.705 283.23L115.02 250.56L114.345 181.71L143.37 149.31L183.465 136.62L343.44 139.455L407.16 9.72Z" sodipodi:nodetypes="cccccccccccccccc"/>
   <path id="shape11" transform="translate(758.69999419642, 1.43999998898471)" fill="#a37e28" fill-rule="evenodd" stroke-opacity="0" stroke="#000000" stroke-width="0" stroke-linecap="square" stroke-linejoin="bevel" d="M0 0L296.46 3.78L319.14 13.5L325.62 33.48L410.4 361.8L406.08 381.24L386.64 391.5L180.36 447.12L118.935 286.335L240.3 285.66L271.62 279.315L309.96 250.83L317.79 199.53L301.86 161.865L257.31 135.945L57.915 135.81Z" sodipodi:nodetypes="ccccccccccccccccc"/>
  </g>
  <path id="shape011" transform="translate(1.92849992118681, 328.306962470848)" fill="none" stroke="#000000" stroke-width="10.8" stroke-linecap="square" stroke-linejoin="bevel" d="M407.031 0L125.151 3.24C101.247 3.384 88.2875 12.744 86.2715 31.32C69.2075 96.552 40.7675 205.272 0.951497 357.48C-2.4595 375.075 3.3005 385.875 18.2315 389.88C148.119 425.592 212.919 443.592 212.631 443.88" sodipodi:nodetypes="cccccc"/>
  <path id="shape111" transform="translate(112.319998477205, 463.666984094341)" fill="none" stroke="#000000" stroke-width="10.8" stroke-linecap="square" stroke-linejoin="bevel" d="M692.64 2.47909e-15L876.96 0C924.677 2.18621e-15 963.36 28.9434 963.36 64.6468L963.36 87.2732C963.36 122.976 924.677 151.92 876.96 151.92L777.285 151.92M155.88 151.92L86.4 151.92C38.6826 151.92 8.36716e-15 122.976 1.42109e-14 87.2732L0 64.6468C5.8437e-15 28.9434 38.6826 8.44673e-15 86.4 1.0633e-14L246.6 8.47831e-15" sodipodi:nodetypes="cccccccccccc"/>
  <path id="shape0111" transform="matrix(-1 0 0 1 1167.95549168767 328.475050006839)" fill="none" stroke="#000000" stroke-width="10.8" stroke-linecap="square" stroke-linejoin="bevel" d="M407.031 0L125.151 3.24C101.247 3.384 88.2875 12.744 86.2715 31.32C69.2075 96.552 40.7675 205.272 0.951497 357.48C-2.4595 375.075 3.3005 385.875 18.2315 389.88C148.119 425.592 227.499 443.592 227.211 443.88" sodipodi:nodetypes="cccccc"/>
  <path id="shape021" transform="translate(41.0877111712979, -5.6843418860808e-14)" fill="#b2b2b2" stroke="#000000" stroke-width="10.8" stroke-linecap="square" stroke-linejoin="miter" stroke-miterlimit="2.16000008583069" d="M549.065 0C288.677 436.964 105.655 888.013 0 1353.15L36.8011 1371.94C240.478 1070.25 472.297 921.381 732.257 925.339C744.677 936.217 931.709 1051.71 990.954 1207.01C997.726 1204.64 1009.01 1202.86 1024.81 1201.65C928.711 808.63 770.128 408.079 549.065 0Z" sodipodi:nodetypes="ccccccc"/>
 </g><path id="shape2" transform="translate(177.761797752809, 329.060674157303)" fill="none" stroke-opacity="0.431372549019608" stroke="#565656" stroke-width="8" stroke-linecap="round" stroke-linejoin="bevel" d="M0 6.61573L67.0202 43.7213L146.409 0" sodipodi:nodetypes="ccc"/><path id="shape3" transform="translate(160.791011235955, 334.813483146067)" fill="none" stroke-opacity="0.431372549019608" stroke="#565656" stroke-width="8" stroke-linecap="round" stroke-linejoin="bevel" d="M0 5.75281L83.991 54.9393L183.515 0" sodipodi:nodetypes="ccc"/><path id="shape4" transform="translate(146.984269662921, 339.415730337079)" fill="none" stroke-opacity="0.431372549019608" stroke="#565656" stroke-width="8" stroke-linecap="round" stroke-linejoin="bevel" d="M216.593 0L97.0478 67.8576L0 6.32809" sodipodi:nodetypes="ccc"/><path id="shape5" transform="translate(132.889887640449, 343.730337078652)" fill="none" stroke-opacity="0.431372549019608" stroke="#565656" stroke-width="8" stroke-linecap="round" stroke-linejoin="bevel" d="M0 6.90337L111.291 82.0756L248.521 0" sodipodi:nodetypes="ccc"/><path id="shape6" transform="translate(276.901192712087, 346.294943890307)" fill="none" stroke-opacity="0.431372549019608" stroke="#565656" stroke-width="8" stroke-linecap="butt" stroke-linejoin="miter" stroke-miterlimit="2" d="M123.405 0L0.20746 79.9149L0 83.6225" sodipodi:nodetypes="ccc"/><path id="shape7" transform="translate(108.002247150964, 353.249438362435)" fill="none" stroke-opacity="0.431372549019608" stroke="#565656" stroke-width="8" stroke-linecap="butt" stroke-linejoin="miter" stroke-miterlimit="2" d="M0 0L109.338 73.6497L109.089 76.6935" sodipodi:nodetypes="ccc"/><path id="shape8" transform="translate(84.8955954323002, 348.446982055465)" fill="#6c6c6c" fill-rule="evenodd" stroke="#6c6c6c" stroke-width="4" stroke-linecap="square" stroke-linejoin="miter" stroke-miterlimit="2" d="M0 4.77325L20.1158 0L31.708 46.3687L6.47798 49.4372Z" sodipodi:nodetypes="ccccc"/><path id="shape9" transform="translate(122.249995885999, 506.624982950874)" fill="#000000" fill-rule="evenodd" stroke-opacity="0" stroke="#000000" stroke-width="0" stroke-linecap="square" stroke-linejoin="bevel" d="M0 0L59.25 0L58.125 5.37502L5.25 5.37502Z" sodipodi:nodetypes="ccccc"/><path id="shape01" transform="matrix(-0.925545685950363 0 0 1 429.933115823817 341.853801566069)" fill="#6c6c6c" fill-rule="evenodd" stroke="#6c6c6c" stroke-width="4" stroke-linecap="square" stroke-linejoin="miter" stroke-miterlimit="2" d="M0 5.45514L28.22 0L32.4447 53.8695L2.0575 53.5286Z" sodipodi:nodetypes="ccccc"/><path id="shape10" transform="translate(80.4999996900706, 397.812474756927)" fill="#849085" fill-rule="evenodd" stroke-opacity="0" stroke="#000000" stroke-width="0" stroke-linecap="square" stroke-linejoin="bevel" d="M37.375 0L55.5 114.188L27 114.188L28.3437 93.9688C27.6434 102.646 25.6725 112.136 18.8125 114.188L0 114.188C18.973 107.356 18.2456 99.4238 21.3281 81.9063L11.25 2.25002Z" sodipodi:nodetypes="ccccccccc"/><path id="shape03" transform="matrix(-1.0059070507613 0 0 1 408.599991413945 506.412484953762)" fill="#000000" fill-rule="evenodd" stroke-opacity="0" stroke="#000000" stroke-width="0" stroke-linecap="square" stroke-linejoin="bevel" d="M0 0L59.25 0L58.125 5.37502L5.25 5.37502Z" sodipodi:nodetypes="ccccc"/><path id="shape04" transform="matrix(-0.98018002035838 0 0 1 445.124985104307 396.793794809749)" fill="#849085" fill-rule="evenodd" stroke-opacity="0" stroke="#000000" stroke-width="0" stroke-linecap="square" stroke-linejoin="bevel" d="M46.6208 0.65623L54.9261 115.206L28.0202 115.206L27.8795 101C25.8067 109.774 23.7245 113.38 20.0878 115.206L0 115.206C18.973 108.374 19.4571 101.299 22.5396 83.7813L16.0004 0Z" sodipodi:nodetypes="ccccccccc"/><path id="shape13" transform="translate(113.499992797893, 398.812474693478)" fill="none" stroke="#565656" stroke-width="3" stroke-linecap="square" stroke-linejoin="miter" stroke-miterlimit="2" d="M0 0C6.95833 37.7917 10.8229 75.3959 17.7812 113.188" sodipodi:nodetypes="cc"/><path id="shape14" transform="translate(95.6874937892878, 486.656219412675)" fill="none" stroke="#565656" stroke-width="3" stroke-linecap="square" stroke-linejoin="bevel" d="M18.4375 25.3438L15.0625 0C7.78659 7.33896 11.3618 19.7986 0 25.3438" sodipodi:nodetypes="ccc"/><path id="shape15" transform="translate(84.8124946082582, 400.031224616143)" fill="none" stroke="#565656" stroke-width="3" stroke-linecap="square" stroke-linejoin="bevel" d="M0 111.969C18.983 110.031 19.5096 80.3971 22.75 76.3437L12.7812 0" sodipodi:nodetypes="ccc"/><path id="shape16" transform="translate(395.812498476106, 398.437498466)" fill="none" stroke="#565656" stroke-width="3" stroke-linecap="square" stroke-linejoin="miter" stroke-miterlimit="2" d="M8.4375 0L0 113.563" sodipodi:nodetypes="cc"/><path id="shape17" transform="translate(417.937498407688, 398.999998463834)" fill="none" stroke="#565656" stroke-width="3" stroke-linecap="square" stroke-linejoin="bevel" d="M6 0L0 77.9375C4.54477 91.0779 8.10728 109.893 21.5625 113" sodipodi:nodetypes="ccc"/><path id="shape18" transform="translate(414.562498403918, 489.374998154432)" fill="none" stroke="#565656" stroke-width="3" stroke-linecap="square" stroke-linejoin="bevel" d="M0 22.625L1.875 0C8.00318 4.31854 2.83781 13.4887 14.625 22.625" sodipodi:nodetypes="ccc"/><path id="shape05" transform="matrix(-0.983471250794725 0 0 1 430.34786215827 390.812486897589)" fill="#262626" fill-rule="evenodd" stroke-opacity="0" stroke="#000000" stroke-width="0" stroke-linecap="square" stroke-linejoin="bevel" d="M0 0.375L32.1754 0L33.0504 7.5625L0.321954 6.46875Z" sodipodi:nodetypes="ccccc"/><ellipse id="shape12" transform="translate(409, 349)" rx="7" ry="7.5" cx="7" cy="7.5" fill="#59769b" fill-rule="evenodd" stroke="#41434a" stroke-width="3" stroke-linecap="square" stroke-linejoin="bevel"/><ellipse id="shape06" transform="translate(90.8000224215709, 355.999999720603)" rx="7" ry="7.5" cx="7" cy="7.5" fill="#59769b" fill-rule="evenodd" stroke="#41434a" stroke-width="3" stroke-linecap="square" stroke-linejoin="bevel"/><path id="shape121" transform="translate(88.999997004938, 391.624986820886)" fill="#262626" fill-rule="evenodd" stroke-opacity="0" stroke="#000000" stroke-width="0" stroke-linecap="square" stroke-linejoin="bevel" d="M0.25 2.625L29.375 0L30.25 6.25L0 9.375Z" sodipodi:nodetypes="ccccc"/>
</svg>
