<?xml version="1.0" standalone="no"?>
<!DOCTYPE svg PUBLIC "-//W3C//DTD SVG 20010904//EN" "http://www.w3.org/TR/2001/REC-SVG-20010904/DTD/svg10.dtd">
<!-- Created using Krita: https://krita.org -->
<svg xmlns="http://www.w3.org/2000/svg" 
    xmlns:xlink="http://www.w3.org/1999/xlink"
    xmlns:krita="http://krita.org/namespaces/svg/krita"
    xmlns:sodipodi="http://sodipodi.sourceforge.net/DTD/sodipodi-0.dtd"
    width="512pt"
    height="512pt"
    viewBox="0 0 512 512">
    <style>
        .hair-color {
            color: #3e3421;
        }
    </style>
<defs/>
<path id="shape0" transform="translate(136.783778806131, 149.957826417632)" fill="currentColor" class="hair-color" fill-rule="evenodd" stroke-opacity="0" stroke="#000000" stroke-width="0" stroke-linecap="square" stroke-linejoin="bevel" d="M156.685 70.2297C156.685 70.7485 157.732 87.9211 158.392 103.181C186.201 89.2102 205.767 54.9187 217.089 0.306587C221.485 4.55134 223.697 7.16964 223.725 8.16149C233.56 73.6679 190.67 113.02 158.691 126.624C106.91 147.509 83.6367 135.47 61.1868 125.039L74.2289 106.042C83.0388 123.688 89.3415 114.902 101.251 110.426C102.903 109.805 97.3707 98.4094 100.474 92.5922C101.167 92.6147 120.751 91.8834 121.904 91.8849C124.978 97.5348 117.61 110.027 120.797 111.252C129.359 114.544 135.373 118.841 144.788 108.684C143.145 92.724 144.505 72.7882 138.001 75.2139C133.663 75.0453 86.219 75.6845 82.1735 75.437C78.6404 74.7469 76.0902 83.4828 74.2324 106.042L61.1958 125.027C2.71011 92.0596 -5.66927 35.1518 2.79745 5.24461L8.50398 0C8.68274 41.6795 26.2914 74.7277 61.3301 99.1446C62.1016 88.0651 63.6714 70.6361 64.31 69.8547C63.8586 45.795 156.138 43.0738 156.685 70.2297Z" sodipodi:nodetypes="ccccccccccccccccccccc"/>
</svg>
