<?xml version="1.0" standalone="no"?>
<!DOCTYPE svg PUBLIC "-//W3C//DTD SVG 20010904//EN" "http://www.w3.org/TR/2001/REC-SVG-20010904/DTD/svg10.dtd">
<!-- Created using Krita: https://krita.org -->
<svg xmlns="http://www.w3.org/2000/svg" 
    xmlns:xlink="http://www.w3.org/1999/xlink"
    xmlns:krita="http://krita.org/namespaces/svg/krita"
    xmlns:sodipodi="http://sodipodi.sourceforge.net/DTD/sodipodi-0.dtd"
    width="512pt"
    height="512pt"
    viewBox="0 0 512 512">
    <style>
        .hair-color {
            color: #3e3421;
        }
    </style>
<defs/>
<path id="shape0" transform="translate(136.750114025204, 149.770326414256)" fill="currentColor" class="hair-color" fill-rule="evenodd" stroke-opacity="0" stroke="#000000" stroke-width="0" stroke-linecap="square" stroke-linejoin="bevel" d="M156.656 70.2297C156.656 70.7485 157.703 87.9211 158.363 103.181C186.172 89.2102 205.738 54.9187 217.061 0.306587C221.456 4.55134 223.668 7.16964 223.697 8.16149C226.424 26.327 225.082 42.4813 221.036 56.633C210.493 93.5134 174.336 150.293 151.225 160.124C126.757 173.481 105.112 181.179 74.2566 162.26L74.2334 108.202C83.0433 125.847 89.3127 114.902 101.222 110.426C102.874 109.805 97.3419 98.4094 100.445 92.5922C101.138 92.6147 120.722 91.8834 121.875 91.8849C124.949 97.5348 117.581 110.027 120.768 111.252C129.331 114.544 135.344 118.841 144.759 108.684C143.116 92.724 144.476 72.7882 137.972 75.2139C133.634 75.0453 86.1902 75.6845 82.1447 75.437C78.6116 74.7469 76.0992 85.6684 74.2414 108.228L74.2545 162.266C28.5546 137.261 17.8479 96.2619 8.15536 66.8354C-1.40967 43.6997 -1.65192 20.8594 2.76862 5.24461L8.47514 0C8.6539 41.6795 26.2626 74.7277 61.3013 99.1446C62.0728 88.0651 63.6426 70.6361 64.2811 69.8547C63.8297 45.795 156.109 43.0738 156.656 70.2297Z" sodipodi:nodetypes="ccccccccccccccccccccccc"/>
</svg>
