<?xml version="1.0" standalone="no"?>
<!DOCTYPE svg PUBLIC "-//W3C//DTD SVG 20010904//EN" "http://www.w3.org/TR/2001/REC-SVG-20010904/DTD/svg10.dtd">
<!-- Created using Krita: https://krita.org -->
<svg xmlns="http://www.w3.org/2000/svg" 
    xmlns:xlink="http://www.w3.org/1999/xlink"
    xmlns:krita="http://krita.org/namespaces/svg/krita"
    xmlns:sodipodi="http://sodipodi.sourceforge.net/DTD/sodipodi-0.dtd"
    width="512pt"
    height="512pt"
    viewBox="0 0 512 512">
    <style>
        .hair-color {
            color: #3e3421;
        }
    </style>
<defs/>
<path id="shape1" transform="translate(307.874912772661, 209.87499072952)" fill="currentColor" class="hair-color" fill-rule="evenodd" stroke-opacity="0" stroke="#000000" stroke-width="0" stroke-linecap="square" stroke-linejoin="bevel" d="M48.5 0C26.8561 18.2186 5.20716 32.1492 0 59.375C14.7358 60.073 3.35414 68.7249 31.625 62.5C46.9819 39.0014 63.8416 34.1448 64.5483 16.3719C64.9014 7.4901 50.6251 20.72 48.5 0Z" sodipodi:nodetypes="ccccc"/><path id="shape11" transform="matrix(-1 0 0 1 190.465549147589 206.598968135255)" fill="currentColor" class="hair-color" fill-rule="evenodd" stroke-opacity="0" stroke="#000000" stroke-width="0" stroke-linecap="square" stroke-linejoin="bevel" d="M46.6195 0C25.257 18.2186 5.13947 36.3992 0 63.625C14.5442 64.323 8.31054 68.4749 36.2139 62.25C51.3712 38.7514 63.7617 35.3948 64.4592 17.6219C64.8077 8.7401 48.717 20.72 46.6195 0Z" sodipodi:nodetypes="ccccc"/>
</svg>
