<?xml version="1.0" standalone="no"?>
<!DOCTYPE svg PUBLIC "-//W3C//DTD SVG 20010904//EN" "http://www.w3.org/TR/2001/REC-SVG-20010904/DTD/svg10.dtd">
<!-- Created using Krita: https://krita.org -->
<svg xmlns="http://www.w3.org/2000/svg" 
    xmlns:xlink="http://www.w3.org/1999/xlink"
    xmlns:krita="http://krita.org/namespaces/svg/krita"
    xmlns:sodipodi="http://sodipodi.sourceforge.net/DTD/sodipodi-0.dtd"
    width="512pt"
    height="512pt"
    viewBox="0 0 512 512">
    <style>
        .body-color {
            color: #b5bec8;
        }
    </style>
<defs/>
<path id="shape0" transform="matrix(0.306641541553097 0.951825070584899 -0.951825070584899 0.306641541553097 272.966709475837 -13.2293618410825)" fill="currentColor" class="body-color" fill-rule="evenodd" stroke-opacity="0" stroke="#000000" stroke-width="0" stroke-linecap="square" stroke-linejoin="bevel" d="M187.572 118.032C187.483 106.585 196.212 36.9336 190.665 28.1507C156 -26.7423 26.755 13.073 8.31724 27.3332C-3.48521 48.1347 -0.392034 61.9585 3.46526 74.7013C11.1094 94.5453 30.7477 100.839 57.7204 117.4C132.983 211.554 154.99 190.716 235.395 213.632C239.989 212.902 254.208 242.442 461.242 281.134C463.443 278.279 480.172 217.51 483.487 212.085C310.879 164.483 224.671 149.363 187.572 118.032Z" sodipodi:nodetypes="ccccccccc"/><path id="shape01" transform="matrix(0.306641541553097 0.951825070584899 -0.951825070584899 0.306641541553097 198.061516221593 33.1246212793606)" fill="#ffffff" fill-opacity="0.6" fill-rule="evenodd" stroke-opacity="0" stroke="#000000" stroke-width="0" stroke-linecap="square" stroke-linejoin="bevel" d="M0 10.7057C31.6469 30.2264 34.8077 30.7939 43.8658 39.9214C73.8969 75.1544 81.8503 105.607 214.275 128.425C218.87 127.695 205.862 147.923 439.915 196.168C440.099 195.799 440.462 194.675 441.002 192.794C271.867 129.068 157.691 111.028 170.132 71.4561C175.907 23.2907 69.2359 -21.0192 0 10.7057Z" sodipodi:nodetypes="ccccccc"/><path id="shape1" transform="translate(177.800853384539, 36.5588752814945)" fill="none" stroke-opacity="0.8" stroke="#131313" stroke-width="4.00000000761862" stroke-linecap="round" stroke-linejoin="round" krita:marker-fill-method="auto" d="M12.0534 0C31.7126 26.0491 82.4331 149.951 0 182.46" sodipodi:nodetypes="cc"/><ellipse id="shape3" transform="translate(186.706990553681, 51.9965633877876)" rx="6" ry="5.5" cx="6" cy="5.5" fill="#415874" fill-rule="evenodd" stroke-opacity="0" stroke="#000000" stroke-width="0" stroke-linecap="square" stroke-linejoin="bevel"/><ellipse id="shape4" transform="translate(204.499998389977, 109.249999443652)" rx="6.5" ry="6" cx="6.5" cy="6" fill="#415874" fill-rule="evenodd" stroke-opacity="0" stroke="#000000" stroke-width="0" stroke-linecap="square" stroke-linejoin="bevel"/><ellipse id="shape5" transform="translate(195.374999013206, 69.5000005539044)" rx="7.5" ry="9.5" cx="7.5" cy="9.5" fill="#415874" fill-rule="evenodd" stroke-opacity="0" stroke="#000000" stroke-width="0" stroke-linecap="square" stroke-linejoin="bevel"/><ellipse id="shape6" transform="translate(212.500000520078, 5.74999983549758)" rx="9.1249914124882" ry="8.74999924318844" cx="9.1249914124882" cy="8.74999924318844" fill="#415874" fill-rule="evenodd" stroke-opacity="0" stroke="#000000" stroke-width="0" stroke-linecap="square" stroke-linejoin="bevel"/><ellipse id="shape7" transform="translate(270.865138668659, 62.2490626396954)" rx="7.37499926718016" ry="8" cx="7.37499926718016" cy="8" fill="#415874" fill-rule="evenodd" stroke-opacity="0" stroke="#000000" stroke-width="0" stroke-linecap="square" stroke-linejoin="bevel"/><ellipse id="shape8" transform="translate(288.180720199868, 72.5923303935844)" rx="7" ry="10" cx="7" cy="10" fill="#415874" fill-rule="evenodd" stroke-opacity="0" stroke="#000000" stroke-width="0" stroke-linecap="square" stroke-linejoin="bevel"/><ellipse id="shape9" transform="translate(262.285002598437, 39.0022859899578)" rx="10" ry="9.5" cx="10" cy="9.5" fill="#415874" fill-rule="evenodd" stroke-opacity="0" stroke="#000000" stroke-width="0" stroke-linecap="square" stroke-linejoin="bevel"/><ellipse id="shape10" transform="translate(314.381702334289, 87.0420351562273)" rx="3.5" ry="4.5" cx="3.5" cy="4.5" fill="#415874" fill-rule="evenodd" stroke-opacity="0" stroke="#000000" stroke-width="0" stroke-linecap="square" stroke-linejoin="bevel"/><ellipse id="shape11" transform="translate(230.358842200201, 29.5864958711098)" rx="9" ry="10" cx="9" cy="10" fill="#415874" fill-rule="evenodd" stroke-opacity="0" stroke="#000000" stroke-width="0" stroke-linecap="square" stroke-linejoin="bevel"/><path id="shape12" transform="translate(236.267172510641, 5.85687493910451)" sodipodi:type="arc" sodipodi:rx="9" sodipodi:ry="7.5" sodipodi:cx="9.0022641516691" sodipodi:cy="7.5018230854899" sodipodi:start="3.56606541172847" sodipodi:end="3.54373111130922" sodipodi:open="true" d="M0.720229 4.56642C-1.21751 8.36308 0.888489 12.7511 5.43359 14.387C9.97869 16.023 15.256 14.2925 17.2444 10.5141C19.2329 6.73572 17.1859 2.32841 12.663 0.650263C8.14008 -1.02789 2.83996 0.653368 0.80096 4.41302" fill="#415874" fill-rule="evenodd" stroke-opacity="0" stroke="#000000" stroke-width="0" stroke-linecap="square" stroke-linejoin="bevel"/><ellipse id="shape13" transform="translate(201.624997927401, 93.2500010697404)" rx="5" ry="6" cx="5" cy="6" fill="#415874" fill-rule="evenodd" stroke-opacity="0" stroke="#000000" stroke-width="0" stroke-linecap="square" stroke-linejoin="bevel"/><ellipse id="shape14" transform="translate(206.624998772576, 124.999999431429)" rx="5" ry="7.5" cx="5" cy="7.5" fill="#415874" fill-rule="evenodd" stroke-opacity="0" stroke="#000000" stroke-width="0" stroke-linecap="square" stroke-linejoin="bevel"/><circle id="shape15" transform="translate(199.249997848098, 181.749997731412)" r="5" cx="5" cy="5" fill="#415874" fill-rule="evenodd" stroke-opacity="0" stroke="#000000" stroke-width="0" stroke-linecap="square" stroke-linejoin="bevel"/><ellipse id="shape011" transform="translate(258.10910731518, 21.6548027255052)" rx="3.5" ry="4.5" cx="3.5" cy="4.5" fill="#415874" fill-rule="evenodd" stroke-opacity="0" stroke="#000000" stroke-width="0" stroke-linecap="square" stroke-linejoin="bevel"/><ellipse id="shape111" transform="translate(196.584439836269, 23.5122421555483)" rx="6.53685664655816" ry="5.71837291765459" cx="6.53685664655816" cy="5.71837291765459" fill="#415874" fill-rule="evenodd" stroke-opacity="0" stroke="#000000" stroke-width="0" stroke-linecap="square" stroke-linejoin="bevel"/><ellipse id="shape41" transform="translate(204.462498490053, 166.174995597445)" rx="6.5" ry="6" cx="6.5" cy="6" fill="#415874" fill-rule="evenodd" stroke-opacity="0" stroke="#000000" stroke-width="0" stroke-linecap="square" stroke-linejoin="bevel"/><ellipse id="shape51" transform="matrix(-0.707106781186551 0.70710678118655 -0.70710678118655 -0.707106781186551 222.733313825056 154.589209025011)" rx="7.5" ry="9.5" cx="7.5" cy="9.5" fill="#415874" fill-rule="evenodd" stroke-opacity="0" stroke="#000000" stroke-width="0" stroke-linecap="square" stroke-linejoin="bevel"/><ellipse id="shape31" transform="matrix(0.973593093726537 -0.228290358640031 -0.233234844928061 -0.994679913733866 220.487106088824 188.125909967892)" rx="6" ry="5.5" cx="6" cy="5.5" fill="#415874" fill-rule="evenodd" stroke-opacity="0" stroke="#000000" stroke-width="0" stroke-linecap="square" stroke-linejoin="bevel"/><ellipse id="shape42" transform="matrix(0.973593093726537 -0.228290358640031 -0.233234844928061 -0.994679913733866 224.456759354776 127.115094990645)" rx="6.5" ry="6" cx="6.5" cy="6" fill="#415874" fill-rule="evenodd" stroke-opacity="0" stroke="#000000" stroke-width="0" stroke-linecap="square" stroke-linejoin="bevel"/><ellipse id="shape52" transform="matrix(0.973593093726537 -0.228290358640031 -0.233234844928061 -0.994679913733866 224.843807808234 168.736769837533)" rx="7.5" ry="9.5" cx="7.5" cy="9.5" fill="#415874" fill-rule="evenodd" stroke-opacity="0" stroke="#000000" stroke-width="0" stroke-linecap="square" stroke-linejoin="bevel"/><ellipse id="shape131" transform="matrix(0.973593093726537 -0.228290358640031 -0.233234844928061 -0.994679913733866 225.38943589954 143.686306879641)" rx="5" ry="6" cx="5" cy="6" fill="#415874" fill-rule="evenodd" stroke-opacity="0" stroke="#000000" stroke-width="0" stroke-linecap="square" stroke-linejoin="bevel"/><ellipse id="shape141" transform="matrix(0.973593093726537 -0.228290358640031 -0.233234844928061 -0.994679913733866 222.852196246674 110.963769262041)" rx="5" ry="7.5" cx="5" cy="7.5" fill="#415874" fill-rule="evenodd" stroke-opacity="0" stroke="#000000" stroke-width="0" stroke-linecap="square" stroke-linejoin="bevel"/><circle id="shape151" transform="matrix(0.973593093726537 -0.228290358640031 -0.233234844928061 -0.994679913733866 202.435869227212 56.199327454636)" r="5" cx="5" cy="5" fill="#415874" fill-rule="evenodd" stroke-opacity="0" stroke="#000000" stroke-width="0" stroke-linecap="square" stroke-linejoin="bevel"/><ellipse id="shape411" transform="matrix(0.973593093726537 -0.228290358640031 -0.233234844928061 -0.994679913733866 211.143357060734 70.5015055926919)" rx="6.5" ry="6" cx="6.5" cy="6" fill="#415874" fill-rule="evenodd" stroke-opacity="0" stroke="#000000" stroke-width="0" stroke-linecap="square" stroke-linejoin="bevel"/><ellipse id="shape511" transform="matrix(-0.853356219148052 -0.541919251437394 -0.523512338232801 0.864770572785146 231.633905822237 77.8546037956259)" rx="7.5" ry="9.5" cx="7.5" cy="9.5" fill="#415874" fill-rule="evenodd" stroke-opacity="0" stroke="#000000" stroke-width="0" stroke-linecap="square" stroke-linejoin="bevel"/>
</svg>
