<?xml version="1.0" standalone="no"?>
<!DOCTYPE svg PUBLIC "-//W3C//DTD SVG 20010904//EN" "http://www.w3.org/TR/2001/REC-SVG-20010904/DTD/svg10.dtd">
<!-- Created using Krita: https://krita.org -->
<svg xmlns="http://www.w3.org/2000/svg" 
    xmlns:xlink="http://www.w3.org/1999/xlink"
    xmlns:krita="http://krita.org/namespaces/svg/krita"
    xmlns:sodipodi="http://sodipodi.sourceforge.net/DTD/sodipodi-0.dtd"
    width="512pt"
    height="512pt"
    viewBox="0 0 512 512">
<defs/>
<path id="shape0" transform="translate(108.749996423526, 239.624992119425)" fill="none" stroke="#585858" stroke-width="2" stroke-linecap="square" stroke-linejoin="miter" stroke-miterlimit="2" d="M0 0L3 25.5" sodipodi:nodetypes="cc"/><path id="shape1" transform="translate(108.749996423526, 295.12499029419)" fill="none" stroke="#585858" stroke-width="2" stroke-linecap="square" stroke-linejoin="miter" stroke-miterlimit="2" d="M0 32.25L6.75 0" sodipodi:nodetypes="cc"/><path id="shape01" transform="translate(187.874993821333, 303.49999001131)" fill="none" stroke="#585858" stroke-width="2" stroke-linecap="square" stroke-linejoin="miter" stroke-miterlimit="2" d="M0 0L137.25 24" sodipodi:nodetypes="cc"/><path id="shape2" transform="translate(190.124993747337, 241.6249920462)" fill="none" stroke="#585858" stroke-width="2" stroke-linecap="square" stroke-linejoin="miter" stroke-miterlimit="2" d="M0 32.25L135.75 0" sodipodi:nodetypes="cc"/><path id="shape02" transform="translate(166.124994536628, 326.999989245914)" fill="none" stroke="#585858" stroke-width="2" stroke-linecap="square" stroke-linejoin="miter" stroke-miterlimit="2" d="M80.375 49.625L0 0" sodipodi:nodetypes="cc"/><path id="shape21" transform="translate(170.624994388636, 175.999994193241)" fill="none" stroke="#585858" stroke-width="2" stroke-linecap="square" stroke-linejoin="miter" stroke-miterlimit="2" d="M0 72.375L92.625 0" sodipodi:nodetypes="cc"/><path id="shape3" transform="translate(136.874995498576, 176.749994179752)" fill="none" stroke="#585858" stroke-width="2" stroke-linecap="square" stroke-linejoin="miter" stroke-miterlimit="2" d="M0 69.375L32.625 0" sodipodi:nodetypes="cc"/><path id="shape11" transform="translate(325.124989307577, 322.499989393906)" fill="none" stroke="#585858" stroke-width="2" stroke-linecap="square" stroke-linejoin="miter" stroke-miterlimit="2" d="M0 5.25L55.125 0" sodipodi:nodetypes="cc"/><path id="shape31" transform="translate(263.999999185628, 174.749999460941)" fill="none" stroke="#585858" stroke-width="2" stroke-linecap="square" stroke-linejoin="miter" stroke-miterlimit="2" d="M0 0L62.25 66.75" sodipodi:nodetypes="cc"/><path id="shape4" transform="translate(275.249999150925, 328.124998987819)" fill="none" stroke="#585858" stroke-width="2" stroke-linecap="square" stroke-linejoin="miter" stroke-miterlimit="2" d="M50.625 0L0 47.625" sodipodi:nodetypes="cc"/><path id="shape12" transform="translate(325.874989282912, 241.499992046586)" fill="none" stroke="#585858" stroke-width="2" stroke-linecap="square" stroke-linejoin="miter" stroke-miterlimit="2" d="M0 0L54.75 2.625" sodipodi:nodetypes="cc"/><path id="shape41" transform="translate(150.562495048438, 185.062493913833)" fill="#bd9177" fill-rule="evenodd" stroke="#666666" stroke-width="2" stroke-linecap="square" stroke-linejoin="bevel" d="M17.25 52.5L37.6875 8.25L72.9375 2.25L36.75 0L11.8125 6.1875L0 52.875L19.125 52.875L74.8125 10.6875L72.375 2.4375L38.25 8.4375Z" sodipodi:nodetypes="ccccccccccc"/><g id="group0" transform="translate(175.526026586111, 118.29982170045)" fill="none">
  <path id="shape011" transform="translate(-3.14357720299085e-07, 1.18825867900796e-06)" fill="#b19079" fill-rule="evenodd" stroke="#555451" stroke-width="2" stroke-linecap="square" stroke-linejoin="bevel" d="M3.60943 69.1809C4.11568 69.16 25.6157 69.2226 26.8594 69.1809C31.6344 68.9975 31.3532 33.1017 29.4844 24.3059C28.6219 23.2184 21.2469 15.4684 7.35943 1.05586C5.59693 -0.444144 3.72193 -0.256644 1.35943 1.05586C0.32818 4.53503 -1.98432 70.1809 3.60943 69.1809Z" sodipodi:nodetypes="cccccc"/>
  <path id="shape111" transform="translate(0.328170278102618, 10.6808505465498)" fill="#533b1c" fill-rule="evenodd" stroke="#555451" stroke-width="2" stroke-linecap="square" stroke-linejoin="bevel" d="M15.25 0L14.75 23.75L0 23.75L2.23518e-08 33.3125L30.1562 32.625L30 13.25Z" sodipodi:nodetypes="ccccccc"/>
 </g><path id="shape5" transform="translate(325.87499899476, 241.124999256192)" fill="none" stroke="#585858" stroke-width="2" stroke-linecap="square" stroke-linejoin="miter" stroke-miterlimit="2" d="M0 0L0.375 86.625" sodipodi:nodetypes="cc"/><path id="shape03" transform="translate(128.624995769895, 320.624989455569)" fill="none" stroke="#585858" stroke-width="2" stroke-linecap="square" stroke-linejoin="miter" stroke-miterlimit="2" d="M41.625 63.75L0 0" sodipodi:nodetypes="cc"/><g id="group01" transform="translate(333.015558827567, 186.819137072291)" fill="none">
  <path id="shape13" transform="translate(-1.57178874360397e-07, 9.68715426097333e-07)" fill="#b19079" fill-rule="evenodd" stroke="#555451" stroke-width="2" stroke-linecap="square" stroke-linejoin="bevel" d="M3.60943 69.1809C4.11568 69.16 25.6157 69.2226 26.8594 69.1809C31.6344 68.9975 31.3532 33.1017 29.4844 24.3059C28.6219 23.2184 21.2469 15.4684 7.35943 1.05586C5.59693 -0.444144 3.72193 -0.256644 1.35943 1.05586C0.32818 4.53503 -1.98432 70.1809 3.60943 69.1809Z" sodipodi:nodetypes="cccccc"/>
  <path id="shape22" transform="translate(0.328170278102618, 10.6808505465498)" fill="#533b1c" fill-rule="evenodd" stroke="#555451" stroke-width="2" stroke-linecap="square" stroke-linejoin="bevel" d="M15.25 0L14.75 23.75L0 23.75L2.23518e-08 33.3125L30.1562 32.625L30 13.25Z" sodipodi:nodetypes="ccccccc"/>
 </g><ellipse id="shape04" transform="translate(112, 240)" rx="41" ry="47.5" cx="41" cy="47.5" fill="#a9813a" fill-rule="evenodd" stroke-opacity="0" stroke="#000000" stroke-width="0" stroke-linecap="square" stroke-linejoin="bevel"/><ellipse id="shape23" transform="matrix(0.985848481457488 0 0 0.985848481457488 127.750017231695 255.639171478382)" rx="26.5" ry="34.5" cx="26.5" cy="34.5" fill="#634426" fill-rule="evenodd" stroke-opacity="0" stroke="#000000" stroke-width="0" stroke-linecap="square" stroke-linejoin="bevel"/><rect id="shape32" transform="translate(119.875002178387, 255.250000952955)" fill="#634426" fill-rule="evenodd" stroke="none" stroke-width="1" stroke-linecap="square" stroke-linejoin="bevel" width="35" height="69"/><ellipse id="shape42" transform="matrix(0.877272242569169 0 0 0.877272242569169 98.2500155077345 259.795472447362)" rx="27.5" ry="35" cx="27.5" cy="35" fill="#9f785c" fill-rule="evenodd" stroke="#cfa240" stroke-width="9" stroke-linecap="square" stroke-linejoin="bevel"/><ellipse id="shape51" transform="translate(119.374999987667, 270.499991104076)" rx="11.7499976568038" ry="20.7500089370327" cx="11.7499976568038" cy="20.7500089370327" fill="#ff8200" fill-rule="evenodd" stroke-opacity="0" stroke="#000000" stroke-width="0" stroke-linecap="square" stroke-linejoin="bevel"/><ellipse id="shape6" transform="matrix(0.860006267433045 0 0 1 150.472172868998 243.000000003085)" rx="5" ry="4.5" cx="5" cy="4.5" fill="#62482d" fill-rule="evenodd" stroke="#332a20" stroke-width="1" stroke-linecap="square" stroke-linejoin="bevel"/><ellipse id="shape012" transform="matrix(0.860006267433045 0 0 1 180.399936751907 268.361125529279)" rx="5" ry="4.5" cx="5" cy="4.5" fill="#62482d" fill-rule="evenodd" stroke="#332a20" stroke-width="1" stroke-linecap="square" stroke-linejoin="bevel"/><ellipse id="shape021" transform="matrix(0.860006267433045 0 0 1 175.797480054863 309.472249942736)" rx="5" ry="4.5" cx="5" cy="4.5" fill="#62482d" fill-rule="evenodd" stroke="#332a20" stroke-width="1" stroke-linecap="square" stroke-linejoin="bevel"/><ellipse id="shape031" transform="matrix(0.860006267433045 0 0 1 142.622254814771 324.972249221808)" rx="5" ry="4.5" cx="5" cy="4.5" fill="#62482d" fill-rule="evenodd" stroke="#332a20" stroke-width="1" stroke-linecap="square" stroke-linejoin="bevel"/><path id="shape05" transform="translate(277.367355510957, 255.85495880447)" fill="#666666" fill-rule="evenodd" stroke="#606060" stroke-width="2" stroke-linecap="square" stroke-linejoin="bevel" d="M114.633 5.05129C119.649 5.24296 118.858 57.743 114.508 57.5513C111.783 60.0013 81.4076 60.7513 23.3826 59.8013C6.62011 59.6902 -1.12989 57.0652 0.132648 51.9263L0.507648 9.17629C0.465781 2.6014 9.34078 -0.440269 27.1326 0.0512912C83.7576 0.367963 112.924 2.03463 114.633 5.05129Z" sodipodi:nodetypes="ccccccc"/><rect id="shape14" transform="matrix(1.29017856744868 0 0 1.22115384238688 347.874998926889 263.374999187551)" fill="#393939" fill-rule="evenodd" stroke-opacity="0" stroke="#000000" stroke-width="0" stroke-linecap="square" stroke-linejoin="bevel" width="28" height="39" rx="5" ry="5"/><ellipse id="shape52" transform="matrix(0.299038812413841 0 0 0.207561912806309 222.568740166699 239.544977851698)" rx="13" ry="20.5" cx="13" cy="20.5" fill="#ff8200" fill-rule="evenodd" stroke-opacity="0" stroke="#000000" stroke-width="0" stroke-linecap="square" stroke-linejoin="bevel"/><ellipse id="shape53" transform="matrix(0.299038812413841 0 0 0.207561912806309 213.463742782346 243.785489474593)" rx="13" ry="20.5" cx="13" cy="20.5" fill="#ff8200" fill-rule="evenodd" stroke-opacity="0" stroke="#000000" stroke-width="0" stroke-linecap="square" stroke-linejoin="bevel"/><ellipse id="shape54" transform="matrix(0.299038812413841 0 0 0.207561912806309 203.713742661548 249.307480940276)" rx="13" ry="20.5" cx="13" cy="20.5" fill="#ff8200" fill-rule="evenodd" stroke-opacity="0" stroke="#000000" stroke-width="0" stroke-linecap="square" stroke-linejoin="bevel"/><rect id="shape7" transform="translate(282, 263.906250000289)" fill="#ff8200" fill-rule="evenodd" width="8" height="44" rx="4" ry="6"/>
</svg>
