<?xml version="1.0" standalone="no"?>
<!DOCTYPE svg PUBLIC "-//W3C//DTD SVG 20010904//EN" "http://www.w3.org/TR/2001/REC-SVG-20010904/DTD/svg10.dtd">
<!-- Created using Krita: https://krita.org -->
<svg xmlns="http://www.w3.org/2000/svg" 
    xmlns:xlink="http://www.w3.org/1999/xlink"
    xmlns:krita="http://krita.org/namespaces/svg/krita"
    xmlns:sodipodi="http://sodipodi.sourceforge.net/DTD/sodipodi-0.dtd"
    width="512pt"
    height="512pt"
    viewBox="0 0 512 512">
<defs/>
<path id="shape0" transform="translate(98.4999931504338, 63.9999955495204)" fill="none" stroke="#322a23" stroke-width="12" stroke-linecap="square" stroke-linejoin="miter" stroke-miterlimit="2" d="M0 0L71 36.5" sodipodi:nodetypes="cc"/><path id="shape1" transform="translate(362.999974757436, 71.4999950279798)" fill="none" stroke="#322a23" stroke-width="12" stroke-linecap="square" stroke-linejoin="miter" stroke-miterlimit="2" d="M0 31.5L74 0" sodipodi:nodetypes="cc"/><path id="shape2" transform="translate(44.9999968707566, 172.999987969797)" fill="#53412e" fill-rule="evenodd" stroke-opacity="0" stroke="#000000" stroke-width="0" stroke-linecap="square" stroke-linejoin="bevel" d="M43.5 0L384.5 4L363.5 153.5L0 146Z" sodipodi:nodetypes="ccccc"/><path id="shape3" transform="translate(45.4999968359873, 314.499978130065)" fill="#332619" fill-rule="evenodd" stroke-opacity="0" stroke="#000000" stroke-width="0" stroke-linecap="square" stroke-linejoin="bevel" d="M0 0L35 110L396 116L362.5 10Z" sodipodi:nodetypes="ccccc"/><path id="shape4" transform="translate(406.499971732501, 176.499987726412)" fill="#221b14" fill-rule="evenodd" stroke-opacity="0" stroke="#000000" stroke-width="0" stroke-linecap="square" stroke-linejoin="bevel" d="M21.5 0L68 50.5L65.0734 161.009L33 254.5L0 152Z" sodipodi:nodetypes="cccccc"/><rect id="shape5" transform="translate(103, 154)" fill="#b6b6b6" fill-rule="evenodd" stroke-opacity="0" stroke="#000000" stroke-width="0" stroke-linecap="square" stroke-linejoin="bevel" width="42" height="20"/><rect id="shape6" transform="translate(219, 147)" fill="#b6b6b6" fill-rule="evenodd" stroke-opacity="0" stroke="#000000" stroke-width="0" stroke-linecap="square" stroke-linejoin="bevel" width="69" height="32"/><rect id="shape7" transform="translate(348, 150)" fill="#b6b6b6" fill-rule="evenodd" stroke-opacity="0" stroke="#000000" stroke-width="0" stroke-linecap="square" stroke-linejoin="bevel" width="75" height="31"/><rect id="shape8" transform="translate(100, 108)" fill="#979797" fill-rule="evenodd" stroke-opacity="0" stroke="#000000" stroke-width="0" stroke-linecap="square" stroke-linejoin="bevel" width="343" height="54"/><path id="shape9" transform="translate(118.999967639516, 82.4999980748343)" sodipodi:type="arc" sodipodi:rx="47" sodipodi:ry="26.5" sodipodi:cx="47.0000320823292" sodipodi:cy="26.500001334086" sodipodi:start="3.12349708093791" sodipodi:end="6.2831850434571" sodipodi:open="true" d="M94 26.5C94 16.9753 84.9344 8.18331 70.2541 3.47082C55.5738 -1.24167 37.5374 -1.14965 23.0107 3.71184C8.48408 8.57333 -0.297941 17.4564 0.00772694 26.9795" fill="#b6b6b6" fill-rule="evenodd" stroke-opacity="0" stroke="#000000" stroke-width="0" stroke-linecap="square" stroke-linejoin="bevel"/><path id="shape10" transform="translate(327.499977226062, 86.9999505426626)" sodipodi:type="arc" sodipodi:rx="38.4996556884134" sodipodi:ry="21.5" sodipodi:cx="38.5003389571058" sodipodi:cy="21.5000494573374" sodipodi:start="3.02527433039763" sodipodi:end="6.28318494207239" sodipodi:open="true" d="M77 21.5C77 13.5202 69.0858 6.19682 56.4433 2.47779C43.8007 -1.24123 28.5097 -0.744039 16.7254 3.76924C4.94121 8.28252 -1.39752 16.0694 0.260839 23.9953" fill="#b6b6b6" fill-rule="evenodd" stroke-opacity="0" stroke="#000000" stroke-width="0" stroke-linecap="square" stroke-linejoin="bevel"/>
</svg>
