<?xml version="1.0" standalone="no"?>
<!DOCTYPE svg PUBLIC "-//W3C//DTD SVG 20010904//EN" "http://www.w3.org/TR/2001/REC-SVG-20010904/DTD/svg10.dtd">
<!-- Created using Krita: https://krita.org -->
<svg xmlns="http://www.w3.org/2000/svg" 
    xmlns:xlink="http://www.w3.org/1999/xlink"
    xmlns:krita="http://krita.org/namespaces/svg/krita"
    xmlns:sodipodi="http://sodipodi.sourceforge.net/DTD/sodipodi-0.dtd"
    width="512pt"
    height="512pt"
    viewBox="0 0 512 512">
<defs/>
<ellipse id="shape0" transform="matrix(0.401441543549253 0.915884647274313 -0.915884647274313 0.401441543549253 349.946464580665 429.690587429856)" rx="28" ry="27.5" cx="28" cy="27.5" fill="#d7d7d7" stroke="#00573d" stroke-width="4" stroke-linecap="square" stroke-linejoin="bevel"/><ellipse id="shape1" transform="matrix(0.378020759911972 0 0 0.378020759911972 333.952916804391 459.127084816294)" rx="5.5" ry="20" cx="5.5" cy="20" fill="none" stroke="#3b6637" stroke-width="3" stroke-linecap="square" stroke-linejoin="bevel"/><ellipse id="shape01" transform="matrix(0.221080367564197 0.306631971591524 -0.306631971591524 0.221080367564197 340.678350553626 460.607911648898)" rx="5.5" ry="20" cx="5.5" cy="20" fill="none" stroke="#3b6637" stroke-width="3" stroke-linecap="square" stroke-linejoin="bevel"/><ellipse id="shape02" transform="matrix(0.221223886409227 -0.306528444041372 0.306528444041372 0.221223886409227 328.805396415389 463.841658148408)" rx="5.5" ry="20" cx="5.5" cy="20" fill="none" stroke="#3b6637" stroke-width="3" stroke-linecap="square" stroke-linejoin="bevel"/><ellipse id="shape2" transform="matrix(0.499369874196958 0 0 0.499369874196958 334.667382433861 465.126953282013)" rx="2.81252732971134" ry="2.71878179183619" cx="2.81252732971134" cy="2.71878179183619" fill="#3b6637" fill-rule="evenodd" stroke-opacity="0" stroke="#000000" stroke-width="0" stroke-linecap="square" stroke-linejoin="bevel"/><ellipse id="shape3" transform="matrix(0.378020759911972 0 0 0.378020759911972 339.894939815882 467.207266425004)" rx="4.12497569073804" ry="3.89065708712872" cx="4.12497569073804" cy="3.89065708712872" fill="#3b6637" fill-rule="evenodd" stroke-opacity="0" stroke="#000000" stroke-width="0" stroke-linecap="square" stroke-linejoin="bevel"/><ellipse id="shape4" transform="matrix(0.378020759911972 0 0 0.378020759911972 330.751562042544 469.877062657635)" rx="3.87497738733083" ry="3.43746696356732" cx="3.87497738733083" cy="3.43746696356732" fill="#3b6637" fill-rule="evenodd" stroke-opacity="0" stroke="#000000" stroke-width="0" stroke-linecap="square" stroke-linejoin="bevel"/><ellipse id="shape5" transform="matrix(0.378020759911972 0 0 0.378020759911972 333.114191966907 459.363359593986)" rx="4.06247692890804" ry="4.18746876298394" cx="4.06247692890804" cy="4.18746876298394" fill="#3b6637" fill-rule="evenodd" stroke-opacity="0" stroke="#000000" stroke-width="0" stroke-linecap="square" stroke-linejoin="bevel"/><path id="shape6" transform="translate(330.374997044942, 447.062496001225)" fill="none" stroke="#3b6637" stroke-width="2" stroke-linecap="square" stroke-linejoin="bevel" krita:marker-fill-method="auto" d="M11.0625 7.5L11 0.0625L0 0L0 4.75" sodipodi:nodetypes="cccc"/><path id="shape03" transform="matrix(-1 -6.66133814775094e-16 6.66133814775094e-16 -1 341.501354338891 485.457603016216)" fill="none" stroke="#3b6637" stroke-width="2" stroke-linecap="square" stroke-linejoin="bevel" krita:marker-fill-method="auto" d="M11.0625 7.5L11 0.0625L0 0L0 4.75" sodipodi:nodetypes="cccc"/><path id="shape04" transform="matrix(0 1 -1 0 355.018472224436 461.11898887844)" fill="none" stroke="#3b6637" stroke-width="2" stroke-linecap="square" stroke-linejoin="bevel" krita:marker-fill-method="auto" d="M11.0625 7.5L11 0.0625L0 0L0 4.75" sodipodi:nodetypes="cccc"/><path id="shape011" transform="matrix(0 -1 1 0 316.623365209445 472.245346172389)" fill="none" stroke="#3b6637" stroke-width="2" stroke-linecap="square" stroke-linejoin="bevel" krita:marker-fill-method="auto" d="M11.0625 7.5L11 0.0625L0 0L0 4.75" sodipodi:nodetypes="cccc"/><circle id="shape7" transform="translate(327.875000019791, 452.249999988359)" r="2.5" cx="2.5" cy="2.5" fill="none" stroke="#00632e" stroke-width="2" stroke-linecap="square" stroke-linejoin="bevel"/><circle id="shape05" transform="translate(339.120880888884, 475.495880745694)" r="2.5" cx="2.5" cy="2.5" fill="none" stroke="#00632e" stroke-width="2" stroke-linecap="square" stroke-linejoin="bevel"/><circle id="shape06" transform="translate(343.995880843483, 458.433380904601)" r="2.5" cx="2.5" cy="2.5" fill="none" stroke="#00632e" stroke-width="2" stroke-linecap="square" stroke-linejoin="bevel"/><circle id="shape07" transform="translate(322.370881044881, 469.308380803319)" r="2.5" cx="2.5" cy="2.5" fill="none" stroke="#00632e" stroke-width="2" stroke-linecap="square" stroke-linejoin="bevel"/>
</svg>
