<?xml version="1.0" standalone="no"?>
<!DOCTYPE svg PUBLIC "-//W3C//DTD SVG 20010904//EN" "http://www.w3.org/TR/2001/REC-SVG-20010904/DTD/svg10.dtd">
<!-- Created using Krita: https://krita.org -->
<svg xmlns="http://www.w3.org/2000/svg" 
    xmlns:xlink="http://www.w3.org/1999/xlink"
    xmlns:krita="http://krita.org/namespaces/svg/krita"
    xmlns:sodipodi="http://sodipodi.sourceforge.net/DTD/sodipodi-0.dtd"
    width="512pt"
    height="512pt"
    viewBox="0 0 512 512">
    <style>
        .body-color {
            color: #fee4b3;
        }
    </style>
<defs/>
<path id="shape0" transform="matrix(0.887923589565704 -0.459990977186248 0.459990977186248 0.887923589565704 92.9656342408433 74.1749555967582)" fill="currentColor" class="body-color" fill-rule="evenodd" stroke-opacity="0" stroke="#000000" stroke-width="0" stroke-linecap="square" stroke-linejoin="bevel" d="M15.2341 80.8512C-4.62669 76.6927 24.1801 49.2194 0 0C26.6048 5.29051 40.182 8.98693 53.4318 20.2025C55.286 21.7721 58.5908 16.9337 60.1835 18.6193C61.0461 19.5323 62.4302 23.1392 62.7421 26.63C62.8212 27.5153 69.7902 23.4173 70.6834 24.1803C71.1863 24.6099 71.2687 33.1866 70.9396 36.4284C70.8707 37.1071 77.6164 32.3331 78.4552 34.1603C79.779 37.0437 77.5375 42.2041 76.7076 48.9819C73.8459 47.216 61.5567 52.2978 39.84 64.2275C26.0175 71.8206 17.8155 77.3618 15.2341 80.8512Z" sodipodi:nodetypes="cccccccccsc"/><path id="shape01" transform="matrix(0.887923589565704 -0.459990977186248 0.459990977186248 0.887923589565704 93.9630660551677 74.7865413689466)" fill="#4b4b4b" fill-opacity="0.674509803921569" fill-rule="evenodd" stroke-opacity="0" stroke="#000000" stroke-width="0" stroke-linecap="square" stroke-linejoin="bevel" d="M14.2412 79.9144C-6.44759 70.6285 24.7959 47.2155 0 0C56.8192 38.6812 29.1298 49.4349 49.0287 58.0823C44.9078 56.4836 59.5721 52.3708 37.6636 63.9447C21.1413 72.6731 20.1857 73.8736 14.2412 79.9144Z" sodipodi:nodetypes="cccsc"/><path id="shape1" transform="matrix(0.977482152278297 0.211018108174133 -0.211018108174133 0.977482152278297 134.88435994613 89.5074641110778)" fill="#d8d8d8" fill-rule="evenodd" d="M23.5149 31.9676L10.9496 31.9619L13.0135 23.2633L0 17.8039L14.0468 10.065L13.1972 0C23.9792 5.22056 29.8929 8.31005 30.9385 9.26845C25.9534 20.1294 23.4789 27.6958 23.5149 31.9676Z" sodipodi:nodetypes="cccccccc"/><path id="shape02" transform="matrix(-0.89723645346664 -0.459990977186248 -0.464815529001893 0.887923589565704 405.528239153377 73.1691080627442)" fill="currentColor" class="body-color" fill-rule="evenodd" stroke-opacity="0" stroke="#000000" stroke-width="0" stroke-linecap="square" stroke-linejoin="bevel" d="M15.2341 80.8512C-4.62669 76.6927 24.1801 49.2194 0 0C26.6048 5.29051 40.182 8.98693 53.4318 20.2025C55.286 21.7721 58.5908 16.9337 60.1835 18.6193C61.0461 19.5323 62.4302 23.1392 62.7421 26.63C62.8212 27.5153 69.7902 23.4173 70.6834 24.1803C71.1863 24.6099 71.2687 33.1866 70.9396 36.4284C70.8707 37.1071 77.6164 32.3331 78.4552 34.1603C79.779 37.0437 77.5375 42.2041 76.7076 48.9819C73.8459 47.216 61.5567 52.2978 39.84 64.2275C26.0175 71.8206 17.8155 77.3618 15.2341 80.8512Z" sodipodi:nodetypes="cccccccccsc"/><path id="shape011" transform="matrix(-0.89723645346664 -0.459990977186248 -0.464815529001893 0.887923589565704 404.520345913265 73.7806938349326)" fill="#4b4b4b" fill-opacity="0.674509803921569" fill-rule="evenodd" stroke-opacity="0" stroke="#000000" stroke-width="0" stroke-linecap="square" stroke-linejoin="bevel" d="M14.2412 79.9144C-6.44759 70.6285 24.7959 47.2155 0 0C56.8192 38.6812 29.1298 49.4349 49.0287 58.0823C44.9078 56.4836 59.5721 52.3708 37.6636 63.9447C21.1413 72.6731 20.1857 73.8736 14.2412 79.9144Z" sodipodi:nodetypes="cccsc"/><path id="shape11" transform="matrix(-0.987734338791569 0.211018108174133 0.21323134244919 0.977482152278297 363.169854684677 88.5016165770638)" fill="#d8d8d8" fill-rule="evenodd" stroke-opacity="0" stroke="#000000" stroke-width="0" stroke-linecap="square" stroke-linejoin="bevel" d="M23.5149 31.9676L10.9496 31.9619L13.0135 23.2633L0 17.8039L14.0468 10.065L13.1972 0C23.9792 5.22056 29.8929 8.31005 30.9385 9.26845C25.9534 20.1294 23.4789 27.6958 23.5149 31.9676Z" sodipodi:nodetypes="cccccccc"/>
</svg>
