<?xml version="1.0" standalone="no"?>
<!DOCTYPE svg PUBLIC "-//W3C//DTD SVG 20010904//EN" "http://www.w3.org/TR/2001/REC-SVG-20010904/DTD/svg10.dtd">
<!-- Created using Krita: https://krita.org -->
<svg xmlns="http://www.w3.org/2000/svg" 
    xmlns:xlink="http://www.w3.org/1999/xlink"
    xmlns:krita="http://krita.org/namespaces/svg/krita"
    xmlns:sodipodi="http://sodipodi.sourceforge.net/DTD/sodipodi-0.dtd"
    width="512pt"
    height="512pt"
    viewBox="0 0 512 512">
<defs/>
<path id="shape0" transform="matrix(0.661534473959101 0 0 0.661534473959101 89.3456200810616 167.735611816424)" fill="#c7be9d" fill-rule="evenodd" stroke="#9f9779" stroke-width="3" stroke-linecap="square" stroke-linejoin="bevel" d="M100.093 107.86C54.3905 102.177 33.4764 99.2591 0 25.246C49.418 49.2425 31.1283 54.3861 68.5756 0C63.2093 35.9534 81.8231 81.9384 100.093 107.86Z" sodipodi:nodetypes="cccc"/><path id="shape1" transform="matrix(0.661534473959101 0 0 0.661534473959101 343.544139596229 175.997093055138)" fill="#c7be9d" fill-rule="evenodd" stroke="#9f9779" stroke-width="3" stroke-linecap="square" stroke-linejoin="bevel" d="M0 85.25C43.1124 97.4817 77.0129 76.831 89.0496 38.0802C63.7902 48.0506 24.5599 41.153 31.5 0Z" sodipodi:nodetypes="cccc"/><path id="shape02" transform="matrix(0.661534473959101 0 0 0.574138734556641 112.843954428656 154.05188153039)" fill="#c7be9d" fill-rule="evenodd" stroke="#9f9779" stroke-width="3" stroke-linecap="square" stroke-linejoin="bevel" d="M39.9403 7.78689C49.2858 55.5565 29.1126 69.8486 63.3164 153.861C-44.1538 123.048 11.5643 -36.766 39.9403 7.78689Z" sodipodi:nodetypes="ccc"/><path id="shape021" transform="matrix(0.661534473959101 0 0 0.574138734556641 122.892831238957 138.073237922765)" fill="#c7be9d" fill-rule="evenodd" stroke="#9f9779" stroke-width="3" stroke-linecap="square" stroke-linejoin="bevel" d="M38.7087 0C23.1122 67.3641 25.6136 96.0256 59.8174 180.038C27.1732 189.72 8.53234 156.177 0.0451455 96.1209C-0.764153 42.1021 9.19894 11.6182 38.7087 0Z" sodipodi:nodetypes="cccc"/><path id="shape12" transform="matrix(0.661534473959101 0 0 0.574138734556641 340.113510870565 149.387170585969)" fill="#c7be9d" fill-rule="evenodd" stroke="#9f9779" stroke-width="3" stroke-linecap="square" stroke-linejoin="bevel" d="M25.5361 0C49.1292 78.6115 26.5712 78.9979 0 159.333C52.0947 178.624 108.068 33.2709 25.5361 0Z" sodipodi:nodetypes="ccc"/><path id="shape121" transform="matrix(0.661534473959101 0 0 0.574138734556641 339.231983928025 133.767197683272)" fill="#c7be9d" fill-rule="evenodd" stroke="#9f9779" stroke-width="3" stroke-linecap="square" stroke-linejoin="bevel" d="M12.4982 0C36.0914 78.6115 26.5712 107.084 0 187.418C29.4201 197.13 47.9152 152.867 55.6348 108.992C57.0736 46.5166 37.2095 1.91963 12.4982 0Z" sodipodi:nodetypes="cccc"/>
</svg>
