<?xml version="1.0" standalone="no"?>
<!DOCTYPE svg PUBLIC "-//W3C//DTD SVG 20010904//EN" "http://www.w3.org/TR/2001/REC-SVG-20010904/DTD/svg10.dtd">
<!-- Created using Krita: https://krita.org -->
<svg xmlns="http://www.w3.org/2000/svg" 
    xmlns:xlink="http://www.w3.org/1999/xlink"
    xmlns:krita="http://krita.org/namespaces/svg/krita"
    xmlns:sodipodi="http://sodipodi.sourceforge.net/DTD/sodipodi-0.dtd"
    width="512pt"
    height="512pt"
    viewBox="0 0 512 512">
<defs/>
<path id="shape0" transform="translate(251.000000201689, 80.249994348897)" fill="#abdcda" fill-opacity="0.952941176470588" fill-rule="evenodd" d="M9.5 0L101.5 2.25L110.5 48.75L0 60.75Z" sodipodi:nodetypes="ccccc"/><path id="shape1" transform="translate(167.249988269051, 74.9999947394848)" fill="#abdcda" fill-opacity="0.952941176470588" fill-rule="evenodd" d="M77.25 3.75L8.25 0L0 47.25L78.25 65.25Z" sodipodi:nodetypes="ccccc"/><path id="shape2" transform="translate(162.749988495275, 131.999990473272)" fill="#abdcda" fill-opacity="0.952941176470588" fill-rule="evenodd" d="M11.25 0L0 43.5L80.25 68.25L83.25 13.5Z" sodipodi:nodetypes="ccccc"/><path id="shape3" transform="translate(158.999987864231, 192.74998563111)" fill="#abdcda" fill-opacity="0.952941176470588" fill-rule="evenodd" d="M0 0L84 12.75L82.5 66L4.47035e-07 43.75Z" sodipodi:nodetypes="ccccc"/><path id="shape4" transform="translate(250.250000097832, 131.249990704691)" fill="#abdcda" fill-opacity="0.952941176470588" fill-rule="evenodd" d="M1.25 18L0 71.75L147.25 39L140.5 0Z" sodipodi:nodetypes="ccccc"/><path id="shape5" transform="translate(247.000000631262, 196.749986199915)" fill="#abdcda" fill-opacity="0.952941176470588" fill-rule="evenodd" d="M0 9.75L0.999982 242.75L52 250.25L64.5 0Z" sodipodi:nodetypes="ccccc"/><path id="shape6" transform="translate(152.749990224857, 244.249983494104)" fill="#abdcda" fill-opacity="0.952941176470588" fill-rule="evenodd" d="M87.25 22.25L0 0L1.25 52.75L86.5 86.5Z" sodipodi:nodetypes="ccccc"/><path id="shape7" transform="translate(159.249988472545, 310.999978901653)" fill="#abdcda" fill-opacity="0.952941176470588" fill-rule="evenodd" d="M80.75 25.75L0 0L22.25 55.25L82.25 95.5Z" sodipodi:nodetypes="ccccc"/><path id="shape8" transform="translate(315.749977763824, 188.24998375627)" fill="#abdcda" fill-opacity="0.952941176470588" fill-rule="evenodd" d="M3 9.75L45 0L43.5 46.5L0 59.25Z" sodipodi:nodetypes="ccccc"/><path id="shape9" transform="translate(315.749977853231, 244.499978738)" fill="#abdcda" fill-opacity="0.952941176470588" fill-rule="evenodd" d="M1.5 10.5L0 60.75L48.75 40.5L45 0Z" sodipodi:nodetypes="ccccc"/><path id="shape10" transform="translate(311.999978384478, 296.999975145046)" fill="#abdcda" fill-opacity="0.952941176470588" fill-rule="evenodd" d="M3 12.75L0 87L44.25 78L51 0Z" sodipodi:nodetypes="ccccc"/><path id="shape11" transform="translate(307.499996760317, 381.749995978052)" fill="#abdcda" fill-opacity="0.952941176470588" fill-rule="evenodd" d="M1.5 11.25L61.5 0L56.25 52.5L0 58.5Z" sodipodi:nodetypes="ccccc"/><path id="shape12" transform="translate(174.624998141602, 69.4999992640539)" fill="#4caca8" fill-rule="evenodd" d="M0 6.625L2.46503 4.63032L34.5 0L73.001 1.0227L84.5625 16.7394L72.0625 16.625L70.625 70L69.8165 11.2797Z" sodipodi:nodetypes="ccccccccc"/><path id="shape13" transform="translate(250.024992412786, 75.3749973283366)" fill="#4caca8" fill-rule="evenodd" d="M10.475 6L9.53751 11.3556L0 4.6375L13.475 0L84.85 1.25L101.85 7.875Z" sodipodi:nodetypes="ccccccc"/><path id="shape14" transform="translate(330.499996518002, 130.999998619844)" fill="#4caca8" fill-rule="evenodd" d="M0 0.5L59 0L0.5 9Z" sodipodi:nodetypes="cccc"/><path id="shape15" transform="translate(174.24999814928, 128.999998640915)" fill="#4caca8" fill-rule="evenodd" d="M0 3.75L25.75 0L26.6 4.95L72 17.25Z" sodipodi:nodetypes="ccccc"/><path id="shape16" transform="translate(159.249998374368, 181.874998117375)" fill="#4caca8" fill-rule="evenodd" d="M0 11.5L26 0L25.1606 5.82611C45.0654 11.9674 64.9702 18.1087 84.875 24.25Z" sodipodi:nodetypes="ccccc"/><path id="shape17" transform="translate(153.499998382794, 237.499997497808)" fill="#4caca8" fill-rule="evenodd" d="M0 7.5L10 0L24.678 3.08498L86.5 29.5Z" sodipodi:nodetypes="ccccc"/><path id="shape18" transform="translate(159.499998319581, 305.499996781391)" fill="#4caca8" fill-rule="evenodd" d="M0 7.5L16.5 0L32.5 6L65.5116 19.4135L81.25 32Z" sodipodi:nodetypes="cccccc"/><path id="shape19" transform="translate(308.499997479941, 375.249996068888)" fill="#4caca8" fill-rule="evenodd" d="M40.5 0L60.625 7.125L0 18.9375L2.49061 12.1198L24.0837 7.80329L24.125 4.25Z" sodipodi:nodetypes="ccccccc"/><path id="shape20" transform="translate(314.624998063611, 289.499996994663)" fill="#4caca8" fill-rule="evenodd" d="M22.875 5.625L22.875 8.62498L2.0625 15L0 20.8125L47.75 8.625L38 0Z" sodipodi:nodetypes="ccccccc"/><path id="shape21" transform="translate(316.812497939982, 236.249997518428)" fill="#4caca8" fill-rule="evenodd" d="M44.1875 9.125L34.5625 0L20.6875 4.75L20.9002 8.79142L0.422306 13.4613L0 19.75Z" sodipodi:nodetypes="ccccccc"/><path id="shape22" transform="translate(317.812497676126, 181.749998107516)" fill="#4caca8" fill-rule="evenodd" d="M0 16.6875L42.8125 7.125L24.4375 0L15.8125 2.5L16.1546 6.65417L1.95222 9.32157Z" sodipodi:nodetypes="ccccccc"/><path id="shape23" transform="translate(299.499996874407, 426.999995501322)" fill="#4caca8" fill-rule="evenodd" d="M0 20.875L8 5L8.375 0.125L0.5 0Z" sodipodi:nodetypes="ccccc"/><path id="shape24" transform="translate(246.874997399039, 189.999997998248)" fill="#4caca8" fill-rule="evenodd" d="M64.625 7.75L60.375 0L4.25 12L0 16.75Z" sodipodi:nodetypes="ccccc"/>
</svg>
