<?xml version="1.0" standalone="no"?>
<!DOCTYPE svg PUBLIC "-//W3C//DTD SVG 20010904//EN" "http://www.w3.org/TR/2001/REC-SVG-20010904/DTD/svg10.dtd">
<!-- Created using Krita: https://krita.org -->
<svg xmlns="http://www.w3.org/2000/svg" 
    xmlns:xlink="http://www.w3.org/1999/xlink"
    xmlns:krita="http://krita.org/namespaces/svg/krita"
    xmlns:sodipodi="http://sodipodi.sourceforge.net/DTD/sodipodi-0.dtd"
    width="512pt"
    height="512pt"
    viewBox="0 0 512 512">
<defs/>
<path id="shape0" transform="translate(39.7499984204867, 314.124987298079)" fill="#9fb0af" fill-rule="evenodd" d="M163.5 2L164.25 16.75C165.613 61.9924 247.553 80.3116 250.75 21.375L253.625 0L442.125 65L459.375 197.875L0 197.875L27.375 57.125Z" sodipodi:nodetypes="ccccccccc"/><path id="shape1" transform="translate(58.8749959059208, 332.999976843679)" fill="#627574" fill-rule="evenodd" d="M92.625 0C157.219 44.3455 214.637 36.351 322.5 8.25L436.875 47.625L386.25 179L41.25 179L0 35.25Z" sodipodi:nodetypes="ccccccc"/><g id="group0" transform="translate(120.496962572954, 342.621955088874)" fill="none">
  <rect id="shape2" transform="matrix(0.707106781186548 -0.707106781186548 0.707106781186548 0.707106781186548 5.6843418860808e-14 10.6066017177983)" fill="#a6b7b7" fill-rule="evenodd" width="15" height="14.9770286849046"/>
  <path id="shape3" transform="translate(10.1905369055383, 10.1592823569873)" fill="#6e7171" fill-rule="evenodd" d="M0.5625 10.7812L0 0L11.0625 0.5625Z" sodipodi:nodetypes="cccc"/>
  <path id="shape4" transform="translate(0.440537292966042, 0.784282729513961)" fill="#b8d2d1" fill-rule="evenodd" d="M10.125 0L10.0312 9.75L0 9.65625Z" sodipodi:nodetypes="cccc"/>
 </g><g id="group01" transform="translate(152.997264151276, 364.991649707012)" fill="none">
  <rect id="shape01" transform="matrix(0.707106781186548 -0.707106781186548 0.707106781186548 0.707106781186548 5.6843418860808e-14 10.6066017177984)" fill="#a6b7b7" fill-rule="evenodd" stroke-opacity="0" stroke="#000000" stroke-width="0" stroke-linecap="square" stroke-linejoin="bevel" width="15" height="14.9770286849046"/>
  <path id="shape11" transform="translate(10.1905369055383, 10.1592823569873)" fill="#6e7171" fill-rule="evenodd" stroke-opacity="0" stroke="#000000" stroke-width="0" stroke-linecap="square" stroke-linejoin="bevel" d="M0.5625 10.7812L0 0L11.0625 0.5625Z" sodipodi:nodetypes="cccc"/>
  <path id="shape21" transform="translate(0.440537292966042, 0.784282729513961)" fill="#b8d2d1" fill-rule="evenodd" stroke-opacity="0" stroke="#000000" stroke-width="0" stroke-linecap="square" stroke-linejoin="bevel" d="M10.125 0L10.0312 9.75L0 9.65625Z" sodipodi:nodetypes="cccc"/>
 </g><g id="group02" transform="translate(378.9975522739, 349.48634695892)" fill="none">
  <rect id="shape02" transform="matrix(0.707106781186548 -0.707106781186548 0.707106781186548 0.707106781186548 0 10.6066017177984)" fill="#a6b7b7" fill-rule="evenodd" stroke-opacity="0" stroke="#000000" stroke-width="0" stroke-linecap="square" stroke-linejoin="bevel" width="15" height="14.9770286849046"/>
  <path id="shape12" transform="translate(10.1905369055383, 10.1592823569873)" fill="#6e7171" fill-rule="evenodd" stroke-opacity="0" stroke="#000000" stroke-width="0" stroke-linecap="square" stroke-linejoin="bevel" d="M0.5625 10.7812L0 0L11.0625 0.5625Z" sodipodi:nodetypes="cccc"/>
  <path id="shape22" transform="translate(0.440537292966042, 0.784282729513961)" fill="#b8d2d1" fill-rule="evenodd" stroke-opacity="0" stroke="#000000" stroke-width="0" stroke-linecap="square" stroke-linejoin="bevel" d="M10.125 0L10.0312 9.75L0 9.65625Z" sodipodi:nodetypes="cccc"/>
 </g><g id="group03" transform="translate(348.497858233147, 366.231041968212)" fill="none">
  <rect id="shape03" transform="matrix(0.707106781186548 -0.707106781186548 0.707106781186548 0.707106781186548 -1.13686837721616e-13 10.6066017177983)" fill="#a6b7b7" fill-rule="evenodd" stroke-opacity="0" stroke="#000000" stroke-width="0" stroke-linecap="square" stroke-linejoin="bevel" width="15" height="14.9770286849046"/>
  <path id="shape13" transform="translate(10.1905369055383, 10.1592823569873)" fill="#6e7171" fill-rule="evenodd" stroke-opacity="0" stroke="#000000" stroke-width="0" stroke-linecap="square" stroke-linejoin="bevel" d="M0.5625 10.7812L0 0L11.0625 0.5625Z" sodipodi:nodetypes="cccc"/>
  <path id="shape23" transform="translate(0.440537292966042, 0.784282729513961)" fill="#b8d2d1" fill-rule="evenodd" stroke-opacity="0" stroke="#000000" stroke-width="0" stroke-linecap="square" stroke-linejoin="bevel" d="M10.125 0L10.0312 9.75L0 9.65625Z" sodipodi:nodetypes="cccc"/>
 </g><g id="group04" transform="translate(316.498164296702, 381.850737055734)" fill="none">
  <rect id="shape04" transform="matrix(0.707106781186548 -0.707106781186548 0.707106781186548 0.707106781186548 -5.6843418860808e-14 10.6066017177984)" fill="#a6b7b7" fill-rule="evenodd" stroke-opacity="0" stroke="#000000" stroke-width="0" stroke-linecap="square" stroke-linejoin="bevel" width="15" height="14.9770286849046"/>
  <path id="shape14" transform="translate(10.1905369055383, 10.1592823569873)" fill="#6e7171" fill-rule="evenodd" stroke-opacity="0" stroke="#000000" stroke-width="0" stroke-linecap="square" stroke-linejoin="bevel" d="M0.5625 10.7812L0 0L11.0625 0.5625Z" sodipodi:nodetypes="cccc"/>
  <path id="shape24" transform="translate(0.440537292966042, 0.784282729513961)" fill="#b8d2d1" fill-rule="evenodd" stroke-opacity="0" stroke="#000000" stroke-width="0" stroke-linecap="square" stroke-linejoin="bevel" d="M10.125 0L10.0312 9.75L0 9.65625Z" sodipodi:nodetypes="cccc"/>
 </g><g id="group05" transform="translate(183.24847740103, 378.34543347318)" fill="none">
  <rect id="shape05" transform="matrix(0.707106781186548 -0.707106781186548 0.707106781186548 0.707106781186548 -5.6843418860808e-14 10.6066017177984)" fill="#a6b7b7" fill-rule="evenodd" stroke-opacity="0" stroke="#000000" stroke-width="0" stroke-linecap="square" stroke-linejoin="bevel" width="15" height="14.9770286849046"/>
  <path id="shape15" transform="translate(10.1905369055383, 10.1592823569873)" fill="#6e7171" fill-rule="evenodd" stroke-opacity="0" stroke="#000000" stroke-width="0" stroke-linecap="square" stroke-linejoin="bevel" d="M0.5625 10.7812L0 0L11.0625 0.5625Z" sodipodi:nodetypes="cccc"/>
  <path id="shape25" transform="translate(0.440537292966042, 0.784282729513961)" fill="#b8d2d1" fill-rule="evenodd" stroke-opacity="0" stroke="#000000" stroke-width="0" stroke-linecap="square" stroke-linejoin="bevel" d="M10.125 0L10.0312 9.75L0 9.65625Z" sodipodi:nodetypes="cccc"/>
 </g><g id="group06" transform="translate(250.998776528119, 393.965128560702)" fill="none">
  <rect id="shape06" transform="matrix(0.707106781186548 -0.707106781186548 0.707106781186548 0.707106781186548 0 10.6066017177984)" fill="#a6b7b7" fill-rule="evenodd" stroke-opacity="0" stroke="#000000" stroke-width="0" stroke-linecap="square" stroke-linejoin="bevel" width="15" height="14.9770286849046"/>
  <path id="shape16" transform="translate(10.1905369055383, 10.1592823569873)" fill="#6e7171" fill-rule="evenodd" stroke-opacity="0" stroke="#000000" stroke-width="0" stroke-linecap="square" stroke-linejoin="bevel" d="M0.5625 10.7812L0 0L11.0625 0.5625Z" sodipodi:nodetypes="cccc"/>
  <path id="shape26" transform="translate(0.440537292966042, 0.784282729513961)" fill="#b8d2d1" fill-rule="evenodd" stroke-opacity="0" stroke="#000000" stroke-width="0" stroke-linecap="square" stroke-linejoin="bevel" d="M10.125 0L10.0312 9.75L0 9.65625Z" sodipodi:nodetypes="cccc"/>
 </g><g id="group07" transform="translate(252.74908024475, 431.709822109685)" fill="none">
  <rect id="shape07" transform="matrix(0.707106781186548 -0.707106781186548 0.707106781186548 0.707106781186548 -2.8421709430404e-14 10.6066017177984)" fill="#a6b7b7" fill-rule="evenodd" stroke-opacity="0" stroke="#000000" stroke-width="0" stroke-linecap="square" stroke-linejoin="bevel" width="15" height="14.9770286849046"/>
  <path id="shape17" transform="translate(10.1905369055383, 10.1592823569873)" fill="#6e7171" fill-rule="evenodd" stroke-opacity="0" stroke="#000000" stroke-width="0" stroke-linecap="square" stroke-linejoin="bevel" d="M0.5625 10.7812L0 0L11.0625 0.5625Z" sodipodi:nodetypes="cccc"/>
  <path id="shape27" transform="translate(0.440537292966042, 0.784282729513961)" fill="#b8d2d1" fill-rule="evenodd" stroke-opacity="0" stroke="#000000" stroke-width="0" stroke-linecap="square" stroke-linejoin="bevel" d="M10.125 0L10.0312 9.75L0 9.65625Z" sodipodi:nodetypes="cccc"/>
 </g><g id="group08" transform="translate(253.374384039612, 466.829515841206)" fill="none">
  <rect id="shape08" transform="matrix(0.707106781186548 -0.707106781186548 0.707106781186548 0.707106781186548 -5.6843418860808e-14 10.6066017177984)" fill="#a6b7b7" fill-rule="evenodd" stroke-opacity="0" stroke="#000000" stroke-width="0" stroke-linecap="square" stroke-linejoin="bevel" width="15" height="14.9770286849046"/>
  <path id="shape18" transform="translate(10.1905369055383, 10.1592823569873)" fill="#6e7171" fill-rule="evenodd" stroke-opacity="0" stroke="#000000" stroke-width="0" stroke-linecap="square" stroke-linejoin="bevel" d="M0.5625 10.7812L0 0L11.0625 0.5625Z" sodipodi:nodetypes="cccc"/>
  <path id="shape28" transform="translate(0.440537292966042, 0.784282729513961)" fill="#b8d2d1" fill-rule="evenodd" stroke-opacity="0" stroke="#000000" stroke-width="0" stroke-linecap="square" stroke-linejoin="bevel" d="M10.125 0L10.0312 9.75L0 9.65625Z" sodipodi:nodetypes="cccc"/>
 </g><g id="group09" transform="translate(254.374687808397, 501.40151986854)" fill="none">
  <rect id="shape09" transform="matrix(0.707106781186548 -0.707106781186548 0.707106781186548 0.707106781186548 -8.5265128291212e-14 10.6066017177984)" fill="#a6b7b7" fill-rule="evenodd" stroke-opacity="0" stroke="#000000" stroke-width="0" stroke-linecap="square" stroke-linejoin="bevel" width="15" height="14.9770286849046"/>
  <path id="shape19" transform="translate(10.1905369055383, 10.1592823569873)" fill="#6e7171" fill-rule="evenodd" stroke-opacity="0" stroke="#000000" stroke-width="0" stroke-linecap="square" stroke-linejoin="bevel" d="M0.5625 10.7812L0 0L11.0625 0.5625Z" sodipodi:nodetypes="cccc"/>
  <path id="shape29" transform="translate(0.440537292966042, 0.784282729513961)" fill="#b8d2d1" fill-rule="evenodd" stroke-opacity="0" stroke="#000000" stroke-width="0" stroke-linecap="square" stroke-linejoin="bevel" d="M10.125 0L10.0312 9.75L0 9.65625Z" sodipodi:nodetypes="cccc"/>
 </g><g id="group010" transform="translate(212.373779214045, 389.840128847549)" fill="none">
  <rect id="shape010" transform="matrix(0.707106781186548 -0.707106781186548 0.707106781186548 0.707106781186548 -2.8421709430404e-14 10.6066017177984)" fill="#a6b7b7" fill-rule="evenodd" stroke-opacity="0" stroke="#000000" stroke-width="0" stroke-linecap="square" stroke-linejoin="bevel" width="15" height="14.9770286849046"/>
  <path id="shape110" transform="translate(10.1905369055383, 10.1592823569873)" fill="#6e7171" fill-rule="evenodd" stroke-opacity="0" stroke="#000000" stroke-width="0" stroke-linecap="square" stroke-linejoin="bevel" d="M0.5625 10.7812L0 0L11.0625 0.5625Z" sodipodi:nodetypes="cccc"/>
  <path id="shape210" transform="translate(0.440537292966042, 0.784282729513961)" fill="#b8d2d1" fill-rule="evenodd" stroke-opacity="0" stroke="#000000" stroke-width="0" stroke-linecap="square" stroke-linejoin="bevel" d="M10.125 0L10.0312 9.75L0 9.65625Z" sodipodi:nodetypes="cccc"/>
 </g><g id="group011" transform="translate(285.749077949981, 390.084825004226)" fill="none">
  <rect id="shape011" transform="matrix(0.707106781186548 -0.707106781186548 0.707106781186548 0.707106781186548 -2.8421709430404e-14 10.6066017177984)" fill="#a6b7b7" fill-rule="evenodd" stroke-opacity="0" stroke="#000000" stroke-width="0" stroke-linecap="square" stroke-linejoin="bevel" width="15" height="14.9770286849046"/>
  <path id="shape111" transform="translate(10.1905369055383, 10.1592823569873)" fill="#6e7171" fill-rule="evenodd" stroke-opacity="0" stroke="#000000" stroke-width="0" stroke-linecap="square" stroke-linejoin="bevel" d="M0.5625 10.7812L0 0L11.0625 0.5625Z" sodipodi:nodetypes="cccc"/>
  <path id="shape211" transform="translate(0.440537292966042, 0.784282729513961)" fill="#b8d2d1" fill-rule="evenodd" stroke-opacity="0" stroke="#000000" stroke-width="0" stroke-linecap="square" stroke-linejoin="bevel" d="M10.125 0L10.0312 9.75L0 9.65625Z" sodipodi:nodetypes="cccc"/>
 </g>
</svg>
