<?xml version="1.0" standalone="no"?>
<!DOCTYPE svg PUBLIC "-//W3C//DTD SVG 20010904//EN" "http://www.w3.org/TR/2001/REC-SVG-20010904/DTD/svg10.dtd">
<!-- Created using Krita: https://krita.org -->
<svg xmlns="http://www.w3.org/2000/svg" 
    xmlns:xlink="http://www.w3.org/1999/xlink"
    xmlns:krita="http://krita.org/namespaces/svg/krita"
    xmlns:sodipodi="http://sodipodi.sourceforge.net/DTD/sodipodi-0.dtd"
    width="512pt"
    height="512pt"
    viewBox="0 0 512 512">
<defs/>
<path id="shape0" transform="translate(40.9844373473212, 318.39445294386)" fill="#e8e8e8" fill-rule="evenodd" stroke-opacity="0" stroke="#000000" stroke-width="0" stroke-linecap="square" stroke-linejoin="bevel" d="M252.408 0C218.854 11.4087 190.805 5.77526 162.33 1.46258L156.612 11.756L27.3725 53.3107L0 194.793L457.312 193.606L442.125 60.543L253.5 3.16803Z" sodipodi:nodetypes="ccccccccc"/><path id="shape01" transform="translate(41.2156398333896, 321.166783982435)" fill="#686868" fill-rule="evenodd" stroke-opacity="0" stroke="#000000" stroke-width="0" stroke-linecap="square" stroke-linejoin="bevel" d="M207.5 87.6663L165.612 4.58797L27.3725 50.1427L0 191.625L458.062 193.438L442.125 57.375L253.5 0Z" sodipodi:nodetypes="cccccccc"/><path id="shape1" transform="translate(246.249984166113, 415.249973299405)" fill="none" stroke="#404040" stroke-width="4" stroke-linecap="square" stroke-linejoin="miter" stroke-miterlimit="2" d="M1.5 0L0 103" sodipodi:nodetypes="cc"/><path id="shape2" transform="translate(197.85805430307, 419.249998180459)" fill="#b2b2b2" fill-rule="evenodd" stroke="#303030" stroke-width="3" stroke-linecap="square" stroke-linejoin="bevel" d="M1.14194 0.25L96.8919 0C97.9017 29.1254 97.5684 47.5421 95.8919 55.25C90.9114 78.1496 66.4581 77.4778 47.3919 77.75C28.3258 78.0222 4.56361 75.8564 0.891944 54.25C-0.375507 46.7915 -0.292174 28.7915 1.14194 0.25Z" sodipodi:nodetypes="ccszsc"/><rect id="shape3" transform="translate(201.374987051577, 422.343722798572)" fill="none" stroke-opacity="0.643137254901961" stroke="#303030" stroke-width="3" stroke-linecap="square" stroke-linejoin="bevel" width="37.4062475947763" height="37.7812475706637"/><rect id="shape02" transform="translate(253.582299200235, 422.46353829646)" fill="none" stroke-opacity="0.643137254901961" stroke="#303030" stroke-width="3" stroke-linecap="square" stroke-linejoin="bevel" width="37.4062475947763" height="37.7812475706637"/><path id="shape4" transform="translate(169.427385892116, 319.46887966805)" fill="#1d1d1d" fill-rule="evenodd" d="M33.195 0L1.59336 31.6017L0 39.5685L30.5394 27.8838L47.8008 29.2116M108.88 32.6639L124.017 22.0415L158.008 25.4938L125.079 1.59336" sodipodi:nodetypes="ccccccccc"/><path id="shape5" transform="translate(165.44398340249, 312.033195020747)" fill="#474747" fill-rule="evenodd" d="M37.1784 2.12448L0 27.0871L1.06224 48.0664L44.083 18.5892L81.527 107.021L126.407 16.7303L162.788 34.2573L174.207 21.5104L129.328 0L128.266 9.29461L82.3177 95.7437L37.444 8.49793Z" sodipodi:nodetypes="ccccccccccccc"/><ellipse id="shape6" transform="matrix(0.718750113412744 0 0 0.718750113412744 231.140622646231 464.437497819277)" rx="20.5" ry="20" cx="20.5" cy="20" fill="none" stroke-opacity="0.643137254901961" stroke="#303030" stroke-width="3" stroke-linecap="square" stroke-linejoin="bevel"/><circle id="shape7" transform="matrix(0.718750113412744 0 0 0.718750113412744 234.195310646831 467.882810722457)" r="16" cx="16" cy="16" fill="#303030" fill-rule="evenodd"/><ellipse id="shape8" transform="translate(265.750000043122, 437.249999934526)" rx="8" ry="7.5" cx="8" cy="7.5" fill="#303030" fill-rule="evenodd" stroke-opacity="0.643137254901961" stroke="#303030" stroke-width="3" stroke-linecap="square" stroke-linejoin="bevel"/><ellipse id="shape03" transform="translate(211.450002026742, 437.500000029394)" rx="8" ry="7.5" cx="8" cy="7.5" fill="#303030" fill-rule="evenodd" stroke-opacity="0.643137254901961" stroke="#303030" stroke-width="3" stroke-linecap="square" stroke-linejoin="bevel"/><path id="shape9" transform="translate(271.937490669064, 467.374983992105)" fill="none" stroke-opacity="0.643137254901961" stroke="#303030" stroke-width="3" stroke-linecap="square" stroke-linejoin="miter" stroke-miterlimit="2" d="M0 0L17.75 0.25" sodipodi:nodetypes="cc"/><path id="shape10" transform="translate(272.749990590743, 485.249983237622)" fill="none" stroke-opacity="0.643137254901961" stroke="#303030" stroke-width="3" stroke-linecap="square" stroke-linejoin="miter" stroke-miterlimit="2" d="M0 0L7.25 1.25" sodipodi:nodetypes="cc"/><path id="shape11" transform="translate(210.999992720978, 485.749983220373)" fill="none" stroke-opacity="0.643137254901961" stroke="#303030" stroke-width="3" stroke-linecap="square" stroke-linejoin="miter" stroke-miterlimit="2" d="M0 0L6.25 0.75" sodipodi:nodetypes="cc"/><path id="shape12" transform="translate(205.187492941985, 466.499984003664)" fill="none" stroke-opacity="0.643137254901961" stroke="#303030" stroke-width="3" stroke-linecap="square" stroke-linejoin="miter" stroke-miterlimit="2" d="M0 0.5625L14.8125 0" sodipodi:nodetypes="cc"/><path id="shape13" transform="translate(208.499992807222, 428.749985186744)" fill="none" stroke-opacity="0.643137254901961" stroke="#303030" stroke-width="3" stroke-linecap="square" stroke-linejoin="miter" stroke-miterlimit="2" d="M0 0L3.5 7.5" sodipodi:nodetypes="cc"/><path id="shape14" transform="translate(217.999992479494, 424.999985338463)" fill="none" stroke-opacity="0.643137254901961" stroke="#303030" stroke-width="3" stroke-linecap="square" stroke-linejoin="miter" stroke-miterlimit="2" d="M0 0L0.75 10" sodipodi:nodetypes="cc"/><path id="shape15" transform="translate(222.499992324254, 425.749985290238)" fill="none" stroke-opacity="0.643137254901961" stroke="#303030" stroke-width="3" stroke-linecap="square" stroke-linejoin="miter" stroke-miterlimit="2" d="M4.5 0L0 10.75" sodipodi:nodetypes="cc"/><path id="shape16" transform="translate(229.749992074145, 429.999985143622)" fill="none" stroke-opacity="0.643137254901961" stroke="#303030" stroke-width="3" stroke-linecap="square" stroke-linejoin="miter" stroke-miterlimit="2" d="M0 6.75L4.75 0" sodipodi:nodetypes="cc"/><path id="shape17" transform="translate(230.999992031023, 444.749984634781)" fill="none" stroke-opacity="0.643137254901961" stroke="#303030" stroke-width="3" stroke-linecap="square" stroke-linejoin="miter" stroke-miterlimit="2" d="M0 0.75L7 0" sodipodi:nodetypes="cc"/><path id="shape18" transform="translate(227.999992134516, 451.499984401921)" fill="none" stroke-opacity="0.643137254901961" stroke="#303030" stroke-width="3" stroke-linecap="square" stroke-linejoin="miter" stroke-miterlimit="2" d="M0 0L4.5 2.25" sodipodi:nodetypes="cc"/><path id="shape19" transform="translate(221.499992358752, 454.249984307052)" fill="none" stroke-opacity="0.643137254901961" stroke="#303030" stroke-width="3" stroke-linecap="square" stroke-linejoin="miter" stroke-miterlimit="2" d="M0.25 0L0 3" sodipodi:nodetypes="cc"/><path id="shape20" transform="translate(208.999992789973, 452.249984376048)" fill="none" stroke-opacity="0.643137254901961" stroke="#303030" stroke-width="3" stroke-linecap="square" stroke-linejoin="miter" stroke-miterlimit="2" d="M4.25 0L0 4.5" sodipodi:nodetypes="cc"/><path id="shape21" transform="translate(202.99999299696, 447.749984531287)" fill="none" stroke-opacity="0.643137254901961" stroke="#303030" stroke-width="3" stroke-linecap="square" stroke-linejoin="miter" stroke-miterlimit="2" d="M6.75 0L0 1.25" sodipodi:nodetypes="cc"/><path id="shape22" transform="translate(201.999993031458, 435.249984962509)" fill="none" stroke-opacity="0.643137254901961" stroke="#303030" stroke-width="3" stroke-linecap="square" stroke-linejoin="miter" stroke-miterlimit="2" d="M8.25 6.5L0 0" sodipodi:nodetypes="cc"/><path id="shape23" transform="translate(270.999990651114, 424.749985324735)" fill="none" stroke-opacity="0.643137254901961" stroke="#303030" stroke-width="3" stroke-linecap="square" stroke-linejoin="miter" stroke-miterlimit="2" d="M1 12L0 0" sodipodi:nodetypes="cc"/><path id="shape24" transform="translate(256, 430.999985109124)" fill="none" stroke-opacity="0.643137254901961" stroke="#303030" stroke-width="3" stroke-linecap="square" stroke-linejoin="miter" stroke-miterlimit="2" d="M9.74999 8.25L0 0" sodipodi:nodetypes="cc"/><path id="shape25" transform="translate(253.828116243505, 440.796859771154)" fill="none" stroke-opacity="0.643137254901961" stroke="#303030" stroke-width="3" stroke-linecap="square" stroke-linejoin="miter" stroke-miterlimit="2" d="M10.9219 2.8125L0 0" sodipodi:nodetypes="cc"/><path id="shape26" transform="translate(261.984365962132, 451.359359406772)" fill="none" stroke-opacity="0.643137254901961" stroke="#303030" stroke-width="3" stroke-linecap="square" stroke-linejoin="miter" stroke-miterlimit="2" d="M5.4375 0L0 5.57812" sodipodi:nodetypes="cc"/><path id="shape27" transform="translate(273.749990556245, 453.999984315676)" fill="none" stroke-opacity="0.643137254901961" stroke="#303030" stroke-width="3" stroke-linecap="square" stroke-linejoin="miter" stroke-miterlimit="2" d="M0.25 0L0 3.5" sodipodi:nodetypes="cc"/><path id="shape28" transform="translate(280.499990323385, 451.249984410545)" fill="none" stroke-opacity="0.643137254901961" stroke="#303030" stroke-width="3" stroke-linecap="square" stroke-linejoin="miter" stroke-miterlimit="2" d="M0 0L3 4" sodipodi:nodetypes="cc"/><path id="shape29" transform="translate(280.499990323385, 447.499984539912)" fill="none" stroke-opacity="0.643137254901961" stroke="#303030" stroke-width="3" stroke-linecap="square" stroke-linejoin="miter" stroke-miterlimit="2" d="M0 0L9.5 0.25" sodipodi:nodetypes="cc"/><path id="shape30" transform="translate(282.249990263014, 434.999984971133)" fill="none" stroke-opacity="0.643137254901961" stroke="#303030" stroke-width="3" stroke-linecap="square" stroke-linejoin="miter" stroke-miterlimit="2" d="M0 6.75L9 0" sodipodi:nodetypes="cc"/><path id="shape31" transform="translate(277.249990435503, 423.999985350609)" fill="none" stroke-opacity="0.643137254901961" stroke="#303030" stroke-width="3" stroke-linecap="square" stroke-linejoin="miter" stroke-miterlimit="2" d="M0 14.5L5.75 0" sodipodi:nodetypes="cc"/><path id="shape32" transform="translate(256, 446.749984565785)" fill="none" stroke-opacity="0.643137254901961" stroke="#303030" stroke-width="3" stroke-linecap="square" stroke-linejoin="miter" stroke-miterlimit="2" d="M9.74999 0L0 3.25" sodipodi:nodetypes="cc"/><path id="shape33" transform="translate(212.187486406625, 332.499978620234)" fill="none" stroke="#c5c5c5" stroke-width="4" stroke-linecap="square" stroke-linejoin="miter" stroke-miterlimit="2" d="M0 0.5C26.0406 7.13246 50.2591 5.14041 73.8125 0" sodipodi:nodetypes="cc"/><path id="shape34" transform="translate(298.062483639712, 438.749973040052)" fill="none" stroke="#474747" stroke-width="4" stroke-linecap="square" stroke-linejoin="miter" stroke-miterlimit="2" d="M0 1.25L117.812 0" sodipodi:nodetypes="cc"/><path id="shape110" transform="translate(104.499996002573, 431.601299885457)" fill="#2b2b2b" fill-opacity="0.52156862745098" fill-rule="evenodd" stroke-opacity="0" stroke="#000000" stroke-width="0" stroke-linecap="square" stroke-linejoin="bevel" d="M0 100.274C6.00533 42.5622 9.88033 12.3538 11.625 9.6487C14.242 5.5911 12.1088 11.1249 20.9757 0L8.125 104.024Z" sodipodi:nodetypes="czccc"/><path id="shape210" transform="translate(416.249983561601, 416.374982872235)" fill="#2b2b2b" fill-opacity="0.52156862745098" fill-rule="evenodd" stroke-opacity="0" stroke="#000000" stroke-width="0" stroke-linecap="square" stroke-linejoin="bevel" d="M0 0L2 107.25L7.375 106.25C7.45073 52.2827 7.20073 24.5327 6.625 23C5.76139 20.7009 6.30306 12.0343 0 0Z" sodipodi:nodetypes="ccczc"/><ellipse id="shape35" transform="translate(239.437491739959, 474)" rx="5.78125413002036" ry="5.58983538121072" cx="5.78125413002036" cy="5.58983538121072" fill="#000000" fill-rule="evenodd"/><path id="shape36" transform="matrix(0.865985271517332 0.500069504684153 -0.500069504684153 0.865985271517332 247.361352506081 469.140041699851)" fill="#000000" fill-rule="evenodd" d="M2.41406 0.046875L4.38281 0L6.02894 13.7773L6.14062 19.5234L0 19.6406L0.0164457 13.6739Z" sodipodi:nodetypes="ccccccc"/>
</svg>
