<?xml version="1.0" standalone="no"?>
<!DOCTYPE svg PUBLIC "-//W3C//DTD SVG 20010904//EN" "http://www.w3.org/TR/2001/REC-SVG-20010904/DTD/svg10.dtd">
<!-- Created using Krita: https://krita.org -->
<svg xmlns="http://www.w3.org/2000/svg" 
    xmlns:xlink="http://www.w3.org/1999/xlink"
    xmlns:krita="http://krita.org/namespaces/svg/krita"
    xmlns:sodipodi="http://sodipodi.sourceforge.net/DTD/sodipodi-0.dtd"
    width="512pt"
    height="512pt"
    viewBox="0 0 512 512">
<defs/>
<path id="shape01" transform="translate(38.4999973853436, 317.247906339004)" fill="#321a0d" fill-rule="evenodd" stroke-opacity="0" stroke="#000000" stroke-width="0" stroke-linecap="square" stroke-linejoin="bevel" d="M208.641 0.108747C218.224 -0.443546 234.181 1.10785 256.51 4.76295L444.75 57.877L461.25 202.627C307.5 203.127 153.75 203.627 0 204.127L29.25 52.627L164.25 11.5645C184.958 4.43945 199.755 0.620854 208.641 0.108747Z" sodipodi:nodetypes="cccccccs"/><path id="shape79" transform="translate(397.366854445524, 360.409974048591)" fill="#686869" fill-rule="evenodd" stroke-opacity="0.341176470588235" stroke="#5b5b5b" stroke-width="9" stroke-linecap="square" stroke-linejoin="miter" stroke-miterlimit="2" d="M1.8125 0L0 4.5" sodipodi:nodetypes="cc"/><path id="shape18" transform="matrix(-0.986397150027506 0 0 1 247.783587179182 446.709967242739)" fill="none" stroke-opacity="0.431372549019608" stroke="#57575c" stroke-width="9" stroke-linecap="square" stroke-linejoin="miter" stroke-miterlimit="2" d="M0 0L0.375 16.125" sodipodi:nodetypes="cc"/><path id="shape14" transform="matrix(-0.986397150027506 0 0 1 247.679635023211 378.928722046034)" fill="none" stroke-opacity="0.431372549019608" stroke="#57575c" stroke-width="9" stroke-linecap="square" stroke-linejoin="miter" stroke-miterlimit="2" d="M0.562294 0L0 17.2588" sodipodi:nodetypes="cc"/><path id="shape16" transform="matrix(-0.986397150027506 0 0 1 249.633081705436 421.5849690094)" fill="none" stroke-opacity="0.431372549019608" stroke="#57575c" stroke-width="9" stroke-linecap="square" stroke-linejoin="miter" stroke-miterlimit="2" d="M0 0L2.625 11.25" sodipodi:nodetypes="cc"/><path id="shape0" transform="matrix(-0.986397150027506 0 0 1 146.801186045676 358.209973465601)" fill="none" stroke-opacity="0.431372549019608" stroke="#57575c" stroke-width="9" stroke-linecap="square" stroke-linejoin="miter" stroke-miterlimit="2" d="M2.625 0L0 13.125" sodipodi:nodetypes="cc"/><path id="shape1" transform="matrix(-0.986397150027506 0 0 1 161.227243350462 365.334972964608)" fill="none" stroke-opacity="0.431372549019608" stroke="#57575c" stroke-width="9" stroke-linecap="square" stroke-linejoin="miter" stroke-miterlimit="2" d="M3.75 0L0 21.75" sodipodi:nodetypes="cc"/><path id="shape4" transform="matrix(-0.986397150027506 0 0 1 173.064008318492 401.334970433275)" fill="none" stroke-opacity="0.431372549019608" stroke="#57575c" stroke-width="9" stroke-linecap="square" stroke-linejoin="miter" stroke-miterlimit="2" d="M5.625 0L0 22.875" sodipodi:nodetypes="cc"/><path id="shape5" transform="matrix(-0.986397150027506 0 0 1 181.201784234013 381.459971830782)" fill="none" stroke-opacity="0.431372549019608" stroke="#57575c" stroke-width="9" stroke-linecap="square" stroke-linejoin="miter" stroke-miterlimit="2" d="M8.625 0L0 26.25" sodipodi:nodetypes="cc"/><path id="shape6" transform="matrix(-0.986397150027506 0 0 1 172.32421050799 356.334973597442)" fill="none" stroke-opacity="0.431372549019608" stroke="#57575c" stroke-width="9" stroke-linecap="square" stroke-linejoin="miter" stroke-miterlimit="2" d="M1.875 0L0 10.5" sodipodi:nodetypes="cc"/><path id="shape7" transform="matrix(-0.986397150027506 0 0 1 187.490065623279 361.584973228289)" fill="none" stroke-opacity="0.431372549019608" stroke="#57575c" stroke-width="9" stroke-linecap="square" stroke-linejoin="miter" stroke-miterlimit="2" d="M0.75 0L0 19.125" sodipodi:nodetypes="cc"/><path id="shape8" transform="matrix(-0.986397150027506 0 0 1 204.505415264822 345.459974362115)" fill="none" stroke-opacity="0.431372549019608" stroke="#57575c" stroke-width="9" stroke-linecap="square" stroke-linejoin="miter" stroke-miterlimit="2" d="M1.125 0L0 14.625" sodipodi:nodetypes="cc"/><path id="shape9" transform="matrix(-0.986397150027506 0 0 1 206.354909791077 373.959972358143)" fill="none" stroke-opacity="0.431372549019608" stroke="#57575c" stroke-width="9" stroke-linecap="square" stroke-linejoin="miter" stroke-miterlimit="2" d="M1.5 0L0 22.5" sodipodi:nodetypes="cc"/><path id="shape10" transform="matrix(-0.986397150027506 0 0 1 270.301033621679 392.959970597963)" fill="none" stroke-opacity="0.431372549019608" stroke="#57575c" stroke-width="9" stroke-linecap="square" stroke-linejoin="miter" stroke-miterlimit="2" d="M1.06294 0L0 10.8125" sodipodi:nodetypes="cc"/><path id="shape11" transform="matrix(-0.986397150027506 0 0 1 221.520764906365 361.959973201921)" fill="none" stroke-opacity="0.431372549019608" stroke="#57575c" stroke-width="9" stroke-linecap="square" stroke-linejoin="miter" stroke-miterlimit="2" d="M2.25 0L0 13.125" sodipodi:nodetypes="cc"/><path id="shape12" transform="matrix(-0.986397150027506 0 0 1 236.780370017928 351.834973913858)" fill="none" stroke-opacity="0.431372549019608" stroke="#57575c" stroke-width="9" stroke-linecap="square" stroke-linejoin="miter" stroke-miterlimit="2" d="M3 0L0 12.75" sodipodi:nodetypes="cc"/><path id="shape13" transform="matrix(-0.986397150027506 0 0 1 251.248475923322 338.24122394948)" fill="none" stroke-opacity="0.431372549019608" stroke="#57575c" stroke-width="9" stroke-linecap="square" stroke-linejoin="miter" stroke-miterlimit="2" d="M6 0L0 22.125" sodipodi:nodetypes="cc"/><path id="shape15" transform="matrix(-0.986397150027506 0 0 1 234.097327684897 404.33497022233)" fill="none" stroke-opacity="0.431372549019608" stroke="#57575c" stroke-width="9" stroke-linecap="square" stroke-linejoin="miter" stroke-miterlimit="2" d="M1.125 0L0 15" sodipodi:nodetypes="cc"/><path id="shape17" transform="matrix(-0.986397150027506 0 0 1 232.987630969144 431.709968297462)" fill="none" stroke-opacity="0.431372549019608" stroke="#57575c" stroke-width="9" stroke-linecap="square" stroke-linejoin="miter" stroke-miterlimit="2" d="M0 0L0.75 12" sodipodi:nodetypes="cc"/><path id="shape19" transform="matrix(-0.986397150027506 0 0 1 234.837125495399 459.459966346226)" fill="none" stroke-opacity="0.431372549019608" stroke="#57575c" stroke-width="9" stroke-linecap="square" stroke-linejoin="miter" stroke-miterlimit="2" d="M0 0L3 22.875" sodipodi:nodetypes="cc"/><path id="shape20" transform="matrix(-0.986397150027506 0 0 1 221.520764906365 389.709971250684)" fill="none" stroke-opacity="0.431372549019608" stroke="#57575c" stroke-width="9" stroke-linecap="square" stroke-linejoin="miter" stroke-miterlimit="2" d="M3 0L0 16.125" sodipodi:nodetypes="cc"/><path id="shape21" transform="matrix(-0.986397150027506 0 0 1 218.191674759107 418.959969193976)" fill="none" stroke-opacity="0.431372549019608" stroke="#57575c" stroke-width="9" stroke-linecap="square" stroke-linejoin="miter" stroke-miterlimit="2" d="M0 0L3 17.25" sodipodi:nodetypes="cc"/><path id="shape22" transform="matrix(-0.986397150027506 0 0 1 219.301371474859 445.959967295476)" fill="none" stroke-opacity="0.431372549019608" stroke="#57575c" stroke-width="9" stroke-linecap="square" stroke-linejoin="miter" stroke-miterlimit="2" d="M0 0L1.125 13.875" sodipodi:nodetypes="cc"/><path id="shape23" transform="matrix(-0.986397150027506 0 0 1 214.122786801346 471.459965502448)" fill="none" stroke-opacity="0.431372549019608" stroke="#57575c" stroke-width="9" stroke-linecap="square" stroke-linejoin="miter" stroke-miterlimit="2" d="M0 0L7.125 26.25" sodipodi:nodetypes="cc"/><path id="shape24" transform="matrix(-0.986397150027506 0 0 1 208.204404317331 410.334969800441)" fill="none" stroke-opacity="0.431372549019608" stroke="#57575c" stroke-width="9" stroke-linecap="square" stroke-linejoin="miter" stroke-miterlimit="2" d="M0 0L0.75 12.75" sodipodi:nodetypes="cc"/><path id="shape25" transform="matrix(-0.986397150027506 0 0 1 264.322725485188 425.709968289138)" fill="none" stroke-opacity="0.431372549019608" stroke="#57575c" stroke-width="9" stroke-linecap="square" stroke-linejoin="miter" stroke-miterlimit="2" d="M0 0L0 12.75" sodipodi:nodetypes="cc"/><path id="shape26" transform="matrix(-0.986397150027506 0 0 1 205.985010885826 454.209966715378)" fill="none" stroke-opacity="0.431372549019608" stroke="#57575c" stroke-width="9" stroke-linecap="square" stroke-linejoin="miter" stroke-miterlimit="2" d="M0 0L3 6" sodipodi:nodetypes="cc"/><path id="shape27" transform="matrix(-0.986397150027506 0 0 1 198.217133875556 471.83496547608)" fill="none" stroke-opacity="0.431372549019608" stroke="#57575c" stroke-width="9" stroke-linecap="square" stroke-linejoin="miter" stroke-miterlimit="2" d="M0 0L4.125 19.5" sodipodi:nodetypes="cc"/><path id="shape28" transform="matrix(-0.986397150027506 0 0 1 258.114773789002 404.709969749043)" fill="none" stroke-opacity="0.431372549019608" stroke="#57575c" stroke-width="9" stroke-linecap="square" stroke-linejoin="miter" stroke-miterlimit="2" d="M0 0L0.6168 5.4375" sodipodi:nodetypes="cc"/><path id="shape30" transform="matrix(-0.986397150027506 0 0 1 179.352289707758 437.334967901941)" fill="none" stroke-opacity="0.431372549019608" stroke="#57575c" stroke-width="9" stroke-linecap="square" stroke-linejoin="miter" stroke-miterlimit="2" d="M2.25 0L0 15.375" sodipodi:nodetypes="cc"/><path id="shape31" transform="matrix(-0.986397150027506 0 0 1 191.189054675788 447.459967190003)" fill="none" stroke-opacity="0.431372549019608" stroke="#57575c" stroke-width="9" stroke-linecap="square" stroke-linejoin="miter" stroke-miterlimit="2" d="M0 0L0 6.375" sodipodi:nodetypes="cc"/><path id="shape33" transform="matrix(-0.986397150027506 0 0 1 187.490065623279 465.459965924337)" fill="none" stroke-opacity="0.431372549019608" stroke="#57575c" stroke-width="9" stroke-linecap="square" stroke-linejoin="miter" stroke-miterlimit="2" d="M0 0L2.625 28.5" sodipodi:nodetypes="cc"/><path id="shape34" transform="matrix(-0.986397150027506 0 0 1 133.933916937307 379.209973072508)" fill="none" stroke-opacity="0.431372549019608" stroke="#57575c" stroke-width="9" stroke-linecap="square" stroke-linejoin="miter" stroke-miterlimit="2" d="M0 7.5L1.5 0" sodipodi:nodetypes="cc"/><path id="shape35" transform="matrix(-0.986397150027506 0 0 1 157.340754305404 348.084974269274)" fill="none" stroke-opacity="0.431372549019608" stroke="#57575c" stroke-width="9" stroke-linecap="square" stroke-linejoin="miter" stroke-miterlimit="2" d="M2.23449 0L0 9.25" sodipodi:nodetypes="cc"/><path id="shape36" transform="matrix(-0.986397150027506 0 0 1 186.010470002275 340.959974678532)" fill="none" stroke-opacity="0.431372549019608" stroke="#57575c" stroke-width="9" stroke-linecap="square" stroke-linejoin="miter" stroke-miterlimit="2" d="M0 5.625L0 0" sodipodi:nodetypes="cc"/><path id="shape37" transform="matrix(-0.986397150027506 0 0 1 225.589652864125 340.209974731268)" fill="none" stroke-opacity="0.431372549019608" stroke="#57575c" stroke-width="9" stroke-linecap="square" stroke-linejoin="miter" stroke-miterlimit="2" d="M0 7.5L5.25 0" sodipodi:nodetypes="cc"/><path id="shape38" transform="matrix(-0.986397150027506 0 0 1 122.181202091421 383.58497285747)" fill="none" stroke-opacity="0.431372549019608" stroke="#57575c" stroke-width="9" stroke-linecap="square" stroke-linejoin="miter" stroke-miterlimit="2" d="M2.25 0L0 17.25" sodipodi:nodetypes="cc"/><path id="shape41" transform="matrix(-0.986397150027506 0 0 1 115.773021786777 409.084971064442)" fill="none" stroke-opacity="0.431372549019608" stroke="#57575c" stroke-width="9" stroke-linecap="square" stroke-linejoin="miter" stroke-miterlimit="2" d="M1.125 0L0 13.125" sodipodi:nodetypes="cc"/><path id="shape42" transform="matrix(-0.986397150027506 0 0 1 128.469483480687 414.709970668921)" fill="none" stroke-opacity="0.431372549019608" stroke="#57575c" stroke-width="9" stroke-linecap="square" stroke-linejoin="miter" stroke-miterlimit="2" d="M3.75 0L0 19.5" sodipodi:nodetypes="cc"/><path id="shape43" transform="matrix(-0.986397150027506 0 0 1 130.688876912193 447.3349683749)" fill="none" stroke-opacity="0.431372549019608" stroke="#57575c" stroke-width="9" stroke-linecap="square" stroke-linejoin="miter" stroke-miterlimit="2" d="M0.75 0L0 19.5" sodipodi:nodetypes="cc"/><path id="shape44" transform="matrix(-0.986397150027506 0 0 1 136.607259396208 480.709966028142)" fill="none" stroke-opacity="0.431372549019608" stroke="#57575c" stroke-width="9" stroke-linecap="square" stroke-linejoin="miter" stroke-miterlimit="2" d="M2.625 0L0 15.75" sodipodi:nodetypes="cc"/><path id="shape46" transform="matrix(-0.986397150027506 0 0 1 124.770494428178 495.334964999788)" fill="none" stroke-opacity="0.431372549019608" stroke="#57575c" stroke-width="9" stroke-linecap="square" stroke-linejoin="miter" stroke-miterlimit="2" d="M1.875 0L0 12" sodipodi:nodetypes="cc"/><path id="shape47" transform="matrix(-0.986397150027506 0 0 1 119.961808659916 463.459967241073)" fill="none" stroke-opacity="0.431372549019608" stroke="#57575c" stroke-width="9" stroke-linecap="square" stroke-linejoin="miter" stroke-miterlimit="2" d="M0.75 0L0 16.125" sodipodi:nodetypes="cc"/><path id="shape48" transform="matrix(-0.986397150027506 0 0 1 117.74241522841 433.83496932415)" fill="none" stroke-opacity="0.431372549019608" stroke="#57575c" stroke-width="9" stroke-linecap="square" stroke-linejoin="miter" stroke-miterlimit="2" d="M3 0L0 16.125" sodipodi:nodetypes="cc"/><path id="shape50" transform="matrix(-0.986397150027506 0 0 1 103.686256828874 454.834967847538)" fill="none" stroke-opacity="0.431372549019608" stroke="#57575c" stroke-width="9" stroke-linecap="square" stroke-linejoin="miter" stroke-miterlimit="2" d="M1.5 0L0 14.25" sodipodi:nodetypes="cc"/><path id="shape51" transform="matrix(-0.986397150027506 0 0 1 104.426054639376 482.584965896302)" fill="none" stroke-opacity="0.431372549019608" stroke="#57575c" stroke-width="9" stroke-linecap="square" stroke-linejoin="miter" stroke-miterlimit="2" d="M1.125 0L0 15" sodipodi:nodetypes="cc"/><path id="shape2" transform="translate(369.874973734872, 396.874972462609)" fill="#686869" fill-rule="evenodd" stroke-opacity="0.341176470588235" stroke="#5b5b5b" stroke-width="9" stroke-linecap="square" stroke-linejoin="miter" stroke-miterlimit="2" d="M2.625 0L0 13.125" sodipodi:nodetypes="cc"/><path id="shape3" transform="translate(357.663106921404, 361.499973650411)" fill="#686869" fill-rule="evenodd" stroke-opacity="0.341176470588235" stroke="#5b5b5b" stroke-width="9" stroke-linecap="square" stroke-linejoin="miter" stroke-miterlimit="2" d="M3.75 0L0 21.75" sodipodi:nodetypes="cc"/><path id="shape29" transform="translate(378.124973154775, 411.874971407887)" fill="#686869" fill-rule="evenodd" stroke-opacity="0.341176470588235" stroke="#5b5b5b" stroke-width="9" stroke-linecap="square" stroke-linejoin="miter" stroke-miterlimit="2" d="M5.25 0L0 23.25" sodipodi:nodetypes="cc"/><path id="shape32" transform="translate(364.038106473147, 386.999971857383)" fill="#686869" fill-rule="evenodd" stroke-opacity="0.341176470588235" stroke="#5b5b5b" stroke-width="9" stroke-linecap="square" stroke-linejoin="miter" stroke-miterlimit="2" d="M3.75 0L0 14.25" sodipodi:nodetypes="cc"/><path id="shape39" transform="translate(345.663107765182, 397.499971119078)" fill="#686869" fill-rule="evenodd" stroke-opacity="0.341176470588235" stroke="#5b5b5b" stroke-width="9" stroke-linecap="square" stroke-linejoin="miter" stroke-miterlimit="2" d="M5.625 0L0 22.875" sodipodi:nodetypes="cc"/><path id="shape40" transform="translate(337.413108345279, 377.624972516585)" fill="#686869" fill-rule="evenodd" stroke-opacity="0.341176470588235" stroke="#5b5b5b" stroke-width="9" stroke-linecap="square" stroke-linejoin="miter" stroke-miterlimit="2" d="M8.625 0L0 26.25" sodipodi:nodetypes="cc"/><path id="shape45" transform="translate(346.413107712445, 352.499974283245)" fill="#686869" fill-rule="evenodd" stroke-opacity="0.341176470588235" stroke="#5b5b5b" stroke-width="9" stroke-linecap="square" stroke-linejoin="miter" stroke-miterlimit="2" d="M1.875 0L0 10.5" sodipodi:nodetypes="cc"/><path id="shape49" transform="translate(331.038108793536, 357.749973914092)" fill="#686869" fill-rule="evenodd" stroke-opacity="0.341176470588235" stroke="#5b5b5b" stroke-width="9" stroke-linecap="square" stroke-linejoin="miter" stroke-miterlimit="2" d="M0.75 0L0 19.125" sodipodi:nodetypes="cc"/><path id="shape52" transform="translate(313.788110006466, 341.624975047918)" fill="#686869" fill-rule="evenodd" stroke-opacity="0.341176470588235" stroke="#5b5b5b" stroke-width="9" stroke-linecap="square" stroke-linejoin="miter" stroke-miterlimit="2" d="M1.125 0L0 14.625" sodipodi:nodetypes="cc"/><path id="shape53" transform="translate(311.913110138307, 370.124973043946)" fill="#686869" fill-rule="evenodd" stroke-opacity="0.341176470588235" stroke="#5b5b5b" stroke-width="9" stroke-linecap="square" stroke-linejoin="miter" stroke-miterlimit="2" d="M1.5 0L0 22.5" sodipodi:nodetypes="cc"/><path id="shape54" transform="translate(319.413109610946, 388.499971751911)" fill="#686869" fill-rule="evenodd" stroke-opacity="0.341176470588235" stroke="#5b5b5b" stroke-width="9" stroke-linecap="square" stroke-linejoin="miter" stroke-miterlimit="2" d="M5.625 0L0 17.625" sodipodi:nodetypes="cc"/><path id="shape55" transform="translate(296.538111219397, 358.124973887724)" fill="#686869" fill-rule="evenodd" stroke-opacity="0.341176470588235" stroke="#5b5b5b" stroke-width="9" stroke-linecap="square" stroke-linejoin="miter" stroke-miterlimit="2" d="M2.25 0L0 13.125" sodipodi:nodetypes="cc"/><path id="shape56" transform="translate(281.163112300488, 347.999974599661)" fill="#686869" fill-rule="evenodd" stroke-opacity="0.341176470588235" stroke="#5b5b5b" stroke-width="9" stroke-linecap="square" stroke-linejoin="miter" stroke-miterlimit="2" d="M3 0L0 12.75" sodipodi:nodetypes="cc"/><path id="shape57" transform="translate(283.413112142279, 364.499973439467)" fill="#686869" fill-rule="evenodd" stroke-opacity="0.341176470588235" stroke="#5b5b5b" stroke-width="9" stroke-linecap="square" stroke-linejoin="miter" stroke-miterlimit="2" d="M6 0L0 22.125" sodipodi:nodetypes="cc"/><path id="shape58" transform="translate(267.50686328831, 366.687485825918)" fill="#686869" fill-rule="evenodd" stroke-opacity="0.341176470588235" stroke="#5b5b5b" stroke-width="9" stroke-linecap="square" stroke-linejoin="miter" stroke-miterlimit="2" d="M0 0L1.875 13" sodipodi:nodetypes="cc"/><path id="shape59" transform="translate(283.788112115911, 400.499970908133)" fill="#686869" fill-rule="evenodd" stroke-opacity="0.341176470588235" stroke="#5b5b5b" stroke-width="9" stroke-linecap="square" stroke-linejoin="miter" stroke-miterlimit="2" d="M1.125 0L0 15" sodipodi:nodetypes="cc"/><path id="shape60" transform="translate(271.83498795934, 416.109344809289)" fill="#686869" fill-rule="evenodd" stroke-opacity="0.341176470588235" stroke="#5b5b5b" stroke-width="9" stroke-linecap="square" stroke-linejoin="miter" stroke-miterlimit="2" d="M0 0L2.34375 4.54688" sodipodi:nodetypes="cc"/><path id="shape61" transform="translate(284.913112036807, 427.874968983265)" fill="#686869" fill-rule="evenodd" stroke-opacity="0.341176470588235" stroke="#5b5b5b" stroke-width="9" stroke-linecap="square" stroke-linejoin="miter" stroke-miterlimit="2" d="M0 0L0.75 12" sodipodi:nodetypes="cc"/><path id="shape62" transform="translate(264.944363308527, 452.062467770218)" fill="#686869" fill-rule="evenodd" stroke-opacity="0.341176470588235" stroke="#5b5b5b" stroke-width="9" stroke-linecap="square" stroke-linejoin="miter" stroke-miterlimit="2" d="M0 0L1.125 9.375" sodipodi:nodetypes="cc"/><path id="shape63" transform="translate(283.038112168647, 455.624967032029)" fill="#686869" fill-rule="evenodd" stroke-opacity="0.341176470588235" stroke="#5b5b5b" stroke-width="9" stroke-linecap="square" stroke-linejoin="miter" stroke-miterlimit="2" d="M0 0L3 22.875" sodipodi:nodetypes="cc"/><path id="shape64" transform="translate(296.538111219397, 385.874971936487)" fill="#686869" fill-rule="evenodd" stroke-opacity="0.341176470588235" stroke="#5b5b5b" stroke-width="9" stroke-linecap="square" stroke-linejoin="miter" stroke-miterlimit="2" d="M3 0L0 16.125" sodipodi:nodetypes="cc"/><path id="shape65" transform="translate(299.913110982085, 415.124969879779)" fill="#686869" fill-rule="evenodd" stroke-opacity="0.341176470588235" stroke="#5b5b5b" stroke-width="9" stroke-linecap="square" stroke-linejoin="miter" stroke-miterlimit="2" d="M0 0L3 17.25" sodipodi:nodetypes="cc"/><path id="shape66" transform="translate(298.788111061189, 442.124967981279)" fill="#686869" fill-rule="evenodd" stroke-opacity="0.341176470588235" stroke="#5b5b5b" stroke-width="9" stroke-linecap="square" stroke-linejoin="miter" stroke-miterlimit="2" d="M0 0L1.125 13.875" sodipodi:nodetypes="cc"/><path id="shape67" transform="translate(304.038110692036, 467.624966188251)" fill="#686869" fill-rule="evenodd" stroke-opacity="0.341176470588235" stroke="#5b5b5b" stroke-width="9" stroke-linecap="square" stroke-linejoin="miter" stroke-miterlimit="2" d="M0 0L7.125 26.25" sodipodi:nodetypes="cc"/><path id="shape68" transform="translate(310.038110270147, 406.499970486244)" fill="#686869" fill-rule="evenodd" stroke-opacity="0.341176470588235" stroke="#5b5b5b" stroke-width="9" stroke-linecap="square" stroke-linejoin="miter" stroke-miterlimit="2" d="M0 0L0.75 12.75" sodipodi:nodetypes="cc"/><path id="shape69" transform="translate(316.41310982189, 428.999968904161)" fill="#686869" fill-rule="evenodd" stroke-opacity="0.341176470588235" stroke="#5b5b5b" stroke-width="9" stroke-linecap="square" stroke-linejoin="miter" stroke-miterlimit="2" d="M0 0L0 12.75" sodipodi:nodetypes="cc"/><path id="shape70" transform="translate(312.288110111939, 450.374967401181)" fill="#686869" fill-rule="evenodd" stroke-opacity="0.341176470588235" stroke="#5b5b5b" stroke-width="9" stroke-linecap="square" stroke-linejoin="miter" stroke-miterlimit="2" d="M0 0L3 6" sodipodi:nodetypes="cc"/><path id="shape71" transform="translate(320.163109558209, 467.999966161883)" fill="#686869" fill-rule="evenodd" stroke-opacity="0.341176470588235" stroke="#5b5b5b" stroke-width="9" stroke-linecap="square" stroke-linejoin="miter" stroke-miterlimit="2" d="M0 0L4.125 19.5" sodipodi:nodetypes="cc"/><path id="shape72" transform="translate(329.91310887264, 415.124969879779)" fill="#686869" fill-rule="evenodd" stroke-opacity="0.341176470588235" stroke="#5b5b5b" stroke-width="9" stroke-linecap="square" stroke-linejoin="miter" stroke-miterlimit="2" d="M3.375 0L0 15" sodipodi:nodetypes="cc"/><path id="shape73" transform="translate(354.288107158716, 418.499969642466)" fill="#686869" fill-rule="evenodd" stroke-opacity="0.341176470588235" stroke="#5b5b5b" stroke-width="9" stroke-linecap="square" stroke-linejoin="miter" stroke-miterlimit="2" d="M8.25 0L0 16.5" sodipodi:nodetypes="cc"/><path id="shape74" transform="translate(339.288108213439, 433.499968587744)" fill="#686869" fill-rule="evenodd" stroke-opacity="0.341176470588235" stroke="#5b5b5b" stroke-width="9" stroke-linecap="square" stroke-linejoin="miter" stroke-miterlimit="2" d="M2.25 0L0 15.375" sodipodi:nodetypes="cc"/><path id="shape75" transform="translate(327.288109057216, 443.624967875806)" fill="#686869" fill-rule="evenodd" stroke-opacity="0.341176470588235" stroke="#5b5b5b" stroke-width="9" stroke-linecap="square" stroke-linejoin="miter" stroke-miterlimit="2" d="M0 0L0 6.375" sodipodi:nodetypes="cc"/><path id="shape76" transform="translate(340.788108107966, 455.624967032028)" fill="#686869" fill-rule="evenodd" stroke-opacity="0.341176470588235" stroke="#5b5b5b" stroke-width="9" stroke-linecap="square" stroke-linejoin="miter" stroke-miterlimit="2" d="M7.5 0L0 10.875" sodipodi:nodetypes="cc"/><path id="shape77" transform="translate(331.038108793536, 461.62496661014)" fill="#686869" fill-rule="evenodd" stroke-opacity="0.341176470588235" stroke="#5b5b5b" stroke-width="9" stroke-linecap="square" stroke-linejoin="miter" stroke-miterlimit="2" d="M0 0L2.625 28.5" sodipodi:nodetypes="cc"/><path id="shape78" transform="translate(391.624972205524, 382.624973464595)" fill="#686869" fill-rule="evenodd" stroke-opacity="0.341176470588235" stroke="#5b5b5b" stroke-width="9" stroke-linecap="square" stroke-linejoin="miter" stroke-miterlimit="2" d="M0 7.5L1.5 0" sodipodi:nodetypes="cc"/><path id="shape791" transform="translate(376.100605636374, 353.624974213745)" fill="#686869" fill-rule="evenodd" stroke-opacity="0.341176470588235" stroke="#5b5b5b" stroke-width="9" stroke-linecap="square" stroke-linejoin="miter" stroke-miterlimit="2" d="M1.8125 0L0 4.5" sodipodi:nodetypes="cc"/><path id="shape80" transform="translate(332.538108688064, 337.124975364335)" fill="#686869" fill-rule="evenodd" stroke-opacity="0.341176470588235" stroke="#5b5b5b" stroke-width="9" stroke-linecap="square" stroke-linejoin="miter" stroke-miterlimit="2" d="M0 5.625L0 0" sodipodi:nodetypes="cc"/><path id="shape81" transform="translate(292.413111509446, 336.374975417071)" fill="#686869" fill-rule="evenodd" stroke-opacity="0.341176470588235" stroke="#5b5b5b" stroke-width="9" stroke-linecap="square" stroke-linejoin="miter" stroke-miterlimit="2" d="M0 7.5L5.25 0" sodipodi:nodetypes="cc"/><path id="shape82" transform="translate(404.24996974301, 385.749973306019)" fill="#686869" fill-rule="evenodd" stroke-opacity="0.341176470588235" stroke="#5b5b5b" stroke-width="9" stroke-linecap="square" stroke-linejoin="miter" stroke-miterlimit="2" d="M2.25 0L0 17.25" sodipodi:nodetypes="cc"/><path id="shape83" transform="translate(414.749969004704, 383.499973464227)" fill="#686869" fill-rule="evenodd" stroke-opacity="0.341176470588235" stroke="#5b5b5b" stroke-width="9" stroke-linecap="square" stroke-linejoin="miter" stroke-miterlimit="2" d="M3 0L0 15" sodipodi:nodetypes="cc"/><path id="shape84" transform="translate(424.499968319134, 392.874972805025)" fill="#686869" fill-rule="evenodd" stroke-opacity="0.341176470588235" stroke="#5b5b5b" stroke-width="9" stroke-linecap="square" stroke-linejoin="miter" stroke-miterlimit="2" d="M0.375 0L0 22.125" sodipodi:nodetypes="cc"/><path id="shape85" transform="translate(410.999969268384, 411.249971512991)" fill="#686869" fill-rule="evenodd" stroke-opacity="0.341176470588235" stroke="#5b5b5b" stroke-width="9" stroke-linecap="square" stroke-linejoin="miter" stroke-miterlimit="2" d="M1.125 0L0 13.125" sodipodi:nodetypes="cc"/><path id="shape86" transform="translate(397.874970191267, 416.87497111747)" fill="#686869" fill-rule="evenodd" stroke-opacity="0.341176470588235" stroke="#5b5b5b" stroke-width="9" stroke-linecap="square" stroke-linejoin="miter" stroke-miterlimit="2" d="M3.75 0L0 19.5" sodipodi:nodetypes="cc"/><path id="shape87" transform="translate(395.624970349475, 449.499968823449)" fill="#686869" fill-rule="evenodd" stroke-opacity="0.341176470588235" stroke="#5b5b5b" stroke-width="9" stroke-linecap="square" stroke-linejoin="miter" stroke-miterlimit="2" d="M0.75 0L0 19.5" sodipodi:nodetypes="cc"/><path id="shape88" transform="translate(389.624970771364, 482.874966476691)" fill="#686869" fill-rule="evenodd" stroke-opacity="0.341176470588235" stroke="#5b5b5b" stroke-width="9" stroke-linecap="square" stroke-linejoin="miter" stroke-miterlimit="2" d="M2.625 0L0 15.75" sodipodi:nodetypes="cc"/><path id="shape89" transform="translate(384.749971114149, 513.62496431451)" fill="#686869" fill-rule="evenodd" stroke-opacity="0.341176470588235" stroke="#5b5b5b" stroke-width="9" stroke-linecap="square" stroke-linejoin="miter" stroke-miterlimit="2" d="M1.125 0L0 11.625" sodipodi:nodetypes="cc"/><path id="shape90" transform="translate(401.624969927586, 497.499965448337)" fill="#686869" fill-rule="evenodd" stroke-opacity="0.341176470588235" stroke="#5b5b5b" stroke-width="9" stroke-linecap="square" stroke-linejoin="miter" stroke-miterlimit="2" d="M1.875 0L0 12" sodipodi:nodetypes="cc"/><path id="shape91" transform="translate(406.499969584801, 465.624967689622)" fill="#686869" fill-rule="evenodd" stroke-opacity="0.341176470588235" stroke="#5b5b5b" stroke-width="9" stroke-linecap="square" stroke-linejoin="miter" stroke-miterlimit="2" d="M0.75 0L0 16.125" sodipodi:nodetypes="cc"/><path id="shape92" transform="translate(408.749969426593, 435.999969772699)" fill="#686869" fill-rule="evenodd" stroke-opacity="0.341176470588235" stroke="#5b5b5b" stroke-width="9" stroke-linecap="square" stroke-linejoin="miter" stroke-miterlimit="2" d="M3 0L0 16.125" sodipodi:nodetypes="cc"/><path id="shape93" transform="translate(424.499968319134, 425.874970484636)" fill="#686869" fill-rule="evenodd" stroke-opacity="0.341176470588235" stroke="#5b5b5b" stroke-width="9" stroke-linecap="square" stroke-linejoin="miter" stroke-miterlimit="2" d="M3 0L0 14.25" sodipodi:nodetypes="cc"/><path id="shape94" transform="translate(422.999968424607, 456.999968296088)" fill="#686869" fill-rule="evenodd" stroke-opacity="0.341176470588235" stroke="#5b5b5b" stroke-width="9" stroke-linecap="square" stroke-linejoin="miter" stroke-miterlimit="2" d="M1.5 0L0 14.25" sodipodi:nodetypes="cc"/><path id="shape95" transform="translate(422.249968477343, 484.749966344851)" fill="#686869" fill-rule="evenodd" stroke-opacity="0.341176470588235" stroke="#5b5b5b" stroke-width="9" stroke-linecap="square" stroke-linejoin="miter" stroke-miterlimit="2" d="M1.125 0L0 15" sodipodi:nodetypes="cc"/><path id="shape96" transform="translate(435.749967528092, 501.624965158288)" fill="#686869" fill-rule="evenodd" stroke-opacity="0.341176470588235" stroke="#5b5b5b" stroke-width="9" stroke-linecap="square" stroke-linejoin="miter" stroke-miterlimit="2" d="M1.125 0L0 16.25" sodipodi:nodetypes="cc"/><path id="shape97" transform="translate(416.249968899232, 510.999964499087)" fill="#686869" fill-rule="evenodd" stroke-opacity="0.341176470588235" stroke="#5b5b5b" stroke-width="9" stroke-linecap="square" stroke-linejoin="miter" stroke-miterlimit="2" d="M2.25 0L0 11.25" sodipodi:nodetypes="cc"/><path id="shape98" transform="translate(434.249967633565, 473.124967162261)" fill="#686869" fill-rule="evenodd" stroke-opacity="0.341176470588235" stroke="#5b5b5b" stroke-width="9" stroke-linecap="square" stroke-linejoin="miter" stroke-miterlimit="2" d="M0 0L0.75 13.125" sodipodi:nodetypes="cc"/><path id="shape02" transform="matrix(-0.993698083855498 0 0 1 498.322657330667 357.529054366593)" fill="#4d2f1b" fill-rule="evenodd" stroke="#442f16" stroke-width="6" stroke-linecap="square" stroke-linejoin="miter" stroke-miterlimit="2" d="M14.9815 18.4709L0 167.471L88.8134 165.471L82.7618 0Z" sodipodi:nodetypes="ccccc"/><path id="shape100" transform="translate(41.5000014643474, 360.999996181665)" fill="#4d2f1b" fill-rule="evenodd" stroke="#442f16" stroke-width="6" stroke-linecap="square" stroke-linejoin="miter" stroke-miterlimit="2" d="M24.3125 7.75L0 159.75L69.5 161.5L69.5 0Z" sodipodi:nodetypes="ccccc"/><path id="shape141" transform="matrix(-0.986397150027506 0 0 1 266.266231676083 332.583354113566)" fill="none" stroke-opacity="0.431372549019608" stroke="#57575c" stroke-width="9" stroke-linecap="square" stroke-linejoin="miter" stroke-miterlimit="2" d="M0.562294 0L0 17.2588" sodipodi:nodetypes="cc"/><path id="shape142" transform="matrix(-0.986397150027506 0 0 1 261.766232156646 474.989601148246)" fill="none" stroke-opacity="0.431372549019608" stroke="#57575c" stroke-width="9" stroke-linecap="square" stroke-linejoin="miter" stroke-miterlimit="2" d="M0.562294 0L0 17.2588" sodipodi:nodetypes="cc"/><path id="shape351" transform="matrix(-0.986397150027506 0 0 1 124.029797963919 360.344973976218)" fill="none" stroke-opacity="0.431372549019608" stroke="#57575c" stroke-width="9" stroke-linecap="square" stroke-linejoin="miter" stroke-miterlimit="2" d="M2.23449 0L0 9.25" sodipodi:nodetypes="cc"/><path id="shape110" transform="matrix(-0.993695518310082 0.00227236109400829 0.00225804086494382 0.999997418184196 398.43062091506 357.330604674253)" fill="#4d2f1b" fill-rule="evenodd" stroke="#261808" stroke-width="6" stroke-linecap="square" stroke-linejoin="miter" stroke-miterlimit="2" d="M102.238 5.57044L0 5.86463C5.87936 115.296 13.4967 171.095 22.852 173.262L247.938 172.647C250.211 121.103 276.061 43.1367 261.509 0L176.566 7.80476C95.9137 34.4334 192.125 116.254 137.037 115.438C81.9488 114.622 166.096 46.7128 102.238 5.57044Z" sodipodi:nodetypes="cccccczc"/>
</svg>
