<?xml version="1.0" standalone="no"?>
<!DOCTYPE svg PUBLIC "-//W3C//DTD SVG 20010904//EN" "http://www.w3.org/TR/2001/REC-SVG-20010904/DTD/svg10.dtd">
<!-- Created using Krita: https://krita.org -->
<svg xmlns="http://www.w3.org/2000/svg" 
    xmlns:xlink="http://www.w3.org/1999/xlink"
    xmlns:krita="http://krita.org/namespaces/svg/krita"
    xmlns:sodipodi="http://sodipodi.sourceforge.net/DTD/sodipodi-0.dtd"
    width="512pt"
    height="512pt"
    viewBox="0 0 512 512">
    <style>
        .uniform-color {
            color: #363e6a;
        }
    </style>
<defs/>
<path id="shape0" transform="translate(41.6249971054757, 324.499977494484)" fill="currentColor" class="uniform-color" fill-rule="evenodd" d="M150.625 8.125L24.75 47.875L0 187.5L457.125 187.5L441.75 53.875L264.875 0L262.178 26.5025C239.039 40.566 189.574 43.2057 151.847 26.1032Z" sodipodi:nodetypes="ccccccccc"/><path id="shape1" transform="translate(170.249988474059, 330.624977083465)" fill="#99906e" fill-rule="evenodd" d="M22.25 0L0 48.625L63.625 219.5C38.4652 135.247 33.7522 72.971 22.25 0Z" sodipodi:nodetypes="cccc"/><path id="shape2" transform="translate(270.999982056689, 324.624977500693)" fill="#99906e" fill-rule="evenodd" d="M35 0L60.875 38.875L0 223C20.6777 157.733 24.0148 68.9014 35 0Z" sodipodi:nodetypes="cccc"/><path id="shape3" transform="translate(406.124995965768, 454.687494159033)" fill="#000000" fill-rule="evenodd" d="M0 57.3125L12.1875 0L16.125 57.3125Z" sodipodi:nodetypes="cccc"/><path id="shape01" transform="translate(95.9250083558857, 454.418744397448)" fill="#000000" fill-rule="evenodd" stroke-opacity="0" stroke="#000000" stroke-width="0" stroke-linecap="square" stroke-linejoin="bevel" d="M0 57.85L4.3125 0L6.5625 57.5813Z" sodipodi:nodetypes="cccc"/>
</svg>
