<?xml version="1.0" standalone="no"?>
<!DOCTYPE svg PUBLIC "-//W3C//DTD SVG 20010904//EN" "http://www.w3.org/TR/2001/REC-SVG-20010904/DTD/svg10.dtd">
<!-- Created using Krita: https://krita.org -->
<svg xmlns="http://www.w3.org/2000/svg" 
    xmlns:xlink="http://www.w3.org/1999/xlink"
    xmlns:krita="http://krita.org/namespaces/svg/krita"
    xmlns:sodipodi="http://sodipodi.sourceforge.net/DTD/sodipodi-0.dtd"
    width="512pt"
    height="512pt"
    viewBox="0 0 512 512">
    <style>
        .uniform-color {
            color: #CE3C34;
        }
        .uniform-undershirt-color {
            color: #5E5E5E;
        }
    </style>
<defs/>
<path id="shape1" transform="translate(41.4999971141651, 303.999980013697)" fill="currentColor" class="uniform-undershirt-color" fill-rule="evenodd" stroke-opacity="0" stroke="#000000" stroke-width="0" stroke-linecap="square" stroke-linejoin="bevel" d="M160.5 4C196.146 16.9444 228.966 20.8802 254 0C259.505 1.44973 259.416 14.4958 254 15.5L444.5 76.5L458.5 208L0 208L26.5 65L161.5 26C154.789 25.2369 155.656 4.62608 160.5 4Z" sodipodi:nodetypes="ccccccccc"/><path id="shape01" transform="translate(41.3125047719898, 325.053128662953)" fill="currentColor" class="uniform-color" fill-rule="evenodd" stroke-opacity="0" stroke="#000000" stroke-width="0" stroke-linecap="square" stroke-linejoin="bevel" d="M140.062 10.8125L214.687 179.197L271.312 0L447 54.5937L460.125 186.947L0 186.947L24.75 40.9687Z" sodipodi:nodetypes="cccccccc"/><path id="shape0" transform="translate(61.8749960556944, 423.749971221018)" fill="none" stroke="#686868" stroke-width="10.0000003007078" stroke-linecap="square" stroke-linejoin="miter" stroke-miterlimit="2" d="M0 0L45.375 14.25" sodipodi:nodetypes="cc"/><path id="shape2" transform="translate(54.7499962527744, 461.249968922646)" fill="none" stroke="#686868" stroke-width="10.0000003007078" stroke-linecap="square" stroke-linejoin="miter" stroke-miterlimit="2" d="M0 0L54.375 10.5" sodipodi:nodetypes="cc"/><path id="shape3" transform="translate(49.4999967462079, 492.374966367691)" fill="none" stroke="#686868" stroke-width="10.0000003007078" stroke-linecap="square" stroke-linejoin="miter" stroke-miterlimit="2" d="M0 0L59.625 9" sodipodi:nodetypes="cc"/><path id="shape4" transform="translate(146.624990210491, 349.87497594193)" fill="none" stroke="#686868" stroke-width="10.0000003007078" stroke-linecap="square" stroke-linejoin="miter" stroke-miterlimit="2" d="M0 0L36.75 162.125" sodipodi:nodetypes="cc"/><path id="shape5" transform="translate(173.999988091009, 341.999976592673)" fill="none" stroke="#686868" stroke-width="10.0000003007078" stroke-linecap="square" stroke-linejoin="miter" stroke-miterlimit="2" d="M0 0L46.5 177.75" sodipodi:nodetypes="cc"/><path id="shape6" transform="translate(281.999980699222, 336.499977088316)" fill="none" stroke="#686868" stroke-width="10.0000003007078" stroke-linecap="square" stroke-linejoin="miter" stroke-miterlimit="2" d="M53 0L0 175.5" sodipodi:nodetypes="cc"/><path id="shape7" transform="translate(328.499977516646, 349.999976253749)" fill="none" stroke="#686868" stroke-width="10.0000003007078" stroke-linecap="square" stroke-linejoin="miter" stroke-miterlimit="2" d="M46.5 0L0 162" sodipodi:nodetypes="cc"/><path id="shape8" transform="translate(378.749974077412, 363.249975242579)" fill="none" stroke="#686868" stroke-width="10.0000003007078" stroke-linecap="square" stroke-linejoin="miter" stroke-miterlimit="2" d="M41.5 0L0 148.75" sodipodi:nodetypes="cc"/><path id="shape9" transform="translate(433.249970287692, 407.999972120173)" fill="none" stroke="#686868" stroke-width="10.0000003007078" stroke-linecap="square" stroke-linejoin="miter" stroke-miterlimit="2" d="M53.75 0L0 10.5" sodipodi:nodetypes="cc"/><path id="shape10" transform="translate(435.249969957092, 446.749969453126)" fill="none" stroke="#686868" stroke-width="10.0000003007078" stroke-linecap="square" stroke-linejoin="miter" stroke-miterlimit="2" d="M55.25 0L0 11.75" sodipodi:nodetypes="cc"/><path id="shape11" transform="translate(436.749969943835, 488.499966580751)" fill="none" stroke="#686868" stroke-width="10.0000003007078" stroke-linecap="square" stroke-linejoin="miter" stroke-miterlimit="2" d="M58.25 0L0 9.25" sodipodi:nodetypes="cc"/><path id="shape12" transform="translate(111.749992351553, 428.999970638178)" fill="#000000" fill-rule="evenodd" d="M0 83L0 0L4.75001 83Z" sodipodi:nodetypes="cccc"/><path id="shape13" transform="translate(428.249996215199, 413.749996343348)" fill="#000000" fill-rule="evenodd" d="M0 0L9.25 98.25L2 98.25Z" sodipodi:nodetypes="cccc"/><path id="shape02" transform="translate(117.574990670907, 356.987476193552)" fill="none" stroke="#686868" stroke-width="10.0000003007078" stroke-linecap="square" stroke-linejoin="miter" stroke-miterlimit="2" d="M0 0L28.875 155.013" sodipodi:nodetypes="cc"/>
</svg>
