<?xml version="1.0" standalone="no"?>
<!DOCTYPE svg PUBLIC "-//W3C//DTD SVG 20010904//EN" "http://www.w3.org/TR/2001/REC-SVG-20010904/DTD/svg10.dtd">
<!-- Created using Krita: https://krita.org -->
<svg xmlns="http://www.w3.org/2000/svg" 
    xmlns:xlink="http://www.w3.org/1999/xlink"
    xmlns:krita="http://krita.org/namespaces/svg/krita"
    xmlns:sodipodi="http://sodipodi.sourceforge.net/DTD/sodipodi-0.dtd"
    width="512pt"
    height="512pt"
    viewBox="0 0 512 512">
<defs/>
<path id="shape1" transform="translate(41.0624966817327, 305.62497935445)" fill="#ffffff" fill-rule="evenodd" stroke-opacity="0" stroke="#000000" stroke-width="0" stroke-linecap="square" stroke-linejoin="bevel" d="M0 206.375L459.375 206.375L444.187 67.125L257.062 13.5L258.562 0L227.812 6.375L224.948 28.5831L186.953 28.4289L183.937 6.375L156.562 3.75L154.312 23.25L24.9375 61.5Z" sodipodi:nodetypes="ccccccccccccc"/><path id="shape11" transform="translate(196.592684844401, 306.327653282616)" fill="#000000" fill-rule="evenodd" stroke-opacity="0" stroke="#000000" stroke-width="0" stroke-linecap="square" stroke-linejoin="bevel" d="M28.7897 27.5457L28.8749 7.92082L0 5.23766L0.0570638 2.85924L29.1522 4.95134L33.105 5.18125L31.591 27.5849L69.4711 28.4957L72.6433 5.87994L75.9643 5.03024L103.238 0L103.031 3.7185L75.8371 8.08397L72.8335 28.6442L118.408 29.6723L116.408 205.672L112.845 205.672L115.627 34.2661L28.5084 32.1082Z" sodipodi:nodetypes="cccccccccccccccccccc"/><ellipse id="shape0" transform="translate(282.49999996787, 356.999999994412)" rx="8.83999945953716" ry="8.49999948032419" cx="8.83999945953716" cy="8.49999948032419" fill="#464646" fill-rule="evenodd" stroke="#a7a7a7" stroke-width="1" stroke-linecap="square" stroke-linejoin="bevel"/><ellipse id="shape01" transform="translate(210.347126947748, 356.71112678144)" rx="8.83999945953716" ry="8.49999948032419" cx="8.83999945953716" cy="8.49999948032419" fill="#464646" fill-rule="evenodd" stroke="#a7a7a7" stroke-width="1" stroke-linecap="square" stroke-linejoin="bevel"/><ellipse id="shape02" transform="translate(283.236437050524, 398.384450593274)" rx="8.83999945953716" ry="8.49999948032419" cx="8.83999945953716" cy="8.49999948032419" fill="#464646" fill-rule="evenodd" stroke="#a7a7a7" stroke-width="1" stroke-linecap="square" stroke-linejoin="bevel"/><ellipse id="shape011" transform="translate(211.083564030402, 398.095577380302)" rx="8.83999945953716" ry="8.49999948032419" cx="8.83999945953716" cy="8.49999948032419" fill="#464646" fill-rule="evenodd" stroke="#a7a7a7" stroke-width="1" stroke-linecap="square" stroke-linejoin="bevel"/><ellipse id="shape03" transform="translate(283.236437050524, 437.38445048431)" rx="8.83999945953716" ry="8.49999948032419" cx="8.83999945953716" cy="8.49999948032419" fill="#464646" fill-rule="evenodd" stroke="#a7a7a7" stroke-width="1" stroke-linecap="square" stroke-linejoin="bevel"/><ellipse id="shape012" transform="translate(211.083564030402, 437.095577271338)" rx="8.83999945953716" ry="8.49999948032419" cx="8.83999945953716" cy="8.49999948032419" fill="#464646" fill-rule="evenodd" stroke="#a7a7a7" stroke-width="1" stroke-linecap="square" stroke-linejoin="bevel"/><ellipse id="shape04" transform="translate(283.236437050524, 476.384450375345)" rx="8.83999945953716" ry="8.49999948032419" cx="8.83999945953716" cy="8.49999948032419" fill="#464646" fill-rule="evenodd" stroke="#a7a7a7" stroke-width="1" stroke-linecap="square" stroke-linejoin="bevel"/><ellipse id="shape013" transform="translate(211.083564030402, 476.095577162373)" rx="8.83999945953716" ry="8.49999948032419" cx="8.83999945953716" cy="8.49999948032419" fill="#464646" fill-rule="evenodd" stroke="#a7a7a7" stroke-width="1" stroke-linecap="square" stroke-linejoin="bevel"/>
</svg>
