<?xml version="1.0" standalone="no"?>
<!DOCTYPE svg PUBLIC "-//W3C//DTD SVG 20010904//EN" "http://www.w3.org/TR/2001/REC-SVG-20010904/DTD/svg10.dtd">
<!-- Created using Krita: https://krita.org -->
<svg xmlns="http://www.w3.org/2000/svg" 
    xmlns:xlink="http://www.w3.org/1999/xlink"
    xmlns:krita="http://krita.org/namespaces/svg/krita"
    xmlns:sodipodi="http://sodipodi.sourceforge.net/DTD/sodipodi-0.dtd"
    width="512pt"
    height="512pt"
    viewBox="0 0 512 512">
    <style>
        .uniform-color {
            color: #CE3C34;
        }
        .uniform-undershirt-color {
            color: #5E5E5E;
        }
    </style>
<defs/>
<path id="shape0" transform="translate(40.9811977280418, 318.248753040741)" fill="#ffffff" fill-rule="evenodd" stroke-opacity="0" stroke="#000000" stroke-width="0" stroke-linecap="square" stroke-linejoin="bevel" d="M252.408 0C218.854 11.4087 190.805 5.77526 162.33 1.46258L156.612 11.756L27.3725 53.3107L0 194.793L457.312 193.606L442.125 60.543L253.5 3.16803Z" sodipodi:nodetypes="ccccccccc"/><path id="shape01" transform="translate(41.2499975132963, 321.56248294386)" fill="currentColor" class="uniform-undershirt-color"  fill-rule="evenodd" stroke-opacity="0" stroke="#000000" stroke-width="0" stroke-linecap="square" stroke-linejoin="bevel" d="M156.612 8.58797L27.3725 50.1427L0 191.625L457.312 190.438L442.125 57.375L253.5 0C248.49 73.3557 182.898 65.4503 162.299 26.4395C162.282 26.4059 161.311 24.4715 159.387 20.6363L158.459 190.438L156.13 190.438L156.919 26.8378C157.655 20.6652 158.138 17.4815 158.368 17.2868C157.452 15.4516 157.249 13.4395 156.612 8.58797Z" sodipodi:nodetypes="ccccccccccccc"/><circle id="shape1" transform="translate(271.99999890725, 384.000000230686)" r="11.5" cx="11.5" cy="11.5" fill="#6a6a6a" fill-rule="evenodd"/><circle id="shape02" transform="translate(271.99999890725, 424.299998756715)" r="11.5" cx="11.5" cy="11.5" fill="#6a6a6a" fill-rule="evenodd" stroke-opacity="0" stroke="#000000" stroke-width="0" stroke-linecap="square" stroke-linejoin="bevel"/><circle id="shape03" transform="translate(271.99999890725, 461.454997612277)" r="11.5" cx="11.5" cy="11.5" fill="#6a6a6a" fill-rule="evenodd" stroke-opacity="0" stroke="#000000" stroke-width="0" stroke-linecap="square" stroke-linejoin="bevel"/><path id="shape011" transform="translate(271.99954807246, 494.442495066929)" sodipodi:type="arc" sodipodi:rx="11.5" sodipodi:ry="11.5" sodipodi:cx="11.5004996111974" sodipodi:cy="11.5000017275518" sodipodi:start="2.57659653202684" sodipodi:end="0.581784442612801" sodipodi:open="true" d="M21.1086 17.8194C24.2548 13.0359 23.403 6.66664 19.1104 2.87796C14.8178 -0.910718 8.39202 -0.964658 4.03643 2.75142C-0.319162 6.46751 -1.27775 12.8216 1.78771 17.6572" fill="#6a6a6a" fill-rule="evenodd" stroke-opacity="0" stroke="#000000" stroke-width="0" stroke-linecap="square" stroke-linejoin="bevel"/><path id="shape2" transform="translate(317.999996840962, 327.749996744105)" fill="currentColor" class="uniform-color"  fill-rule="evenodd" d="M0 0L168 50.25L182.25 184.25L7.5 184.25Z" sodipodi:nodetypes="ccccc"/><path id="shape3" transform="translate(39.7499996051203, 334.49999667705)" fill="currentColor" class="uniform-color"  fill-rule="evenodd" d="M140.25 0L27 37.5L0 177.5L136.25 177.5Z" sodipodi:nodetypes="ccccc"/><path id="shape4" transform="translate(333.999986728043, 493.99998037022)" fill="none" stroke="#5e5e5e" stroke-width="3" stroke-linecap="square" stroke-linejoin="miter" stroke-miterlimit="2" d="M0 3L30.5 0" sodipodi:nodetypes="cc"/><path id="shape04" transform="translate(332.869986946593, 452.119982098753)" fill="none" stroke="#5e5e5e" stroke-width="3" stroke-linecap="square" stroke-linejoin="miter" stroke-miterlimit="2" d="M0 3L30.5 0" sodipodi:nodetypes="cc"/><path id="shape05" transform="translate(331.369987006198, 417.119983489527)" fill="none" stroke="#5e5e5e" stroke-width="3" stroke-linecap="square" stroke-linejoin="miter" stroke-miterlimit="2" d="M0 3L30.5 0" sodipodi:nodetypes="cc"/><path id="shape06" transform="translate(329.369987085671, 385.119984761092)" fill="none" stroke="#5e5e5e" stroke-width="3" stroke-linecap="square" stroke-linejoin="miter" stroke-miterlimit="2" d="M0 3L30.5 0" sodipodi:nodetypes="cc"/><circle id="shape07" transform="translate(211.300091577599, 384.326193419309)" r="11.5" cx="11.5" cy="11.5" fill="#6a6a6a" fill-rule="evenodd" stroke-opacity="0" stroke="#000000" stroke-width="0" stroke-linecap="square" stroke-linejoin="bevel"/><circle id="shape012" transform="translate(211.300091577599, 424.626191945338)" r="11.5" cx="11.5" cy="11.5" fill="#6a6a6a" fill-rule="evenodd" stroke-opacity="0" stroke="#000000" stroke-width="0" stroke-linecap="square" stroke-linejoin="bevel"/><circle id="shape021" transform="translate(211.300091577599, 461.7811908009)" r="11.5" cx="11.5" cy="11.5" fill="#6a6a6a" fill-rule="evenodd" stroke-opacity="0" stroke="#000000" stroke-width="0" stroke-linecap="square" stroke-linejoin="bevel"/><path id="shape0111" transform="translate(211.299640742809, 494.768688255552)" sodipodi:type="arc" sodipodi:rx="11.5" sodipodi:ry="11.5" sodipodi:cx="11.5004996111974" sodipodi:cy="11.5000017275518" sodipodi:start="2.57659653202684" sodipodi:end="0.581784442612801" sodipodi:open="true" d="M21.1086 17.8194C24.2548 13.0359 23.403 6.66664 19.1104 2.87796C14.8178 -0.910718 8.39202 -0.964658 4.03643 2.75142C-0.319162 6.46751 -1.27775 12.8216 1.78771 17.6572" fill="#6a6a6a" fill-rule="evenodd" stroke-opacity="0" stroke="#000000" stroke-width="0" stroke-linecap="square" stroke-linejoin="bevel"/><circle id="shape08" transform="translate(352.92498675288, 373.175000126378)" r="11.5" cx="11.5" cy="11.5" fill="#9e8940" fill-rule="evenodd" stroke-opacity="0" stroke="#000000" stroke-width="0" stroke-linecap="square" stroke-linejoin="bevel"/><circle id="shape09" transform="translate(358.974986380352, 405.099999195056)" r="11.5" cx="11.5" cy="11.5" fill="#9e8940" fill-rule="evenodd" stroke-opacity="0" stroke="#000000" stroke-width="0" stroke-linecap="square" stroke-linejoin="bevel"/><circle id="shape010" transform="translate(358.744986380351, 442.417497721333)" r="11.5" cx="11.5" cy="11.5" fill="#9e8940" fill-rule="evenodd" stroke-opacity="0" stroke="#000000" stroke-width="0" stroke-linecap="square" stroke-linejoin="bevel"/><circle id="shape013" transform="translate(358.794986469759, 481.842496246119)" r="11.5" cx="11.5" cy="11.5" fill="#9e8940" fill-rule="evenodd" stroke-opacity="0" stroke="#000000" stroke-width="0" stroke-linecap="square" stroke-linejoin="bevel"/><path id="shape014" transform="matrix(-1.02298209989577 0 0 1 166.263581352216 490.666731129582)" fill="none" stroke="#5e5e5e" stroke-width="3" stroke-linecap="square" stroke-linejoin="miter" stroke-miterlimit="2" d="M0 3L30.5 0" sodipodi:nodetypes="cc"/><path id="shape015" transform="matrix(-1.02298209989577 0 0 1 167.419550901525 448.786732858115)" fill="none" stroke="#5e5e5e" stroke-width="3" stroke-linecap="square" stroke-linejoin="miter" stroke-miterlimit="2" d="M0 3L30.5 0" sodipodi:nodetypes="cc"/><path id="shape022" transform="matrix(-1.02298209989577 0 0 1 168.954023990394 413.786734248889)" fill="none" stroke="#5e5e5e" stroke-width="3" stroke-linecap="square" stroke-linejoin="miter" stroke-miterlimit="2" d="M0 3L30.5 0" sodipodi:nodetypes="cc"/><path id="shape031" transform="matrix(-1.02298209989577 0 0 1 170.999988108886 381.786735520454)" fill="none" stroke="#5e5e5e" stroke-width="3" stroke-linecap="square" stroke-linejoin="miter" stroke-miterlimit="2" d="M0 3L30.5 0" sodipodi:nodetypes="cc"/><circle id="shape041" transform="matrix(-1.02298209989577 0 0 1 146.903645086281 369.84175088574)" r="11.5" cx="11.5" cy="11.5" fill="#9e8940" fill-rule="evenodd" stroke-opacity="0" stroke="#000000" stroke-width="0" stroke-linecap="square" stroke-linejoin="bevel"/><circle id="shape051" transform="matrix(-1.02298209989577 0 0 1 140.714603763001 401.766749954418)" r="11.5" cx="11.5" cy="11.5" fill="#9e8940" fill-rule="evenodd" stroke-opacity="0" stroke="#000000" stroke-width="0" stroke-linecap="square" stroke-linejoin="bevel"/><circle id="shape061" transform="matrix(-1.02298209989577 0 0 1 140.949889645978 439.084248480695)" r="11.5" cx="11.5" cy="11.5" fill="#9e8940" fill-rule="evenodd" stroke-opacity="0" stroke="#000000" stroke-width="0" stroke-linecap="square" stroke-linejoin="bevel"/><circle id="shape0112" transform="matrix(-1.02298209989577 0 0 1 140.89874044952 478.509247005481)" r="11.5" cx="11.5" cy="11.5" fill="#9e8940" fill-rule="evenodd" stroke-opacity="0" stroke="#000000" stroke-width="0" stroke-linecap="square" stroke-linejoin="bevel"/>
</svg>
