<?xml version="1.0" standalone="no"?>
<!DOCTYPE svg PUBLIC "-//W3C//DTD SVG 20010904//EN" "http://www.w3.org/TR/2001/REC-SVG-20010904/DTD/svg10.dtd">
<!-- Created using Krita: https://krita.org -->
<svg xmlns="http://www.w3.org/2000/svg" 
    xmlns:xlink="http://www.w3.org/1999/xlink"
    xmlns:krita="http://krita.org/namespaces/svg/krita"
    xmlns:sodipodi="http://sodipodi.sourceforge.net/DTD/sodipodi-0.dtd"
    width="512pt"
    height="512pt"
    viewBox="0 0 512 512">
    <style>
        .uniform-color {
            color: #CE3C34;
        }
        .uniform-undershirt-color {
            color: #5E5E5E;
        }
    </style>
<defs/>
<path id="shape0" transform="translate(40.9811977280418, 318.248753040741)" fill="#ffffff" fill-rule="evenodd" stroke-opacity="0" stroke="#000000" stroke-width="0" stroke-linecap="square" stroke-linejoin="bevel" d="M252.408 0C218.854 11.4087 190.805 5.77526 162.33 1.46258L156.612 11.756L27.3725 53.3107L0 194.793L457.312 193.606L442.125 60.543L253.5 3.16803Z" sodipodi:nodetypes="ccccccccc"/><path id="shape01" transform="translate(41.2499975132963, 321.56248294386)" fill="currentColor" class="uniform-undershirt-color"  fill-rule="evenodd" stroke-opacity="0" stroke="#000000" stroke-width="0" stroke-linecap="square" stroke-linejoin="bevel" d="M156.612 8.58797L27.3725 50.1427L0 191.625L457.312 190.438L442.125 57.375L253.5 0C247.797 45.1747 215.104 63.0162 189.756 54.3644C188.769 54.0274 189.099 99.3851 190.746 190.438L189.803 190.438C188.692 99.0862 187.798 53.2102 187.122 52.8096C174.763 45.4798 163.582 30.8775 156.612 8.58797Z" sodipodi:nodetypes="ccccccccccc"/><circle id="shape1" transform="translate(244.5, 384.000000230686)" r="11.5" cx="11.5" cy="11.5" fill="#6a6a6a" fill-rule="evenodd"/><circle id="shape02" transform="translate(244.5, 424.299998756715)" r="11.5" cx="11.5" cy="11.5" fill="#6a6a6a" fill-rule="evenodd" stroke-opacity="0" stroke="#000000" stroke-width="0" stroke-linecap="square" stroke-linejoin="bevel"/><circle id="shape03" transform="translate(244.5, 461.454997612277)" r="11.5" cx="11.5" cy="11.5" fill="#6a6a6a" fill-rule="evenodd" stroke-opacity="0" stroke="#000000" stroke-width="0" stroke-linecap="square" stroke-linejoin="bevel"/><path id="shape011" transform="translate(244.499549165209, 494.442495066929)" sodipodi:type="arc" sodipodi:rx="11.5" sodipodi:ry="11.5" sodipodi:cx="11.5004996111974" sodipodi:cy="11.5000017275518" sodipodi:start="2.57659653202684" sodipodi:end="0.581784442612801" sodipodi:open="true" d="M21.1086 17.8194C24.2548 13.0359 23.403 6.66664 19.1104 2.87796C14.8178 -0.910718 8.39202 -0.964658 4.03643 2.75142C-0.319162 6.46751 -1.27775 12.8216 1.78771 17.6572" fill="#6a6a6a" fill-rule="evenodd" stroke-opacity="0" stroke="#000000" stroke-width="0" stroke-linecap="square" stroke-linejoin="bevel"/><path id="shape2" transform="translate(317.999996840962, 327.749996744105)" fill="currentColor" class="uniform-color"  fill-rule="evenodd" d="M0 0L168 50.25L182.25 184.25L7.5 184.25Z" sodipodi:nodetypes="ccccc"/><path id="shape3" transform="translate(39.7499996051203, 334.49999667705)" fill="currentColor" class="uniform-color"  fill-rule="evenodd" d="M140.25 0L27 37.5L0 177.5L136.25 177.5Z" sodipodi:nodetypes="ccccc"/><circle id="shape04" transform="translate(148.175000990924, 364.175000752226)" r="11.5" cx="11.5" cy="11.5" fill="#9e8940" fill-rule="evenodd" stroke-opacity="0" stroke="#000000" stroke-width="0" stroke-linecap="square" stroke-linejoin="bevel"/><circle id="shape05" transform="translate(146.725001139936, 404.34999924721)" r="11.5" cx="11.5" cy="11.5" fill="#9e8940" fill-rule="evenodd" stroke-opacity="0" stroke="#000000" stroke-width="0" stroke-linecap="square" stroke-linejoin="bevel"/><circle id="shape06" transform="translate(146.495001139936, 441.667497773487)" r="11.5" cx="11.5" cy="11.5" fill="#9e8940" fill-rule="evenodd" stroke-opacity="0" stroke="#000000" stroke-width="0" stroke-linecap="square" stroke-linejoin="bevel"/><circle id="shape012" transform="translate(146.545001229343, 481.092496298273)" r="11.5" cx="11.5" cy="11.5" fill="#9e8940" fill-rule="evenodd" stroke-opacity="0" stroke="#000000" stroke-width="0" stroke-linecap="square" stroke-linejoin="bevel"/><path id="shape4" transform="translate(333.999986728043, 493.99998037022)" fill="none" stroke="#5e5e5e" stroke-width="3" stroke-linecap="square" stroke-linejoin="miter" stroke-miterlimit="2" d="M0 3L30.5 0" sodipodi:nodetypes="cc"/><path id="shape07" transform="translate(332.869986946593, 452.119982098753)" fill="none" stroke="#5e5e5e" stroke-width="3" stroke-linecap="square" stroke-linejoin="miter" stroke-miterlimit="2" d="M0 3L30.5 0" sodipodi:nodetypes="cc"/><path id="shape08" transform="translate(331.369987006198, 417.119983489527)" fill="none" stroke="#5e5e5e" stroke-width="3" stroke-linecap="square" stroke-linejoin="miter" stroke-miterlimit="2" d="M0 3L30.5 0" sodipodi:nodetypes="cc"/><path id="shape09" transform="translate(329.369987085671, 385.119984761092)" fill="none" stroke="#5e5e5e" stroke-width="3" stroke-linecap="square" stroke-linejoin="miter" stroke-miterlimit="2" d="M0 3L30.5 0" sodipodi:nodetypes="cc"/>
</svg>
