<?xml version="1.0" standalone="no"?>
<!DOCTYPE svg PUBLIC "-//W3C//DTD SVG 20010904//EN" "http://www.w3.org/TR/2001/REC-SVG-20010904/DTD/svg10.dtd">
<!-- Created using Krita: https://krita.org -->
<svg xmlns="http://www.w3.org/2000/svg" 
    xmlns:xlink="http://www.w3.org/1999/xlink"
    xmlns:krita="http://krita.org/namespaces/svg/krita"
    xmlns:sodipodi="http://sodipodi.sourceforge.net/DTD/sodipodi-0.dtd"
    width="512pt"
    height="512pt"
    viewBox="0 0 512 512">
<defs/>
<path id="shape0" transform="translate(38.2684603968931, 285.37498894709)" fill="#16192d" fill-rule="evenodd" d="M164.232 0.25C196.64 17.0866 227.697 18.1555 257.107 0L256.732 34.125L444.857 93.5L461.107 226.125L0 226.125L29.7315 85.125L164.732 44.125Z" sodipodi:nodetypes="ccccccccc"/><path id="shape1" transform="translate(56.4999972482626, 285.374655707545)" fill="#79693a" fill-rule="evenodd" stroke="none" stroke-width="1" stroke-linecap="square" stroke-linejoin="bevel" d="M134.875 61.1253L135.951 47.2525L146.642 0C152.264 78.0391 160.595 114.919 171.635 110.641L214.488 110.73C226.415 111.821 234.117 75.0763 237.594 0.495109L250.605 38.1573L250 58.1253C347.055 82.168 398.93 97.9596 405.625 105.5C412.32 113.041 420.028 153.249 428.75 226.125L0 226.125C14.425 146.823 25.175 103.656 32.25 96.6253C39.325 89.5946 73.5334 77.7613 134.875 61.1253Z" sodipodi:nodetypes="cccccccczcczc"/><path id="shape2" transform="translate(191.328123099419, 324.749997325399)" fill="none" stroke="#51492c" stroke-width="3" stroke-linecap="square" stroke-linejoin="bevel" d="M0 8.9375C2.59479 74.6059 14.7837 104.211 36.5668 97.7541L78.3876 98.8556C101.187 108.49 113.845 75.5385 116.359 0" sodipodi:nodetypes="cccc"/><g id="group0" transform="matrix(1.22058713363846 0 0 1.22058713363846 228.125000228482 390.749996777789)" fill="none">
  <rect id="shape3" transform="translate(0, 1.74997510512316)" fill="#757060" fill-rule="evenodd" stroke="#333333" stroke-width="4" stroke-linecap="round" stroke-linejoin="round" width="34" height="45.6250290235633"/>
  <path id="shape01" transform="translate(10.0624975954256, 0)" fill="#2a3c37" fill-rule="evenodd" stroke="none" stroke-width="4" stroke-linecap="round" stroke-linejoin="round" d="M0 0L13.9375 0L13.9375 49.125L0 49.125Z" sodipodi:nodetypes="ccccc"/>
  <path id="shape4" transform="matrix(1 0 0 0.936358879003397 8.24999761343295 2.24999999751651)" fill="none" stroke="#6d592a" stroke-width="5" stroke-linecap="square" stroke-linejoin="miter" stroke-miterlimit="2" d="M0 0L0 47.875" sodipodi:nodetypes="cc"/>
  <path id="shape02" transform="matrix(1 0 0 0.936358879003397 25.7624969652395 2.2968181995912)" fill="none" stroke="#6d592a" stroke-width="5" stroke-linecap="square" stroke-linejoin="miter" stroke-miterlimit="2" d="M0 0L0 47.875" sodipodi:nodetypes="cc"/>
 </g><path id="shape5" transform="matrix(1.23651001944607 0 0 1.23651001944607 197.191176550252 425.522291867735)" fill="none" stroke="#ac9433" stroke-width="11" stroke-linecap="square" stroke-linejoin="bevel" d="M17.2086 7.26431e-08C16.1658 0.0180312 15.3947 0.0363821 14.8951 0.0550529C3.2227 10.0742 -1.58949 20.5559 0.458573 31.5C3.84321 49.5863 78.6612 50.859 84.3336 30.9375C87.7582 18.9102 82.2958 8.61511 67.9465 0.0520812C67.4247 0.0294912 66.8663 0.0121308 66.2711 0" sodipodi:nodetypes="cczzcc"/><path id="shape03" transform="matrix(1.23651001944607 0 0 1.23651001944607 197.299105111986 423.021129452642)" fill="none" stroke="#000000" stroke-width="11" stroke-linecap="square" stroke-linejoin="bevel" d="M17.2086 7.26431e-08C16.1658 0.0180312 15.3947 0.0363821 14.8951 0.0550529C3.2227 10.0742 -1.58949 20.5559 0.458572 31.5C3.84321 49.5863 78.6612 50.859 84.3336 30.9375C87.7582 18.9102 82.2958 8.61511 67.9465 0.0520812C67.4247 0.0294912 66.8663 0.0121308 66.2711 0" sodipodi:nodetypes="cczzcc"/><path id="shape04" transform="matrix(1.23651001944607 0 0 1.23651001944607 197.299104688201 418.075089506904)" fill="none" stroke="#c3a634" stroke-width="11" stroke-linecap="square" stroke-linejoin="bevel" d="M17.2086 7.26431e-08C16.1658 0.0180312 15.3947 0.0363821 14.8951 0.0550529C3.2227 10.0742 -1.58949 20.5559 0.458572 31.5C3.84321 49.5863 78.6612 50.859 84.3336 30.9375C87.7582 18.9102 82.2958 8.61511 67.9465 0.0520812C67.4247 0.0294912 66.8663 0.0121308 66.2711 0" sodipodi:nodetypes="cczzcc"/>
</svg>
