<?xml version="1.0" standalone="no"?>
<!DOCTYPE svg PUBLIC "-//W3C//DTD SVG 20010904//EN" "http://www.w3.org/TR/2001/REC-SVG-20010904/DTD/svg10.dtd">
<!-- Created using Krita: https://krita.org -->
<svg xmlns="http://www.w3.org/2000/svg" 
    xmlns:xlink="http://www.w3.org/1999/xlink"
    xmlns:krita="http://krita.org/namespaces/svg/krita"
    xmlns:sodipodi="http://sodipodi.sourceforge.net/DTD/sodipodi-0.dtd"
    width="512pt"
    height="512pt"
    viewBox="0 0 512 512">
<defs>
  <linearGradient id="gradient0" gradientUnits="objectBoundingBox" x1="0.543083900226758" y1="0.0233747827432489" x2="0.534013605442178" y2="0.958363774124701" spreadMethod="reflect">
   <stop stop-color="#a8a372" offset="0" stop-opacity="1"/>
   <stop stop-color="#b1b394" offset="0.0666666666666667" stop-opacity="1"/>
   <stop stop-color="#a8a372" offset="0.1333" stop-opacity="1"/>
   <stop stop-color="#b1b394" offset="0.2" stop-opacity="1"/>
   <stop stop-color="#a8a372" offset="0.266666666666667" stop-opacity="1"/>
   <stop stop-color="#b1b394" offset="0.333333333333333" stop-opacity="1"/>
   <stop stop-color="#a8a372" offset="0.4" stop-opacity="1"/>
   <stop stop-color="#b1b394" offset="0.466666666666667" stop-opacity="1"/>
   <stop stop-color="#a8a372" offset="0.533333333333333" stop-opacity="1"/>
   <stop stop-color="#b1b394" offset="0.6" stop-opacity="1"/>
   <stop stop-color="#a8a372" offset="0.666666666666667" stop-opacity="1"/>
   <stop stop-color="#b1b394" offset="0.733333333333333" stop-opacity="1"/>
   <stop stop-color="#a8a372" offset="0.8" stop-opacity="1"/>
   <stop stop-color="#b1b394" offset="0.866666666666667" stop-opacity="1"/>
   <stop stop-color="#a8a372" offset="0.933333333333333" stop-opacity="1"/>
   <stop stop-color="#b1b394" offset="1" stop-opacity="1"/>
  </linearGradient>
 </defs>
<path id="shape0" transform="translate(41.7499970967618, 305.24997877333)" fill="#000000" fill-rule="evenodd" d="M458.25 206.75L442.25 72.75L252.5 15.5L253.75 0L159 5.25L160.75 23.25L26 67.5L0 206.75Z" sodipodi:nodetypes="ccccccccc"/><path id="shape1" transform="translate(93.3749962896215, 340.874986454883)" fill="url(#gradient0)" fill-rule="evenodd" d="M0 171.125L11.625 19.125L52.5 4.875L62.625 50.625L259.125 47.625L274.125 0L330.75 18.75L324.75 171.125Z" sodipodi:nodetypes="ccccccccc"/><ellipse id="shape2" transform="translate(331, 366)" rx="9.5" ry="9" cx="9.5" cy="9" fill="#95943c" fill-rule="evenodd"/><circle id="shape3" transform="translate(164, 369)" r="9" cx="9" cy="9" fill="#95943c" fill-rule="evenodd"/><path id="shape4" transform="translate(207.499997938697, 326.249996922948)" fill="#807234" fill-rule="evenodd" d="M118.75 0C82.7881 79.8571 43.2047 141.774 0 185.75L144.5 185.75C184.364 129.521 208.03 77.9376 215.5 31Z" sodipodi:nodetypes="ccccc"/>
</svg>
