<?xml version="1.0" standalone="no"?>
<!DOCTYPE svg PUBLIC "-//W3C//DTD SVG 20010904//EN" "http://www.w3.org/TR/2001/REC-SVG-20010904/DTD/svg10.dtd">
<!-- Created using Krita: https://krita.org -->
<svg xmlns="http://www.w3.org/2000/svg" 
    xmlns:xlink="http://www.w3.org/1999/xlink"
    xmlns:krita="http://krita.org/namespaces/svg/krita"
    xmlns:sodipodi="http://sodipodi.sourceforge.net/DTD/sodipodi-0.dtd"
    width="512pt"
    height="512pt"
    viewBox="0 0 512 512">
<defs/>
<path id="shape0" transform="translate(41.6249983459862, 285.37498866032)" fill="#232323" fill-rule="evenodd" stroke="none" stroke-width="3.5" stroke-linecap="round" stroke-linejoin="miter" stroke-miterlimit="2" d="M229.875 48.75L235.5 1.875L144 0L146.625 49.125L25.875 86.25L0 230.625L456.75 226.625L441.625 93.875L252.875 36.25L252.625 12.25L233.875 13Z" sodipodi:nodetypes="cccccccccccc"/><path id="shape1" transform="translate(232.499990761365, 326.562487336615)" fill="#1a1a1a" fill-rule="evenodd" stroke="#333333" stroke-width="14" stroke-linecap="butt" stroke-linejoin="miter" stroke-miterlimit="2" d="M58.8125 0L67.79 1.8563L162.5 82.9375L88 219.437L0 226.937" sodipodi:nodetypes="ccccc"/><path id="shape2" transform="translate(389.406234568438, 350.562486042086)" fill="#4c4c4c" fill-rule="evenodd" d="M0 0L4.09375 39.4375L61.7289 78.3576L111.094 161.438L94.0937 27.875Z" sodipodi:nodetypes="cccccc"/><path id="shape3" transform="translate(67.4999973178156, 347.624986399092)" fill="#4d4d4d" fill-rule="evenodd" d="M75 0L0 24.375L31.375 188.312L150.312 108Z" sodipodi:nodetypes="ccccc"/><path id="shape4" transform="translate(196.3749863295, 370.249974424779)" fill="#080300" fill-rule="evenodd" d="M84 0L0 56.25L20.625 86.5L69 54.75Z" sodipodi:nodetypes="ccccc"/>
</svg>
