<?xml version="1.0" standalone="no"?>
<!DOCTYPE svg PUBLIC "-//W3C//DTD SVG 20010904//EN" "http://www.w3.org/TR/2001/REC-SVG-20010904/DTD/svg10.dtd">
<!-- Created using Krita: https://krita.org -->
<svg xmlns="http://www.w3.org/2000/svg" 
    xmlns:xlink="http://www.w3.org/1999/xlink"
    xmlns:krita="http://krita.org/namespaces/svg/krita"
    xmlns:sodipodi="http://sodipodi.sourceforge.net/DTD/sodipodi-0.dtd"
    width="512pt"
    height="512pt"
    viewBox="0 0 512 512">
<defs/>
<path id="shape0" transform="translate(40.4999972641475, 320.499978394316)" fill="#ce3c34" fill-rule="evenodd" stroke-opacity="0" stroke="#000000" stroke-width="0" stroke-linecap="square" stroke-linejoin="bevel" d="M209.25 29.0625C229.35 26.25 244.787 16.5625 255.562 0L444.75 54L459.75 191.5L0 191.5L26.25 47.25L162.375 6.9375C174.287 19.925 189.912 27.3 209.25 29.0625Z" sodipodi:nodetypes="cccccccc"/><path id="shape1" transform="translate(120.999994352144, 320.312478391914)" fill="#000000" fill-rule="evenodd" stroke-opacity="0" stroke="#000000" stroke-width="0" stroke-linecap="square" stroke-linejoin="bevel" d="M0 30.8125C34.6698 118.822 40.6337 230.128 121.507 224.879L124.998 71.6678L345.875 70.8125L367.625 87.3125L364.25 52.4375L175.75 0C162.174 19.1341 145.216 28.2382 124.875 27.3125C104.534 26.3868 89.8673 20.0951 80.875 8.4375Z" sodipodi:nodetypes="ccccccczcc"/><path id="shape2" transform="translate(103.874999174479, 437.999996519102)" fill="#000000" fill-rule="evenodd" stroke-opacity="0" stroke="#000000" stroke-width="0" stroke-linecap="square" stroke-linejoin="bevel" d="M0 74L9.375 0L15 74Z" sodipodi:nodetypes="cccc"/><path id="shape3" transform="translate(412.499996721757, 435.749996536983)" fill="#000000" fill-rule="evenodd" stroke-opacity="0" stroke="#000000" stroke-width="0" stroke-linecap="square" stroke-linejoin="bevel" d="M13.5 76.25L6.375 0L0 76.25Z" sodipodi:nodetypes="cccc"/><g id="group0" transform="matrix(0.0298093968012932 0 0 0.0298093968012932 326.399998618401 452.563009953359)" fill="none">
  <ellipse id="shape01" transform="translate(0, 450.34698793035)" rx="676.8" ry="374.76" cx="676.8" cy="374.76" fill="#a37e28" fill-rule="evenodd" stroke="#000000" stroke-width="10.8" stroke-linecap="square" stroke-linejoin="bevel"/>
  <path id="shape011" transform="translate(124.607710143104, 0)" fill="#b2b2b2" stroke="#000000" stroke-width="10.8" stroke-linecap="square" stroke-linejoin="miter" stroke-miterlimit="2.16000008583069" d="M549.065 0C288.677 436.964 105.655 888.013 0 1353.15L36.8011 1371.94C240.478 1070.25 472.297 921.381 732.257 925.339C744.677 936.217 931.709 1051.71 990.954 1207.01C997.726 1204.64 1009.01 1202.86 1024.81 1201.65C928.711 808.63 770.128 408.079 549.065 0Z" sodipodi:nodetypes="ccccccc"/>
 </g><path id="shape02" transform="translate(63.391295379978, 318.809129882739)" fill="#9c8935" fill-rule="evenodd" stroke-opacity="0" stroke="#000000" stroke-width="0" stroke-linecap="square" stroke-linejoin="bevel" d="M0 55.7307L137.717 14.019C147.457 25.0049 159.116 32.9194 175.495 33.2833L178.859 193.191L182.609 193.191L183.609 74.4409L402.765 74.7221L427.89 89.7846L405.984 66.5659L185.171 65.4721L185.166 33.7354C212.349 33.6408 223.298 25.7736 235.18 7.82836L417.733 57.152L425.23 87.9757L422.502 53.9044L231.818 0C219.123 21.7536 205.788 24.8543 180.546 28.2534C161.963 27.2835 151.373 20.1942 138.796 6.75337L2.23371 45.1596Z" sodipodi:nodetypes="cccccccccccccccccccc"/>
</svg>
