<?xml version="1.0" standalone="no"?>
<!DOCTYPE svg PUBLIC "-//W3C//DTD SVG 20010904//EN" "http://www.w3.org/TR/2001/REC-SVG-20010904/DTD/svg10.dtd">
<!-- Created using Krita: https://krita.org -->
<svg xmlns="http://www.w3.org/2000/svg" 
    xmlns:xlink="http://www.w3.org/1999/xlink"
    xmlns:krita="http://krita.org/namespaces/svg/krita"
    xmlns:sodipodi="http://sodipodi.sourceforge.net/DTD/sodipodi-0.dtd"
    width="512pt"
    height="512pt"
    viewBox="0 0 512 512">
    <style>
        .uniform-color {
            color: #FFFFFF;
        }
    </style>
<defs/>
<path id="shape0" transform="translate(40.4999972641475, 296.687479958192)" fill="currentColor" class="uniform-color" fill-rule="evenodd" stroke-opacity="0" stroke="#000000" stroke-width="0" stroke-linecap="square" stroke-linejoin="bevel" d="M161.812 0C174.262 5.7625 189.137 8.7 206.437 8.8125C227.475 7.15 243.787 4.3375 255.375 0.375C258.306 2.7231 259.686 6.54317 259.513 11.8352C260.961 17.2057 261.206 21.1981 260.25 23.8125L444.75 77.8125L459.75 215.313L0 215.313L26.25 71.0625L155.25 32.0625C153.907 29.4788 153.573 24.8654 154.247 18.2224C156.01 8.07791 158.532 2.00378 161.812 0Z" sodipodi:nodetypes="cccccccccccc"/><path id="shape1" transform="translate(39.8749984947364, 320.374987905985)" fill="#702121" fill-rule="evenodd" stroke-opacity="0" stroke="#000000" stroke-width="0" stroke-linecap="square" stroke-linejoin="bevel" d="M155.25 6.75C165.375 17.65 183.5 24.4 209.625 27C238.2 21.85 255.825 12.85 262.5 0L447.75 54L460.875 191.625L0 191.625L26.625 45.375Z" sodipodi:nodetypes="cccccccc"/><path id="shape2" transform="translate(102.036434187127, 319.80331753927)" fill="#dcc689" fill-rule="evenodd" stroke="none" stroke-width="4" stroke-linecap="square" stroke-linejoin="bevel" d="M27.7835 110.711L309.565 112.227L326.663 36.5065C286.221 24.8793 239.904 11.6272 199.461 0C171.583 24.7076 139.245 31.9464 92.0868 5.76303C66.2037 14.0537 25.8831 27.4069 0 35.6976Z" sodipodi:nodetypes="ccccccc"/><path id="shape3" transform="translate(383.499997142705, 348.062497406734)" fill="none" stroke="#000000" stroke-width="4" stroke-linecap="square" stroke-linejoin="bevel" d="M44.3125 10.375L27.25 84.1875L0 83.9375L9.25 0" sodipodi:nodetypes="cccc"/><path id="shape21" transform="matrix(0.830881049939094 0.556450070403548 -0.556450070403548 0.830881049939094 405.283425788073 342.055356306096)" fill="#595959" stroke="#959595" stroke-width="2" stroke-linecap="square" stroke-linejoin="bevel" d="M0 6.57674L16.5372 0L22.5699 16.1797L8.14812 22.6718Z" sodipodi:nodetypes="ccccc"/><path id="shape5" transform="translate(411.374996730709, 418.499996674085)" fill="none" stroke="#040404" stroke-width="2" stroke-linecap="square" stroke-linejoin="miter" stroke-miterlimit="2" d="M1.13687e-13 0L2.8125 93.5" sodipodi:nodetypes="cc"/><path id="shape6" transform="translate(126.749998992689, 424.687496624911)" fill="none" stroke="#040404" stroke-width="2" stroke-linecap="square" stroke-linejoin="miter" stroke-miterlimit="2" d="M3.9375 0L0 87.3125" sodipodi:nodetypes="cc"/><path id="shape011" transform="matrix(0.0285348444860162 0 0 0.0285348444860162 330.623568863133 413.85187614352)" fill="#8a5e48" stroke-opacity="0" stroke="#000000" stroke-width="0" stroke-linecap="square" stroke-linejoin="bevel" d="M549.065 0C288.677 436.964 105.655 888.013 0 1353.15L36.8011 1371.94C240.478 1070.25 472.297 921.381 732.257 925.339C744.677 936.217 931.709 1051.71 990.954 1207.01C997.726 1204.64 1009.01 1202.86 1024.81 1201.65C928.711 808.63 770.128 408.079 549.065 0Z" sodipodi:nodetypes="ccccccc"/><path id="shape0111" transform="matrix(0.0285348444860162 0 0 0.0285348444860162 343.017393273708 417.92523427552)" fill="#333333" stroke="#814a45" stroke-width="4.32" stroke-linecap="square" stroke-linejoin="miter" stroke-miterlimit="2.16000008583069" d="M114.784 0L76.6191 491.502L0 493.679L67.0991 543.005L69.0775 612.239L111.893 552L149.317 614.527L150.313 540.37L212.532 490.544L148.478 491.495Z" sodipodi:nodetypes="ccccccccccc"/><circle id="shape31" transform="matrix(0.0285348444860162 0 0 0.0285348444860162 332.193907968811 417.210628014004)" r="485.999955318679" cx="485.999955318679" cy="485.999955318679" fill="none" stroke="#8a5e48" stroke-width="50.4" stroke-linecap="square" stroke-linejoin="bevel"/><path id="shape4" transform="translate(103.749999609776, 344.312497409528)" fill="none" stroke="#000000" stroke-width="4" stroke-linecap="square" stroke-linejoin="bevel" d="M0 12.2812L26.7812 85.7187L51 85.875L39.5 0" sodipodi:nodetypes="cccc"/><rect id="shape7" transform="translate(156.750000009313, 424.749999860302)" fill="#595959" fill-rule="evenodd" stroke="#9a9994" stroke-width="3" stroke-linecap="square" stroke-linejoin="miter" stroke-miterlimit="2" width="47.4999923817903" height="10.2499839347046"/>
</svg>
