<?xml version="1.0" standalone="no"?>
<!DOCTYPE svg PUBLIC "-//W3C//DTD SVG 20010904//EN" "http://www.w3.org/TR/2001/REC-SVG-20010904/DTD/svg10.dtd">
<!-- Created using Krita: https://krita.org -->
<svg xmlns="http://www.w3.org/2000/svg" 
    xmlns:xlink="http://www.w3.org/1999/xlink"
    xmlns:krita="http://krita.org/namespaces/svg/krita"
    xmlns:sodipodi="http://sodipodi.sourceforge.net/DTD/sodipodi-0.dtd"
    width="512pt"
    height="512pt"
    viewBox="0 0 512 512">
    <style>
        .uniform-color {
            color: #CE3C34;
        }
    </style>
<defs/>
<path id="shape0" transform="translate(38.9999973654754, 321.087080307298)" fill="#000000" fill-rule="evenodd" stroke-opacity="0" stroke="#000000" stroke-width="0" stroke-linecap="square" stroke-linejoin="bevel" d="M165 4.1941L252.788 0L444.75 54.9124L461.25 199.662L0 201.162L29.25 49.6629Z" sodipodi:nodetypes="ccccccc"/><path id="shape01" transform="translate(40.6093723026153, 407.009527173326)" fill="#000000" fill-rule="evenodd" stroke-opacity="0" stroke="#000000" stroke-width="0" stroke-linecap="square" stroke-linejoin="bevel" d="M15.5371 24.0249L0 104.967L459 104.905L449.644 23.0621L426.338 3.45607L208.687 2.99284L205.671 21.6511L203.665 2.99219L38.6499 0Z" sodipodi:nodetypes="cccccccccc"/><path id="shape1" transform="translate(51.3124972918707, 319.783239997435)" fill="#656565" fill-rule="evenodd" stroke-opacity="0" stroke="#000000" stroke-width="0" stroke-linecap="square" stroke-linejoin="bevel" d="M187.094 25.648C188.137 40.1477 191.259 62.3018 193.257 90.0789C193.653 90.1377 197.469 90.0527 197.798 89.9939C201.455 61.6627 206.579 39.0891 208.485 24.3355C222.541 30.6211 238.939 2.76095 242.935 0C254.145 3.72563 317.813 21.9625 433.938 54.7105L441.376 130.022L380.688 90.7101L51.3125 90.3351L0 134.21L15.4375 47.9605L151.985 5.91363C158.994 18.123 170.697 24.7011 187.094 25.648Z" sodipodi:nodetypes="ccccccccccccc"/><g id="group0" transform="matrix(0.0300059796223986 0 0 0.0300059796223986 328.919985844166 453.312985183798)" fill="none">
  <g id="group1" transform="translate(0, 327.406985136646)" fill="none">
   <path id="shape02" fill="#a37e28" fill-rule="evenodd" stroke-opacity="0" stroke="#000000" stroke-width="0" stroke-linecap="square" stroke-linejoin="bevel" d="M407.7 0L112.86 4.32L88.56 23.76L0 362.88L10.26 387.72L215.46 447.12L278.64 286.605L189.945 289.575L159.705 283.23L115.02 250.56L114.345 181.71L143.37 149.31L183.465 136.62L343.44 139.455L407.16 9.72Z" sodipodi:nodetypes="cccccccccccccccc"/>
   <path id="shape11" transform="translate(758.69999419642, 1.43999998898471)" fill="#a37e28" fill-rule="evenodd" stroke-opacity="0" stroke="#000000" stroke-width="0" stroke-linecap="square" stroke-linejoin="bevel" d="M0 0L296.46 3.78L319.14 13.5L325.62 33.48L410.4 361.8L406.08 381.24L386.64 391.5L180.36 447.12L118.935 286.335L240.3 285.66L271.62 279.315L309.96 250.83L317.79 199.53L301.86 161.865L257.31 135.945L57.915 135.81Z" sodipodi:nodetypes="ccccccccccccccccc"/>
  </g>
  <path id="shape011" transform="translate(1.92850715635359, 328.306962470848)" fill="none" stroke="#000000" stroke-width="10.8" stroke-linecap="square" stroke-linejoin="bevel" d="M407.031 0L125.151 3.24C101.247 3.384 88.2875 12.744 86.2715 31.32C69.2075 96.552 40.7675 205.272 0.951497 357.48C-2.4595 375.075 3.3005 385.875 18.2315 389.88C148.119 425.592 212.919 443.592 212.631 443.88" sodipodi:nodetypes="cccccc"/>
  <path id="shape111" transform="translate(112.319998477205, 463.666984094341)" fill="none" stroke="#000000" stroke-width="10.8" stroke-linecap="square" stroke-linejoin="bevel" d="M692.64 2.47909e-15L876.96 0C924.677 2.18621e-15 963.36 28.9434 963.36 64.6468L963.36 87.2732C963.36 122.976 924.677 151.92 876.96 151.92L777.285 151.92M155.88 151.92L86.4 151.92C38.6826 151.92 8.36716e-15 122.976 1.42109e-14 87.2732L0 64.6468C5.8437e-15 28.9434 38.6826 8.44673e-15 86.4 1.0633e-14L246.6 8.47831e-15" sodipodi:nodetypes="cccccccccccc"/>
  <path id="shape0111" transform="matrix(-1 0 0 1 1167.95548445264 328.475050006839)" fill="none" stroke="#000000" stroke-width="10.8" stroke-linecap="square" stroke-linejoin="bevel" d="M407.031 0L125.151 3.24C101.247 3.384 88.2875 12.744 86.2715 31.32C69.2075 96.552 40.7675 205.272 0.951497 357.48C-2.4595 375.075 3.3005 385.875 18.2315 389.88C148.119 425.592 227.499 443.592 227.211 443.88" sodipodi:nodetypes="cccccc"/>
  <path id="shape021" transform="translate(41.0877111712979, -5.6843418860808e-14)" fill="#b2b2b2" stroke="#000000" stroke-width="10.8" stroke-linecap="square" stroke-linejoin="miter" stroke-miterlimit="2.16000008583069" d="M549.065 0C288.677 436.964 105.655 888.013 0 1353.15L36.8011 1371.94C240.478 1070.25 472.297 921.381 732.257 925.339C744.677 936.217 931.709 1051.71 990.954 1207.01C997.726 1204.64 1009.01 1202.86 1024.81 1201.65C928.711 808.63 770.128 408.079 549.065 0Z" sodipodi:nodetypes="ccccccc"/>
 </g><path id="shape03" transform="translate(248.93749731336, 409.028102069179)" fill="currentColor" class="uniform-color" fill-rule="evenodd" stroke-opacity="0" stroke="#000000" stroke-width="0" stroke-linecap="square" stroke-linejoin="bevel" d="M0.077625 0L182.031 0.890625L182.078 22.9687L0 22.9219Z" sodipodi:nodetypes="ccccc"/><path id="shape5" transform="matrix(-0.982257028159326 -0.1875396774862 0.1875396774862 -0.982257028159326 71.107200509066 435.908692991336)" fill="#a6a6a6" fill-rule="evenodd" stroke="#bfbfbf" stroke-width="4" stroke-linecap="butt" stroke-linejoin="bevel" d="M16.8401 0C3.57139 -9.29812e-16 1.77636e-15 13.3233 5.78125e-31 28.4633C-1.77636e-15 43.6034 4.07731 55.144 17.3461 55.144" sodipodi:nodetypes="ccc"/><path id="shape51" transform="matrix(0.995369785071309 -0.096119670032203 0.096119670032203 0.995369785071309 469.848031523532 383.046040022694)" fill="#a6a6a6" fill-rule="evenodd" stroke="#bfbfbf" stroke-width="4" stroke-linecap="butt" stroke-linejoin="miter" stroke-miterlimit="2" d="M16.7749 0C3.50615 -8.88178e-16 1.77636e-15 12.7688 7.26684e-31 27.9088C-1.77636e-15 43.0489 3.59501 55.126 16.8638 55.126" sodipodi:nodetypes="ccc"/>
</svg>
