<?xml version="1.0" standalone="no"?>
<!DOCTYPE svg PUBLIC "-//W3C//DTD SVG 20010904//EN" "http://www.w3.org/TR/2001/REC-SVG-20010904/DTD/svg10.dtd">
<!-- Created using Krita: https://krita.org -->
<svg xmlns="http://www.w3.org/2000/svg" 
    xmlns:xlink="http://www.w3.org/1999/xlink"
    xmlns:krita="http://krita.org/namespaces/svg/krita"
    xmlns:sodipodi="http://sodipodi.sourceforge.net/DTD/sodipodi-0.dtd"
    width="512pt"
    height="512pt"
    viewBox="0 0 512 512">
    <style>
        .uniform-color {
            color: #CE3C34;
        }
    </style>
<defs/>
<path id="shape0" transform="translate(132.57555236239, 256.162500997996)" fill="currentColor" class="uniform-color" fill-rule="evenodd" stroke-opacity="0" stroke="#000000" stroke-width="0" stroke-linecap="square" stroke-linejoin="bevel" d="M8.9388 19.875C117.789 35.3125 210.976 14.8125 260.751 0C285.701 59.2937 288.326 213.158 273.689 256C222.464 256 137.089 256 17.5638 256C-2.49869 149.346 -5.37369 70.6375 8.9388 19.875Z" sodipodi:nodetypes="ccccc"/><path id="shape1" transform="translate(132.843749238327, 290.437498518001)" fill="#000000" fill-rule="evenodd" stroke-opacity="0" stroke="#000000" stroke-width="0" stroke-linecap="square" stroke-linejoin="bevel" d="M4.96875 0L81.6562 24.75L68.1562 221.563L31.9687 221.563L45.0937 50.25L0 35.5312Z" sodipodi:nodetypes="ccccccc"/><path id="shape2" transform="translate(236.062491709957, 320.296864033789)" fill="none" stroke="#000000" stroke-width="4" stroke-linecap="square" stroke-linejoin="miter" stroke-miterlimit="2" d="M0.75 0L0 191.703" sodipodi:nodetypes="cc"/><path id="shape3" transform="translate(197.390618110088, 281.953115112337)" fill="#000000" fill-rule="evenodd" stroke="#afafaf" stroke-width="2" stroke-linecap="square" stroke-linejoin="bevel" d="M39.1875 38.3437L0 21.3281L1.45312 1.35937L39.0937 14.3437L80.5312 0L80.1562 20.625Z" sodipodi:nodetypes="ccccccc"/><path id="shape4" transform="translate(237.984366693168, 298.968739564511)" fill="none" stroke="#afafaf" stroke-width="2" stroke-linecap="square" stroke-linejoin="miter" stroke-miterlimit="2" d="M39.375 0L0 16.875" sodipodi:nodetypes="cc"/><path id="shape5" transform="translate(236.999991727527, 294.890614706858)" fill="none" stroke="#afafaf" stroke-width="2" stroke-linecap="square" stroke-linejoin="miter" stroke-miterlimit="2" d="M40.0781 0L0 16.875" sodipodi:nodetypes="cc"/><ellipse id="shape01" transform="matrix(0.0462705821852979 0 0 0.0498316883634655 283.435358732668 320.814339892783)" rx="376.559925985548" ry="562.860013328412" cx="376.559925985548" cy="562.860013328412" fill="#595959" fill-rule="evenodd" stroke="#000000" stroke-width="6.48" stroke-linecap="square" stroke-linejoin="bevel"/><path id="shape011" transform="matrix(0.0462705821852979 0 0 0.0498316883634655 286.8822097499 351.183114027388)" fill="#afafaf" fill-rule="evenodd" stroke="#666666" stroke-width="6.48" stroke-linecap="square" stroke-linejoin="bevel" d="M0 291.033C68.6498 428.644 178.396 517.757 302.067 517.757C412.724 517.757 512.234 444.79 581.13 331.193C335.247 -123.482 461.331 -83.9266 0 291.033Z" sodipodi:nodetypes="cccc"/><path id="shape02" transform="matrix(0.0498316883634654 0 0 0.0498316883634655 288.574994516516 324.097251695941)" fill="#a3834c" stroke="#7c6346" stroke-width="5.76" stroke-linecap="square" stroke-linejoin="miter" stroke-miterlimit="2.16000008583069" d="M306.04 97.9274C296.605 77.6136 267.173 20.3831 257.22 0C130.046 236.758 51.6022 488.317 0 740.34L0.0396096 740.28C86.4273 598.325 190.17 521.888 297.289 504.827C296.914 504.158 299.831 368.525 306.04 97.9274ZM349.498 186.083C347.882 395.405 346.946 500.502 346.692 501.373C352.758 507.267 444.105 569.844 473.04 653.989C445.688 499.975 415.606 344.758 349.498 186.083Z" sodipodi:nodetypes="cccccccccc"/>
</svg>
