<?xml version="1.0" standalone="no"?>
<!DOCTYPE svg PUBLIC "-//W3C//DTD SVG 20010904//EN" "http://www.w3.org/TR/2001/REC-SVG-20010904/DTD/svg10.dtd">
<!-- Created using Krita: https://krita.org -->
<svg xmlns="http://www.w3.org/2000/svg" 
    xmlns:xlink="http://www.w3.org/1999/xlink"
    xmlns:krita="http://krita.org/namespaces/svg/krita"
    xmlns:sodipodi="http://sodipodi.sourceforge.net/DTD/sodipodi-0.dtd"
    width="512pt"
    height="512pt"
    viewBox="0 0 512 512">
    <style>
        .uniform-color {
            color: #FFFFFF;
        }
    </style>
<defs/>
<path id="shape0" transform="translate(139.804091488242, 245.012501061777)" fill="currentColor" class="uniform-color" fill-rule="evenodd" stroke-opacity="0" stroke="#000000" stroke-width="0" stroke-linecap="square" stroke-linejoin="bevel" d="M4.47463 17.625C113.325 33.0625 203.137 14.8125 252.912 0C257.295 1.90414 257.389 5.56664 253.194 10.9875C209.156 35.0642 54.0309 43.61 2.13088 33.25C-1.34828 26.8625 -0.567032 21.6542 4.47463 17.625Z" sodipodi:nodetypes="ccccc"/><path id="shape01" transform="translate(132.575558025994, 256.162500997996)" fill="#702121" fill-rule="evenodd" stroke-opacity="0" stroke="#000000" stroke-width="0" stroke-linecap="square" stroke-linejoin="bevel" d="M8.9388 19.875C117.789 35.3125 210.976 14.8125 260.751 0C285.701 59.2937 288.326 213.158 273.689 256C222.464 256 137.089 256 17.5638 256C-2.49869 149.346 -5.37369 70.6375 8.9388 19.875Z" sodipodi:nodetypes="ccccc"/><path id="shape2" transform="translate(142.093744765423, 276.906240095578)" fill="currentColor" class="uniform-color" stroke="#959595" stroke-width="2" stroke-linecap="square" stroke-linejoin="bevel" d="M0 0L39.0937 4.03125L50.9063 32.3438C39.6563 37.0313 28.4063 41.7188 17.1563 46.4063Z" sodipodi:nodetypes="ccccc"/><path id="shape3" transform="translate(193.499992780839, 283.78123931832)" fill="none" stroke="#040404" stroke-width="4" stroke-linecap="square" stroke-linejoin="miter" stroke-miterlimit="2" d="M41.9062 0L0 19.6875" sodipodi:nodetypes="cc"/><path id="shape4" transform="translate(155.531244231751, 318.374988435027)" fill="none" stroke="#040404" stroke-width="4" stroke-linecap="square" stroke-linejoin="miter" stroke-miterlimit="2" d="M0 0L35.7187 89.8125" sodipodi:nodetypes="cc"/><g id="group0" transform="matrix(0.0539518092953315 0 0 0.0539518092953315 261.929989569301 305.851880382663)" fill="none">
  <g id="group1" transform="translate(0, 153.90312043509)" fill="none">
   <rect id="shape011" fill="#ccb55f" fill-rule="evenodd" stroke="#9e7e27" stroke-width="20.88" stroke-linecap="square" stroke-linejoin="bevel" width="1153.44" height="375.84" rx="187.92" ry="187.92"/>
   <path id="shape11" transform="translate(169.92, 105.84)" fill="none" stroke="#a88218" stroke-width="14.4" stroke-linecap="square" stroke-linejoin="bevel" d="M0 0C165.888 0 442.368 0 829.44 0C756.72 51.696 756.72 104.256 829.44 157.68L0 157.68C64.8 106.416 64.8 53.856 0 0Z" sodipodi:nodetypes="ccccc"/>
   <path id="shape21" transform="translate(80.2799864173894, 183.959952327698)" fill="none" stroke="#a88218" stroke-width="14.4" stroke-linecap="square" stroke-linejoin="miter" stroke-miterlimit="2" d="M0 0L1002.25 0" sodipodi:nodetypes="cc"/>
  </g>
  <circle id="shape31" transform="matrix(0.528895042793038 0 0 0.528895042793038 315.354030047609 62.2546660501912)" r="485.999955318679" cx="485.999955318679" cy="485.999955318679" fill="none" stroke="#8a5e48" stroke-width="50.4" stroke-linecap="square" stroke-linejoin="bevel"/>
  <path id="shape0111" transform="matrix(0.528895042793038 0 0 0.528895042793038 286.247701155433 -5.6843418860808e-14)" fill="#8a5e48" stroke-opacity="0" stroke="#000000" stroke-width="0" stroke-linecap="square" stroke-linejoin="bevel" d="M549.065 0C288.677 436.964 105.655 888.013 0 1353.15L36.8011 1371.94C240.478 1070.25 472.297 921.381 732.257 925.339C744.677 936.217 931.709 1051.71 990.954 1207.01C997.726 1204.64 1009.01 1202.86 1024.81 1201.65C928.711 808.63 770.128 408.079 549.065 0Z" sodipodi:nodetypes="ccccccc"/>
  <path id="shape01111" transform="matrix(0.528895042793038 0 0 0.528895042793038 515.967975089736 75.4999356870994)" fill="#333333" stroke="#814a45" stroke-width="4.32" stroke-linecap="square" stroke-linejoin="miter" stroke-miterlimit="2.16000008583069" d="M114.784 0L76.6191 491.502L0 493.679L67.0991 543.005L69.0775 612.239L111.893 552L149.317 614.527L150.313 540.37L212.532 490.544L148.478 491.495Z" sodipodi:nodetypes="ccccccccccc"/>
 </g>
</svg>
