<?xml version="1.0" standalone="no"?>
<!DOCTYPE svg PUBLIC "-//W3C//DTD SVG 20010904//EN" "http://www.w3.org/TR/2001/REC-SVG-20010904/DTD/svg10.dtd">
<!-- Created using Krita: https://krita.org -->
<svg xmlns="http://www.w3.org/2000/svg" 
    xmlns:xlink="http://www.w3.org/1999/xlink"
    xmlns:krita="http://krita.org/namespaces/svg/krita"
    xmlns:sodipodi="http://sodipodi.sourceforge.net/DTD/sodipodi-0.dtd"
    width="512pt"
    height="512pt"
    viewBox="0 0 512 512">
<defs/>
<path id="shape0" transform="translate(132.700570293993, 256.162500997996)" fill="#383838" fill-rule="evenodd" stroke-opacity="0" stroke="#000000" stroke-width="0" stroke-linecap="square" stroke-linejoin="bevel" d="M8.9388 19.875C36.2769 23.7522 62.627 25.3625 87.5494 25.3654C91.0704 33.138 89.0099 38.17 94.7457 37.9359C100.604 38.2614 100.001 34.1247 103.431 25.9765C170.848 24.2069 226.081 10.3175 260.751 0C285.701 59.2937 288.326 213.158 273.689 256C222.464 256 137.089 256 17.5638 256C-2.49869 149.346 -5.37369 70.6375 8.9388 19.875Z" sodipodi:nodetypes="cccccccc"/><path id="shape1" transform="translate(141.249990133818, 373.749973893907)" fill="#1c1c1c" fill-rule="evenodd" d="M49.5 0L0 4.5L7.25 88L32.75 88.5Z" sodipodi:nodetypes="ccccc"/><path id="shape2" transform="translate(266.187481407049, 366.749974382851)" fill="#252525" fill-rule="evenodd" d="M0 7.0625L125.062 0L148.812 16L148.562 69L28.375 83.875Z" sodipodi:nodetypes="cccccc"/><path id="shape21" transform="translate(132.078552488386, 256)" fill="#d00b00" fill-rule="evenodd" stroke-opacity="0" stroke="#000000" stroke-width="0" stroke-linecap="square" stroke-linejoin="bevel" d="M85.1402 29.9375C89.5656 35.6207 85.5819 42.065 95.1402 41.9685C104.699 41.872 101.492 35.9375 107.656 30.1875C126.203 29.2156 264.924 13.6144 261.015 0C275.659 17.675 281.69 65.3 282.609 125.375C265.43 145.314 255.634 81.9161 242.609 79.5C187.159 97.7 130.784 104.2 20.4839 98.5C1.78625 101.184 6.67992 114.484 0.108932 122.625C-0.669195 71.9031 2.72143 37.2625 10.2808 18.7031C11.8885 29.7533 68.7773 30.4418 85.1402 29.9375Z" sodipodi:nodetypes="czcccccccc"/><g id="group0" transform="matrix(0.0300059796223986 0 0 0.0300059796223986 265.169989969252 370.062990570675)" fill="none">
  <g id="group1" transform="translate(0, 327.406985136646)" fill="none">
   <path id="shape01" fill="#a37e28" fill-rule="evenodd" stroke-opacity="0" stroke="#000000" stroke-width="0" stroke-linecap="square" stroke-linejoin="bevel" d="M407.7 0L112.86 4.32L88.56 23.76L0 362.88L10.26 387.72L215.46 447.12L278.64 286.605L189.945 289.575L159.705 283.23L115.02 250.56L114.345 181.71L143.37 149.31L183.465 136.62L343.44 139.455L407.16 9.72Z" sodipodi:nodetypes="cccccccccccccccc"/>
   <path id="shape11" transform="translate(758.699994196419, 1.43999998898471)" fill="#a37e28" fill-rule="evenodd" stroke-opacity="0" stroke="#000000" stroke-width="0" stroke-linecap="square" stroke-linejoin="bevel" d="M0 0L296.46 3.78L319.14 13.5L325.62 33.48L410.4 361.8L406.08 381.24L386.64 391.5L180.36 447.12L118.935 286.335L240.3 285.66L271.62 279.315L309.96 250.83L317.79 199.53L301.86 161.865L257.31 135.945L57.915 135.81Z" sodipodi:nodetypes="ccccccccccccccccc"/>
  </g>
  <path id="shape011" transform="translate(1.92849972294425, 328.306962470851)" fill="none" stroke="#000000" stroke-width="10.8" stroke-linecap="square" stroke-linejoin="bevel" d="M407.031 0L125.151 3.24C101.247 3.384 88.2875 12.744 86.2715 31.32C69.2075 96.552 40.7675 205.272 0.951497 357.48C-2.4595 375.075 3.3005 385.875 18.2315 389.88C148.119 425.592 212.919 443.592 212.631 443.88" sodipodi:nodetypes="cccccc"/>
  <path id="shape111" transform="translate(112.3199984772, 463.666984094343)" fill="none" stroke="#000000" stroke-width="10.8" stroke-linecap="square" stroke-linejoin="bevel" d="M692.64 2.47909e-15L876.96 0C924.677 2.18621e-15 963.36 28.9434 963.36 64.6468L963.36 87.2732C963.36 122.976 924.677 151.92 876.96 151.92L777.285 151.92M155.88 151.92L86.4 151.92C38.6826 151.92 8.36716e-15 122.976 1.42109e-14 87.2732L0 64.6468C5.8437e-15 28.9434 38.6826 8.44673e-15 86.4 1.0633e-14L246.6 8.47831e-15" sodipodi:nodetypes="cccccccccccc"/>
  <path id="shape0111" transform="matrix(-1 0 0 1 1167.95549188589 328.475050006844)" fill="none" stroke="#000000" stroke-width="10.8" stroke-linecap="square" stroke-linejoin="bevel" d="M407.031 0L125.151 3.24C101.247 3.384 88.2875 12.744 86.2715 31.32C69.2075 96.552 40.7675 205.272 0.951497 357.48C-2.4595 375.075 3.3005 385.875 18.2315 389.88C148.119 425.592 227.499 443.592 227.211 443.88" sodipodi:nodetypes="cccccc"/>
  <path id="shape02" transform="translate(41.0877111712979, 0)" fill="#b2b2b2" stroke="#000000" stroke-width="10.8" stroke-linecap="square" stroke-linejoin="miter" stroke-miterlimit="2.16000008583069" d="M549.065 0C288.677 436.964 105.655 888.013 0 1353.15L36.8011 1371.94C240.478 1070.25 472.297 921.381 732.257 925.339C744.677 936.217 931.709 1051.71 990.954 1207.01C997.726 1204.64 1009.01 1202.86 1024.81 1201.65C928.711 808.63 770.128 408.079 549.065 0Z" sodipodi:nodetypes="ccccccc"/>
 </g><path id="shape3" transform="translate(189.499992440927, 283.874988631705)" fill="#595959" fill-opacity="0.619607843137255" fill-rule="evenodd" d="M11.5 1.875C20.0987 8.60963 27.2536 16.7881 37.625 21.75C46.6125 17.6949 53.5757 8.07288 61.375 0.75L75.25 0C62.7167 11.1375 51.9884 20.9057 37.3125 31.125C22.916 22.1533 12.434 12.2946 0 1.6875Z" sodipodi:nodetypes="ccccccc"/><path id="shape4" transform="translate(166.437493342156, 280.312488774372)" fill="#595959" fill-opacity="0.619607843137255" fill-rule="evenodd" d="M13.0625 4.25L58.375 44.25L110.812 1.4375C120.764 1.73047 123.2 0.614416 128.312 0L58.9375 54.9375L0 3.625C4.35417 3.83333 8.70833 4.04167 13.0625 4.25Z" sodipodi:nodetypes="ccccccc"/><path id="shape5" transform="translate(143.718744244519, 275.4374889696)" fill="#595959" fill-opacity="0.619607843137255" fill-rule="evenodd" d="M162.219 2.8125L83.1562 70.5L10.125 6.5625L0 1.78125L78.6562 80.8125L88.9687 80.8125L182.719 0C177.476 0.857988 173.783 1.63844 162.219 2.8125Z" sodipodi:nodetypes="cccccccc"/><path id="shape6" transform="translate(253.499989848128, 269.874989229614)" fill="#595959" fill-opacity="0.619607843137255" fill-rule="evenodd" d="M104.25 0L20.4375 85.9375L0 86.375L84.375 2.75C98.3322 1.83333 98.6865 0.916667 104.25 0Z" sodipodi:nodetypes="ccccc"/><path id="shape7" transform="translate(139.312494420975, 277.499988887004)" fill="#595959" fill-opacity="0.619607843137255" fill-rule="evenodd" d="M2.25 0L65.4375 79.2187L40.5937 78.9375L0 6.75Z" sodipodi:nodetypes="ccccc"/><path id="shape8" transform="translate(298.853317124811, 268.124981271698)" fill="#57645a" fill-rule="evenodd" d="M40.1467 4.875L24.3734 127.581C19.774 146.924 15.025 166.238 0 183.625L56.8483 179.375C49.5623 162.734 44.3313 145.532 44.3455 126.899C78.0267 132.111 102.044 129.103 116.397 117.875L115.897 101.875C100.816 117.051 89.3381 120.927 52.7717 114.625C83.2172 99.3343 47.0891 57.7287 67.0217 0Z" sodipodi:nodetypes="cccccccccc"/><path id="shape9" transform="translate(126.724010747314, 275.249997180202)" fill="#57645a" fill-rule="evenodd" d="M21.151 1.40625C12.6436 44.7451 13.4449 91.6245 23.5548 142.045C29.2401 158.272 41.401 168.024 51.3385 180L14.3385 182.25C4.60635 104.704 -12.583 82.8575 14.776 0Z" sodipodi:nodetypes="cccccc"/><path id="shape10" transform="translate(335.781226532, 244.249982939349)" fill="#585858" fill-rule="evenodd" d="M0 48.8125L1.1875 22.8437L56.7187 0L61.4687 16.75L24.4687 43.75Z" sodipodi:nodetypes="cccccc"/><path id="shape12" transform="translate(134.249990622754, 270.499981105809)" fill="#585858" fill-rule="evenodd" d="M11.5 17.75L0 13.25L5.25 0L15.25 7Z" sodipodi:nodetypes="ccccc"/><path id="shape13" transform="translate(334.593736600587, 267.281239296238)" fill="#272727" fill-rule="evenodd" d="M3 25.6875C16.3063 19.4348 20.9201 20.0307 26.25 20.0625L26.25 23.3437C19.2553 23.8697 10.899 25.7572 0.65625 29.5312C1.13638 20.5958 2.14294 11.7561 0 2.34375L3.09375 0C3.60808 8.74436 4.62239 17.6554 3 25.6875Z" sodipodi:nodetypes="ccccccc"/><path id="shape14" transform="translate(138.093744469785, 284.906238590413)" fill="#272727" fill-rule="evenodd" d="M0.75 0L8.0625 3.09375L7.3125 4.96875L0 2.53125Z" sodipodi:nodetypes="ccccc"/><ellipse id="shape03" transform="matrix(0.749997428256279 0 0 0.700000887083956 372.750020656473 256)" rx="7" ry="7.5" cx="7" cy="7.5" fill="#59769b" fill-rule="evenodd" stroke="#41434a" stroke-width="3" stroke-linecap="square" stroke-linejoin="bevel"/><path id="shape04" transform="matrix(0.510181787677466 0 0 0.510181787677466 134.841523739405 273.759285167126)" sodipodi:type="arc" sodipodi:rx="7" sodipodi:ry="7.5" sodipodi:cx="7.0003349362614" sodipodi:cy="7.50052740581032" sodipodi:start="2.28898047809192" sodipodi:end="4.89428922071203" sodipodi:open="true" d="M8.26663 0.124265C5.16688 -0.486607 2.06835 1.19737 0.697334 4.238C-0.673686 7.27863 0.020937 10.926 2.39421 13.148" fill="#59769b" fill-rule="evenodd" stroke="#41434a" stroke-width="3" stroke-linecap="square" stroke-linejoin="bevel"/><path id="shape15" transform="translate(140.342931594895, 433.124995562864)" fill="#697b6d" fill-rule="evenodd" d="M0.282067 21.75C90.1421 22.7684 181.674 16.4708 275.532 0C277.089 7.44599 279.11 14.834 272.907 23.25C179.892 36.8371 89.265 45.3488 4.21957 42C-0.0351299 36.4269 -0.426439 29.3084 0.282067 21.75Z" sodipodi:nodetypes="ccccc"/><g id="group2" transform="matrix(0.789503248904384 -0.0371666413231751 0.0371666413231751 0.789503248904384 211.025119553138 451.619165832585)" fill="none">
  <rect id="shape16" fill="#878f94" fill-rule="evenodd" width="50" height="34" rx="2.93751053480281" ry="2.93751053480281"/>
  <rect id="shape17" transform="translate(4.37499997660041, 3.74999903119192)" fill="none" stroke="#000000" stroke-width="3" stroke-linecap="square" stroke-linejoin="miter" stroke-miterlimit="2" width="41" height="27" rx="1.40625262866189" ry="1.40625262866189"/>
  <rect id="shape18" transform="matrix(0.71632568123489 0 0 0.828124966835753 14.2238602574415 11.6249815935007)" fill="#635830" fill-rule="evenodd" stroke="#000000" stroke-width="4" stroke-linecap="square" stroke-linejoin="miter" stroke-miterlimit="2" width="30" height="14" rx="0.73448890853598" ry="0.73448890853598"/>
  <rect id="shape19" transform="translate(21.0312500015425, 5.06249994348013)" fill="#4d3c2b" fill-rule="evenodd" width="8" height="5"/>
  <rect id="shape20" transform="matrix(1 0 0 1.81249992741521 20.8125000075088 24.3749810829041)" fill="#131211" fill-rule="evenodd" width="8" height="3"/>
 </g><g id="group3" transform="matrix(1.20929211884633 -0.0564846979349094 0.0564846979349094 1.20929211884633 149.738771487385 455.427171807748)" fill="none">
  <rect id="shape22" fill="#878f94" fill-rule="evenodd" width="28" height="44" rx="1.37500803438275" ry="1.37500803438275"/>
  <rect id="shape23" transform="matrix(0.869048118913004 0 0 1.11249998860305 4.99998747652083 5.1249953747465)" fill="#649ebd" fill-rule="evenodd" stroke="#000000" stroke-width="4" stroke-linecap="square" stroke-linejoin="miter" stroke-miterlimit="2" width="21" height="15" rx="1.07876649174315" ry="1.07876649174315"/>
  <rect id="shape05" transform="matrix(3.82910954258809e-16 -0.442904242461501 0.512029752259536 -1.06185390676813e-16 5.01908156097761 40.4711163758326)" fill="#635830" fill-rule="evenodd" stroke="#000000" stroke-width="4" stroke-linecap="square" stroke-linejoin="miter" stroke-miterlimit="2" width="30" height="14" rx="0.73448890853598" ry="0.73448890853598"/>
  <rect id="shape06" transform="matrix(3.82910954258809e-16 -0.442904242461501 0.512029752259536 -1.06185390676813e-16 15.949595482716 40.5168405910788)" fill="#635830" fill-rule="evenodd" stroke="#000000" stroke-width="4" stroke-linecap="square" stroke-linejoin="miter" stroke-miterlimit="2" width="30" height="14" rx="0.73448890853598" ry="0.73448890853598"/>
 </g><g id="group4" transform="matrix(1.1260552911961 -0.0861542071779525 0.0861542071779525 1.1260552911961 284.772111091319 448.971524708875)" fill="none">
  <rect id="shape24" fill="#878f94" fill-rule="evenodd" width="30" height="53" rx="2.12502171433607" ry="2.12502171433607"/>
  <rect id="shape25" transform="matrix(1 0 0 0.756250946856142 10.4375000392901 29.9999814033914)" fill="#635830" fill-rule="evenodd" stroke="#000000" stroke-width="4" stroke-linecap="square" stroke-linejoin="miter" stroke-miterlimit="2" width="9" height="20" rx="1.31251208161405" ry="1.31251208161405"/>
  <path id="shape26" transform="translate(10.437488248775, 17.0624817315119)" fill="none" stroke="#656565" stroke-width="2" stroke-linecap="square" stroke-linejoin="miter" stroke-miterlimit="2" d="M0 0.09375L8.25 0" sodipodi:nodetypes="cc"/>
  <rect id="shape27" transform="matrix(0.927499138525554 0 0 0.963647858023929 3.37499991420196 2.74999995785771)" fill="none" stroke="#626262" stroke-width="3" stroke-linecap="square" stroke-linejoin="miter" stroke-miterlimit="2" width="25" height="49" rx="1.81940857089342" ry="1.81940857089342"/>
 </g>
</svg>
