<?xml version="1.0" standalone="no"?>
<!DOCTYPE svg PUBLIC "-//W3C//DTD SVG 20010904//EN" "http://www.w3.org/TR/2001/REC-SVG-20010904/DTD/svg10.dtd">
<!-- Created using Krita: https://krita.org -->
<svg xmlns="http://www.w3.org/2000/svg" 
    xmlns:xlink="http://www.w3.org/1999/xlink"
    xmlns:krita="http://krita.org/namespaces/svg/krita"
    xmlns:sodipodi="http://sodipodi.sourceforge.net/DTD/sodipodi-0.dtd"
    width="512pt"
    height="512pt"
    viewBox="0 0 512 512">
    <style>
        .uniform-color {
            color: #CE3C34;
        }
    </style>
<defs/>
<path id="shape0" transform="translate(130.914529598362, 237.999979847836)" fill="#262626" fill-rule="evenodd" stroke-opacity="0" stroke="#000000" stroke-width="0" stroke-linecap="square" stroke-linejoin="bevel" d="M11.3511 32.25C30.5885 32.6062 62.6508 33.2 107.538 34.0312L107.807 47.2477L125.085 47.6719L125.085 34.6406L260.726 0C289.243 94.8833 294.118 186.217 275.351 274L20.3511 274C-3.34892 145.933 -6.34892 65.35 11.3511 32.25Z" sodipodi:nodetypes="ccccccccc"/><path id="shape11" transform="translate(128.733437220597, 248.624979645305)" fill="currentColor" class="uniform-color" fill-rule="evenodd" stroke-opacity="0" stroke="#000000" stroke-width="0" stroke-linecap="square" stroke-linejoin="bevel" d="M1.76654 119.625L262.392 115.125L288.642 134.25C286.792 71.35 279.042 26.6 265.392 0C237.767 7.3875 191.725 19.7 127.267 36.9375L127.267 117.465L109.021 117.709L109.954 38.4375C62.9663 36.25 29.4039 34.6875 9.26654 33.75C0.391558 54.075 -2.10846 82.7 1.76654 119.625Z" sodipodi:nodetypes="cccccccccc"/><path id="shape9" transform="matrix(1 0 0 1.07149268034847 246.124984073866 288.749998526589)" fill="none" stroke="#000000" stroke-width="4" stroke-linecap="square" stroke-linejoin="miter" stroke-miterlimit="2" d="M0 0L0 208.354" sodipodi:nodetypes="cc"/><path id="shape1" transform="translate(128.546287194195, 344)" fill="#262626" fill-rule="evenodd" stroke-opacity="0" stroke="#000000" stroke-width="0" stroke-linecap="square" stroke-linejoin="bevel" d="M0.258398 0.140625C21.2975 0.1125 56.3626 0.065625 105.454 0L105.454 18L1.52402 18.0703C0.0896503 16.0312 -0.332227 10.0547 0.258398 0.140625Z" sodipodi:nodetypes="ccccc"/><path id="shape2" transform="translate(263, 342.156250004305)" fill="#262626" fill-rule="evenodd" stroke-opacity="0" stroke="#000000" stroke-width="0" stroke-linecap="square" stroke-linejoin="bevel" d="M0 0.5625L148.062 0L151.156 29.9375L133 17.2812L0 17.5625Z" sodipodi:nodetypes="cccccc"/><path id="shape3" transform="translate(138.796866155727, 282.812481722304)" fill="none" stroke="#000000" stroke-width="4" stroke-linecap="square" stroke-linejoin="miter" stroke-miterlimit="2" d="M0 0L117.203 4.3125" sodipodi:nodetypes="cc"/><path id="shape4" transform="translate(256, 249.718733841362)" fill="none" stroke="#000000" stroke-width="4" stroke-linecap="square" stroke-linejoin="miter" stroke-miterlimit="2" d="M0 37.4062L137.328 0" sodipodi:nodetypes="cc"/><path id="shape5" transform="translate(135.890616248787, 291.578106141134)" fill="none" stroke="#000000" stroke-width="4" stroke-linecap="square" stroke-linejoin="miter" stroke-miterlimit="2" d="M0 0L120.109 3.04687" sodipodi:nodetypes="cc"/><path id="shape6" transform="translate(256, 258.906233246863)" fill="none" stroke="#000000" stroke-width="4" stroke-linecap="square" stroke-linejoin="miter" stroke-miterlimit="2" d="M0 35.7187L140.844 0" sodipodi:nodetypes="cc"/><path id="shape7" transform="translate(132.718745367449, 368.437487139679)" fill="none" stroke="#000000" stroke-width="4" stroke-linecap="square" stroke-linejoin="miter" stroke-miterlimit="2" d="M0 0.890625L105.844 0" sodipodi:nodetypes="cc"/><path id="shape10" transform="translate(238.56249167297, 294.562489718288)" fill="none" stroke="#000000" stroke-width="4" stroke-linecap="square" stroke-linejoin="miter" stroke-miterlimit="2" d="M0 73.875L0 0" sodipodi:nodetypes="cc"/><path id="shape12" transform="translate(256, 295.874989672475)" fill="none" stroke="#000000" stroke-width="4" stroke-linecap="square" stroke-linejoin="miter" stroke-miterlimit="2" d="M0 0L0 72.1875" sodipodi:nodetypes="cc"/><path id="shape13" transform="translate(256, 365.437487244394)" fill="none" stroke="#000000" stroke-width="4" stroke-linecap="square" stroke-linejoin="miter" stroke-miterlimit="2" d="M0 2.8125L135.937 0" sodipodi:nodetypes="cc"/><path id="shape14" transform="translate(391.937486319411, 365.437487244394)" fill="none" stroke="#000000" stroke-width="4" stroke-linecap="square" stroke-linejoin="miter" stroke-miterlimit="2" d="M0 0L22.9687 18.0937" sodipodi:nodetypes="cc"/><g id="group0" transform="matrix(0.0300059796223986 0 0 0.0300059796223986 265.169989969252 370.062990570675)" fill="none">
  <g id="group1" transform="translate(0, 327.406985136646)" fill="none">
   <path id="shape01" fill="#a37e28" fill-rule="evenodd" stroke-opacity="0" stroke="#000000" stroke-width="0" stroke-linecap="square" stroke-linejoin="bevel" d="M407.7 0L112.86 4.32L88.56 23.76L0 362.88L10.26 387.72L215.46 447.12L278.64 286.605L189.945 289.575L159.705 283.23L115.02 250.56L114.345 181.71L143.37 149.31L183.465 136.62L343.44 139.455L407.16 9.72Z" sodipodi:nodetypes="cccccccccccccccc"/>
   <path id="shape15" transform="translate(758.699994196419, 1.43999998898471)" fill="#a37e28" fill-rule="evenodd" stroke-opacity="0" stroke="#000000" stroke-width="0" stroke-linecap="square" stroke-linejoin="bevel" d="M0 0L296.46 3.78L319.14 13.5L325.62 33.48L410.4 361.8L406.08 381.24L386.64 391.5L180.36 447.12L118.935 286.335L240.3 285.66L271.62 279.315L309.96 250.83L317.79 199.53L301.86 161.865L257.31 135.945L57.915 135.81Z" sodipodi:nodetypes="ccccccccccccccccc"/>
  </g>
  <path id="shape011" transform="translate(1.92849565937644, 328.306962470851)" fill="none" stroke="#000000" stroke-width="10.8" stroke-linecap="square" stroke-linejoin="bevel" d="M407.031 0L125.151 3.24C101.247 3.384 88.2875 12.744 86.2715 31.32C69.2075 96.552 40.7675 205.272 0.951497 357.48C-2.4595 375.075 3.3005 385.875 18.2315 389.88C148.119 425.592 212.919 443.592 212.631 443.88" sodipodi:nodetypes="cccccc"/>
  <path id="shape111" transform="translate(112.3199984772, 463.666984094343)" fill="none" stroke="#000000" stroke-width="10.8" stroke-linecap="square" stroke-linejoin="bevel" d="M692.64 2.47909e-15L876.96 0C924.677 2.18621e-15 963.36 28.9434 963.36 64.6468L963.36 87.2732C963.36 122.976 924.677 151.92 876.96 151.92L777.285 151.92M155.88 151.92L86.4 151.92C38.6826 151.92 8.36716e-15 122.976 1.42109e-14 87.2732L0 64.6468C5.8437e-15 28.9434 38.6826 8.44673e-15 86.4 1.0633e-14L246.6 8.47831e-15" sodipodi:nodetypes="cccccccccccc"/>
  <path id="shape0111" transform="matrix(-1 0 0 1 1167.9554959494 328.475050006844)" fill="none" stroke="#000000" stroke-width="10.8" stroke-linecap="square" stroke-linejoin="bevel" d="M407.031 0L125.151 3.24C101.247 3.384 88.2875 12.744 86.2715 31.32C69.2075 96.552 40.7675 205.272 0.951497 357.48C-2.4595 375.075 3.3005 385.875 18.2315 389.88C148.119 425.592 227.499 443.592 227.211 443.88" sodipodi:nodetypes="cccccc"/>
  <path id="shape02" transform="translate(41.0877111712979, 0)" fill="#b2b2b2" stroke="#000000" stroke-width="10.8" stroke-linecap="square" stroke-linejoin="miter" stroke-miterlimit="2.16000008583069" d="M549.065 0C288.677 436.964 105.655 888.013 0 1353.15L36.8011 1371.94C240.478 1070.25 472.297 921.381 732.257 925.339C744.677 936.217 931.709 1051.71 990.954 1207.01C997.726 1204.64 1009.01 1202.86 1024.81 1201.65C928.711 808.63 770.128 408.079 549.065 0Z" sodipodi:nodetypes="ccccccc"/>
 </g>
</svg>
