<?xml version="1.0" standalone="no"?>
<!DOCTYPE svg PUBLIC "-//W3C//DTD SVG 20010904//EN" "http://www.w3.org/TR/2001/REC-SVG-20010904/DTD/svg10.dtd">
<!-- Created using Krita: https://krita.org -->
<svg xmlns="http://www.w3.org/2000/svg" 
    xmlns:xlink="http://www.w3.org/1999/xlink"
    xmlns:krita="http://krita.org/namespaces/svg/krita"
    xmlns:sodipodi="http://sodipodi.sourceforge.net/DTD/sodipodi-0.dtd"
    width="512pt"
    height="512pt"
    viewBox="0 0 512 512">
    <style>
        .uniform-color {
            color: #CE3C34;
        }
    </style>
<defs/>
<path id="shape0" transform="translate(132.902489899403, 252.156229479431)" fill="currentColor" class="uniform-color" fill-rule="evenodd" stroke-opacity="0" stroke="#000000" stroke-width="0" stroke-linecap="square" stroke-linejoin="bevel" d="M14.0975 260.125L277.067 260.125C286.679 189.558 285.442 18.2 259.629 0L102.93 32.306L96.6197 63.2298L92.5822 32.8125L10.0663 20.9062C-8.59001 44.2875 2.22249 199.058 14.0975 260.125Z" sodipodi:nodetypes="cccccccc"/><path id="shape1" transform="translate(131.368716198642, 255.983111552627)" fill="#000000" fill-rule="evenodd" stroke-opacity="0" stroke="#000000" stroke-width="0" stroke-linecap="square" stroke-linejoin="bevel" d="M91.3813 33.4856C91.775 33.5981 93.5563 52.1606 98.6001 65.9231C100.038 53.0481 107.762 31.7981 107.897 31.4231C126.444 30.4512 264.626 -0.829993 264.444 0.0168883C273.861 8.9497 282.931 55.7231 283.85 115.798C275.05 88.8981 268.55 69.5231 264.35 57.6731C217.625 73.6981 136 78.3231 19.475 71.5481L1.10002 111.298C0.321896 60.5762 -3.15467 62.7325 8.3422 19.845C9.0391 20.3044 74.9844 32.5387 91.3813 33.4856Z" sodipodi:nodetypes="cccccccccc"/><g id="group0" transform="matrix(0.0298093968012932 0 0 0.0298093968012932 264.149998936036 369.313010378148)" fill="none">
  <ellipse id="shape01" transform="translate(0, 450.346987930347)" rx="676.8" ry="374.76" cx="676.8" cy="374.76" fill="#a37e28" fill-rule="evenodd" stroke="#000000" stroke-width="10.8" stroke-linecap="square" stroke-linejoin="bevel"/>
  <path id="shape011" transform="translate(124.607710143104, 0)" fill="#b2b2b2" stroke="#000000" stroke-width="10.8" stroke-linecap="square" stroke-linejoin="miter" stroke-miterlimit="2.16000008583069" d="M549.065 0C288.677 436.964 105.655 888.013 0 1353.15L36.8011 1371.94C240.478 1070.25 472.297 921.381 732.257 925.339C744.677 936.217 931.709 1051.71 990.954 1207.01C997.726 1204.64 1009.01 1202.86 1024.81 1201.65C928.711 808.63 770.128 408.079 549.065 0Z" sodipodi:nodetypes="ccccccc"/>
 </g>
</svg>
