<?xml version="1.0" standalone="no"?>
<!DOCTYPE svg PUBLIC "-//W3C//DTD SVG 20010904//EN" "http://www.w3.org/TR/2001/REC-SVG-20010904/DTD/svg10.dtd">
<!-- Created using Krita: https://krita.org -->
<svg xmlns="http://www.w3.org/2000/svg" 
    xmlns:xlink="http://www.w3.org/1999/xlink"
    xmlns:krita="http://krita.org/namespaces/svg/krita"
    xmlns:sodipodi="http://sodipodi.sourceforge.net/DTD/sodipodi-0.dtd"
    width="512pt"
    height="512pt"
    viewBox="0 0 512 512">
<defs/>
<path id="shape0" transform="translate(138.999995867412, 386.499988481403)" fill="none" stroke="#141414" stroke-width="12" stroke-linecap="square" stroke-linejoin="miter" stroke-miterlimit="2" d="M0 0L16.5 4" sodipodi:nodetypes="cc"/><path id="shape1" transform="translate(147.249995666246, 404.499987944961)" fill="none" stroke="#141414" stroke-width="12" stroke-linecap="square" stroke-linejoin="miter" stroke-miterlimit="2" d="M0 0L12 10" sodipodi:nodetypes="cc"/><path id="shape2" transform="translate(138.249995864928, 410.499987746279)" fill="none" stroke="#141414" stroke-width="12" stroke-linecap="square" stroke-linejoin="miter" stroke-miterlimit="2" d="M0 0L8.5 18.5" sodipodi:nodetypes="cc"/><path id="shape3" transform="translate(128.249996162951, 407.499987835686)" fill="none" stroke="#141414" stroke-width="12" stroke-linecap="square" stroke-linejoin="miter" stroke-miterlimit="2" d="M0 0L2.5 24" sodipodi:nodetypes="cc"/><path id="shape01" transform="translate(372.812490038574, 310.399999843538)" fill="#000000" fill-rule="evenodd" stroke-opacity="0" stroke="#000000" stroke-width="0" stroke-linecap="square" stroke-linejoin="bevel" d="M0 16.375L5 36L32.625 27.75L12.625 0Z" sodipodi:nodetypes="ccccc"/><path id="shape02" transform="translate(374.999989844859, 188.350003345311)" fill="#000000" fill-rule="evenodd" stroke-opacity="0" stroke="#000000" stroke-width="0" stroke-linecap="square" stroke-linejoin="bevel" d="M0 20.375L25.5 45.5L43.125 25.75L17.125 0Z" sodipodi:nodetypes="ccccc"/><path id="shape03" transform="translate(112.637497578561, 358.799998144806)" fill="#000000" fill-rule="evenodd" stroke-opacity="0" stroke="#000000" stroke-width="0" stroke-linecap="square" stroke-linejoin="bevel" d="M0 9.875L7 40.5L28.625 28.75L23.125 0Z" sodipodi:nodetypes="ccccc"/><path id="shape04" transform="translate(94.2249980553985, 273.450000573695)" fill="#000000" fill-rule="evenodd" stroke-opacity="0" stroke="#000000" stroke-width="0" stroke-linecap="square" stroke-linejoin="bevel" d="M0 9.875L3.5 38.5L24.125 30.75L23.125 0Z" sodipodi:nodetypes="ccccc"/><path id="shape05" transform="translate(98.3124971762301, 176.287502525747)" fill="#000000" fill-rule="evenodd" stroke-opacity="0" stroke="#000000" stroke-width="0" stroke-linecap="square" stroke-linejoin="bevel" d="M21 0L0 39.125L19.625 50.375L44.125 26.625Z" sodipodi:nodetypes="ccccc"/><path id="shape06" transform="matrix(-0.969049529214654 -0.246866380718111 -0.246866380718111 0.969049529214654 212.219362521083 474.365674345392)" fill="#000000" fill-rule="evenodd" stroke-opacity="0" stroke="#000000" stroke-width="0" stroke-linecap="square" stroke-linejoin="bevel" d="M8.62148 4.76217L0 18.8528L36.04 17.0361L35.1621 0Z" sodipodi:nodetypes="ccccc"/><path id="shape07" transform="matrix(-0.969049529214654 -0.246866380718111 -0.246866380718111 0.969049529214654 208.945653087145 357.645432575898)" fill="#000000" fill-rule="evenodd" stroke-opacity="0" stroke="#000000" stroke-width="0" stroke-linecap="square" stroke-linejoin="bevel" d="M14.2105 0L0 43.625L19.5395 50.375L33.75 15.125Z" sodipodi:nodetypes="ccccc"/><path id="shape08" transform="matrix(-1 0 0 1 335.624991271645 244.162500502914)" fill="#000000" fill-rule="evenodd" stroke-opacity="0" stroke="#000000" stroke-width="0" stroke-linecap="square" stroke-linejoin="bevel" d="M14.2105 0L0 43.625L19.5395 50.375L33.75 15.125Z" sodipodi:nodetypes="ccccc"/><path id="shape4" transform="translate(173.249994836748, 247.750000245869)" fill="#000000" fill-rule="evenodd" stroke-opacity="0" stroke="#000000" stroke-width="0" stroke-linecap="square" stroke-linejoin="bevel" d="M15 0L0 43.625L20.625 50.375L35.625 15.125Z" sodipodi:nodetypes="ccccc"/><ellipse id="shape09" transform="translate(151, 43)" rx="104" ry="122.5" cx="104" cy="122.5" fill="#dbe2e3" fill-rule="evenodd" stroke-opacity="0" stroke="#000000" stroke-width="0" stroke-linecap="square" stroke-linejoin="bevel"/><ellipse id="shape11" transform="matrix(0.804523221541725 0.593921195109358 -0.593921195109358 0.804523221541725 181.50216317563 50.8802914260385)" rx="13.5" ry="22.5" cx="13.5" cy="22.5" fill="#dbe2e3" fill-rule="evenodd" stroke-opacity="0" stroke="#000000" stroke-width="0" stroke-linecap="square" stroke-linejoin="bevel"/><ellipse id="shape12" transform="matrix(0.618254626240965 -0.785977873181977 0.785977873181977 0.618254626240965 302.938913926728 71.7989141783137)" rx="13.5" ry="22.5" cx="13.5" cy="22.5" fill="#dbe2e3" fill-rule="evenodd" stroke-opacity="0" stroke="#000000" stroke-width="0" stroke-linecap="square" stroke-linejoin="bevel"/><path id="shape5" transform="translate(105.749996848404, 157.195469152703)" fill="#dbe2e3" fill-rule="evenodd" stroke-opacity="0" stroke="#000000" stroke-width="0" stroke-linecap="square" stroke-linejoin="bevel" d="M46.125 0.304526C37.3886 -1.8773 13.1888 7.83667 0 23.9295C14.4195 39.0814 17.6146 54.6194 32.25 65.9295C40.6191 55.0094 49.1856 46.7597 53.625 35.9295Z" sodipodi:nodetypes="ccccc"/><path id="shape010" transform="matrix(-1 0 0 1 403.124987985936 164.163419415562)" fill="#dbe2e3" fill-rule="evenodd" stroke-opacity="0" stroke="#000000" stroke-width="0" stroke-linecap="square" stroke-linejoin="bevel" d="M45.2864 0.304526C36.7088 -1.8773 12.949 7.83667 0 23.9295C14.1573 39.0814 17.2943 54.6194 31.6636 65.9295C39.8806 55.0094 48.2913 46.7597 52.65 35.9295Z" sodipodi:nodetypes="ccccc"/><ellipse id="shape6" transform="translate(174.500010058286, 60.4999981969591)" rx="81.4999899417141" ry="84.0000018030409" cx="81.4999899417141" cy="84.0000018030409" fill="#a4abac" fill-rule="evenodd" stroke-opacity="0" stroke="#000000" stroke-width="0" stroke-linecap="square" stroke-linejoin="bevel"/><path id="shape7" transform="translate(240.750000454485, 55.0673569548633)" fill="none" stroke="#4a5557" stroke-width="4" stroke-linecap="square" stroke-linejoin="miter" stroke-miterlimit="2" d="M0 1.74514C9.37912 -0.49894 19.2949 -0.986782 30.5 2.74514" sodipodi:nodetypes="cc"/><path id="shape8" transform="translate(187.499999999999, 86.8124999999996)" fill="#4a5557" fill-rule="evenodd" stroke-opacity="0" stroke="#000000" stroke-width="0" stroke-linecap="square" stroke-linejoin="bevel" d="M11.25 0L0 15.1875C6.81597 17.0438 7.96285 17.5081 11.625 11.0625C16.6348 6.625 16.2707 5.75 11.25 0Z" sodipodi:nodetypes="cccc"/><path id="shape011" transform="matrix(-0.585062868115293 -0.810987940941616 0.810987940941616 -0.585062868115293 249.528220935542 236.891619047211)" fill="#4a5557" fill-rule="evenodd" stroke-opacity="0" stroke="#000000" stroke-width="0" stroke-linecap="square" stroke-linejoin="bevel" d="M15.3512 0L0 20.552C8.1943 25.9458 9.49324 26.5198 16.4638 16.4498C22.097 9.22521 24.0116 5.83253 15.3512 0Z" sodipodi:nodetypes="cccc"/><path id="shape012" transform="matrix(-0.23269150392227 0.972550597142585 -0.972550597142585 -0.23269150392227 330.885641249468 93.9304993228609)" fill="#4a5557" fill-rule="evenodd" stroke-opacity="0" stroke="#000000" stroke-width="0" stroke-linecap="square" stroke-linejoin="bevel" d="M11.25 0L0 15.1875C6.81597 17.0438 7.96285 17.5081 11.625 11.0625C16.6348 6.625 16.2707 5.75 11.25 0Z" sodipodi:nodetypes="cccc"/><ellipse id="shape9" transform="translate(252, 64.6875)" rx="4" ry="3.5" cx="4" cy="3.5" fill="#4a5557" fill-rule="evenodd" stroke-opacity="0" stroke="#000000" stroke-width="0" stroke-linecap="square" stroke-linejoin="bevel"/><path id="shape10" transform="translate(290.604327081841, 50.2499970048666)" fill="none" stroke="#b2b2b2" stroke-width="1" stroke-linecap="square" stroke-linejoin="bevel" d="M0.395656 0C-1.5331 10.1311 3.94475 14.2023 9.14565 18.5C66.4934 54.7656 57.3409 104.443 56.8957 124.25C55.8132 161.098 16.69 173.766 18.3957 192C24.6126 207.299 24.3771 207.157 29.3957 211.75" sodipodi:nodetypes="ccccc"/><g id="group0" transform="matrix(0.0161225851230179 0.000569599150806046 -0.000775260927294044 0.0219438710102716 334.387929485648 167.717675015702)" fill="none">
  <path id="shape21" fill="#a25c27" stroke-opacity="0" stroke="#000000" stroke-width="0" stroke-linecap="square" stroke-linejoin="bevel" d="M410.645 0L401.416 15.2304L392.273 30.4764L383.218 45.7379L374.251 61.0151L365.371 76.3077L356.579 91.6157L347.874 106.94L339.256 122.28L330.726 137.635L322.284 153.005L313.929 168.391L305.661 183.793L297.481 199.211L289.388 214.643L281.383 230.092L273.465 245.556L265.635 261.036L257.892 276.531L250.237 292.042L242.669 307.568L235.189 323.11L227.796 338.668L220.49 354.241L213.272 369.829L206.142 385.434L199.099 401.053L192.143 416.689L185.275 432.34L178.495 448.006L171.802 463.689L165.196 479.386L158.678 495.1L152.247 510.829L145.904 526.573L139.648 542.333L133.48 558.109L127.399 573.9L121.406 589.707L115.5 605.529L109.681 621.367L103.95 637.221L98.307 653.09L92.751 668.974L87.282 684.875L81.901 700.79L76.608 716.722L71.402 732.669L66.283 748.632L61.252 764.61L56.308 780.603L51.452 796.613L46.683 812.638L42.002 828.678L37.408 844.734L32.902 860.806L28.483 876.893L24.151 892.996L19.908 909.114L15.751 925.248L11.682 941.398L7.701 957.563L3.807 973.747L0 989.937L27.524 1003.69L34.793 993.257L42.095 983.007L49.428 972.917L56.793 962.998L64.19 953.249L71.619 943.668L79.08 934.257L86.572 925.014L94.096 915.941L101.652 907.037L109.24 898.301L116.86 889.735L124.512 881.337L132.195 873.109L139.91 865.05L147.657 857.159L155.436 849.438L163.246 841.886L171.089 834.502L178.963 827.288L186.869 820.243L194.807 813.366L202.777 806.659L210.778 800.121L218.812 793.752L226.877 787.551L234.974 781.52L243.102 775.658L251.263 769.965L259.455 764.441L267.68 759.086L275.936 753.899L284.224 748.882L292.543 744.034L300.895 739.355L309.278 734.845L317.693 730.504L326.14 726.332L334.619 722.329L343.13 718.495L351.672 714.83L360.246 711.334L368.852 708.007L377.49 704.849L386.16 701.86L394.861 699.04L403.594 696.389L412.36 693.907L421.157 691.595L429.985 689.451L438.846 687.476L447.738 685.67L456.662 684.033L465.618 682.566L474.606 681.267L483.626 680.137L492.677 679.176L501.761 678.385L510.876 677.762L520.023 677.308L529.202 677.024L538.412 676.908L547.654 676.961L548.195 677.398L548.927 677.949L549.845 678.614L550.945 679.391L552.221 680.279L553.667 681.277L555.277 682.384L557.047 683.598L558.971 684.919L561.044 686.346L563.26 687.877L565.614 689.511L568.099 691.248L570.712 693.085L573.446 695.022L576.296 697.057L579.257 699.19L582.323 701.42L585.489 703.744L588.749 706.163L592.098 708.675L595.53 711.278L599.04 713.972L602.623 716.756L606.273 719.628L609.985 722.588L613.753 725.633L617.572 728.763L621.437 731.978L625.341 735.275L629.281 738.653L633.249 742.112L637.241 745.65L641.251 749.267L645.275 752.96L649.306 756.73L653.338 760.574L657.368 764.491L661.389 768.482L665.395 772.543L669.382 776.675L673.344 780.875L677.275 785.144L681.17 789.479L685.024 793.88L688.831 798.346L692.586 802.875L696.283 807.466L699.917 812.118L703.483 816.83L706.975 821.601L710.387 826.43L713.715 831.315L716.952 836.256L720.094 841.251L723.134 846.299L726.069 851.399L728.891 856.549L731.596 861.75L734.178 866.999L736.632 872.296L738.952 877.639L741.134 883.027L741.455 882.919L741.784 882.812L742.123 882.707L742.47 882.602L742.826 882.499L743.191 882.397L743.565 882.296L743.947 882.196L744.339 882.097L744.739 881.999L745.147 881.902L745.565 881.807L745.991 881.713L746.427 881.619L746.871 881.527L747.323 881.436L747.785 881.346L748.255 881.257L748.735 881.17L749.222 881.083L749.719 880.998L750.225 880.913L750.739 880.83L751.262 880.748L751.794 880.667L752.335 880.587L752.884 880.508L753.442 880.43L754.01 880.353L754.585 880.278L755.17 880.203L755.764 880.13L756.366 880.058L756.977 879.987L757.597 879.917L758.225 879.848L758.863 879.78L759.509 879.713L760.164 879.647L760.828 879.583L761.5 879.519L762.182 879.457L762.872 879.396L763.571 879.335L764.279 879.276L764.995 879.218L765.72 879.161L766.455 879.105L762.997 865.409L759.468 851.705L755.869 837.993L752.199 824.272L748.459 810.543L744.648 796.805L740.766 783.059L736.814 769.305L732.791 755.542L728.697 741.772L724.533 727.992L720.298 714.205L715.993 700.409L711.616 686.605L707.17 672.792L702.652 658.972L698.064 645.143L693.405 631.305L688.676 617.459L683.876 603.605L679.005 589.743L674.064 575.872L669.052 561.993L663.969 548.105L658.816 534.21L653.592 520.305L648.297 506.393L642.932 492.472L637.496 478.543L631.99 464.606L626.413 450.66L620.765 436.706L615.046 422.744L609.257 408.773L603.398 394.794L597.467 380.807L591.466 366.811L585.395 352.807L579.252 338.795L573.04 324.774L566.756 310.745L560.402 296.708L553.977 282.662L547.481 268.608L540.915 254.546L534.279 240.475L527.571 226.396L520.793 212.309L513.944 198.213L507.025 184.109L500.035 169.997L492.974 155.876L485.843 141.747L478.641 127.61L471.369 113.465L464.026 99.3107L456.612 85.1477L449.127 70.9776L441.572 56.7987L433.946 42.6115L426.25 28.416L418.483 14.2122L410.645 0" sodipodi:nodetypes="cccccccccccccccccccccccccccccccccccccccccccccccccccccccccccccccccccccccccccccccccccccccccccccccccccccccccccccccccccccccccccccccccccccccccccccccccccccccccccccccccccccccccccccccccccccccccccccccccccccccccccccccccccccccccccccccccccccccccccccccccccccccccccccccccccccccccccccccccccccccccccccccccccccccccccccc"/>
  <path id="shape013" transform="matrix(-0.996148572229009 6.93889390390723e-18 6.93889390390723e-18 0.917649583094294 747.58654928163 25.4696141710884)" fill="#e1a576" fill-rule="evenodd" stroke="#a35d28" stroke-width="27.36" stroke-linecap="square" stroke-linejoin="round" d="M266.567 133.772L338.242 0L319.321 1107.28L37.2082 944.423C12.0076 481.295 -0.391989 233.838 0.00944142 202.052C36.6145 187.791 125.467 165.031 266.567 133.772Z" sodipodi:nodetypes="cccccc"/>
  <path id="shape0111" transform="matrix(0.996148572229009 -6.93889390390723e-18 6.93889390390723e-18 0.917649583094294 59.9349998081853 22.4884615353194)" fill="#e1a576" fill-rule="evenodd" stroke="#a35d28" stroke-width="27.36" stroke-linecap="square" stroke-linejoin="round" d="M352.069 0L356.813 1273.62L0 1134.3C6.52118 562.965 10.1352 254.831 10.8421 209.898C38.7071 199.38 124.012 176.223 266.758 140.427Z" sodipodi:nodetypes="cccccc"/>
  <path id="shape211" transform="translate(1.85299508992836, 6.9094950452627)" fill="none" stroke="#9c6e2e" stroke-width="47.52" stroke-linecap="square" stroke-linejoin="miter" stroke-miterlimit="2.16000008583069" d="M410.645 0L401.416 15.2304L392.273 30.4764L383.218 45.7379L374.251 61.0151L365.371 76.3077L356.579 91.6157L347.874 106.94L339.256 122.28L330.726 137.635L322.284 153.005L313.929 168.391L305.661 183.793L297.481 199.211L289.388 214.643L281.383 230.092L273.465 245.556L265.635 261.036L257.892 276.531L250.237 292.042L242.669 307.568L235.189 323.11L227.796 338.668L220.49 354.241L213.272 369.829L206.142 385.434L199.099 401.053L192.143 416.689L185.275 432.34L178.495 448.006L171.802 463.689L165.196 479.386L158.678 495.1L152.247 510.829L145.904 526.573L139.648 542.333L133.48 558.109L127.399 573.9L121.406 589.707L115.5 605.529L109.681 621.367L103.95 637.221L98.307 653.09L92.751 668.974L87.282 684.875L81.901 700.79L76.608 716.722L71.402 732.669L66.283 748.632L61.252 764.61L56.308 780.603L51.452 796.613L46.683 812.638L42.002 828.678L37.408 844.734L32.902 860.806L28.483 876.893L24.151 892.996L19.908 909.114L15.751 925.248L11.682 941.398L7.701 957.563L3.807 973.747L0 989.937L27.524 1003.69L34.793 993.257L42.095 983.007L49.428 972.917L56.793 962.998L64.19 953.249L71.619 943.668L79.08 934.257L86.572 925.014L94.096 915.941L101.652 907.037L109.24 898.301L116.86 889.735L124.512 881.337L132.195 873.109L139.91 865.05L147.657 857.159L155.436 849.438L163.246 841.886L171.089 834.502L178.963 827.288L186.869 820.243L194.807 813.366L202.777 806.659L210.778 800.121L218.812 793.752L226.877 787.551L234.974 781.52L243.102 775.658L251.263 769.965L259.455 764.441L267.68 759.086L275.936 753.899L284.224 748.882L292.543 744.034L300.895 739.355L309.278 734.845L317.693 730.504L326.14 726.332L334.619 722.329L343.13 718.495L351.672 714.83L360.246 711.334L368.852 708.007L377.49 704.849L386.16 701.86L394.861 699.04L403.594 696.389L412.36 693.907L421.157 691.595L429.985 689.451L438.846 687.476L447.738 685.67L456.662 684.033L465.618 682.566L474.606 681.267L483.626 680.137L492.677 679.176L501.761 678.385L510.876 677.762L520.023 677.308L529.202 677.024L538.412 676.908L547.654 676.961L548.195 677.398L548.927 677.949L549.845 678.614L550.945 679.391L552.221 680.279L553.667 681.277L555.277 682.384L557.047 683.598L558.971 684.919L561.044 686.346L563.26 687.877L565.614 689.511L568.099 691.248L570.712 693.085L573.446 695.022L576.296 697.057L579.257 699.19L582.323 701.42L585.489 703.744L588.749 706.163L592.098 708.675L595.53 711.278L599.04 713.972L602.623 716.756L606.273 719.628L609.985 722.588L613.753 725.633L617.572 728.763L621.437 731.978L625.341 735.275L629.281 738.653L633.249 742.112L637.241 745.65L641.251 749.267L645.275 752.96L649.306 756.73L653.338 760.574L657.368 764.491L661.389 768.482L665.395 772.543L669.382 776.675L673.344 780.875L677.275 785.144L681.17 789.479L685.024 793.88L688.831 798.346L692.586 802.875L696.283 807.466L699.917 812.118L703.483 816.83L706.975 821.601L710.387 826.43L713.715 831.315L716.952 836.256L720.094 841.251L723.134 846.299L726.069 851.399L728.891 856.549L731.596 861.75L734.178 866.999L736.632 872.296L738.952 877.639L741.134 883.027L741.455 882.919L741.784 882.812L742.123 882.707L742.47 882.602L742.826 882.499L743.191 882.397L743.565 882.296L743.947 882.196L744.339 882.097L744.739 881.999L745.147 881.902L745.565 881.807L745.991 881.713L746.427 881.619L746.871 881.527L747.323 881.436L747.785 881.346L748.255 881.257L748.735 881.17L749.222 881.083L749.719 880.998L750.225 880.913L750.739 880.83L751.262 880.748L751.794 880.667L752.335 880.587L752.884 880.508L753.442 880.43L754.01 880.353L754.585 880.278L755.17 880.203L755.764 880.13L756.366 880.058L756.977 879.987L757.597 879.917L758.225 879.848L758.863 879.78L759.509 879.713L760.164 879.647L760.828 879.583L761.5 879.519L762.182 879.457L762.872 879.396L763.571 879.335L764.279 879.276L764.995 879.218L765.72 879.161L766.455 879.105L762.997 865.409L759.468 851.705L755.869 837.993L752.199 824.272L748.459 810.543L744.648 796.805L740.766 783.059L736.814 769.305L732.791 755.542L728.697 741.772L724.533 727.992L720.298 714.205L715.993 700.409L711.616 686.605L707.17 672.792L702.652 658.972L698.064 645.143L693.405 631.305L688.676 617.459L683.876 603.605L679.005 589.743L674.064 575.872L669.052 561.993L663.969 548.105L658.816 534.21L653.592 520.305L648.297 506.393L642.932 492.472L637.496 478.543L631.99 464.606L626.413 450.66L620.765 436.706L615.046 422.744L609.257 408.773L603.398 394.794L597.467 380.807L591.466 366.811L585.395 352.807L579.252 338.795L573.04 324.774L566.756 310.745L560.402 296.708L553.977 282.662L547.481 268.608L540.915 254.546L534.279 240.475L527.571 226.396L520.793 212.309L513.944 198.213L507.025 184.109L500.035 169.997L492.974 155.876L485.843 141.747L478.641 127.61L471.369 113.465L464.026 99.3107L456.612 85.1477L449.127 70.9776L441.572 56.7987L433.946 42.6115L426.25 28.416L418.483 14.2122L410.645 0" sodipodi:nodetypes="cccccccccccccccccccccccccccccccccccccccccccccccccccccccccccccccccccccccccccccccccccccccccccccccccccccccccccccccccccccccccccccccccccccccccccccccccccccccccccccccccccccccccccccccccccccccccccccccccccccccccccccccccccccccccccccccccccccccccccccccccccccccccccccccccccccccccccccccccccccccccccccccccccccccccccccc"/>
 </g><path id="shape014" transform="matrix(-1 0 0 1 217.259014917738 52.0805616590182)" fill="none" stroke="#b2b2b2" stroke-width="1" stroke-linecap="square" stroke-linejoin="bevel" d="M0.427028 0C-1.58723 10.1311 3.88346 13.4523 9.31492 17.75C62.2867 52.8626 49.1615 106.904 48.9318 126.75C39.8341 161.606 15.0517 167.043 14.225 192.5C20.7175 207.799 20.4716 207.657 25.7127 212.25" sodipodi:nodetypes="ccccc"/><path id="shape13" transform="translate(165.374995071441, 278.249991707504)" fill="#dbe2e3" fill-rule="evenodd" stroke-opacity="0" stroke="#000000" stroke-width="0" stroke-linecap="square" stroke-linejoin="bevel" d="M6.92828 0L36.75 14.1176L32.4713 94.5221L4.30328 97.875L0 5.29412Z" sodipodi:nodetypes="cccccc"/><path id="shape015" transform="matrix(-1 0 0 -1 205.649995507299 482.999985605479)" fill="#dbe2e3" fill-rule="evenodd" stroke-opacity="0" stroke="#000000" stroke-width="0" stroke-linecap="square" stroke-linejoin="bevel" d="M5.68402 0L30.15 12.0784L33.9086 89.848L4.93402 90.9L0 4.52941Z" sodipodi:nodetypes="cccccc"/><path id="shape016" transform="matrix(-1 0 0 -1 211.981835250254 506.261584823168)" fill="#dbe2e3" fill-rule="evenodd" stroke-opacity="0" stroke="#000000" stroke-width="0" stroke-linecap="square" stroke-linejoin="bevel" d="M0 3.6716L47.341 0L62.7246 6.8946L37.875 30.8216L13.0264 21.8185L5.19098 26.576Z" sodipodi:nodetypes="ccccccc"/><path id="shape017" transform="matrix(0.96087439653075 -0.240208189192959 0.244783757119707 0.942913457773498 297.194025516556 477.929215579505)" fill="#000000" fill-rule="evenodd" stroke-opacity="0" stroke="#000000" stroke-width="0" stroke-linecap="square" stroke-linejoin="bevel" d="M8.62148 4.76217L0 18.8528L36.04 17.0361L35.1621 0Z" sodipodi:nodetypes="ccccc"/><path id="shape018" transform="matrix(0.96087439653075 -0.240208189192959 0.244783757119707 0.942913457773498 300.440117157818 364.357015768186)" fill="#000000" fill-rule="evenodd" stroke-opacity="0" stroke="#000000" stroke-width="0" stroke-linecap="square" stroke-linejoin="bevel" d="M14.2105 0L0 43.625L19.5395 50.375L33.75 15.125Z" sodipodi:nodetypes="ccccc"/><path id="shape021" transform="matrix(0.991563761771261 0 0 -0.973029168630483 303.7079717852 486.330652286605)" fill="#dbe2e3" fill-rule="evenodd" stroke-opacity="0" stroke="#000000" stroke-width="0" stroke-linecap="square" stroke-linejoin="bevel" d="M5.68402 0L30.15 12.0784L33.9086 89.848L4.93402 90.9L0 4.52941Z" sodipodi:nodetypes="cccccc"/><path id="shape031" transform="matrix(0.991563761771261 0 0 -0.973029168630483 297.429548950743 508.964866834408)" fill="#dbe2e3" fill-rule="evenodd" stroke-opacity="0" stroke="#000000" stroke-width="0" stroke-linecap="square" stroke-linejoin="bevel" d="M0 3.6716L47.341 0L62.7246 6.8946L37.875 30.8216L13.0264 21.8185L5.19098 26.576Z" sodipodi:nodetypes="ccccccc"/><path id="shape019" transform="matrix(-1 0 0 1 345.899991327524 280.19999575317)" fill="#dbe2e3" fill-rule="evenodd" stroke-opacity="0" stroke="#000000" stroke-width="0" stroke-linecap="square" stroke-linejoin="bevel" d="M7.09795 0L37.65 13.5686L36.7242 103.461L7.09795 103.8L0 5.08823Z" sodipodi:nodetypes="cccccc"/><path id="shape020" transform="translate(90.0499974258243, 199.062500238419)" fill="#dbe2e3" fill-rule="evenodd" stroke-opacity="0" stroke="#000000" stroke-width="0" stroke-linecap="square" stroke-linejoin="bevel" d="M15.4283 0L34.75 22.1176L30.9713 83.0221L0.30328 91.375L0 13.7941Z" sodipodi:nodetypes="cccccc"/><path id="shape022" transform="matrix(-1 0 0 1 450.640414323635 202.700000402332)" fill="#dbe2e3" fill-rule="evenodd" stroke-opacity="0" stroke="#000000" stroke-width="0" stroke-linecap="square" stroke-linejoin="bevel" d="M42.4324 0L60.8404 24.6176L28.1388 85.0221L0 77.375L19.6404 6.7941Z" sodipodi:nodetypes="cccccc"/><path id="shape023" transform="matrix(0.980196528432353 -0.198027184116636 0.198027184116636 0.980196528432353 92.0880526639089 297.208570801731)" fill="#dbe2e3" fill-rule="evenodd" stroke-opacity="0" stroke="#000000" stroke-width="0" stroke-linecap="square" stroke-linejoin="bevel" d="M29.25 0L30.9713 79.9045L2.80328 83.2574L0 6.1765Z" sodipodi:nodetypes="ccccc"/><path id="shape024" transform="matrix(0.980196528432353 -0.198027184116636 0.198027184116636 0.980196528432353 113.272571094162 383.982745854524)" fill="#dbe2e3" fill-rule="evenodd" stroke-opacity="0" stroke="#000000" stroke-width="0" stroke-linecap="square" stroke-linejoin="bevel" d="M29.25 0L29.8925 29.6966L1.62047 36.0891L0 6.1765Z" sodipodi:nodetypes="ccccc"/><path id="shape025" transform="matrix(0.980196528432353 -0.198027184116636 0.198027184116636 0.980196528432353 346.76824362272 325.349349006523)" fill="#dbe2e3" fill-rule="evenodd" stroke-opacity="0" stroke="#000000" stroke-width="0" stroke-linecap="square" stroke-linejoin="bevel" d="M32.9728 0L38.3282 26.5679L4.64516 42.0693L0 4.40419Z" sodipodi:nodetypes="ccccc"/><ellipse id="shape14" transform="translate(422, 272)" rx="14" ry="17" cx="14" cy="17" fill="#000000" fill-rule="evenodd" stroke-opacity="0" stroke="#000000" stroke-width="0" stroke-linecap="square" stroke-linejoin="bevel"/><path id="shape026" transform="translate(378.925399096076, 277.319839269844)" fill="#dbe2e3" fill-rule="evenodd" stroke-opacity="0" stroke="#000000" stroke-width="0" stroke-linecap="square" stroke-linejoin="bevel" d="M68.4467 29.8235L23.168 71.228C12.7787 52.679 10.3893 49.1299 0 30.5809L48.6967 0Z" sodipodi:nodetypes="ccccc"/><path id="shape15" transform="translate(152.749995522201, 384.999988545975)" fill="none" stroke="#c9d6d8" stroke-width="12" stroke-linecap="square" stroke-linejoin="miter" stroke-miterlimit="2" d="M0 0L5.25 1.25" sodipodi:nodetypes="cc"/><path id="shape16" transform="translate(149.999995609125, 411.749987694125)" fill="none" stroke="#c9d6d8" stroke-width="12" stroke-linecap="square" stroke-linejoin="miter" stroke-miterlimit="2" d="M0 0L9.5 7.25" sodipodi:nodetypes="cc"/><path id="shape17" transform="translate(139.749995840093, 420.249987560015)" fill="none" stroke="#c9d6d8" stroke-width="12" stroke-linecap="square" stroke-linejoin="miter" stroke-miterlimit="2" d="M0 0L5.5 13.75" sodipodi:nodetypes="cc"/><path id="shape18" transform="translate(126.499996210138, 426.249987391135)" fill="none" stroke="#c9d6d8" stroke-width="12" stroke-linecap="square" stroke-linejoin="miter" stroke-miterlimit="2" d="M0 0L1.25 9.25" sodipodi:nodetypes="cc"/><path id="shape19" transform="translate(358.499989315868, 317.999990522862)" fill="none" stroke="#c9d6d8" stroke-width="12" stroke-linecap="square" stroke-linejoin="miter" stroke-miterlimit="2" d="M9.5 0L0 1" sodipodi:nodetypes="cc"/>
</svg>
