<?xml version="1.0" standalone="no"?>
<!DOCTYPE svg PUBLIC "-//W3C//DTD SVG 20010904//EN" "http://www.w3.org/TR/2001/REC-SVG-20010904/DTD/svg10.dtd">
<!-- Created using Krita: https://krita.org -->
<svg xmlns="http://www.w3.org/2000/svg" 
    xmlns:xlink="http://www.w3.org/1999/xlink"
    xmlns:krita="http://krita.org/namespaces/svg/krita"
    xmlns:sodipodi="http://sodipodi.sourceforge.net/DTD/sodipodi-0.dtd"
    width="512pt"
    height="512pt"
    viewBox="0 0 512 512">
    <style>
        .uniform-color {
            color: #6a0000;
        }
    </style>
<defs>
  <radialGradient id="gradient0" gradientUnits="objectBoundingBox" cx="0.646153801095856" cy="-0.128472213332077" fx="0.463907731783125" fy="0.82943668344902" r="1.77315949362155" spreadMethod="reflect">
   <stop stop-color="#4f4f4f" offset="0.0571428574621677" stop-opacity="1"/>
   <stop stop-color="#232323" offset="0.423376619815826" stop-opacity="1"/>
   <stop stop-color="#646464" offset="0.742857158184052" stop-opacity="1"/>
   <stop stop-color="#767676" offset="0.984415590763092" stop-opacity="1"/>
  </radialGradient>
  <radialGradient id="gradient1" gradientUnits="objectBoundingBox" cx="0.646153801095856" cy="-0.128472213332077" fx="0.463907731783125" fy="0.82943668344902" r="1.77315949362155" spreadMethod="reflect">
   <stop stop-color="#4f4f4f" offset="0.0571428574621677" stop-opacity="1"/>
   <stop stop-color="#232323" offset="0.423376619815826" stop-opacity="1"/>
   <stop stop-color="#646464" offset="0.742857158184052" stop-opacity="1"/>
   <stop stop-color="#767676" offset="0.984415590763092" stop-opacity="1"/>
  </radialGradient>
  <radialGradient id="gradient2" gradientUnits="objectBoundingBox" cx="0.646153801095856" cy="-0.128472213332077" fx="0.463907731783125" fy="0.82943668344902" r="1.77315949362155" spreadMethod="reflect">
   <stop stop-color="#4f4f4f" offset="0.0571428574621677" stop-opacity="1"/>
   <stop stop-color="#232323" offset="0.423376619815826" stop-opacity="1"/>
   <stop stop-color="#646464" offset="0.742857158184052" stop-opacity="1"/>
   <stop stop-color="#767676" offset="0.984415590763092" stop-opacity="1"/>
  </radialGradient>
  <radialGradient id="gradient3" gradientUnits="objectBoundingBox" cx="0.526257819501026" cy="0.55633171831971" fx="0.543119369042438" fy="1.37027522802251" r="1.88580327154293" spreadMethod="reflect">
   <stop stop-color="#000000" offset="0.231168836355209" stop-opacity="1"/>
   <stop stop-color="#484759" offset="0.374025970697403" stop-opacity="1"/>
   <stop stop-color="#000000" offset="0.574025988578796" stop-opacity="1"/>
  </radialGradient>
  <linearGradient id="gradient4" gradientUnits="objectBoundingBox" x1="0.993310184438943" y1="0.0168617278869618" x2="0.0104100784240355" y2="1.01124115192463" spreadMethod="pad">
   <stop stop-color="#000000" offset="0.361038953065872" stop-opacity="1"/>
   <stop stop-color="#2c4156" offset="0.592207789421082" stop-opacity="1"/>
   <stop stop-color="#000000" offset="0.815584421157837" stop-opacity="1"/>
  </linearGradient>
  <linearGradient id="gradient5" gradientUnits="objectBoundingBox" x1="0" y1="0" x2="1" y2="1" spreadMethod="pad">
   <stop stop-color="#939393" offset="0.171428576111794" stop-opacity="1"/>
   <stop stop-color="#525252" offset="0.506493508815765" stop-opacity="1"/>
   <stop stop-color="#6f6f6f" offset="0.888311684131622" stop-opacity="1"/>
  </linearGradient>
 </defs>
<ellipse id="shape11" transform="matrix(0.804523221541725 0.593921195109358 -0.593921195109358 0.804523221541725 181.50216317563 50.8802914260385)" rx="13.5" ry="22.5" cx="13.5" cy="22.5" fill="#cbcbcb" fill-rule="evenodd" stroke="#c5c5c5" stroke-width="1" stroke-linecap="square" stroke-linejoin="bevel"/><ellipse id="shape12" transform="matrix(0.618254626240965 -0.785977873181977 0.785977873181977 0.618254626240965 302.938913926728 71.7989141783137)" rx="13.5" ry="22.5" cx="13.5" cy="22.5" fill="#cbcbcb" fill-rule="evenodd" stroke="#c5c5c5" stroke-width="1" stroke-linecap="square" stroke-linejoin="bevel"/><path id="shape05" transform="translate(98.3124971762301, 176.287502525747)" fill="#000000" fill-rule="evenodd" stroke-opacity="0" stroke="#000000" stroke-width="0" stroke-linecap="square" stroke-linejoin="bevel" d="M21 0L0 39.125L19.625 50.375L44.125 26.625Z" sodipodi:nodetypes="ccccc"/><path id="shape02" transform="translate(374.999989844859, 188.350003345311)" fill="#000000" fill-rule="evenodd" stroke-opacity="0" stroke="#000000" stroke-width="0" stroke-linecap="square" stroke-linejoin="bevel" d="M0 20.375L25.5 45.5L43.125 25.75L17.125 0Z" sodipodi:nodetypes="ccccc"/><path id="shape5" transform="translate(105.750004558818, 157.070479431418)" fill="currentColor" class="uniform-color" fill-rule="evenodd" stroke-opacity="0" stroke="#000000" stroke-width="0" stroke-linecap="square" stroke-linejoin="bevel" d="M46.125 0.304526C37.3886 -1.8773 13.1888 7.83667 0 23.9295C14.4195 39.0814 17.6146 54.6194 32.25 65.9295C40.6191 55.0094 49.1856 46.7597 53.625 35.9295Z" sodipodi:nodetypes="ccccc"/><path id="shape010" transform="matrix(-1 0 0 1 403.12499569635 164.038429694277)" fill="currentColor" class="uniform-color" fill-rule="evenodd" stroke-opacity="0" stroke="#000000" stroke-width="0" stroke-linecap="square" stroke-linejoin="bevel" d="M45.2864 0.304526C36.7088 -1.8773 12.949 7.83667 0 23.9295C14.1573 39.0814 17.2943 54.6194 31.6636 65.9295C39.8806 55.0094 48.2913 46.7597 52.65 35.9295Z" sodipodi:nodetypes="ccccc"/><path id="shape09" transform="translate(150.996766693267, 145.663675095036)" sodipodi:type="arc" sodipodi:rx="104" sodipodi:ry="122.5" sodipodi:cx="104.003241017146" sodipodi:cy="19.6957001358991" sodipodi:start="6.18667477300269" sodipodi:end="3.30307477886329" sodipodi:open="true" d="M1.35627 0C-5.13445 46.9325 12.0195 94.0493 45.3591 120.863C78.6987 147.676 122.2 149.341 156.947 125.134C191.694 100.927 211.409 55.2213 207.519 7.8915" fill="currentColor" class="uniform-color" fill-rule="evenodd" stroke-opacity="0" stroke="#000000" stroke-width="0" stroke-linecap="square" stroke-linejoin="bevel"/><path id="shape0" transform="translate(138.999995867412, 386.499988481403)" fill="none" stroke="#141414" stroke-width="12" stroke-linecap="square" stroke-linejoin="miter" stroke-miterlimit="2" d="M0 0L16.5 4" sodipodi:nodetypes="cc"/><path id="shape1" transform="translate(147.249995666246, 404.499987944961)" fill="none" stroke="#141414" stroke-width="12" stroke-linecap="square" stroke-linejoin="miter" stroke-miterlimit="2" d="M0 0L12 10" sodipodi:nodetypes="cc"/><path id="shape21" transform="translate(138.249995864928, 410.499987746279)" fill="none" stroke="#141414" stroke-width="12" stroke-linecap="square" stroke-linejoin="miter" stroke-miterlimit="2" d="M0 0L8.5 18.5" sodipodi:nodetypes="cc"/><path id="shape3" transform="translate(128.249996162951, 407.499987835686)" fill="none" stroke="#141414" stroke-width="12" stroke-linecap="square" stroke-linejoin="miter" stroke-miterlimit="2" d="M0 0L2.5 24" sodipodi:nodetypes="cc"/><path id="shape01" transform="translate(372.812490038574, 310.399999843538)" fill="#000000" fill-rule="evenodd" stroke-opacity="0" stroke="#000000" stroke-width="0" stroke-linecap="square" stroke-linejoin="bevel" d="M0 16.375L5 36L32.625 27.75L12.625 0Z" sodipodi:nodetypes="ccccc"/><path id="shape03" transform="translate(112.637497578561, 358.799998144806)" fill="#000000" fill-rule="evenodd" stroke-opacity="0" stroke="#000000" stroke-width="0" stroke-linecap="square" stroke-linejoin="bevel" d="M0 9.875L7 40.5L28.625 28.75L23.125 0Z" sodipodi:nodetypes="ccccc"/><path id="shape04" transform="translate(94.2249980553985, 273.450000573695)" fill="#000000" fill-rule="evenodd" stroke-opacity="0" stroke="#000000" stroke-width="0" stroke-linecap="square" stroke-linejoin="bevel" d="M0 9.875L3.5 38.5L24.125 30.75L23.125 0Z" sodipodi:nodetypes="ccccc"/><path id="shape091" transform="translate(152.090424154781, 42.9990592145285)" fill="#cbcbcb" fill-rule="evenodd" stroke-opacity="0" stroke="#000000" stroke-width="0" stroke-linecap="square" stroke-linejoin="bevel" d="M206.579 112.74C202.362 50.5979 159.196 2.09705 106.298 0.0659738C53.4002 -1.96511 7.64404 43.1214 0 104.808C30.5089 122.855 174.81 128.207 206.579 112.74Z" sodipodi:nodetypes="cccc"/><ellipse id="shape6" transform="translate(174.500010058286, 60.4999981969591)" rx="81.4999899417141" ry="84.0000018030409" cx="81.4999899417141" cy="84.0000018030409" fill="#a4abac" fill-rule="evenodd" stroke-opacity="0" stroke="#000000" stroke-width="0" stroke-linecap="square" stroke-linejoin="bevel"/><path id="shape7" transform="translate(240.750000454485, 55.0673475479705)" fill="none" stroke="#4a5557" stroke-width="4" stroke-linecap="square" stroke-linejoin="miter" stroke-miterlimit="2" d="M0 1.74514C9.37912 -0.49894 19.2949 -0.986782 30.5 2.74514" sodipodi:nodetypes="cc"/><path id="shape8" transform="translate(187.499999999999, 86.8124999999996)" fill="#4a5557" fill-rule="evenodd" stroke-opacity="0" stroke="#000000" stroke-width="0" stroke-linecap="square" stroke-linejoin="bevel" d="M11.25 0L0 15.1875C6.81597 17.0438 7.96285 17.5081 11.625 11.0625C16.6348 6.625 16.2707 5.75 11.25 0Z" sodipodi:nodetypes="cccc"/><path id="shape011" transform="matrix(-0.585062868115293 -0.810987940941616 0.810987940941616 -0.585062868115293 249.528220935542 236.891619047211)" fill="#4a5557" fill-rule="evenodd" stroke-opacity="0" stroke="#000000" stroke-width="0" stroke-linecap="square" stroke-linejoin="bevel" d="M15.3512 0L0 20.552C8.1943 25.9458 9.49324 26.5198 16.4638 16.4498C22.097 9.22521 24.0116 5.83253 15.3512 0Z" sodipodi:nodetypes="cccc"/><path id="shape012" transform="matrix(-0.23269150392227 0.972550597142585 -0.972550597142585 -0.23269150392227 330.885641249468 93.9304993228609)" fill="#4a5557" fill-rule="evenodd" stroke-opacity="0" stroke="#000000" stroke-width="0" stroke-linecap="square" stroke-linejoin="bevel" d="M11.25 0L0 15.1875C6.81597 17.0438 7.96285 17.5081 11.625 11.0625C16.6348 6.625 16.2707 5.75 11.25 0Z" sodipodi:nodetypes="cccc"/><ellipse id="shape9" transform="translate(252, 64.6875)" rx="4" ry="3.5" cx="4" cy="3.5" fill="#4a5557" fill-rule="evenodd" stroke-opacity="0" stroke="#000000" stroke-width="0" stroke-linecap="square" stroke-linejoin="bevel"/><path id="shape10" transform="translate(290.604315742897, 50.2499970048666)" fill="none" stroke="#b2b2b2" stroke-width="1" stroke-linecap="square" stroke-linejoin="bevel" d="M0.395656 0C-1.5331 10.1311 3.94475 14.2023 9.14565 18.5C66.4934 54.7656 57.3409 104.443 56.8957 124.25C55.8132 161.098 16.69 173.766 18.3957 192C24.6126 207.299 23.7209 206.407 28.7395 211" sodipodi:nodetypes="ccccc"/><path id="shape014" transform="matrix(-1 0 0 1 217.259012362762 52.0805616590182)" fill="none" stroke="#b2b2b2" stroke-width="1" stroke-linecap="square" stroke-linejoin="bevel" d="M0.427028 0C-1.58723 10.1311 3.88346 13.4523 9.31492 17.75C62.2867 52.8626 49.1615 106.904 48.9318 126.75C39.8341 161.606 15.0517 167.043 14.225 192.5C20.7175 207.799 18.7841 205.688 24.0252 210.281" sodipodi:nodetypes="ccccc"/><path id="shape092" transform="translate(150.770619572736, 147.925805171943)" fill="#292929" fill-opacity="0.588235294117647" fill-rule="evenodd" stroke-opacity="0" stroke="#000000" stroke-width="0" stroke-linecap="square" stroke-linejoin="bevel" d="M1.51591 0C0.540335 3.85739 0.0350323 8.10447 0 12.7412C11.558 15.8423 19.1217 18.1957 22.6912 19.8015C45.2124 110.42 163.844 107.32 187.502 22.9247C187.586 21.9707 207.911 19.0493 207.978 18.0985C208.231 14.475 208.358 10.8779 208.355 7.32591C203.812 8.15991 196.215 13.3996 185.087 13.6989C162.497 104.883 37.9526 104.118 24.322 5.76214C12.5957 4.5511 6.22459 1.49468 1.51591 0Z" sodipodi:nodetypes="ccccccccc"/><path id="shape020" transform="translate(90.0499974258243, 199.062500238419)" fill="#1c1c1c" fill-rule="evenodd" stroke-opacity="0" stroke="#000000" stroke-width="0" stroke-linecap="square" stroke-linejoin="bevel" d="M15.4283 0L34.75 22.1176L30.9713 83.0221L0.30328 91.375L0 13.7941Z" sodipodi:nodetypes="cccccc"/><path id="shape022" transform="matrix(-1 0 0 1 450.640414323635 202.700000402332)" fill="#1c1c1c" fill-rule="evenodd" stroke-opacity="0" stroke="#000000" stroke-width="0" stroke-linecap="square" stroke-linejoin="bevel" d="M42.4324 0L60.8404 24.6176L28.1388 85.0221L0 77.375L19.6404 6.7941Z" sodipodi:nodetypes="cccccc"/><path id="shape023" transform="matrix(0.980196528432353 -0.198027184116636 0.198027184116636 0.980196528432353 92.0880526639089 297.208570801731)" fill="#1c1c1c" fill-rule="evenodd" stroke-opacity="0" stroke="#000000" stroke-width="0" stroke-linecap="square" stroke-linejoin="bevel" d="M29.25 0L30.9713 79.9045L2.80328 83.2574L0 6.1765Z" sodipodi:nodetypes="ccccc"/><path id="shape024" transform="matrix(0.980196528432353 -0.198027184116636 0.198027184116636 0.980196528432353 113.272571094162 383.982745854524)" fill="#1c1c1c" fill-rule="evenodd" stroke-opacity="0" stroke="#000000" stroke-width="0" stroke-linecap="square" stroke-linejoin="bevel" d="M29.25 0L29.8925 29.6966L1.62047 36.0891L0 6.1765Z" sodipodi:nodetypes="ccccc"/><path id="shape025" transform="matrix(0.980196528432353 -0.198027184116636 0.198027184116636 0.980196528432353 346.76824362272 325.349349006523)" fill="#1c1c1c" fill-rule="evenodd" stroke-opacity="0" stroke="#000000" stroke-width="0" stroke-linecap="square" stroke-linejoin="bevel" d="M32.9728 0L38.3282 26.5679L4.64516 42.0693L0 4.40419Z" sodipodi:nodetypes="ccccc"/><ellipse id="shape14" transform="translate(422, 272)" rx="14" ry="17" cx="14" cy="17" fill="#000000" fill-rule="evenodd" stroke-opacity="0" stroke="#000000" stroke-width="0" stroke-linecap="square" stroke-linejoin="bevel"/><path id="shape026" transform="translate(378.925399096076, 277.319839269844)" fill="#1c1c1c" fill-rule="evenodd" stroke-opacity="0" stroke="#000000" stroke-width="0" stroke-linecap="square" stroke-linejoin="bevel" d="M68.4467 29.8235L23.168 71.228C12.7787 52.679 10.3893 49.1299 0 30.5809L48.6967 0Z" sodipodi:nodetypes="ccccc"/><path id="shape15" transform="translate(152.812495517843, 384.999988545975)" fill="#1c1c1c" stroke="#393939" stroke-width="12" stroke-linecap="square" stroke-linejoin="miter" stroke-miterlimit="2" d="M0 0L5.25 1.25" sodipodi:nodetypes="cc"/><path id="shape16" transform="translate(150.062495604767, 411.749987694125)" fill="#1c1c1c" stroke="#393939" stroke-width="12" stroke-linecap="square" stroke-linejoin="miter" stroke-miterlimit="2" d="M0 0L9.5 7.25" sodipodi:nodetypes="cc"/><path id="shape17" transform="translate(139.812495835735, 420.249987560015)" fill="#1c1c1c" stroke="#393939" stroke-width="12" stroke-linecap="square" stroke-linejoin="miter" stroke-miterlimit="2" d="M0 0L5.5 13.75" sodipodi:nodetypes="cc"/><path id="shape18" transform="translate(126.499996210138, 426.249987391135)" fill="#1c1c1c" stroke="#393939" stroke-width="12" stroke-linecap="square" stroke-linejoin="miter" stroke-miterlimit="2" d="M0 0L1.25 9.25" sodipodi:nodetypes="cc"/><path id="shape19" transform="translate(358.499989315868, 317.999990522862)" fill="#1c1c1c" stroke="#343434" stroke-width="12" stroke-linecap="square" stroke-linejoin="miter" stroke-miterlimit="2" d="M9.5 0L0 1" sodipodi:nodetypes="cc"/><ellipse id="shape4" transform="matrix(1.32142958504222 0 0 1.32142958504222 161.714214437572 450.374968594164)" rx="70.5" ry="21" cx="70.5" cy="21" fill="#000000" fill-opacity="0.388235294117647" fill-rule="evenodd" stroke-opacity="0" stroke="#000000" stroke-width="0" stroke-linecap="square" stroke-linejoin="bevel"/><ellipse id="shape06" transform="matrix(0.711663074906817 0 0 0.711663074906817 204.202794206072 323.735126194709)" rx="70.5" ry="21" cx="70.5" cy="21" fill="none" stroke-opacity="0.407843137254902" stroke="#00ddff" stroke-width="9" stroke-linecap="square" stroke-linejoin="bevel"/><ellipse id="shape07" transform="matrix(0.60547018369476 0 0 0.60547018369476 211.339432846786 344.320226501177)" rx="70.5" ry="21" cx="70.5" cy="21" fill="none" stroke-opacity="0.407843137254902" stroke="#00ddff" stroke-width="9" stroke-linecap="square" stroke-linejoin="bevel"/><ellipse id="shape08" transform="matrix(0.824757697745366 0 0 0.824757697745366 196.372493183625 298.360153473726)" rx="70.5" ry="21" cx="70.5" cy="21" fill="none" stroke-opacity="0.407843137254902" stroke="#00ddff" stroke-width="9" stroke-linecap="square" stroke-linejoin="bevel"/><path id="shape0323" transform="matrix(0.00139503441372482 -0.000701908108154146 0.000648197483837242 0.00128828515633019 350.833279779355 159.057949785464)" fill="url(#gradient0)" fill-rule="evenodd" stroke="#3f3f3f" stroke-width="2.88" stroke-linecap="square" stroke-linejoin="bevel" d="M2582.8 145.041C3447.02 -457.599 4271.18 1029.14 4641.56 770.861C5137.7 1365.26 2441.54 3120.85 1988.6 6540.47L0 5522.59Z" sodipodi:nodetypes="ccccc"/><path id="shape03231" transform="matrix(0.00139503441372482 -0.000701908108154146 0.00064819748383724 0.00128828515633018 346.752765577067 160.40715476196)" fill="url(#gradient1)" fill-rule="evenodd" stroke="#3f3f3f" stroke-width="2.88" stroke-linecap="square" stroke-linejoin="bevel" d="M2206.57 187.432C3070.79 -415.208 4258.37 650.979 4628.75 392.701C5124.89 987.103 2495.51 2888.22 2042.57 6307.84L0 5406.11Z" sodipodi:nodetypes="ccccc"/><path id="shape03232" transform="matrix(0.00139503441372482 -0.000701908108154146 0.00064819748383724 0.00128828515633018 342.272871752112 162.033954678647)" fill="url(#gradient2)" fill-rule="evenodd" stroke="#3f3f3f" stroke-width="2.88" stroke-linecap="square" stroke-linejoin="bevel" d="M2340.8 187.432C3205.02 -415.208 4392.6 650.979 4762.98 392.701C5259.12 987.103 2589.27 2975.33 2136.33 6394.95L0 5405.74Z" sodipodi:nodetypes="ccccc"/><g id="group0" transform="matrix(0.510060315285072 0.061847504520783 -0.0723201353194244 0.596428769572894 336.938422261268 166.978017966718)" fill="none">
  <rect id="shape021" transform="matrix(0.0447850449261343 -8.67361737988404e-19 -8.67361737988404e-19 0.0447850449261343 1.47962434834216 16.8298071997704)" fill="none" stroke="#000000" stroke-width="115.2" stroke-linecap="round" stroke-linejoin="round" width="686.452101226699" height="239.320981016274" rx="120.088603275412" ry="119.660490508137"/>
  <rect id="shape0111" transform="matrix(0.0447850449261343 -8.67361737988404e-19 -8.67361737988404e-19 0.0447850449261343 1.47186708240332 16.857569516532)" fill="none" stroke="url(#gradient3)" stroke-width="100.8" stroke-linecap="round" stroke-linejoin="round" width="686.452101226699" height="239.320981016274" rx="120.088603275412" ry="119.660490508137"/>
  <path id="shape01111" transform="matrix(0.0284688374067745 -4.33680868994202e-19 0 0.0284688374067745 1.13686837721616e-13 1.13686837721616e-13)" fill="url(#gradient4)" stroke="#000000" stroke-width="3.6" stroke-linecap="square" stroke-linejoin="miter" stroke-miterlimit="2.16000008583069" d="M607.047 0C346.659 436.964 105.655 1042.06 0 1507.2L142.106 1562.39C345.783 1260.7 512.843 1132.91 772.803 1136.87C785.223 1147.75 949.141 1247.76 1008.39 1403.06C1019.32 1399.56 1164.43 1391.34 1180.23 1390.13C1084.13 997.108 828.11 408.079 607.047 0Z" sodipodi:nodetypes="ccccccc"/>
  <path id="shape0121" transform="matrix(0.0284688374067746 -8.67361737988404e-19 0 0.0284688374067746 2.3053283838467 3.92625648035261)" fill="url(#gradient5)" stroke="#000000" stroke-width="3.6" stroke-linecap="square" stroke-linejoin="miter" stroke-miterlimit="2.16000008583069" d="M524.808 0C271.784 424.606 102.667 863.026 0 1315.01L35.7603 1333.27C233.677 1040.11 458.94 895.45 711.548 899.296C723.617 909.867 905.36 1022.09 962.929 1173C969.51 1170.7 980.475 1168.97 995.828 1167.79C902.447 785.888 739.62 396.538 524.808 0Z" sodipodi:nodetypes="ccccccc"/>
 </g>
</svg>
