<?xml version="1.0" standalone="no"?>
<!DOCTYPE svg PUBLIC "-//W3C//DTD SVG 20010904//EN" "http://www.w3.org/TR/2001/REC-SVG-20010904/DTD/svg10.dtd">
<!-- Created using Krita: https://krita.org -->
<svg xmlns="http://www.w3.org/2000/svg" 
    xmlns:xlink="http://www.w3.org/1999/xlink"
    xmlns:krita="http://krita.org/namespaces/svg/krita"
    xmlns:sodipodi="http://sodipodi.sourceforge.net/DTD/sodipodi-0.dtd"
    width="512pt"
    height="512pt"
    viewBox="0 0 512 512">
<defs/>
<path id="shape0" transform="translate(250.624999929969, 324.00317065279)" fill="#abdcda" fill-rule="evenodd" d="M0 0L22.0089 116.593L60.1452 103.61Z" sodipodi:nodetypes="cccc"/><path id="shape1" transform="translate(180.391838280707, 313.945324454451)" fill="#abdcda" fill-rule="evenodd" d="M0 0L47.0357 91.5626L64.6082 9.00733Z" sodipodi:nodetypes="cccc"/><path id="shape2" transform="translate(232.234548462401, 323.630349824753)" fill="#abdcda" fill-rule="evenodd" d="M15.6206 0L0 99.2242L33.0967 117.777Z" sodipodi:nodetypes="cccc"/><path id="shape3" transform="translate(254.625000096443, 323.499974761541)" fill="#abdcda" fill-rule="evenodd" d="M0 0L70.375 107.5L105.375 35.5Z" sodipodi:nodetypes="cccc"/><path id="shape4" transform="translate(257.374981724144, 279.99998036074)" fill="#abdcda" fill-rule="evenodd" d="M0 41.625L101.625 70L107.625 0Z" sodipodi:nodetypes="cccc"/><path id="shape5" transform="translate(170.499987951686, 214.999984919854)" fill="#abdcda" fill-rule="evenodd" d="M0 86L75.625 104.75L2.5 0Z" sodipodi:nodetypes="cccc"/><path id="shape6" transform="translate(256, 197.249984689627)" fill="#abdcda" fill-rule="evenodd" d="M0 120.25L97 0L106 76.75C73.4166 94.75 32.5833 102.25 0 120.25Z" sodipodi:nodetypes="cccc"/><path id="shape7" transform="translate(166.249988115672, 92.9999934769599)" fill="#abdcda" fill-rule="evenodd" d="M82.5 223.125L0 96L35.75 0Z" sodipodi:nodetypes="cccc"/><path id="shape8" transform="translate(254.50000010521, 69.4999953934759)" fill="#abdcda" fill-rule="evenodd" d="M0 244.125L63.75 0L102.25 116.25Z" sodipodi:nodetypes="cccc"/><path id="shape9" transform="translate(205.999985551116, 71.749995012143)" fill="#abdcda" fill-rule="evenodd" d="M0 5.25L102.25 0L45.125 240.25Z" sodipodi:nodetypes="cccc"/>
</svg>
