<?xml version="1.0" standalone="no"?>
<!DOCTYPE svg PUBLIC "-//W3C//DTD SVG 20010904//EN" "http://www.w3.org/TR/2001/REC-SVG-20010904/DTD/svg10.dtd">
<!-- Created using Krita: https://krita.org -->
<svg xmlns="http://www.w3.org/2000/svg" 
    xmlns:xlink="http://www.w3.org/1999/xlink"
    xmlns:krita="http://krita.org/namespaces/svg/krita"
    xmlns:sodipodi="http://sodipodi.sourceforge.net/DTD/sodipodi-0.dtd"
    width="512pt"
    height="512pt"
    viewBox="0 0 512 512">
<defs/>
<path id="shape0" transform="translate(217.458003169572, 64.9128367670364)" fill="#abdcda" fill-rule="evenodd" d="M0 10.5483L97.3693 0L103.861 178.51Z" sodipodi:nodetypes="cccc"/><path id="shape1" transform="translate(226.38351822504, 117.654516640254)" fill="#abdcda" fill-rule="evenodd" d="M0 0L93.3122 138.345L29.6165 234.498Z" sodipodi:nodetypes="cccc"/><path id="shape2" transform="translate(265.331220285262, 256)" fill="#abdcda" fill-rule="evenodd" d="M64.1014 0L64.9128 173.236L0 100.209Z" sodipodi:nodetypes="cccc"/><path id="shape3" transform="translate(256, 370.003169572108)" fill="#abdcda" fill-rule="evenodd" d="M0 0L16.6339 70.5927L54.7702 57.6101Z" sodipodi:nodetypes="cccc"/><path id="shape4" transform="translate(172.830427892235, 122.522979397781)" fill="#abdcda" fill-rule="evenodd" d="M46.2504 0L0 133.477L72.2155 229.629Z" sodipodi:nodetypes="cccc"/><path id="shape5" transform="translate(179.321711568938, 76.2725832012678)" fill="#abdcda" fill-rule="evenodd" d="M20.2853 0L0 145.242L43.8162 25.1537Z" sodipodi:nodetypes="cccc"/><path id="shape6" transform="translate(173.641838351823, 273.445324881141)" fill="#abdcda" fill-rule="evenodd" d="M0 0L66.5357 139.563L71.4041 87.6323Z" sodipodi:nodetypes="cccc"/><path id="shape7" transform="translate(244.234548335975, 368.380348652932)" fill="#abdcda" fill-rule="evenodd" d="M3.24564 0L0 65.7242L21.0967 73.0269Z" sodipodi:nodetypes="cccc"/><path id="shape8" transform="translate(326.187004754358, 76.2725832012678)" fill="#abdcda" fill-rule="evenodd" d="M0 0L4.05705 164.716L27.588 129.014Z" sodipodi:nodetypes="cccc"/><path id="shape9" transform="translate(334.301109350238, 256)" fill="#abdcda" fill-rule="evenodd" d="M1.62282 0L0 169.179L23.5309 28.8051Z" sodipodi:nodetypes="cccc"/>
</svg>
