<?xml version="1.0" standalone="no"?>
<!DOCTYPE svg PUBLIC "-//W3C//DTD SVG 20010904//EN" "http://www.w3.org/TR/2001/REC-SVG-20010904/DTD/svg10.dtd">
<!-- Created using Krita: https://krita.org -->
<svg xmlns="http://www.w3.org/2000/svg" 
    xmlns:xlink="http://www.w3.org/1999/xlink"
    xmlns:krita="http://krita.org/namespaces/svg/krita"
    xmlns:sodipodi="http://sodipodi.sourceforge.net/DTD/sodipodi-0.dtd"
    width="512pt"
    height="512pt"
    viewBox="0 0 512 512">
    <style>
        .uniform-color {
            color: #BD2626;
        }
    </style>
<defs/>
<path id="shape12" transform="translate(133.31133918991, 255.991642644059)" fill="currentColor" class="uniform-color" fill-rule="evenodd" stroke-opacity="0" stroke="#000000" stroke-width="0" stroke-linecap="square" stroke-linejoin="bevel" d="M77.546 31.8364C77.7597 32.5942 77.859 27.8356 79.0939 40.3106L109.728 39.5814C110.038 27.0081 110.89 31.8691 111.031 31.4145C113.894 31.2645 262.926 -0.591063 262.797 0.00835428C272.214 8.94117 273.409 38.8395 281.078 84.8519C281.961 85.2936 288.35 219.449 276.341 256.008L14.3804 256.009C6.1653 238.794 -8.70132 66.4369 6.69437 19.8364C7.08927 20.0967 73.9331 31.6278 77.546 31.8364Z" sodipodi:nodetypes="cccccccccc"/><path id="shape0" transform="translate(271.249989057094, 268.499989679097)" fill="none" stroke-opacity="0.6" stroke="#848484" stroke-width="2.99999996438133" stroke-linecap="square" stroke-linejoin="bevel" d="M0 15.125L0.5 31.625C72.8104 22.4468 129.093 0.804728 130.375 0" sodipodi:nodetypes="ccc"/><path id="shape1" transform="translate(136.640618747898, 285.749988487358)" fill="none" stroke-opacity="0.6" stroke="#848484" stroke-width="2.99999996438133" stroke-linecap="square" stroke-linejoin="bevel" d="M53.7344 0L51.7344 21.5C21.0315 19.2618 2.03288 11.918 0 10.4531" sodipodi:nodetypes="ccc"/><path id="shape2" transform="translate(212.000001132486, 295.875002226496)" fill="#505050" fill-opacity="0.698039215686274" fill-rule="evenodd" stroke-opacity="0" stroke="#000000" stroke-width="0" stroke-linecap="square" stroke-linejoin="bevel" d="M0 0.125L31.625 0L31.375 12.25L21.4062 12.3438L17.7903 59.4388L18.0373 216.125L16.9688 216.125L16.7526 59.5011L11.8437 12.2188L0 12.125Z" sodipodi:nodetypes="ccccccccccc"/><path id="shape11" transform="translate(133.178143731061, 318.956251599702)" fill="#ffffff" fill-rule="evenodd" stroke-opacity="0" stroke="#000000" stroke-width="0" stroke-linecap="square" stroke-linejoin="bevel" d="M0.0313002 28.5938L183.688 0L182.875 193.044L173.375 193.044L173.75 13.875L0 38.9063Z" sodipodi:nodetypes="ccccccc"/><path id="shape13" transform="translate(133.031243401403, 306.750001954725)" fill="#000000" fill-rule="evenodd" stroke-opacity="0" stroke="#000000" stroke-width="0" stroke-linecap="square" stroke-linejoin="bevel" d="M0.093803 31.5938L193.344 0L192.844 205.25L182.906 205.25L183.438 12.0938L0 40.1875Z" sodipodi:nodetypes="ccccccc"/><path id="shape121" transform="translate(133.112545721005, 332.326301602248)" fill="#848484" fill-rule="evenodd" stroke-opacity="0" stroke="#000000" stroke-width="0" stroke-linecap="square" stroke-linejoin="bevel" d="M0.0313 24.8438L174.219 0L174.125 180.049L165.875 180.049L165.782 9L0 34.125Z" sodipodi:nodetypes="ccccccc"/><g id="group0" transform="matrix(0.0471937562288304 0 0 0.0471937562288304 279.374998853843 325.630915311896)" fill="none">
  <path id="shape01" transform="matrix(-1 0 0 1 545.907900344499 278.676285888001)" fill="#9b9651" fill-rule="evenodd" stroke="#988f55" stroke-width="11.0808" stroke-linecap="square" stroke-linejoin="bevel" d="M245.02 0L216.157 812.409C55.8522 790.684 -10.6824 371.745 1.38209 92.5314Z" sodipodi:nodetypes="cccc"/>
  <path id="shape1211" transform="matrix(-1 0 0 1 390.417946324975 486.627787441041)" fill="none" stroke-opacity="0.32156862745098" stroke="#6f673b" stroke-width="7.2" stroke-linecap="square" stroke-linejoin="miter" stroke-miterlimit="2" d="M0 567L4.32 0" sodipodi:nodetypes="cc"/>
  <path id="shape21" transform="matrix(-1 0 0 1 475.737946220683 417.477854964138)" fill="none" stroke-opacity="0.32156862745098" stroke="#6f673b" stroke-width="7.2" stroke-linecap="square" stroke-linejoin="miter" stroke-miterlimit="2" d="M1.13687e-13 487.11L0 0" sodipodi:nodetypes="cc"/>
  <path id="shape3" transform="translate(33.8223413814558, 279.951617844416)" fill="#9b9651" fill-rule="evenodd" stroke="#988f55" stroke-width="11.0808" stroke-linecap="square" stroke-linejoin="bevel" d="M245.02 0L216.157 812.409C55.8522 790.684 -10.6824 371.745 1.38209 92.5314Z" sodipodi:nodetypes="cccc"/>
  <path id="shape4" transform="translate(189.312298114525, 487.903119397456)" fill="none" stroke-opacity="0.32156862745098" stroke="#6f673b" stroke-width="7.2" stroke-linecap="square" stroke-linejoin="miter" stroke-miterlimit="2" d="M0 567L4.32 0" sodipodi:nodetypes="cc"/>
  <path id="shape5" transform="translate(103.992298218815, 418.753186920553)" fill="none" stroke-opacity="0.32156862745098" stroke="#6f673b" stroke-width="7.2" stroke-linecap="square" stroke-linejoin="miter" stroke-miterlimit="2" d="M1.13687e-13 487.11L0 0" sodipodi:nodetypes="cc"/>
  <circle id="shape31" transform="matrix(0.528895042793038 0 0 0.528895042793038 29.106328892176 62.254666050193)" r="485.999955318679" cx="485.999955318679" cy="485.999955318679" fill="#353535" stroke="#a3985b" stroke-width="50.4" stroke-linecap="square" stroke-linejoin="bevel"/>
  <path id="shape011" transform="matrix(0.528895042793038 0 0 0.528895042793038 0 0)" fill="#353535" stroke="#a3985b" stroke-width="29.8008" stroke-linecap="square" stroke-linejoin="bevel" d="M549.065 0C288.677 436.964 105.655 888.013 0 1353.15L36.8011 1371.94C240.478 1070.25 472.297 921.381 732.257 925.339C744.677 936.217 931.709 1051.71 990.954 1207.01C997.726 1204.64 1009.01 1202.86 1024.81 1201.65C928.711 808.63 770.128 408.079 549.065 0Z" sodipodi:nodetypes="ccccccc"/>
 </g>
</svg>
