<?xml version="1.0" standalone="no"?>
<!DOCTYPE svg PUBLIC "-//W3C//DTD SVG 20010904//EN" "http://www.w3.org/TR/2001/REC-SVG-20010904/DTD/svg10.dtd">
<!-- Created using Krita: https://krita.org -->
<svg xmlns="http://www.w3.org/2000/svg" 
    xmlns:xlink="http://www.w3.org/1999/xlink"
    xmlns:krita="http://krita.org/namespaces/svg/krita"
    xmlns:sodipodi="http://sodipodi.sourceforge.net/DTD/sodipodi-0.dtd"
    width="512pt"
    height="512pt"
    viewBox="0 0 512 512">
<defs/>
<path id="shape12" transform="translate(133.31133952459, 255.991642630733)" fill="#fafafa" fill-rule="evenodd" stroke-opacity="0" stroke="#000000" stroke-width="0" stroke-linecap="square" stroke-linejoin="bevel" d="M76.546 32.0864C76.7597 32.8442 78.2965 33.7106 79.0939 40.3106L109.728 39.5814C109.663 33.0081 110.89 31.8691 111.031 31.4145C113.894 31.2645 262.926 -0.591063 262.797 0.0083543C272.214 8.94117 273.409 38.8395 281.078 84.8519C281.961 85.2936 288.35 219.449 276.341 256.008L14.3804 256.009C6.1653 238.794 -8.70132 66.4369 6.69437 19.8364C7.08927 20.0967 72.9331 31.8778 76.546 32.0864Z" sodipodi:nodetypes="cccccccccc"/><path id="shape11" transform="translate(139.030187273928, 255.500000016298)" fill="#000000" fill-rule="evenodd" stroke-opacity="0" stroke="#000000" stroke-width="0" stroke-linecap="square" stroke-linejoin="bevel" d="M70.5936 33.3735L0 22.6278L0.0570638 20.2494L73.23 31.9464L73.8722 40.2876L103.502 39.6984L103.956 31.8013L256.675 0L258.218 2.0935L106.868 34.0991L106.771 40.2219L160.595 38.4375L146.47 256.5L142.907 256.5L155.752 43.7813L71.9146 43.5921Z" sodipodi:nodetypes="ccccccccccccccccc"/><ellipse id="shape0" transform="translate(253.000000022352, 318.500000060069)" rx="8.83999945953716" ry="8.49999948032419" cx="8.83999945953716" cy="8.49999948032419" fill="#464646" fill-rule="evenodd" stroke="#a7a7a7" stroke-width="1" stroke-linecap="square" stroke-linejoin="bevel"/><ellipse id="shape01" transform="translate(180.84712700223, 318.211126847097)" rx="8.83999945953716" ry="8.49999948032419" cx="8.83999945953716" cy="8.49999948032419" fill="#464646" fill-rule="evenodd" stroke="#a7a7a7" stroke-width="1" stroke-linecap="square" stroke-linejoin="bevel"/><ellipse id="shape02" transform="translate(253.736437105006, 359.134450683378)" rx="8.83999945953716" ry="8.49999948032419" cx="8.83999945953716" cy="8.49999948032419" fill="#464646" fill-rule="evenodd" stroke="#a7a7a7" stroke-width="1" stroke-linecap="square" stroke-linejoin="bevel"/><ellipse id="shape011" transform="translate(181.583564084884, 358.845577470407)" rx="8.83999945953716" ry="8.49999948032419" cx="8.83999945953716" cy="8.49999948032419" fill="#464646" fill-rule="evenodd" stroke="#a7a7a7" stroke-width="1" stroke-linecap="square" stroke-linejoin="bevel"/><ellipse id="shape03" transform="translate(253.736437105006, 403.884450549967)" rx="8.83999945953716" ry="8.49999948032419" cx="8.83999945953716" cy="8.49999948032419" fill="#464646" fill-rule="evenodd" stroke="#a7a7a7" stroke-width="1" stroke-linecap="square" stroke-linejoin="bevel"/><ellipse id="shape012" transform="translate(181.583564084884, 403.595577336995)" rx="8.83999945953716" ry="8.49999948032419" cx="8.83999945953716" cy="8.49999948032419" fill="#464646" fill-rule="evenodd" stroke="#a7a7a7" stroke-width="1" stroke-linecap="square" stroke-linejoin="bevel"/><ellipse id="shape04" transform="translate(253.736437105006, 447.884450441002)" rx="8.83999945953716" ry="8.49999948032419" cx="8.83999945953716" cy="8.49999948032419" fill="#464646" fill-rule="evenodd" stroke="#a7a7a7" stroke-width="1" stroke-linecap="square" stroke-linejoin="bevel"/><ellipse id="shape013" transform="translate(181.583564084884, 447.59557722803)" rx="8.83999945953716" ry="8.49999948032419" cx="8.83999945953716" cy="8.49999948032419" fill="#464646" fill-rule="evenodd" stroke="#a7a7a7" stroke-width="1" stroke-linecap="square" stroke-linejoin="bevel"/><ellipse id="shape041" transform="translate(253.875287815932, 490.518901170481)" rx="8.83999945953716" ry="8.49999948032419" cx="8.83999945953716" cy="8.49999948032419" fill="#464646" fill-rule="evenodd" stroke="#a7a7a7" stroke-width="1" stroke-linecap="square" stroke-linejoin="bevel"/><ellipse id="shape0131" transform="translate(181.72241479581, 490.230027957509)" rx="8.83999945953716" ry="8.49999948032419" cx="8.83999945953716" cy="8.49999948032419" fill="#464646" fill-rule="evenodd" stroke="#a7a7a7" stroke-width="1" stroke-linecap="square" stroke-linejoin="bevel"/>
</svg>
