<?xml version="1.0" standalone="no"?>
<!DOCTYPE svg PUBLIC "-//W3C//DTD SVG 20010904//EN" "http://www.w3.org/TR/2001/REC-SVG-20010904/DTD/svg10.dtd">
<!-- Created using Krita: https://krita.org -->
<svg xmlns="http://www.w3.org/2000/svg" 
    xmlns:xlink="http://www.w3.org/1999/xlink"
    xmlns:krita="http://krita.org/namespaces/svg/krita"
    xmlns:sodipodi="http://sodipodi.sourceforge.net/DTD/sodipodi-0.dtd"
    width="512pt"
    height="512pt"
    viewBox="0 0 512 512">
    <style>
        .uniform-color {
            color: #CE3C34;
        }
    </style>
<defs/>
<path id="shape0" transform="translate(132.916191692701, 317.406225257278)" fill="currentColor" class="uniform-color" fill-rule="evenodd" stroke-opacity="0" stroke="#000000" stroke-width="0" stroke-linecap="square" stroke-linejoin="bevel" d="M13.4588 194.875L276.428 194.875C286.04 124.308 287.053 105.95 276.146 0L88.8497 11.4375L1.30261 7.3437C-2.32245 89.225 1.5838 133.808 13.4588 194.875Z" sodipodi:nodetypes="cccccc"/><path id="shape1" transform="translate(131.522564789565, 255.8989840176)" fill="#2d2d2d" fill-rule="evenodd" stroke-opacity="0" stroke="#000000" stroke-width="0" stroke-linecap="square" stroke-linejoin="bevel" d="M83.54 10.0697L97.5713 43.1322L119.181 5.50723C216.042 1.3385 264.412 -0.463572 264.29 0.101016C273.707 9.03383 289.584 112.253 284.253 136.828C278.365 133.254 270.64 130.696 261.077 129.153L226.859 158.157L193.137 126.602L23.8603 130.408L2.78143 162.727C-3.0592 134.13 0.44149 51.5666 11.9384 8.67913C12.403 8.98539 36.2702 9.44893 83.54 10.0697Z" sodipodi:nodetypes="cccccccccccc"/><g id="group0" transform="matrix(0.0505885451881794 0 0 0.0505885451881794 247.382404451832 358.472889374362)" fill="none">
  <path id="shape2" fill="#a25c27" stroke-opacity="0" stroke="#000000" stroke-width="0" stroke-linecap="square" stroke-linejoin="bevel" d="M410.645 0L401.416 15.2304L392.273 30.4764L383.218 45.7379L374.251 61.0151L365.371 76.3077L356.579 91.6157L347.874 106.94L339.256 122.28L330.726 137.635L322.284 153.005L313.929 168.391L305.661 183.793L297.481 199.211L289.388 214.643L281.383 230.092L273.465 245.556L265.635 261.036L257.892 276.531L250.237 292.042L242.669 307.568L235.189 323.11L227.796 338.668L220.49 354.241L213.272 369.829L206.142 385.434L199.099 401.053L192.143 416.689L185.275 432.34L178.495 448.006L171.802 463.689L165.196 479.386L158.678 495.1L152.247 510.829L145.904 526.573L139.648 542.333L133.48 558.109L127.399 573.9L121.406 589.707L115.5 605.529L109.681 621.367L103.95 637.221L98.307 653.09L92.751 668.974L87.282 684.875L81.901 700.79L76.608 716.722L71.402 732.669L66.283 748.632L61.252 764.61L56.308 780.603L51.452 796.613L46.683 812.638L42.002 828.678L37.408 844.734L32.902 860.806L28.483 876.893L24.151 892.996L19.908 909.114L15.751 925.248L11.682 941.398L7.701 957.563L3.807 973.747L0 989.937L27.524 1003.69L34.793 993.257L42.095 983.007L49.428 972.917L56.793 962.998L64.19 953.249L71.619 943.668L79.08 934.257L86.572 925.014L94.096 915.941L101.652 907.037L109.24 898.301L116.86 889.735L124.512 881.337L132.195 873.109L139.91 865.05L147.657 857.159L155.436 849.438L163.246 841.886L171.089 834.502L178.963 827.288L186.869 820.243L194.807 813.366L202.777 806.659L210.778 800.121L218.812 793.752L226.877 787.551L234.974 781.52L243.102 775.658L251.263 769.965L259.455 764.441L267.68 759.086L275.936 753.899L284.224 748.882L292.543 744.034L300.895 739.355L309.278 734.845L317.693 730.504L326.14 726.332L334.619 722.329L343.13 718.495L351.672 714.83L360.246 711.334L368.852 708.007L377.49 704.849L386.16 701.86L394.861 699.04L403.594 696.389L412.36 693.907L421.157 691.595L429.985 689.451L438.846 687.476L447.738 685.67L456.662 684.033L465.618 682.566L474.606 681.267L483.626 680.137L492.677 679.176L501.761 678.385L510.876 677.762L520.023 677.308L529.202 677.024L538.412 676.908L547.654 676.961L548.195 677.398L548.927 677.949L549.845 678.614L550.945 679.391L552.221 680.279L553.667 681.277L555.277 682.384L557.047 683.598L558.971 684.919L561.044 686.346L563.26 687.877L565.614 689.511L568.099 691.248L570.712 693.085L573.446 695.022L576.296 697.057L579.257 699.19L582.323 701.42L585.489 703.744L588.749 706.163L592.098 708.675L595.53 711.278L599.04 713.972L602.623 716.756L606.273 719.628L609.985 722.588L613.753 725.633L617.572 728.763L621.437 731.978L625.341 735.275L629.281 738.653L633.249 742.112L637.241 745.65L641.251 749.267L645.275 752.96L649.306 756.73L653.338 760.574L657.368 764.491L661.389 768.482L665.395 772.543L669.382 776.675L673.344 780.875L677.275 785.144L681.17 789.479L685.024 793.88L688.831 798.346L692.586 802.875L696.283 807.466L699.917 812.118L703.483 816.83L706.975 821.601L710.387 826.43L713.715 831.315L716.952 836.256L720.094 841.251L723.134 846.299L726.069 851.399L728.891 856.549L731.596 861.75L734.178 866.999L736.632 872.296L738.952 877.639L741.134 883.027L741.455 882.919L741.784 882.812L742.123 882.707L742.47 882.602L742.826 882.499L743.191 882.397L743.565 882.296L743.947 882.196L744.339 882.097L744.739 881.999L745.147 881.902L745.565 881.807L745.991 881.713L746.427 881.619L746.871 881.527L747.323 881.436L747.785 881.346L748.255 881.257L748.735 881.17L749.222 881.083L749.719 880.998L750.225 880.913L750.739 880.83L751.262 880.748L751.794 880.667L752.335 880.587L752.884 880.508L753.442 880.43L754.01 880.353L754.585 880.278L755.17 880.203L755.764 880.13L756.366 880.058L756.977 879.987L757.597 879.917L758.225 879.848L758.863 879.78L759.509 879.713L760.164 879.647L760.828 879.583L761.5 879.519L762.182 879.457L762.872 879.396L763.571 879.335L764.279 879.276L764.995 879.218L765.72 879.161L766.455 879.105L762.997 865.409L759.468 851.705L755.869 837.993L752.199 824.272L748.459 810.543L744.648 796.805L740.766 783.059L736.814 769.305L732.791 755.542L728.697 741.772L724.533 727.992L720.298 714.205L715.993 700.409L711.616 686.605L707.17 672.792L702.652 658.972L698.064 645.143L693.405 631.305L688.676 617.459L683.876 603.605L679.005 589.743L674.064 575.872L669.052 561.993L663.969 548.105L658.816 534.21L653.592 520.305L648.297 506.393L642.932 492.472L637.496 478.543L631.99 464.606L626.413 450.66L620.765 436.706L615.046 422.744L609.257 408.773L603.398 394.794L597.467 380.807L591.466 366.811L585.395 352.807L579.252 338.795L573.04 324.774L566.756 310.745L560.402 296.708L553.977 282.662L547.481 268.608L540.915 254.546L534.279 240.475L527.571 226.396L520.793 212.309L513.944 198.213L507.025 184.109L500.035 169.997L492.974 155.876L485.843 141.747L478.641 127.61L471.369 113.465L464.026 99.3107L456.612 85.1477L449.127 70.9776L441.572 56.7987L433.946 42.6115L426.25 28.416L418.483 14.2122L410.645 0" sodipodi:nodetypes="cccccccccccccccccccccccccccccccccccccccccccccccccccccccccccccccccccccccccccccccccccccccccccccccccccccccccccccccccccccccccccccccccccccccccccccccccccccccccccccccccccccccccccccccccccccccccccccccccccccccccccccccccccccccccccccccccccccccccccccccccccccccccccccccccccccccccccccccccccccccccccccccccccccccccccccc"/>
  <path id="shape01" transform="matrix(-0.996148572229009 0 0 0.917649583094294 747.586549302006 25.4696141710883)" fill="#e1a576" fill-rule="evenodd" stroke="#a35d28" stroke-width="27.36" stroke-linecap="square" stroke-linejoin="round" d="M266.567 133.772L338.242 0L319.321 1107.28L37.2082 944.423C12.0076 481.295 -0.391989 233.838 0.00944142 202.052C36.6145 187.791 125.467 165.031 266.567 133.772Z" sodipodi:nodetypes="cccccc"/>
  <path id="shape011" transform="matrix(0.996148572229009 0 0 0.917649583094294 59.9349998081843 22.4884615353212)" fill="#e1a576" fill-rule="evenodd" stroke="#a35d28" stroke-width="27.36" stroke-linecap="square" stroke-linejoin="round" d="M352.069 0L356.813 1273.62L0 1134.3C6.52118 562.965 10.1352 254.831 10.8421 209.898C38.7071 199.38 124.012 176.223 266.758 140.427Z" sodipodi:nodetypes="cccccc"/>
  <path id="shape21" transform="translate(1.85299508993012, 6.90949504526361)" fill="none" stroke="#9c6e2e" stroke-width="47.52" stroke-linecap="square" stroke-linejoin="miter" stroke-miterlimit="2.16000008583069" d="M410.645 0L401.416 15.2304L392.273 30.4764L383.218 45.7379L374.251 61.0151L365.371 76.3077L356.579 91.6157L347.874 106.94L339.256 122.28L330.726 137.635L322.284 153.005L313.929 168.391L305.661 183.793L297.481 199.211L289.388 214.643L281.383 230.092L273.465 245.556L265.635 261.036L257.892 276.531L250.237 292.042L242.669 307.568L235.189 323.11L227.796 338.668L220.49 354.241L213.272 369.829L206.142 385.434L199.099 401.053L192.143 416.689L185.275 432.34L178.495 448.006L171.802 463.689L165.196 479.386L158.678 495.1L152.247 510.829L145.904 526.573L139.648 542.333L133.48 558.109L127.399 573.9L121.406 589.707L115.5 605.529L109.681 621.367L103.95 637.221L98.307 653.09L92.751 668.974L87.282 684.875L81.901 700.79L76.608 716.722L71.402 732.669L66.283 748.632L61.252 764.61L56.308 780.603L51.452 796.613L46.683 812.638L42.002 828.678L37.408 844.734L32.902 860.806L28.483 876.893L24.151 892.996L19.908 909.114L15.751 925.248L11.682 941.398L7.701 957.563L3.807 973.747L0 989.937L27.524 1003.69L34.793 993.257L42.095 983.007L49.428 972.917L56.793 962.998L64.19 953.249L71.619 943.668L79.08 934.257L86.572 925.014L94.096 915.941L101.652 907.037L109.24 898.301L116.86 889.735L124.512 881.337L132.195 873.109L139.91 865.05L147.657 857.159L155.436 849.438L163.246 841.886L171.089 834.502L178.963 827.288L186.869 820.243L194.807 813.366L202.777 806.659L210.778 800.121L218.812 793.752L226.877 787.551L234.974 781.52L243.102 775.658L251.263 769.965L259.455 764.441L267.68 759.086L275.936 753.899L284.224 748.882L292.543 744.034L300.895 739.355L309.278 734.845L317.693 730.504L326.14 726.332L334.619 722.329L343.13 718.495L351.672 714.83L360.246 711.334L368.852 708.007L377.49 704.849L386.16 701.86L394.861 699.04L403.594 696.389L412.36 693.907L421.157 691.595L429.985 689.451L438.846 687.476L447.738 685.67L456.662 684.033L465.618 682.566L474.606 681.267L483.626 680.137L492.677 679.176L501.761 678.385L510.876 677.762L520.023 677.308L529.202 677.024L538.412 676.908L547.654 676.961L548.195 677.398L548.927 677.949L549.845 678.614L550.945 679.391L552.221 680.279L553.667 681.277L555.277 682.384L557.047 683.598L558.971 684.919L561.044 686.346L563.26 687.877L565.614 689.511L568.099 691.248L570.712 693.085L573.446 695.022L576.296 697.057L579.257 699.19L582.323 701.42L585.489 703.744L588.749 706.163L592.098 708.675L595.53 711.278L599.04 713.972L602.623 716.756L606.273 719.628L609.985 722.588L613.753 725.633L617.572 728.763L621.437 731.978L625.341 735.275L629.281 738.653L633.249 742.112L637.241 745.65L641.251 749.267L645.275 752.96L649.306 756.73L653.338 760.574L657.368 764.491L661.389 768.482L665.395 772.543L669.382 776.675L673.344 780.875L677.275 785.144L681.17 789.479L685.024 793.88L688.831 798.346L692.586 802.875L696.283 807.466L699.917 812.118L703.483 816.83L706.975 821.601L710.387 826.43L713.715 831.315L716.952 836.256L720.094 841.251L723.134 846.299L726.069 851.399L728.891 856.549L731.596 861.75L734.178 866.999L736.632 872.296L738.952 877.639L741.134 883.027L741.455 882.919L741.784 882.812L742.123 882.707L742.47 882.602L742.826 882.499L743.191 882.397L743.565 882.296L743.947 882.196L744.339 882.097L744.739 881.999L745.147 881.902L745.565 881.807L745.991 881.713L746.427 881.619L746.871 881.527L747.323 881.436L747.785 881.346L748.255 881.257L748.735 881.17L749.222 881.083L749.719 880.998L750.225 880.913L750.739 880.83L751.262 880.748L751.794 880.667L752.335 880.587L752.884 880.508L753.442 880.43L754.01 880.353L754.585 880.278L755.17 880.203L755.764 880.13L756.366 880.058L756.977 879.987L757.597 879.917L758.225 879.848L758.863 879.78L759.509 879.713L760.164 879.647L760.828 879.583L761.5 879.519L762.182 879.457L762.872 879.396L763.571 879.335L764.279 879.276L764.995 879.218L765.72 879.161L766.455 879.105L762.997 865.409L759.468 851.705L755.869 837.993L752.199 824.272L748.459 810.543L744.648 796.805L740.766 783.059L736.814 769.305L732.791 755.542L728.697 741.772L724.533 727.992L720.298 714.205L715.993 700.409L711.616 686.605L707.17 672.792L702.652 658.972L698.064 645.143L693.405 631.305L688.676 617.459L683.876 603.605L679.005 589.743L674.064 575.872L669.052 561.993L663.969 548.105L658.816 534.21L653.592 520.305L648.297 506.393L642.932 492.472L637.496 478.543L631.99 464.606L626.413 450.66L620.765 436.706L615.046 422.744L609.257 408.773L603.398 394.794L597.467 380.807L591.466 366.811L585.395 352.807L579.252 338.795L573.04 324.774L566.756 310.745L560.402 296.708L553.977 282.662L547.481 268.608L540.915 254.546L534.279 240.475L527.571 226.396L520.793 212.309L513.944 198.213L507.025 184.109L500.035 169.997L492.974 155.876L485.843 141.747L478.641 127.61L471.369 113.465L464.026 99.3107L456.612 85.1477L449.127 70.9776L441.572 56.7987L433.946 42.6115L426.25 28.416L418.483 14.2122L410.645 0" sodipodi:nodetypes="cccccccccccccccccccccccccccccccccccccccccccccccccccccccccccccccccccccccccccccccccccccccccccccccccccccccccccccccccccccccccccccccccccccccccccccccccccccccccccccccccccccccccccccccccccccccccccccccccccccccccccccccccccccccccccccccccccccccccccccccccccccccccccccccccccccccccccccccccccccccccccccccccccccccccccccc"/>
 </g><path id="shape3" transform="translate(143.14056595851, 256.374980470781)" fill="#bfcbd0" fill-rule="evenodd" stroke-opacity="0.533333333333333" stroke="#1a1a1a" stroke-width="2" stroke-linecap="square" stroke-linejoin="bevel" d="M82.3382 50.0167L67.9062 15.2813L0 14.2344L0.109375 8.82813L71.6875 10.0938L85.0357 44.6674M108.312 5.84375L252.64 0L253.828 4.34375L111 9.46875L48.1094 129.813L48.9844 257.75L43.7969 257.25L42.0782 128.875" sodipodi:nodetypes="cccccccccccccc"/>
</svg>
