<?xml version="1.0" standalone="no"?>
<!DOCTYPE svg PUBLIC "-//W3C//DTD SVG 20010904//EN" "http://www.w3.org/TR/2001/REC-SVG-20010904/DTD/svg10.dtd">
<!-- Created using Krita: https://krita.org -->
<svg xmlns="http://www.w3.org/2000/svg" 
    xmlns:xlink="http://www.w3.org/1999/xlink"
    xmlns:krita="http://krita.org/namespaces/svg/krita"
    xmlns:sodipodi="http://sodipodi.sourceforge.net/DTD/sodipodi-0.dtd"
    width="512pt"
    height="512pt"
    viewBox="0 0 512 512">
    <style>
        .uniform-color {
            color: #6a0000;
        }
    </style>
<defs>
  <radialGradient id="gradient0" gradientUnits="objectBoundingBox" cx="0.646153801095856" cy="-0.128472213332077" fx="0.463907731783125" fy="0.82943668344902" r="1.77315949362155" spreadMethod="reflect">
   <stop stop-color="#4f4f4f" offset="0.0571428574621677" stop-opacity="1"/>
   <stop stop-color="#232323" offset="0.423376619815826" stop-opacity="1"/>
   <stop stop-color="#646464" offset="0.742857158184052" stop-opacity="1"/>
   <stop stop-color="#767676" offset="0.984415590763092" stop-opacity="1"/>
  </radialGradient>
  <radialGradient id="gradient1" gradientUnits="objectBoundingBox" cx="0.646153801095856" cy="-0.128472213332077" fx="0.463907731783125" fy="0.82943668344902" r="1.77315949362155" spreadMethod="reflect">
   <stop stop-color="#4f4f4f" offset="0.0571428574621677" stop-opacity="1"/>
   <stop stop-color="#232323" offset="0.423376619815826" stop-opacity="1"/>
   <stop stop-color="#646464" offset="0.742857158184052" stop-opacity="1"/>
   <stop stop-color="#767676" offset="0.984415590763092" stop-opacity="1"/>
  </radialGradient>
  <radialGradient id="gradient2" gradientUnits="objectBoundingBox" cx="0.646153801095856" cy="-0.128472213332077" fx="0.463907731783125" fy="0.82943668344902" r="1.77315949362155" spreadMethod="reflect">
   <stop stop-color="#4f4f4f" offset="0.0571428574621677" stop-opacity="1"/>
   <stop stop-color="#232323" offset="0.423376619815826" stop-opacity="1"/>
   <stop stop-color="#646464" offset="0.742857158184052" stop-opacity="1"/>
   <stop stop-color="#767676" offset="0.984415590763092" stop-opacity="1"/>
  </radialGradient>
  <radialGradient id="gradient3" gradientUnits="objectBoundingBox" cx="0.49745097117199" cy="0.505498429739572" fx="0.49745097117199" fy="0.505498429739572" r="0.795711504962723" spreadMethod="pad">
   <stop stop-color="#0a0402" offset="0.257142871618271" stop-opacity="1"/>
   <stop stop-color="#86411f" offset="0.329870134592056" stop-opacity="1"/>
   <stop stop-color="#653c29" offset="0.451948046684265" stop-opacity="1"/>
   <stop stop-color="#874323" offset="0.576623380184174" stop-opacity="1"/>
   <stop stop-color="#863f1c" offset="0.677922070026398" stop-opacity="1"/>
   <stop stop-color="#0a0402" offset="0.893506467342377" stop-opacity="1"/>
  </radialGradient>
  <linearGradient id="gradient4" gradientUnits="objectBoundingBox" x1="1.00190889243833" y1="0.00326226171632532" x2="3.11827749883835" y2="0.00326226171632532" spreadMethod="pad">
   <stop stop-color="#5d2a17" offset="0.111688002943993" stop-opacity="1"/>
   <stop stop-color="#884c2f" offset="0.522077977657318" stop-opacity="1"/>
   <stop stop-color="#5d2a17" offset="0.903895974159241" stop-opacity="1"/>
  </linearGradient>
  <radialGradient id="gradient5" gradientUnits="objectBoundingBox" cx="0" cy="0" fx="0" fy="0" r="1.30968072049963" spreadMethod="pad">
   <stop stop-color="#000000" offset="0.124675326049328" stop-opacity="1"/>
   <stop stop-color="#182633" offset="0.724675297737122" stop-opacity="1"/>
   <stop stop-color="#000000" offset="0.950649321079254" stop-opacity="1"/>
  </radialGradient>
 </defs>
<path id="shape0" transform="translate(132.57558540008, 256.162500997996)" fill="#a4a4a4" fill-rule="evenodd" stroke-opacity="0" stroke="#000000" stroke-width="0" stroke-linecap="square" stroke-linejoin="bevel" d="M8.9388 19.875C117.789 35.3125 210.976 14.8125 260.751 0C285.701 59.2937 288.326 213.158 273.689 256C222.464 256 137.089 256 17.5638 256C-2.49869 149.346 -5.37369 70.6375 8.9388 19.875Z" sodipodi:nodetypes="ccccc"/><path id="shape1" transform="translate(131.939793338014, 336.156223804791)" fill="#050000" fill-rule="evenodd" stroke-opacity="0" stroke="#000000" stroke-width="0" stroke-linecap="square" stroke-linejoin="bevel" d="M0.62268 40.875C-1.81482 69.725 2.90393 114.683 14.7789 175.75L277.748 175.75C287.36 105.183 288.735 53.975 281.873 22.125C279.248 17.7 274.873 10.325 268.748 0L100.154 20.1562L14.6852 16.6875C8.12268 27.975 3.43518 36.0375 0.62268 40.875Z" sodipodi:nodetypes="cccccccc"/><path id="shape2" transform="translate(132.078546716258, 256)" fill="currentColor" class="uniform-color" fill-rule="evenodd" stroke-opacity="0" stroke="#000000" stroke-width="0" stroke-linecap="square" stroke-linejoin="bevel" d="M48.609 34.375L48.3435 29.0313C81.2343 32.4656 208.228 32.3718 261.015 0C275.659 17.675 283.44 56.55 284.359 116.625C274.159 97.25 267.409 85.125 264.109 80.25C208.659 98.45 125.784 104.7 15.4839 99L0.108932 122.625C-0.669195 71.9031 2.72143 37.2625 10.2808 18.7031C12.4777 28.725 34.2746 34.3656 48.609 34.375Z" sodipodi:nodetypes="ccccccccc"/><path id="shape21" transform="translate(141.990224836897, 256)" fill="none" stroke-opacity="0.286274509803922" stroke="#000000" stroke-width="2" stroke-linecap="butt" stroke-linejoin="round" d="M251.666 0C215.861 26.8378 104.026 35.211 38.9707 30.3281L39.0892 34.2223M0 19.3806C0.548696 26.8689 15.4572 36.134 39.2396 34.9006L38.5097 46.5625M38.7065 46.6125C143.103 51.7977 210.059 40.1395 254.728 6.01565" sodipodi:nodetypes="cccccccc"/><path id="shape032" transform="matrix(0.00292315711056429 -0.00046850019743347 0.000409098534474374 0.00255252675777156 308.335940815552 283.104419919875)" fill="url(#gradient0)" fill-rule="evenodd" stroke="#3f3f3f" stroke-width="2.88" stroke-linecap="square" stroke-linejoin="bevel" d="M60.4157 78.8393C181.713 63.3263 1329.92 63.5667 1331.4 0C1359 119.721 1395.28 4472.14 1396.7 4626.64L0 4693.46Z" sodipodi:nodetypes="ccccc"/><path id="shape0321" transform="matrix(0.0029231571105643 -0.000468500197433471 0.000409098534474375 0.00255252675777156 313.975679683576 282.166021178842)" fill="url(#gradient1)" fill-rule="evenodd" stroke="#3f3f3f" stroke-width="2.88" stroke-linecap="square" stroke-linejoin="bevel" d="M60.4157 78.8393C181.713 63.3263 1329.92 63.5667 1331.4 0C1359 119.721 1395.28 4472.14 1396.7 4626.64L0 4693.46Z" sodipodi:nodetypes="ccccc"/><path id="shape0322" transform="matrix(0.0029231571105643 -0.000468500197433471 0.000409098534474375 0.00255252675777156 319.928708394289 281.275965936521)" fill="url(#gradient2)" fill-rule="evenodd" stroke="#3f3f3f" stroke-width="2.88" stroke-linecap="square" stroke-linejoin="bevel" d="M60.4157 78.8393C181.713 63.3263 1329.92 63.5667 1331.4 0C1359 119.721 1395.28 4472.14 1396.7 4626.64L0 4693.46Z" sodipodi:nodetypes="ccccc"/><g id="group0" transform="matrix(0.888473753016573 0 0 0.888473753016573 265.64064398004 369.572131943438)" fill="none">
  <path id="shape01" transform="matrix(0.0475887772785331 0 0 0.0475887772785331 2.10322468774393e-07 15.1274733455458)" fill="url(#gradient3)" fill-rule="evenodd" stroke-opacity="0" stroke="#000000" stroke-width="0" stroke-linecap="square" stroke-linejoin="bevel" d="M178.66 114.964C110.765 110.604 79.887 230.334 177.205 238.711L613.355 244.543C715.583 236.51 706.413 112.739 612.375 113.705ZM635.223 0.0317012C815.826 -3.65776 892.75 315.848 635.223 354.812L176.583 354.812C-61.8888 338.558 -55.8136 13.2253 176.583 0.571701Z" sodipodi:nodetypes="cccccccccc"/>
  <path id="shape011" transform="matrix(0.0302511064790553 0 0 0.0302511064790553 1.10504042759277 0)" fill="url(#gradient4)" stroke-opacity="0" stroke="#000000" stroke-width="0" stroke-linecap="square" stroke-linejoin="bevel" d="M607.047 0C346.659 436.964 105.655 1042.06 0 1507.2L142.106 1562.39C345.783 1260.7 512.843 1132.91 772.803 1136.87C785.223 1147.75 949.141 1247.76 1008.39 1403.06C1019.32 1399.56 1164.43 1391.34 1180.23 1390.13C1084.13 997.108 828.11 408.079 607.047 0Z" sodipodi:nodetypes="ccccccc"/>
  <path id="shape012" transform="matrix(0.0302511064790554 0 0 0.0302511064790554 3.59727743455073 4.18918862435112)" fill="url(#gradient5)" stroke-opacity="0" stroke="#000000" stroke-width="0" stroke-linecap="square" stroke-linejoin="bevel" d="M524.808 0C271.784 424.606 102.667 863.026 0 1315.01L35.7603 1333.27C233.677 1040.11 458.94 895.45 711.548 899.296C723.617 909.867 905.36 1022.09 962.929 1173C969.51 1170.7 980.475 1168.97 995.828 1167.79C902.447 785.888 739.62 396.538 524.808 0Z" sodipodi:nodetypes="ccccccc"/>
 </g>
</svg>
