<?xml version="1.0" standalone="no"?>
<!DOCTYPE svg PUBLIC "-//W3C//DTD SVG 20010904//EN" "http://www.w3.org/TR/2001/REC-SVG-20010904/DTD/svg10.dtd">
<!-- Created using Krita: https://krita.org -->
<svg xmlns="http://www.w3.org/2000/svg" 
    xmlns:xlink="http://www.w3.org/1999/xlink"
    xmlns:krita="http://krita.org/namespaces/svg/krita"
    xmlns:sodipodi="http://sodipodi.sourceforge.net/DTD/sodipodi-0.dtd"
    width="512pt"
    height="512pt"
    viewBox="0 0 512 512">
<defs/>
<path id="shape0" transform="translate(132.902412488271, 301.252960689909)" fill="#949494" fill-rule="evenodd" stroke-opacity="0" stroke="#000000" stroke-width="0" stroke-linecap="square" stroke-linejoin="bevel" d="M14.0975 211.028L277.067 211.028C283.574 163.257 285.109 69.2943 277.414 7.92686C272.84 8.15479 212.888 14.911 97.5572 28.1956C34.7742 10.1581 2.97453 0.759599 2.1582 0C-4.20103 53.6157 4.60906 162.234 14.0975 211.028Z" sodipodi:nodetypes="cccccc"/><path id="shape1" transform="translate(132.868710828664, 247.999998919406)" fill="#434343" fill-rule="evenodd" stroke-opacity="0" stroke="#000000" stroke-width="0" stroke-linecap="square" stroke-linejoin="bevel" d="M259.194 0C268.611 8.93281 270.8 55.2562 269.85 66.1562C193.962 106.36 17.3365 114.248 0 77.3127C0.180153 71.2591 0.068783 53.0953 6.84218 27.8281C20.9981 51.6166 239.259 31.3496 259.194 0Z" sodipodi:nodetypes="ccccc"/><g id="group0" transform="matrix(0.0298093968012932 0 0 0.0298093968012932 263.587498958497 372.688010243383)" fill="none">
  <ellipse id="shape01" transform="translate(0, 450.346987930347)" rx="676.8" ry="374.76" cx="676.8" cy="374.76" fill="#a37e28" fill-rule="evenodd" stroke="#000000" stroke-width="10.8" stroke-linecap="square" stroke-linejoin="bevel"/>
  <path id="shape011" transform="translate(124.607710143104, 0)" fill="#b2b2b2" stroke="#000000" stroke-width="10.8" stroke-linecap="square" stroke-linejoin="miter" stroke-miterlimit="2.16000008583069" d="M549.065 0C288.677 436.964 105.655 888.013 0 1353.15L36.8011 1371.94C240.478 1070.25 472.297 921.381 732.257 925.339C744.677 936.217 931.709 1051.71 990.954 1207.01C997.726 1204.64 1009.01 1202.86 1024.81 1201.65C928.711 808.63 770.128 408.079 549.065 0Z" sodipodi:nodetypes="ccccccc"/>
 </g><path id="shape2" transform="translate(132.334615518646, 296.375001796088)" fill="#9a1624" fill-rule="evenodd" stroke-opacity="0" stroke="#000000" stroke-width="0" stroke-linecap="square" stroke-linejoin="bevel" d="M1.59375 12.5781C76.158 40.0381 216.645 23.5625 271.984 0L272.234 18.75C134.508 57.3436 46.6707 43.5779 0 26.125Z" sodipodi:nodetypes="ccccc"/><path id="shape02" transform="translate(132.37836853292, 315.168750876672)" fill="#9a9715" fill-rule="evenodd" stroke-opacity="0" stroke="#000000" stroke-width="0" stroke-linecap="square" stroke-linejoin="bevel" d="M0.5625 7.51562C81.7038 35.6009 188.089 22.7669 274.625 0L276.25 15C175.85 41.9448 72.6223 50.2132 0 21.0781Z" sodipodi:nodetypes="ccccc"/><path id="shape03" transform="translate(132.593996662833, 329.524999697689)" fill="#195f6d" fill-rule="evenodd" stroke-opacity="0" stroke="#000000" stroke-width="0" stroke-linecap="square" stroke-linejoin="bevel" d="M0 6.75C104.461 44.5466 214.571 15.761 278.75 0L280.562 13.8125C196.375 45.3049 71.3337 54.6436 0.125 21.4375Z" sodipodi:nodetypes="ccccc"/>
</svg>
