<?xml version="1.0" standalone="no"?>
<!DOCTYPE svg PUBLIC "-//W3C//DTD SVG 20010904//EN" "http://www.w3.org/TR/2001/REC-SVG-20010904/DTD/svg10.dtd">
<!-- Created using Krita: https://krita.org -->
<svg xmlns="http://www.w3.org/2000/svg" 
    xmlns:xlink="http://www.w3.org/1999/xlink"
    xmlns:krita="http://krita.org/namespaces/svg/krita"
    xmlns:sodipodi="http://sodipodi.sourceforge.net/DTD/sodipodi-0.dtd"
    width="512pt"
    height="512pt"
    viewBox="0 0 512 512">
<defs/>
<path id="shape0" transform="translate(132.902412488271, 301.252960689909)" fill="#949494" fill-rule="evenodd" stroke-opacity="0" stroke="#000000" stroke-width="0" stroke-linecap="square" stroke-linejoin="bevel" d="M14.0975 211.028L277.067 211.028C283.574 163.257 285.109 69.2943 277.414 7.92686C272.84 8.15479 212.888 14.911 97.5572 28.1956C34.7742 10.1581 2.97453 0.759599 2.1582 0C-4.20103 53.6157 4.60906 162.234 14.0975 211.028Z" sodipodi:nodetypes="cccccc"/><path id="shape1" transform="translate(132.868710828664, 247.999998919406)" fill="#434343" fill-rule="evenodd" stroke-opacity="0" stroke="#000000" stroke-width="0" stroke-linecap="square" stroke-linejoin="bevel" d="M259.194 0C268.611 8.93281 270.8 55.2562 269.85 66.1562C193.962 106.36 17.3365 114.248 0 77.3127C0.180153 71.2591 2.63128 53.2828 9.40468 28.0156C23.5606 51.8041 239.259 31.3496 259.194 0Z" sodipodi:nodetypes="ccccc"/><g id="group0" transform="matrix(0.0298093968012932 0 0 0.0298093968012932 264.149998936036 369.313010378148)" fill="none">
  <ellipse id="shape01" transform="translate(0, 450.346987930347)" rx="676.8" ry="374.76" cx="676.8" cy="374.76" fill="#a37e28" fill-rule="evenodd" stroke="#000000" stroke-width="10.8" stroke-linecap="square" stroke-linejoin="bevel"/>
  <path id="shape011" transform="translate(124.607710143104, 0)" fill="#b2b2b2" stroke="#000000" stroke-width="10.8" stroke-linecap="square" stroke-linejoin="miter" stroke-miterlimit="2.16000008583069" d="M549.065 0C288.677 436.964 105.655 888.013 0 1353.15L36.8011 1371.94C240.478 1070.25 472.297 921.381 732.257 925.339C744.677 936.217 931.709 1051.71 990.954 1207.01C997.726 1204.64 1009.01 1202.86 1024.81 1201.65C928.711 808.63 770.128 408.079 549.065 0Z" sodipodi:nodetypes="ccccccc"/>
 </g><path id="shape2" transform="translate(137.812498650787, 280.328122199458)" fill="none" stroke="#2b2b2b" stroke-width="4" stroke-linecap="butt" stroke-linejoin="miter" stroke-miterlimit="2" d="M9.89062 0C-2.3773 38.3177 1.40915 50.0894 0 51.0312" sodipodi:nodetypes="cc"/><path id="shape3" transform="translate(154.999998430144, 284.249997121087)" fill="none" stroke="#2b2b2b" stroke-width="4" stroke-linecap="butt" stroke-linejoin="miter" stroke-miterlimit="2" d="M7.5 0L0 55.5" sodipodi:nodetypes="cc"/><path id="shape4" transform="translate(176.718748226938, 287.49999708817)" fill="none" stroke="#2b2b2b" stroke-width="4" stroke-linecap="butt" stroke-linejoin="miter" stroke-miterlimit="2" d="M5.53125 0L0 57.8125" sodipodi:nodetypes="cc"/><path id="shape5" transform="translate(198.812497997582, 287.49999708817)" fill="none" stroke="#2b2b2b" stroke-width="4" stroke-linecap="butt" stroke-linejoin="miter" stroke-miterlimit="2" d="M3.6875 0L0 60.25" sodipodi:nodetypes="cc"/><path id="shape6" transform="translate(227.999997869606, 286.187497000881)" fill="none" stroke="#2b2b2b" stroke-width="4" stroke-linecap="butt" stroke-linejoin="miter" stroke-miterlimit="2" d="M0 0L1.65625 62.5937" sodipodi:nodetypes="cc"/><path id="shape7" transform="translate(256, 284.249997121087)" fill="none" stroke="#2b2b2b" stroke-width="4" stroke-linecap="butt" stroke-linejoin="miter" stroke-miterlimit="2" d="M0 0L4.3125 63.5312" sodipodi:nodetypes="cc"/><path id="shape8" transform="translate(281.749997146407, 280.749997156535)" fill="none" stroke="#2b2b2b" stroke-width="4" stroke-linecap="butt" stroke-linejoin="miter" stroke-miterlimit="2" d="M0 0L7.90625 64.2187" sodipodi:nodetypes="cc"/><path id="shape9" transform="translate(307.499996885608, 277.249997191983)" fill="none" stroke="#2b2b2b" stroke-width="4" stroke-linecap="butt" stroke-linejoin="miter" stroke-miterlimit="2" d="M0 0L9.875 63.1562" sodipodi:nodetypes="cc"/><path id="shape10" transform="translate(327.999996677982, 273.499997229964)" fill="none" stroke="#2b2b2b" stroke-width="4" stroke-linecap="butt" stroke-linejoin="miter" stroke-miterlimit="2" d="M0 0L11.875 61.9062" sodipodi:nodetypes="cc"/><path id="shape11" transform="translate(352.499996429844, 268.499997280604)" fill="none" stroke="#2b2b2b" stroke-width="4" stroke-linecap="butt" stroke-linejoin="miter" stroke-miterlimit="2" d="M0 0L16.75 55.25" sodipodi:nodetypes="cc"/><path id="shape12" transform="translate(371.749996234878, 262.499997341373)" fill="none" stroke="#2b2b2b" stroke-width="4" stroke-linecap="butt" stroke-linejoin="miter" stroke-miterlimit="2" d="M0 0L17.25 58" sodipodi:nodetypes="cc"/><path id="shape13" transform="translate(386.593746257764, 254.718747347539)" fill="none" stroke="#2b2b2b" stroke-width="4" stroke-linecap="butt" stroke-linejoin="miter" stroke-miterlimit="2" d="M0 0C5.92215 17.219 13.2501 37.4514 11.9375 61.4062" sodipodi:nodetypes="cc"/>
</svg>
